<svg xmlns="http://www.w3.org/2000/svg" width="222" height="85.764" viewBox="-187.338 196.08 222 85.764"><path fill="none" d="M-71.773 232.64c-.431-.194-.936-.293-2.018-.293h-2.836v6.078h3.413c1.849 0 3.026-1.247 3.026-3.145.001-1.224-.53-2.183-1.585-2.64zM-129.552 265.074a2.625 2.625 0 01-1.35.384c-.013 0-.024-.004-.036-.004a2.224 2.224 0 01-.146 2.119c.048-.003.093-.014.142-.014a2.653 2.653 0 012.654 2.656c0 .117-.02.226-.035.338a2.324 2.324 0 012.158-.694 4.466 4.466 0 01.161-2.374 4.09 4.09 0 01-3.548-2.411zM-111.368 271.714c-.022-.041-.046-.078-.065-.121-.018.073-.044.144-.066.214.043-.031.085-.064.131-.093zM-150.93 240.641l.015-.002c-.007-.006-.014-.013-.021-.017a.145.145 0 00.006.019zM-120.404 262.849a2.147 2.147 0 01-.597.094 2.19 2.19 0 01-.775-.149c.029.199.049.4.049.608 0 .361-.051.707-.138 1.04.046-.001.091-.006.138-.006.582 0 1.136.112 1.647.312a2.14 2.14 0 01-.427-1.276c0-.217.043-.424.103-.623zM-104.109 259.812c-.158.245-.34.474-.544.681a2.155 2.155 0 011.235 1.945 2.158 2.158 0 01-2.157 2.153 2.155 2.155 0 01-2.151-2.153c0-.23.046-.449.112-.658-.038.001-.074.005-.112.005-.296 0-.584-.029-.863-.086a3.872 3.872 0 01-3.28 3.804c.208.381.337.812.337 1.276 0 .719-.289 1.369-.755 1.846.408.397.7.907.843 1.478a1.797 1.797 0 011.636-1.06c.084 0 .165.014.247.024a2.74 2.74 0 01-.927-2.047 2.757 2.757 0 015.246-1.189 3.6 3.6 0 012.06-.73 3.967 3.967 0 01.585-3.758 2.159 2.159 0 01-1.512-1.531zM-137.776 214.285c-.242.49-.672.866-1.201 1.038.348.143.662.352.923.612a3.182 3.182 0 01.492-1.581c-.071-.025-.146-.04-.214-.069zM-144.499 257.497c.009-.047.03-.093.043-.141-.036.025-.073.047-.11.071.024.023.045.046.067.07zM-115.269 264.349a3.87 3.87 0 01.355-5.68 2.59 2.59 0 01-.42-.282c-.01.062-.015.125-.033.184a1.637 1.637 0 01-2.011 1.119 1.622 1.622 0 01-.659-.383 1.22 1.22 0 01-.866.896c.049.18.082.366.082.56 0 .225-.044.438-.107.641.186-.051.376-.088.578-.088 1.189 0 2.155.964 2.155 2.155a2.161 2.161 0 01-2.155 2.159c-.123 0-.242-.017-.359-.039a4.51 4.51 0 011.483 3.818c.222-.419.531-.781.91-1.062a2.616 2.616 0 01-.529-1.571 2.647 2.647 0 011.576-2.427zM-19.267 232.615h-.049s-.385 1.539-.671 2.4l-1.898 5.383h5.14l-1.871-5.383c-.296-.861-.651-2.4-.651-2.4zM-118.25 199.78a2.407 2.407 0 01-.055.271c.127.019.252.043.375.073a1.539 1.539 0 01-.32-.344zM-109.032 215.795a3.863 3.863 0 01-1.254 2.537c.067-.007.133-.021.202-.021.212 0 .413.041.606.098a3.51 3.51 0 01.877-1.989 2.18 2.18 0 01-.431-.625zM8.373 211.862c0-1.224-.53-2.187-1.583-2.64-.434-.193-.936-.29-2.021-.29H1.934v6.079h3.414c1.847 0 3.025-1.25 3.025-3.149zM-55.851 211.6c-.287-.863-.649-2.4-.649-2.4h-.046s-.385 1.537-.671 2.4l-1.898 5.381h5.14l-1.876-5.381zM-107.021 212.741a2.158 2.158 0 012.093 2.151c0 .171-.025.336-.062.494.404.116.778.293 1.107.534a2.643 2.643 0 01-.081-.622c0-.444.121-.859.315-1.229a3.177 3.177 0 01-1.991-2.135 3.153 3.153 0 01-1.381.807zM-2.764 232.64c-.435-.194-.938-.293-2.019-.293h-2.838v6.078h3.414c1.847 0 3.03-1.247 3.03-3.145-.001-1.224-.535-2.183-1.587-2.64zM-107.574 206.52a2.131 2.131 0 01-.577-1.453c0-.267.055-.518.144-.753a2.61 2.61 0 01-1.288 1.289c.084.209.133.436.133.676 0 .178-.036.349-.084.513a3.17 3.17 0 011.34-.306c.113 0 .221.024.332.034zM-111.964 210.369c0 .464-.13.894-.34 1.273a3.875 3.875 0 013.134 2.749 2.167 2.167 0 011.359-1.519c-.032.002-.062.01-.094.01a3.194 3.194 0 01-3.194-3.198c0-.604.177-1.161.468-1.644a1.646 1.646 0 01-.323.033 1.782 1.782 0 01-1.332-.604c-.212.311-.517.55-.872.688a2.651 2.651 0 011.194 2.212z"/><path fill="#EC008C" d="M-145.901 211.361a2.155 2.155 0 011.493-.603c.178 0 .347.026.512.067a3.01 3.01 0 001.043-3.603 1.673 1.673 0 01-2.338-1.822c-.147-.022-.295-.045-.448-.045a3.014 3.014 0 00-3.013 3.01 3.011 3.011 0 002.751 2.996zM-143.162 269.114a2.138 2.138 0 01-1.456.576 2.154 2.154 0 01-2.155-2.155c0-.363.099-.699.257-1.001-.167.007-.333.011-.503.041a3.456 3.456 0 00-2.762 4.02 3.451 3.451 0 004.014 2.766 3.452 3.452 0 002.765-4.018c-.009-.041-.027-.08-.037-.124-.039-.036-.086-.065-.123-.105zM-108.812 272.734c0-.157.025-.308.062-.454a1.793 1.793 0 01-1.059.353c-.671 0-1.25-.373-1.559-.919-.045.029-.087.062-.131.095a3.114 3.114 0 01-.983 1.464c-.053.208-.09.419-.09.645 0 .688.269 1.307.699 1.775.018-.001.034-.005.052-.005.5 0 .927.301 1.114.73.24.072.487.124.75.124a2.619 2.619 0 002.542-2 1.875 1.875 0 01-1.397-1.808zM-121.776 262.794c.241.092.501.149.775.149.208 0 .405-.039.597-.094a2.144 2.144 0 011.475-1.445c.063-.203.107-.415.107-.641 0-.194-.033-.381-.082-.56a1.217 1.217 0 01-.315.046 1.22 1.22 0 01-1.215-1.214c0-.124.024-.241.059-.353a2.12 2.12 0 00-.625-.102 2.178 2.178 0 00-2.133 1.734 4.106 4.106 0 011.357 2.48zM-115.335 258.387c.129.105.269.202.42.282a3.856 3.856 0 012.896-.845 4.378 4.378 0 01-.017-.345c0-.74.187-1.438.517-2.047a2.448 2.448 0 00-1.558-1.339 2.476 2.476 0 00-3.067 1.698 2.48 2.48 0 00-.08.872 1.623 1.623 0 01.889 1.724zM-118.904 260.203a1.22 1.22 0 00.866-.896 1.62 1.62 0 01-.518-1.287 1.193 1.193 0 00-.664-.199c-.543 0-1.003.364-1.156.86a2.18 2.18 0 011.472 1.522z"/><path fill="#EC008C" d="M-119.219 260.248c.11 0 .214-.017.316-.045a2.176 2.176 0 00-1.472-1.521 1.178 1.178 0 00-.059.354c0 .666.548 1.212 1.215 1.212zM-116.343 261.675c0 1.038.41 1.979 1.073 2.675a2.633 2.633 0 011.08-.234 2.64 2.64 0 012.32 1.387 3.872 3.872 0 003.28-3.805 4.305 4.305 0 01-3.383-3.514 2.483 2.483 0 01-2.942.487 3.87 3.87 0 00-1.428 3.004z"/><path fill="#EC008C" d="M-111.973 258.183a3.933 3.933 0 01-.045-.358 3.853 3.853 0 00-2.896.845 2.48 2.48 0 002.941-.487zM-126.625 274.473a2.325 2.325 0 01-2.181-1.521 3.423 3.423 0 00-.89 2.294c0 .204.026.402.06.597a1.66 1.66 0 011.417 1.646 1.62 1.62 0 01-.09.506 3.388 3.388 0 002.055.698 3.45 3.45 0 003.45-3.45c0-.828-.304-1.576-.792-2.171a4.655 4.655 0 01-.748-.433 2.334 2.334 0 01-2.281 1.834zM-131.084 267.571a2.25 2.25 0 00.348-1.196 2.24 2.24 0 00-.202-.924 2.65 2.65 0 01-1.559-.54 3.163 3.163 0 01-2.577.567 2.257 2.257 0 002.007 3.155 2.644 2.644 0 011.983-1.062zM-128.288 270.216a2.655 2.655 0 00-2.654-2.657c-.048 0-.094.012-.142.015a2.253 2.253 0 01-1.916 1.07c-.023 0-.044-.008-.067-.009a2.63 2.63 0 00-.531 1.578c0 .07.015.135.02.204a2.257 2.257 0 011.761 2.202c0 .032-.008.062-.009.093.278.099.572.162.883.162.807 0 1.519-.366 2.004-.934a2.31 2.31 0 01.615-1.386c.016-.113.036-.223.036-.338z"/><path fill="#EC008C" d="M-131.084 267.571a2.64 2.64 0 00-1.983 1.064c.022.001.044.008.067.008a2.252 2.252 0 001.916-1.072zM-126.254 271.804c.43 0 .836.088 1.215.23a4.507 4.507 0 01-1.125-2.174 2.322 2.322 0 00-2.158.693 2.654 2.654 0 01-.615 1.386c-.007.069-.021.133-.021.205 0 .286.059.556.153.81a3.419 3.419 0 012.551-1.15z"/><path fill="#EC008C" d="M-126.625 274.473c1.117 0 2.05-.782 2.281-1.827a4.775 4.775 0 01-.696-.611 3.43 3.43 0 00-1.215-.23 3.42 3.42 0 00-2.552 1.15 2.329 2.329 0 002.182 1.518zM-128.938 271.94c.329-.384.547-.86.615-1.387a2.316 2.316 0 00-.615 1.387zM-138.456 258.927c.665 0 1.266.251 1.736.65a2.145 2.145 0 00-2.125-1.89c-.329 0-.637.077-.917.213 0 .027.009.053.009.084 0 .894-.499 1.667-1.229 2.082.015.147.045.29.089.429a2.674 2.674 0 012.437-1.568z"/><path fill="#EC008C" d="M-136.727 260.178c.099-.104.207-.196.319-.289a2.704 2.704 0 00-.312-.312c.011.088.026.175.026.265 0 .116-.016.226-.033.336zM-137.459 261.48a2.131 2.131 0 01-1.386.521 2.157 2.157 0 01-2.049-1.508c-.156.34-.249.714-.249 1.112 0 .538.161 1.036.43 1.456.022 0 .042-.007.064-.007 1.057 0 1.996.471 2.647 1.201.302-.052.584-.157.844-.302a3.181 3.181 0 01-.439-1.598 3.17 3.17 0 01.138-.875z"/><path fill="#EC008C" d="M-138.845 262.001a2.13 2.13 0 001.386-.521c.141-.494.391-.937.732-1.302.017-.11.034-.221.034-.337 0-.09-.016-.177-.027-.265a2.671 2.671 0 00-1.736-.65 2.68 2.68 0 00-2.438 1.566 2.156 2.156 0 002.049 1.509z"/><path fill="#2E008B" d="M-144.095 267.42a3.617 3.617 0 01-.102-.816c0-.392.078-.765.197-1.118a2.074 2.074 0 00-.619-.101c-.828 0-1.536.47-1.898 1.151a3.423 3.423 0 012.422.884z"/><path fill="#2E008B" d="M-144.618 269.69c.563 0 1.072-.221 1.456-.576a3.557 3.557 0 01-.933-1.694 3.437 3.437 0 00-2.421-.886c-.158.3-.257.638-.257 1.001 0 1.189.963 2.155 2.155 2.155zM-140.713 263.061a3.534 3.534 0 00-3.287 2.424 2.149 2.149 0 011.539 2.052c0 .591-.24 1.125-.626 1.517.015.057.036.109.048.167a3.522 3.522 0 002.335.938 2.149 2.149 0 011.894-1.143c.234 0 .454.046.665.115a3.544 3.544 0 001.054-2.526c0-.903-.35-1.72-.909-2.347a2.72 2.72 0 01-.455.044 2.68 2.68 0 01-2.258-1.241z"/><path fill="#2E008B" d="M-143.162 269.114c.038.04.084.069.124.104-.013-.058-.033-.112-.048-.168-.024.025-.052.044-.076.064zM-140.648 263.054c-.022 0-.042.006-.064.007a2.678 2.678 0 002.257 1.24c.156 0 .307-.021.455-.047a3.534 3.534 0 00-2.648-1.2z"/><path fill="#2E008B" d="M-144.095 267.42c.474.426.827.981 1.008 1.633.386-.391.626-.923.626-1.518 0-.974-.652-1.783-1.539-2.05a3.483 3.483 0 00-.197 1.118c.001.282.041.551.102.817z"/><path fill="#2E008B" d="M-144.095 267.42c.154.651.477 1.235.933 1.694.024-.021.052-.042.075-.064a3.409 3.409 0 00-1.008-1.63z"/><path fill="#EC008C" d="M-154.656 258.851c.156-.204.253-.456.253-.735a1.215 1.215 0 00-2.43 0c0 .239.071.459.19.646a4.238 4.238 0 011.987.089z"/><path fill="#2E008B" d="M-151.587 262.919a4.233 4.233 0 00-3.068-4.067 1.213 1.213 0 01-1.987-.09 4.237 4.237 0 00-2.891 6.228 2.14 2.14 0 011.89-1.149c1.189 0 2.153.968 2.153 2.161 0 .429-.129.827-.347 1.163h.004c2.344 0 4.246-1.9 4.246-4.246z"/><path fill="#2E008B" d="M-155.615 259.328c.392 0 .737-.188.959-.477a4.245 4.245 0 00-1.988-.09c.215.341.595.567 1.029.567z"/><path fill="#EC008C" d="M-154.138 244.143a3.499 3.499 0 01.541-1.842c-.024-.021-.049-.04-.072-.062a3.182 3.182 0 00-2.807 1.793c.115.303.183.63.181.974a2.67 2.67 0 01-.367 1.317 3.184 3.184 0 003.031 2.296 3.173 3.173 0 002.312-.978 3.552 3.552 0 01-2.819-3.498z"/><path fill="#2E008B" d="M-148.315 245.73c.289.001.563.063.817.163a3.518 3.518 0 00.467-1.711 3.544 3.544 0 00-1.926-3.162 1.98 1.98 0 01-1.958-.383l-.015.002c.031.129.053.262.053.402a1.658 1.658 0 01-1.221 1.585 3.167 3.167 0 011.68 2.814 3.195 3.195 0 01-.902 2.199c.23.048.47.074.714.075.015 0 .027-.004.042-.004a2.26 2.26 0 012.249-1.98z"/><path fill="#2E008B" d="M-152.098 242.631c-.142.04-.29.066-.444.065a1.655 1.655 0 01-1.055-.395 3.527 3.527 0 00-.541 1.844 3.553 3.553 0 002.818 3.497c.551-.57.896-1.343.902-2.199a3.161 3.161 0 00-1.68-2.812z"/><path fill="#EC008C" d="M-129.483 201.685a2.261 2.261 0 012.263 2.257c0 .018-.004.036-.005.055a3.986 3.986 0 00-.641-7.917 3.987 3.987 0 00-3.988 3.985c0 .863.278 1.661.745 2.313.41-.424.985-.693 1.626-.693z"/><path fill="#2E008B" d="M-133.001 212.084a2.257 2.257 0 002.766.733 4.094 4.094 0 011.314-2.172 2.26 2.26 0 00-2.247-2.147c-.829 0-1.544.453-1.939 1.117.184.43.287.902.287 1.4 0 .374-.074.729-.181 1.069z"/><path fill="#EC008C" d="M-120.757 218.498a1.216 1.216 0 101.453-.913 2.181 2.181 0 01-1.453.913zM-130.297 214.342a1.807 1.807 0 00-1.06 1.642c0 .992.81 1.803 1.802 1.803.485 0 .923-.195 1.248-.507a4.103 4.103 0 01-1.99-2.938zM-113.746 218.688c.232-.085.479-.14.74-.14.505 0 .963.183 1.33.476a2.132 2.132 0 011.39-.692 3.861 3.861 0 001.254-2.537 2.151 2.151 0 01-.203-.902c0-.173.026-.34.064-.501a3.875 3.875 0 00-3.134-2.749 2.647 2.647 0 01-2.316 1.38c-.384 0-.747-.085-1.076-.231a3.86 3.86 0 00-.303 4.996c.15-.033.304-.054.463-.054a2.152 2.152 0 011.791.954z"/><path fill="#EC008C" d="M-112.898 211.594a4 4 0 01.594.049c.209-.38.34-.81.34-1.273 0-.926-.477-1.736-1.195-2.211a1.841 1.841 0 01-1.954-.39 2.646 2.646 0 00-.582 5.023 3.853 3.853 0 012.797-1.198z"/><path fill="#EC008C" d="M-112.305 211.644a4 4 0 00-.594-.051 3.862 3.862 0 00-2.798 1.198 2.64 2.64 0 003.392-1.147zM-110.956 204.482a1.79 1.79 0 011.66 1.121 2.61 2.61 0 001.288-1.289 2.61 2.61 0 00.243-1.091 2.619 2.619 0 10-4.496 1.827c.328-.35.788-.568 1.305-.568zM-102.167 214.228c-.135.016-.268.039-.407.039-.379 0-.737-.077-1.074-.196a2.618 2.618 0 00-.315 1.229c0 .214.033.421.081.62a3.52 3.52 0 011.242 1.666c.393.229.843.372 1.33.372 1.19 0 2.187-.787 2.527-1.862-.106.011-.209.033-.318.033-1.348 0-2.5-.777-3.066-1.901z"/><path fill="#EC008C" d="M-100.029 212.986a2.647 2.647 0 011.38 2.312c0 .28-.055.544-.136.797a3.427 3.427 0 003.128-3.414 3.44 3.44 0 00-3.447-3.441c-.274 0-.538.04-.792.1a3.17 3.17 0 01.515 1.731 3.147 3.147 0 01-.648 1.915z"/><path fill="#EC008C" d="M-100.029 212.986a3.163 3.163 0 01-2.138 1.24 3.428 3.428 0 003.064 1.902c.109 0 .211-.022.318-.033.081-.253.136-.517.136-.797 0-.996-.561-1.858-1.38-2.312zM-118.304 200.051a2.648 2.648 0 01-2.563 1.992c-.432 0-.834-.113-1.195-.297a3.822 3.822 0 001.051 5.256 1.93 1.93 0 011.652-.942c.867 0 1.591.576 1.839 1.362a3.838 3.838 0 001.934-1.599c.062-.184.149-.353.263-.506a3.76 3.76 0 00.254-.933c-.088.012-.176.026-.268.026a1.94 1.94 0 01-1.093-3.538 3.791 3.791 0 00-.638-.422 1.507 1.507 0 01-.861-.328 4.205 4.205 0 00-.375-.071z"/><path fill="#2E008B" d="M-49.487 234.586c0-1.468 1.293-2.378 3.05-2.378 1.439 0 2.473.6 3.125.984.413.24.793.288 1.078-.219l.34-.598c.212-.432.166-.793-.242-1.083-.646-.506-2.235-1.293-4.253-1.293-3.098 0-5.5 1.848-5.5 4.704 0 5.287 8.169 4.446 8.169 8.197 0 1.464-1.177 2.423-2.979 2.423-1.801 0-3.096-.938-3.699-1.371-.459-.289-.793-.238-1.083.146l-.41.575c-.356.481-.212.819.099 1.108.767.625 2.641 1.752 5.092 1.752 3.389 0 5.384-2.165 5.384-4.83-.001-5.451-8.171-4.467-8.171-8.117zM-28.808 245.179h-7.113v-5.453h5.311c.503 0 .794-.265.794-.793v-.481c0-.526-.292-.794-.794-.794h-5.311v-5.311h6.705c.527 0 .788-.286.788-.788v-.483c0-.526-.261-.791-.788-.791h-8.268c-.526 0-.79.265-.79.791v15.376c0 .526.264.797.79.797h8.677c.526 0 .792-.271.792-.797v-.483c-.001-.526-.267-.79-.793-.79zM-54.056 246.452v-.483c0-.526-.266-.789-.795-.789h-7.111v-5.451h5.313c.501 0 .79-.267.79-.795v-.479c0-.526-.289-.794-.79-.794h-5.313v-5.311h6.705c.525 0 .788-.287.788-.79v-.482c0-.527-.263-.791-.788-.791h-8.261c-.532 0-.797.264-.797.791v15.375c0 .527.265.797.797.797h8.667c.531-.001.795-.271.795-.798zM-65.575 220.368c-.313-.407-.696-.407-1.104-.096-.75.577-2.376 1.655-4.612 1.655-3.917 0-6.296-3.097-6.296-6.699 0-3.582 2.33-6.466 6.271-6.466 2.042 0 3.531.865 4.249 1.349.457.287.819.239 1.106-.19l.313-.481c.262-.434.239-.817-.144-1.108-.844-.623-2.716-1.748-5.624-1.748-5.067 0-8.621 3.744-8.621 8.667 0 4.975 3.432 8.866 8.671 8.866 3.1 0 5.167-1.44 6.029-2.161.387-.34.408-.725.122-1.105l-.36-.483zM-56.106 261.47v-.052l4.615-7.255c.24-.407.072-.72-.406-.72h-.606c-.308 0-.526.122-.693.411l-4.304 6.919h-2.858v-6.724c0-.389-.213-.604-.574-.604h-.506c-.385 0-.577.212-.577.604v15.686c0 .383.189.601.577.601h.506c.357 0 .574-.215.574-.601v-7.47h2.858l4.589 7.658c.168.292.387.412.697.412h.668c.459 0 .647-.314.384-.697l-4.944-8.168zM-67.786 235.184c0-2.16-1.057-3.72-2.663-4.441-.7-.313-1.519-.458-3.173-.458h-4.564c-.531 0-.794.265-.794.791v15.376c0 .526.263.797.794.797h.768c.527 0 .791-.271.791-.797v-5.959h3.629l3.318 6.198c.188.384.477.558.934.558h.96c.599 0 .844-.384.528-.943l-3.051-5.643c-.293-.525-.507-.77-.507-.77v-.048c1.879-.627 3.03-2.499 3.03-4.661zm-5.429 3.242h-3.411v-6.078h2.837c1.082 0 1.586.098 2.017.292 1.058.458 1.586 1.417 1.586 2.642-.001 1.895-1.179 3.144-3.029 3.144zM-66.68 253.447h-.48c-.386 0-.601.212-.601.603v10.328c0 2.956-1.899 4.687-4.806 4.687-2.908 0-4.781-1.73-4.781-4.641V254.05c0-.39-.218-.603-.601-.603h-.482c-.383 0-.6.212-.6.603v10.402c0 3.747 2.644 6.174 6.487 6.174 3.82 0 6.437-2.427 6.437-6.174V254.05c.003-.391-.19-.603-.573-.603zM-12.384 223.83h8.676c.528 0 .792-.265.792-.797v-.478c0-.529-.263-.795-.792-.795h-7.111v-5.455h5.312c.501 0 .791-.262.791-.791v-.483c0-.524-.29-.788-.791-.788h-5.312v-5.311h6.703c.526 0 .789-.285.789-.792v-.481c0-.527-.263-.79-.789-.79h-8.268c-.525 0-.791.263-.791.79v15.374c0 .532.264.797.791.797zM-1.299 240.663c-.288-.525-.503-.77-.503-.77v-.048c1.869-.626 3.027-2.498 3.027-4.659 0-2.16-1.06-3.722-2.666-4.443-.699-.312-1.518-.457-3.174-.457h-4.562c-.528 0-.792.264-.792.791v15.376c0 .526.264.796.792.796h.772c.527 0 .787-.27.787-.796v-5.96h3.63l3.313 6.2c.192.384.481.556.935.556h.964c.599 0 .839-.384.526-.943l-3.049-5.643zm-2.909-2.237h-3.414v-6.078h2.838c1.082 0 1.584.098 2.019.292 1.052.458 1.586 1.417 1.586 2.642.001 1.895-1.182 3.144-3.029 3.144zM-22.116 224.116c3.1 0 5.165-1.439 6.03-2.161.384-.34.406-.724.12-1.105l-.36-.481c-.314-.407-.696-.407-1.104-.096-.749.577-2.38 1.655-4.614 1.655-3.916 0-6.293-3.097-6.293-6.699 0-3.582 2.331-6.466 6.27-6.466 2.042 0 3.535.865 4.252 1.349.455.287.815.239 1.104-.19l.313-.481c.264-.434.242-.817-.144-1.108-.842-.623-2.716-1.748-5.625-1.748-5.063 0-8.624 3.744-8.624 8.667.001 4.972 3.437 8.864 8.675 8.864zM-46.409 223.83h.771c.526 0 .792-.265.792-.797v-10.209c0-.96-.145-2.474-.145-2.474h.045s.795 1.539 1.398 2.474l7.254 10.476c.214.384.502.53.935.53h.917c.522 0 .791-.265.791-.797v-15.374c0-.527-.268-.79-.791-.79h-.773c-.501 0-.791.263-.791.79v10.235c0 .937.143 2.451.143 2.451h-.05s-.791-1.538-1.391-2.451l-7.23-10.497c-.242-.385-.509-.528-.959-.528h-.915c-.525 0-.792.263-.792.79v15.374c-.002.532.265.797.791.797zM-62.912 223.83h.814c.435 0 .748-.216.866-.647l1.493-4.232h6.387l1.512 4.232c.146.431.437.647.894.647h.814c.576 0 .838-.361.645-.915l-5.569-15.398c-.146-.458-.461-.647-.893-.647h-1.153c-.456 0-.742.189-.887.647l-5.575 15.398c-.188.553.05.915.652.915zm5.695-12.23c.286-.863.67-2.4.67-2.4h.045s.362 1.537.648 2.4l1.875 5.381h-5.14l1.902-5.381zM33.895 230.285h-.79c-.508 0-.798.265-.798.791v6.677h-8.815v-6.677c0-.526-.264-.791-.792-.791h-.769c-.529 0-.791.265-.791.791v15.376c0 .526.262.797.791.797h.769c.528 0 .792-.271.792-.797v-6.656h8.815v6.656c0 .527.29.797.798.797h.79c.506 0 .768-.27.768-.797v-15.376c-.001-.526-.263-.791-.768-.791zM8.878 223.277c.189.381.48.553.935.553h.963c.597 0 .838-.386.525-.938l-3.051-5.646c-.294-.528-.508-.769-.508-.769v-.048c1.875-.626 3.029-2.5 3.029-4.662 0-2.163-1.057-3.723-2.667-4.443-.696-.31-1.514-.455-3.168-.455H.369c-.525 0-.789.263-.789.79v15.374c0 .532.264.797.789.797h.776c.525 0 .787-.265.787-.797v-5.956H5.56l3.318 6.2zm-6.944-8.266v-6.078h2.835c1.085 0 1.587.098 2.021.29 1.053.453 1.583 1.416 1.583 2.641 0 1.897-1.179 3.147-3.027 3.147H1.934zM17.983 243.785c-.31-.41-.696-.41-1.101-.099-.747.581-2.379 1.66-4.615 1.66-3.914 0-6.295-3.1-6.295-6.698 0-3.583 2.334-6.466 6.271-6.466 2.042 0 3.534.866 4.252 1.344.458.291.819.241 1.104-.191l.312-.479c.266-.433.243-.814-.146-1.105-.842-.626-2.71-1.751-5.618-1.751-5.071 0-8.624 3.748-8.624 8.671 0 4.971 3.434 8.864 8.67 8.864a9.352 9.352 0 006.03-2.166c.385-.336.412-.721.123-1.102l-.363-.482zM-17.83 230.931c-.141-.455-.456-.646-.887-.646h-1.153c-.46 0-.747.191-.89.646l-5.57 15.399c-.196.554.042.918.648.918h.81c.433 0 .747-.223.867-.653l1.491-4.229h6.39l1.511 4.229c.143.431.438.653.888.653h.822c.575 0 .838-.362.648-.918l-5.575-15.399zm-4.058 9.467l1.9-5.384c.284-.862.67-2.4.67-2.4h.048s.355 1.538.649 2.4l1.869 5.384h-5.136zM-130.236 212.817a4.162 4.162 0 00-.109.927c0 .203.02.401.048.598a1.78 1.78 0 01.742-.167c.994 0 1.803.812 1.803 1.808 0 .509-.214.967-.555 1.296a4.076 4.076 0 005.042-.744c-.005-.063-.018-.123-.018-.186 0-.79.423-1.474 1.051-1.854a4.092 4.092 0 00-4.023-4.846c-1.02 0-1.95.377-2.667.994.002.043.013.081.013.122 0 .917-.545 1.7-1.327 2.052z"/><path fill="#2E008B" d="M-130.236 212.817a2.25 2.25 0 001.327-2.051c0-.043-.011-.081-.013-.121a4.094 4.094 0 00-1.314 2.172zM-127.751 215.983c0-.996-.809-1.808-1.804-1.808-.264 0-.515.062-.742.166a4.1 4.1 0 001.99 2.938 1.8 1.8 0 00.556-1.296zM-149.051 222.652c0-.199.024-.392.058-.58a5.562 5.562 0 00-7.569 3.934c.299.434.477.959.477 1.527 0 .483-.139.932-.361 1.323a5.57 5.57 0 005.317 3.915 5.568 5.568 0 005.565-5.565c0-.478-.067-.938-.181-1.38-.037.001-.072.011-.11.011a3.185 3.185 0 01-3.196-3.185zM-135.783 203.298a3.445 3.445 0 003.449-3.441 3.452 3.452 0 00-3.449-3.455 3.452 3.452 0 00-3.449 3.455 3.445 3.445 0 003.449 3.441z"/><path fill="#EC008C" d="M-164.162 211.661c0 1.105.901 2.009 2.01 2.009a2.01 2.01 0 10-2.01-2.009zM-142.52 218.437a2.15 2.15 0 011.872 2.131c0 .025-.007.047-.007.07.198.045.403.073.614.073a2.795 2.795 0 002.779-2.54 3.172 3.172 0 01-.806-2.103c0-.046.012-.089.014-.134a2.804 2.804 0 00-.923-.612 2.073 2.073 0 01-.628.107c-.36 0-.695-.101-.988-.264a2.75 2.75 0 00-1.137.527c.107.271.169.566.168.877a2.343 2.343 0 01-.958 1.868z"/><path fill="#C8C9C7" d="M-156.562 226.007a2.685 2.685 0 00-2.212-1.164 2.69 2.69 0 100 5.381c1 0 1.864-.556 2.328-1.367a5.514 5.514 0 01-.116-2.85z"/><path fill="#2E008B" d="M-156.562 226.007a5.514 5.514 0 00.116 2.85c.223-.392.362-.84.362-1.322a2.687 2.687 0 00-.478-1.528z"/><path fill="#C8C9C7" d="M-156.562 226.007a5.514 5.514 0 00.116 2.85c.223-.392.362-.84.362-1.322a2.687 2.687 0 00-.478-1.528z"/><path fill="#2E008B" d="M-138.977 215.323a2.044 2.044 0 001.201-1.038 3.547 3.547 0 01-2.117-2.914 2.031 2.031 0 00-.701 3.797 2.755 2.755 0 011.617.155z"/><path fill="#2E008B" d="M-138.977 215.323a2.797 2.797 0 00-1.617-.156c.294.163.628.266.989.266.221-.003.429-.047.628-.11zM-118.995 215.804c.071.009.14.023.212.023a2.158 2.158 0 002.153-2.157 2.157 2.157 0 00-2.153-2.152c-1.189 0-2.154.97-2.154 2.152 0 .183.029.357.072.526.907.1 1.646.746 1.87 1.608zM-142.747 218.584a2.33 2.33 0 01-1.182.32c-.069 0-.135-.015-.203-.022a2.18 2.18 0 00-.617.778 3.188 3.188 0 012.09 2.992c0 .019-.005.036-.005.055a2.141 2.141 0 002.009-2.067 2.8 2.8 0 01-2.092-2.056z"/><path fill="#EC008C" d="M-142.52 218.437a2.365 2.365 0 01-.227.146 2.798 2.798 0 002.091 2.055c0-.023.007-.045.007-.07a2.149 2.149 0 00-1.871-2.131z"/><path fill="#2E008B" d="M-142.52 218.437a2.365 2.365 0 01-.227.146 2.798 2.798 0 002.091 2.055c0-.023.007-.045.007-.07a2.149 2.149 0 00-1.871-2.131zM-115.027 203.834c0 .188-.017.37-.043.55a1.933 1.933 0 00-.268-3.848c-.405 0-.78.126-1.092.339a3.815 3.815 0 011.403 2.959z"/><path fill="#2E008B" d="M-117.275 202.473c0 1.071.87 1.938 1.937 1.938.092 0 .18-.015.268-.027.026-.18.043-.362.043-.55a3.82 3.82 0 00-1.403-2.96c-.509.347-.845.93-.845 1.599zM-121.011 207.001a1.93 1.93 0 00-.285 1.002c0 .33.09.638.238.911a1.209 1.209 0 011.053-.622c.673 0 1.215.544 1.215 1.214 0 .126-.024.244-.059.357a1.937 1.937 0 001.427-1.86c0-.205-.04-.398-.099-.584a3.801 3.801 0 01-3.49-.418z"/><path fill="#2E008B" d="M-119.359 206.059a1.93 1.93 0 00-1.652.942 3.808 3.808 0 003.49.42 1.932 1.932 0 00-1.838-1.362zM-115.694 206.422c0 .529.224 1.007.579 1.347.161-.029.325-.05.494-.05.54 0 1.041.162 1.46.439.355-.139.66-.378.872-.688a1.776 1.776 0 01-.464-1.19c0-.395.129-.756.343-1.051a1.857 1.857 0 00-1.425-.67c-.611 0-1.151.301-1.49.759a3.972 3.972 0 01-.263.506 1.873 1.873 0 00-.106.598z"/><path fill="#2E008B" d="M-113.16 208.158a2.653 2.653 0 00-1.46-.438c-.169 0-.333.02-.494.05.334.319.785.52 1.281.52a1.88 1.88 0 00.673-.132zM-115.324 205.317a1.831 1.831 0 00-.263.506 3.73 3.73 0 00.263-.506zM-121.103 218.534c.119 0 .232-.016.346-.034a1.214 1.214 0 011.452-.913c.243-.353.387-.776.387-1.235 0-.189-.032-.371-.077-.545a2.149 2.149 0 01-1.87-1.607c-.079-.01-.156-.024-.238-.024-.415 0-.799.121-1.129.322a4.078 4.078 0 01-1.033 2.039 2.175 2.175 0 002.162 1.997z"/><path fill="#2E008B" d="M-120.757 218.498c.6-.096 1.12-.432 1.453-.912a1.204 1.204 0 00-1.453.912zM-123.283 216.349c0 .062.013.123.018.185a4.081 4.081 0 001.033-2.04 2.17 2.17 0 00-1.051 1.855zM-118.995 215.804a2.171 2.171 0 00-1.87-1.607c.22.864.96 1.518 1.87 1.607z"/><path fill="#EC008C" d="M-118.25 199.78c.087.132.198.245.32.344.303.076.592.186.861.328.027.001.053.008.079.008.834 0 1.506-.669 1.506-1.508 0-.829-.672-1.503-1.506-1.503-.645 0-1.192.406-1.408.973.116.3.187.623.187.966.001.134-.019.263-.039.392z"/><path fill="#EC008C" d="M-117.068 200.45a3.704 3.704 0 00-.861-.326c.24.19.535.31.861.326z"/><path fill="#2E008B" d="M-129.646 206.196a1.675 1.675 0 00.865 3.111 1.676 1.676 0 00.281-3.329 2.226 2.226 0 01-.983.236c-.056 0-.107-.014-.163-.018zM-142.852 207.223a1.677 1.677 0 10-2.337-1.821 3.005 3.005 0 012.337 1.821z"/><path fill="#2E008B" d="M-143.542 207.372c.246 0 .479-.056.69-.15a3.008 3.008 0 00-2.338-1.82 1.642 1.642 0 00-.029.292c0 .933.753 1.678 1.677 1.678z"/><path fill="#C8C9C7" d="M-177.854 205.602c.672 0 1.217-.546 1.217-1.208 0-.674-.545-1.219-1.217-1.219-.669 0-1.215.545-1.215 1.219.001.66.547 1.208 1.215 1.208z"/><path fill="#2E008B" d="M-121.058 208.915c-.1.176-.161.377-.161.593a1.213 1.213 0 002.37.357 1.88 1.88 0 01-.511.077 1.932 1.932 0 01-1.698-1.027z"/><path fill="#2E008B" d="M-120.004 208.292c-.454 0-.846.253-1.053.623a1.928 1.928 0 001.699 1.026c.178 0 .347-.031.511-.077a1.21 1.21 0 00.059-.358 1.217 1.217 0 00-1.216-1.214z"/><path fill="#EC008C" d="M-156.557 200.519c.671 0 1.216-.541 1.216-1.215a1.215 1.215 0 00-2.429 0 1.21 1.21 0 001.213 1.215z"/><path fill="#C8C9C7" d="M-137.561 213.388c0 .322-.082.625-.215.896.069.029.143.044.214.071a3.18 3.18 0 014.005-1.192c.246-.321.431-.685.556-1.08a2.237 2.237 0 01-.429-1.316c0-.421.123-.812.324-1.15a3.501 3.501 0 00-.618-.95 2.15 2.15 0 01-3.256-1.144 3.545 3.545 0 00-2.948 3.492c0 .121.024.237.035.354.095-.014.19-.028.288-.028a2.043 2.043 0 012.044 2.047z"/><path fill="#2E008B" d="M-133.001 212.084c.107-.34.181-.694.181-1.068 0-.498-.103-.97-.287-1.4-.2.34-.324.73-.324 1.152 0 .492.162.945.43 1.316z"/><path fill="#C8C9C7" d="M-133.001 212.084c.107-.34.181-.694.181-1.068 0-.498-.103-.97-.287-1.4-.2.34-.324.73-.324 1.152 0 .492.162.945.43 1.316z"/><path fill="#2E008B" d="M-137.776 214.285a2.03 2.03 0 00.215-.896 2.042 2.042 0 00-2.045-2.047c-.098 0-.192.016-.288.029a3.551 3.551 0 002.118 2.914z"/><path fill="#C8C9C7" d="M-137.776 214.285a2.03 2.03 0 00.215-.896 2.042 2.042 0 00-2.045-2.047c-.098 0-.192.016-.288.029a3.551 3.551 0 002.118 2.914z"/><path fill="#EC008C" d="M-155.724 213.314a3.555 3.555 0 103.554-3.551c-.306 0-.597.051-.879.122a3.152 3.152 0 01-1.364.694 3.532 3.532 0 00-1.311 2.735z"/><path fill="#C8C9C7" d="M-145.901 211.361c-.408.394-.664.94-.664 1.552 0 .812.454 1.508 1.116 1.876a2.331 2.331 0 011.552-.584c.361 0 .699.091 1.003.239a2.151 2.151 0 00-1.001-3.618 2.982 2.982 0 01-1.742.563c-.092-.001-.176-.018-.264-.028z"/><path fill="#EC008C" d="M-145.901 211.361c.088.009.173.027.263.027.652 0 1.25-.212 1.742-.562a2.114 2.114 0 00-.512-.069 2.16 2.16 0 00-1.493.604z"/><path fill="#C8C9C7" d="M-145.901 211.361c.088.009.173.027.263.027.652 0 1.25-.212 1.742-.562a2.114 2.114 0 00-.512-.069 2.16 2.16 0 00-1.493.604zM-140.704 270.157a2.113 2.113 0 00-.264 1.008 2.156 2.156 0 104.31 0c0-.955-.626-1.754-1.486-2.035a3.544 3.544 0 01-2.503 1.032c-.02 0-.039-.005-.057-.005z"/><path fill="#2E008B" d="M-140.704 270.157c.019 0 .037.005.056.005.976 0 1.86-.395 2.502-1.032a2.095 2.095 0 00-.665-.114 2.146 2.146 0 00-1.893 1.141z"/><path fill="#C8C9C7" d="M-140.704 270.157c.019 0 .037.005.056.005.976 0 1.86-.395 2.502-1.032a2.095 2.095 0 00-.665-.114 2.146 2.146 0 00-1.893 1.141z"/><path fill="#00B6ED" d="M-133.725 208.666c.57-.387.946-1.04.946-1.785a2.15 2.15 0 00-2.152-2.151 2.152 2.152 0 00-2.158 2.151c0 .226.043.438.108.641.197-.034.397-.062.604-.062a3.543 3.543 0 012.652 1.206z"/><path fill="#C8C9C7" d="M-134.931 209.036c.447 0 .862-.137 1.206-.37a3.533 3.533 0 00-2.653-1.206c-.207 0-.406.028-.603.062a2.148 2.148 0 002.05 1.514z"/><path fill="#00B6ED" d="M-134.931 209.036c.447 0 .862-.137 1.206-.37a3.533 3.533 0 00-2.653-1.206c-.207 0-.406.028-.603.062a2.148 2.148 0 002.05 1.514z"/><path fill="#EC008C" d="M-161.216 220.067a2.154 2.154 0 10-4.309 0c0 1.186.965 2.149 2.153 2.149a2.154 2.154 0 002.156-2.149zM-105.915 207.206c.511.411.889.971 1.072 1.618a3.189 3.189 0 012.27-.943c.577 0 1.11.166 1.577.432.099-.278.163-.573.163-.886a2.658 2.658 0 00-2.657-2.654c-.134 0-.263.021-.392.039.01.085.025.169.025.257a2.144 2.144 0 01-2.058 2.137zM-174.945 215.661a2.081 2.081 0 002.083-2.078 2.08 2.08 0 00-2.083-2.079 2.079 2.079 0 100 4.157z"/><path fill="#2E008B" d="M-144.955 220.568c0-.326.077-.632.207-.91a3.172 3.172 0 00-1.106-.207l-.023.002a2.15 2.15 0 01-2.142 1.916 2.113 2.113 0 01-.691-.13 3.165 3.165 0 00-.282.83 5.576 5.576 0 013.248 3.756 3.177 3.177 0 003.081-3.12c-.047.002-.091.013-.137.013a2.149 2.149 0 01-2.155-2.15z"/><path fill="#2E008B" d="M-148.993 222.072a3.16 3.16 0 00-.058.58 3.188 3.188 0 003.196 3.187c.038 0 .073-.01.11-.011a5.568 5.568 0 00-3.248-3.756zM-144.749 219.66a2.152 2.152 0 00-.207.908c0 1.189.964 2.152 2.154 2.152.046 0 .09-.011.137-.015 0-.019.005-.036.005-.055a3.185 3.185 0 00-2.089-2.99z"/><path fill="#C8C9C7" d="M-155.122 210.664c.245 0 .48-.032.709-.084a3.49 3.49 0 011.364-.694 3.17 3.17 0 001.125-2.415c0-1.053-.516-1.98-1.304-2.562a1.653 1.653 0 01-.265-.173 3.181 3.181 0 00-1.629-.46 3.191 3.191 0 00-3.191 3.195 3.189 3.189 0 003.191 3.193z"/><path fill="#EC008C" d="M-153.05 209.885c-.51.129-.969.37-1.364.694.516-.115.977-.36 1.364-.694z"/><path fill="#C8C9C7" d="M-153.05 209.885c-.51.129-.969.37-1.364.694.516-.115.977-.36 1.364-.694z"/><path fill="#EC008C" d="M-165.833 211.125a2.81 2.81 0 100-5.622 2.81 2.81 0 00-2.81 2.815 2.81 2.81 0 002.81 2.807z"/><path fill="#C8C9C7" d="M-174.383 222.362a2.397 2.397 0 002.395 2.398 2.4 2.4 0 002.395-2.398 2.39 2.39 0 00-2.395-2.393 2.39 2.39 0 00-2.395 2.393z"/><path fill="#00B6ED" d="M-136.377 214.573a3.49 3.49 0 01-1.185-.219c-.293.46-.468.999-.492 1.581.506.508.819 1.204.819 1.976 0 .089-.019.173-.027.261a3.172 3.172 0 002.391 1.097 3.2 3.2 0 003.196-3.199 3.185 3.185 0 00-1.882-2.905 3.544 3.544 0 01-2.82 1.408z"/><path fill="#EC008C" d="M-138.054 215.935c-.002.044-.014.087-.014.132 0 .81.311 1.54.806 2.104.008-.087.026-.172.026-.262 0-.769-.312-1.466-.818-1.974z"/><path fill="#00B6ED" d="M-138.054 215.935c-.002.044-.014.087-.014.132 0 .81.311 1.54.806 2.104.008-.087.026-.172.026-.262 0-.769-.312-1.466-.818-1.974z"/><path fill="#C8C9C7" d="M-137.562 214.356c.372.132.767.217 1.185.217a3.54 3.54 0 002.82-1.409 3.169 3.169 0 00-4.005 1.192z"/><path fill="#00B6ED" d="M-137.562 214.356c.372.132.767.217 1.185.217a3.54 3.54 0 002.82-1.409 3.169 3.169 0 00-4.005 1.192z"/><path fill="#2E008B" d="M-131.11 202.381a2.238 2.238 0 00-.635 1.562c0 1.193.926 2.169 2.099 2.254.253-.153.547-.246.865-.246.096 0 .188.013.28.027a2.264 2.264 0 001.274-1.98 3.878 3.878 0 01-.641.058 3.997 3.997 0 01-3.242-1.675z"/><path fill="#2E008B" d="M-129.483 201.685c-.641 0-1.216.268-1.627.693a3.982 3.982 0 003.242 1.675c.219 0 .433-.023.642-.057 0-.019.005-.036.005-.055a2.26 2.26 0 00-2.262-2.256zM-129.646 206.196c.055.004.106.017.163.017.354 0 .685-.09.983-.236a1.737 1.737 0 00-.28-.028 1.663 1.663 0 00-.866.247zM-154.124 240.577v-.002a2.153 2.153 0 10-4.308-.027 2.15 2.15 0 002.146 2.164 2.134 2.134 0 002.096-1.633c0-.021-.005-.039-.005-.056 0-.156.029-.304.071-.446z"/><path fill="#C8C9C7" d="M-156.477 244.033a2.698 2.698 0 00-2.499-1.743 2.699 2.699 0 00-2.71 2.688 2.687 2.687 0 002.676 2.702c1.01.01 1.88-.543 2.348-1.356a3.23 3.23 0 01-.146-.92c.003-.493.127-.955.331-1.371z"/><path fill="#EC008C" d="M-156.477 244.033a3.147 3.147 0 00-.331 1.372c-.001.322.058.626.146.919a2.67 2.67 0 00.367-1.317 2.715 2.715 0 00-.182-.974z"/><path fill="#C8C9C7" d="M-156.477 244.033a3.147 3.147 0 00-.331 1.372c-.001.322.058.626.146.919a2.67 2.67 0 00.367-1.317 2.715 2.715 0 00-.182-.974zM-145.45 214.789a2.326 2.326 0 00-.812 1.754 2.34 2.34 0 002.131 2.339 2.13 2.13 0 011.331-.473l.014.001a2.833 2.833 0 01-.05-.499c0-.906.439-1.705 1.106-2.217a2.347 2.347 0 00-1.163-1.25 2.144 2.144 0 01-1.514.623 2.112 2.112 0 01-1.043-.278z"/><path fill="#EC008C" d="M-142.838 217.909c0 .172.021.338.05.5.092.001.18.015.269.028.573-.426.952-1.1.957-1.866 0-.311-.061-.605-.168-.877a2.786 2.786 0 00-1.108 2.215z"/><path fill="#C8C9C7" d="M-142.838 217.909c0 .172.021.338.05.5.092.001.18.015.269.028.573-.426.952-1.1.957-1.866 0-.311-.061-.605-.168-.877a2.786 2.786 0 00-1.108 2.215z"/><path fill="#2E008B" d="M-142.747 218.584c-.015-.058-.03-.115-.042-.174l-.013-.001c-.505 0-.963.181-1.331.473.068.007.134.021.203.022.433.003.834-.118 1.183-.32z"/><path fill="#C8C9C7" d="M-142.747 218.584c-.015-.058-.03-.115-.042-.174l-.013-.001c-.505 0-.963.181-1.331.473.068.007.134.021.203.022.433.003.834-.118 1.183-.32z"/><path fill="#EC008C" d="M-142.52 218.437c-.089-.013-.176-.027-.269-.027.011.059.027.116.042.174.078-.046.154-.093.227-.147z"/><path fill="#2E008B" d="M-142.52 218.437c-.089-.013-.176-.027-.269-.027.011.059.027.116.042.174.078-.046.154-.093.227-.147z"/><path fill="#C8C9C7" d="M-142.52 218.437c-.089-.013-.176-.027-.269-.027.011.059.027.116.042.174.078-.046.154-.093.227-.147zM-145.45 214.789c.31.172.662.278 1.042.278a2.14 2.14 0 001.514-.625 2.31 2.31 0 00-1.003-.238 2.338 2.338 0 00-1.553.585z"/><path fill="#C8C9C7" d="M-145.45 214.789c.31.172.662.278 1.042.278a2.14 2.14 0 001.514-.625 2.31 2.31 0 00-1.003-.238 2.338 2.338 0 00-1.553.585z"/><path fill="#2E008B" d="M-179.284 230.668a2.16 2.16 0 00-2.171 2.144 2.152 2.152 0 002.145 2.167 2.15 2.15 0 002.163-2.139 2.16 2.16 0 00-2.137-2.172z"/><path fill="#EC008C" d="M-184.106 224.401a1.615 1.615 0 00-3.231-.016 1.611 1.611 0 001.608 1.622 1.62 1.62 0 001.623-1.606z"/><path fill="#00B6ED" d="M-184.954 253.338c-.889 0-1.62.72-1.62 1.608a1.612 1.612 0 103.226.019 1.62 1.62 0 00-1.606-1.627zM-164.892 248.001a2.15 2.15 0 002.167-2.138 2.155 2.155 0 00-4.311-.028 2.152 2.152 0 002.144 2.166zM-129.636 275.844a1.509 1.509 0 00-.235-.025 1.662 1.662 0 00-.02 3.324 1.652 1.652 0 001.581-1.146 3.436 3.436 0 01-1.326-2.153z"/><path fill="#EC008C" d="M-129.636 275.844c.155.88.641 1.638 1.326 2.153.053-.16.089-.329.09-.506a1.662 1.662 0 00-1.416-1.647z"/><path fill="#00B6ED" d="M-129.636 275.844c.155.88.641 1.638 1.326 2.153.053-.16.089-.329.09-.506a1.662 1.662 0 00-1.416-1.647z"/><path fill="#C8C9C7" d="M-150.936 240.623a.105.105 0 00.021.017c.117-.011.23-.035.35-.035a3.547 3.547 0 011.607.416 2.036 2.036 0 001.406-1.918 2.031 2.031 0 00-.79-1.618 2.694 2.694 0 01-2.266 1.215c-.335 0-.652-.071-.947-.185a2 2 0 00-.09.56c0 .227.043.442.111.646.291.224.504.539.598.902z"/><path fill="#2E008B" d="M-150.916 240.64c.354.301.806.489 1.307.493.229.002.445-.043.651-.11a3.526 3.526 0 00-1.607-.416c-.121 0-.234.023-.351.033z"/><path fill="#C8C9C7" d="M-150.916 240.64c.354.301.806.489 1.307.493.229.002.445-.043.651-.11a3.526 3.526 0 00-1.607-.416c-.121 0-.234.023-.351.033z"/><path fill="#2E008B" d="M-162.146 237.436a2.139 2.139 0 002.165-2.136 2.154 2.154 0 00-4.308-.027 2.146 2.146 0 002.143 2.163z"/><path fill="#C8C9C7" d="M-145.878 219.455c.008-.075.022-.149.023-.227a2.153 2.153 0 10-4.306-.024 2.151 2.151 0 001.45 2.038 3.18 3.18 0 012.833-1.787z"/><path fill="#2E008B" d="M-145.878 219.455a3.18 3.18 0 00-2.833 1.787c.217.076.448.127.691.128a2.148 2.148 0 002.142-1.915z"/><path fill="#C8C9C7" d="M-145.878 219.455a3.18 3.18 0 00-2.833 1.787c.217.076.448.127.691.128a2.148 2.148 0 002.142-1.915z"/><path fill="#2E008B" d="M-161.315 218.452a2.965 2.965 0 002.951 2.983 2.961 2.961 0 002.982-2.953 2.958 2.958 0 00-2.949-2.979 2.963 2.963 0 00-2.984 2.949z"/><path fill="#C8C9C7" d="M-153.563 242.236a3.55 3.55 0 012.633-1.595c-.001-.008-.004-.013-.005-.019a2.055 2.055 0 01-.599-.901 1.648 1.648 0 00-.994-.348c-.76 0-1.395.506-1.596 1.203a2.193 2.193 0 01-.067.502c.013.459.209.868.521 1.161.026-.001.05-.008.077-.008.01.001.02.005.03.005z"/><path fill="#EC008C" d="M-153.563 242.236c-.01 0-.02-.004-.03-.004-.027 0-.051.007-.077.008l.072.062c.013-.022.022-.044.035-.066z"/><path fill="#C8C9C7" d="M-153.563 242.236c-.01 0-.02-.004-.03-.004-.027 0-.051.007-.077.008l.072.062c.013-.022.022-.044.035-.066z"/><path fill="#2E008B" d="M-153.563 242.236c.533.01 1.026.156 1.465.393a1.657 1.657 0 001.221-1.586c0-.139-.021-.271-.053-.401a3.55 3.55 0 00-2.633 1.594z"/><path fill="#C8C9C7" d="M-153.563 242.236c.533.01 1.026.156 1.465.393a1.657 1.657 0 001.221-1.586c0-.139-.021-.271-.053-.401a3.55 3.55 0 00-2.633 1.594z"/><path fill="#2E008B" d="M-153.598 242.302c.287.241.651.391 1.055.393.154 0 .302-.025.444-.065a3.205 3.205 0 00-1.465-.393c-.012.021-.021.043-.034.065z"/><path fill="#C8C9C7" d="M-153.598 242.302c.287.241.651.391 1.055.393.154 0 .302-.025.444-.065a3.205 3.205 0 00-1.465-.393c-.012.021-.021.043-.034.065z"/><path fill="#2E008B" d="M-154.197 241.023c0 .017.004.035.005.056.039-.163.066-.328.067-.502-.041.142-.07.29-.072.446z"/><path fill="#C8C9C7" d="M-154.197 241.023c0 .017.004.035.005.056.039-.163.066-.328.067-.502-.041.142-.07.29-.072.446zM-150.936 240.623a1.66 1.66 0 00-.599-.901c.118.352.325.663.599.901z"/><path fill="#C8C9C7" d="M-150.936 240.623a1.66 1.66 0 00-.599-.901c.118.352.325.663.599.901zM-149.59 237.046c.475.003.904.17 1.249.439a2.689 2.689 0 00-2.237-4.175 2.683 2.683 0 00-2.487 1.615c.002.057.016.11.015.167a3.182 3.182 0 01-.217 1.118 2.68 2.68 0 001.711 2.307 2.035 2.035 0 011.966-1.471z"/><path fill="#C8C9C7" d="M-148.342 237.485a2.03 2.03 0 00-3.214 1.032c.295.113.611.184.947.185a2.697 2.697 0 002.267-1.217z"/><path fill="#C8C9C7" d="M-148.342 237.485a2.03 2.03 0 00-3.214 1.032c.295.113.611.184.947.185a2.697 2.697 0 002.267-1.217z"/><path fill="#2E008B" d="M-153.064 234.926a3.188 3.188 0 00-6.374.13 3.196 3.196 0 003.18 3.216 3.185 3.185 0 002.993-2.061c-.007-.073-.022-.148-.021-.226a2.595 2.595 0 01.222-1.059z"/><path fill="#C8C9C7" d="M-153.064 234.926a2.661 2.661 0 00-.223 1.06c0 .077.015.15.021.226a3.19 3.19 0 00.217-1.118c0-.058-.013-.112-.015-.168z"/><path fill="#2E008B" d="M-153.064 234.926a2.661 2.661 0 00-.223 1.06c0 .077.015.15.021.226a3.19 3.19 0 00.217-1.118c0-.058-.013-.112-.015-.168z"/><path fill="#C8C9C7" d="M-148.343 250.249a2.253 2.253 0 002.275-2.249 2.262 2.262 0 00-1.431-2.106 3.551 3.551 0 01-3.065 1.82c-.011.088-.028.174-.029.265a2.257 2.257 0 002.25 2.27z"/><path fill="#2E008B" d="M-147.499 245.895a2.221 2.221 0 00-.817-.164 2.259 2.259 0 00-2.249 1.983 3.544 3.544 0 003.066-1.819z"/><path fill="#C8C9C7" d="M-147.499 245.895a2.221 2.221 0 00-.817-.164 2.259 2.259 0 00-2.249 1.983 3.544 3.544 0 003.066-1.819z"/><path fill="#2E008B" d="M-122.062 201.745a3.825 3.825 0 013.207-1.739c.188 0 .371.017.552.044.023-.088.041-.179.055-.271a1.495 1.495 0 01-.25-.829c0-.187.039-.363.102-.529a2.65 2.65 0 00-2.471-1.692 2.656 2.656 0 00-2.657 2.657 2.649 2.649 0 001.462 2.359z"/><path fill="#2E008B" d="M-118.304 200.051a3.854 3.854 0 00-.552-.044 3.829 3.829 0 00-3.207 1.739c.36.184.763.297 1.195.297a2.654 2.654 0 002.564-1.992zM-118.25 199.78c.02-.128.04-.258.04-.393 0-.343-.07-.666-.187-.966a1.483 1.483 0 00.147 1.359zM-107.906 212.883c.032 0 .062-.01.094-.01.229-.083.473-.137.731-.137.021 0 .04.005.06.005a3.168 3.168 0 001.382-.807 3.162 3.162 0 01-.132-.863c0-.623.186-1.2.494-1.69a2.64 2.64 0 01-.869-1.955c0-.076.016-.149.022-.224a2.132 2.132 0 01-1.45-.682c-.111-.013-.219-.034-.332-.034-.48 0-.932.113-1.34.304a1.793 1.793 0 01-1.386 1.251 3.17 3.17 0 00-.468 1.643 3.193 3.193 0 003.194 3.199z"/><path fill="#2E008B" d="M-106.124 207.202c-.007.074-.022.147-.022.224 0 .778.339 1.469.869 1.955.126-.201.268-.39.434-.558a3.19 3.19 0 00-1.072-1.618c-.03.001-.059.009-.089.009-.041 0-.08-.009-.12-.012zM-103.49 210.083c-.446 0-.86-.12-1.229-.314a3.195 3.195 0 01-.918 2.166 3.182 3.182 0 001.991 2.137 2.658 2.658 0 011.127-1.122c-.007-.091-.027-.176-.027-.268a3.435 3.435 0 012.652-3.341 3.187 3.187 0 00-1.102-1.029 2.65 2.65 0 01-2.494 1.771z"/><path fill="#2E008B" d="M-102.167 214.228a3.443 3.443 0 01-.353-1.277 2.643 2.643 0 00-1.127 1.12c.337.119.695.198 1.074.198.138-.002.271-.025.406-.041zM-102.547 212.681c0 .091.02.177.027.268a2.623 2.623 0 011.208-.306c.467 0 .901.13 1.283.342a3.17 3.17 0 00.65-1.915 3.16 3.16 0 00-.516-1.73 3.433 3.433 0 00-2.652 3.341z"/><path fill="#2E008B" d="M-100.029 212.986a2.62 2.62 0 00-1.283-.343c-.437 0-.845.117-1.208.306.036.458.156.889.353 1.277a3.159 3.159 0 002.138-1.24zM-104.843 208.824c.077.275.132.56.132.86 0 .028-.007.057-.009.084.37.194.783.314 1.229.314a2.65 2.65 0 002.494-1.771c-.467-.267-1-.432-1.578-.432a3.192 3.192 0 00-2.268.945zM-105.771 211.072c0 .302.055.587.133.863.553-.56.896-1.322.918-2.165a2.651 2.651 0 01-.558-.388 3.18 3.18 0 00-.493 1.69z"/><path fill="#2E008B" d="M-104.719 209.768c0-.027.008-.056.008-.084 0-.301-.055-.585-.132-.86a3.205 3.205 0 00-.434.557c.167.153.355.281.558.387z"/><path fill="#BCBEC0" d="M-108.151 205.067c0 .562.222 1.07.577 1.453.537.056 1.04.232 1.465.524a2.641 2.641 0 012.227-2.235 2.136 2.136 0 00-2.122-1.886c-.86 0-1.599.508-1.941 1.238a2.132 2.132 0 00-.206.906z"/><path fill="#EC008C" d="M-107.945 204.162c-.023.05-.043.101-.063.152.023-.05.043-.099.063-.152z"/><path fill="#BCBEC0" d="M-107.945 204.162c-.023.05-.043.101-.063.152.023-.05.043-.099.063-.152z"/><path fill="#EC008C" d="M-106.109 207.045c.07.048.129.107.194.16a2.142 2.142 0 002.058-2.138c0-.088-.015-.171-.026-.256a2.64 2.64 0 00-2.226 2.234z"/><path fill="#BCBEC0" d="M-106.109 207.045c.07.048.129.107.194.16a2.142 2.142 0 002.058-2.138c0-.088-.015-.171-.026-.256a2.64 2.64 0 00-2.226 2.234z"/><path fill="#2E008B" d="M-106.124 207.202c.004-.052.008-.105.015-.157a3.175 3.175 0 00-1.465-.524c.366.395.877.648 1.45.681z"/><path fill="#BCBEC0" d="M-106.124 207.202c.004-.052.008-.105.015-.157a3.175 3.175 0 00-1.465-.524c.366.395.877.648 1.45.681z"/><path fill="#2E008B" d="M-106.004 207.214c.03 0 .059-.007.089-.009-.065-.053-.124-.112-.194-.16-.007.052-.011.105-.015.157.04.003.079.012.12.012z"/><path fill="#BCBEC0" d="M-106.004 207.214c.03 0 .059-.007.089-.009-.065-.053-.124-.112-.194-.16-.007.052-.011.105-.015.157.04.003.079.012.12.012z"/><path fill="#2E008B" d="M-112.288 207.469c.328.367.8.604 1.332.604.11 0 .218-.013.324-.033.327-.543.806-.98 1.386-1.249.049-.164.084-.335.084-.513 0-.24-.049-.468-.133-.676a2.602 2.602 0 01-2.964-.554 1.601 1.601 0 00-.147.18 1.84 1.84 0 01.118 2.241z"/><path fill="#2E008B" d="M-110.385 205.847c.39 0 .756-.091 1.089-.242a1.788 1.788 0 00-2.965-.555c.475.49 1.139.797 1.876.797zM-112.288 207.469a1.841 1.841 0 00-.121-2.241 1.788 1.788 0 00-.343 1.051c.001.458.179.873.464 1.19zM-109.247 206.792a3.181 3.181 0 00-1.386 1.249 1.792 1.792 0 001.386-1.249z"/><path fill="#C8C9C7" d="M-124.423 204.482a2.335 2.335 0 10.008 4.67 2.335 2.335 0 00-.008-4.67z"/><path fill="#00B6ED" d="M-144.163 202.295c1.288 0 2.33-1.05 2.33-2.332a2.327 2.327 0 00-2.33-2.332 2.329 2.329 0 00-2.332 2.332 2.335 2.335 0 002.332 2.332z"/><path fill="#2E008B" d="M-152.412 205.121a1.751 1.751 0 10-1.749-1.747c0 .554.264 1.042.668 1.364.091.055.18.11.265.173.244.128.52.21.816.21z"/><path fill="#C8C9C7" d="M-153.493 204.736c.083.066.171.124.265.174a3.265 3.265 0 00-.265-.174z"/><path fill="#2E008B" d="M-153.493 204.736c.083.066.171.124.265.174a3.265 3.265 0 00-.265-.174z"/><path fill="#C8C9C7" d="M-97.203 265.008a2.156 2.156 0 010-4.311c.121 0 .239.016.355.035a3.978 3.978 0 00-2.586-.952c-.167 0-.331.015-.493.033a2.162 2.162 0 01-2.094 1.621c-.201 0-.393-.036-.577-.088a3.955 3.955 0 00-.585 3.759c.042-.003.083-.013.125-.013a3.628 3.628 0 013.486 2.648c.046.002.091.007.138.007a3.983 3.983 0 003.968-3.631 2.156 2.156 0 01-1.737.892z"/><path fill="#2E008B" d="M-128.249 262.797c0 .972-.526 1.813-1.303 2.277a4.087 4.087 0 003.548 2.411 4.525 4.525 0 014.139-3.043c.087-.333.138-.679.138-1.04 0-.208-.02-.409-.049-.608a2.176 2.176 0 01-1.358-2.477 4.079 4.079 0 00-5.917.579c.493.482.802 1.153.802 1.901z"/><path fill="#2E008B" d="M-121.776 262.794a4.089 4.089 0 00-1.358-2.478 2.176 2.176 0 001.358 2.478z"/><path fill="#EC008C" d="M-167.083 234.004a2.876 2.876 0 002.867-2.871 2.868 2.868 0 10-5.736 0 2.876 2.876 0 002.869 2.871zM-136.27 273.148a3.446 3.446 0 00-2.678 3.354 3.439 3.439 0 003.446 3.442 3.44 3.44 0 003.448-3.442c0-.773-.265-1.48-.697-2.058a2.249 2.249 0 01-1.325.438 2.257 2.257 0 01-2.194-1.734z"/><path fill="#C8C9C7" d="M-111.373 257.157a2.451 2.451 0 01-.346.714 3.875 3.875 0 013.13 3.804l-.001.022c.279.058.568.087.863.087.039 0 .075-.004.113-.005a2.144 2.144 0 012.039-1.502c.332 0 .641.082.922.215.204-.208.385-.438.543-.682a2.18 2.18 0 01-.078-.545c0-.658.298-1.239.76-1.637.002-.05.008-.099.008-.149a4.31 4.31 0 00-5.103-4.234 2.145 2.145 0 01-2.079 1.605c-.169 0-.332-.024-.489-.062a4.268 4.268 0 00-.428.642c.244.525.317 1.127.146 1.727z"/><path fill="#EC008C" d="M-112.019 257.825c.101.011.201.025.3.046.146-.215.271-.449.346-.714.171-.6.098-1.204-.146-1.724a4.283 4.283 0 00-.517 2.047c.001.116.009.231.017.345z"/><path fill="#C8C9C7" d="M-112.019 257.825c.101.011.201.025.3.046.146-.215.271-.449.346-.714.171-.6.098-1.204-.146-1.724a4.283 4.283 0 00-.517 2.047c.001.116.009.231.017.345z"/><path fill="#EC008C" d="M-108.59 261.697l.001-.022a3.875 3.875 0 00-3.13-3.804c-.077.11-.162.214-.255.312a4.307 4.307 0 003.384 3.514z"/><path fill="#C8C9C7" d="M-108.59 261.697l.001-.022a3.875 3.875 0 00-3.13-3.804c-.077.11-.162.214-.255.312a4.307 4.307 0 003.384 3.514z"/><path fill="#EC008C" d="M-111.718 257.871a2.713 2.713 0 00-.3-.046c.01.122.026.241.045.358.093-.096.178-.202.255-.312z"/><path fill="#C8C9C7" d="M-111.718 257.871a2.713 2.713 0 00-.3-.046c.01.122.026.241.045.358.093-.096.178-.202.255-.312z"/><path fill="#EC008C" d="M-105.575 264.592a2.16 2.16 0 002.157-2.153c0-.862-.507-1.599-1.235-1.945a4.296 4.296 0 01-2.961 1.287 2.178 2.178 0 00-.112.658c0 1.183.962 2.153 2.151 2.153z"/><path fill="#C8C9C7" d="M-104.653 260.493a2.146 2.146 0 00-.922-.214c-.958 0-1.761.633-2.039 1.501a4.296 4.296 0 002.961-1.287z"/><path fill="#EC008C" d="M-104.653 260.493a2.146 2.146 0 00-.922-.214c-.958 0-1.761.633-2.039 1.501a4.296 4.296 0 002.961-1.287zM-96.848 260.73a3.97 3.97 0 011.381 3.383c.259-.355.417-.789.417-1.264a2.156 2.156 0 00-1.798-2.119z"/><path fill="#C8C9C7" d="M-96.848 260.73a2.308 2.308 0 00-.355-.036 2.157 2.157 0 000 4.311c.714 0 1.345-.355 1.736-.895a3.963 3.963 0 00-1.381-3.38z"/><path fill="#EC008C" d="M-96.848 260.73a2.308 2.308 0 00-.355-.036 2.157 2.157 0 000 4.311c.714 0 1.345-.355 1.736-.895a3.963 3.963 0 00-1.381-3.38zM-165.496 259.314c-.085-.009-.168-.026-.256-.026a2.692 2.692 0 102.692 2.693c0-.124-.021-.241-.036-.357a3.005 3.005 0 01-2.4-2.31z"/><path fill="#00B6ED" d="M-159.535 264.99a2.142 2.142 0 00-.261 1.013c0 1.183.963 2.149 2.151 2.149.759 0 1.424-.396 1.807-.987a4.235 4.235 0 01-3.697-2.175z"/><path fill="#2E008B" d="M-157.645 263.841c-.821 0-1.527.469-1.89 1.149a4.232 4.232 0 003.696 2.175c.218-.335.347-.733.347-1.162a2.158 2.158 0 00-2.153-2.162z"/><path fill="#00B6ED" d="M-157.645 263.841c-.821 0-1.527.469-1.89 1.149a4.232 4.232 0 003.696 2.175c.218-.335.347-.733.347-1.162a2.158 2.158 0 00-2.153-2.162z"/><path fill="#2E008B" d="M-139.762 257.898a2.395 2.395 0 00-2.389-2.315c-.36 0-.698.082-1.004.225a3.784 3.784 0 01-1.301 1.549c-.013.047-.034.091-.043.139.384.406.624.951.624 1.555 0 .177-.025.348-.064.513a2.38 2.38 0 001.789.816c.426 0 .822-.121 1.168-.317-.007-.074-.022-.146-.022-.222 0-.861.51-1.597 1.242-1.943z"/><path fill="#2E008B" d="M-139.753 257.981c0-.029-.007-.055-.009-.083a2.15 2.15 0 00-1.243 1.943c0 .076.015.149.022.223a2.392 2.392 0 001.23-2.083z"/><path fill="#EC008C" d="M-150.335 253.934a2.15 2.15 0 00-3.416 1.738 2.152 2.152 0 004.146.816 3.735 3.735 0 01-.746-2.24 2.974 2.974 0 01.016-.314z"/><path fill="#2E008B" d="M-174.709 265.879a2.153 2.153 0 00-2.153 2.157 2.15 2.15 0 002.153 2.147 2.151 2.151 0 100-4.304z"/><path fill="#EC008C" d="M-171.321 254.747a2.154 2.154 0 10.005 4.307 2.154 2.154 0 00-.005-4.307zM-108.521 253.249c.046-.176.079-.355.079-.546a2.154 2.154 0 10-4.308 0c0 1.021.71 1.866 1.66 2.087a4.306 4.306 0 012.569-1.541z"/><path fill="#C8C9C7" d="M-108.521 253.249a4.303 4.303 0 00-2.569 1.542c.157.039.32.062.49.062a2.149 2.149 0 002.079-1.604z"/><path fill="#EC008C" d="M-108.521 253.249a4.303 4.303 0 00-2.569 1.542c.157.039.32.062.49.062a2.149 2.149 0 002.079-1.604z"/><path fill="#2E008B" d="M-116.197 263.472a2.156 2.156 0 00-2.154-2.156 2.16 2.16 0 00-.578.088 2.171 2.171 0 01-1.475 1.445 2.14 2.14 0 00-.103.623c0 .479.162.918.427 1.276.508.2.97.487 1.369.845.118.02.236.037.359.037a2.16 2.16 0 002.155-2.158z"/><path fill="#2E008B" d="M-118.929 261.404a2.139 2.139 0 00-1.475 1.445 2.171 2.171 0 001.475-1.445z"/><path fill="#EC008C" d="M-151.356 273.96a2.156 2.156 0 10.005 4.311 2.156 2.156 0 00-.005-4.311z"/><path fill="#2E008B" d="M-116.335 273.371c-.315.345-.513.8-.513 1.303a1.941 1.941 0 003.883 0 1.91 1.91 0 00-.253-.937 3.108 3.108 0 01-1.251.264 3.12 3.12 0 01-1.866-.63z"/><path fill="#EC008C" d="M-121.234 273.456a1.93 1.93 0 001.875 1.472 1.936 1.936 0 001.937-1.936c0-.562-.242-1.065-.622-1.417a4.514 4.514 0 01-3.19 1.881zM-102.597 261.344a3.98 3.98 0 012.671-1.532 2.17 2.17 0 00.077-.543c0-1.203-.97-2.172-2.171-2.172-.539 0-1.026.207-1.406.532a4.26 4.26 0 01-.683 2.18 2.16 2.16 0 001.512 1.535z"/><path fill="#C8C9C7" d="M-102.597 261.344c.185.052.376.088.577.088a2.163 2.163 0 002.094-1.62 3.97 3.97 0 00-2.671 1.532z"/><path fill="#EC008C" d="M-102.597 261.344c.185.052.376.088.577.088a2.163 2.163 0 002.094-1.62 3.97 3.97 0 00-2.671 1.532z"/><path fill="#C8C9C7" d="M-104.187 259.268c0 .188.032.368.078.544.41-.634.655-1.378.683-2.182a2.153 2.153 0 00-.761 1.638z"/><path fill="#EC008C" d="M-104.187 259.268c0 .188.032.368.078.544.41-.634.655-1.378.683-2.182a2.153 2.153 0 00-.761 1.638zM-153.104 251.085a1.508 1.508 0 003.015 0 1.508 1.508 0 10-3.015 0z"/><path fill="#C8C9C7" d="M-111.873 275.691a1.213 1.213 0 00-1.166 1.209c0 .672.545 1.211 1.217 1.211a1.211 1.211 0 001.114-1.694 2.615 2.615 0 01-1.165-.726z"/><path fill="#EC008C" d="M-111.821 275.684c-.018 0-.034.007-.052.007.313.339.712.589 1.166.726a1.216 1.216 0 00-1.114-.733z"/><path fill="#C8C9C7" d="M-111.821 275.684c-.018 0-.034.007-.052.007.313.339.712.589 1.166.726a1.216 1.216 0 00-1.114-.733z"/><path fill="#2E008B" d="M-118.004 259.035c0 .095-.014.184-.034.272.183.171.401.307.658.383a1.636 1.636 0 002.011-1.119c.018-.062.023-.124.033-.184a2.481 2.481 0 01-.888-1.721 1.45 1.45 0 00-.264-.104 1.63 1.63 0 00-2.012 1.115c-.033.116-.051.23-.058.347.334.211.554.586.554 1.011z"/><path fill="#2E008B" d="M-115.335 258.387a1.618 1.618 0 00-.888-1.721c.052.672.371 1.296.888 1.721zM-118.038 259.309a1.204 1.204 0 00-.519-1.287c-.03.49.168.959.519 1.287zM-147.691 260.687a2.564 2.564 0 00.937 4.953 2.57 2.57 0 002.57-2.569c0-.809-.383-1.521-.971-1.994a2.228 2.228 0 01-.983.235 2.246 2.246 0 01-1.553-.625z"/><path fill="#EC008C" d="M-165.867 268.386c-.875 0-1.576.707-1.576 1.578 0 .874.702 1.577 1.576 1.577.87 0 1.577-.703 1.577-1.577a1.58 1.58 0 00-1.577-1.578zM-151.243 219.778c0-.677-.542-1.219-1.214-1.219-.676 0-1.219.542-1.219 1.219a1.217 1.217 0 002.433 0z"/><circle fill="#EC008C" cx="-127.958" cy="280.287" r="1.557"/><path fill="#EC008C" d="M-103.182 265.101a3.621 3.621 0 00-2.06.73c.172.358.276.758.276 1.188a2.756 2.756 0 01-1.639 2.517 3.64 3.64 0 007.189-.807 3.63 3.63 0 00-.155-.995 3.97 3.97 0 01-3.611-2.633z"/><path fill="#C8C9C7" d="M-103.057 265.089c-.042 0-.083.012-.125.013a3.982 3.982 0 003.611 2.637c-.435-1.526-1.823-2.65-3.486-2.65z"/><path fill="#EC008C" d="M-103.057 265.089c-.042 0-.083.012-.125.013a3.982 3.982 0 003.611 2.637c-.435-1.526-1.823-2.65-3.486-2.65z"/><path fill="#2E008B" d="M-111.87 265.503c-.194.03-.393.051-.597.051a3.861 3.861 0 01-2.802-1.204 2.655 2.655 0 00-1.578 2.428c0 .592.2 1.131.529 1.572a3.104 3.104 0 014.03.277 2.631 2.631 0 00.755-1.846c0-.469-.128-.9-.337-1.278z"/><path fill="#2E008B" d="M-114.19 264.115c-.385 0-.749.086-1.08.234a3.867 3.867 0 002.803 1.204c.204 0 .401-.019.597-.05a2.644 2.644 0 00-2.32-1.388zM-131.949 264.386c.445.234.804.606 1.01 1.064.013 0 .023.004.036.004.495 0 .953-.146 1.35-.383a4.076 4.076 0 01.5-4.179 2.635 2.635 0 00-2.884-.545c.45.55.73 1.241.73 2.006a3.165 3.165 0 01-.742 2.033z"/><path fill="#2E008B" d="M-131.949 264.386a3.055 3.055 0 01-.548.524c.437.329.972.533 1.559.541a2.27 2.27 0 00-1.011-1.065zM-129.552 265.074a2.645 2.645 0 00.5-4.178 4.078 4.078 0 00-.5 4.178zM-133.188 264.135a2.63 2.63 0 01-.374-1.338 2.65 2.65 0 011.626-2.448 3.159 3.159 0 00-2.46-1.186c-.768 0-1.462.279-2.012.727a2.65 2.65 0 01.639 1.716 2.683 2.683 0 01-1.388 2.346 3.17 3.17 0 002.083 1.526 2.258 2.258 0 011.886-1.343z"/><path fill="#2E008B" d="M-132.497 264.911a2.639 2.639 0 01-.691-.777c-.847.07-1.562.6-1.886 1.344.219.047.444.075.678.075.714 0 1.367-.244 1.899-.642zM-135.769 261.605a2.65 2.65 0 00-.64-1.716 3.522 3.522 0 00-.319.289 2.145 2.145 0 01-.732 1.302 3.12 3.12 0 00-.137.874c0 .583.167 1.123.439 1.597a2.684 2.684 0 001.389-2.346z"/><path fill="#2E008B" d="M-136.727 260.178a3.194 3.194 0 00-.732 1.302c.382-.326.65-.78.732-1.302zM-133.562 262.797c0 .489.142.944.374 1.338.063-.005.123-.019.188-.019.381 0 .736.104 1.051.271a3.173 3.173 0 00.744-2.031c0-.763-.281-1.457-.73-2.007a2.648 2.648 0 00-1.627 2.448z"/><path fill="#2E008B" d="M-131.949 264.386a2.245 2.245 0 00-1.051-.271c-.065 0-.125.014-.188.019.178.304.412.567.691.778.204-.152.385-.329.548-.526zM-159.458 256.072a3.771 3.771 0 003.768-3.775 3.766 3.766 0 00-3.768-3.762 3.768 3.768 0 100 7.537z"/><circle fill="#2E008B" cx="-172.039" cy="247.944" r="2.62"/><path fill="#2E008B" d="M-146.139 256.787c.612 0 1.166.243 1.573.639.037-.022.073-.044.11-.069a2.384 2.384 0 011.301-1.549 3.766 3.766 0 00-3.426-5.331 3.767 3.767 0 00-3.755 3.456 2.135 2.135 0 01.73 2.553c.413.554.973.993 1.625 1.256a2.254 2.254 0 011.842-.955z"/><path fill="#2E008B" d="M-144.456 257.356a3.79 3.79 0 001.301-1.548 2.394 2.394 0 00-1.301 1.548zM-150.335 253.934a3.627 3.627 0 00-.016.314c0 .84.28 1.613.746 2.24a2.14 2.14 0 00-.73-2.554z"/><path fill="#C8C9C7" d="M-164.543 237.898a2.975 2.975 0 00-3.033-2.909 2.979 2.979 0 00-2.904 3.037 2.972 2.972 0 003.038 2.903 2.972 2.972 0 002.899-3.031z"/><path fill="#00B6ED" d="M-133.578 270.418a2.262 2.262 0 00-.498-.059 2.26 2.26 0 00-2.263 2.26c0 .183.028.357.069.528a3.4 3.4 0 01.768-.094c1.128 0 2.122.552 2.751 1.39a2.259 2.259 0 00.925-1.736 2.639 2.639 0 01-1.752-2.289z"/><path fill="#EC008C" d="M-133.578 270.418a2.649 2.649 0 001.752 2.294c.001-.032.009-.062.009-.093a2.257 2.257 0 00-1.761-2.201z"/><path fill="#00B6ED" d="M-133.578 270.418a2.649 2.649 0 001.752 2.294c.001-.032.009-.062.009-.093a2.257 2.257 0 00-1.761-2.201z"/><path fill="#EC008C" d="M-135.502 273.056c-.265 0-.521.036-.768.093a2.258 2.258 0 002.194 1.734 2.24 2.24 0 001.325-.438 3.43 3.43 0 00-2.751-1.389z"/><path fill="#00B6ED" d="M-135.502 273.056c-.265 0-.521.036-.768.093a2.258 2.258 0 002.194 1.734 2.24 2.24 0 001.325-.438 3.43 3.43 0 00-2.751-1.389z"/><path fill="#2E008B" d="M-144.499 257.497c-.022-.023-.042-.047-.066-.071a3.749 3.749 0 01-3.415.318 2.244 2.244 0 00.289 2.944 2.56 2.56 0 01.937-.184c.608 0 1.16.22 1.6.572a2.256 2.256 0 001.215-1.514 2.379 2.379 0 01-.56-2.065z"/><path fill="#2E008B" d="M-144.499 257.497a2.374 2.374 0 00.56 2.066c.039-.165.064-.335.064-.513a2.257 2.257 0 00-.624-1.553zM-147.691 260.687c.405.384.95.625 1.553.625.354 0 .685-.089.983-.235a2.551 2.551 0 00-1.6-.573 2.55 2.55 0 00-.936.183zM-144.565 257.427a2.25 2.25 0 00-3.415.316c.433.174.904.271 1.4.271a3.727 3.727 0 002.015-.587zM-144.215 274.883a2.261 2.261 0 00-2.258 2.262 2.26 2.26 0 104.52 0 2.265 2.265 0 00-2.262-2.262z"/><path fill="#EC008C" d="M-120.437 275.102a2.66 2.66 0 00-2.659 2.664 2.657 2.657 0 002.659 2.647 2.655 2.655 0 100-5.311z"/><path fill="#2E008B" d="M-117.205 268.958a4.509 4.509 0 00-1.506-3.364 2.15 2.15 0 01-1.369-.845 4.503 4.503 0 00-1.646-.312c-.047 0-.093.005-.139.006a4.093 4.093 0 01-3.957 3.052c-.062 0-.122-.007-.183-.009a4.488 4.488 0 00-.161 2.373 2.332 2.332 0 011.877 2.286c0 .088-.016.171-.025.257.273.185.507.419.716.675a4.507 4.507 0 002.362.38 1.916 1.916 0 01-.062-.464c0-1.072.865-1.94 1.937-1.94.51 0 .97.202 1.316.523a4.43 4.43 0 00.448-.784c.012-.498.147-.963.367-1.377.016-.155.025-.304.025-.457z"/><path fill="#2E008B" d="M-124.312 272.401c-.01.082-.014.165-.032.245.234.164.483.308.748.43a3.42 3.42 0 00-.716-.675zM-124.312 272.401c.01-.086.025-.169.025-.257a2.336 2.336 0 00-1.877-2.286 4.485 4.485 0 001.125 2.174c.257.098.503.217.727.369z"/><path fill="#2E008B" d="M-124.344 272.646c.018-.08.022-.163.031-.245a3.326 3.326 0 00-.727-.366c.211.226.443.432.696.611zM-126.004 267.485c.061.002.121.009.182.009a4.093 4.093 0 003.957-3.052 4.525 4.525 0 00-4.139 3.043zM-118.711 265.594a4.556 4.556 0 00-1.369-.845c.324.439.808.75 1.369.845zM-121.295 272.992c0 .16.025.314.062.464a4.518 4.518 0 003.19-1.881 1.93 1.93 0 00-3.252 1.417z"/><path fill="#EC008C" d="M-162.456 255.657a3.016 3.016 0 00-3.12 2.907c-.008.26.027.509.08.752a2.672 2.672 0 012.401 2.31c.142.025.284.053.432.057a3.008 3.008 0 003.119-2.911 3.011 3.011 0 00-2.912-3.115z"/><path fill="#EC008C" d="M-165.496 259.314a3.005 3.005 0 002.401 2.31 2.674 2.674 0 00-2.401-2.31z"/><path fill="#00B6ED" d="M-105.242 265.832a2.758 2.758 0 00-5.247 1.189c0 .813.362 1.542.926 2.047.441.062.828.279 1.106.604a2.7 2.7 0 00.729.11c.4 0 .779-.089 1.122-.242a3.618 3.618 0 01-.097-.808 3.63 3.63 0 011.461-2.9z"/><path fill="#EC008C" d="M-104.966 267.02c0-.43-.104-.829-.276-1.188a3.63 3.63 0 00-1.46 2.901c0 .278.038.547.097.807a2.76 2.76 0 001.639-2.52z"/><path fill="#00B6ED" d="M-104.966 267.02c0-.43-.104-.829-.276-1.188a3.63 3.63 0 00-1.46 2.901c0 .278.038.547.097.807a2.76 2.76 0 001.639-2.52z"/><path fill="#2E008B" d="M-107.33 273.916c0 .217-.034.425-.084.626.154.041.311.07.477.07a1.876 1.876 0 100-3.752c-.426 0-.813.146-1.128.385a1.767 1.767 0 01-.273.618 2.611 2.611 0 011.008 2.053z"/><path fill="#2E008B" d="M-108.338 271.863a1.773 1.773 0 01-.412.417 1.842 1.842 0 00-.062.454 1.87 1.87 0 001.399 1.806c.05-.201.083-.41.083-.626a2.61 2.61 0 00-1.008-2.051zM-109.809 269.043c-.728 0-1.354.436-1.636 1.061.062.245.105.498.105.764 0 .251-.037.494-.093.727.019.042.042.079.065.12.407-.265.89-.421 1.412-.421.534 0 1.028.161 1.443.435.119-.186.272-.35.448-.481.03-.13.05-.268.05-.408 0-.448-.17-.853-.441-1.167a2.756 2.756 0 01-1.106-.604c-.082-.013-.162-.026-.247-.026z"/><path fill="#2E008B" d="M-109.809 272.632c.397 0 .761-.134 1.059-.352.05-.199.129-.386.237-.555a2.632 2.632 0 00-1.443-.436c-.521 0-1.004.156-1.412.421.308.55.888.922 1.559.922zM-109.562 269.067c.313.279.688.488 1.106.604a1.771 1.771 0 00-1.106-.604z"/><path fill="#2E008B" d="M-108.514 271.727c.062.041.117.09.175.136.128-.186.221-.394.273-.618a1.872 1.872 0 00-.448.482z"/><path fill="#2E008B" d="M-108.338 271.863c-.058-.046-.113-.096-.174-.136a1.813 1.813 0 00-.237.554c.158-.117.298-.257.411-.418z"/><path fill="#EC008C" d="M-178.946 241.754a1.468 1.468 0 00-1.181 1.707 1.465 1.465 0 001.708 1.172 1.455 1.455 0 001.176-1.704 1.46 1.46 0 00-1.703-1.175z"/><path fill="#00B6ED" d="M-172.004 233.46a1.185 1.185 0 00.959-1.392 1.2 1.2 0 00-1.389-.963 1.207 1.207 0 00-.961 1.396c.122.65.745 1.08 1.391.959z"/><path fill="#EC008C" d="M-109.515 218.779c0-.128.025-.248.038-.371a2.142 2.142 0 00-.607-.098c-.068 0-.134.015-.202.021-.37.337-.805.602-1.286.777.434.394.711.955.711 1.585 0 .107-.017.21-.031.311.264-.117.555-.184.862-.184.701 0 1.319.343 1.709.863.04-.058.071-.12.104-.18a3.518 3.518 0 01-1.298-2.724z"/><path fill="#EC008C" d="M-111.676 219.023c.035.027.071.056.104.085a3.844 3.844 0 001.286-.778 2.153 2.153 0 00-1.39.693zM-110.084 222.612c-.509 0-.97-.185-1.338-.48a2.125 2.125 0 01-.723.527c-.015.102-.031.201-.031.307a2.146 2.146 0 104.291 0c0-.483-.166-.923-.436-1.283a2.137 2.137 0 01-1.763.929z"/><path fill="#EC008C" d="M-110.029 220.822c-.308 0-.598.067-.862.183a2.122 2.122 0 01-.531 1.128c.368.296.829.481 1.338.481.732 0 1.377-.37 1.765-.93a2.137 2.137 0 00-1.71-.862z"/><path fill="#2E008B" d="M-103.883 215.921a3.516 3.516 0 00-1.107-.534 2.148 2.148 0 01-3.611 1.034 3.513 3.513 0 00-.877 1.988 2.14 2.14 0 011.544 2.05c0 .381-.108.735-.282 1.046a3.513 3.513 0 002.245.821 3.542 3.542 0 003.55-3.546c0-.421-.085-.818-.22-1.193a2.659 2.659 0 01-1.242-1.666z"/><path fill="#2E008B" d="M-103.883 215.921c.171.71.628 1.306 1.242 1.665a3.523 3.523 0 00-1.242-1.665zM-109.478 218.408c-.013.123-.038.243-.038.371 0 1.104.512 2.075 1.3 2.726.174-.312.282-.665.282-1.046a2.14 2.14 0 00-1.544-2.051zM-112.235 220.459c0-.477.16-.914.423-1.27-.345.1-.708.157-1.085.157-.195 0-.385-.02-.573-.048.055.19.092.388.092.594 0 .919-.586 1.7-1.407 2.004.386.571 1.04.946 1.78.946a2.1 2.1 0 00.861-.184c.048-.333.167-.644.35-.908a2.126 2.126 0 01-.441-1.291z"/><path fill="#2E008B" d="M-113.005 218.549c-.261 0-.508.055-.74.14.125.185.212.392.274.61.188.028.378.048.573.048.377 0 .741-.058 1.086-.157.042-.057.089-.113.137-.166a2.122 2.122 0 00-1.33-.475z"/><path fill="#2E008B" d="M-112.235 220.459c0 .486.167.93.44 1.291.225-.325.538-.584.904-.745.015-.101.031-.203.031-.311 0-.63-.277-1.191-.711-1.585-.08.028-.159.057-.241.08a2.129 2.129 0 00-.423 1.27z"/><path fill="#2E008B" d="M-111.812 219.189a3.22 3.22 0 00.24-.081 2.137 2.137 0 00-.104-.085c-.047.053-.094.11-.136.166zM-111.422 222.132a2.108 2.108 0 01-.373-.382 2.135 2.135 0 00-.35.909c.278-.121.521-.304.723-.527z"/><path fill="#2E008B" d="M-111.795 221.75c.108.143.233.271.373.382.28-.308.468-.696.531-1.127a2.15 2.15 0 00-.904.745z"/><path fill="#00B6ED" d="M-114.374 219.053a3.888 3.888 0 01-1.625-1.266 2.151 2.151 0 00.464 4.251c.265 0 .515-.055.749-.142a2.14 2.14 0 01-.368-1.201 2.14 2.14 0 01.78-1.642z"/><path fill="#EC008C" d="M-114.374 219.053c.187-.156.396-.279.627-.365a2.15 2.15 0 00-2.253-.9c.418.556.977.998 1.626 1.265z"/><path fill="#00B6ED" d="M-114.374 219.053c.187-.156.396-.279.627-.365a2.15 2.15 0 00-2.253-.9c.418.556.977.998 1.626 1.265z"/><path fill="#2E008B" d="M-113.378 219.894c0-.208-.038-.405-.093-.595a3.786 3.786 0 01-.901-.246c-.472.395-.78.979-.78 1.643 0 .444.136.857.368 1.201a2.147 2.147 0 001.406-2.003z"/><path fill="#00B6ED" d="M-113.378 219.894c0-.208-.038-.405-.093-.595a3.786 3.786 0 01-.901-.246c-.472.395-.78.979-.78 1.643 0 .444.136.857.368 1.201a2.147 2.147 0 001.406-2.003z"/><path fill="#2E008B" d="M-114.374 219.053c.285.118.588.2.902.246a2.134 2.134 0 00-.274-.611 2.144 2.144 0 00-.628.365z"/><path fill="#00B6ED" d="M-114.374 219.053c.285.118.588.2.902.246a2.134 2.134 0 00-.274-.611 2.144 2.144 0 00-.628.365z"/><path fill="#C8C9C7" d="M-107.021 212.741a3.095 3.095 0 01-.791.132 2.157 2.157 0 00-1.359 1.519c.099.341.155.703.155 1.078 0 .109-.007.217-.017.325.108.232.251.445.432.624a3.524 3.524 0 012.63-1.186c.342 0 .667.062.98.153.038-.158.062-.323.062-.494a2.158 2.158 0 00-2.092-2.151z"/><path fill="#EC008C" d="M-109.171 214.391a2.136 2.136 0 00-.064.501c0 .322.076.626.203.902.009-.108.017-.216.017-.325a3.923 3.923 0 00-.156-1.078z"/><path fill="#C8C9C7" d="M-109.171 214.391a2.136 2.136 0 00-.064.501c0 .322.076.626.203.902.009-.108.017-.216.017-.325a3.923 3.923 0 00-.156-1.078z"/><path fill="#2E008B" d="M-107.081 212.737c-.258 0-.502.054-.731.138.275-.008.538-.058.791-.132-.021-.002-.039-.006-.06-.006z"/><path fill="#C8C9C7" d="M-107.081 212.737c-.258 0-.502.054-.731.138.275-.008.538-.058.791-.132-.021-.002-.039-.006-.06-.006z"/><path fill="#2E008B" d="M-108.601 216.419a2.15 2.15 0 003.611-1.033 3.528 3.528 0 00-.98-.153 3.532 3.532 0 00-2.631 1.186z"/><path fill="#C8C9C7" d="M-108.601 216.419a2.15 2.15 0 003.611-1.033 3.528 3.528 0 00-.98-.153 3.532 3.532 0 00-2.631 1.186zM-111.499 271.808c.022-.07.048-.142.066-.213a1.751 1.751 0 01-.011-1.491 3.125 3.125 0 00-.843-1.479 2.648 2.648 0 01-4.031-.274c-.379.28-.687.642-.91 1.064a4.47 4.47 0 01-.367 1.378c-.001.026-.007.05-.007.077 0 1.026.502 1.931 1.268 2.504a1.933 1.933 0 011.427-.637c.729 0 1.357.407 1.689 1.002.27-.119.512-.281.736-.467a2.613 2.613 0 01.983-1.464z"/><path fill="#EC008C" d="M-111.499 271.808a2.62 2.62 0 00-.983 1.462c.457-.381.8-.884.983-1.462z"/><path fill="#C8C9C7" d="M-111.499 271.808a2.62 2.62 0 00-.983 1.462c.457-.381.8-.884.983-1.462z"/><path fill="#2E008B" d="M-114.908 272.734c-.566 0-1.071.247-1.426.638a3.114 3.114 0 001.865.629c.446 0 .867-.096 1.251-.264a1.934 1.934 0 00-1.69-1.003z"/><path fill="#C8C9C7" d="M-114.908 272.734c-.566 0-1.071.247-1.426.638a3.114 3.114 0 001.865.629c.446 0 .867-.096 1.251-.264a1.934 1.934 0 00-1.69-1.003z"/><path fill="#2E008B" d="M-116.319 268.349a2.65 2.65 0 004.031.272 3.114 3.114 0 00-2.181-.89 3.136 3.136 0 00-1.85.618z"/><path fill="#C8C9C7" d="M-116.319 268.349a2.65 2.65 0 004.031.272 3.114 3.114 0 00-2.181-.89 3.136 3.136 0 00-1.85.618z"/><path fill="#2E008B" d="M-117.595 270.789a4.52 4.52 0 00.367-1.377c-.22.413-.355.879-.367 1.377z"/><path fill="#C8C9C7" d="M-117.595 270.789a4.52 4.52 0 00.367-1.377c-.22.413-.355.879-.367 1.377z"/><path fill="#2E008B" d="M-111.433 271.593c.056-.234.093-.475.093-.726 0-.266-.042-.519-.105-.765a1.774 1.774 0 00-.161.735c.001.27.065.525.173.756z"/><path fill="#C8C9C7" d="M-111.433 271.593c.056-.234.093-.475.093-.726 0-.266-.042-.519-.105-.765a1.774 1.774 0 00-.161.735c.001.27.065.525.173.756z"/></svg>