<svg xmlns="http://www.w3.org/2000/svg" viewBox="0 0 199.39 199.39"><defs><style>.cls-1{fill:#737373;}.cls-2{fill:#1070e2;}</style></defs><g id="Layer_2" data-name="Layer 2"><path class="cls-1" d="M114.69,159.23h-26c5.85,18.52,13.68,35.19,26,39.29Z"/><rect class="cls-1" x="153.98" y="159.23" width="46.79" height="39.96"/><rect class="cls-1" x="117.71" y="159.23" width="33.26" height="39.96"/><path class="cls-2" d="M.32,99.08s28-5.86,34-25.84S44.89.18,91.45.18c0,0-15.07-.13-27.57,33.48C56.54,53.38,57.67,76.35,40.3,99.78c0,0,10.05,8.3,20.67,49.8,10,39.22,23.3,49.8,30.48,49.8,0,0-44.63,2.85-57.16-67.69C29.23,103.19.32,99.08.32,99.08Z"/><polygon class="cls-1" points="183.97 0 169.86 19.98 183.97 39.96 199.27 39.96 199.27 0 183.97 0"/><path class="cls-2" d="M114.69,54.93c-6.4-1.29-15.31-1.84-30.61-1.84-3.81,14.63-7.3,29.36-12.66,40H83.9a51.39,51.39,0,0,1,20.55,4.31c-5,5.25-11,8.8-20.55,8.8H73.4c3.85,8.37,7.15,23.91,11.46,40,13.25-.1,22.83-2.16,29.83-5Z"/><path class="cls-2" d="M151,55.63c-6.7,1.71-10.68,4.35-16.6,8.07-6.61-3.79-10.56-6.38-16.66-8.05v84.06c10.86-5.38,14.48-12.66,16.66-15.78A37.88,37.88,0,0,0,151,139.39Z"/><path class="cls-2" d="M185.15,93h14.12v-40H184c-14.48,0-23.48.62-30,1.87v85.81c7.36,3.1,17.4,5.35,31.17,5.35h0l14.12-20-14.12-20h0c-10.32,0-16.5-3.46-21.3-8.58a51.81,51.81,0,0,1,21.3-4.53Z"/><path class="cls-1" d="M117.71,40H151V0H118.49l-.78.11Z"/><path class="cls-1" d="M114.69.76c-14.13,4-21.44,20.36-27,39.2h27Z"/><rect class="cls-1" x="153.98" width="12.33" height="39.96"/></g></svg>