<svg xmlns="http://www.w3.org/2000/svg" viewBox="0 0 199.39 199.39"><defs><style>.cls-1{fill:#737373;}.cls-2{fill:#1070e2;}</style></defs><g id="Layer_2" data-name="Layer 2"><path class="cls-1" d="M136.57,159.4H73.29c5,19.83,11.94,37.55,23.17,40h40.11Z"/><rect class="cls-1" x="139.57" y="159.4" width="33.33" height="40.03"/><rect class="cls-1" x="175.9" y="159.4" width="25.33" height="40.03"/><path class="cls-2" d="M.31,99.15s24.21-5.87,29.06-25.88S37.93.09,75.55.09c0,0-12.18-.12-22.27,33.54-5.93,19.75-5,42.75-19.05,66.22,0,0,8.12,8.32,16.7,49.88C59,189,69.75,199.61,75.55,199.6c0,0-36.06,2.86-46.18-67.79C25.29,103.27.31,99.15.31,99.15Z"/><path class="cls-1" d="M97.86-.09h-.47c-13.46,1.94-20,19.54-24.89,40H97.86l14.14-20Z"/><polygon class="cls-2" points="136.57 106.24 101.98 106.24 87.84 126.25 101.98 146.26 136.57 146.26 136.57 106.24"/><path class="cls-2" d="M139.57,146.26H172.9V106.13c-3.31-4.15-9.51-7-16.62-7s-13.42,2.85-16.71,7.07h0Z"/><rect class="cls-2" x="175.9" y="106.24" width="25.33" height="40.03"/><rect class="cls-1" x="119.19" y="-0.09" width="17.38" height="40.03"/><rect class="cls-1" x="139.57" y="-0.09" width="33.33" height="40.03"/><rect class="cls-1" x="175.9" y="-0.09" width="25.33" height="40.03"/><path class="cls-1" d="M175.9,53.08v40c9,0,17.28,0,23.35-.08l1.53,0V53.08Z"/><path class="cls-1" d="M136.57,93.12v-40h-67c-3.08,14.65-5.9,29.41-10.23,40h50.91S121.59,93.12,136.57,93.12Z"/><path class="cls-1" d="M172.9,53.08H139.57v47.17c3.89-3.17,9.82-5.22,16.52-5.22,6.86,0,12.93,2.14,16.81,5.44Z"/></g></svg>