<svg xmlns="http://www.w3.org/2000/svg" xmlns:xlink="http://www.w3.org/1999/xlink" viewBox="0 0 363.4 197.98"><defs><style>.cls-1,.cls-5{fill:none;}.cls-2{fill:#fff;}.cls-3{clip-path:url(#clip-path);}.cls-4{fill:#737373;}.cls-5{stroke:#fff;stroke-miterlimit:10;stroke-width:3px;}</style><clipPath id="clip-path"><rect class="cls-1" x="-25.64" y="-667.11" width="229.41" height="229.41"/></clipPath></defs><g id="Layer_2" data-name="Layer 2"><path class="cls-2" d="M215.37,127.09h-4.56V133h4.5a2.93,2.93,0,0,0,3.23-2.94A2.89,2.89,0,0,0,215.37,127.09Z"/><path class="cls-2" d="M217.37,120.69a2.24,2.24,0,0,0-2.36-2.51h-4.2v5H215A2.27,2.27,0,0,0,217.37,120.69Z"/><polygon class="cls-2" points="175.04 127.53 180.91 127.53 177.97 118.82 175.04 127.53"/><path class="cls-2" d="M161.44,145.18h33.08V105.31c-3.29-4.12-9.44-6.9-16.5-6.9s-13.31,2.82-16.58,7Zm14-31.1h5l8.54,23h-4.87l-1.87-5.51h-8.6l-1.83,5.51H166.9Z"/><path class="cls-2" d="M349.36,105.42h0c-10.27,0-16.42-3.44-21.2-8.52a51.4,51.4,0,0,1,21.2-4.51V52.63c-34.61,0-38.59,3.06-50.52,10.56-13.74-7.87-15.9-10.56-50.21-10.56V92.39a50.85,50.85,0,0,1,20.44,4.29c-4.92,5.22-10.89,8.74-20.44,8.74H197.52v39.76h51.11c39,0,46.58-16.87,50.21-22.08,3.05,5,12.59,22.08,50.52,22.08h0l14-19.88ZM216,137.07h-9.8v-23h9.1c4.1,0,6.74,2.47,6.74,5.94a4.68,4.68,0,0,1-3.17,4.77c2.94.5,4.37,3.1,4.37,5.71C223.21,133.67,221,137.07,216,137.07Z"/><path class="cls-2" d="M158.44,105.42H124.09L110,125.3l14,19.88h34.35ZM136,137.07v-23h4.63V133h8.7v4.1Z"/><path class="cls-2" d="M0,98.38s29.81-5.82,35.78-25.7S46.32,0,92.64,0c0,0-15-.12-27.43,33.31C57.91,52.93,59,75.77,41.75,99.08c0,0,10,8.26,20.57,49.54,10,39,23.18,49.54,30.32,49.54,0,0-44.4,2.84-56.86-67.33C30.75,102.47,0,98.38,0,98.38Z"/><polygon class="cls-2" points="335.31 -0.18 323.44 -0.18 323.44 39.58 335.31 39.58 349.36 19.7 335.31 -0.18"/><polygon class="cls-2" points="281.24 158.22 267.19 178.1 281.24 197.98 349.36 197.98 349.36 158.22 281.24 158.22"/><path class="cls-2" d="M119.54-.18C103,1.74,94.91,19.22,88.89,39.58H120V-.18Z"/><path class="cls-2" d="M86.08,145.18H98V105.42H74.69C78.52,113.76,81.79,129.22,86.08,145.18Z"/><rect class="cls-2" x="161.44" y="158.22" width="33.08" height="39.75"/><path class="cls-2" d="M158.44,158.22H89.86c6.21,19.7,14.7,37.3,28.53,39.76h40.05Z"/><polygon class="cls-2" points="235.36 158.22 197.52 158.22 197.52 197.98 235.36 197.98 249.4 178.1 235.36 158.22"/><path class="cls-2" d="M244.11,72.51,230.06,52.63H197.52V92.38c11.94,0,23.08,0,30.89-.09l1.65,0v.13ZM222,64.08,211.15,79.5H222v4.11H205.24V80.14L216,64.72H205.68V60.61H222Z"/><path class="cls-2" d="M194.52,52.62H161.44V99.47c3.86-3.14,9.74-5.17,16.39-5.17,6.81,0,12.83,2.12,16.69,5.39Zm-14.28,12.1V83.61h-4.63V64.72h-6.34V60.61h17.3v4.11Z"/><path class="cls-2" d="M158.44,52.62H85.31c-3.79,14.56-7.26,29.22-12.59,39.76h59.61l26.11,0ZM115.62,84a11.9,11.9,0,0,1-.23-23.8,11.36,11.36,0,0,1,8.5,3.67l-3.37,2.91a7,7,0,0,0-5.13-2.27,7.68,7.68,0,0,0,.13,15.32c3,0,6-1.81,6-4.48H115V71.59h11.57C126.56,80.1,121.86,84,115.62,84Zm19.88-.4v-23h14.41v4.11h-9.77v5.47h8.57v4.17h-8.57V79.5h10.07v4.11Z"/><rect class="cls-2" x="161.44" y="-0.18" width="33.08" height="39.75"/><polygon class="cls-2" points="158.44 -0.18 149.34 -0.18 135.3 19.7 149.34 39.58 158.44 39.58 158.44 -0.18"/><polygon class="cls-2" points="305.48 -0.18 197.52 -0.18 197.52 39.58 305.48 39.58 319.52 19.7 305.48 -0.18"/><g class="cls-3"><rect class="cls-4" x="246.63" y="-5.61" width="70.92" height="41.39"/><rect class="cls-4" x="57.46" y="-5.61" width="141.4" height="41.39"/><line class="cls-5" x1="120.34" y1="-170.79" x2="120.34" y2="35.98"/><line class="cls-5" x1="157.91" y1="-170.79" x2="157.91" y2="35.78"/><polygon class="cls-4" points="198.86 -5.61 213.48 15.09 198.86 35.78 198.86 -5.61"/><polygon class="cls-4" points="246.63 -5.61 232.01 15.09 246.63 35.78 246.63 -5.61"/></g></g></svg>