<svg xmlns="http://www.w3.org/2000/svg" xmlns:xlink="http://www.w3.org/1999/xlink" viewBox="0 0 363.4 197.98"><defs><style>.cls-1,.cls-10{fill:none;}.cls-2{fill:#1070e2;}.cls-3{fill:#737373;}.cls-4{clip-path:url(#clip-path);}.cls-5,.cls-6,.cls-7,.cls-8,.cls-9{fill:#fff;}.cls-6,.cls-7,.cls-8,.cls-9{font-size:34.75px;font-family:SofiaPro-Bold, Sofia Pro;font-weight:700;}.cls-7{letter-spacing:-0.03em;}.cls-8{letter-spacing:-0.03em;}.cls-9{letter-spacing:-0.02em;}.cls-10{stroke:#fff;stroke-miterlimit:10;stroke-width:3px;}</style><clipPath id="clip-path"><rect class="cls-1" x="-25.64" y="-460.33" width="229.41" height="229.41"/></clipPath></defs><g id="Layer_2" data-name="Layer 2"><path class="cls-2" d="M215.37,127.09h-4.56V133h4.5a2.93,2.93,0,0,0,3.23-2.94A2.89,2.89,0,0,0,215.37,127.09Z"/><path class="cls-2" d="M217.37,120.69a2.24,2.24,0,0,0-2.36-2.51h-4.2v5H215A2.27,2.27,0,0,0,217.37,120.69Z"/><polygon class="cls-2" points="175.04 127.53 180.91 127.53 177.97 118.82 175.04 127.53"/><path class="cls-2" d="M161.44,145.18h33.08V105.31c-3.29-4.12-9.44-6.9-16.5-6.9s-13.31,2.82-16.58,7Zm14-31.1h5l8.54,23h-4.87l-1.87-5.51h-8.6l-1.83,5.51H166.9Z"/><path class="cls-2" d="M349.36,105.42h0c-10.27,0-16.42-3.44-21.2-8.52a51.4,51.4,0,0,1,21.2-4.51V52.63c-34.61,0-38.59,3.06-50.52,10.56-13.74-7.87-15.9-10.56-50.21-10.56V92.39a50.85,50.85,0,0,1,20.44,4.29c-4.92,5.22-10.89,8.74-20.44,8.74H197.52v39.76h51.11c39,0,46.58-16.87,50.21-22.08,3.05,5,12.59,22.08,50.52,22.08h0l14-19.88ZM216,137.07h-9.8v-23h9.1c4.1,0,6.74,2.47,6.74,5.94a4.68,4.68,0,0,1-3.17,4.77c2.94.5,4.37,3.1,4.37,5.71C223.21,133.67,221,137.07,216,137.07Z"/><path class="cls-2" d="M158.44,105.42H124.09L110,125.3l14,19.88h34.35ZM136,137.07v-23h4.63V133h8.7v4.1Z"/><path class="cls-2" d="M0,98.38s29.81-5.82,35.78-25.7S46.32,0,92.64,0c0,0-15-.12-27.43,33.31C57.91,52.93,59,75.77,41.75,99.08c0,0,10,8.26,20.57,49.54,10,39,23.18,49.54,30.32,49.54,0,0-44.4,2.84-56.86-67.33C30.75,102.47,0,98.38,0,98.38Z"/><polygon class="cls-3" points="335.31 -0.18 323.44 -0.18 323.44 39.58 335.31 39.58 349.36 19.7 335.31 -0.18"/><polygon class="cls-3" points="281.24 158.22 267.19 178.1 281.24 197.98 349.36 197.98 349.36 158.22 281.24 158.22"/><path class="cls-3" d="M119.54-.18C103,1.74,94.91,19.22,88.89,39.58H120V-.18Z"/><path class="cls-2" d="M86.08,145.18H98V105.42H74.69C78.52,113.76,81.79,129.22,86.08,145.18Z"/><rect class="cls-3" x="161.44" y="158.22" width="33.08" height="39.75"/><path class="cls-3" d="M158.44,158.22H89.86c6.21,19.7,14.7,37.3,28.53,39.76h40.05Z"/><polygon class="cls-3" points="235.36 158.22 197.52 158.22 197.52 197.98 235.36 197.98 249.4 178.1 235.36 158.22"/><path class="cls-3" d="M244.11,72.51,230.06,52.63H197.52V92.38c11.94,0,23.08,0,30.89-.09l1.65,0v.13ZM222,64.08,211.15,79.5H222v4.11H205.24V80.14L216,64.72H205.68V60.61H222Z"/><path class="cls-3" d="M194.52,52.62H161.44V99.47c3.86-3.14,9.74-5.17,16.39-5.17,6.81,0,12.83,2.12,16.69,5.39Zm-14.28,12.1V83.61h-4.63V64.72h-6.34V60.61h17.3v4.11Z"/><path class="cls-3" d="M158.44,52.62H85.31c-3.79,14.56-7.26,29.22-12.59,39.76h59.61l26.11,0ZM115.62,84a11.9,11.9,0,0,1-.23-23.8,11.36,11.36,0,0,1,8.5,3.67l-3.37,2.91a7,7,0,0,0-5.13-2.27,7.68,7.68,0,0,0,.13,15.32c3,0,6-1.81,6-4.48H115V71.59h11.57C126.56,80.1,121.86,84,115.62,84Zm19.88-.4v-23h14.41v4.11h-9.77v5.47h8.57v4.17h-8.57V79.5h10.07v4.11Z"/><rect class="cls-3" x="161.44" y="-0.18" width="33.08" height="39.75"/><polygon class="cls-3" points="158.44 -0.18 149.34 -0.18 135.3 19.7 149.34 39.58 158.44 39.58 158.44 -0.18"/><polygon class="cls-3" points="305.48 -0.18 197.52 -0.18 197.52 39.58 305.48 39.58 319.52 19.7 305.48 -0.18"/><g class="cls-4"><rect class="cls-3" x="121.13" y="129.81" width="35.43" height="16.56"/><ellipse class="cls-5" cx="138.93" cy="149.01" rx="22.13" ry="13.77"/><path class="cls-2" d="M159.13,153.12c0,2.55,1.75,5.6,0,7.65-3.47,4.07-12.64,6.13-20,6.13-5.94,0-16.33-2.4-20-5.23-3.14-2.44,0-5,0-8.55,0-7.6,9-13.77,20-13.77S159.13,145.52,159.13,153.12Z"/><polygon class="cls-2" points="317.54 146.2 332.16 166.9 317.54 187.59 317.54 146.2"/><path class="cls-3" d="M193.35,91.23H91.6v41.39s71.47.09,100-.09l1.73,0Z"/><path class="cls-2" d="M265,102.23c-14.31-8.19-16.55-11-52.27-11v41.38c28.1,0,46.14,22,52.27,32,3.18,5.19,13.1,23,52.59,23V146.2C287.17,146.2,291.35,117.35,265,102.23Z"/><rect class="cls-3" x="37.37" y="36.26" width="76.59" height="41.39"/><rect class="cls-3" x="37.37" y="91.23" width="81.53" height="41.39"/><rect class="cls-2" x="83.02" y="146.2" width="118.77" height="41.39"/><path class="cls-2" d="M317.54,132.63c-29,0-45.71,22.11-52.59,32-3.78,5.42-11.71,23-52.27,23l-26.17,0V146.2h26.17c27.41,0,26.54-27.81,52.27-44,12.42-7.8,16.57-11,52.59-11Z"/><text class="cls-6" transform="translate(60.28 123.49)">G</text><text class="cls-6" transform="translate(91.99 123.49)">E</text><text class="cls-7" transform="translate(128.93 123.49)">T</text><text class="cls-6" transform="translate(166.12 123.49)">Z</text><text class="cls-8" transform="translate(92.51 179.15)">L</text><rect class="cls-3" x="109.31" y="36.26" width="162.55" height="41.39"/><text class="cls-9" transform="translate(127.25 179.15)">A</text><text class="cls-6" transform="translate(165.56 179.15)">B</text><line class="cls-10" x1="120.34" y1="35.99" x2="120.34" y2="242.76"/><line class="cls-10" x1="157.91" y1="35.99" x2="157.91" y2="242.56"/><rect class="cls-3" x="290.56" y="36.26" width="12.36" height="41.39"/><polygon class="cls-3" points="271.86 36.26 286.48 56.96 271.86 77.65 271.86 36.26"/><polygon class="cls-3" points="302.92 36.26 317.54 56.96 302.92 77.65 302.92 36.26"/><polygon class="cls-3" points="193.35 91.25 207.97 111.94 193.35 132.63 193.35 91.25"/><polygon class="cls-3" points="109.31 36.26 94.69 56.96 109.31 77.65 109.31 36.26"/><polygon class="cls-2" points="83.02 146.2 68.4 166.9 83.02 187.59 83.02 146.2"/></g></g></svg>