<?xml version="1.0" encoding="utf-8"?>
<!-- Generator: Adobe Illustrator 19.2.1, SVG Export Plug-In . SVG Version: 6.00 Build 0)  -->
<svg version="1.1" id="layer" xmlns="http://www.w3.org/2000/svg" xmlns:xlink="http://www.w3.org/1999/xlink" x="0px" y="0px" width="150px" height="150px"
	 viewBox="0 0 652 652" style="enable-background:new 0 0 652  652;" xml:space="preserve">
<style type="text/css">
	.st0{fill:#C41230;}
	.st1{fill:#FFFFFF;}
	.st2{fill:none;stroke:#000000;stroke-width:2.2336;}
	.st3{fill:none;stroke:#000000;stroke-width:0.4564;}
	.st4{fill:none;stroke:#000000;stroke-width:0.4651;}
</style>
<g>
	<path d="M374.6,271.3c-1.3-2.7-3.1-4.8-6.5-5.6v-1.5c2.1,0,8.8,0.2,10.4,0.2c1.5,0,7.5-0.2,9.6-0.2v1.7c-1.9,0.4-4,1.5-4,3.3
		c0,1.5,0.8,3.1,2.5,6.7l15,34l14.2-34c1-2.7,1.9-4.8,1.9-6.5c0-1.9-1.7-3.1-4-3.5v-1.7c1.9,0,6.5,0.2,7.9,0.2
		c1.3,0,6.7-0.2,8.8-0.2v1.7c-3.5,1-5.6,2.9-7.7,7.5l-20.8,49h-4.4L374.6,271.3L374.6,271.3L374.6,271.3z"/>
	<path d="M173.2,320.3c2.7-0.6,4.6-1.9,4.6-5v-44.6c0-2.9-1.9-4.2-4.6-5V264c1.5,0,7.5,0.2,9,0.2c1.7,0,8.1-0.2,9.6-0.2v1.7
		c-2.7,0.6-4.8,1.9-4.8,5v18.8h33.4v-18.8c0-3.1-1.7-4.4-4.6-5V264c1.5,0,7.7,0.2,9.6,0.2c1.5,0,7.7-0.2,9.2-0.2v1.7
		c-2.7,0.6-4.8,1.9-4.8,5v44.8c0,2.9,1.9,4.2,4.8,5v1.5c-1.5,0-7.7-0.2-9.2-0.2c-1.7,0-8.1,0.2-9.6,0.2v-1.5c2.7-0.6,4.6-1.9,4.6-5
		v-21.3H187v21.3c0,3.1,1.9,4.2,4.8,5v1.5c-1.5,0-7.9-0.2-9.6-0.2c-1.5,0-7.7,0.2-9,0.2V320.3L173.2,320.3L173.2,320.3z
		 M243.7,320.3c3.5-0.8,5.6-3.1,7.1-6.5l18.6-44.4c0.8-1.9,1.7-5.6,1.7-5.6h5.2c0,0,0.8,3.8,1.7,5.6l19.6,44.6
		c1.5,3.1,2.9,5.2,6.9,6.3v1.5c-2.1,0-8.8-0.2-10.2-0.2s-7.7,0.2-9.8,0.2v-1.5c2.9-0.6,3.8-2.1,3.8-3.5c0-1.3-0.4-2.5-1-4l-4.2-9.4
		h-21.7l-3.8,9.6c-0.4,1-1,2.7-1,3.8c0,1.7,0.8,2.9,4.2,3.8v1.5c-1.9,0-6.9-0.2-8.1-0.2l-8.3,0.2L243.7,320.3L243.7,320.3
		L243.7,320.3z M280.6,298.8l-9.2-21.5l-8.5,21.5L280.6,298.8L280.6,298.8z M243.7,320.3c3.5-0.8,5.6-3.1,7.1-6.5l18.6-44.4
		c0.8-1.9,1.7-5.6,1.7-5.6h5.2c0,0,0.8,3.8,1.7,5.6l19.6,44.6c1.5,3.1,2.9,5.2,6.9,6.3v1.5c-2.1,0-8.8-0.2-10.2-0.2
		s-7.7,0.2-9.8,0.2v-1.5c2.9-0.6,3.8-2.1,3.8-3.5c0-1.3-0.4-2.5-1-4l-4.2-9.4h-21.7l-3.8,9.6c-0.4,1-1,2.7-1,3.8
		c0,1.7,0.8,2.9,4.2,3.8v1.5c-1.9,0-6.9-0.2-8.1-0.2l-8.3,0.2L243.7,320.3L243.7,320.3L243.7,320.3z M280.6,298.8l-9.2-21.5
		l-8.5,21.5L280.6,298.8L280.6,298.8z M426.9,320.3c3.5-0.8,5.6-3.1,6.9-6.5l18.6-44.4c0.8-1.9,1.7-5.6,1.7-5.6h5.2
		c0,0,0.8,3.8,1.7,5.6l19.6,44.6c1.5,3.1,2.9,5.2,6.9,6.3v1.5c-2.1,0-8.8-0.2-10.2-0.2s-7.7,0.2-9.8,0.2v-1.5
		c2.9-0.6,3.8-2.1,3.8-3.5c0-1.3-0.4-2.5-1-4l-4.2-9.4h-21.7l-3.8,9.6c-0.4,1-1,2.7-1,3.8c0,1.7,0.8,2.9,4,3.8v1.5
		c-1.9,0-6.9-0.2-7.9-0.2l-8.5,0.2V320.3L426.9,320.3L426.9,320.3z M463.6,298.8l-9.2-21.5l-8.5,21.5L463.6,298.8L463.6,298.8z
		 M560.4,320.3c3.5-0.6,5.4-2.1,5.4-5.2v-44.4c0-3.1-1.9-4.4-5.2-5V264c1.9,0,8.3,0.2,10,0.2c2.9,0,10.8-0.6,16.9-0.6
		c20.6,0,32.9,11.5,32.9,29c0,16.9-12.9,29.6-34.2,29.6c-6,0-13.6-0.4-16.3-0.4c-1.7,0-7.7,0.2-9.6,0.2V320.3L560.4,320.3
		L560.4,320.3z M575.2,317.4c2.1,0.4,6,0.6,9,0.6c17.3,0,26.3-10.4,26.3-24.8c0-15-9.4-25.6-25.6-25.6c-3.3,0-7.5,0.2-9.6,0.6V317.4
		L575.2,317.4L575.2,317.4z"/>
	<path d="M327.3,315.1c0,2.9,1.9,4.6,5.4,5.4v1.7c-1.9,0-8.1-0.2-10-0.2c-1.5,0-7.7,0.2-9.6,0.2v-1.7c3.1-0.6,5.2-2.3,5.2-5.4v-44.4
		c0-2.7-1.5-4.4-5.2-5V264c1.9,0,7.9,0.2,9.8,0.2c2.9,0,10.8-0.4,14-0.4c13.8,0,21.5,5.6,21.5,15.4c0,7.7-5.8,12.9-14.6,15
		c0,0,2.1,1.3,4,3.5c2.5,2.9,9.4,12.5,12.1,15.8c2.7,3.3,6.3,7.1,10,7.3v1.3c-1.9,0.4-4.6,0.6-6.9,0.6c-4.8,0-8.5-1.7-12.1-6
		c-3.1-3.8-8.8-11.9-12.1-16.1c-2.1-2.5-4.4-4.6-9-5.2c-0.8-0.2-1.7-0.2-2.7-0.4v20H327.3L327.3,315.1z M327.3,291.5
		c1.9,0.2,4.6,0.4,7.3,0.4c10.8,0,14.2-6.3,14.2-11.7c0-7.7-5.2-12.7-14.6-12.7c-1.9,0-4.8,0.2-6.7,0.6v23.3H327.3L327.3,291.5z"/>
	<path d="M509.5,315.1c0,2.9,1.9,4.6,5.4,5.4v1.7c-1.9,0-8.1-0.2-10-0.2c-1.5,0-7.7,0.2-9.6,0.2v-1.7c3.1-0.6,5.2-2.3,5.2-5.4v-44.4
		c0-2.7-1.5-4.4-5-5V264c1.9,0,7.9,0.2,9.8,0.2c2.9,0,10.8-0.4,14-0.4c13.8,0,21.5,5.6,21.5,15.4c0,7.7-5.8,12.9-14.6,15
		c0,0,2.1,1.3,4,3.5c2.5,2.9,9.2,12.5,11.9,15.8c2.7,3.3,6.3,7.1,10,7.3v1.3c-1.9,0.4-4.6,0.6-6.9,0.6c-4.8,0-8.5-1.7-12.1-6
		c-3.1-3.8-8.5-11.9-11.7-16.1c-2.1-2.5-4.4-4.6-9-5.2c-0.8-0.2-1.7-0.2-2.7-0.4v20H509.5L509.5,315.1z M509.5,291.5
		c1.9,0.2,4.6,0.4,7.3,0.4c10.8,0,14.2-6.3,14.2-11.7c0-7.7-5.2-12.7-14.6-12.7c-1.9,0-4.8,0.2-6.7,0.6v23.3H509.5L509.5,291.5z"/>
	<path class="st0" d="M418.6,371.6h0.8c0.4,1.7,1.5,3.1,2.7,4.2c1.5,1,3.5,1.5,5.4,1.5c4,0,6.5-1.9,6.5-5s-3.1-4.6-6.9-6.5
		c-2.9-1.5-8.5-3.5-8.5-9.2c0-5,4-8.3,10-8.3c4,0,6,1,8.8,0.8v6h-1c-1-3.5-4.4-4.8-7.9-4.8c-4,0-5.6,2.3-5.6,4.6
		c0,3.3,3.8,5.2,7.1,6.9c4.2,1.9,8.5,4,8.5,9.2c0,5-3.8,8.3-10.8,8.3c-4.2,0-6.7-1-9-1.5V371.6L418.6,371.6z"/>
	<path class="st0" d="M481.6,377.8c1.5-0.4,2.3-1,2.3-2.5v-23.1c0-1.5-0.8-2.1-2.3-2.5v-0.8c0.6,0,4,0.2,4.8,0.2
		c0.8,0,4.2-0.2,5-0.2v0.8c-1.5,0.4-2.5,1-2.5,2.5v9.6h17.1v-9.6c0-1.7-0.8-2.3-2.3-2.5v-0.8c0.8,0,4,0.2,5,0.2c0.8,0,4-0.2,4.8-0.2
		v0.8c-1.5,0.4-2.5,1-2.5,2.5v23.1c0,1.5,1,2.1,2.5,2.5v0.8c-0.6,0-4,0-4.8,0c-0.8,0-4.2,0-5,0v-0.8c1.5-0.4,2.3-1,2.3-2.5v-11
		h-17.1v10.8c0,1.7,1,2.1,2.5,2.5v0.8c-0.6,0-4.2,0-5,0c-0.8,0-4,0-4.8,0V377.8L481.6,377.8z"/>
	<path class="st0" d="M473.2,371.2l-0.4,6.7c-2.3-0.2-5.4,1.5-10.6,1.5c-11,0-16.1-6.7-16.1-15.4c0-9.2,6.5-15.6,15.8-15.6
		c4.6,0,7.5,1.7,10.4,1.5l0.2,6.7h-0.8c-1.7-4-5.6-5.8-9.8-5.8c-6.9,0-10.6,6-10.6,13.3c0,6,2.9,13.3,11.3,13.3c4.6,0,8.1-1.7,9.6-6
		H473.2L473.2,371.2z"/>
	<path class="st0" d="M520.7,363.9c0-8.5,6-15.6,15.4-15.6c9.4,0,15.4,7.1,15.4,15.6c0,8.5-6,15.4-15.4,15.4
		C526.6,379.3,520.7,372.4,520.7,363.9L520.7,363.9z M546.2,363.9c0-6.9-3.1-13.6-10-13.6c-7.1,0-10.2,6.5-10.2,13.6
		c0,6.9,3.1,13.3,10.2,13.3C543.1,377.2,546.2,370.8,546.2,363.9L546.2,363.9z"/>
	<path class="st0" d="M558.3,363.9c0-8.5,6-15.6,15.4-15.6c9.4,0,15.4,7.1,15.4,15.6c0,8.5-6,15.4-15.4,15.4
		C564.1,379.3,558.3,372.4,558.3,363.9L558.3,363.9z M583.7,363.9c0-6.9-3.1-13.6-10-13.6c-7.1,0-10.2,6.5-10.2,13.6
		c0,6.9,3.1,13.3,10.2,13.3C580.6,377.2,583.7,370.8,583.7,363.9L583.7,363.9z"/>
	<path class="st0" d="M219.9,348.9h18.8c0.6,0,1.7,0,2.1-0.4h0.8l-0.2,6h-0.8c-0.6-1.9-1.7-3.3-5.4-3.3h-7.9V362c0,0,6,0,6.5,0
		c0.8,0,2.1,0,2.5-0.2c1.5-0.2,2.1-1,2.3-2.3h0.8c0,0.8,0,2.9,0,3.5c0,0.6,0,2.7,0,3.8h-0.8c-0.4-1.3-1-2.1-2.3-2.5
		c-0.4-0.2-1.7-0.2-2.5-0.2c-0.4,0-6.5,0-6.5,0v12.1h9c3.8,0,5-1.7,5.8-4l0.8,0.2l-0.8,6.3c-2.9-0.2-4.6-0.2-7.7-0.2h-9.6
		c-0.8,0-4.2,0.2-5.2,0.2v-0.8c1.7-0.4,2.7-1,2.7-2.7v-22.9c0-1.5-0.8-2.3-2.7-2.7v-0.6H219.9z"/>
	<path class="st0" d="M291.6,352.4c0-1.5-0.8-2.3-2.7-2.7v-0.8c1,0,4.4,0.2,5.2,0.2s4.2-0.2,5.2-0.2v0.8c-1.9,0.4-2.7,1-2.7,2.7
		v22.7c0,1.5,0.8,2.3,2.7,2.7v0.8c-1,0-4.2-0.2-5.2-0.2c-0.8,0-4.2,0.2-5.2,0.2v-0.8c1.9-0.4,2.7-1,2.7-2.7V352.4L291.6,352.4z"/>
	<path class="st0" d="M337.7,377.8c1.9-0.4,2.9-1.7,3.5-3.3l9.6-22.9c0.4-1,0.8-2.9,0.8-2.9h2.7c0,0,0.4,1.9,0.8,2.9l10,22.9
		c0.6,1.7,1.5,2.7,3.5,3.3v0.8c-1,0-4.6,0-5.2,0c-0.8,0-4,0-5,0v-0.8c1.5-0.4,1.9-1,1.9-1.9c0-0.6-0.2-1.3-0.6-2.1l-2.1-4.8h-11
		l-1.9,5c-0.2,0.6-0.4,1.5-0.4,1.9c0,0.8,0.4,1.5,2.1,1.9v0.8c-1,0-3.5,0-4.2,0h-4.4L337.7,377.8L337.7,377.8z M356.9,366.6l-4.8-11
		l-4.4,11H356.9L356.9,366.6z"/>
	<path class="st0" d="M333.7,371.2l-0.4,6.7c-2.3-0.2-5.4,1.5-10.6,1.5c-11,0-16.1-6.7-16.1-15.4c0-9.2,6.5-15.6,15.8-15.6
		c4.6,0,7.5,1.7,10.4,1.5l0.2,6.7h-0.8c-1.7-4-5.6-5.8-9.8-5.8c-6.9,0-10.6,6-10.6,13.3c0,6,2.9,13.3,11.3,13.3c4.6,0,8.1-1.7,9.6-6
		H333.7L333.7,371.2z"/>
	<path class="st0" d="M397.1,372.4c-1,2.3-2.1,4-5.8,4h-9.2v-24c0-1.7,0.8-2.3,2.7-2.7v-0.8c-1,0-4.4,0.2-5.2,0.2
		c-0.8,0-4.2-0.2-5.2-0.2v0.8c1.9,0.4,2.7,1.3,2.7,2.7v22.7c0,1.7-0.8,2.5-2.7,2.7v0.8c1,0,4.4-0.2,5.2-0.2l0,0l0,0h9.6
		c3.1,0,5,0,7.7,0.2l0.8-6.3H397.1L397.1,372.4z"/>
	<path class="st0" d="M618.5,372.4c-1,2.3-2.1,4-5.8,4h-9v-24c0-1.7,0.8-2.3,2.7-2.7v-0.8c-1,0-4.4,0.2-5.2,0.2
		c-0.8,0-4.2-0.2-5.2-0.2v0.8c1.9,0.4,2.7,1.3,2.7,2.7v22.7c0,1.7-0.8,2.5-2.7,2.7v0.8c1,0,4.4-0.2,5.2-0.2l0,0l0,0h9.6
		c3.1,0,5,0,7.7,0.2l0.8-6.3H618.5L618.5,372.4z"/>
	<path class="st0" d="M251.2,377.8c1.9-0.4,2.7-1,2.7-2.7v-22.9c0-1.7-1-2.3-2.7-2.5v-0.8c1,0,4.4,0.2,5.2,0.2
		c1.5,0,5.4-0.4,8.5-0.4c10.6,0,17.1,5.8,17.1,15c0,8.8-6.7,15.2-17.5,15.2c-3.1,0-6.7-0.2-8.1-0.2c-0.8,0-4,0.2-5,0.2v-1H251.2z
		 M258.7,376.4c1,0.2,2.9,0.2,4.4,0.2c9,0,13.6-5,13.6-12.9c0-7.7-4.8-13.1-13.1-13.1c-1.7,0-3.5,0.2-4.8,0.4L258.7,376.4
		L258.7,376.4z"/>
	<path class="st0" d="M208.9,374.5l-1.5-22.1c-0.2-1.5,0.6-2.3,2.3-2.7v-0.8c-1.3,0-3.1,0-4,0c-0.6,0-2.1,0-3.1,0l-9.8,22.9
		l-9.8-22.9c-1,0-2.5,0-3.3,0c-0.6,0-2.9,0-4.2,0v0.8c1.7,0.2,2.5,1.3,2.5,2.7l-1.7,22.1c-0.2,1.7-1,2.9-2.9,3.5v0.8h4.2
		c0.6,0,3.1,0,4.2,0v-0.8c-2.1-0.6-2.5-1.7-2.5-3.1l1.3-19.6l10.2,23.6h1.7l10.2-23.6l1.3,19.8c0,1.3-0.4,2.5-2.5,3.1v0.8
		c1,0,4.6,0,5.2,0h5.2v-0.8C209.9,377.4,209.1,376.4,208.9,374.5L208.9,374.5z"/>
	<path class="st0" d="M82.7,246.5H20.6l-0.2,49.6c0,60.9,61.1,99.7,61.7,100.1l0.2,0.2c0.2,0,0.6-0.2,0.6-0.2
		c10.4-6.9,62.1-43.6,62.1-99.7v-49.8C144.9,246.5,82.7,246.5,82.7,246.5L82.7,246.5L82.7,246.5z M144.7,290.5h-123v-7.1h123V290.5
		L144.7,290.5z"/>
	<path d="M41.5,252.5c4.2-1.7,8.8-0.4,13.3-0.8c1.3,0.2,2.9-0.6,3.8,0.6c0,1.3,0,2.5,0,4c0.4,1,1.9,0.4,2.5,0.8c0.4,0.2,0.8,0.4,1,1
		c0.2,0.6,0,1.3-0.2,1.9c-0.8,0.8-1.9,0.6-3.1,0.8l-0.4,0.4c0.2,2.5-0.4,4.6,0,6.9c0,0.4-0.2,1.3,0.4,1.5c1.3,0,2.3,0,3.1,0.8
		c0.4,0.6,0.4,1.3,0.2,2.1c-0.4,2.5-4.4-0.4-4,2.5c0,1,0.2,2.5-0.2,3.5c-4.6,0-9.2-0.4-13.3,0c-0.8,0.6-1.7,1-2.9,1.3
		c-0.8-0.2-1.7-0.6-2.3-1.3c-4.2-0.2-8.1-0.2-12.1-0.2c-1.3-1-0.4-2.9-0.8-4.4c-0.6-0.8-1.7-0.2-2.5-0.6c-0.6,0-0.8-0.6-1-1
		c0-0.8,0-1.7,0.6-2.3c0.6-0.4,1.7-0.4,2.5-0.4l0.4-0.4c-0.2-2.7,0.4-5.4-0.2-8.3c-0.4-0.6-1.3,0-1.7-0.4c-0.6-0.2-1.5-0.6-1.7-1.5
		c-0.2-0.6-0.2-1.3,0.4-1.9c0.8-1,2.5,0.2,3.3-0.8l0.4-4c0.6-1.3,2.1-0.6,3.3-0.6c2.1-0.4,4.6,0,6.7,0
		C38.7,251.7,40.2,252.1,41.5,252.5L41.5,252.5L41.5,252.5L41.5,252.5z"/>
	<path class="st1" d="M47.1,296.1l-0.2,0.8c0,0.4-0.4,0.8-0.8,0.6l-1.7-0.2c-0.6-0.2-1.3-0.4-1.9-0.2c-0.2,0.2-0.6,0.4-1,0.8
		c0.2,0,0.2,0.2,0.2,0.2c0.4,0.2,1.3,0.4,1.5,1.5c0,0.8,0.4,1.5,0.8,1.9l0.2,0.4c0.2,0.2,0.2,0.4,0.2,0.6s0,0.2-0.2,0.4l-0.8,1
		l-0.4,0.4c0,0-0.4,1-0.6,1.5c0.2,0.4,0.4,0.6,0.6,0.6c0.8-0.2,1.5,0,2.1,0l1.3,0.2h0.2h0.4c0.4,0,1.3-0.2,1.9,0.2
		c0,0,0.6,1,0.6,1.3c0.2,0.4,0.2,0.6,0.2,1s0,0.8-0.2,1.3l-0.2,0.6c0,0.2,0,0.4-0.2,0.4c-1,1.7-2.5,2.9-4.4,3.8c0.2,0,0.2,0,0.2,0
		s0,0,0,0.2l0,0c0.2,0.2,0.8,0.2,1.5,0h0.4c0.8,0,1.5-0.2,2.3-0.6l2.3-0.6c0.4-0.2,0.6,0.2,0.8,0.4c0.4,0.8,1,1.5,1.5,1.9
		c0,0,0,0,0.4-0.4s1.3-1,2.3-0.6c0,0,0.2,0,0.2,0.2c0.8,0.6,1,1.5,1.3,2.1c0.2,0.4,0.2,1,0.6,1.3c0.2,0.2,0.2,0.4,0.2,0.4v0.2
		c0,0.8-0.8,1.3-1,1.3h-0.2l-0.2,0.2l-1.9,0.4c-0.6,0-1.3,0.2-1.7,0.4c0,0,0,0.2,0.2,0.2c0.8,0.4,2.1,0.6,3.3,0.8l0.6,0.2h1.5h2.5
		c0.4,0,0.4,0.2,0.6,0.4c0.2,0.2,0,0.6-0.2,0.8l-0.4,0.6l-0.2,0.2l-4,2.7c-0.2,0-2.3,0.8-2.3,0.8l-3.1,1.3h-0.2
		c-1.9,0.4-2.9-0.6-4-1.3c-0.6-0.6-1.3-1-2.1-1c-0.6,0-1.3,0.2-1.7,0.6c-0.2,0.2-0.2,0.4-0.2,0.8c0,0.2,0,0.2,0,0.4h0.2
		c0.4,0.2,1.3,0.4,1.3,1.5c0,1.5-0.6,2.5-1.3,3.5c-0.4,0.8-1,1.9-1,2.7v0.2c0,0.2,0,0.4,0.2,0.4h0.2h0.2l0.2-0.4
		c0.2-0.4,0.6-1,1.5-1.3h0.2c1.7,0.2,2.5,0,3.1-0.6c0.2-0.2,0.4-0.2,0.4-0.2c0.4,0,1,0,1.5,0.4s0.6,0.8,0.6,1.3c0,0,0,0.2,0,0.4
		c1-0.2,1.7-1,2.5-2.3l0.4-0.6c0.2-0.2,0.4-0.4,0.6-0.4l0.6-0.2c0.8-0.2,1.7-0.6,2.7,0c0.2,0.2,0.4,0.4,0.4,0.6c0,0.2,0,0.4,0,0.6
		c0,0.8-0.4,1.5-0.6,2.1c0,0-0.2,0.4-0.2,0.8c1.5-0.4,2.7-1.7,3.8-3.1l0.6-0.8c0.2-0.4,0.6-1.5,1.9-1.5h0.2c0.6,0.2,0.8,0,1.5-1
		l1.3-1.3c0.2-0.2,0.2-0.2,0.6-0.2h0.4c0.2,0,0.4,0,0.6,0.2c0.2,0.2,0.2,0.2,0.2,0.4v1.3l0,0c0.2,0,0.8-0.4,1.3-0.4l1.7-1
		c0.2-0.2,0.4-0.2,0.8,0l6.3,1.7c1.3,0.4,1.5,1.3,1.5,2.1c0,0.2,0,0.6,0,0.6c0,0.2,0,0.4,0,0.6s0,0.2,0.2,0.4
		c0.2,0.2,0.2,0.4,0.2,0.6c0,0.2,0,0.2,0,0.4c-0.2,0.6-0.8,1.3-2.5,1.3l-3.1,0.2c-2.5,0-5,0-6.9,1.7l-1.7,1.7
		c-0.2,0.2-0.4,0.2-0.6,0.2c-1.3,0-2.1,0.6-3.1,1.3c-0.8,0.6-1.9,1.3-3.1,1.5c-0.8,0.4-1.9,0.4-2.7,0.4c-0.8,0-1.3,0-1.5,0.2
		c0.8,1,2.3,1.5,3.8,1.9c0.2,0,0.8,0.2,0.8,0.2c0.6,0,1.7,0,2.1,1c0,0,0,0.2,0,0.4c0,0.8,0.2,1.3,0.6,1.3h0.2c0.2-0.2,1-0.6,2.1,0
		c0.2,0.2,1.5,1.5,1.5,1.5l1.7,1.7c0.2,0.2,0.2,0.6,0,0.8c-0.6,1.3-2.1,1-2.9,1h-0.6h-0.8c-1.3,0.2-3.1,0.6-4.4-1l0.2,0.2l-1.9-0.6
		c-1-0.8-1.9-1.7-3.1-1.7c-1.3,0.4-1.9,0.8-1.9,1.5l0,0l0.2,0.4l0.6,0.6c0.2,0.2,0.2,0.4,0.2,0.4s0,0,0,0.2s-0.2,0.4-0.4,0.6
		c-1,0.6-2.3,1.7-2.3,2.9c0,0.2,0,0.4,0,0.4s0,0,0,0.2c0.2,0,0.4-0.2,0.4-0.2c0.4-0.2,1.3-0.4,2.1,0c0.2,0.2,0.4,0.4,0.4,0.6v1
		c0,1,0.2,1.5,0.4,1.9c0.2,0,0.4-0.2,0.4-0.2c0.6-0.4,1.9-0.8,3.1,0c0.2,0,0.6,0,1.3-0.4l1.3-0.6c0.2,0,0.2,0,0.2,0
		c2.1,0,3.1,1.9,3.5,3.1l0,0l0,0c1,0.8,1.9,1.3,2.5,1v-0.2c0-0.2,0-0.4,0-0.8c0-0.2-0.2-0.6-0.2-1c0-0.8,0.2-1.7,1.5-2.1
		c0.2,0,2.1-0.2,2.1-0.2h1.3h0.2c1.9,0.2,3.3,0.2,4-1c0,0,1.5-2.3,1.7-2.7c0-0.2,0.2-1.5,0.2-1.5c0-0.4,0.2-0.6,0.6-0.6
		c0.6-0.2,1.5,0,1.9,0.2c0,0,0.2,0,0.4,0.2c-0.4-1-0.6-2.1-0.6-3.1c0-0.6,0-1,0.2-1.7c0.4-1.5,1-2.7,1.9-3.8c0.2-0.2,0.6-0.4,1-0.2
		l0.4,0.2c0.2,0.2,0.4,0.4,0.6,0.6l0.4,2.1c0.2,1.3,0.4,2.5,1,3.8c0,0.2,0.2,0.2,0,0.4l-0.8,2.9l-0.6,2.3c-0.6,2.3-2.1,4-4.2,5v0.2
		c0,0,0.4,0,0.8,0c0,0,0.6,0,0.8,0c2.3-0.2,4.4-1.5,6-3.1c0.2-0.2,0.6-0.4,0.8-0.2c0.4,0.2,0.8,0,1.5-0.4s1.9-1,3.1-0.2
		c0.4,0.4,1.3,0.4,2.1,0.2c1.3,0,3.3-0.2,3.8,2.1v0.4v1c0.2,1,0.4,3.1-1.9,3.8c-0.2,0-0.2,0-0.4,0l-2.3-0.8c-1.9-0.8-2.7-1-3.5,0
		c-0.2,0.2-0.4,0.6-0.4,0.8c0.2,0.6,1,1.9,0,2.9l0.2-0.2l-0.2,0.2c-0.6,1-1,1.7-0.6,2.5c0,0,0.2,0.2,0.8,0c0.8-0.4,1.9,0,2.7,0.2
		l1,0.4c0.2,0,0.4,0.2,0.4,0.2l0.4,0.2c0.8,0.6,1.5,1,2.3,1.3v-0.2l0.4-1c0.2-0.2,1.5-0.8,1.5-0.8c0.8-0.4,1-0.4,1-0.8
		c0.2-1.5,1.3-2.9,2.7-3.8c0.2,0,0.4-0.2,0.6-0.2c0.4,0,1.5-0.4,1.9-0.8V368l-0.4-0.4c-0.2-0.2-0.2-0.4-0.4-0.4c0-0.2,0-0.4,0-0.6
		c0-1,0.6-1.9,1-2.7c0.4-0.6,0.6-1.3,0.6-1.7c0-0.2,0-0.4-0.2-0.8c0-0.2-0.2-0.2-0.2-0.2l-0.2-1.5c-0.2-1-0.2-1.7-0.8-2.3l-1.7-0.8
		l-0.6-0.6c-0.4-0.2-0.4-0.4-0.4-0.8c0-0.8,0.4-1.3,1.5-1.5h0.2c1-0.4,2.1,0,2.9,0.4c0.8,0.2,1,0.2,1.3,0.2
		c-0.2-0.6-0.8-1.3-1.3-1.9c-1-0.6-2.3-1-3.5-1.3c-2.1-0.4-4.2-1-5.4-2.9c-0.2-0.2-0.2-0.4-0.2-0.6c0-0.2,0-0.4,0.2-0.6l0.2-0.2
		c0.2-0.2,0.6-0.2,0.8-0.2c2.5,0.6,5,0,6.7-1.5c1-1.3,2.3-2.9,4.2-3.5c1.5-1,1.7-2.9,1.7-5.2c0-1.3,0.6-2.1,1.5-2.9l1.9-0.8
		c0.6-0.2,0.8-0.2,0.8-0.4c-1-0.4-2.3-1-3.3-0.8c-0.2,0-0.4,0-0.6-0.2c-0.6-0.2-0.6-0.6-0.8-1v-0.2c0-0.6,0.4-1,0.8-1.3l0.2-0.2
		l0.2-0.2l1.9-1c2.5-1.5,4.2-2.3,4.2-4.4l0,0v-0.2c-0.2,0.2-0.6,0.2-0.8,0.6l-1.7,0.8c-1.3,0.6-2.7,1-4,1.3
		c-1.5,0.2-2.7,0.6-3.8,1.3c-0.2,0-0.2,0.2-0.4,0.2c-0.4,0-1-0.2-1-0.8c0-0.2,0-0.4,0-0.6c0-0.4,0.2-0.8,0.4-1c0.4-0.6,1-1,1.7-1.3
		c0.8-0.4,1.3-0.6,1.5-1.3l0.2-0.6c0.4-1,0.8-2.5,2.3-3.1c0.2,0,1.3-0.6,1.3-0.6c0.2,0,0.4-0.2,0.4-0.2s0,0-0.2-0.2
		c-2.1-0.6-4.2,1-5.4,2.1l-0.2,0.2l-1,0.2c-1.5,0.6-2.9,1.3-3.8,2.3c0,0.2-0.2,0.2-0.4,0.2c-0.4,0.2-0.8,0-1.3-0.2
		c-0.4-0.2-0.6-0.6-0.6-1c-0.4-3.3,2.3-5.8,4.4-7.7l0.4-0.4l0.4-0.2l1.3-0.6c1-0.6,2.3-1.5,4-0.6c1.3,0.6,2.3,1,3.3,0.8
		c0.6-0.2,1-0.8,1.7-1.7c0.4-0.6,1-1.5,1.9-2.1c0.8-0.4,1.7,0,2.3,0c0.2,0,0.8,0.2,0.8,0.2l0.2-0.2V308c0-0.6-0.4-1.3-1-2.1l-0.8-1
		c-0.2-0.2-0.2-0.2-0.2-0.4c0-0.2,0-0.2,0-0.4c0.2-0.6,0.4-1.3,0.4-2.1c0-1.7-0.6-3.1-1.9-4.2c-0.4-0.2-1.3-0.6-2.1-0.6
		c0,0.2,0.2,0.4,0.2,0.4l0.8,1.7c0,0.2,0,0.4,0,0.6c0,3.8-3.1,5.4-5.8,6.7l-2.3,1.3c-5.2,2.7-12.1,6.9-12.5,13.8
		c0,3.5,1.5,6.9,4.4,9.8c0,0,0,0.2,0.2,0.2l1,1.5c1,1.7,2.3,3.3,2.3,5.6c0,0.4,0,1-0.2,1.7c-0.8,2.1-3.3,2.1-4.2,2.1
		c-5.2-0.4-7.9-5.6-10-9.4l-0.4-0.6l-0.4-0.8c-0.6-1.3-1.3-2.5-1.3-4c0-0.2,0-0.6,0.2-0.6c0.2-0.2,0.8-0.8,1.9-0.2
		c0.2,0,1,1.5,1,1.5c0.2,0.2,0.2,0.4,0.2,0.6c0-0.2,0.2-0.4,0.2-0.8c0-0.8-0.4-1.9-0.8-2.9l-0.2-0.2c-0.2-0.4-0.8-1-1.5-1.5
		c-0.8-0.6-1.7-1.5-2.1-2.5v-0.2c0,0,0,0,0-0.2c0-1.3,1-1.5,1.5-1.7h0.2c-0.4-1.3-0.6-2.7-0.6-4.2c0-0.6,0-1.5,0.2-2.1l0,0l0,0l0,0
		l1.3-1.3c0.4-0.2,0.4-0.2,0.4-0.4c-0.4-1.5-0.4-3.1-0.4-4.6c0-0.6,0-1.3,0-1.9c0-0.2,0.4-1.5,0.4-1.5c0.2-0.6,0.4-1,0.4-1.5
		c0-0.2,0-0.2,0-0.4c-0.8-0.4-1-1.5-1-1.9v-0.4l0,0c0.2,0,0.2,0,0.2,0c-2.1,0-4-0.8-5.6-1.7l-1.7-0.8c-0.4-0.2-0.8,0-1.5,0.4l-1,0.4
		l-1,0.2c-1,0.2-2.1,0.4-2.7,1c-0.4,0.4-0.4,1-0.4,1.9v0.6v0.2c-0.2,0.6-0.6,0.8-0.8,0.8c-0.6,0.2-1,0-1.5-0.2h-0.2
		c-1.7-0.8-2.3-2.5-1.9-4.2c0-0.2-0.2-0.6-0.2-0.6c-0.4-0.2-1.3-0.4-1.9-0.2c-0.4,0.2-0.8,0.6-1,1.7c0,0-0.2,0.2-0.2,0.4v0.2
		c0,0.6,0.2,1.3,0.4,1.5c0.6,0.6,1.7,1.3,2.9,1.9l2.7,1.5c0.2,0.2,0.2,0.2,0.2,0.4c0,0.2,0.2,0.6,0.2,0.8c0,1-0.4,1.7-0.8,2.3l0,0
		c0.2,0.2,0.8,0.6,0.8,1.5c0,0.2,0,0.2,0,0.4c0,0.4-0.4,0.6-0.6,0.6c-1.7,0.4-3.1,0-4.4-0.8l-0.8-1c-0.2-0.4-0.4-0.6-0.6-0.6
		c0,0-0.2,0.4-0.2,0.6l-0.4,0.8c0-0.2,0,0.6,0,0.6c0,0.6-0.2,1.5-0.8,2.1c-0.2,0.2-0.4,0.2-0.6,0.2h-0.8c-3.3-1-6.3-2.7-9.6-5.2
		c-1.5-1-2.5-2.5-3.5-4l-0.8-1l-0.2-0.2l-0.2-1c-0.6-2.1-1-3.3-2.5-3.8C47.3,296.1,47.1,296.1,47.1,296.1L47.1,296.1L47.1,296.1z
		 M49.2,308.2L49.2,308.2L49.2,308.2L49.2,308.2L49.2,308.2z M42.7,306.8c0.2,0,0.2,0,0.4,0C42.9,306.8,42.9,306.8,42.7,306.8
		L42.7,306.8L42.7,306.8z M72.7,308c0.2-0.2,0.2-0.2,0.2-0.4l0,0C72.9,307.6,72.7,307.8,72.7,308L72.7,308L72.7,308z M88.8,319.1
		C88.8,319.1,89,319.1,88.8,319.1C89,319.1,89,319.1,88.8,319.1C89,319.1,88.8,319.1,88.8,319.1L88.8,319.1L88.8,319.1z M69,332.8
		L69,332.8L69,332.8L69,332.8L69,332.8L69,332.8z M69.2,333C69.2,333,69.2,332.8,69.2,333C69.2,332.8,69.2,332.8,69.2,333L69.2,333
		L69.2,333L69.2,333z M51.5,338.2L51.5,338.2L51.5,338.2L51.5,338.2L51.5,338.2z M81.1,356v0.2V356L81.1,356L81.1,356L81.1,356z
		 M82.1,364.7h0.2H82.1L82.1,364.7L82.1,364.7z"/>
	<path class="st2" d="M21.2,296.1c0-14.6,0-30.6,0-49.6h124c0,0,0,7.3,0,49.8c0,62.8-62.5,99.7-62.5,99.7S21.2,357.4,21.2,296.1
		L21.2,296.1L21.2,296.1z"/>
	<path d="M107.8,368.5L107.8,368.5L107.8,368.5L107.8,368.5L107.8,368.5L107.8,368.5L107.8,368.5L107.8,368.5L107.8,368.5
		L107.8,368.5L107.8,368.5L107.8,368.5L107.8,368.5L107.8,368.5c-0.4-0.4-0.8-1-1-1.3c-0.4-2.3,2.9-3.8,1.3-6
		c-0.4-1.5,0-3.1-1.5-4.2c-1-0.8-2.3-1-3.3-1.7c0-0.6,0.8-0.4,1-0.6c1.9-0.4,3.3,1.7,4.8,0c0.2-1.3-1-2.3-1.9-3.1
		c-2.7-1.9-6.7-1-8.8-4l0.2-0.2c2.5,0.6,5.4,0,7.3-1.7c1-1.5,2.3-2.9,4-3.3c1.9-1.5,2.1-3.8,2.1-5.8c0-0.8,0.4-1.7,1-2.3
		c1-0.8,3.5-0.6,2.9-2.5c-1.5-0.8-2.9-1.5-4.4-1.3c-0.8-0.4,0.2-1,0.4-1.3c2.5-1.7,6.7-2.7,6.5-6.7c-0.2-0.4-0.2-1-0.8-1
		c-1,0.2-1.9,1.3-2.9,1.7c-2.5,1.5-5.4,1-7.9,2.5c-0.4,0-0.4-0.6-0.2-0.8c0.8-1.3,2.7-1.3,3.3-2.9c0.4-1.3,0.6-2.9,2.1-3.3
		c0.8-0.6,2.1-0.6,2.5-1.7c0-0.6-0.8-0.8-1.3-1c-2.3-0.6-4.6,0.6-6.3,2.3c-1.7,0.8-3.8,1.5-5,2.7c-0.2,0-0.6,0-0.6-0.4
		c-0.4-3.3,2.5-5.6,4.8-7.5c1.5-0.4,2.9-2.3,4.6-1.5c1.3,0.6,2.5,1.3,4,0.8c1.9-0.6,2.1-2.7,3.8-3.8c1.3-0.4,2.9,1.5,3.8-0.4
		c0.4-1.9-1-2.9-1.9-4.2c1-2.5,0.2-5.4-1.9-7.3c-1-0.6-2.3-1-3.3-0.6c-0.8,1,0.8,1.9,0.8,2.9c0.4,4.6-4.6,5.6-7.7,7.7
		c-5.6,2.9-12.5,7.3-12.9,14.6c0,4,1.9,7.7,4.6,10.4c1.5,2.5,3.8,4.8,2.9,8.1c-0.6,1.3-2.1,1.5-3.3,1.5c-4.8-0.4-7.5-5.8-9.6-9.6
		c-0.6-1.5-1.5-2.9-1.7-4.6c0.2-0.2,0.4-0.2,0.8,0c0.8,0.8,0.8,2.7,2.3,2.5c1.3-1.7,0.4-3.8-0.4-5.4c-0.8-1.5-2.7-2.3-3.5-4
		c0-1.3,1.7-0.4,1.9-1.7c-0.6-2.1-0.8-4.4-0.4-6.3c0.4-0.8,1.7-0.8,1.7-1.9c-0.6-2.1-0.6-4-0.4-6.3c0.2-1.3,1.3-2.7,0.6-4
		c-1.5-0.4-0.2-2.3-1.7-2.5c-2.7,0-4.8-1.5-7.1-2.3c-1.3-0.4-2.1,0.4-3.1,0.6c-1.5,0.4-3.1,0.4-4.2,1.5c-0.8,0.8-0.6,1.9-0.6,3.1
		c-0.2,0.6-0.8,0-1.3,0c-1-0.6-1.5-1.9-1.3-3.1c0.2-0.6,0-1-0.6-1.5c-0.8-0.4-1.9-0.8-2.7-0.4c-1,0.4-1.5,1.7-1.9,2.7
		c0,0.8,0,1.9,0.4,2.5c1.7,1.7,4,2.3,5.6,3.8c0.4,1-0.4,1.9-1,2.7c0,0.8,1.3,0.8,1,1.7c-1.3,0.4-2.5,0-3.5-0.8
		c-0.6-0.6-0.8-1.9-1.9-1.9s-1,1.3-1.5,1.9c-0.4,0.8,0,1.9-0.8,2.5H64c-3.3-1-6.3-2.9-9.2-5.2c-1.7-1.3-2.9-3.3-4.2-5
		c-0.6-2.1-1-4.8-3.5-5.4c-0.6,0-1.3,0.2-1.5,0.8l-0.2,0.8c-1.3,0-2.5-0.8-4-0.4c-0.6,0.4-1.3,0.8-1.7,1.5c0,1.5,1.7,0.8,1.9,2.1
		c0,1,0.8,1.9,1.3,2.7c-0.4,0.6-1,0.8-1.3,1.5l-0.8,2.1c0.4,0.6,0.8,1.5,1.5,1.5c1-0.4,2.1,0.4,3.3,0.2c0.8,0,1.9-0.6,2.1,0.6
		c0.4,1,0,1.9,0,2.7c-1,1.5-2.5,2.7-4,3.3c-0.4,0.4-0.4,1-0.4,1.5c0.6,0.8,1.9,0.4,2.7,0.4c1.7,0,2.9-1,4.6-1.3
		c0.4,0.8,1,1.9,1.9,2.3c1.3,0.4,1.7-1.5,2.9-1c1,0.8,0.8,2.3,1.7,3.3c0,0.6-0.4,0.6-0.8,0.8c-1.5,0.4-3.3,0-4.4,1
		c-0.2,0.6,0.4,1.3,0.8,1.5c1.3,0.6,2.7,0.8,4.2,1c1.3,0.2,2.7-0.4,4,0l-0.4,0.6l-4,2.7c-1.9,0.8-3.8,1-5.4,2.1
		c-2.5,0.6-3.5-2.5-5.8-2.3c-1,0-1.7,0.4-2.3,0.8c-0.6,0.6-0.6,1.5-0.4,2.3c0.4,0.8,1.5,0.4,1.5,1.3c0,2.3-2.1,4-2.3,6.3
		c0,0.6,0,1.3,0.8,1.5c0.4,0.2,1,0,1.5-0.2c0.4-0.4,0.4-1.3,1.3-1.5c1.5,0.2,2.9,0.2,3.8-0.8c0.4,0,1,0.4,1,0.8c0,0.6,0,1.3,0.6,1.5
		c2.1,0,2.9-2.1,4-3.5c0.8-0.2,1.9-0.8,2.7-0.2c0.4,1.5-0.8,2.3-1,3.8c0,0.4,0.4,0.6,0.8,0.6c2.5-0.4,3.8-2.5,5.2-4.4
		c0.2-0.4,0.4-1,1.3-1c1.9,0.6,2.3-1.7,3.5-2.5h0.4c0.2,0.6-0.2,1,0,1.5c0.8,0.8,1.7,0,2.5-0.2l1.7-1c2.1,0.6,4.2,1,6.3,1.7
		c1.7,0.6,0,2.5,1,3.5c-0.2,0.6-1,0.8-1.7,0.8c-3.5,0.4-7.7-0.4-10.6,2.1l-1.7,1.7c-2.7,0-4,2.3-6.5,2.7c-1.7,1-4.2-0.4-5.2,1.5
		c0.8,1.7,2.9,2.3,4.6,2.7c0.8,0.4,1.9,0,2.3,0.8c0,0.8,0.2,1.9,1.3,2.1c0.6,0.2,1-0.8,1.9-0.2c0.8,1.3,2.3,1.9,2.9,2.9
		c-0.6,1-1.9,0.4-2.9,0.4h-0.2c-1.5,0.2-3.3,0.8-4.4-0.4c-1.5-1-2.7-2.9-5-2.9c-1.3,0.4-2.5,0.8-2.7,2.1c-0.2,0.8,0.6,1,1,1.7
		c-1.5,1-2.9,2.5-2.5,4.4c0.2,0.4,0.4,0.8,0.8,0.8c0.8,0,1.3-0.6,2.1-0.2c0.2,1.3-0.2,3.1,1.3,3.8c1-0.2,1.9-1.5,3.1-0.4
		c1.3,0.6,2.1-0.6,3.3-0.8c1.7,0,2.3,1.7,2.9,2.9c1,0.8,2.5,2.1,4,1.3c1-1.5-0.8-3.1,1-4c1-0.4,2.1,0,3.3-0.2c1.9,0.2,4,0.4,5-1.7
		l1.7-2.7l0.4-1.7c1-0.4,2.5,1.5,3.1-0.2c-0.6-1.7-0.8-3.3-0.4-5c0.4-1.3,0.8-2.3,1.7-3.1l0.4,0.2c0.4,2.1,0.6,4,1.5,5.8
		c-0.2,1.9-1,3.5-1.5,5.4c-0.4,1.9-1.9,3.5-3.8,4.4c-0.4,0.4-0.8,0.8-0.4,1.5c0.4,0.8,1.7,0.4,2.5,0.6c2.5-0.4,4.8-1.5,6.7-3.3
		c1.9,0.4,2.7-1.7,4.4-0.8c1.7,1.3,4.8-1,5.4,1.9c-0.2,1.3,1,3.5-1,4.2c-2.1-0.4-4.6-3.1-6.7-0.6c-0.4,0.4-0.8,1-0.4,1.9
		c0.4,0.6,0.8,1.3,0.2,1.9c-0.6,1-1.5,2.3-0.8,3.3c0.4,0.6,1.3,0.6,1.9,0.6c1.3-0.4,2.3,0.6,3.5,0.6c1,0.8,2.1,1.9,3.5,1.7
		c0.6-0.4,0.4-1,0.8-1.5c0.8-0.8,2.7-0.6,2.7-2.3c0.2-1.3,1.3-2.3,2.3-2.9C104.6,370.1,107.1,369.5,107.8,368.5L107.8,368.5
		L107.8,368.5z"/>
	<path class="st3" d="M107.8,368.5L107.8,368.5L107.8,368.5L107.8,368.5L107.8,368.5L107.8,368.5L107.8,368.5L107.8,368.5
		L107.8,368.5L107.8,368.5L107.8,368.5L107.8,368.5L107.8,368.5L107.8,368.5c-0.4-0.4-0.8-1-1-1.3c-0.4-2.3,2.9-3.5,1.3-6
		c-0.4-1.5,0-3.1-1.5-4.2c-1-0.8-2.3-1-3.3-1.7c0-0.6,0.8-0.4,1-0.6c1.9-0.4,3.3,1.7,4.8,0c0.2-1.3-1-2.3-1.9-3.1
		c-2.7-1.9-6.7-1-8.8-4l0.2-0.2c2.5,0.6,5.4,0,7.3-1.7c1-1.5,2.3-2.9,4-3.3c1.9-1.5,2.1-3.8,2.1-5.8c0-0.8,0.4-1.7,1-2.3
		c1-0.8,3.5-0.6,2.9-2.5c-1.5-0.8-2.9-1.5-4.4-1.3c-0.6-0.4,0.2-1,0.4-1.3c2.5-1.7,6.7-2.7,6.5-6.7c-0.2-0.4-0.2-1-0.8-1
		c-1,0.2-1.9,1.3-2.9,1.7c-2.5,1.5-5.4,1-7.9,2.5c-0.4,0-0.4-0.6-0.2-0.8c0.8-1.3,2.7-1.3,3.3-2.9c0.4-1.3,0.6-2.9,2.1-3.3
		c0.8-0.6,2.1-0.6,2.5-1.7c0-0.6-0.8-0.8-1.3-1c-2.3-0.6-4.6,0.6-6.3,2.3c-1.7,0.8-3.8,1.5-5,2.7c-0.2,0-0.6,0-0.6-0.4
		c-0.4-3.3,2.5-5.6,4.8-7.5c1.5-0.4,2.9-2.3,4.6-1.5c1.3,0.6,2.5,1.3,4,0.8c1.9-0.6,2.3-2.7,3.8-3.8c1.3-0.4,2.9,1.5,3.8-0.4
		c0.4-1.9-1-2.9-1.9-4.2c1-2.5,0.2-5.4-1.9-7.3c-1-0.6-2.3-1-3.3-0.6c-0.8,1,0.8,1.9,0.8,2.9c0.4,4.6-4.6,5.6-7.7,7.7
		c-5.6,2.9-12.5,7.3-12.9,14.6c0,4,1.9,7.7,4.6,10.4c1.5,2.5,3.8,4.8,2.9,8.1c-0.6,1.3-2.1,1.5-3.3,1.5c-4.8-0.4-7.5-5.8-9.6-9.6
		c-0.6-1.5-1.5-2.9-1.7-4.6c0.2-0.2,0.4-0.2,0.8,0c0.8,0.8,0.8,2.7,2.3,2.5c1.3-1.7,0.4-3.8-0.4-5.4c-0.8-1.5-2.7-2.3-3.5-4
		c0-1.3,1.7-0.4,1.9-1.7c-0.6-2.1-0.8-4.4-0.4-6.3c0.4-0.8,1.7-0.8,1.7-1.9c-0.6-2.1-0.6-4-0.4-6.3c0.2-1.3,1.3-2.7,0.6-4
		c-1.5-0.4-0.2-2.3-1.7-2.5c-2.7,0-4.8-1.5-7.1-2.3c-1.3-0.4-2.1,0.4-3.1,0.6c-1.5,0.4-3.1,0.4-4.2,1.5c-0.8,0.8-0.6,1.9-0.6,3.1
		c-0.2,0.6-0.8,0-1.3,0c-1-0.6-1.5-1.9-1.3-3.1c0.2-0.6,0-1-0.6-1.5c-0.8-0.4-1.9-0.6-2.7-0.4c-1,0.4-1.5,1.7-1.9,2.7
		c0,0.8,0,1.9,0.4,2.5c1.7,1.7,4,2.3,5.6,3.8c0.4,1-0.4,1.9-1,2.7c0,0.8,1.3,0.8,1,1.7c-1.3,0.4-2.5,0-3.5-0.8
		c-0.6-0.6-0.8-1.9-1.9-1.9s-1,1.3-1.5,1.9c-0.4,0.8,0,1.9-0.8,2.5H64c-3.3-1-6.3-2.9-9.2-5.2c-1.7-1.3-2.9-3.3-4.2-5
		c-0.6-2.1-1-4.8-3.5-5.4c-0.6,0-1.3,0.2-1.5,0.8l-0.2,0.8c-1.3,0-2.5-0.8-4-0.4c-0.6,0.4-1.3,0.8-1.7,1.5c0,1.5,1.7,0.8,1.9,2.1
		c0,1,0.8,1.9,1.3,2.7c-0.4,0.6-1,0.8-1.3,1.5l-0.8,2.1c0.4,0.6,0.8,1.5,1.5,1.5c1-0.4,2.1,0.4,3.3,0.2c0.8,0,1.9-0.6,2.1,0.6
		c0.4,1,0,1.9,0,2.7c-1,1.5-2.5,2.7-4,3.3c-0.4,0.4-0.4,1-0.4,1.5c0.6,0.8,1.9,0.4,2.7,0.4c1.7,0,2.9-1,4.6-1.3
		c0.4,0.8,1,1.9,1.9,2.3c1.3,0.4,1.7-1.5,2.9-1c1,0.8,0.6,2.3,1.7,3.3c0,0.6-0.4,0.6-0.8,0.8c-1.5,0.4-3.3,0-4.4,1
		c-0.2,0.6,0.4,1.3,0.8,1.5c1.3,0.6,2.7,0.8,4.2,1c1.3,0.2,2.7-0.4,4,0l-0.4,0.6l-4,2.7c-1.9,0.8-3.8,1-5.4,2.1
		c-2.5,0.6-3.5-2.5-5.8-2.3c-1,0-1.7,0.4-2.3,0.8c-0.6,0.6-0.6,1.5-0.4,2.3c0.4,0.8,1.5,0.4,1.5,1.3c0,2.3-2.1,4-2.3,6.3
		c0,0.6,0,1.3,0.6,1.5c0.4,0.2,1,0,1.5-0.2c0.4-0.4,0.4-1.3,1.3-1.5c1.5,0.2,2.9,0.2,3.8-0.8c0.4,0,1,0.4,1,0.8c0,0.6,0,1.3,0.6,1.5
		c2.1,0,2.9-2.1,4-3.5c0.8-0.2,1.9-0.8,2.7-0.2c0.4,1.5-0.8,2.3-1,3.8c0,0.4,0.4,0.6,0.8,0.6c2.5-0.4,3.8-2.5,5.2-4.4
		c0.2-0.4,0.4-1,1.3-1c1.9,0.6,2.3-1.7,3.5-2.5h0.4c0.2,0.6-0.2,1,0,1.5c0.8,0.8,1.7,0,2.5-0.2l1.7-1c2.1,0.6,4.2,1,6.3,1.7
		c1.7,0.6,0,2.5,1,3.5c-0.2,0.6-1,0.8-1.7,0.8c-3.5,0.4-7.7-0.4-10.6,2.1l-1.7,1.7c-2.7,0-4,2.3-6.5,2.7c-1.7,1-4.2-0.4-5.2,1.5
		c0.8,1.7,2.9,2.3,4.6,2.7c0.8,0.4,1.9,0,2.3,0.8c0,0.8,0.2,1.9,1.3,2.1c0.6,0.2,1-0.8,1.9-0.2c0.8,1.3,2.3,1.9,2.9,2.9
		c-0.6,1-1.9,0.4-2.9,0.4h-0.2c-1.5,0.2-3.3,0.8-4.4-0.4c-1.5-1-2.7-2.9-5-2.9c-1.3,0.4-2.5,0.8-2.7,2.3c-0.2,0.8,0.6,1,1,1.7
		c-1.5,1-2.9,2.5-2.5,4.4c0.2,0.4,0.4,0.8,0.8,0.8c0.8,0,1.3-0.6,2.1-0.2c0.2,1.3-0.2,3.1,1.3,3.8c1-0.2,1.9-1.5,3.1-0.4
		c1.3,0.6,2.3-0.6,3.3-0.8c1.7,0,2.3,1.7,2.9,2.9c1,0.8,2.5,2.1,4,1.3c1-1.5-0.8-3.1,1-4c1-0.4,2.1,0,3.3-0.2c1.9,0.2,4,0.4,5-1.7
		l1.7-2.7l0.4-1.7c1-0.4,2.5,1.5,3.1-0.2c-0.6-1.7-0.8-3.3-0.4-5c0.4-1.3,0.8-2.3,1.7-3.1l0.4,0.2c0.4,2.1,0.6,4,1.5,5.8
		c-0.2,1.9-1,3.5-1.5,5.4c-0.4,1.9-1.9,3.5-3.8,4.4c-0.4,0.4-0.8,0.8-0.4,1.5c0.4,0.8,1.7,0.4,2.5,0.6c2.5-0.4,4.8-1.5,6.7-3.3
		c1.9,0.4,2.7-1.7,4.4-0.8c1.7,1.3,4.8-1,5.4,1.9c-0.2,1.3,1,3.5-1,4.2c-2.1-0.4-4.6-3.1-6.7-0.6c-0.4,0.4-0.8,1-0.4,1.9
		c0.4,0.6,0.8,1.3,0.2,1.9c-0.6,1-1.5,2.3-0.8,3.3c0.4,0.6,1.3,0.6,1.9,0.6c1.3-0.4,2.3,0.6,3.5,0.6c1,0.8,2.1,1.9,3.5,1.7
		c0.6-0.4,0.4-1,0.8-1.5c0.8-0.8,2.7-0.6,2.7-2.3c0.2-1.3,1.3-2.3,2.3-2.9C104.6,370.1,107.1,369.5,107.8,368.5L107.8,368.5
		L107.8,368.5z"/>
	<path class="st1" d="M70.6,297.4c-0.2,1-0.2,2.1,0.4,2.9c1.7,1.9,4.4,2.5,5.4,4.6h-0.6c-2.1-1.3-4-2.9-6-3.8
		c-0.8-0.6-1.5-1.5-1.3-2.5c0.2-0.6,0.4-1.5,1.3-1.7C70.2,296.7,70.6,297,70.6,297.4L70.6,297.4L70.6,297.4L70.6,297.4z"/>
	<path class="st1" d="M87.9,299.2c0.4,0.4,0,1.5,1,1.7c0.2,0,0.4,0.2,0.4,0.4c0,0.8-0.2,1.7-0.4,2.5c-0.2,0.6-1,0.8-1,1.9
		c0,0.4,0.6,0.6,0.8,1.3v3.3c-2.1,0.6-1,3.1-1.3,4.4c-0.2,1,0,2.1,0,3.1c-0.4,0.2-1.5,0.2-1.7,0.8c0,1.3,0.6,2.3,1,3.1
		c0.8,1,2.3,1.3,2.3,2.7c-1,0-2.1-0.6-2.9-1c-1.5-0.8-2.5-2.5-3.5-4c-0.2-0.2-0.6-0.2-0.8,0c-0.2,1-0.2,2.3-1,2.9
		c-1-0.6-1-3.3-2.7-2.5c-0.6,3.5-2.9,6.3-5,9.2c-0.4,0.2-0.6,0.8-1.3,0.8c1-2.7,1.9-5.8,0.8-9c-0.2-0.6-0.8-0.4-1.3-0.2
		c-0.4,0.4-0.8,1-1.5,0.8c-0.6-0.8,0.6-2.3-0.8-2.9c-1,0.2-1.9,1.3-2.7,1.7c-2.5,1.5-5.4,2.1-8.3,2.1c-0.6,0-1-0.2-1.5-0.4
		c0.6-0.8,1.9-0.8,2.7-1.5c3.3-2.1,5.6-5.8,8.3-8.5c-0.2-1.3-1.3-2.7-0.2-3.8c0.8,0,1.3,1,1.9,1.3c1.3,0.6,2.7,1,4,0.4
		c1-0.2,1.9-1.3,2.1-2.3c0-0.4-0.2-0.8-0.6-0.8s-0.6,0-0.8-0.4c0-0.6,0.4-1,0.8-1c1.5,0,2.7,2.9,3.8,0.6c0.6-1.9-1.3-3.3-2.5-4.6
		c-0.4-0.4-0.6-0.8-0.4-1.5c1-0.6-0.2-1.5,0.6-2.3c1.5-1,3.5-0.4,5-1.5C83.8,297,85.7,298.8,87.9,299.2L87.9,299.2L87.9,299.2
		L87.9,299.2z"/>
	<path class="st1" d="M49.4,298.6c0,0.4,0.2,0.8,0,1c-0.4,0.4-0.8,0-1-0.2c-0.4-0.4-0.6-1-0.6-1.5C47.9,296.3,49.4,298,49.4,298.6
		L49.4,298.6L49.4,298.6L49.4,298.6z"/>
	<path class="st1" d="M48.1,300.9c2.3,1,3.8,3.3,5.4,5.2c3.5,2.9,7.3,5.4,11.5,6.7c0.2,0.6-0.4,1.3-0.8,1.7c-1.5,1.5-2.5,3.1-4,4.4
		c-0.4,0-0.6,0-0.8,0c-1.5-1.5-1.3-4.2-3.8-4.4c-0.8,0-1.5,1-2.3,0.4s0.2-2.1-1-2.5c-1.5,0.6-2.5,2.1-4.2,1.9c1-1.9,2.9-3.8,1.9-6
		c-0.2-1-0.8-2.3-1.9-2.5c-1,0-1.5,1-2.5,0.6c-0.4-0.8-2.3-0.4-1.5-1.7c0.6-1,2.9-1,2.1-2.7c-0.6-0.8-2.3-0.4-2.3-1.7
		c0.2-0.6-0.4-1.7,0-2.1C45.8,297.8,47.1,299.9,48.1,300.9L48.1,300.9L48.1,300.9L48.1,300.9z"/>
	<path class="st1" d="M119.4,302c0.2,1.3-1,2.1-0.6,3.3c0.4,0.6,1.5,0.8,1.3,1.5c-3.1,0-3.8,4.2-6.7,4c-1.3-0.2-2.3-1.7-3.8-1
		c-4,1.9-8.3,4.6-9.4,9.4c-0.4,1.9-0.4,3.8,1,5.2c0.4,0.2,0.8,0.2,1,0c0.8-1.5,1.5-3.3,3.3-3.8c1-0.4,2.3-0.8,3.3-1.5
		c0.2,0,0.4-0.2,0.4,0.2c-0.4,1.5-1,3.1-2.7,3.5c-1,1-2.3,2.1-2.3,3.5c0,0.6-0.2,1.7,0.4,2.3c0.6,0.4,1.3-0.2,1.7-0.4
		c2.1-2.5,5.2-2.9,8.3-3.1c0.2,0.2-0.2,0.8-0.6,0.8c-2.7,0.8-5.2,3.1-6,5.8c0,0.4,0.4,0.8,0.6,0.8c1.3-0.2,2.3-1,3.8-0.8
		c0.4,0.8-1,0.8-1.5,1.7c-2.5,2.3,0,7.1-4.2,7.9c-1.3,0.4-1,1.9-1.9,2.5c-1.5,1.9-3.8,2.3-5.8,2.1c-1.7,0.2-2.9-2.1-4.4-0.6
		c0.2,1.7,1.5,2.5,2.3,4c2.1,1.9,4.8,2.1,7.5,2.9c0.4,0,0.6,0.4,0.8,0.6c0,0.6-0.8,0.4-1.3,0.4c-1.7,0.2-3.5,0.4-5.2-0.2
		c-0.2,0-0.4,0.2-0.6,0.4c0.2,1.9,2.3,2.5,3.5,3.3c1.3,0.6,2.9,0.4,3.3,1.9v1.9c0.6,0.8,0.8,2.1,0.6,3.1c-1,1.3-1.9,2.9-1,4.8
		c-0.4,0.4-1.3,0-1.7,0.4c-0.6,1.3-2.1,1.5-2.5,2.5c0,1-0.6,1.9-1.7,2.1c-0.8,0-1.5,0.4-2.1,0.2c-0.4-0.6,0.2-1.5-0.6-1.9
		c-1-0.2-1.5,1.5-2.7,0.8c-0.6-0.4-1-0.6-1.5-1c0-0.8,0.6-1,1-1.3c2.7-0.4,6.3-0.8,7.1-3.8c0.2-1.5-0.4-2.5-0.2-3.8
		c-0.4-1.5-1.9-2.5-3.5-2.7c-1.5-0.4-3.1,0.2-4.2-0.8c-0.4-0.4-0.8-0.6-1.5-0.4c-0.4,0-0.6,0.6-1,0.4c-0.4-0.4-1-1-1.5-0.4
		c-1,1.9-2.5,4-4.8,4.4c-0.4-0.6,0.4-1.3,0.6-1.9c0.6-1.5,1.3-3.3,1.7-5c0.6-0.8,1.5-2.1,0.8-3.3c-1-2.7-2.1-5.8-1.3-9
		c0.6-3.8-0.4-7.3-3.1-9.8c-1.5-0.8-2.9-2.5-4.8-2.7c-1.3-0.4-2.9,0-3.8-1c0.2-1.3,1.5-2.1,2.1-3.1l2.1-3.3c0.8-0.2,0.6,1,1.5,1
		c1.7,0,1.7-2.9,3.3-1.9c0.8,1,2.1,1.5,2.9,2.5c1,4.6,2.9,9.2,6,12.7c2.5,3.1,6.3,5.4,10,4.4c1-0.8,2.5-1.9,2.7-3.3
		c1-7.3-8.3-11-7.7-18.3c0.6-6.9,7.7-10.6,13.3-13.3c3.1-1.7,6.9-3.8,7.3-7.7c0-0.4,0-0.6,0.2-1C119.4,299.5,119.2,300.9,119.4,302
		L119.4,302L119.4,302L119.4,302z"/>
	<path class="st1" d="M69,323.8c0.8,0.2,1.9-1,2.3,0.2c-0.2,1.7-0.2,3.8-1,5.2c-0.8,0.8-2.1,0.2-2.9,0.6c-1.3,0.4-1.5,3.3-2.9,1.5
		c-0.6-0.2-1,0.4-1.5,0.8c-0.6,1.5-1.3,3.1-2.5,4.4c-0.2,0.2-0.6,0.4-0.8,0c-0.2-1,0.6-2.9-0.8-3.3c-0.6,0-1.3,0.4-1.9,0.6
		c-1.3,0-2.9,0-3.5,1c-0.2,0.6-0.2,1.5-1,1.5c-0.8-0.4-1.7-0.6-2.1-1.5c-0.4-0.2-0.8-0.6-1.3-0.2c-0.6,0.6-0.8,1.9-1.9,1.9
		c-0.8,0-1.5-0.2-2.3-0.6c0.2-1.9,2.3-2.1,3.5-2.9c2.5-0.6,4.6-2.3,7.1-2.7c4-1.5,7.3-4.6,10.4-7.7c0.4-0.2,1-0.4,1.5-0.4
		C68.1,322.8,68.1,323.6,69,323.8L69,323.8L69,323.8L69,323.8z"/>
	<path class="st1" d="M49.2,331.4c-0.8,0.4-1.9,0.8-2.7,0.4c-0.4-0.4-0.2-1.5-0.4-2.1c0.2-0.6,1-0.4,1.5-0.2
		C48.1,330.1,49.2,330.3,49.2,331.4L49.2,331.4L49.2,331.4L49.2,331.4z"/>
	<path class="st1" d="M84,341.8c0,1.3-0.2,2.1-0.8,3.1c-1.5,1.3-2.7,2.9-3.1,5c0,1.5-0.2,2.7-0.2,4c-0.4,0.4-0.8-0.2-1-0.4
		c-0.6-1-0.4-3.1-2.1-2.9c-0.8,1-1.9,2.5-1.3,3.8c0.8,1,2.3,1.9,1.5,3.3c-1.3,0.6-0.8,2.5-2.5,2.7c-2.5,0.4-5-0.8-6.9,1
		c-0.6,0.6-1,1.5-1.5,2.3c-1,0.2-0.8-1.5-1.5-2.1c-0.4-0.6-1.3-0.2-1.9-0.6c-0.8-0.4-1.9-1.3-2.9-0.6c-0.8,0.4-1.9,1.7-2.9,0.8
		l-1.5-0.4c0-0.4,0.4-1,0-1.7l-2.7-1.5c-0.2-0.2,0-0.6,0.2-0.8c2.3-1.5,5,0.2,7.7-0.2c1.9-0.6,3.5-0.4,5.4-0.2c1,0,2.3,0.4,2.9-0.6
		c0.4-0.6,0.6-1.5,0.2-2.1c-0.8-1.9-3.3-2.1-3.8-4.4c-0.2-0.4-0.4-0.8-0.8-1c-0.6-0.2-1,0.4-1.7,0.2c-0.2-0.6-0.4-1.3-1-1.5
		c-1.3,0-2.7,0.6-3.8-0.2c0.2-0.6,1-0.4,1.5-0.8c1.7-0.4,3.1-1.5,4.8-2.3l2.3-0.4c2.3-3.8,7.1-3.5,11.3-3.8l4-1.3
		C83.4,339.1,83.8,340.7,84,341.8L84,341.8L84,341.8L84,341.8z"/>
	<path class="st1" d="M58.1,354.9c-0.8,0.4-1.7,0.2-2.5,0c-0.4-0.4-0.6-1.3-0.6-1.9C56.3,352.6,57.5,353.9,58.1,354.9L58.1,354.9
		L58.1,354.9L58.1,354.9z"/>
	<path class="st1" d="M94.4,368c0,0.4-0.4,0.4-0.6,0.4c-0.4,0-0.4-0.2-0.4-0.4C93.4,367.4,94.2,367.8,94.4,368L94.4,368L94.4,368
		L94.4,368z"/>
	<path d="M83.8,300.7c0.2,0.6-0.2,1-0.8,1c-1,0-1.9,0-2.5-0.8c-0.8-0.6-0.4-1.5-0.2-2.3c0.4-0.4,0.8-0.4,1.3-0.2
		C82.3,299,83.2,299.9,83.8,300.7L83.8,300.7L83.8,300.7L83.8,300.7z"/>
	<path d="M88.4,302c0,0.6-0.4,1.3-0.8,1.9c-0.4,0.2-0.8,0-0.8-0.4c-0.2-0.6,0.2-1.5,0.6-1.9C87.7,301.3,88.4,301.5,88.4,302
		L88.4,302L88.4,302L88.4,302z"/>
	<path d="M83.2,307.8v1.5c-1.5,1.5-1.5,4-3.5,4.8c-0.6,0-1-0.2-1-0.8c0-0.8-0.2-2.1,0-2.9c0.8-0.4,1,1.3,1.9,0.4
		c0.4-1.3,1.5-2.3,2.1-3.3C82.7,307.4,83.2,307.6,83.2,307.8L83.2,307.8L83.2,307.8z"/>
	<polygon points="21.2,282.6 145.1,282.6 145.1,291.1 21.2,291.1 	"/>
	<polygon class="st3" points="21.2,282.6 145.1,282.6 145.1,291.1 21.2,291.1 	"/>
	<polygon class="st1" points="113.4,284 127.3,284 127.3,289.7 113.4,289.7 	"/>
	<polygon class="st1" points="82.7,284 96.7,284 96.7,289.7 82.7,289.7 	"/>
	<polygon class="st1" points="51.9,284 66.1,284 66.1,289.7 51.9,289.7 	"/>
	<polygon class="st1" points="22.7,284 35.4,284 35.4,289.7 22.7,289.7 	"/>
	<path d="M139.4,251.9c1,1.3,0.4,3.1,0.6,4.6c1,0.8,3.5,0,3.8,2.1c0.2,0.8-0.4,1.5-0.8,1.9c-0.8,0.8-2.1,0-2.7,0.8
		c-0.2,2.5,0,5.2,0,8.1c0.8,0.4,1.7,0.4,2.5,0.8c0.4,0.4,0.8,1,0.8,1.7c0,0.6-0.4,1.3-1.3,1.5c-0.6,0.4-1.9,0-2.1,0.8
		c-0.4,1.3,0,2.9-0.2,4.4c-0.8,0.4-2.1,0.4-3.1,0.4h-10c-0.8,0.4-1.9,1.5-3.1,0.8c-2.1-1.3-5-0.8-7.3-1h-7.3
		c-1.3-1.3-0.4-3.1-0.8-4.6c-0.4-0.8-1.9-0.4-2.7-0.8c-0.8-0.4-0.8-1.3-0.8-1.9c0-0.8,0.8-1.3,1.7-1.5c0.6-0.4,1.7,0.2,1.9-0.6
		c0-2.5-0.2-5.2,0-7.5c-0.2-1.5-2.1-0.6-2.9-1.3c-0.8-0.4-0.8-1.5-0.6-2.3c0.6-1.5,2.3-1,3.5-1.5l0.2-0.4l0.2-4.4l0.2-0.4l11.5,0.2
		c1.3,0,2.5,0.6,3.8,1c2.5-1.9,6-0.8,9-1.5C135.3,251.9,137.4,251.5,139.4,251.9L139.4,251.9L139.4,251.9L139.4,251.9z"/>
	<path class="st4" d="M139.4,251.9c1,1.3,0.4,3.1,0.6,4.6c1,0.8,3.5,0,3.8,2.1c0.2,0.8-0.4,1.5-0.8,1.9c-0.8,0.8-2.1,0-2.7,0.8
		c-0.2,2.5,0,5.2,0,8.1c0.8,0.4,1.7,0.4,2.5,0.8c0.4,0.4,0.8,1,0.8,1.7c0,0.6-0.4,1.3-1.3,1.5c-0.6,0.4-1.9,0-2.1,0.8
		c-0.4,1.3,0,2.9-0.2,4.4c-0.8,0.4-2.1,0.4-3.1,0.4h-10c-0.8,0.4-1.9,1.5-3.1,0.8c-2.1-1.3-5-0.8-7.3-1h-7.3
		c-1.3-1.3-0.4-3.1-0.8-4.6c-0.4-0.8-1.9-0.4-2.7-0.8c-0.8-0.4-0.8-1.3-0.8-1.9c0-0.8,0.8-1.3,1.7-1.5c0.6-0.4,1.7,0.2,1.9-0.6
		c0-2.5-0.2-5.2,0-7.5c-0.2-1.5-2.1-0.6-2.9-1.3c-0.8-0.4-0.8-1.5-0.6-2.3c0.6-1.5,2.3-1,3.5-1.5l0.2-0.4l0.2-4.4l0.2-0.4l11.5,0.2
		c1.3,0,2.5,0.6,3.8,1c2.5-1.9,6-0.8,9-1.5C135.3,251.9,137.4,251.5,139.4,251.9L139.4,251.9L139.4,251.9L139.4,251.9z"/>
	<path d="M98.2,251.7c0.4,0,1,0.4,1.5,0.6c0.4,1.7,0,2.9,0.4,4.4c1,0.4,2.7,0,3.3,1.5c0.2,0.6,0.2,1.7-0.2,2.1c-0.8,1-2.7,0-3.3,1.3
		c-0.2,2.9-0.2,5.2,0,7.9c0.8,0.8,2.3,0.2,3.1,1.3c0.4,0.4,0.6,1,0.4,1.7c-0.6,1-2.1,1-3.3,1.3c-0.4,0.4,0,1.3-0.2,1.7
		c-0.4,1,0.6,2.5-0.6,3.1c-3.5,0.4-6.7-0.2-10.2,0h-3.3c-0.8,0.6-2.1,1.5-3.1,0.8l-2.1-0.8c-2.5,0-4.8,0-7.3,0c-1.7,0-4,0.6-5.2-0.8
		c0-1.3,0.2-2.7,0-4c-1.3-0.4-3.3,0.2-4-1.5c-0.2-0.4,0-1.3,0.2-1.7c0.8-1.3,3.1-0.2,4-1.3v-3.8c0.2-1.7,0-3.1,0-4.8
		c-1.3-0.4-3.5,0.2-3.8-1.7c-0.2-1,0.4-1.9,1.3-2.1c0.8-0.2,2.1,0.2,2.5-0.6l0.2-4c1-1.7,3.5-0.6,5-0.8h7.7c1.3,0.2,2.3,1.3,3.5,0.6
		C88.4,250.7,93.6,252.1,98.2,251.7L98.2,251.7L98.2,251.7L98.2,251.7z"/>
	<path class="st4" d="M98.2,251.7c0.4,0,1,0.4,1.5,0.6c0.4,1.7,0,2.9,0.4,4.4c1,0.4,2.7,0,3.3,1.5c0.2,0.6,0.2,1.7-0.2,2.1
		c-0.8,1-2.7,0-3.3,1.3c-0.2,2.9-0.2,5.2,0,7.9c0.8,0.8,2.3,0.2,3.1,1.3c0.4,0.4,0.6,1,0.4,1.7c-0.6,1-2.1,1-3.3,1.3
		c-0.4,0.4,0,1.3-0.2,1.7c-0.4,1,0.6,2.5-0.6,3.1c-3.5,0.4-6.7-0.2-10.2,0h-3.3c-0.8,0.6-2.1,1.5-3.1,0.8l-2.1-0.8
		c-2.5,0-4.8,0-7.3,0c-1.7,0-4,0.6-5.2-0.8c0-1.3,0.2-2.7,0-4c-1.3-0.4-3.3,0.2-4-1.5c-0.2-0.4,0-1.3,0.2-1.7c0.8-1.3,3.1-0.2,4-1.3
		v-3.8c0.2-1.7,0-3.1,0-4.8c-1.3-0.4-3.5,0.2-3.8-1.7c-0.2-1,0.4-1.9,1.3-2.1c0.8-0.2,2.1,0.2,2.5-0.6l0.2-4c1-1.7,3.5-0.6,5-0.8
		h7.7c1.3,0.2,2.3,1.3,3.5,0.6C88.4,250.7,93.6,252.1,98.2,251.7L98.2,251.7L98.2,251.7L98.2,251.7z M41.5,252.5
		c4.2-1.7,8.8-0.4,13.3-0.8c1.3,0.2,2.9-0.6,3.8,0.6c0,1.3,0,2.5,0,4c0.4,1,1.9,0.4,2.5,0.8c0.4,0.2,0.8,0.4,1,1
		c0.2,0.6,0,1.3-0.2,1.9c-0.8,0.8-1.9,0.6-2.9,0.8l-0.4,0.4c0.2,2.5-0.4,4.6,0,6.9c0,0.4-0.2,1.3,0.4,1.5c1.3,0,2.3,0,3.1,0.8
		c0.4,0.6,0.4,1.3,0.2,2.1c-0.4,2.5-4.4-0.4-4,2.5c0,1,0.2,2.5-0.2,3.5c-4.6,0-9.2-0.4-13.3,0c-0.8,0.6-1.7,1-2.9,1.3
		c-0.8-0.2-1.7-0.6-2.3-1.3c-4.2-0.2-8.1-0.2-12.1-0.2c-1.3-1-0.4-2.9-0.8-4.4c-0.6-0.8-1.7-0.2-2.5-0.6c-0.6,0-0.8-0.6-1-1
		c0-0.8,0-1.7,0.6-2.3c0.6-0.4,1.7-0.4,2.5-0.4l0.4-0.4c-0.2-2.7,0.4-5.4-0.2-8.3c-0.4-0.6-1.3,0-1.7-0.4c-0.8-0.2-1.7-0.6-1.9-1.5
		c-0.2-0.6-0.2-1.3,0.4-1.9c0.8-1,2.5,0.2,3.3-0.8l0.4-4c0.6-1.3,2.1-0.6,3.3-0.6c2.1-0.4,4.6,0,6.7,0
		C38.7,251.7,40.2,252.1,41.5,252.5L41.5,252.5L41.5,252.5L41.5,252.5z"/>
	<path class="st1" d="M40.8,253.6l0.4,0.8c0.2,5.6,0.2,11.3,0.2,17.3l-0.2,2.1c-1.5,0-2.9-0.6-4.4-0.4c-1.7-0.2-3.3,0.2-4.8-0.2
		c-0.8-1.9-0.2-4-0.4-6c0-4.2,0.2-9.4,0.2-13.8c0-0.4,0.4-0.4,0.6-0.6C35.4,253,38.5,252.1,40.8,253.6L40.8,253.6L40.8,253.6z"/>
	<path class="st1" d="M29.8,253.2c-0.8,0.6-1.9,1.7-1.5,2.7c0.4,7.1,0,13.3,0.4,20l0.6,0.6c3.3,0,6.9-0.4,10,0.2
		c0.2,0,0.2,0.4,0,0.4c-0.8,0.4-1.9,0.2-2.7,0.2l-8.5-0.2c-0.6-0.4-0.4-1.5-0.4-2.3c0-0.8,0.2-1.9-0.6-2.3c-1.3-0.2-2.3,0-3.1-0.8
		c0.6-1.7,3.3-0.4,3.8-2.1c0.2-3.1-0.2-6.3,0-9.2c-0.4-1.7-2.1-1.3-3.3-1.5c-0.2-0.2-0.4-0.4-0.4-0.8c1-1,3.1,0.2,3.8-1.3
		c0.4-1.3,0-2.5,0.2-4c0.4-0.2,1.3-0.2,1.9-0.2V253.2L29.8,253.2L29.8,253.2z"/>
	<path class="st1" d="M53.3,253.2c0,6.9,0,13.3,0,19.8c-3.3,0.4-7.1-0.2-10.4,0.6c-0.8-0.6-0.2-1.7-0.4-2.7c-0.2-2.1,0-4.6,0-6.9
		c0-3.3-0.2-6.9,0-10.2c0.4-1,1.7-1.3,2.7-1.3h7.9L53.3,253.2L53.3,253.2L53.3,253.2z"/>
	<path class="st1" d="M57.3,253.2c0.2,1.3-0.4,3.1,0.4,4.4c0.8,0.4,2.1,0.2,2.9,0.4c0.4,0.4,0.2,0.8,0,1.3c-0.8,0.8-2.9-0.2-3.3,1.3
		c0,3.3-0.2,6.5,0,9.8l0.4,0.4c1,0.2,2.5-0.2,3.1,0.6c0,0.4,0,1-0.4,1.3c-1,0.2-2.7-0.4-3.3,0.8c-0.2,1.3,0.2,2.7-0.2,4l-0.6,0.2
		l-11.9-0.2c-0.2-0.2,0-0.4,0-0.4l1.3-0.4h9.6c1-0.2,1-1.5,1-2.3c0-4.8,0-8.8,0-13.3c0-2.3,0.4-4.4-0.2-6.7c0-0.4-0.8-0.8-0.8-1.5
		C56,252.8,56.9,252.8,57.3,253.2L57.3,253.2L57.3,253.2L57.3,253.2z"/>
	<path class="st1" d="M111.3,253.2c-0.2,0.6-1,1.3-1.3,1.9c0,6.9,0,14.4,0.2,21.5l0.6,0.4c3.8,0,7.7-0.8,10.8,0.8c0.2,0,0,0,0,0.2
		c-4,0-8.1,0.2-12.1,0l-0.4-0.4c-0.2-1.5,0.2-2.9-0.4-4.4c-0.8-0.8-3.5,0.2-2.9-1.7c1-0.8,2.5,0.2,3.1-1c0-3.5,0.2-6.7,0-10
		c-0.8-1-2.1-0.4-3.1-0.6c-0.4-0.4-0.6-0.8-0.2-1.3c1-0.8,4.4,0.2,3.8-2.3c0.4-1-0.4-3.1,1-3.3C110.7,252.8,111.1,252.8,111.3,253.2
		L111.3,253.2L111.3,253.2L111.3,253.2z"/>
	<path class="st1" d="M138.8,253.2c0.4,1.7-0.4,3.1,0.6,4.6c0.8,0.4,2.5-0.2,2.9,0.8c0,2.1-2.9,0.4-3.5,2.1c0.2,3.1-0.2,5.8,0,9.2
		c-0.4,0.2-0.4,0.6-0.2,0.8c0.8,0.8,2.1-0.4,3.1,0.4c0.6,0.2,0.2,0.6,0.2,1c-0.8,1-2.5-0.2-3.1,1.3l-0.2,4.2l-0.6,0.2h-11.3
		c-0.2-0.2,0-0.2,0-0.4l1.3-0.4h8.5c0.4,0,1-0.4,1-1c0-6.7-0.2-13.6-0.2-20.6l-1-2.1C137.4,252.8,138.6,252.5,138.8,253.2
		L138.8,253.2L138.8,253.2L138.8,253.2z"/>
	<path class="st1" d="M112.5,255.9c0,5.8,0,12.1,0,18.1c-0.2,0.4-0.8,0.8-1,1l-0.4-0.2c0-1.9,0-4.2,0-6v-1.5c0-4,0-8.3,0-12.3
		c0.4-0.4,0.6-1,1-1.3C112.5,254.6,112.5,255,112.5,255.9L112.5,255.9L112.5,255.9L112.5,255.9z"/>
	<path class="st1" d="M137.1,255c-0.2,4.8,0,9.2,0,13.6c0,2.1,0,4,0,5.8c0,0.2,0,0.2-0.2,0.4c-1.5-0.6-0.8-2.1-1-3.5
		c0-1.7-0.2-3.8,0.2-5.6l-0.2-0.6v-11C136.3,253.4,136.9,254.4,137.1,255L137.1,255L137.1,255L137.1,255z"/>
	<path class="st1" d="M55.6,254.6c0,6.9,0,13.6-0.2,19.6c-0.2,0.4-0.4,0-0.8-0.2c-0.4-1,0-2.3,0-3.3c-0.2-5.4,0-11,0-16.5
		C55,253.8,55.4,254.4,55.6,254.6L55.6,254.6L55.6,254.6L55.6,254.6z"/>
	<path class="st1" d="M124.8,263.2c-0.2,0.4-0.8,0.4-1.3,0.2l-0.4-0.2c0.2-0.8,0-2.1,0.8-2.7C124.6,261.1,124.4,262.3,124.8,263.2
		L124.8,263.2L124.8,263.2L124.8,263.2z"/>
	<path class="st1" d="M54.8,275.3c-0.2,0.4-1,0.2-1.5,0.4h-2.7c-2.1,0-4.4-0.2-6.3,0.2c-0.4,0-0.6-0.4-0.6-0.8
		c0.2-0.8,1.3-0.4,1.9-0.8c2.5,0,5.6,0,8.1,0C54,274.4,54.4,274.9,54.8,275.3L54.8,275.3L54.8,275.3L54.8,275.3z"/>
	<path class="st1" d="M40.6,274.9c0,0.4-0.4,0.8-0.8,1c-2.7-0.8-5.6-0.2-8.5-0.6l0,0c0.2-0.4,0.6-0.8,1.3-0.8
		C35.2,274.4,38.1,274.4,40.6,274.9L40.6,274.9L40.6,274.9L40.6,274.9z"/>
	<path class="st1" d="M123,275.3c0.2,0.2,0.2,0.6,0,0.6c-1,1.3-2.3-0.2-3.5,0c-2.1-0.2-4.6,0-6.9-0.2c0.6-1.9,3.1-0.8,4.6-1
		C119.2,274.9,121.3,274.2,123,275.3L123,275.3L123,275.3L123,275.3z"/>
	<path class="st1" d="M135.5,274.9c0.4,0.2,0.8,0.6,0.8,1c-3.5,0.4-6.9-0.4-10,0.4c-0.4,0-0.6-0.6-0.4-1c0.6-0.8,1.7-0.6,2.7-0.8
		L135.5,274.9L135.5,274.9L135.5,274.9z"/>
	<path class="st1" d="M43.3,276.5c0.2,0.6,0,1.5-0.4,1.9c-0.4,0.4-1,0.4-1.5,0.2c-0.4,0-0.6-0.6-0.6-1c-0.2-0.8,0.8-1.3,1.3-1.9
		C42.7,275.7,43.1,276.1,43.3,276.5L43.3,276.5L43.3,276.5L43.3,276.5z"/>
	<path class="st1" d="M125.5,276.9c0,0.8,0,1.9-0.8,1.9c-0.6,0-1.3-0.2-1.5-0.8c-0.2-0.8,0.4-1.7,0.8-1.9
		C124.8,276.1,125.3,276.5,125.5,276.9L125.5,276.9L125.5,276.9L125.5,276.9z"/>
	<path class="st1" d="M94.8,253.4c0,6.5,0,13.3,0,19.8l-0.4,0.2c-3.5,0.4-7.1-0.6-10.4,0.6c-0.6-0.4,0-1.3-0.2-1.9
		c0-5.6,0-11.5,0-17.5c0-0.6,0.4-1,0.8-1.3c0.8-0.6,2.1-0.4,3.3-0.6l6.7,0.2L94.8,253.4L94.8,253.4L94.8,253.4z"/>
	<path class="st1" d="M98.8,253.2c0,1.5,0,2.9,0.2,4.4c1,0.8,4-0.4,3.3,1.9c-0.8,0.6-2.1,0.2-3.1,0.4l-0.4,0.2
		c-0.4,3.3,0.2,6.9,0,9.8c0,0.4,0.2,0.8,0.8,1c0.8,0,2.3-0.6,2.7,0.6c-0.2,2.1-2.7,0.2-3.5,1.7c-0.2,1.5,0.4,2.9-0.2,4.4l-0.4,0.2
		c-4.4,0-8.5,0-12.5-0.2c-0.2,0,0-0.4,0-0.4l0.8-0.4c3.3-0.4,7.1,0,10.6-0.4c0.4,0,0.8-0.4,0.8-1c0-6.5,0-12.9,0-20.2
		c-0.2-1-1.3-1.7-1.3-2.5C97.3,252.8,98.4,252.5,98.8,253.2L98.8,253.2L98.8,253.2L98.8,253.2z"/>
	<path class="st1" d="M70.9,253c-0.2,0.8-0.8,1-1.3,1.7c-0.4,1.3,0,2.7-0.2,4.2c0,5.8,0,11.3,0,16.9c0,0.4,0.4,0.8,0.8,1l9,0.2
		c0.4,0,1,0.2,1.5,0.6c-0.2,0.4-0.8,0.4-1.3,0.4c-3.3,0-6.9,0.2-10.2-0.2l-0.4-0.2c0-1.5,0-3.1-0.6-4.4c-1-0.4-2.3,0-3.3-0.4
		c-0.4-0.2-0.4-0.8,0-1.3c1-0.6,3.1,0.4,3.8-1.3c0-3.3,0.2-6.5,0-9.8c-0.8-1.3-2.9,0-3.8-1.3c0.4-1.9,2.9-0.2,3.8-1.9l0.2-4
		C69.6,252.8,70.2,252.8,70.9,253L70.9,253L70.9,253L70.9,253z"/>
	<path class="st1" d="M72.1,254c0.2,5.8-0.4,11,0,16.9c-0.4,1.3,0.6,3.3-1.3,3.5c-0.4-5.8,0-12.1-0.2-18.3c-0.2-1,0.4-1.9,1.3-2.5
		L72.1,254L72.1,254L72.1,254z"/>
	<path class="st1" d="M97.1,255c0,6.5,0.2,13.3-0.2,19.4c-0.4,0-0.8-0.4-0.8-0.6c0-2.5-0.4-5.2-0.2-7.9c0.2-3.5-0.2-7.9,0.2-11.7
		C96.5,254,97.1,254.6,97.1,255L97.1,255L97.1,255L97.1,255z"/>
	<path class="st1" d="M81.7,274.9c0.4,0,0.8,0.4,0.4,0.8l-0.6,0.6c-2.9-1-6.7-0.4-9.8-0.8c0.2-0.4,0.4-0.8,0.8-1.3
		C75.6,274.6,78.8,274.2,81.7,274.9L81.7,274.9L81.7,274.9L81.7,274.9z"/>
	<path class="st1" d="M95,274.4c0.4,0.2,0.8,0.6,0.8,1l-0.4,0.2c-3.5,0-7.1-0.4-10.4,0.4c-0.4,0-1,0-1.3-0.6c0.4-0.8,1.3-1,2.1-1
		C89.2,274.2,92.1,274.4,95,274.4L95,274.4L95,274.4L95,274.4z"/>
	<path class="st1" d="M84.2,277.4c0,0.6,0,1.5-0.8,1.5c-0.6,0-1.5,0-1.5-0.8c0.2-0.6,0.6-1,1.3-1.5C83.8,276.3,84,276.9,84.2,277.4
		L84.2,277.4L84.2,277.4L84.2,277.4z"/>
	<path class="st1" d="M82.5,266.7c0.4-3.3,0-7.1,0.2-10.4c0-1,0-2.1-0.6-2.9c-2.5-1-5.6-0.4-8.5-0.6c-0.2,0-0.4,0-0.4,0.2
		c0,6.7,0,12.9,0,19.4l0.2,0.8c2.1,0.4,4,0.2,6,0.2c1,0.2,2.1,0.4,3.1,0.6c0-2.3,0.2-4,0-6.3V266.7L82.5,266.7L82.5,266.7z"/>
	<path d="M81.7,266.5c-1-0.8-1.3-2.1-2.1-3.1c0.4-0.4,0.8-0.6,1.3-1c0.6-0.6,1.3-1.7,1-2.5c0-0.8-0.4-1.7-1.3-2.1
		c-1.7-0.6-4-0.4-5.8-0.2c-0.4,0.2-0.4,0.4-0.2,0.8c0.6,0,1,0.4,1,1c0,2.3,0,4.6-0.4,6.9l-0.8,1c0.8,0.8,2.1,0.2,3.5,0.4
		c0.4-0.6-0.6-1-0.8-1.7c0.2-0.6,0-1.7,0.4-2.1c1.3,1,1.7,2.9,3.1,4l1.9,0.2v-1C82.5,266.9,81.9,266.5,81.7,266.5L81.7,266.5
		L81.7,266.5z M79.2,262.3c-0.6,0-1.5,0.4-1.7-0.4c0-1-0.4-2.5,0-3.5c0.8-0.6,1.9-0.4,2.5,0.4c0.4,0.6,0.4,1.3,0.4,2.1
		C80,261.5,79.8,262.1,79.2,262.3L79.2,262.3L79.2,262.3z"/>
	<path class="st1" d="M135.1,255.3c0-0.8,0-1.7-0.4-2.3h-3.1c-2.1,0.4-4.6-0.4-6.5,0.8c-0.8,1-0.4,2.1-0.6,3.3
		c0.2,0.6,0.4,1.5,0.6,2.1l-0.4,0.8l-1-0.4l-0.4-0.8c0.2-0.4,0.4-0.8,0.4-1.5c0-1.5,0.4-3.5-1.5-4.2c-2.7-0.2-5.2-0.4-8.1-0.4
		c-0.2,0-0.4,0-0.4,0.2c0,6.5,0,12.1,0,18.3c0,0.8-0.2,1.7,0.6,2.1c2.5-0.4,4.6,0,6.9,0c0.8,0,1.5,0.8,2.5,0.6
		c0.2-2.5,0.2-5.6,0.2-8.5c0-0.2,0-0.8-0.4-0.8V264l1.5,0.2l0.2,0.4c0,0,0,0-0.2,0.2l-0.2,8.5c0,0.2,0,0.8,0.6,0.8
		c2.5-1.5,5.8-0.4,8.8-0.8l0.6-0.2c0.4-1.5,0.2-6.5,0.2-6.5C135.1,263,135.1,259.2,135.1,255.3L135.1,255.3L135.1,255.3z"/>
	<path d="M125.3,264.6c0.4,0.4,0.6,1,0.4,1.7l-0.6,0.8l0.4,0.4c1,0,2.3,0.2,3.3-0.2c-0.2-0.4-0.8-0.6-1.3-1
		c-1.3-3.1-2.1-6.3-2.9-9.6l-1,0.6c-0.6,2.9-1.7,5.4-2.5,8.3c-0.2,0.6-0.8,0.6-1.3,1c-0.6,0.2-0.8-0.4-1-0.8c0-2.5,0.2-4.6,0-7.3
		c0-0.4,0.4-0.8,0.8-0.4c0.6,0.4,0.6,1.3,0.8,1.7c0.4,0.2,0.8,0.2,0.8-0.2l0.4-2.5c-0.4-0.8-1,0-1.7,0c-1.3,0-2.9,0.2-4.2-0.4
		c-1,0.4-0.8,1.7-0.8,2.7c0,0.2,0,0.4,0,0.4c0.8-0.6,1.3-1.9,2.3-1.7v2.5v5.4c-0.4,0.4-1.3,0.6-1,1.3c1.5,0.4,3.1,0,4.6,0.2
		c0.8,0,1.7,0.2,2.5,0c0.2-0.2,0-0.4,0-0.6c-0.4-0.2-1-0.6-0.8-1.3c0.2-0.4,0.4-1.3,1-1c0.2,0,0.2,0,0.4,0.2l1.3,0.2l0,0
		C125.1,264.8,125.1,264.6,125.3,264.6L125.3,264.6L125.3,264.6z M123.4,263.6l-0.4-0.2c0.2-0.8,0-2.1,0.8-2.7
		c0.8,0.4,0.6,1.7,1,2.5C124.6,263.6,123.8,263.6,123.4,263.6L123.4,263.6L123.4,263.6z"/>
	<path d="M133,257.8c0,0.6,0.4,1.7,0,2.1c-0.6-0.4-0.6-1-1.7-1.3c-0.4,0-1,0-1,0.6c-0.2,1.9,1.7,1.9,2.7,2.9s1.5,2.5,1,3.8
		c-0.4,1-0.8,1.5-1.9,1.5c-0.8,0.2-1.5-0.4-2.1,0c-0.2,0-0.4,0.2-0.6,0V264c0-0.2,0.2-0.2,0.4-0.2c0.4,1,0.2,2.3,1.7,2.5
		c0.4,0,0.8-0.2,1-0.8c0.2-2.9-3.8-2.3-3.8-5.4c0-0.6,0.2-1.3,0.4-1.9c0.6-1,2.3-0.4,3.3-1C132.8,256.9,132.8,257.6,133,257.8
		L133,257.8L133,257.8L133,257.8z"/>
	<path d="M90.9,257.6c-0.8,0.4-1.7,1-1.5,2.3c-0.2,2.1-0.2,4.2,0,6.3l1.3,1.3v0.2c-1.5,0-2.7,0.2-4.2,0c-0.6-0.6,0.8-1,1-1.5
		c0.2-2.3,0.4-4.8,0.2-7.3c-0.4-0.8-1.7-0.6-1.5-1.5c1.3-0.2,2.9-0.2,4.2,0L90.9,257.6L90.9,257.6L90.9,257.6z"/>
	<path d="M50,259.2c-0.8,1-1-0.8-1.9-1c-0.4,0-1.3-0.2-1.7,0.2c-0.2,1-0.4,2.1,0,3.1c0.4,0.2,1,0.2,1.5,0.2c0.4-0.4,0.8-1.3,1.5-1.3
		c0.4,0.4-0.2,1,0,1.5c-0.2,0.6,0.4,1.5-0.4,1.7c-0.4-0.2-0.8-1.3-1.5-1.3h-1.3c-0.4,1.5-0.2,2.9,0,4.4c0.6,0.6,1.5,0,2.3,0
		c1-0.2,0.8-1.7,1.7-1.7c0.2,0.6,0.4,1.5,0.2,2.1l-0.4,0.4h-6c-0.2,0-0.8,0-0.6-0.4c1.9-1.3,0.8-3.5,1-5.2c-0.2-1.3,0.8-3.3-1-4.2
		c0-0.4,0.4-0.4,0.6-0.4c1.5,0,3.5,0.6,4.8-0.6C50,257.1,50,258.4,50,259.2L50,259.2L50,259.2L50,259.2z"/>
	<path d="M40.8,258c-1.7,1.3-1.7,3.8-2.5,5.6c-0.6,1-0.4,2.7-1.5,3.5c-0.4,0.2-0.8-0.2-0.8-0.6c-0.6-2.5-1.3-5.2-2.3-7.7
		c0-0.6-1.9-0.8-0.8-1.5c1.3-0.2,2.1,0.2,3.3,0c0.2,0.8-0.8,1.3-0.6,2.1c0.8,1,0.4,2.7,1.5,4l0.4-0.4c0-1.9,2.3-3.8,0.4-5.4
		c0.4-0.8,1.7-0.2,2.5-0.4C40.6,257.3,41.2,257.6,40.8,258L40.8,258L40.8,258L40.8,258z"/>
	<path class="st1" d="M30.6,254c0.4,6.9,0,13.3,0,19.8c0,0.4-0.4,0.8-0.8,0.8c-0.4-2.1-0.4-4.2-0.2-6.3c-0.2-4.4,0-9,0-13.3
		C29.6,254.4,30.2,254,30.6,254L30.6,254L30.6,254L30.6,254z"/>
</g>
</svg>
