<svg xmlns="http://www.w3.org/2000/svg" xmlns:xlink="http://www.w3.org/1999/xlink" width="169" height="44" viewBox="0 0 169 44"><defs><style>.a,.d{fill:#fff;}.a{stroke:#707070;}.b{clip-path:url(#a);}.c{fill:#c41230;}.e,.f,.g{fill:none;stroke:#000;}.e{stroke-width:1.071px;}.f{stroke-width:0.219px;}.g{stroke-width:0.223px;}</style><clipPath id="a"><rect class="a" width="169" height="44" transform="translate(0.067 -0.247)"/></clipPath></defs><g class="b" transform="translate(-0.067 0.247)"><g transform="translate(1.885 1.389)"><path d="M762.857,986.08a2.5,2.5,0,0,0-1.735-1.51v-.392c.559,0,2.35.056,2.8.056.391,0,2.013-.056,2.572-.056v.449c-.5.112-1.062.391-1.062.9a5.1,5.1,0,0,0,.671,1.789l4.028,9.119,3.8-9.119a5.612,5.612,0,0,0,.5-1.733c0-.5-.448-.839-1.064-.951v-.449c.5,0,1.735.056,2.127.056.335,0,1.789-.056,2.35-.056v.449a3.066,3.066,0,0,0-2.071,2.013l-5.594,13.147H769.01l-6.153-13.706Z" transform="translate(-667.806 -979.423)"/><path d="M727.526,999.287c.727-.168,1.23-.5,1.23-1.342V985.973c0-.783-.5-1.12-1.23-1.342v-.448c.391,0,2.013.056,2.406.056.447,0,2.181-.056,2.574-.056v.448c-.727.168-1.288.5-1.288,1.342v5.035h8.952v-5.035c0-.839-.448-1.174-1.231-1.342v-.448c.392,0,2.071.056,2.574.056.392,0,2.071-.056,2.461-.056v.448c-.727.168-1.286.5-1.286,1.342V998c0,.783.5,1.118,1.286,1.342v.392c-.391,0-2.069-.056-2.461-.056-.447,0-2.181.056-2.574.056v-.392c.727-.168,1.231-.5,1.231-1.342V992.3h-8.952V998c0,.839.5,1.118,1.288,1.342v.392c-.392,0-2.127-.056-2.574-.056-.392,0-2.071.056-2.406.056v-.448Zm18.909,0a2.7,2.7,0,0,0,1.9-1.734l4.979-11.916a10.737,10.737,0,0,0,.447-1.512h1.4a10.743,10.743,0,0,0,.447,1.512l5.259,11.971a2.555,2.555,0,0,0,1.846,1.678v.393c-.56,0-2.351-.056-2.742-.056s-2.071.056-2.63.056v-.393c.783-.168,1.007-.559,1.007-.951a2.729,2.729,0,0,0-.28-1.062l-1.12-2.518h-5.818l-1.006,2.572a3.407,3.407,0,0,0-.28,1.007c0,.448.224.783,1.12,1.007v.392c-.5,0-1.846-.056-2.183-.056l-2.237.056-.112-.448Zm9.9-5.762-2.461-5.762-2.293,5.762Zm-9.9,5.762a2.7,2.7,0,0,0,1.9-1.734l4.979-11.916a10.737,10.737,0,0,0,.447-1.512h1.4a10.743,10.743,0,0,0,.447,1.512l5.259,11.971a2.555,2.555,0,0,0,1.846,1.678v.393c-.56,0-2.351-.056-2.742-.056s-2.071.056-2.63.056v-.393c.783-.168,1.007-.559,1.007-.951a2.729,2.729,0,0,0-.28-1.062l-1.12-2.518h-5.818l-1.006,2.572a3.407,3.407,0,0,0-.28,1.007c0,.448.224.783,1.12,1.007v.392c-.5,0-1.846-.056-2.183-.056l-2.237.056-.112-.448Zm9.9-5.762-2.461-5.762-2.293,5.762Zm39.274,5.762a2.521,2.521,0,0,0,1.847-1.734l4.979-11.916a10.935,10.935,0,0,0,.447-1.512h1.4a10.824,10.824,0,0,0,.448,1.512l5.259,11.971a2.557,2.557,0,0,0,1.845,1.678v.393c-.559,0-2.35-.056-2.74-.056s-2.071.056-2.63.056v-.393c.783-.168,1.007-.559,1.007-.951a2.726,2.726,0,0,0-.28-1.062l-1.119-2.518h-5.818l-1.006,2.572a3.407,3.407,0,0,0-.28,1.007c0,.448.224.783,1.063,1.007v.392c-.5,0-1.846-.056-2.127-.056l-2.293.056v-.448Zm9.846-5.762L803,987.763l-2.293,5.762Zm25.959,5.762c.951-.168,1.454-.559,1.454-1.4V985.973c0-.839-.5-1.174-1.4-1.342v-.448c.5,0,2.237.056,2.684.056.783,0,2.91-.168,4.532-.168,5.538,0,8.839,3.078,8.839,7.777,0,4.532-3.467,7.943-9.175,7.943-1.622,0-3.636-.11-4.363-.11-.448,0-2.071.056-2.574.056v-.448Zm3.972-.783a15.154,15.154,0,0,0,2.406.168c4.643,0,7.05-2.8,7.05-6.657,0-4.028-2.517-6.881-6.882-6.881a16.445,16.445,0,0,0-2.574.168v13.2Z" transform="translate(-686.518 -979.483)"/><path d="M755.441,997.869c0,.783.5,1.23,1.454,1.454v.447c-.5,0-2.181-.055-2.684-.055-.392,0-2.071.055-2.574.055v-.447c.839-.168,1.4-.615,1.4-1.454V985.952c0-.727-.392-1.174-1.4-1.342v-.448c.5,0,2.125.056,2.63.056.783,0,2.908-.112,3.748-.112,3.693,0,5.762,1.512,5.762,4.14,0,2.071-1.566,3.469-3.916,4.029a4.585,4.585,0,0,1,1.062.95c.673.783,2.518,3.357,3.246,4.252s1.678,1.9,2.684,1.958v.335a9.4,9.4,0,0,1-1.845.168,3.87,3.87,0,0,1-3.246-1.623c-.839-1.007-2.35-3.189-3.245-4.308a3.46,3.46,0,0,0-2.405-1.4c-.223-.056-.447-.056-.727-.112v5.372Zm0-6.323a18.523,18.523,0,0,0,1.959.112c2.908,0,3.8-1.678,3.8-3.133,0-2.069-1.4-3.413-3.916-3.413a9.669,9.669,0,0,0-1.79.168v6.265Z" transform="translate(-673.089 -979.463)"/><path d="M786.846,997.869c0,.783.5,1.23,1.454,1.454v.447c-.5,0-2.182-.055-2.684-.055-.393,0-2.071.055-2.574.055v-.447c.839-.168,1.4-.615,1.4-1.454V985.952c0-.727-.391-1.174-1.342-1.342v-.448c.5,0,2.125.056,2.63.056.783,0,2.908-.112,3.747-.112,3.693,0,5.762,1.512,5.762,4.14,0,2.071-1.566,3.469-3.916,4.029a4.607,4.607,0,0,1,1.064.95c.671.783,2.461,3.357,3.188,4.252s1.679,1.9,2.684,1.958v.335a9.4,9.4,0,0,1-1.845.168,3.866,3.866,0,0,1-3.245-1.623c-.839-1.007-2.295-3.189-3.134-4.308a3.46,3.46,0,0,0-2.405-1.4c-.223-.056-.447-.056-.727-.112v5.372Zm0-6.323a18.543,18.543,0,0,0,1.958.112c2.909,0,3.8-1.678,3.8-3.133,0-2.069-1.4-3.413-3.916-3.413a9.694,9.694,0,0,0-1.79.168v6.265Z" transform="translate(-655.599 -979.463)"/><path class="c" d="M769.819,1004.926h.223a2.184,2.184,0,0,0,.727,1.118,2.582,2.582,0,0,0,1.456.393c1.062,0,1.734-.5,1.734-1.343s-.839-1.23-1.847-1.735c-.783-.391-2.293-.95-2.293-2.462,0-1.342,1.062-2.237,2.684-2.237,1.063,0,1.622.28,2.351.224v1.622h-.28a1.991,1.991,0,0,0-2.127-1.288c-1.062,0-1.51.617-1.51,1.232,0,.9,1.007,1.4,1.9,1.847,1.119.5,2.293,1.062,2.293,2.461,0,1.342-1.008,2.237-2.908,2.237a10.258,10.258,0,0,1-2.406-.391v-1.678Z" transform="translate(-662.963 -971.358)"/><path class="c" d="M780.67,1006.544c.393-.112.615-.28.615-.673v-6.209c0-.392-.223-.561-.615-.671v-.224c.168,0,1.064.056,1.288.056s1.118-.056,1.342-.056v.224c-.391.111-.671.279-.671.671v2.574h4.587v-2.574c0-.448-.223-.615-.615-.671v-.224c.224,0,1.063.056,1.342.056.224,0,1.063-.056,1.288-.056v.224c-.392.111-.671.279-.671.671v6.209c0,.392.279.561.671.673v.223H786.6v-.223c.392-.112.615-.28.615-.673v-2.964h-4.587v2.908c0,.449.28.561.671.673v.223h-2.63v-.167Z" transform="translate(-656.92 -971.298)"/><path class="c" d="M781.835,1004.813l-.112,1.791c-.615-.056-1.454.391-2.854.391-2.964,0-4.306-1.791-4.306-4.14a4.039,4.039,0,0,1,4.252-4.2c1.23,0,2.013.449,2.8.392l.056,1.789h-.224a2.72,2.72,0,0,0-2.628-1.566c-1.847,0-2.854,1.622-2.854,3.581,0,1.622.783,3.581,3.02,3.581a2.41,2.41,0,0,0,2.574-1.623Z" transform="translate(-660.322 -971.358)"/><path class="c" d="M787.426,1002.855a4.14,4.14,0,1,1,8.28,0,4.14,4.14,0,1,1-8.28,0Zm6.824,0c0-1.846-.839-3.637-2.684-3.637-1.9,0-2.742,1.735-2.742,3.637,0,1.846.839,3.581,2.742,3.581,1.845,0,2.684-1.735,2.684-3.581Z" transform="translate(-653.157 -971.358)"/><path class="c" d="M793.893,1002.855a4.14,4.14,0,1,1,8.28,0,4.14,4.14,0,1,1-8.28,0Zm6.826,0c0-1.846-.839-3.637-2.686-3.637-1.9,0-2.74,1.735-2.74,3.637,0,1.846.839,3.581,2.74,3.581,1.847,0,2.686-1.735,2.686-3.581Z" transform="translate(-649.555 -971.358)"/><path class="c" d="M735.615,998.807h5.035c.168,0,.447,0,.559-.112h.224l-.056,1.622h-.224c-.168-.5-.447-.9-1.454-.9h-2.127v2.91h1.735a2.31,2.31,0,0,0,.673-.056.663.663,0,0,0,.615-.617h.224v1.958h-.224a.934.934,0,0,0-.615-.671,2.314,2.314,0,0,0-.673-.056h-1.735v3.245h2.407a1.423,1.423,0,0,0,1.566-1.063l.223.056-.223,1.678c-.783-.056-1.231-.056-2.07-.056H736.9c-.223,0-1.118.056-1.4.056v-.223c.447-.112.727-.28.727-.729V999.7c0-.392-.224-.615-.727-.727v-.168Z" transform="translate(-682.075 -971.338)"/><path class="c" d="M748.2,999.718c0-.392-.224-.617-.729-.727v-.224c.28,0,1.175.056,1.4.056s1.118-.056,1.4-.056v.224c-.5.111-.727.279-.727.727v6.1c0,.392.224.617.727.729v.223c-.28,0-1.12-.056-1.4-.056-.224,0-1.12.056-1.4.056v-.223c.5-.112.729-.28.729-.729v-6.1Z" transform="translate(-675.411 -971.298)"/><path class="c" d="M755.877,1006.564a1.291,1.291,0,0,0,.951-.9l2.572-6.155a6.67,6.67,0,0,0,.224-.783h.727a6.667,6.667,0,0,0,.224.783l2.686,6.155a1.291,1.291,0,0,0,.951.9v.223h-2.742v-.223c.392-.112.5-.28.5-.5a1.262,1.262,0,0,0-.167-.559l-.56-1.288h-2.964l-.5,1.344a2.056,2.056,0,0,0-.111.5c0,.224.111.392.559.5v.223h-2.293l-.056-.223Zm5.147-3.022-1.288-2.964-1.175,2.964Z" transform="translate(-670.728 -971.318)"/><path class="c" d="M757.8,1004.813l-.112,1.791c-.615-.056-1.454.391-2.852.391-2.966,0-4.308-1.791-4.308-4.14a4.039,4.039,0,0,1,4.252-4.2c1.23,0,2.013.449,2.8.392l.056,1.789H757.4a2.72,2.72,0,0,0-2.628-1.566c-1.847,0-2.854,1.622-2.854,3.581,0,1.622.783,3.581,3.02,3.581a2.41,2.41,0,0,0,2.574-1.623Z" transform="translate(-673.71 -971.358)"/><path class="c" d="M768.3,1005.088a1.464,1.464,0,0,1-1.568,1.063H764.27v-6.433c0-.448.224-.617.727-.727v-.224c-.279,0-1.174.056-1.4.056s-1.118-.056-1.4-.056v.224c.5.111.727.335.727.727v6.1c0,.449-.224.673-.727.729v.223c.28,0,1.174-.056,1.4-.056h2.574c.839,0,1.342,0,2.071.056l.223-1.678Z" transform="translate(-667.206 -971.298)"/><path class="c" d="M806.439,1005.088a1.463,1.463,0,0,1-1.566,1.063h-2.405v-6.433c0-.448.223-.617.727-.727v-.224c-.28,0-1.175.056-1.4.056s-1.119-.056-1.4-.056v.224c.5.111.727.335.727.727v6.1c0,.449-.223.673-.727.729v.223c.28,0,1.175-.056,1.4-.056h2.572c.839,0,1.343,0,2.071.056l.224-1.678Z" transform="translate(-645.933 -971.298)"/><path class="c" d="M740.965,1006.564c.5-.112.727-.28.727-.729v-6.153c0-.448-.28-.615-.727-.671v-.224c.279,0,1.174.056,1.4.056.392,0,1.454-.112,2.293-.112,2.854,0,4.588,1.566,4.588,4.028,0,2.349-1.791,4.084-4.7,4.084-.839,0-1.789-.056-2.181-.056-.224,0-1.063.056-1.342.056v-.279Zm2.013-.393a7.473,7.473,0,0,0,1.176.056c2.405,0,3.635-1.342,3.635-3.469a3.289,3.289,0,0,0-3.523-3.525,8.477,8.477,0,0,0-1.288.112v6.825Z" transform="translate(-679.033 -971.318)"/><path class="c" d="M737.072,1005.649l-.391-5.93c-.056-.392.168-.617.615-.727v-.224h-1.9l-2.628,6.153-2.63-6.153h-2.015v.224a.689.689,0,0,1,.671.727l-.447,5.93a1.062,1.062,0,0,1-.783.95v.224H729.8v-.224c-.559-.167-.671-.447-.671-.839l.336-5.258,2.74,6.321h.448l2.74-6.321.336,5.314a.8.8,0,0,1-.671.839v.224h2.8v-.224a1.13,1.13,0,0,1-.783-1.006Z" transform="translate(-686.498 -971.298)"/><path class="c" d="M717.915,981.124H701.243l-.056,13.315c0,16.335,16.393,26.742,16.56,26.854l.056.056a.564.564,0,0,0,.168-.056c2.8-1.847,16.672-11.693,16.672-26.742V981.18c-.056-.056-16.728-.056-16.728-.056Zm16.616,11.8H701.523v-1.9h33.007v1.9Z" transform="translate(-701.187 -981.124)"/><path d="M706.609,982.264c1.12-.447,2.351-.112,3.581-.224.336.056.783-.168,1.007.168v1.063c.112.279.5.112.671.224a.453.453,0,0,1,.28.279.792.792,0,0,1-.056.5c-.224.223-.5.167-.839.223l-.112.112c.056.671-.112,1.232,0,1.847,0,.112-.056.336.112.391a1.07,1.07,0,0,1,.839.224.643.643,0,0,1,.056.561c-.112.671-1.175-.112-1.063.671a2.727,2.727,0,0,1-.056.951c-1.23,0-2.462-.112-3.581,0a1.677,1.677,0,0,1-.783.335,1.353,1.353,0,0,1-.615-.335c-1.118-.056-2.181-.056-3.245-.056-.336-.28-.112-.783-.224-1.176-.166-.224-.447-.056-.671-.168-.168,0-.224-.168-.28-.279a.8.8,0,0,1,.168-.617,1.311,1.311,0,0,1,.671-.112l.112-.11a15.106,15.106,0,0,0-.056-2.239c-.11-.167-.335,0-.447-.112a.622.622,0,0,1-.448-.391.449.449,0,0,1,.112-.5c.224-.28.673.054.9-.224l.112-1.063c.168-.336.559-.168.9-.168a9.557,9.557,0,0,1,1.791,0,3.641,3.641,0,0,1,1.174.224Z" transform="translate(-700.959 -980.641)"/><path class="d" d="M706.328,989.676l-.056.224c0,.112-.112.223-.224.167l-.447-.054a.79.79,0,0,0-.5-.056c-.056.056-.168.11-.28.222a.055.055,0,0,1,.056.056c.112.056.336.112.392.392a.706.706,0,0,0,.224.5l.056.112a.206.206,0,0,1,.056.168c0,.056,0,.056-.056.112l-.224.279-.112.112s-.112.28-.168.392q.084.168.168.168a1.854,1.854,0,0,1,.559,0l.336.054h.168a.838.838,0,0,1,.5.056,1.867,1.867,0,0,1,.168.337.5.5,0,0,1,.056.28.7.7,0,0,1-.056.335l-.056.168c0,.056,0,.112-.056.112a2.594,2.594,0,0,1-1.175,1.007h.056v.056h0a.459.459,0,0,0,.392,0h.112a1.271,1.271,0,0,0,.615-.168l.615-.168c.112-.056.168.056.224.112a1.966,1.966,0,0,0,.392.5l.111-.112a.568.568,0,0,1,.616-.167.055.055,0,0,1,.056.056,1,1,0,0,1,.335.559c.056.112.056.28.168.336a.169.169,0,0,1,.056.111V996a.362.362,0,0,1-.28.336h-.056l-.056.056-.5.112a1.042,1.042,0,0,0-.447.112.054.054,0,0,0,.056.054,3.448,3.448,0,0,0,.894.224l.168.056h1.063c.112,0,.112.056.168.112s0,.168-.056.224l-.112.168-.056.055-1.063.728c-.056,0-.615.223-.615.223l-.839.336h-.056a1.294,1.294,0,0,1-1.063-.336.775.775,0,0,0-.559-.279.636.636,0,0,0-.447.167c-.056.056-.056.112-.056.224v.112h.056c.111.056.335.112.335.392a1.774,1.774,0,0,1-.335.95,1.954,1.954,0,0,0-.28.728v.056c0,.054,0,.11.056.11h.112l.056-.11a.6.6,0,0,1,.391-.337h.056c.448.056.671,0,.839-.168a.173.173,0,0,1,.112-.056.533.533,0,0,1,.392.112.489.489,0,0,1,.166.336v.112c.28-.056.449-.28.673-.616l.111-.168c.056-.055.112-.111.168-.111l.168-.056a.825.825,0,0,1,.727,0c.056.056.112.112.112.167v.168a1.645,1.645,0,0,1-.168.56.567.567,0,0,0-.056.222,2.043,2.043,0,0,0,1.007-.839l.168-.222a.557.557,0,0,1,.5-.392h.056c.168.056.224,0,.392-.28l.335-.335c.056-.056.056-.056.168-.056h.112a.205.205,0,0,1,.168.056c.056.056.056.056.056.112v.335h0c.056,0,.223-.112.335-.112l.448-.279c.056-.056.112-.056.223,0l1.678.447a.518.518,0,0,1,.392.56v.335c0,.056,0,.056.056.112a.206.206,0,0,1,.056.168v.112c-.056.166-.224.335-.671.335l-.839.056a2.617,2.617,0,0,0-1.847.448l-.448.447a.2.2,0,0,1-.167.056,1.567,1.567,0,0,0-.839.336,1.965,1.965,0,0,1-.839.391,1.655,1.655,0,0,1-.729.112c-.223,0-.335,0-.391.056a1.91,1.91,0,0,0,1.007.5,1.246,1.246,0,0,1,.223.056.523.523,0,0,1,.56.28v.112c0,.224.056.335.168.335h.056a.474.474,0,0,1,.559,0l.391.392.448.447a.17.17,0,0,1,0,.224c-.168.336-.559.28-.783.28H710.8a1.077,1.077,0,0,1-1.174-.28l.056.056-.5-.168a1.389,1.389,0,0,0-.839-.447c-.335.112-.5.224-.5.391h0l.056.112.168.168a.173.173,0,0,1,.056.112v.056c0,.056-.056.112-.112.168-.28.167-.617.447-.617.783v.167a.2.2,0,0,0,.112-.055.641.641,0,0,1,.56,0c.056.055.111.11.111.167v.28a.94.94,0,0,0,.112.5.2.2,0,0,0,.112-.056.755.755,0,0,1,.839,0,.56.56,0,0,0,.336-.11l.335-.168h.056a1.077,1.077,0,0,1,.951.839h0c.28.223.5.335.671.279v-.279a2.438,2.438,0,0,1-.056-.28.517.517,0,0,1,.393-.559c.056,0,.559-.056.559-.056h.392c.5.056.9.056,1.062-.28,0,0,.392-.615.448-.727,0-.056.056-.391.056-.391a.149.149,0,0,1,.168-.168.746.746,0,0,1,.5.056.173.173,0,0,1,.112.056,2.249,2.249,0,0,1-.168-.839,1.235,1.235,0,0,1,.056-.449,2.874,2.874,0,0,1,.5-1.007.246.246,0,0,1,.28-.056l.112.056.168.168.112.559a3.419,3.419,0,0,0,.279,1.007c0,.056.056.056,0,.112l-.223.783-.168.615a2.074,2.074,0,0,1-1.12,1.343v.056h.448a2.706,2.706,0,0,0,1.622-.839c.056-.056.167-.112.223-.056.112.056.224,0,.392-.112a.736.736,0,0,1,.839-.056.615.615,0,0,0,.559.056c.336,0,.9-.056,1.007.559v.392a.764.764,0,0,1-.5,1.007h-.112l-.615-.224c-.5-.224-.729-.28-.951,0a.423.423,0,0,0-.112.224c.056.167.279.5,0,.783l.056-.056-.056.056c-.168.279-.28.447-.168.671,0,0,.056.056.224,0a1.091,1.091,0,0,1,.727.056l.28.112a.2.2,0,0,1,.111.056l.112.056a1.71,1.71,0,0,0,.615.335v-.056l.112-.279a3.211,3.211,0,0,1,.393-.225c.224-.112.28-.112.28-.224a1.453,1.453,0,0,1,.727-1.007c.056,0,.112-.056.167-.056a1.017,1.017,0,0,0,.5-.223v-.056l-.112-.112c-.056-.056-.056-.112-.112-.112v-.168a1.647,1.647,0,0,1,.28-.727.9.9,0,0,0,.168-.447.423.423,0,0,0-.056-.224.055.055,0,0,0-.056-.056l-.056-.392c-.056-.279-.056-.447-.224-.615l-.447-.224-.168-.167c-.112-.056-.112-.112-.112-.224,0-.224.112-.336.391-.392h.056a.949.949,0,0,1,.783.112,1.2,1.2,0,0,0,.336.056,2.617,2.617,0,0,0-.336-.5,2.744,2.744,0,0,0-.95-.336,2.106,2.106,0,0,1-1.456-.783.281.281,0,0,1,0-.336l.056-.054a.337.337,0,0,1,.224-.056,2,2,0,0,0,1.79-.393,2.682,2.682,0,0,1,1.119-.951c.391-.279.447-.783.447-1.4a1.068,1.068,0,0,1,.392-.783l.5-.224c.168-.056.224-.056.224-.112a1.768,1.768,0,0,0-.9-.223.206.206,0,0,1-.168-.056c-.168-.056-.168-.168-.224-.28v-.056a.379.379,0,0,1,.224-.337l.056-.056.056-.055.5-.28c.671-.392,1.119-.615,1.119-1.176h0v-.056c-.056.056-.168.056-.224.168l-.447.224a3.852,3.852,0,0,1-1.063.335,2.667,2.667,0,0,0-1.007.336c-.056,0-.056.056-.112.056-.112,0-.279-.056-.279-.224v-.168a.436.436,0,0,1,.11-.279.874.874,0,0,1,.449-.336c.224-.112.336-.168.391-.335l.056-.168a1.289,1.289,0,0,1,.616-.839,1.846,1.846,0,0,0,.335-.168.2.2,0,0,0,.112-.056l-.056-.056c-.559-.168-1.118.28-1.454.561l-.056.055-.28.056a2.556,2.556,0,0,0-1.006.616c0,.056-.056.056-.112.056a.376.376,0,0,1-.336-.056.308.308,0,0,1-.168-.28c-.112-.9.616-1.566,1.175-2.071l.112-.11.112-.056.335-.168a1.007,1.007,0,0,1,1.063-.168,1.42,1.42,0,0,0,.9.224c.168-.056.279-.224.447-.448a2.3,2.3,0,0,1,.5-.559c.223-.112.447,0,.615,0a1.276,1.276,0,0,1,.224.056l.056-.056v-.056a1.037,1.037,0,0,0-.28-.559l-.224-.28c-.056-.056-.056-.056-.056-.112V991.8a1.644,1.644,0,0,0,.112-.559,1.414,1.414,0,0,0-.5-1.119,1.329,1.329,0,0,0-.561-.166.188.188,0,0,0,.056.11l.224.448v.168c0,1.006-.839,1.454-1.566,1.791l-.615.335c-1.4.727-3.245,1.847-3.357,3.693a3.671,3.671,0,0,0,1.174,2.63.054.054,0,0,0,.056.054l.28.392a2.8,2.8,0,0,1,.615,1.51,1.393,1.393,0,0,1-.056.448c-.223.559-.9.559-1.118.559-1.4-.112-2.127-1.51-2.686-2.517l-.112-.168-.112-.224a2.364,2.364,0,0,1-.335-1.062c0-.056,0-.168.054-.168a.371.371,0,0,1,.5-.056c.056,0,.28.392.28.392a.206.206,0,0,1,.054.167c0-.056.056-.112.056-.223a2.38,2.38,0,0,0-.222-.783l-.056-.056a1.3,1.3,0,0,0-.392-.392,1.639,1.639,0,0,1-.559-.671v-.112c0-.336.28-.391.391-.447h.056a3.616,3.616,0,0,1-.166-1.119,1.945,1.945,0,0,1,.054-.559h0l.336-.336c.112-.056.112-.056.112-.112a4.57,4.57,0,0,1-.112-1.23v-.5a3.54,3.54,0,0,1,.112-.391,1.425,1.425,0,0,0,.112-.392v-.112a.591.591,0,0,1-.28-.5V990.4h.056a3.418,3.418,0,0,1-1.51-.447l-.449-.224c-.11-.056-.223,0-.391.112l-.28.112-.279.056a1.408,1.408,0,0,0-.729.278c-.11.112-.11.28-.11.5v.223c-.056.168-.168.224-.224.224a.46.46,0,0,1-.392-.056h-.056a.947.947,0,0,1-.5-1.119.57.57,0,0,0-.056-.167.747.747,0,0,0-.5-.056.565.565,0,0,0-.28.447.2.2,0,0,0-.056.112v.056a.654.654,0,0,0,.112.392,3.2,3.2,0,0,0,.783.5l.727.391c.056.056.056.056.056.112s.056.168.056.224a1.016,1.016,0,0,1-.224.615h0a.522.522,0,0,1,.224.392v.112a.177.177,0,0,1-.168.167,1.425,1.425,0,0,1-1.174-.223l-.224-.28q-.084-.168-.168-.168a.565.565,0,0,0-.056.168l-.112.224v.168a.808.808,0,0,1-.223.559.206.206,0,0,1-.168.056h-.224a8.368,8.368,0,0,1-2.574-1.4,4.378,4.378,0,0,1-.951-1.064l-.223-.28-.056-.056-.056-.279c-.168-.561-.28-.9-.673-1.007-.111-.112-.167-.112-.167-.112Zm.559,3.245Zm-1.734-.392h0Zm8.056.336c.056-.056.056-.056.056-.112h0a.2.2,0,0,0-.056.112Zm4.308,2.966Zm-5.314,3.692Zm.056.056Zm-4.756,1.4Zm7.945,4.757v0Zm.279,2.349h0Z" transform="translate(-699.166 -976.361)"/><path class="e" d="M701.331,994.439V981.124h33.287V994.5c0,16.84-16.784,26.742-16.784,26.742s-16.5-10.351-16.5-26.8Z" transform="translate(-701.107 -981.124)"/><path d="M722.767,1009.19h0c-.112-.112-.224-.28-.28-.336-.111-.615.783-1.007.336-1.622-.112-.392,0-.839-.392-1.119a6.824,6.824,0,0,0-.894-.447c0-.168.223-.112.279-.168.5-.112.9.447,1.288,0,.056-.336-.28-.615-.5-.839-.727-.5-1.79-.28-2.349-1.064l.056-.056a2.233,2.233,0,0,0,1.959-.447,2.05,2.05,0,0,1,1.062-.9,1.836,1.836,0,0,0,.56-1.566.9.9,0,0,1,.279-.615c.28-.224.951-.168.783-.672a1.9,1.9,0,0,0-1.174-.335c-.224-.112.056-.28.112-.336.671-.447,1.791-.727,1.734-1.79-.056-.11-.056-.279-.224-.279-.28.056-.5.335-.783.447-.671.392-1.454.28-2.127.671-.111,0-.111-.167-.056-.223.224-.336.729-.336.9-.783.112-.336.168-.783.56-.9.223-.168.559-.168.671-.449,0-.168-.224-.224-.336-.279a1.794,1.794,0,0,0-1.679.615,5.169,5.169,0,0,0-1.342.727c-.056,0-.168,0-.168-.112-.112-.9.671-1.51,1.288-2.015.391-.111.783-.615,1.23-.391a1.431,1.431,0,0,0,1.063.224c.5-.168.559-.727,1.007-1.007.335-.112.783.391,1.006-.112.112-.5-.279-.783-.5-1.119a1.753,1.753,0,0,0-.5-1.957,1.056,1.056,0,0,0-.9-.168c-.224.28.223.5.223.783.112,1.231-1.23,1.51-2.069,2.069-1.51.785-3.357,1.959-3.469,3.917a4.032,4.032,0,0,0,1.231,2.8c.391.672,1.006,1.287.783,2.183a.921.921,0,0,1-.9.391c-1.288-.112-2.015-1.566-2.574-2.574a4.613,4.613,0,0,1-.448-1.23c.056-.056.112-.056.224,0,.224.224.224.727.615.671a1.376,1.376,0,0,0-.111-1.454c-.224-.392-.729-.615-.951-1.063,0-.335.447-.112.5-.447a3.47,3.47,0,0,1-.112-1.679c.112-.224.448-.224.448-.5a4.183,4.183,0,0,1-.112-1.678c.056-.335.335-.727.168-1.062-.393-.112-.056-.617-.449-.673a5.432,5.432,0,0,1-1.9-.615c-.335-.112-.559.112-.839.168-.391.112-.839.112-1.118.391-.224.224-.168.5-.168.839-.056.168-.224,0-.336,0a.8.8,0,0,1-.335-.839c.056-.166,0-.278-.168-.391a.855.855,0,0,0-.727-.112c-.28.112-.392.448-.5.727a1.3,1.3,0,0,0,.112.671c.448.448,1.064.617,1.512,1.007.111.28-.112.5-.28.727,0,.224.335.224.28.448a1,1,0,0,1-.951-.224c-.168-.168-.224-.5-.5-.5s-.279.335-.391.5c-.112.224,0,.5-.224.671h-.168a7.743,7.743,0,0,1-2.461-1.4,6.5,6.5,0,0,1-1.118-1.342c-.168-.561-.28-1.288-.951-1.456a.375.375,0,0,0-.392.224l-.056.224c-.335,0-.671-.224-1.063-.112a1.542,1.542,0,0,0-.447.391c0,.392.447.224.5.56,0,.279.224.5.336.727-.112.168-.28.224-.336.391l-.223.561c.112.166.223.391.391.391.28-.112.56.112.895.056.224,0,.5-.168.559.168.112.28,0,.5,0,.727a2.682,2.682,0,0,1-1.062.9.534.534,0,0,0-.112.392c.168.223.5.111.727.111.447,0,.783-.279,1.232-.335a1.353,1.353,0,0,0,.5.615c.336.112.447-.391.783-.28.28.224.224.617.447.9,0,.168-.111.168-.223.224-.392.112-.9,0-1.175.28-.056.168.112.335.224.391a3.636,3.636,0,0,0,1.118.28c.336.056.729-.112,1.064,0l-.112.168-1.062.727a11.24,11.24,0,0,0-1.456.559c-.671.168-.95-.671-1.566-.615a1.019,1.019,0,0,0-.615.224.608.608,0,0,0-.112.615c.112.224.392.112.392.335,0,.616-.56,1.063-.617,1.678,0,.168,0,.337.224.392a.492.492,0,0,0,.392-.056c.112-.112.112-.337.335-.391a1.045,1.045,0,0,0,1.007-.224c.112,0,.28.112.28.224,0,.167,0,.335.168.391.559,0,.783-.559,1.062-.952.224-.056.5-.224.727-.056.112.392-.223.616-.279,1.008,0,.112.112.168.223.168.673-.112,1.007-.671,1.4-1.175.056-.112.112-.279.335-.279.5.166.617-.448.951-.672h.112c.056.168-.056.28,0,.392.224.224.448,0,.671-.056l.448-.28c.559.168,1.118.28,1.679.448.447.168,0,.671.279.951-.056.167-.279.223-.447.223-.952.112-2.071-.111-2.854.56l-.447.447c-.727,0-1.064.615-1.734.727-.449.28-1.12-.112-1.4.392a1.767,1.767,0,0,0,1.23.727c.224.112.5,0,.615.224,0,.223.056.5.336.559.168.056.28-.224.5-.056.224.336.617.5.783.783-.166.28-.5.112-.783.112h-.056c-.391.056-.894.224-1.174-.112-.392-.28-.727-.783-1.342-.783-.336.112-.673.224-.729.559-.056.224.168.28.28.448-.391.28-.783.671-.671,1.174.056.112.112.224.224.224.223,0,.335-.168.559-.056.056.336-.056.839.336,1.007.279-.056.5-.393.838-.112.336.168.561-.168.9-.224.448,0,.617.448.783.783.28.224.673.56,1.063.336.28-.391-.224-.839.28-1.064.28-.112.559,0,.9-.056.5.056,1.062.112,1.342-.447l.448-.727.11-.448c.28-.111.673.392.839-.056a2.227,2.227,0,0,1-.11-1.342,1.99,1.99,0,0,1,.447-.839l.112.056a7.2,7.2,0,0,0,.391,1.566,13.558,13.558,0,0,1-.391,1.454,1.754,1.754,0,0,1-1.007,1.176c-.112.112-.224.224-.112.391.112.224.448.112.671.168a3.211,3.211,0,0,0,1.791-.9c.5.112.727-.447,1.175-.222.447.334,1.286-.28,1.454.5-.056.336.28.951-.28,1.119-.559-.112-1.23-.839-1.789-.168a.408.408,0,0,0-.112.5c.112.168.224.336.056.5-.168.279-.392.615-.224.9.112.167.337.167.5.167.336-.11.617.168.951.168.28.224.56.5.951.448.168-.112.112-.28.224-.392.224-.224.727-.168.727-.615a1.237,1.237,0,0,1,.615-.783c.112-.168.783-.336.951-.615Z" transform="translate(-699.326 -976.462)"/><path class="f" d="M722.767,1009.19h0c-.112-.112-.224-.28-.28-.336-.111-.615.783-.951.336-1.622-.112-.392,0-.839-.392-1.119a6.824,6.824,0,0,0-.894-.447c0-.168.223-.112.279-.168.5-.112.9.447,1.288,0,.056-.336-.28-.615-.5-.839-.727-.5-1.79-.28-2.349-1.064l.056-.056a2.233,2.233,0,0,0,1.959-.447,2.05,2.05,0,0,1,1.062-.9,1.836,1.836,0,0,0,.56-1.566.9.9,0,0,1,.279-.615c.28-.224.951-.168.783-.672a1.9,1.9,0,0,0-1.174-.335c-.168-.112.056-.28.112-.336.671-.447,1.791-.727,1.734-1.79-.056-.11-.056-.279-.224-.279-.28.056-.5.335-.783.447-.671.392-1.454.28-2.127.671-.111,0-.111-.167-.056-.223.224-.336.729-.336.9-.783.112-.336.168-.783.56-.9.223-.168.559-.168.671-.449,0-.168-.224-.224-.336-.279a1.794,1.794,0,0,0-1.679.615,5.169,5.169,0,0,0-1.342.727c-.056,0-.168,0-.168-.112-.112-.9.671-1.51,1.288-2.015.391-.111.783-.615,1.23-.391a1.431,1.431,0,0,0,1.063.224c.5-.168.615-.727,1.007-1.007.335-.112.783.391,1.006-.112.112-.5-.279-.783-.5-1.119a1.753,1.753,0,0,0-.5-1.957,1.056,1.056,0,0,0-.9-.168c-.224.28.223.5.223.783.112,1.231-1.23,1.51-2.069,2.069-1.51.785-3.357,1.959-3.469,3.917a4.032,4.032,0,0,0,1.231,2.8c.391.672,1.006,1.287.783,2.183a.921.921,0,0,1-.9.391c-1.288-.112-2.015-1.566-2.574-2.574a4.613,4.613,0,0,1-.448-1.23c.056-.056.112-.056.224,0,.224.224.224.727.615.671a1.376,1.376,0,0,0-.111-1.454c-.224-.392-.729-.615-.951-1.063,0-.335.447-.112.5-.447a3.47,3.47,0,0,1-.112-1.679c.112-.224.448-.224.448-.5a4.183,4.183,0,0,1-.112-1.678c.056-.335.335-.727.168-1.062-.393-.112-.056-.617-.449-.673a5.432,5.432,0,0,1-1.9-.615c-.335-.112-.559.112-.839.168-.391.112-.839.112-1.118.391-.224.224-.168.5-.168.839-.056.168-.224,0-.336,0a.8.8,0,0,1-.335-.839c.056-.166,0-.278-.168-.391a1.117,1.117,0,0,0-.727-.112c-.28.112-.392.448-.5.727a1.3,1.3,0,0,0,.112.671c.448.448,1.064.617,1.512,1.007.111.28-.112.5-.28.727,0,.224.335.224.28.448a1,1,0,0,1-.951-.224c-.168-.168-.224-.5-.5-.5s-.279.335-.391.5c-.112.224,0,.5-.224.671h-.168a7.743,7.743,0,0,1-2.461-1.4,6.5,6.5,0,0,1-1.118-1.342c-.168-.561-.28-1.288-.951-1.456a.375.375,0,0,0-.392.224l-.056.224c-.335,0-.671-.224-1.063-.112a1.542,1.542,0,0,0-.447.391c0,.392.447.224.5.56,0,.279.224.5.336.727-.112.168-.28.224-.336.391l-.223.561c.112.166.223.391.391.391.28-.112.56.112.895.056.224,0,.5-.168.559.168.112.28,0,.5,0,.727a2.682,2.682,0,0,1-1.062.9.534.534,0,0,0-.112.392c.168.223.5.111.727.111.447,0,.783-.279,1.232-.335a1.353,1.353,0,0,0,.5.615c.336.112.447-.391.783-.28.28.224.168.617.447.9,0,.168-.111.168-.223.224-.392.112-.9,0-1.175.28-.056.168.112.335.224.391a3.636,3.636,0,0,0,1.118.28c.336.056.729-.112,1.064,0l-.112.168-1.062.727a11.24,11.24,0,0,0-1.456.559c-.671.168-.95-.671-1.566-.615a1.019,1.019,0,0,0-.615.224.608.608,0,0,0-.112.615c.112.224.392.112.392.335,0,.616-.56,1.063-.617,1.678,0,.168,0,.337.168.392a.492.492,0,0,0,.392-.056c.112-.112.112-.337.335-.391a1.045,1.045,0,0,0,1.007-.224c.112,0,.28.112.28.224,0,.167,0,.335.168.391.559,0,.783-.559,1.062-.952.224-.056.5-.224.727-.056.112.392-.223.616-.279,1.008,0,.112.112.168.223.168.673-.112,1.008-.671,1.4-1.175.056-.112.112-.279.335-.279.5.166.617-.448.951-.672h.112c.056.168-.056.28,0,.392.224.224.448,0,.671-.056l.448-.28c.559.168,1.118.28,1.678.448.447.168,0,.671.279.951-.056.167-.279.223-.447.223-.951.112-2.071-.111-2.854.56l-.447.447c-.727,0-1.063.615-1.734.727-.447.28-1.12-.112-1.4.392a1.768,1.768,0,0,0,1.23.727c.224.112.5,0,.615.224,0,.223.056.5.336.559.168.056.28-.224.5-.056.224.336.617.5.785.783-.168.28-.5.112-.785.112h-.054c-.392.056-.9.224-1.175-.112-.392-.28-.727-.783-1.342-.783-.336.112-.673.224-.729.615-.054.224.168.28.28.448-.391.279-.783.671-.671,1.174.056.112.112.224.224.224.222,0,.335-.168.559-.056.056.336-.056.839.336,1.008.279-.056.5-.393.839-.112.335.168.615-.168.894-.224.448,0,.617.449.785.783.279.224.671.56,1.062.336.28-.392-.223-.839.28-1.063.28-.112.559,0,.9-.056.5.056,1.063.112,1.342-.447l.448-.727.112-.448c.279-.112.671.392.839-.056a2.218,2.218,0,0,1-.112-1.342,2.013,2.013,0,0,1,.447-.839l.112.056a7.134,7.134,0,0,0,.392,1.566,13.975,13.975,0,0,1-.392,1.454,1.752,1.752,0,0,1-1.007,1.175c-.112.112-.224.224-.112.391.112.224.449.112.673.168a3.21,3.21,0,0,0,1.789-.9c.5.112.729-.447,1.176-.223.447.335,1.286-.28,1.454.5-.056.336.28.951-.279,1.119-.56-.112-1.231-.839-1.79-.168a.407.407,0,0,0-.112.5c.112.168.224.336.056.5-.168.278-.392.615-.224.9.112.167.336.167.5.167.336-.112.617.168.951.168.28.224.56.5.951.448.168-.112.112-.28.224-.392.224-.224.727-.168.727-.615a1.237,1.237,0,0,1,.615-.783c.168-.224.839-.392,1.007-.671Z" transform="translate(-699.326 -976.462)"/><path class="d" d="M710.051,989.94a.952.952,0,0,0,.112.783c.447.5,1.174.671,1.454,1.23h-.168a12.656,12.656,0,0,0-1.622-1.007.681.681,0,0,1-.335-.671c.056-.168.112-.391.335-.447.112-.056.224,0,.224.112Z" transform="translate(-696.568 -976.289)"/><path class="d" d="M715.83,990.515c.112.112,0,.391.28.447a.121.121,0,0,1,.112.112,2.793,2.793,0,0,1-.112.671c-.056.168-.28.224-.28.5,0,.112.168.168.224.334v.9c-.559.168-.279.839-.335,1.176a4.2,4.2,0,0,0,0,.839c-.112.056-.392.056-.448.224a1.868,1.868,0,0,0,.28.839c.224.279.615.335.615.727a1.876,1.876,0,0,1-.783-.28,3.5,3.5,0,0,1-.951-1.063.171.171,0,0,0-.224,0c-.056.28-.056.616-.279.783-.28-.167-.28-.894-.727-.671a6.251,6.251,0,0,1-1.344,2.461c-.112.056-.168.224-.335.224a3.537,3.537,0,0,0,.223-2.406c-.056-.168-.223-.112-.335-.056-.112.112-.224.28-.392.224-.168-.224.168-.617-.223-.783-.28.056-.5.335-.729.447a4.422,4.422,0,0,1-2.237.559.8.8,0,0,1-.391-.11c.167-.224.5-.224.727-.393a14.4,14.4,0,0,0,2.237-2.293c-.056-.336-.336-.727-.056-1.007.224,0,.336.28.5.336a1.207,1.207,0,0,0,1.063.111.782.782,0,0,0,.559-.615c0-.112-.055-.224-.167-.224s-.168,0-.224-.11a.256.256,0,0,1,.224-.28c.391,0,.727.783,1.006.168.168-.5-.335-.9-.671-1.232a.344.344,0,0,1-.112-.391c.28-.168-.056-.392.168-.617.392-.279.951-.11,1.344-.391a16.746,16.746,0,0,0,1.789.839Z" transform="translate(-697.704 -976.361)"/><path class="d" d="M706.342,990.236c0,.112.056.224,0,.28-.112.112-.224,0-.28-.056a.605.605,0,0,1-.168-.392c.056-.447.448,0,.448.168Z" transform="translate(-698.565 -976.25)"/><path class="d" d="M706.38,990.767a4.939,4.939,0,0,1,1.456,1.4,9.042,9.042,0,0,0,3.077,1.791c.056.167-.112.335-.224.447-.391.392-.671.839-1.063,1.175H709.4c-.392-.392-.336-1.119-1.007-1.175-.224,0-.392.28-.615.112s.056-.559-.28-.671c-.392.167-.671.559-1.119.5.28-.5.783-1.007.5-1.622-.056-.28-.224-.615-.5-.671-.279,0-.391.279-.671.168-.112-.224-.615-.112-.391-.449.167-.28.783-.28.559-.727-.168-.224-.615-.112-.615-.447.056-.168-.112-.448,0-.56.5-.112.839.448,1.118.727Z" transform="translate(-698.939 -976.166)"/><path class="d" d="M722.637,990.962c.056.336-.279.559-.168.9.112.168.392.224.336.391-.839,0-1.007,1.12-1.79,1.063-.335-.056-.615-.447-1.007-.279a4.023,4.023,0,0,0-2.518,2.517,1.417,1.417,0,0,0,.28,1.4.25.25,0,0,0,.28,0c.224-.392.391-.895.9-1.007a6.46,6.46,0,0,0,.9-.391c.056,0,.112-.056.112.054-.112.392-.28.839-.729.951-.279.28-.615.561-.615.951,0,.168-.056.448.112.615.168.112.336-.056.447-.111a2.945,2.945,0,0,1,2.239-.839c.056.055-.056.223-.168.223a2.517,2.517,0,0,0-1.622,1.566.25.25,0,0,0,.168.224c.335-.056.615-.28,1.006-.224.112.224-.279.224-.391.448-.671.615,0,1.9-1.119,2.125-.335.112-.279.5-.5.671a1.69,1.69,0,0,1-1.566.561c-.448.056-.783-.561-1.176-.168.056.447.392.671.615,1.063a4.926,4.926,0,0,0,2.015.783c.112,0,.168.112.224.168,0,.167-.224.11-.336.11a2.975,2.975,0,0,1-1.4-.054c-.056,0-.112.054-.168.11.056.5.615.673.951.9.336.168.783.112.9.5v.5a1.1,1.1,0,0,1,.168.839,1.193,1.193,0,0,0-.28,1.288c-.112.111-.336,0-.447.111-.168.336-.561.392-.673.673a.544.544,0,0,1-.447.559c-.224,0-.392.112-.559.056-.112-.168.055-.392-.168-.5-.28-.055-.392.392-.727.224a2.453,2.453,0,0,1-.393-.279c0-.224.168-.28.28-.336.727-.112,1.678-.224,1.9-1.007.056-.391-.11-.671-.054-1.007a1.106,1.106,0,0,0-.951-.727c-.392-.112-.839.056-1.119-.222a.345.345,0,0,0-.391-.112c-.112,0-.168.167-.28.112-.112-.112-.28-.28-.392-.112a2.058,2.058,0,0,1-1.286,1.174c-.112-.168.112-.335.168-.5a9.616,9.616,0,0,0,.447-1.344.866.866,0,0,0,.224-.894,3.932,3.932,0,0,1-.336-2.407,2.837,2.837,0,0,0-.839-2.628c-.391-.224-.783-.672-1.286-.729-.336-.111-.783,0-1.007-.279.056-.337.392-.561.559-.839l.56-.9c.223-.056.167.28.391.28.448,0,.448-.783.9-.5.224.28.559.392.783.671a7.73,7.73,0,0,0,1.622,3.413,2.687,2.687,0,0,0,2.686,1.175c.28-.224.671-.5.727-.9.28-1.959-2.237-2.966-2.069-4.923.167-1.846,2.069-2.854,3.579-3.581.839-.447,1.846-1.007,1.958-2.069a.5.5,0,0,1,.056-.28c.5.112.447.5.5.783Z" transform="translate(-696.064 -976.081)"/><path class="d" d="M711.882,994.615c.223.056.5-.281.615.056a3.881,3.881,0,0,1-.28,1.4c-.224.224-.559.056-.783.168-.335.112-.391.9-.783.392-.168-.056-.28.111-.391.223a3.552,3.552,0,0,1-.673,1.176c-.056.056-.167.112-.223,0-.056-.28.167-.783-.224-.9a1.783,1.783,0,0,0-.5.168c-.335,0-.783,0-.95.279-.056.168-.056.392-.28.392-.224-.112-.447-.168-.559-.392-.112-.056-.224-.167-.336-.056-.168.168-.224.5-.5.5a1.278,1.278,0,0,1-.616-.168c.056-.5.616-.559.951-.783.671-.168,1.232-.615,1.9-.727a8.29,8.29,0,0,0,2.8-2.071,1.025,1.025,0,0,1,.391-.112c.224.168.224.392.448.449Z" transform="translate(-698.846 -973.86)"/><path class="d" d="M706.446,995.949a.859.859,0,0,1-.727.111c-.112-.111-.056-.391-.112-.559.056-.168.28-.112.393-.056.166.168.447.224.447.5Z" transform="translate(-698.725 -973.179)"/><path class="d" d="M715.157,997.885a1.454,1.454,0,0,1-.224.839,2.412,2.412,0,0,0-.839,1.344c0,.391-.056.727-.056,1.062-.112.112-.224-.056-.28-.112-.167-.279-.111-.839-.559-.783-.224.28-.5.673-.336,1.007.224.28.617.5.392.9-.336.168-.224.671-.671.727-.671.112-1.344-.224-1.847.28a2.267,2.267,0,0,0-.391.615c-.28.056-.224-.391-.392-.559-.112-.168-.336-.056-.5-.168-.224-.112-.5-.336-.783-.168-.224.112-.5.448-.785.224l-.391-.112c0-.112.112-.28,0-.447l-.727-.392c-.056-.056,0-.168.056-.224.615-.391,1.342.056,2.069-.056a3.245,3.245,0,0,1,1.456-.056c.279,0,.615.112.783-.167a.522.522,0,0,0,.056-.56c-.224-.5-.9-.559-1.007-1.174a.56.56,0,0,0-.224-.28c-.168-.056-.28.112-.447.056-.056-.168-.112-.336-.28-.392-.336,0-.727.168-1.007-.054.056-.168.28-.112.392-.224a6.824,6.824,0,0,0,1.286-.615l.615-.112c.617-1.007,1.9-.951,3.022-1.007l1.062-.336a1.331,1.331,0,0,1,.56.951Z" transform="translate(-698.093 -972.319)"/><path class="d" d="M707.991,1000a.925.925,0,0,1-.671,0,.781.781,0,0,1-.168-.5c.336-.112.671.223.839.5Z" transform="translate(-697.865 -970.905)"/><path class="d" d="M714.043,1002.1c0,.112-.112.112-.167.112-.112,0-.112-.056-.112-.112,0-.168.223-.056.279,0Z" transform="translate(-694.182 -969.488)"/><path d="M712.479,990.7c.056.168-.056.28-.224.28-.28,0-.5,0-.671-.224-.224-.167-.112-.391-.056-.615a.264.264,0,0,1,.336-.056,3.286,3.286,0,0,1,.615.615Z" transform="translate(-695.471 -976.154)"/><path d="M713.066,990.73a1.008,1.008,0,0,1-.223.5c-.112.056-.224,0-.224-.111a.565.565,0,0,1,.168-.5c.112-.056.279,0,.279.112Z" transform="translate(-694.828 -975.849)"/><path d="M712.452,991.728v.392c-.392.391-.392,1.062-.951,1.286-.168,0-.28-.056-.28-.224a3.765,3.765,0,0,1,0-.783c.224-.112.28.336.5.112a4.876,4.876,0,0,1,.559-.9c.056,0,.168.056.168.112Z" transform="translate(-695.612 -975.28)"/><path d="M701.331,987.34h33.231v2.293H701.331Z" transform="translate(-701.107 -977.662)"/><path class="f" d="M701.331,987.34h33.231v2.293H701.331Z" transform="translate(-701.107 -977.662)"/><path class="d" d="M717.213,987.592h3.748v1.51h-3.748Z" transform="translate(-692.261 -977.522)"/><path class="d" d="M711.931,987.592h3.748v1.51h-3.748Z" transform="translate(-695.203 -977.522)"/><path class="d" d="M706.613,987.592h3.8v1.51h-3.8Z" transform="translate(-698.165 -977.522)"/><path class="d" d="M701.582,987.592H705v1.51h-3.413Z" transform="translate(-700.967 -977.522)"/><path d="M725.038,982.1c.279.336.112.839.168,1.231.279.223.95,0,1.006.559a.541.541,0,0,1-.223.5c-.224.224-.56,0-.727.224-.056.671,0,1.4,0,2.183.223.111.447.111.671.223a.691.691,0,0,1,.223.448.406.406,0,0,1-.335.391c-.168.112-.5,0-.559.224a7.871,7.871,0,0,0-.056,1.176,2.066,2.066,0,0,1-.839.111h-2.686c-.224.112-.5.392-.839.224a4.625,4.625,0,0,0-1.959-.279h-1.957c-.336-.336-.112-.839-.224-1.232-.112-.224-.5-.112-.727-.224a.486.486,0,0,1-.224-.5c0-.224.224-.336.447-.392.168-.112.448.056.5-.167,0-.672-.056-1.4,0-2.015-.056-.392-.559-.168-.783-.336-.224-.111-.224-.391-.168-.615.168-.391.615-.28.951-.391l.056-.112.056-1.175.056-.112,3.076.056a3.394,3.394,0,0,1,1.007.28c.671-.5,1.622-.224,2.406-.392.559.112,1.118,0,1.678.112Z" transform="translate(-693.093 -980.644)"/><path class="g" d="M725.038,982.1c.279.336.112.839.168,1.231.279.223.95,0,1.006.559a.541.541,0,0,1-.223.5c-.224.224-.56,0-.727.224-.056.671,0,1.4,0,2.183.223.111.447.111.671.223a.691.691,0,0,1,.223.448.406.406,0,0,1-.335.391c-.168.112-.5,0-.559.224a7.871,7.871,0,0,0-.056,1.176,2.066,2.066,0,0,1-.839.111h-2.686c-.224.112-.5.392-.839.224a4.625,4.625,0,0,0-1.959-.279h-1.957c-.336-.336-.112-.839-.224-1.232-.112-.224-.5-.112-.727-.224a.486.486,0,0,1-.224-.5c0-.224.224-.336.447-.392.168-.112.448.056.5-.167,0-.672-.056-1.4,0-2.015-.056-.392-.559-.168-.783-.336-.224-.111-.224-.391-.168-.615.168-.391.615-.28.951-.391l.056-.112.056-1.175.056-.112,3.076.056a3.394,3.394,0,0,1,1.007.28c.671-.5,1.622-.224,2.406-.392.559.112,1.118,0,1.678.112Z" transform="translate(-693.093 -980.644)"/><path d="M717.88,982.055a1.187,1.187,0,0,1,.392.168c.112.448,0,.783.112,1.175.279.112.727,0,.894.391a.648.648,0,0,1-.054.56c-.224.279-.729,0-.9.335a13.471,13.471,0,0,0,0,2.127c.223.223.615.054.839.335a.439.439,0,0,1,.11.448c-.166.279-.559.279-.894.335-.112.112,0,.336-.056.448-.112.279.167.671-.168.839-.951.112-1.791-.056-2.742,0h-.9c-.224.166-.559.391-.839.223l-.559-.223h-1.959c-.447,0-1.062.166-1.4-.224a6.736,6.736,0,0,0,0-1.063c-.336-.112-.9.056-1.063-.391a.632.632,0,0,1,.056-.448c.224-.335.839-.056,1.064-.335v-1.007a9.852,9.852,0,0,0,0-1.288c-.336-.111-.951.056-1.007-.447a.464.464,0,0,1,.336-.559c.223-.056.559.056.671-.168l.056-1.063c.278-.447.951-.168,1.342-.224h2.071c.335.056.615.336.951.168,1.006-.391,2.406,0,3.636-.112Z" transform="translate(-697.013 -980.657)"/><path class="g" d="M721.826,982.055a1.186,1.186,0,0,1,.392.168c.112.448,0,.783.112,1.175.279.112.727,0,.894.391a.648.648,0,0,1-.055.56c-.224.279-.729,0-.9.335a13.486,13.486,0,0,0,0,2.127c.223.223.615.054.839.335a.439.439,0,0,1,.11.448c-.167.279-.559.279-.894.335-.112.112,0,.336-.056.448-.112.279.167.671-.168.839-.951.112-1.791-.056-2.742,0h-.9c-.224.166-.559.391-.839.223l-.559-.223h-1.959c-.447,0-1.062.166-1.4-.224a6.736,6.736,0,0,0,0-1.063c-.336-.112-.9.056-1.063-.391a.633.633,0,0,1,.056-.448c.224-.335.839-.056,1.063-.335v-1.007a9.852,9.852,0,0,0,0-1.288c-.336-.111-.951.056-1.007-.447a.464.464,0,0,1,.336-.559c.223-.056.559.056.671-.168l.056-1.063c.279-.447.951-.168,1.342-.224h2.071c.335.056.615.336.951.168,1.006-.391,2.406,0,3.636-.112Zm-15.218.224c1.12-.447,2.351-.112,3.581-.224.336.056.783-.168,1.007.168v1.063c.112.279.5.112.671.224a.453.453,0,0,1,.28.279.792.792,0,0,1-.056.5c-.224.223-.5.167-.783.223l-.112.112c.056.671-.112,1.232,0,1.847,0,.112-.056.336.112.391a1.069,1.069,0,0,1,.839.224.642.642,0,0,1,.056.56c-.112.671-1.175-.112-1.063.671a2.723,2.723,0,0,1-.056.951c-1.23,0-2.461-.112-3.581,0a1.674,1.674,0,0,1-.783.335,1.35,1.35,0,0,1-.615-.335c-1.119-.056-2.181-.056-3.245-.056-.336-.28-.112-.783-.224-1.176-.168-.224-.447-.056-.671-.168-.168,0-.224-.168-.28-.279a.8.8,0,0,1,.168-.616,1.309,1.309,0,0,1,.671-.112l.112-.11a15.1,15.1,0,0,0-.056-2.239c-.112-.167-.335,0-.447-.112a.617.617,0,0,1-.5-.391.449.449,0,0,1,.112-.5c.224-.28.673.055.9-.224l.112-1.063c.168-.336.559-.168.9-.168a9.547,9.547,0,0,1,1.791,0,3.644,3.644,0,0,1,1.174.224Z" transform="translate(-700.959 -980.657)"/><path class="d" d="M705.592,982.431l.112.223c.054,1.512.054,3.022.054,4.644l-.054.559a8.371,8.371,0,0,0-1.176-.112,9.445,9.445,0,0,1-1.286-.056,5.163,5.163,0,0,1-.112-1.622c0-1.118.056-2.518.056-3.691,0-.112.111-.112.167-.168.783.056,1.622-.168,2.239.224Z" transform="translate(-700.109 -980.529)"/><path class="d" d="M703.364,982.314c-.223.168-.5.447-.391.727.112,1.9,0,3.581.112,5.37l.167.168a14.244,14.244,0,0,1,2.686.056c.056,0,.056.112,0,.112a1.608,1.608,0,0,1-.727.056l-2.293-.056c-.168-.112-.112-.391-.112-.615s.056-.5-.168-.615c-.335-.056-.615,0-.839-.224.168-.448.9-.112,1.007-.56.056-.839-.056-1.677,0-2.461-.112-.447-.559-.335-.9-.391a.291.291,0,0,1-.112-.224c.28-.279.839.056,1.007-.335a6.435,6.435,0,0,0,.056-1.063,1.385,1.385,0,0,1,.5-.056v.112Z" transform="translate(-700.847 -980.524)"/><path class="d" d="M707.915,982.334v5.314a23.42,23.42,0,0,0-2.8.168c-.224-.168-.056-.447-.112-.727-.056-.559,0-1.23,0-1.847,0-.9-.056-1.845,0-2.74.112-.28.448-.336.727-.336h2.127l.056.168Z" transform="translate(-699.075 -980.544)"/><path class="d" d="M708.8,982.314c.056.335-.112.839.112,1.174a3.786,3.786,0,0,0,.783.112c.112.112.056.224,0,.336-.223.224-.783-.056-.9.335,0,.9-.056,1.734,0,2.63l.112.112c.28.056.671-.056.839.168,0,.112,0,.28-.112.336-.279.054-.727-.112-.9.222a6.768,6.768,0,0,1-.056,1.064l-.167.056-3.189-.056a.078.078,0,0,1,0-.112l.335-.112h2.574c.28-.056.28-.391.28-.615v-3.581a6.393,6.393,0,0,0-.056-1.791c0-.111-.224-.223-.224-.391a.836.836,0,0,1,.559.112Z" transform="translate(-698.894 -980.524)"/><path class="d" d="M717.416,982.307c-.056.168-.28.335-.336.5,0,1.847,0,3.861.056,5.762l.168.112a6.254,6.254,0,0,1,2.91.224c.054,0,0,0,0,.056-1.063,0-2.183.056-3.246,0l-.111-.112a4.179,4.179,0,0,0-.112-1.176c-.224-.223-.951.056-.783-.447.279-.224.671.056.839-.28,0-.951.056-1.79,0-2.685-.224-.279-.56-.111-.839-.167-.112-.112-.168-.224-.056-.336.279-.224,1.174.056,1.007-.615.11-.28-.112-.839.279-.9a.139.139,0,0,1,.224.056Z" transform="translate(-693.023 -980.517)"/><path class="d" d="M722.767,982.312c.112.447-.112.839.168,1.23.224.112.671-.056.783.224,0,.559-.783.112-.951.559.056.839-.056,1.566,0,2.462a.138.138,0,0,0-.056.224c.224.224.559-.112.839.112.168.056.056.168.056.28-.224.279-.671-.056-.839.335l-.056,1.12-.168.056h-3.02c-.056-.056,0-.056,0-.112l.336-.112h2.293a.3.3,0,0,0,.279-.28c0-1.789-.056-3.636-.056-5.538l-.279-.559c.279-.112.615-.168.671,0Z" transform="translate(-690.989 -980.521)"/><path class="d" d="M717.21,982.941v4.867a1.322,1.322,0,0,1-.28.28l-.112-.056v-5.316c.112-.112.168-.279.28-.335a1,1,0,0,1,.112.559Z" transform="translate(-692.482 -980.423)"/><path class="d" d="M721.435,982.715c-.056,1.288,0,2.461,0,3.637v1.566c0,.056,0,.056-.056.112-.392-.168-.224-.56-.28-.951a6.939,6.939,0,0,1,.056-1.51l-.056-.168v-2.964c.112-.168.28.11.336.279Z" transform="translate(-690.105 -980.422)"/><path class="d" d="M707.378,982.578c0,1.846,0,3.637-.056,5.259-.056.112-.112,0-.224-.056a2.4,2.4,0,0,1,0-.9c-.056-1.454,0-2.964,0-4.42.112-.11.224.056.28.112Z" transform="translate(-697.923 -980.397)"/><path class="d" d="M719.35,984.26c-.056.11-.224.11-.336.056l-.112-.056c.056-.224,0-.561.224-.729.168.168.112.5.224.729Z" transform="translate(-691.321 -979.784)"/><path class="d" d="M708.177,986.183c-.056.112-.279.056-.391.112h-.727a8.4,8.4,0,0,0-1.678.055c-.112,0-.168-.11-.168-.223.056-.224.335-.112.5-.224H707.9l.279.28Z" transform="translate(-698.945 -978.462)"/><path class="d" d="M705.573,986.051a.368.368,0,0,1-.224.279,15.442,15.442,0,0,0-2.293-.167h0a.378.378,0,0,1,.335-.224,13.877,13.877,0,0,1,2.183.112Z" transform="translate(-700.146 -978.442)"/><path class="d" d="M719.866,986.153c.056.056.056.167,0,.167-.28.336-.615-.055-.951,0-.559-.055-1.23,0-1.845-.055.167-.5.838-.224,1.23-.281.559.056,1.119-.112,1.566.168Z" transform="translate(-692.341 -978.432)"/><path class="d" d="M721.95,986.051a.373.373,0,0,1,.224.279,20.9,20.9,0,0,0-2.686.112c-.112,0-.168-.167-.112-.279.168-.224.448-.168.727-.224l1.846.112Z" transform="translate(-691.068 -978.442)"/><path class="d" d="M705.383,986.378a.537.537,0,0,1-.112.5.345.345,0,0,1-.392.056c-.11,0-.167-.168-.167-.28-.056-.224.222-.336.335-.5a.377.377,0,0,1,.336.223Z" transform="translate(-699.228 -978.322)"/><path class="d" d="M719.521,986.45c0,.224,0,.5-.223.5a.375.375,0,0,1-.392-.224.494.494,0,0,1,.224-.5.4.4,0,0,1,.391.224Z" transform="translate(-691.325 -978.283)"/><path class="d" d="M715.083,982.37v5.314l-.112.056a11.565,11.565,0,0,0-2.8.168c-.168-.112,0-.336-.056-.5v-4.7a.378.378,0,0,1,.224-.335c.223-.168.559-.112.894-.168l1.79.056.056.112Z" transform="translate(-695.11 -980.524)"/><path class="d" d="M715.968,982.334a8.22,8.22,0,0,0,.056,1.174c.28.224,1.063-.111.9.5-.224.168-.561.056-.839.112l-.112.056c-.112.9.056,1.845,0,2.628a.286.286,0,0,0,.224.28c.223,0,.615-.168.727.168-.056.559-.727.056-.951.447-.056.392.112.783-.056,1.176l-.112.056c-1.174,0-2.293,0-3.357-.056-.056,0,0-.112,0-.112l.224-.112c.9-.112,1.9,0,2.852-.112a.256.256,0,0,0,.224-.279v-5.428c-.056-.279-.335-.447-.335-.671.167.056.447,0,.559.168Z" transform="translate(-694.932 -980.544)"/><path class="d" d="M710.493,982.25c-.056.224-.224.28-.336.447a7.323,7.323,0,0,0-.056,1.119v4.532a.372.372,0,0,0,.224.279l2.406.056a.605.605,0,0,1,.392.168c-.056.112-.224.112-.336.112a22.341,22.341,0,0,1-2.74-.056l-.112-.056a2.729,2.729,0,0,0-.168-1.176c-.28-.112-.615,0-.9-.112-.112-.055-.112-.223,0-.335.28-.168.839.112,1.007-.336,0-.9.056-1.734,0-2.629-.224-.335-.783,0-1.007-.335.112-.5.783-.056,1.007-.5l.056-1.062a.55.55,0,0,1,.559-.112Z" transform="translate(-696.954 -980.516)"/><path class="d" d="M710.243,982.458c.056,1.566-.112,2.964,0,4.531-.112.336.166.9-.336.951-.112-1.566,0-3.245-.056-4.923a.679.679,0,0,1,.336-.671l.056.112Z" transform="translate(-696.368 -980.443)"/><path class="d" d="M714.535,982.681c0,1.734.056,3.581-.054,5.2a.25.25,0,0,1-.224-.168c0-.671-.112-1.4-.056-2.125.056-.951-.056-2.127.056-3.134.112-.055.279.112.279.224Z" transform="translate(-693.948 -980.388)"/><path class="d" d="M712.711,986.071c.112,0,.224.112.112.224l-.167.167a13.485,13.485,0,0,0-2.63-.223,1.193,1.193,0,0,1,.223-.336c.839.112,1.678,0,2.461.168Z" transform="translate(-696.263 -978.462)"/><path class="d" d="M715.132,985.948a.373.373,0,0,1,.224.28l-.112.056a11.657,11.657,0,0,0-2.8.111c-.111,0-.279,0-.335-.167a.567.567,0,0,1,.559-.28c.9-.056,1.678,0,2.462,0Z" transform="translate(-695.103 -978.451)"/><path class="d" d="M712.4,986.526c0,.168,0,.392-.224.392-.168,0-.392,0-.392-.224a.754.754,0,0,1,.336-.392c.168-.056.224.112.28.224Z" transform="translate(-695.283 -978.246)"/><path class="d" d="M712.8,985.95c.112-.894,0-1.9.056-2.8a1.244,1.244,0,0,0-.168-.783,7.632,7.632,0,0,0-2.294-.168c-.056,0-.112,0-.112.056v5.2l.056.223a7.863,7.863,0,0,0,1.622.056l.839.168a16.711,16.711,0,0,0,0-1.678v-.28Z" transform="translate(-696.124 -980.524)"/><path d="M712.451,985.453c-.279-.223-.335-.559-.559-.838.112-.112.224-.168.336-.28a.813.813,0,0,0,.279-.671.615.615,0,0,0-.335-.561,3.688,3.688,0,0,0-1.566-.056c-.112.056-.112.112-.056.224a.264.264,0,0,1,.279.28,10.361,10.361,0,0,1-.111,1.847l-.224.279c.224.224.559.056.951.112.112-.168-.168-.28-.224-.447.056-.168,0-.448.112-.56.335.28.447.783.839,1.063l.5.056v-.28c0-.056-.168-.168-.224-.168Zm-.671-1.118c-.168,0-.391.112-.447-.112a2.712,2.712,0,0,1,0-.951.463.463,0,0,1,.671.112.919.919,0,0,1,.112.559c-.112.168-.168.336-.336.392Z" transform="translate(-696.003 -980.083)"/><path class="d" d="M723.013,982.873a1.1,1.1,0,0,0-.112-.615h-.839c-.559.112-1.23-.112-1.734.224-.223.279-.111.559-.167.9.056.167.112.391.167.559l-.111.224-.28-.112-.112-.224a.81.81,0,0,0,.112-.393c0-.391.112-.95-.392-1.118-.727-.056-1.4-.112-2.181-.112-.056,0-.112,0-.112.056v4.923c0,.224-.056.447.168.559a10.193,10.193,0,0,1,1.847,0c.223,0,.391.224.671.168.056-.671.056-1.51.056-2.293,0-.056,0-.224-.112-.224v-.168l.392.056.054.112-.054.056-.056,2.293c0,.056,0,.224.167.224.672-.392,1.568-.112,2.351-.224l.167-.056a9.822,9.822,0,0,0,.056-1.734c.056-1.006.056-2.013.056-3.076Z" transform="translate(-692.244 -980.524)"/><path d="M720.243,985.01a.436.436,0,0,1,.112.449l-.168.223.112.112a2.415,2.415,0,0,0,.9-.056c-.056-.112-.223-.168-.335-.279a19.326,19.326,0,0,1-.783-2.574l-.28.167c-.168.785-.448,1.456-.671,2.239-.056.168-.224.168-.336.279-.168.056-.224-.11-.28-.223,0-.671.056-1.232,0-1.959,0-.112.112-.224.224-.112.168.112.168.336.224.448.112.056.224.056.224-.056l.112-.671c-.112-.224-.28,0-.448,0a2.577,2.577,0,0,1-1.119-.112c-.279.112-.223.447-.223.727v.112c.223-.168.335-.5.615-.448V985.4c-.112.11-.336.167-.28.335a9.051,9.051,0,0,0,1.232.056,2.687,2.687,0,0,0,.671,0c.056-.056,0-.112,0-.168-.112-.056-.28-.167-.224-.335.056-.112.112-.336.28-.28.056,0,.056,0,.112.056l.335.056h0c-.056-.056-.056-.112,0-.112Zm-.5-.28-.112-.054c.056-.224,0-.561.224-.729.224.112.168.448.28.673-.056.11-.28.11-.392.11Z" transform="translate(-692.103 -980.143)"/><path d="M720.992,983.128c0,.168.112.448,0,.56-.168-.112-.168-.28-.448-.336-.111,0-.279,0-.279.168-.056.5.447.5.727.783a1,1,0,0,1,.28,1.007c-.112.279-.224.391-.5.391-.224.056-.391-.112-.559,0-.056,0-.112.056-.168,0v-.9c0-.056.056-.056.112-.056.112.28.056.617.447.673a.286.286,0,0,0,.28-.224c.056-.783-1.007-.615-1.007-1.454a1.639,1.639,0,0,1,.112-.5c.168-.279.615-.112.9-.279.056-.056.056.11.112.167Z" transform="translate(-690.781 -980.107)"/><path d="M713.776,983.063a.565.565,0,0,0-.392.617,8.391,8.391,0,0,0,0,1.678l.336.335v.056a7.458,7.458,0,0,1-1.119,0c-.168-.168.224-.28.28-.391a11.425,11.425,0,0,0,.056-1.959c-.112-.224-.448-.168-.392-.392a3.856,3.856,0,0,1,1.119,0l.112.056Z" transform="translate(-694.865 -980.098)"/><path d="M706.935,983.556c-.224.28-.281-.224-.5-.28-.112,0-.335-.056-.447.056a1.424,1.424,0,0,0,0,.839.949.949,0,0,0,.391.056c.112-.112.224-.336.392-.336.112.112-.056.28,0,.392-.056.168.112.392-.112.447-.112-.054-.224-.335-.391-.335h-.336a2.763,2.763,0,0,0,0,1.174c.168.168.391,0,.615,0,.28-.056.224-.447.448-.447a.963.963,0,0,1,.056.559l-.112.112h-1.622c-.056,0-.224,0-.168-.112.5-.335.224-.951.28-1.4-.056-.336.223-.9-.28-1.119,0-.112.112-.112.168-.112.391,0,.951.168,1.286-.167.336.112.336.447.336.671Z" transform="translate(-698.989 -980.143)"/><path d="M705.5,983.183c-.448.336-.448,1.007-.673,1.51-.166.28-.111.729-.391.951-.112.056-.224-.056-.224-.168a14.459,14.459,0,0,0-.615-2.069c0-.168-.5-.224-.224-.393.336-.054.56.056.9,0,.056.224-.224.336-.168.561.224.279.112.727.392,1.063l.112-.112c0-.5.615-1.007.112-1.456.111-.223.447-.056.671-.11.056.054.224.11.112.223Z" transform="translate(-700.016 -980.106)"/><path class="d" d="M703.061,982.418c.112,1.845,0,3.579,0,5.314a.241.241,0,0,1-.224.224,5.626,5.626,0,0,1-.056-1.678c-.056-1.176,0-2.406,0-3.581a.3.3,0,0,1,.28-.279Z" transform="translate(-700.32 -980.403)"/></g></g></svg>