<?xml version="1.0" encoding="utf-8"?>
<!-- Generator: Adobe Illustrator 20.1.0, SVG Export Plug-In . SVG Version: 6.00 Build 0)  -->
<svg version="1.1" id="Layer_1" xmlns="http://www.w3.org/2000/svg" xmlns:xlink="http://www.w3.org/1999/xlink" x="0px" y="0px"
	 viewBox="0 0 594 146" style="enable-background:new 0 0 594 146;" xml:space="preserve">
<style type="text/css">
	.st0{clip-path:url(#SVGID_2_);fill:#12034E;}
	.st1{clip-path:url(#SVGID_2_);fill:#D3D2D2;}
	.st2{clip-path:url(#SVGID_2_);fill:#8D248A;}
</style>
<g>
	<defs>
		<rect id="SVGID_1_" width="594" height="146"/>
	</defs>
	<clipPath id="SVGID_2_">
		<use xlink:href="#SVGID_1_"  style="overflow:visible;"/>
	</clipPath>
	<path class="st0" d="M192.4,34.9l23.1-5.3v112.6h-23.1V34.9z M300.1,129.2c-7.4,9.4-19.6,14.8-31.6,14.8
		c-23.1,0-41.6-15.4-41.6-39.3c0-23.9,18.5-39.3,41.6-39.3c21.6,0,35.2,15.4,35.2,39.3v7.2H250c1.9,8.8,8.5,14.5,17.4,14.5
		c7.6,0,12.6-3.8,16.5-9.1L300.1,129.2z M280.5,96.2c0.2-7.7-5.9-14.2-14.2-14.2c-10.2,0-15.7,6.9-16.3,14.2H280.5z M431.9,142.1
		h-21.3v-9.9h-0.3c-3.6,5.4-12.5,11.7-23,11.7c-22.2,0-36.8-16-36.8-38.7c0-20.8,12.9-39.9,34.2-39.9c9.5,0,18.5,2.6,23.7,9.9h0.3
		V34.9l23.1-5.3V142.1z M392.1,85.7c-11.6,0-18.5,7.7-18.5,19c0,11.3,6.9,19,18.5,19c11.6,0,18.5-7.7,18.5-19
		C410.6,93.4,403.7,85.7,392.1,85.7 M483.2,65.4c23.1,0,41.6,15.4,41.6,39.3c0,23.9-18.5,39.3-41.6,39.3
		c-23.1,0-41.6-15.4-41.6-39.3C441.6,80.8,460.1,65.4,483.2,65.4 M483.2,123.6c11.5,0,18.5-7.7,18.5-19c0-11.3-7-19-18.5-19
		c-11.6,0-18.5,7.7-18.5,19C464.7,115.9,471.6,123.6,483.2,123.6 M576.9,89.3c-3.4-4.2-7.9-6.3-13.4-6.3c-3.9,0-8.5,1.7-8.5,6.2
		c0,11.1,39,1.7,39,30.2c0,19.1-18.5,24.7-34.5,24.7c-10.5,0-22-2.6-29.4-10.2l14-15.6c4.3,5.2,9.4,8.2,16.3,8.2
		c5.2,0,10.5-1.4,10.5-5.4c0-12-39-1.9-39-30.4c0-17.6,15.7-25.3,31.4-25.3c9.9,0,20.8,2.5,27.8,9.9L576.9,89.3z M316.1,67.2h23.1
		v74.9h-23.1V67.2z M339.3,35h-23.1v19.2h23.1V35z"/>
	<path class="st1" d="M78.8,85.3L53.6,66.6l118.9-35.3L78.8,85.3z M0,26.9l24.2,18l6.2-17.2L0,26.9z"/>
	<path class="st0" d="M40.4,0l-10,27.7l142,3.6L40.4,0z M11.9,79l41.7-12.4L24.2,44.9L11.9,79z"/>
	<polygon class="st2" points="30.5,27.7 24.2,44.9 53.6,66.6 172.5,31.3 	"/>
</g>
</svg>
