<?xml version="1.0" encoding="UTF-8" standalone="no"?>
<!-- Created with Inkscape (http://www.inkscape.org/) -->

<svg
   xmlns:dc="http://purl.org/dc/elements/1.1/"
   xmlns:cc="http://creativecommons.org/ns#"
   xmlns:rdf="http://www.w3.org/1999/02/22-rdf-syntax-ns#"
   xmlns:svg="http://www.w3.org/2000/svg"
   xmlns="http://www.w3.org/2000/svg"
   xmlns:sodipodi="http://sodipodi.sourceforge.net/DTD/sodipodi-0.dtd"
   xmlns:inkscape="http://www.inkscape.org/namespaces/inkscape"
   width="64"
   height="64"
   viewBox="0 0 64.000001 64.000001"
   id="svg5133"
   version="1.1"
   inkscape:version="0.48.5 r10040"
   sodipodi:docname="logo-light.svg"
   inkscape:export-filename="f:\research\drummondlab.github.io\assets\images\favicon.png"
   inkscape:export-xdpi="90"
   inkscape:export-ydpi="90">
  <defs
     id="defs5135" />
  <sodipodi:namedview
     id="base"
     pagecolor="#ffffff"
     bordercolor="#666666"
     borderopacity="1.0"
     inkscape:pageopacity="0.0"
     inkscape:pageshadow="2"
     inkscape:zoom="11.2"
     inkscape:cx="71.117037"
     inkscape:cy="30.78192"
     inkscape:document-units="px"
     inkscape:current-layer="layer1"
     showgrid="false"
     units="px"
     inkscape:window-width="2560"
     inkscape:window-height="1388"
     inkscape:window-x="-8"
     inkscape:window-y="-8"
     inkscape:window-maximized="1" />
  <metadata
     id="metadata5138">
    <rdf:RDF>
      <cc:Work
         rdf:about="">
        <dc:format>image/svg+xml</dc:format>
        <dc:type
           rdf:resource="http://purl.org/dc/dcmitype/StillImage" />
        <dc:title></dc:title>
      </cc:Work>
    </rdf:RDF>
  </metadata>
  <g
     inkscape:label="Layer 1"
     inkscape:groupmode="layer"
     id="layer1"
     transform="translate(0,-988.36216)">
    <path
       style="fill:#cccccc;fill-opacity:1;stroke:#999999;stroke-width:1.99999988000000010;stroke-linecap:round;stroke-linejoin:round;stroke-miterlimit:4;stroke-opacity:1;stroke-dasharray:none;stroke-dashoffset:0"
       d="m 50.532177,993.52754 a 9.778862,11.408673 45.003995 0 0 -8.93681,3.70362 9.778862,11.408673 45.003995 0 0 -3.672661,7.74344 19.730445,23.018852 45.003995 0 0 -24.543035,6.0641 19.730445,23.018852 45.003995 0 0 -2.326019,30.229 19.730445,23.018852 45.003995 0 0 30.229626,-2.326 19.730445,23.018852 45.003995 0 0 6.198693,-24.1925 9.778862,11.408673 45.003995 0 0 7.94364,-3.6898 9.778862,11.408673 45.003995 0 0 1.151801,-14.98174 9.778862,11.408673 45.003995 0 0 -6.045235,-2.55012 z"
       id="path5681"
       inkscape:connector-curvature="0" />
    <circle
       r="10.796005"
       cy="1031.2122"
       cx="30.80965"
       id="circle5688"
       style="fill:#666666;fill-opacity:1;stroke:#999999;stroke-width:2.26549625000000000;stroke-linecap:round;stroke-linejoin:round;stroke-miterlimit:4;stroke-opacity:1;stroke-dasharray:none;stroke-dashoffset:0"
       d="m 41.605656,1031.2122 c 0,5.9624 -4.833537,10.796 -10.796006,10.796 -5.962469,0 -10.796005,-4.8336 -10.796005,-10.796 0,-5.9625 4.833536,-10.796 10.796005,-10.796 5.962469,0 10.796006,4.8335 10.796006,10.796 z"
       sodipodi:cx="30.80965"
       sodipodi:cy="1031.2122"
       sodipodi:rx="10.796005"
       sodipodi:ry="10.796005"
       transform="matrix(0.88281817,0,0,0.88279934,3.8100599,119.54167)" />
    <g
       id="g5745"
       transform="matrix(0.87971012,0.07401207,-0.07401365,0.87969136,78.722197,119.24343)"
       style="stroke:#999999;stroke-width:1.13274813;stroke-opacity:1">
      <path
         sodipodi:nodetypes="zzzzz"
         inkscape:connector-curvature="0"
         id="path5692"
         d="m 21.702503,1013.212 c -0.234722,1.8399 0.550779,5.1836 1.260351,5.7541 0.709667,0.5706 0.02855,-3.864 0.123193,-5.6303 0.09465,-1.7664 1.763756,-5.5471 0.866411,-5.4372 -0.897251,0.1099 -2.015035,3.4736 -2.249955,5.3134 z"
         style="fill:#4d4d4d;fill-rule:evenodd;stroke:#999999;stroke-width:1.13274813px;stroke-linecap:butt;stroke-linejoin:miter;stroke-opacity:1" />
      <path
         style="fill:#4d4d4d;fill-rule:evenodd;stroke:#999999;stroke-width:1.13274813px;stroke-linecap:butt;stroke-linejoin:miter;stroke-opacity:1"
         d="m 25.621912,1012.9676 c -0.260942,2.1223 0.689514,5.9894 1.528132,6.654 0.838617,0.6645 0.0019,-4.4613 0.09866,-6.4999 0.09687,-2.0387 2.027515,-6.3903 0.973883,-6.2707 -1.053538,0.1196 -2.339727,3.9942 -2.600678,6.1166 z"
         id="path5694"
         inkscape:connector-curvature="0"
         sodipodi:nodetypes="zzzzz" />
      <path
         sodipodi:nodetypes="zzzzz"
         inkscape:connector-curvature="0"
         id="path5696"
         d="m 29.824252,1012.2556 c -0.234818,1.8398 0.550778,5.1836 1.26035,5.7541 0.709573,0.5706 0.02856,-3.864 0.123193,-5.6303 0.09465,-1.7664 1.763662,-5.5471 0.866411,-5.4372 -0.89725,0.1099 -2.015035,3.4737 -2.249954,5.3134 z"
         style="fill:#4d4d4d;fill-rule:evenodd;stroke:#999999;stroke-width:1.13274813px;stroke-linecap:butt;stroke-linejoin:miter;stroke-opacity:1" />
    </g>
    <g
       id="g5722"
       transform="matrix(0.88281817,0,0,0.88279934,31.789689,118.31549)"
       style="stroke:#999999;stroke-width:1.13274813000000000;stroke-opacity:1;fill:#666666">
      <rect
         ry="3.8392856"
         y="1022.1836"
         x="-24.464285"
         height="16.071428"
         width="7.6785712"
         id="rect5708"
         style="fill:#666666;fill-opacity:1;stroke:#999999;stroke-width:2.26549625000000000;stroke-linecap:round;stroke-linejoin:round;stroke-miterlimit:4;stroke-opacity:1;stroke-dasharray:none;stroke-dashoffset:0" />
      <path
         inkscape:connector-curvature="0"
         id="path5710"
         d="m -23.896421,1027.203 c 0.126269,-0.063 2.872621,0 2.872621,0"
         style="fill:#666666;stroke:#999999;stroke-width:1.69912230999999990;stroke-linecap:round;stroke-linejoin:round;stroke-miterlimit:4;stroke-opacity:1;stroke-dasharray:none" />
      <path
         style="fill:#666666;stroke:#999999;stroke-width:1.69912230999999990;stroke-linecap:round;stroke-linejoin:round;stroke-miterlimit:4;stroke-opacity:1;stroke-dasharray:none"
         d="m -20.108349,1029.2233 c 0.126269,-0.063 2.872621,0 2.872621,0"
         id="path5712"
         inkscape:connector-curvature="0" />
      <path
         inkscape:connector-curvature="0"
         id="path5714"
         d="m -24.02269,1031.5277 c 0.126269,-0.063 2.872621,0 2.872621,0"
         style="fill:#666666;stroke:#999999;stroke-width:1.69912230999999990;stroke-linecap:round;stroke-linejoin:round;stroke-miterlimit:4;stroke-opacity:1;stroke-dasharray:none" />
      <path
         style="fill:#666666;stroke:#999999;stroke-width:1.69912230999999990;stroke-linecap:round;stroke-linejoin:round;stroke-miterlimit:4;stroke-opacity:1;stroke-dasharray:none"
         d="m -20.203051,1033.7374 c 0.126269,-0.063 2.872621,0 2.872621,0"
         id="path5716"
         inkscape:connector-curvature="0" />
      <path
         inkscape:connector-curvature="0"
         id="path5718"
         d="m -24.054258,1035.5683 c 0.126269,-0.063 2.872621,0 2.872621,0"
         style="fill:#666666;stroke:#999999;stroke-width:1.69912230999999990;stroke-linecap:round;stroke-linejoin:round;stroke-miterlimit:4;stroke-opacity:1;stroke-dasharray:none" />
      <path
         style="fill:#666666;stroke:#999999;stroke-width:1.69912230999999990;stroke-linecap:round;stroke-linejoin:round;stroke-miterlimit:4;stroke-opacity:1;stroke-dasharray:none"
         d="m -20.360888,1025.0248 c 0.126269,-0.063 2.872621,0 2.872621,0"
         id="path5720"
         inkscape:connector-curvature="0" />
    </g>
    <path
       style="fill:#666666;fill-opacity:1;stroke:#999999;stroke-width:1.99999988000000010;stroke-linecap:round;stroke-linejoin:round;stroke-miterlimit:4;stroke-opacity:1;stroke-dasharray:none;stroke-dashoffset:0"
       d="m 46.668123,1001.1828 c -2.80119,0 -5.072752,2.2715 -5.072756,5.0726 -1e-6,1.1158 0.0095,1.9557 0.06724,2.6347 -0.698823,-0.099 -1.601284,-0.1276 -2.798464,-0.1276 -2.801183,0 -5.071021,2.2715 -5.071032,5.0726 -2.8e-5,2.8012 2.269821,5.0709 5.071032,5.0709 2.80121,0 5.072756,-2.2697 5.072756,-5.0709 0,-1.0859 -0.01159,-1.922 -0.08104,-2.5949 0.700887,0.076 1.605263,0.087 2.812259,0.087 2.801193,0 5.071035,-2.2698 5.071032,-5.071 -1e-6,-2.8011 -2.269842,-5.0726 -5.071032,-5.0726 z"
       id="circle5737"
       inkscape:connector-curvature="0" />
  </g>
</svg>
