<svg version="1.1" id="Calque_1" xmlns="http://www.w3.org/2000/svg" x="0" y="0" viewBox="0 0 974.8 196.9" xml:space="preserve"><style type="text/css">.st0{fill:#00159e}</style><path class="st0" d="M110.7 128.9c-3-7.5-6.3-14.8-10-22L50 7C46.4.1 42.8 0 34.9 0H0v196.9h40.3V83.7c-.1-6-.4-12-1.1-18L91.6 167c3.2 6.4 8.9 9.6 16 9.6h6.2c7 0 12.7-3.2 16-9.6l41.6-80.8V7l-50.7 99.5c-3.7 7.3-7 14.8-10 22.4zm365.7-84.4c-6-.1-11.9 2.1-16.3 6.2l1.7 3c.5 1 1.6 1.7 2.8 1.7 3.1 0 4.5-3.5 10.7-3.5 4.2 0 6.5 2.5 6.5 7.7V62c-17.9.4-23.5 6.6-23.5 12.4 0 7 4.7 10.6 11.4 10.6 5.6 0 9-1.9 13-5.4l.8 2.8c.5 1.6 1.5 2 3.2 2h4.2V59.7c0-8.9-5.4-15.2-14.5-15.2zm5.3 29.8c-2.7 2.8-5.3 4.2-9.1 4.2-3.2 0-5.3-1.3-5.3-4.6s3.4-5.7 14.5-6.2v6.6zm25.7-22l-.6-4.7c-.3-1.7-.8-2.4-2.8-2.4h-5.5v39.2h9.5V60.1c2-4.2 4.7-6.4 8.6-6.4 1.4.1 2.8.3 4.2.5.7.1 1.4-.4 1.5-1.2l1.2-7.1c-1.4-.9-3.1-1.4-4.8-1.3-4.7-.1-8.5 2.9-11.3 7.7zm40.8 10.1c1.1-.7 2-1.6 2.8-2.6l12.2-14.6h-8.6c-1.3 0-2.5.6-3.3 1.6l-9.8 12c-.6.9-1.6 1.4-2.6 1.3h-1.8V27.7h-9.4v56.8h9.4v-18h2.1c1.5 0 2.1.2 2.9 1.4l10 14.9c.7 1.1 1.9 1.8 3.2 1.7h8.5l-13.1-19c-.6-1.2-1.5-2.2-2.5-3.1zM440.3 30.9L424 61.5c-.9 1.7-1.7 3.5-2.3 5.3-.7-1.8-1.4-3.5-2.3-5.2l-16.5-30.7c-.8-1.6-1.7-1.6-3.5-1.6h-7.8v55.3h9V48.8c0-1.6-.1-3.1-.3-4.7l16.9 31.4c.7 1.4 2.1 2.3 3.7 2.3h1.4c1.5 0 2.9-.9 3.6-2.3l16.7-31.3c-.1 1.6-.2 3.2-.2 4.6v35.7h9.1V29.2h-7.8c-1.7 0-2.5.1-3.4 1.7zm-194.6 6.8h16.7v46.8h10.3V37.7h16.6v-8.4h-43.6v8.4zm68.7 7c-4.3 0-8.5 1.7-11.5 4.8V27.7h-9.4v56.8h9.4V56.1c2.6-2.6 5.4-4.1 8.6-4.1 4.4 0 6.6 2.8 6.6 7.5v25h9.4v-25c.1-8.7-4.5-14.8-13.1-14.8zm54.2 17.7c0-11.3-7.1-17.8-17-17.8-11.7 0-18.8 8.7-18.8 19.4 0 13.7 8.4 21 19.3 21 5.5 0 12-1.5 16.2-6.4l-2.8-3.4c-.4-.6-1-.9-1.7-.9-2.3 0-4.7 3.4-10.9 3.4s-10.2-3.6-10.7-11.7h24.2c1.8.1 2.2-.7 2.2-3.6zm-26.2-2c.9-5.7 3.9-8.9 9.4-8.9s8.3 4 8.3 8.9h-17.7zM585 84.5h10.3V62H616v-8.2h-20.6V37.4h24.5v-8.2H585v55.3zm275.7-56.7c-3.3 0-6 2.7-6 6s2.7 6 6 6 6-2.7 6-6-2.6-6-6-6zm-13.2 48.4c-1 0-1.6 1.3-4 1.3-2 0-3.4-1.4-3.4-3.9V52.3h10.3v-6.7h-10.3V33.3h-4.9c-1-.1-1.9.6-2.1 1.6l-2 10.7-6.3 1v3.7c-.1 1 .6 1.9 1.6 2h4.3v21.9c0 6.8 3.8 10.9 10.6 10.9 3.7.1 7.4-1.2 10.3-3.5l-2.9-4.6c-.4-.6-.7-.8-1.2-.8zm8.5 8.3h9.4V45.3H856v39.2zm80.8-39.8c-4.6 0-9.1 1.9-12.1 5.4L924 47c-.3-1.1-1.3-1.8-2.4-1.7h-5.8v39.2h9.4V56.1c2.6-2.6 5.4-4.1 8.6-4.1 4.4 0 6.7 2.8 6.7 7.5v25h9.5v-25c0-8.7-4.6-14.8-13.2-14.8zm-296 0c-11.7 0-19.5 7.8-19.5 20.1S629 85 640.7 85 660 77.2 660 64.8s-7.5-20.1-19.2-20.1zm0 33.1c-6.6 0-9.7-4.5-9.7-12.9s3.1-13 9.7-13 9.6 4.5 9.6 13-3.1 12.9-9.6 12.9zm249.9-33.1c-11.7 0-19.5 7.8-19.5 20.1S879 85 890.7 85 910 77.2 910 64.8s-7.6-20.1-19.3-20.1zm0 33.1c-6.6 0-9.7-4.5-9.7-12.9s3.1-13 9.7-13 9.6 4.5 9.6 13-3.1 12.9-9.6 12.9zm-83.5-33.3c-6-.1-11.9 2.1-16.3 6.2l1.7 3c.5 1 1.6 1.7 2.8 1.7 3.1 0 4.5-3.5 10.7-3.5 4.2 0 6.5 2.5 6.5 7.7V62c-17.8.4-23.5 6.6-23.5 12.5 0 7 4.7 10.6 11.4 10.6 5.6 0 9-1.9 13-5.4l.8 2.8c.5 1.6 1.5 2 3.2 2h4.2V59.7c0-8.9-5.4-15.2-14.5-15.2zm5.3 29.8c-2.7 2.8-5.3 4.2-9.1 4.2-3.2 0-5.3-1.3-5.3-4.6s3.4-5.7 14.4-6.2v6.6zM690 73.6c-2.6 2.6-5.4 4.1-8.6 4.1-4.4 0-6.6-2.8-6.6-7.5V45.3h-9.4v24.9c0 8.8 4.7 14.9 13.2 14.9 5.3 0 8.9-2.2 12.1-5.5l.7 3.1c.3 1.1 1.3 1.8 2.4 1.7h5.8V45.3H690v28.3zm83.8-25.2c-2.6-2.6-6.1-4-9.8-3.9-10.2 0-16.8 8.8-16.8 20.5 0 12.8 5.9 20.1 14.5 20.1 5.5 0 9.4-2.4 12.6-6.1l.8 3.8c.3 1.1 1.3 1.8 2.4 1.7h5.8V27.7h-9.4v20.7zm0 24.5c-2.5 3-5 4.7-8.9 4.7-4.9 0-8-3.4-8-12.6s3.6-13.3 9.3-13.3c2.9-.1 5.8 1.2 7.6 3.5v17.7zm-45.3-28.2c-4.6 0-9 1.9-12.1 5.4l-.7-3.1c-.3-1.1-1.3-1.8-2.4-1.7h-5.8v39.2h9.5V56.1c2.6-2.6 5.4-4.1 8.6-4.1 4.4 0 6.7 2.8 6.7 7.5v25h9.4v-25c0-8.7-4.6-14.8-13.2-14.8zM179.3 27.5c2.9 0 5.2-2.3 5.2-5.2s-2.3-5.2-5.2-5.2-5.2 2.3-5.2 5.2c0 2.9 2.3 5.2 5.2 5.2zm0 159.1c-2.8 0-5.2 2.3-5.2 5.2 0 2.8 2.3 5.2 5.2 5.2 2.8 0 5.2-2.3 5.2-5.2s-2.4-5.2-5.2-5.2zm21.2-138.9c2.3 0 4.2-1.9 4.2-4.1s-1.9-4.2-4.1-4.2c-2.3 0-4.2 1.9-4.2 4.1-.1 2.3 1.8 4.2 4.1 4.2zm14.5 9.1c2.6 0 4.7-2.1 4.7-4.6 0-2.6-2.1-4.7-4.6-4.7-2.6 0-4.7 2.1-4.7 4.6 0 2.6 2 4.7 4.6 4.7zm-29.1 116c-3.5 0-6.4 2.8-6.4 6.4 0 3.5 2.8 6.4 6.4 6.4s6.4-2.8 6.4-6.4c-.1-3.6-2.9-6.4-6.4-6.4zM215 83.6c3.5 0 6.3-2.8 6.3-6.4s-2.8-6.3-6.4-6.3c-3.5 0-6.3 2.8-6.3 6.3 0 3.6 2.9 6.4 6.4 6.4zm0 48.6c-2.6 0-4.7 2.1-4.7 4.6 0 2.6 2.1 4.7 4.6 4.7 2.6 0 4.7-2.1 4.7-4.6 0-2.6-2-4.7-4.6-4.7zm-35.7-20c2.8 0 5.2-2.3 5.2-5.2 0-2.8-2.3-5.2-5.2-5.2-2.8 0-5.2 2.3-5.2 5.2 0 2.9 2.3 5.2 5.2 5.2zm42.3 32c-2.9 0-5.2 2.3-5.2 5.1 0 2.9 2.3 5.2 5.1 5.2 2.9 0 5.2-2.3 5.2-5.1.1-2.9-2.2-5.2-5.1-5.2zm-21.1-65.9c-4.2 0-7.6 3.4-7.6 7.5s3.4 7.6 7.5 7.6c4.2 0 7.6-3.4 7.6-7.5 0-4.2-3.4-7.6-7.5-7.6zm14.5 77.3c-3.5 0-6.3 2.8-6.3 6.4s2.8 6.3 6.4 6.3 6.3-2.8 6.3-6.3-2.9-6.4-6.4-6.4zm6.6-96.1c-2.8 0-5.2 2.3-5.2 5.1s2.3 5.2 5.1 5.2 5.2-2.3 5.2-5.1c.1-2.8-2.2-5.1-5.1-5.2zm-35.7 28.6c-3.5 0-6.3 2.9-6.3 6.4s2.9 6.3 6.4 6.3c3.5 0 6.3-2.8 6.3-6.3s-2.9-6.4-6.4-6.4zm0-84.7c-3.5 0-6.3 2.9-6.3 6.4s2.9 6.3 6.4 6.3c3.5 0 6.3-2.8 6.3-6.3s-2.9-6.4-6.4-6.4zM200.5 163c-4.2 0-7.6 3.4-7.6 7.5s3.4 7.6 7.5 7.6c4.2 0 7.6-3.4 7.6-7.5 0-4.2-3.4-7.6-7.5-7.6zm4.1-34.8c0-2.3-1.9-4.2-4.1-4.2-2.3 0-4.2 1.9-4.2 4.1 0 2.3 1.9 4.2 4.1 4.2 2.3.1 4.2-1.8 4.2-4.1z"/><path d="M496.9 128.8c-5.2 0-8.9 2.1-12.1 5.4l-.6-3.1c-.3-1.1-1.3-1.8-2.4-1.7H476v39.2h9.4v-28.4c2.6-2.6 5.4-4.1 8.6-4.1 4.4 0 6.6 2.8 6.6 7.5v25h9.5v-25c0-8.7-4.6-14.8-13.2-14.8zm48.1 29.6c-2.3 0-3.2 3.6-9.2 3.6s-9.7-4.7-9.7-13.1c0-8 3.3-12.9 9.9-12.9 5.2 0 6.7 2.9 8.6 2.9.8 0 1.6-.4 2-1.1l2.5-3.4c-3.6-3.7-8.5-5.7-13.7-5.5-12.3 0-19 8.6-19 20.1 0 12.9 8 20.3 17.6 20.3 5.6 0 11.2-1.5 15.4-6.4l-2.7-3.4c-.3-.8-1-1.1-1.7-1.1zm-282.6-31.6v2.9h-5.9v3.9c0 1.4 1 2.1 2.5 2.4l3.4.5v32.1h9.4v-32.1h9.9v-6.7h-10.2v-2.6c0-5.8 2.6-7.6 7.1-7.6 1.7 0 3.1-.2 3.2-1.6l.2-4.7c-1.6-.5-3.3-.7-5-.7-9-.2-14.6 5.3-14.6 14.2zm41 2c-11.7 0-19.5 7.8-19.5 20.1s7.7 20.3 19.5 20.3 19.3-7.8 19.3-20.3-7.6-20.1-19.3-20.1zm0 33.1c-6.6 0-9.7-4.5-9.7-12.9s3.1-13 9.7-13 9.6 4.5 9.6 13-3.1 12.9-9.6 12.9zm107.9-40.4c8.9 0 10.9 4.4 13.2 4.4.9 0 1.7-.4 2.1-1.2l3.4-4.8c-4.4-4.3-10.4-7.2-18.6-7.2-16.8 0-28.4 11.7-28.4 28.3s10.3 28.2 26.6 28.2c9.2 0 15.6-3.1 20.1-8.6l-4-4.4c-.4-.4-.9-.6-1.5-.6-.7 0-1.3.3-1.7.8-3.3 3.1-6.6 4.2-12.2 4.2-9.3 0-16.8-7.1-16.8-19.5 0-12.2 7.4-19.6 17.8-19.6zm41.4 7.2c-6-.1-11.9 2.1-16.3 6.2l1.7 3c.5 1 1.6 1.7 2.8 1.7 3.1 0 4.5-3.5 10.7-3.5 4.2 0 6.5 2.5 6.5 7.7v2.3c-17.9.4-23.5 6.6-23.5 12.5 0 7 4.7 10.6 11.4 10.6 5.6 0 9-1.9 13-5.4l.8 2.8c.5 1.6 1.5 2 3.2 2h4.2v-24.7c0-8.9-5.3-15.2-14.5-15.2zm5.3 29.8c-2.7 2.8-5.3 4.2-9.1 4.2-3.2 0-5.3-1.3-5.3-4.6s3.4-5.7 14.5-6.2v6.6zm-119.5-22l-.6-4.8c-.3-1.7-.8-2.4-2.8-2.4h-5.5v39.2h9.4v-24.4c2-4.2 4.7-6.4 8.6-6.4 1.4.1 2.8.3 4.2.5.7.1 1.4-.4 1.5-1.1v-.1l1.2-7.1c-1.4-.9-3.1-1.4-4.8-1.3-4.6.1-8.4 3-11.2 7.9zm488.8-7.9c-6-.1-11.9 2.1-16.3 6.2l1.7 3c.5 1 1.6 1.7 2.8 1.7 3.1 0 4.5-3.5 10.7-3.5 4.2 0 6.5 2.5 6.5 7.7v2.3c-17.8.4-23.5 6.6-23.5 12.5 0 7 4.7 10.6 11.4 10.6 5.6 0 9-1.9 13-5.4l.8 2.8c.5 1.6 1.5 2 3.2 2h4.2v-24.7c0-8.8-5.4-15.1-14.5-15.2zm5.3 29.8c-2.7 2.8-5.3 4.2-9.1 4.2-3.2 0-5.3-1.3-5.3-4.6s3.4-5.7 14.5-6.2v6.6zm-28.1-11.9c0-11.3-7.1-17.8-17-17.8-11.7 0-18.8 8.7-18.8 19.4 0 13.7 8.5 21 19.3 21 5.5 0 12-1.5 16.2-6.4l-2.8-3.4c-.4-.6-1-.9-1.7-.9-2.3 0-4.7 3.4-10.8 3.4s-10.2-3.6-10.7-11.7h24.2c1.6.1 2.1-.7 2.1-3.6zm-26.2-2c.9-5.7 3.9-8.9 9.4-8.9 5.7 0 8.3 4 8.3 8.9h-17.7zm81.1-8l-.6-4.8c-.3-1.7-.8-2.4-2.8-2.4h-5.5v39.2h9.4v-24.4c2-4.2 4.7-6.4 8.6-6.4 1.4.1 2.8.3 4.2.5.7.1 1.4-.4 1.5-1.1v-.1l1.2-7.1c-1.4-.9-3.1-1.4-4.8-1.3-4.6.1-8.4 3-11.2 7.9zm77.4-7.8c-4.3 0-8.5 1.7-11.5 4.9v-21.8h-9.4v56.8h9.4v-28.4c2.6-2.6 5.4-4.1 8.6-4.1 4.4 0 6.7 2.8 6.7 7.5v25h9.4v-25c0-8.7-4.6-14.8-13.2-14.9zm-30.5 29.7c-2.3.1-3.3 3.6-9.3 3.6s-9.7-4.7-9.7-13.1c0-8 3.3-12.9 9.9-12.9 5.2 0 6.7 2.9 8.6 2.9.8 0 1.6-.4 2-1.1l2.5-3.4c-3.6-3.7-8.5-5.6-13.6-5.5-12.3 0-19 8.6-19 20.1 0 12.9 8 20.3 17.6 20.3 5.6 0 11.2-1.5 15.4-6.4l-2.7-3.4c-.4-.7-1-1.1-1.7-1.1zm-318.9-11.9c0-11.3-7.1-17.8-17-17.8-11.7 0-18.8 8.7-18.8 19.4 0 13.7 8.4 21 19.3 21 5.5 0 12-1.5 16.2-6.4l-2.8-3.4c-.4-.6-1-.9-1.7-.9-2.3 0-4.7 3.4-10.9 3.4s-10.2-3.6-10.7-11.7h24.2c1.7.1 2.2-.7 2.2-3.6zm-26.2-2.1c.9-5.7 3.9-8.9 9.4-8.9s8.3 4 8.3 8.9h-17.7zm42.1-8l-.6-4.8c-.3-1.7-.8-2.4-2.8-2.4h-5.5v39.2h9.4V144c2-4.2 4.7-6.4 8.6-6.4 1.4.1 2.8.3 4.2.5.7.1 1.4-.4 1.5-1.2v-.1l1.2-7.1c-1.4-.9-3.1-1.4-4.8-1.3-4.6.3-8.4 3.2-11.2 8zM677 145c7.8-2.4 12.2-8.3 12.2-15.8 0-9.4-6.2-15.9-21.3-15.9H651v55.3h10.3V147h4.4c2 0 2.9.5 3.7 1.8l11.6 17.7c.8 1.3 2.3 2.1 3.9 2.1h9.2l-13.8-20.4c-.8-1.3-2-2.4-3.3-3.2zm-9.2-5.4h-6.4v-18.3h6.6c7.6 0 11.2 3.1 11.2 8.7s-3.7 9.6-11.4 9.6zm63.3 6.9c0-11.3-7.1-17.8-17-17.8-11.7 0-18.8 8.7-18.8 19.4 0 13.7 8.5 21 19.3 21 5.5 0 12-1.5 16.2-6.4l-2.7-3.4c-.4-.6-1-.9-1.7-.9-2.3 0-4.7 3.4-10.8 3.4s-10.2-3.6-10.7-11.7h24.2c1.5.1 1.9-.7 2-3.6zm-26.2-2c.9-5.7 3.9-8.9 9.4-8.9 5.7 0 8.3 4 8.3 8.9h-17.7zm40.3-4.6c0-2.6 2.3-4.3 6-4.3 4.7 0 6.9 2.5 8.8 2.5.8 0 1.5-.4 1.9-1.1l2.1-3.4c-3.5-3.2-8.2-5-13-4.8-9.7 0-14.8 5.6-14.8 12 0 13.9 19.3 9.9 19.3 17.1 0 2.4-1.9 4.7-6.4 4.7-5.7 0-7.1-3.1-9.4-3.1-1-.1-2 .5-2.5 1.3l-2.2 3.6c3.8 3.1 8.6 4.9 13.6 4.8 10.1 0 15.7-5.5 15.7-13 .1-12.7-19.1-9.4-19.1-16.3zM181.3 60.1c0 2.6 2.1 4.6 4.6 4.6s4.6-2.1 4.6-4.6c0-2.6-2.1-4.6-4.6-4.6-2.6-.1-4.6 2-4.6 4.6zm4.6-31.5c-3.5 0-6.3 2.9-6.3 6.4s2.9 6.3 6.4 6.3c3.5 0 6.3-2.8 6.3-6.3 0-3.6-2.9-6.4-6.4-6.4zm0 84.7c-3.5 0-6.3 2.9-6.3 6.4s2.9 6.3 6.4 6.3c3.5 0 6.3-2.8 6.3-6.3 0-3.6-2.9-6.4-6.4-6.4zm0 26.8c-2.6 0-4.7 2.1-4.7 4.6s2.1 4.7 4.6 4.7 4.7-2.1 4.7-4.6c0-2.6-2-4.7-4.6-4.7zm29.1-116c3.5 0 6.3-2.8 6.3-6.4s-2.8-6.3-6.4-6.3-6.3 2.8-6.3 6.3 2.9 6.4 6.4 6.4zm0 84.7c3.5 0 6.3-2.8 6.3-6.4s-2.8-6.3-6.4-6.3c-3.5 0-6.3 2.8-6.3 6.3s2.9 6.4 6.4 6.4zm-35.7-56.1c2.9 0 5.2-2.3 5.2-5.2 0-2.9-2.3-5.2-5.2-5.2-2.9 0-5.2 2.3-5.2 5.2 0 2.9 2.3 5.2 5.2 5.2zm5.1 79.5c0-2.8-2.3-5.2-5.2-5.2s-5.2 2.3-5.2 5.2c0 2.8 2.3 5.2 5.2 5.2 2.9 0 5.2-2.3 5.2-5.2zm37.2-47.5c-2.8 0-5.2 2.3-5.2 5.1s2.3 5.2 5.1 5.2 5.2-2.3 5.2-5.1c.1-2.9-2.2-5.2-5.1-5.2zm0 84.7c-2.8 0-5.2 2.3-5.2 5.1s2.3 5.2 5.1 5.2 5.2-2.3 5.2-5.1c.1-2.9-2.2-5.2-5.1-5.2zm-6.6 11.4c-3.5 0-6.3 2.8-6.3 6.4s2.8 6.3 6.4 6.3 6.3-2.8 6.3-6.3-2.9-6.4-6.4-6.4zM221.6 0c-2.8 0-5.2 2.3-5.2 5.1s2.3 5.2 5.1 5.2 5.2-2.3 5.2-5.1c.1-2.9-2.2-5.2-5.1-5.2zm-17 68.7c0-2.3-1.8-4.2-4.1-4.2s-4.2 1.8-4.2 4.1 1.8 4.2 4.1 4.2c2.4 0 4.2-1.8 4.2-4.1zm-4.1-49.9c-4.2 0-7.6 3.3-7.6 7.5s3.3 7.6 7.5 7.6 7.6-3.3 7.6-7.5-3.4-7.6-7.5-7.6zm0 84.7c-4.2 0-7.6 3.3-7.6 7.5s3.3 7.6 7.5 7.6 7.6-3.3 7.6-7.5c0-4.3-3.4-7.6-7.5-7.6zm0 45.7c-2.3 0-4.2 1.9-4.2 4.1s1.9 4.2 4.1 4.2c2.3 0 4.2-1.9 4.2-4.1 0-2.3-1.8-4.2-4.1-4.2z" fill="#2295b5"/><path class="st0" d="M964.8 48.6c-4.8 0-9.8-3.2-9.8-9.4s5.1-9.4 9.8-9.4 9.8 3.2 9.8 9.4-5 9.4-9.8 9.4zm0-1c4.3 0 8.8-2.8 8.8-8.4s-4.5-8.4-8.8-8.4-8.8 2.8-8.8 8.4 4.4 8.3 8.8 8.4zM960.9 34h4.6c1.8 0 4 .8 4 3.3 0 1.4-.9 2.6-2.2 3l2.8 3.8h-2.3l-2.6-3.6H963v3.6h-2l-.1-10.1zm4.4 4.9c.9 0 2.1 0 2.1-1.5s-1.3-1.5-2.1-1.5h-2.4v3h2.4z"/><path class="st0" d="M954.7 39.1c0 6.3 5.2 9.7 10.1 9.7s10.1-3.3 10.1-9.7-5.1-9.7-10.1-9.7-10.1 3.4-10.1 9.7zm.5 0c0-6 4.8-9.2 9.6-9.2s9.6 3.2 9.6 9.2-4.8 9.2-9.6 9.2-9.6-3.1-9.6-9.2z"/><path class="st0" d="M955.8 39.1c0 5.7 4.5 8.7 9.1 8.7s9-3 9-8.7-4.5-8.7-9-8.7-9.1 3-9.1 8.7zm.4 0c0-5.6 4.4-8.2 8.6-8.2s8.5 2.6 8.5 8.2-4.4 8.2-8.5 8.2-8.6-2.6-8.6-8.2z"/><path class="st0" d="M960.7 33.7v10.7h2.5v-3.6h2l2.6 3.6h2.9s-2.6-3.5-2.9-4c1.3-.5 2.2-1.7 2.1-3.1 0-2.7-2.2-3.6-4.2-3.6h-5zm4.9.5c.9 0 3.7.2 3.7 3.1.1 1.3-.8 2.5-2 2.8l-.3.1 2.7 3.7H968l-2.6-3.6h-2.7v3.6h-1.5v-9.7h4.4z"/><path class="st0" d="M962.7 35.6v3.5h2.7c.7 0 2.4 0 2.4-1.7s-1.7-1.7-2.4-1.7h-2.7zm2.6.5c1.1 0 1.9.2 1.9 1.2s-.7 1.2-1.9 1.2h-2.2V36h2.2z"/></svg>