<svg xmlns="http://www.w3.org/2000/svg" xmlns:xlink="http://www.w3.org/1999/xlink" width="206" height="43" viewBox="0 0 206 43"><defs><style>.a,.c,.e{fill:#fff;}.a{stroke:#707070;}.b{clip-path:url(#a);}.c{stroke:#008bb0;stroke-miterlimit:4.243;stroke-width:0.45px;}.d{fill:#008bb0;}.f{fill:#41535d;}</style><clipPath id="a"><rect class="a" width="206" height="43" transform="translate(-0.234 0.369)"/></clipPath></defs><g class="b" transform="translate(0.234 -0.369)"><g transform="translate(1.665 1.137)"><path class="c" d="M119.279,1021.371c-17.472-9.2-17.607-21.654-17.607-41.093h35.215C136.887,999.726,136.832,1012.176,119.279,1021.371Z" transform="translate(-101.672 -980.278)"/><path class="d" d="M135.314,981.239v-.1H102.441v1.685c0,7.291,0,14.181,2.033,20.5a25.514,25.514,0,0,0,4.838,8.869,30.583,30.583,0,0,0,9.524,7.291h.091a30.452,30.452,0,0,0,9.469-7.291,25.5,25.5,0,0,0,4.858-8.887c2.042-6.379,2.033-13.305,2.033-20.669Z" transform="translate(-101.293 -979.854)"/><g transform="translate(10.279 3.408)"><path class="e" d="M114.091,984.211h2.159a2.39,2.39,0,0,0-1.093-1.65A2.337,2.337,0,0,0,114.091,984.211Zm-3.7,4.365v-2.123H120v2.187l-4.849-1.541Z" transform="translate(-107.655 -982.561)"/><path class="e" d="M108.558,989.5H123.6l-7.546-2.333Zm3.847-4h7.355a3.764,3.764,0,0,0-2.526-1.621H114.9A3.905,3.905,0,0,0,112.4,985.5Z" transform="translate(-108.558 -981.914)"/></g><g transform="translate(10.789 24.188)"><path class="e" d="M109.912,997.174c.1-.055.091.1.091.236v2.944c0,.219-.164.292-.373.3h-.466v.246h2.48v-.273h-.4c-.209,0-.373-.082-.373-.3V998.2c0-.784.045-1.349.064-1.66l-.082-.063a18.339,18.339,0,0,1-1.951.655,1,1,0,0,0,.091.457Zm4.1,1.885c.375.164.684.365.684.821a.719.719,0,0,1-.691.746H114a.829.829,0,0,1-.833-.825c0-.03,0-.058,0-.087a1.057,1.057,0,0,1,.448-.911Zm0-.911c-.309-.137-.628-.311-.628-.7a.565.565,0,0,1,.543-.587.522.522,0,0,1,.085,0,.656.656,0,0,1,.676.636.62.62,0,0,1,0,.074.911.911,0,0,1-.393.693Zm.082-1.623c-.911,0-1.385.493-1.385,1.212a1.077,1.077,0,0,0,.657,1,1.219,1.219,0,0,0-.766,1.066,1.166,1.166,0,0,0,1.184,1.148.893.893,0,0,0,.128-.009,1.439,1.439,0,0,0,1.511-1.365.624.624,0,0,0,0-.074,1.165,1.165,0,0,0-.811-1.13,1.076,1.076,0,0,0,.62-.912c.009-.629-.555-.921-1.157-.921Zm3.19.648c.1-.055.1.1.1.236v2.944c0,.219-.164.292-.373.3h-.475v.246h2.48v-.273h-.4c-.209,0-.373-.082-.373-.3V998.2c0-.784.045-1.349.064-1.66l-.073-.063a18.135,18.135,0,0,1-1.96.655,1.329,1.329,0,0,0,.091.457Zm3.426,0c.1-.055.091.1.091.236v2.944c0,.219-.154.292-.364.3h-.473v.246h2.478v-.273h-.4c-.21,0-.375-.082-.375-.3V998.2c0-.784.046-1.349.064-1.66l-.073-.063a18.225,18.225,0,0,1-1.958.655,1.118,1.118,0,0,0,.091.457Z" transform="translate(-108.9 -996.481)"/></g><path class="e" d="M121.707,993.536h-2.635v.584h.611c.375,0,.484.082.484.282v1.285a3.436,3.436,0,0,1-1.176.218c-1.923,0-2.606-1.694-2.606-3.144a2.381,2.381,0,0,1,2.068-2.654,2.574,2.574,0,0,1,.385-.017,2.953,2.953,0,0,1,2.014.639l.055.82v.082h.546v-.191a10.724,10.724,0,0,1,.209-1.394l-.054-.109a7.075,7.075,0,0,0-2.826-.63c-2.032,0-4.083,1.094-4.083,3.536a3.593,3.593,0,0,0,1.148,2.844,4.291,4.291,0,0,0,2.89.911,8.124,8.124,0,0,0,2.953-.6h.054v-1.685c0-.164.082-.2.446-.273h.073v-.5Zm-8.03-4.047H111.91v.055l-.128.31c-.109.264-.227.537-.346.8l-1.75,3.645-1.549-3.172-.154-.329c-.2-.427-.457-.957-.593-1.275v-.055h-2.562v.537h.446c.273,0,.319.073.346.128a2.691,2.691,0,0,1,.055.766v4.083a2.7,2.7,0,0,1-.055.766c0,.054-.073.1-.337.127h-.455v.537h2.462v-.537h-.439c-.264,0-.309-.073-.336-.127a2.594,2.594,0,0,1-.064-.766V991.23l2.123,4.457.064.127a7.392,7.392,0,0,1,.291.693v.055h.457v-.055q.2-.5.6-1.312l1.894-3.945v3.781a2.589,2.589,0,0,1-.063.766c0,.047-.128.082-.337.1h-.446v.575h3.281V995.9h-.457c-.2,0-.309-.054-.337-.1a2.639,2.639,0,0,1-.063-.766v-4.092a2.568,2.568,0,0,1,.145-.719c0-.055.073-.1.346-.129h.446v-.537h-.682Zm16.131.684a.794.794,0,0,1,.346-.091h.455v-.573h-3.335v.573h.455c.21,0,.319.046.337.091a2.323,2.323,0,0,1,.064.766v1.5h-2.917v-1.5a2.323,2.323,0,0,1,.064-.766.72.72,0,0,1,.337-.091h.455v-.573h-3.354v.573h.457c.209,0,.318.046.346.091a2.591,2.591,0,0,1,.063.766v4.083a2.592,2.592,0,0,1-.063.766c0,.055-.137.082-.346.1h-.457v.566h3.318v-.566h-.457c-.209,0-.318,0-.336-.091a2.372,2.372,0,0,1-.064-.775V993.2h3.006v1.823a2.414,2.414,0,0,1-.063.775c0,.047-.128.073-.337.091h-.511v.566h3.317v-.566h-.455c-.209,0-.319,0-.346-.091a2.756,2.756,0,0,1-.064-.775v-4.083a2.6,2.6,0,0,1,.082-.719Z" transform="translate(-100.117 -975.829)"/><path class="f" d="M139.748,1001.563a1.445,1.445,0,0,1-.082.637c-.091.284-.984.548-2.178.548-3.217,0-5.022-2.233-5.022-5.341,0-2.733,1.541-4.72,4.5-4.72a6.653,6.653,0,0,1,2.187.282c.73.264,1.294.52,1.294,1.248v.83h.466a9.536,9.536,0,0,1,.309-2.369,12.032,12.032,0,0,0-3.863-.648c-3.756,0-6.58,2.215-6.58,5.65,0,3.91,2.806,5.715,6.279,5.715a17.4,17.4,0,0,0,4.1-.793v-2.615c0-.455,0-.519.173-.584l.446-.155-.037-.346h-3.819v.466l1.294.109c.4,0,.528.182.528.546Zm4.731-.346a2.735,2.735,0,0,1-.137,1.166c-.091.155-.282.2-.655.237l-.566.046v.464c.566,0,1.076-.045,1.667-.045.966,0,2.206,0,3.4.045s2.387,0,3.071-.045a13.445,13.445,0,0,1,.255-2.553h-.575c-.109.912-.309,1.622-.546,1.74a14.293,14.293,0,0,1-3.153.211,5.381,5.381,0,0,1-1.3-.129v-4.365c.482-.046,1.057-.046,1.823-.046a4.04,4.04,0,0,1,1.65.182c.082.047.109.193.127.393l.082.91h.464v-3.554h-.464l-.082.812c0,.2,0,.337-.127.4a4.26,4.26,0,0,1-1.65.173c-.748,0-1.314,0-1.823-.045v-4.138a5.312,5.312,0,0,1,1.357-.127,9.731,9.731,0,0,1,3.063.328c.118.045.136.218.136.418v1.021h.546a10.359,10.359,0,0,1,.246-2.369H143v.464l.746.046c.375,0,.566.082.657.236a2.743,2.743,0,0,1,.137,1.167Zm9.924,0a2.736,2.736,0,0,1-.145,1.166c-.093.155-.284.2-.657.237l-.684.046v.464c.628,0,1.248-.045,1.823-.045s1.176,0,1.823.045v-.464l-.693-.046c-.373,0-.555-.082-.646-.237a2.714,2.714,0,0,1-.146-1.166v-7.191l7.291,9.113,1.4.246v-9.169a2.74,2.74,0,0,1,.146-1.166c.091-.155.273-.21.646-.237l.693-.045V992.3h-3.7v.466l.684.045c.373,0,.564.082.655.237a2.738,2.738,0,0,1,.137,1.166v7.291h-.046l-7.355-9.2h-2.669v.466l.682.045c.375,0,.566.082.657.237a2.741,2.741,0,0,1,.146,1.166Zm13.662,0a2.737,2.737,0,0,1-.146,1.166c-.091.155-.282.2-.657.237l-.555.046v.464c.555,0,1.075-.045,1.667-.045.966,0,2.2,0,3.4.045s2.379,0,3.072-.045a13.435,13.435,0,0,1,.246-2.553h-.548c-.109.912-.309,1.622-.546,1.74a14.212,14.212,0,0,1-3.144.211,5.454,5.454,0,0,1-1.312-.129v-4.365c.482-.046,1.057-.046,1.823-.046a4.08,4.08,0,0,1,1.658.182c.073.047.109.193.118.393l.082.91h.466v-3.554h-.466l-.082.812a.575.575,0,0,1-.118.4,4.306,4.306,0,0,1-1.658.173c-.748,0-1.3,0-1.823-.045v-4.138a5.459,5.459,0,0,1,1.312-.127,9.665,9.665,0,0,1,3.053.328c.128.045.137.218.137.418v1.021h.591a10.359,10.359,0,0,1,.255-2.369H166.6v.464l.746.046c.375,0,.566.082.657.236a2.746,2.746,0,0,1,.146,1.167Zm11.629-8.139a6.1,6.1,0,0,1,1.585-.182c1.212,0,2.46.464,2.46,2.151a2.3,2.3,0,0,1-2.023,2.178,5.9,5.9,0,0,1-1.376.064l-.091.182c.264.328.566.628.812.966l2.871,3.854c.2.284.437.548.637.839.355,0,.7-.045,1.057-.045a9.763,9.763,0,0,1,1.121.045v-.464a1.185,1.185,0,0,1-.911-.4l-3.536-4.62c1.512-.293,3.035-1.3,3.035-3.008,0-1.121-.648-2.387-3.144-2.333H176.8v.466l.639.045c.373,0,.555.082.655.237a2.738,2.738,0,0,1,.137,1.166v7a2.735,2.735,0,0,1-.137,1.166c-.1.155-.282.219-.655.237l-.748.046v.464c.812,0,1.541-.045,2.306-.045s1.448,0,2.26.045v-.464l-.748-.046c-.373,0-.564-.082-.655-.237a2.735,2.735,0,0,1-.137-1.166Z" transform="translate(-87.328 -974.487)"/><path class="f" d="M192.777,997.592h-.5c-.42,1.121-.912,2.278-1.441,3.363l-2.735,6.315a1.116,1.116,0,0,1-.837.766l-.584.046v.464c.593,0,1.185-.045,1.823-.045.455,0,1.048,0,1.823.045v-.464l-.584-.046c-.482,0-.746-.109-.746-.437a9.466,9.466,0,0,1,.546-1.623l.437-1.039h4.493l.711,1.824a3.384,3.384,0,0,1,.328,1c0,.182-.31.291-.637.31l-.73.045v.466c.839,0,1.523-.046,2.069-.046.7,0,1.394,0,2.078.046v-.466l-.528-.045c-.282,0-.455-.237-.628-.528a10.221,10.221,0,0,1-.493-1.067Zm-2.624,6.725,1.978-4.647,1.969,4.647Zm11.93-4.684a2.713,2.713,0,0,1,.136-1.166c.091-.155.282-.219.657-.237l.746-.045v-.466h-4.565v.466l.746.045c.375,0,.566.082.657.237a2.736,2.736,0,0,1,.137,1.166v7.419a.987.987,0,0,1-.393.911l-.484.246v.355c.411,0,.8-.045,1.332-.045.966,0,2,0,3.4.045,1.148,0,2.378,0,3.071-.045.119-.775.228-1.823.328-2.68h-.5l-.191.784a2.716,2.716,0,0,1-.328.993,11.432,11.432,0,0,1-3.444.3,5.393,5.393,0,0,1-1.3-.128Zm21.033,0a2.74,2.74,0,0,1,.146-1.166c.091-.155.273-.219.655-.237l.748-.045v-.466H220.09v.466l.757.045c.373,0,.555.082.646.237a2.716,2.716,0,0,1,.146,1.166v2.735h-6.234v-2.735a2.737,2.737,0,0,1,.137-1.166c.091-.155.282-.219.655-.237l.748-.045v-.466H212.38v.466l.748.045c.373,0,.555.082.657.237a2.737,2.737,0,0,1,.136,1.166v7a2.735,2.735,0,0,1-.136,1.166c-.1.155-.284.219-.657.237l-.748.046v.464c.812,0,1.541-.045,2.306-.045s1.449,0,2.26.045v-.464l-.748-.046c-.373,0-.564-.082-.655-.237a2.735,2.735,0,0,1-.137-1.166v-3.472h6.234v3.472a2.714,2.714,0,0,1-.146,1.166c-.091.155-.273.219-.646.237l-.757.046v.464c.812,0,1.549-.045,2.315-.045s1.449,0,2.26.045v-.464l-.748-.046c-.382,0-.564-.082-.655-.237a2.738,2.738,0,0,1-.146-1.166Zm7.774,9.178a5.967,5.967,0,0,0,6.032-5.9c0-.043,0-.086,0-.128,0-3.454-2.369-5.332-5.7-5.332a5.524,5.524,0,0,0-5.862,5.162c-.01.178-.013.357-.007.535a5.329,5.329,0,0,0,5.541,5.668Zm.073-10.708c2.9,0,4.292,2.078,4.292,5.167,0,2.862-1.266,4.895-3.874,4.895-3.08,0-4.365-2.871-4.365-5.6,0-2.56,1.239-4.465,3.947-4.465Zm14.007,2.2a11.157,11.157,0,0,1,.219-2.2,7.367,7.367,0,0,0-2.826-.657c-1.823,0-3.983,1.112-3.983,3.527,0,1.621.957,2.387,3.408,2.671,1.6.182,2.735.6,2.735,2.087a2.552,2.552,0,0,1-2.691,2.4l-.1-.008c-1.23,0-2.462-.593-2.542-1.248l-.128-1.039h-.493a15.25,15.25,0,0,1-.109,2.378,6.55,6.55,0,0,0,2.662.593c2.324,0,4.711-1.276,4.711-3.937,0-1.778-1.385-2.324-3.59-2.561-1.942-.218-2.571-.911-2.571-1.932a2.225,2.225,0,0,1,2.168-2.279c.046,0,.093,0,.139,0a3.477,3.477,0,0,1,1.7.373c.575.364.639.519.684.911l.091.912Zm5.332-1.814a6.1,6.1,0,0,1,1.585-.182c1.549,0,2.524.7,2.524,2.315a2.231,2.231,0,0,1-2.139,2.321c-.034,0-.069,0-.1,0a3.4,3.4,0,0,1-1.03-.155l.155.564a4.671,4.671,0,0,0,.912.091,3.5,3.5,0,0,0,3.731-3.251c0-.034,0-.069.006-.1,0-1.76-1.714-2.415-3.227-2.379h-5.449v.466l.7.045a.715.715,0,0,1,.664.264,2.6,2.6,0,0,1,.155,1.139v7a2.734,2.734,0,0,1-.136,1.166c-.091.155-.284.219-.657.237l-.748.046v.464c.812,0,1.541-.045,2.306-.045s1.449,0,2.26.045v-.464l-.748-.046c-.373,0-.564-.082-.655-.237a2.735,2.735,0,0,1-.137-1.166Zm9.651,1.139a2.717,2.717,0,0,1,.146-1.166c.091-.155.282-.219.655-.237l.748-.045v-.466h-4.575v.466l.757.045c.373,0,.555.082.646.237a2.739,2.739,0,0,1,.146,1.166v7a2.737,2.737,0,0,1-.146,1.166c-.091.155-.273.219-.646.237l-.757.046v.464c.811,0,1.549-.045,2.315-.045s1.448,0,2.26.045v-.464l-.748-.046c-.373,0-.564-.082-.655-.237a2.715,2.715,0,0,1-.146-1.166Zm6.27,7a2.734,2.734,0,0,1-.136,1.166c-.1.155-.284.219-.657.237l-.748.046v.464c.812,0,1.54-.045,2.306-.045s1.449,0,2.26.045v-.464l-.748-.046c-.373,0-.564-.082-.655-.237a2.735,2.735,0,0,1-.137-1.166v-6.6a13.6,13.6,0,0,1,.055-1.558h2.415c.473,0,.593.146.629.519l.064,1.23h.482a18.822,18.822,0,0,1,.111-2.506h-9.033c.073.812.111,1.667.111,2.506h.52l.063-1.23c0-.373.155-.519.621-.519h2.414c0,.473.064.966.064,1.558Zm10.508-9.04h-.5c-.419,1.121-.912,2.278-1.432,3.363l-2.735,6.315a1.126,1.126,0,0,1-.846.766l-.575.046v.464c.593,0,1.185-.045,1.823-.045.446,0,1.039,0,1.823.045v-.464l-.573-.046c-.484,0-.748-.109-.748-.437a8.79,8.79,0,0,1,.546-1.623l.437-1.039h4.484l.72,1.824a3.7,3.7,0,0,1,.328,1c0,.182-.31.291-.637.31l-.739.045v.466c.848,0,1.532-.046,2.078-.046.7,0,1.385,0,2.069.046v-.466l-.528-.045c-.273,0-.446-.237-.62-.528s-.355-.748-.5-1.067Zm-2.66,6.725,1.976-4.647,1.969,4.647Zm11.518-4.684a2.739,2.739,0,0,1,.146-1.166c.091-.155.273-.219.657-.237l.746-.045v-.466h-4.574v.466l.746.045c.384,0,.566.082.657.237a2.715,2.715,0,0,1,.145,1.166v7.419a1.006,1.006,0,0,1-.391.911l-.484.246v.355c.411,0,.793-.045,1.323-.045.966,0,2,0,3.4.045,1.157,0,2.387,0,3.071-.045.128-.775.237-1.823.328-2.68h-.5l-.182.784a2.852,2.852,0,0,1-.328.993,11.468,11.468,0,0,1-3.444.3,5.487,5.487,0,0,1-1.314-.128ZM143.373,983.22a2.735,2.735,0,0,1,.136-1.166c.091-.155.284-.2.657-.228l.655-.055v-.464c-.455,0-.911.046-1.448.046s-.985,0-1.485-.046l-4.083,8.667-4.111-8.667c-.482,0-.984.046-1.485.046s-.993,0-1.476-.046v.464l.684.055c.373,0,.555.073.655.228a2.735,2.735,0,0,1,.137,1.166v7a2.779,2.779,0,0,1-.137,1.175c-.1.155-.282.2-.655.228l-.684.055v.464c.62,0,1.239-.046,1.823-.046s1.185,0,1.823.046v-.464l-.684-.055c-.373,0-.564-.073-.655-.228a2.779,2.779,0,0,1-.137-1.175v-7.073l4.32,9.114h.309c.284-.656.548-1.339.848-1.977l2.735-5.9c.2-.419.419-.857.655-1.276v7.071a2.81,2.81,0,0,1-.136,1.176c-.091.155-.284.2-.657.228l-.528.054v.466c.593,0,1.321-.046,2.087-.046s1.449,0,2.26.046v-.466l-.746-.054c-.375,0-.566-.073-.657-.228a2.786,2.786,0,0,1-.137-1.176Zm7.673-2.041h-.5c-.418,1.13-.957,2.278-1.439,3.371l-2.735,6.316a1.1,1.1,0,0,1-.837.757l-.584.055v.464c.593,0,1.185-.046,1.823-.046.455,0,1.048,0,1.823.046v-.464l-.584-.055c-.482-.046-.746-.109-.746-.429a9.136,9.136,0,0,1,.546-1.623l.437-1.048h4.493l.711,1.823a3.394,3.394,0,0,1,.246.966c0,.193-.311.3-.639.31l-.728.055v.464c.839,0,1.523-.046,2.069-.046.7,0,1.394,0,2.078.046v-.464l-.528-.055c-.284,0-.457-.228-.63-.529s-.355-.748-.5-1.057Zm-2.624,6.734,1.978-4.647,1.967,4.647Zm15.147-4.018a10.955,10.955,0,0,1,.218-2.2,7.166,7.166,0,0,0-2.8-.657c-1.823,0-3.983,1.1-3.983,3.527,0,1.612.966,2.378,3.408,2.66,1.6.193,2.735.611,2.735,2.087a2.552,2.552,0,0,1-2.683,2.414l-.106-.008c-1.232,0-2.462-.593-2.544-1.248l-.118-1.048h-.5a13.431,13.431,0,0,1-.109,2.387,6.7,6.7,0,0,0,2.662.592c2.323,0,4.711-1.276,4.711-3.945,0-1.778-1.385-2.324-3.592-2.553-1.959-.218-2.615-.875-2.615-1.932a2.224,2.224,0,0,1,2.168-2.279c.046,0,.093,0,.139,0a3.479,3.479,0,0,1,1.7.373c.573.355.637.51.682.911l.091.912Zm8.867,0a10.955,10.955,0,0,1,.218-2.2,7.158,7.158,0,0,0-2.824-.657c-1.823,0-3.992,1.1-3.992,3.527,0,1.612.966,2.378,3.417,2.66,1.585.193,2.735.611,2.735,2.087a2.553,2.553,0,0,1-2.683,2.415c-.039,0-.078,0-.116-.009-1.23,0-2.46-.593-2.542-1.248l-.127-1.048h-.493a15.367,15.367,0,0,1-.109,2.387,6.677,6.677,0,0,0,2.66.592c2.324,0,4.713-1.276,4.713-3.945,0-1.778-1.394-2.324-3.592-2.553-1.95-.218-2.569-.911-2.569-1.932A2.223,2.223,0,0,1,169.3,981.7c.046,0,.093,0,.139,0a3.475,3.475,0,0,1,1.7.373c.575.355.637.51.684.911l.091.912Zm7.062-2.716h-.491c-.419,1.13-.912,2.278-1.441,3.371l-2.735,6.316a1.1,1.1,0,0,1-.846.757l-.575.055v.464c.593,0,1.185-.046,1.823-.046.455,0,1.039,0,1.823.046v-.464l-.584-.055c-.482-.046-.746-.109-.746-.429a9.132,9.132,0,0,1,.546-1.623l.437-1.048H181.2l.711,1.823a3.637,3.637,0,0,1,.328.994c0,.191-.311.3-.637.309l-.73.055v.464c.839,0,1.523-.045,2.069-.045.7,0,1.385,0,2.078.045V991.7l-.537-.055c-.273,0-.446-.227-.619-.528s-.357-.746-.5-1.057Zm-2.615,6.734,1.978-4.647,1.969,4.647Zm18.127,2.871-.136-.154a5.957,5.957,0,0,1-3.163.91,4.8,4.8,0,0,1-5.128-4.454,4.69,4.69,0,0,1,0-.631c0-2.651,1.541-4.784,4.474-4.784a5.7,5.7,0,0,1,1.742.264c.719.264,1.348.529,1.348.966v1.149h.484a11.729,11.729,0,0,1,.291-2.37,11.524,11.524,0,0,0-3.645-.637,7.007,7.007,0,0,0-4.5,1.494,5.218,5.218,0,0,0-1.9,4.193c0,3.544,2.524,5.677,6.27,5.677a7.729,7.729,0,0,0,3.392-.839Zm11.93-7.564a2.712,2.712,0,0,1,.136-1.166c.1-.155.282-.219.657-.228l.746-.055v-.464c-.811,0-1.539.046-2.26.046s-1.494,0-2.3-.046v.464l.746.055c.375,0,.566.073.657.228a2.741,2.741,0,0,1,.146,1.166V986H199.23v-2.78a2.741,2.741,0,0,1,.145-1.166c.091-.155.284-.219.657-.228l.748-.055v-.464c-.812,0-1.55.046-2.26.046s-1.5,0-2.306-.046v.464l.748.055c.373,0,.555.073.646.228a2.741,2.741,0,0,1,.146,1.166v7a2.735,2.735,0,0,1-.146,1.175c-.091.155-.273.219-.646.228l-.748.055v.464c.8,0,1.541-.046,2.306-.046s1.448,0,2.26.046v-.464l-.748-.055c-.373,0-.566-.073-.657-.228a2.734,2.734,0,0,1-.145-1.175v-3.472h6.234v3.472a2.735,2.735,0,0,1-.146,1.175c-.091.155-.282.219-.657.228l-.746.055v.464c.811,0,1.55-.046,2.3-.046s1.449,0,2.26.046v-.464l-.746-.055c-.375,0-.557-.073-.657-.228a2.778,2.778,0,0,1-.136-1.175Zm4.174,5.541c0,2.853,1.558,3.645,4.21,3.645,3.145,0,4.411-1.339,4.411-4.675v-4.556a2.744,2.744,0,0,1,.137-1.167c.091-.155.282-.2.655-.229l.684-.054v-.419c-.684,0-1.248.046-1.867.046s-1.185,0-1.823-.046v.464l.684.055c.373,0,.564.073.655.228A2.735,2.735,0,0,1,219,983.22v4.995c0,2.588-1.523,3.226-3.208,3.226-2.06,0-3.217-.638-3.217-2.853V983.22a2.717,2.717,0,0,1,.145-1.166c.091-.155.282-.219.657-.228l.746-.055v-.464c-.811,0-1.548.046-2.26.046s-1.494,0-2.3-.046v.464l.746.055c.375,0,.557.073.657.228a2.943,2.943,0,0,1,.155,1.166Zm17.725-4.866a11.068,11.068,0,0,1,.219-2.2,7.129,7.129,0,0,0-2.817-.657c-1.823,0-3.992,1.1-3.992,3.527,0,1.612.966,2.378,3.418,2.66,1.585.193,2.733.611,2.733,2.087a2.551,2.551,0,0,1-2.683,2.414l-.106-.008c-1.23,0-2.46-.593-2.533-1.248l-.119-1.048h-.5a13.439,13.439,0,0,1-.11,2.387,6.753,6.753,0,0,0,2.671.592c2.324,0,4.7-1.276,4.7-3.945,0-1.778-1.385-2.324-3.581-2.553-1.95-.218-2.571-.911-2.571-1.932a2.215,2.215,0,0,1,2.148-2.279c.054,0,.106,0,.158,0a3.463,3.463,0,0,1,1.7.373c.573.355.637.51.682.911l.1.912Zm3.592,6.325a2.734,2.734,0,0,1-.146,1.175c-.091.155-.282.2-.657.228l-.555.055v.464c.555,0,1.075-.046,1.667-.046.966,0,2.2,0,3.4.046s2.38,0,3.072-.046a13.4,13.4,0,0,1,.246-2.56h-.548c-.109.911-.309,1.623-.546,1.75a14.306,14.306,0,0,1-3.144.2,5.463,5.463,0,0,1-1.312-.127V987h1.823a3.8,3.8,0,0,1,1.65.191c.072,0,.109.182.127.391l.073.912h.464v-3.545h-.5l-.072.811a.652.652,0,0,1-.128.41,4.4,4.4,0,0,1-1.65.164H233.87V982.09a5.471,5.471,0,0,1,1.312-.127,9.7,9.7,0,0,1,3.053.327c.128,0,.137.219.137.419v1.012h.546a10.357,10.357,0,0,1,.255-2.369c-.611,0-1.312-.046-2.014-.046-.911,0-2.324.046-3.645.046-.911,0-1.823,0-2.633-.046v.464l.746.055c.375,0,.566.073.657.228a2.739,2.739,0,0,1,.146,1.166Zm11.893,0a2.778,2.778,0,0,1-.137,1.175c-.1.155-.282.219-.655.228l-.748.055v.464c.811,0,1.541-.046,2.3-.046s1.449,0,2.262.046v-.464l-.748-.055c-.373,0-.566-.073-.657-.228a2.734,2.734,0,0,1-.145-1.175V983.63a11.927,11.927,0,0,1,.063-1.559h2.415c.475,0,.593.136.63.51l.063,1.23h.484a19.084,19.084,0,0,1,.109-2.506c-1.121,0-2.251.046-3.372.046h-2.269c-1.121,0-2.242-.046-3.363-.046.073.811.11,1.668.11,2.506h.52v-1.23c0-.374.154-.51.62-.51h2.414c0,.464.064.966.064,1.559Zm9.933,0a2.733,2.733,0,0,1-.145,1.175c-.093.155-.275.219-.648.228l-.757.055v.464c.812,0,1.55-.046,2.315-.046s1.45,0,2.26.046v-.464l-.748-.055c-.373,0-.564-.073-.655-.228a2.734,2.734,0,0,1-.146-1.175V983.63a11.668,11.668,0,0,1,.064-1.559h2.415c.473,0,.593.136.628.51l.055,1.23h.52a19.078,19.078,0,0,1,.109-2.506c-1.13,0-2.251.046-3.372.046h-2.26c-1.121,0-2.242-.046-3.363-.046.073.811.109,1.668.109,2.506h.484l.055-1.23c0-.374.164-.51.628-.51h2.415c0,.464.063.966.063,1.559Zm12.859-6.325a11.067,11.067,0,0,1,.219-2.2,7.177,7.177,0,0,0-2.815-.657c-1.878,0-3.993,1.1-3.993,3.527,0,1.612.967,2.378,3.41,2.66,1.594.193,2.733.611,2.733,2.087a2.55,2.55,0,0,1-2.683,2.414l-.106-.008c-1.23,0-2.46-.593-2.542-1.248l-.1-1.048h-.5a13.436,13.436,0,0,1-.109,2.387,6.74,6.74,0,0,0,2.669.592c2.315,0,4.7-1.276,4.7-3.945,0-1.778-1.385-2.324-3.583-2.553-1.95-.218-2.578-.911-2.578-1.932a2.222,2.222,0,0,1,2.166-2.279c.049,0,.1,0,.148,0a3.459,3.459,0,0,1,1.7.373c.573.355.637.51.684.911l.1.912Z" transform="translate(-87.352 -979.903)"/></g></g></svg>