<?xml version="1.0" standalone="no"?>
<!DOCTYPE svg PUBLIC "-//W3C//DTD SVG 20010904//EN"
 "http://www.w3.org/TR/2001/REC-SVG-20010904/DTD/svg10.dtd">
<svg version="1.0" xmlns="http://www.w3.org/2000/svg"
 width="16.000000pt" height="16.000000pt" viewBox="0 0 16.000000 16.000000"
 preserveAspectRatio="xMidYMid meet">
<metadata>
Created by potrace 1.11, written by Peter Selinger 2001-2013
</metadata>
<g transform="translate(0.000000,16.000000) scale(0.005281,-0.005281)"
fill="#000000" stroke="none">
<path d="M1403 2988 c-248 -16 -488 -99 -714 -249 -120 -80 -314 -272 -391
-389 -116 -174 -198 -376 -234 -570 -27 -142 -24 -411 4 -546 100 -470 386
-840 807 -1044 216 -105 386 -143 635 -144 201 0 305 15 470 70 226 75 400
184 576 359 238 238 378 513 424 836 16 107 13 332 -4 440 -65 406 -300 769
-643 996 -283 187 -577 263 -930 241z m447 -156 c490 -128 855 -492 982 -982
26 -98 31 -139 35 -280 6 -199 -10 -321 -63 -479 -71 -212 -185 -391 -349
-549 -193 -186 -402 -297 -667 -354 -144 -30 -400 -31 -538 0 -272 59 -502
184 -690 372 -188 188 -313 418 -372 690 -31 138 -30 394 0 538 57 265 168
474 354 667 158 164 337 278 549 349 162 54 245 66 459 62 168 -3 196 -6 300
-34z"/>
<path d="M1503 2790 c9 -34 -13 -160 -40 -226 -13 -34 -70 -127 -125 -206
-152 -218 -198 -329 -198 -478 0 -179 84 -334 234 -432 33 -21 68 -38 79 -38
19 0 19 2 -6 28 -14 15 -38 54 -54 87 -26 55 -28 69 -27 170 1 86 6 123 23
169 23 64 69 142 100 170 19 17 21 16 66 -25 70 -64 99 -128 100 -214 0 -38
-6 -85 -14 -103 -7 -18 -11 -35 -8 -39 15 -15 63 13 117 68 153 156 188 373
99 626 -53 151 -135 278 -257 396 -72 69 -98 83 -89 47z"/>
<path d="M2005 1237 c-125 -42 -201 -127 -225 -253 -21 -105 17 -213 101 -289
68 -62 120 -79 229 -79 79 0 103 4 143 23 89 44 177 167 177 248 l0 23 -210 0
-210 0 0 -30 0 -30 170 0 c191 0 190 0 140 -68 -57 -79 -158 -122 -252 -108
-61 9 -146 62 -180 111 -100 146 -24 346 152 395 87 24 182 -1 246 -66 36 -35
51 -44 80 -44 l35 0 -15 28 c-23 45 -77 93 -134 119 -65 30 -186 40 -247 20z"/>
<path d="M680 920 l0 -310 35 0 35 0 2 261 3 261 175 -261 c168 -250 176 -260
208 -261 l32 0 0 310 0 310 -30 0 -30 0 0 -246 c0 -138 -4 -243 -9 -240 -5 3
-81 114 -170 246 l-162 240 -44 0 -45 0 0 -310z"/>
<path d="M1320 921 l0 -311 35 0 35 0 0 281 0 282 93 -5 c138 -7 187 -42 187
-132 0 -93 -29 -122 -142 -139 -40 -6 -74 -12 -76 -13 -2 -1 42 -63 98 -138
101 -134 103 -136 141 -136 22 0 39 2 39 5 0 3 -33 50 -73 103 -98 129 -94
119 -48 132 83 22 131 88 131 179 0 61 -13 97 -48 135 -45 48 -84 59 -234 64
l-138 5 0 -312z"/>
</g>
</svg>
