<?xml version="1.0" encoding="UTF-8"?>
<svg width="1139" height="424" version="1.1" viewBox="0 0 1139 424" xml:space="preserve" xmlns="http://www.w3.org/2000/svg" xmlns:cc="http://creativecommons.org/ns#" xmlns:dc="http://purl.org/dc/elements/1.1/" xmlns:rdf="http://www.w3.org/1999/02/22-rdf-syntax-ns#" xmlns:xlink="http://www.w3.org/1999/xlink"><title>DOD Logo Primary</title><metadata><rdf:RDF><cc:Work rdf:about=""><dc:format>image/svg+xml</dc:format><dc:type rdf:resource="http://purl.org/dc/dcmitype/StillImage"/><dc:title>DOD Logo Primary</dc:title></cc:Work></rdf:RDF></metadata>
<defs><linearGradient id="Pentagon"><stop stop-color="#355e93" offset="0"/><stop stop-color="#728fb4" offset="1"/></linearGradient></defs>
<g fill="#141414">
<path d="m588.44 109.96v42.651c0 1.396 0.0635 3.0239 0.19043 4.8828 0.125 1.8599 0.44238 3.772 0.94824 5.7295 0.50391 1.9619 1.2158 3.8877 2.1309 5.7793 0.91504 1.8936 2.1641 3.5879 3.7412 5.082 1.5762 1.4971 3.5234 2.6934 5.8281 3.5879 2.3037 0.89746 5.1006 1.3457 8.3848 1.3457 4.169 0 7.6592-0.6123 10.469-1.8447 2.8106-1.2285 5.083-2.9883 6.8203-5.2822 1.7354-2.2891 2.9854-5.0625 3.7451-8.3203 0.75293-3.2534 1.1348-6.9062 1.1348-10.96v-42.651h4.167v42.651c0 4.2529-0.4248 8.2051-1.2783 11.857-0.85156 3.6543-2.292 6.8457-4.3106 9.5684-2.0225 2.7217-4.7227 4.8672-8.0996 6.4268-3.3789 1.5596-7.5967 2.3408-12.647 2.3408-3.9795 0-7.3906-0.5332-10.233-1.5947-2.8428-1.0625-5.1953-2.4394-7.0586-4.1338-1.8643-1.6943-3.3291-3.6377-4.4043-5.8301-1.0742-2.1924-1.8926-4.3994-2.4619-6.627-0.56934-2.2246-0.91797-4.3848-1.042-6.478-0.12988-2.0913-0.19043-3.9351-0.19043-5.5298v-42.651z"/>
<path d="m702.06 130.29c-0.12598-3.0557-0.74316-5.7139-1.8447-7.9731-1.1084-2.2564-2.6064-4.1494-4.502-5.6797-1.8955-1.5273-4.1533-2.6728-6.7754-3.438-2.6201-0.76367-5.4795-1.145-8.5732-1.145-1.8955 0-3.9316 0.23193-6.1113 0.69727-2.1787 0.46533-4.2022 1.2793-6.0635 2.4404-1.8623 1.1655-3.3955 2.7246-4.5947 4.6841-1.2002 1.9595-1.7998 4.4019-1.7998 7.3252 0 2.8569 0.66309 5.1812 1.9902 6.9756 1.3252 1.793 3.0615 3.2402 5.2109 4.334 2.1475 1.0977 4.6094 1.978 7.3887 2.6392 2.7812 0.66602 5.5889 1.2983 8.4316 1.895 2.9053 0.59912 5.7344 1.3125 8.4795 2.1431 2.749 0.83203 5.2109 1.96 7.3906 3.3882 2.1807 1.4292 3.9326 3.2876 5.2598 5.5801 1.3252 2.291 1.9863 5.1655 1.9863 8.6201 0 3.7222-0.75586 6.8442-2.2715 9.3667-1.5146 2.5264-3.4268 4.585-5.7334 6.1768-2.3057 1.5967-4.8643 2.7402-7.6728 3.4394-2.8115 0.69727-5.5117 1.0459-8.1016 1.0459-3.9795 0-7.708-0.44629-11.178-1.3438-3.4775-0.89844-6.5078-2.3574-9.0967-4.3848-2.5889-2.0254-4.627-4.6348-6.1104-7.8232-1.4854-3.1875-2.1943-7.0747-2.1328-11.658h4.1699c-0.18848 3.9194 0.3457 7.2227 1.6104 9.9141 1.2627 2.6904 3.0156 4.8994 5.2588 6.627 2.2412 1.7285 4.8809 2.9736 7.9121 3.7373 3.0303 0.7627 6.2188 1.1455 9.5664 1.1455 2.0205 0 4.1846-0.26367 6.4902-0.79688 2.3066-0.53223 4.4199-1.4297 6.3496-2.6904 1.9248-1.2617 3.5342-2.9228 4.832-4.9834 1.291-2.0586 1.9404-4.6494 1.9404-7.772 0-2.9888-0.66406-5.4316-1.9912-7.3247-1.3252-1.895-3.0781-3.4219-5.2568-4.585-2.1787-1.1602-4.6436-2.0903-7.3906-2.7876-2.7461-0.69873-5.5742-1.3457-8.4775-1.9453-2.8408-0.59619-5.6533-1.294-8.4316-2.0933-2.7832-0.79688-5.2461-1.876-7.3926-3.2363-2.1465-1.3628-3.8818-3.123-5.208-5.2822-1.3262-2.1587-1.9912-4.9336-1.9912-8.3208 0-3.3882 0.67676-6.2935 2.0371-8.7197 1.3584-2.4248 3.126-4.3843 5.3066-5.8784 2.1777-1.4956 4.626-2.5923 7.3418-3.2896 2.7129-0.69873 5.4004-1.0474 8.0527-1.0474 3.5371 0 6.835 0.41797 9.9014 1.2461 3.0615 0.83203 5.7461 2.127 8.0527 3.8867 2.3057 1.7612 4.1514 4.0352 5.54 6.8257 1.3906 2.7891 2.1816 6.145 2.3711 10.065h-4.1699z"/>
<path d="m607.89 266.67c3.2969 0 6.6084-0.53516 9.9404-1.6133 3.3281-1.0732 6.3447-2.876 9.0478-5.4092 2.7031-2.5293 4.8955-5.9287 6.5772-10.191 1.6797-4.2656 2.5244-9.625 2.5244-16.074 0-5.0596-0.48145-9.3965-1.4365-13.002-0.95508-3.6074-2.209-6.6406-3.7588-9.1055-1.5508-2.459-3.3301-4.4023-5.3398-5.8252-2.0117-1.419-4.0879-2.5127-6.2334-3.2773-2.1406-0.76074-4.2842-1.2656-6.4258-1.5068-2.1426-0.24414-4.0713-0.36523-5.7842-0.36523h-18.102v66.37zm-23.341-70.323h23.144c6.3291 0 11.585 1.0391 15.775 3.1221 4.1865 2.0791 7.5312 4.8545 10.038 8.3223 2.5059 3.4688 4.2676 7.4238 5.292 11.86 1.0195 4.4375 1.5312 9.0166 1.5312 13.73 0 5.2705-0.64355 10.18-1.9287 14.72-1.2852 4.543-3.2793 8.4775-5.9824 11.807-2.7041 3.3301-6.1182 5.9492-10.238 7.8545-4.1191 1.9092-9.0166 2.8613-14.687 2.8613h-22.944z"/>
<polygon transform="translate(61,61)" points="639.43 139.29 596.31 139.29 596.31 169.05 636.86 169.05 636.86 173 596.31 173 596.31 205.67 639.92 205.67 639.92 209.62 591.96 209.62 591.96 135.34 639.43 135.34"/>
<path d="m720.43 233.58h24.827c3.165 0 5.8496-0.50195 8.0606-1.5078 2.206-1.0049 3.9688-2.3066 5.2891-3.9004 1.3184-1.5957 2.2754-3.3652 2.8691-5.3057 0.59473-1.9424 0.89063-3.8848 0.89063-5.8272 0-1.3857-0.19922-3.0342-0.5957-4.9424-0.39453-1.9062-1.1836-3.7451-2.3711-5.5146-1.1904-1.7676-2.8555-3.2559-4.9951-4.4707-2.1426-1.2148-4.9951-1.8213-8.5557-1.8213h-25.419v33.29zm-4.3496-37.243h30.066c1.9756 0 4.1699 0.24512 6.5772 0.72754 2.4053 0.48535 4.6484 1.4756 6.7236 2.9648 2.0772 1.4941 3.8066 3.6084 5.1934 6.3467 1.3848 2.7412 2.0781 6.3301 2.0781 10.767 0 6.5215-1.915 11.55-5.7363 15.086-3.8252 3.5352-9.2988 5.3066-16.422 5.3066h-24.131v33.079h-4.3496z"/>
<polygon transform="translate(61,61)" points="763.56 135.34 763.56 139.29 738.64 139.29 738.64 209.62 734.29 209.62 734.29 139.29 709.46 139.29 709.46 135.34"/>
<path d="m862.28 233.48c0 4.7852 0.66211 9.292 1.9814 13.521 1.3174 4.2324 3.2285 7.9228 5.7363 11.08 2.502 3.1553 5.5693 5.668 9.1963 7.541 3.624 1.873 7.749 2.8066 12.365 2.8066 4.6133 0 8.7168-0.93359 12.312-2.8066 3.5918-1.873 6.6406-4.3857 9.1484-7.541 2.5039-3.1572 4.416-6.8477 5.7354-11.08 1.3184-4.2295 1.9795-8.7363 1.9795-13.521s-0.66113-9.293-1.9795-13.525c-1.3193-4.2295-3.2314-7.9238-5.7354-11.079-2.5078-3.1562-5.5566-5.669-9.1484-7.542-3.5957-1.8721-7.6992-2.8086-12.312-2.8086-4.6162 0-8.7412 0.93652-12.365 2.8086-3.627 1.873-6.6943 4.3857-9.1963 7.542-2.5078 3.1553-4.419 6.8496-5.7363 11.079-1.3193 4.2324-1.9814 8.7402-1.9814 13.525zm62.808 0c0 5.4082-0.76074 10.489-2.2744 15.24-1.5186 4.751-3.709 8.874-6.5772 12.379-2.8701 3.501-6.3799 6.2588-10.535 8.2695-4.1543 2.0117-8.8701 3.0176-14.142 3.0176-5.2764 0-10.007-1.0059-14.192-3.0176-4.1894-2.0107-7.7158-4.7686-10.584-8.2695-2.8672-3.5049-5.0606-7.6279-6.5791-12.379-1.5166-4.751-2.2734-9.832-2.2734-15.24 0-5.4102 0.75684-10.49 2.2734-15.241 1.5186-4.751 3.7119-8.8779 6.5791-12.379 2.8682-3.502 6.3945-6.2588 10.584-8.2725 4.1856-2.0117 8.916-3.0176 14.192-3.0176 5.2715 0 9.9873 1.0059 14.142 3.0176 4.1553 2.0137 7.665 4.7705 10.535 8.2725 2.8682 3.501 5.0586 7.6279 6.5772 12.379 1.5137 4.751 2.2744 9.8311 2.2744 15.241z"/>
<polygon transform="translate(61,61)" points="919.84 139.29 879.88 139.29 879.88 169.05 915.88 169.05 915.88 173 879.88 173 879.88 209.62 875.53 209.62 875.53 135.34 919.84 135.34"/>
<path d="m614.97 347.05c2.3223 0 4.5742-0.3916 6.7617-1.1846 2.1846-0.78906 4.1309-2.1006 5.8379-3.9326 1.707-1.8301 3.0732-4.2188 4.0996-7.1641 1.0244-2.9453 1.5352-6.5381 1.5352-10.774 0-3.8789-0.3584-7.3828-1.0742-10.508-0.71777-3.123-1.8965-5.7998-3.5342-8.0264-1.6396-2.2275-3.8066-3.9336-6.5039-5.1172-2.7002-1.1894-6.0303-1.7803-9.9912-1.7803h-11.472v48.487zm1.1279-62.711c4.7119 0 9.1006 0.79297 13.165 2.373 4.0615 1.5781 7.5801 3.9492 10.547 7.1104 2.9736 3.1611 5.293 7.1123 6.9688 11.853 1.6728 4.7402 2.5098 10.31 2.5098 16.703 0 5.6016-0.68457 10.774-2.0488 15.515-1.3691 4.7402-3.4336 8.835-6.1992 12.284-2.7637 3.4463-6.2148 6.1582-10.344 8.1318-4.1338 1.9795-9 2.9648-14.599 2.9648h-31.552v-76.935h31.552z"/>
<polygon transform="translate(61,61)" points="618.98 237.56 618.98 254.05 654.42 254.05 654.42 267.2 618.98 267.2 618.98 286.05 658.42 286.05 658.42 300.28 602.9 300.28 602.9 223.34 657.6 223.34 657.6 237.56"/>
<polygon transform="translate(61,61)" points="690.48 237.56 690.48 255.34 721.11 255.34 721.11 268.49 690.48 268.49 690.48 300.28 674.4 300.28 674.4 223.34 725.82 223.34 725.82 237.56"/>
<polygon transform="translate(61,61)" points="754.89 237.56 754.89 254.05 790.33 254.05 790.33 267.2 754.89 267.2 754.89 286.05 794.33 286.05 794.33 300.28 738.8 300.28 738.8 223.34 793.51 223.34 793.51 237.56"/>
<polygon transform="translate(61,61)" points="858.48 274.96 858.48 223.34 873.54 223.34 873.54 300.28 857.46 300.28 827.04 248.77 826.83 248.77 826.83 300.28 811.77 300.28 811.77 223.34 827.75 223.34 858.28 274.96"/>
<path d="m966.1 342.31c0.88574 1.7949 2.0644 3.2539 3.5342 4.3633 1.4648 1.1152 3.1894 1.9404 5.1728 2.4775 1.9795 0.53906 4.0283 0.80957 6.1465 0.80957 1.4336 0 2.9707-0.125 4.6104-0.37598 1.6367-0.25195 3.1738-0.7373 4.6094-1.4551 1.4336-0.71582 2.626-1.7041 3.5859-2.9639 0.95605-1.2559 1.4316-2.8555 1.4316-4.793 0-2.085-0.63086-3.7734-1.8955-5.0644-1.2627-1.294-2.916-2.3721-4.9648-3.2334-2.0508-0.86133-4.375-1.6162-6.9697-2.2617-2.5938-0.64844-5.2246-1.3652-7.8867-2.1562-2.7334-0.7168-5.3936-1.5986-7.9893-2.6406-2.5947-1.04-4.919-2.3877-6.9678-4.0381-2.0508-1.6543-3.7031-3.7178-4.9668-6.1963-1.2676-2.4785-1.8955-5.4785-1.8955-9 0-3.9492 0.80176-7.3779 2.4072-10.289 1.6025-2.9082 3.7041-5.333 6.3008-7.2744 2.5957-1.9375 5.5312-3.374 8.8106-4.3106 3.2744-0.93066 6.5557-1.4004 9.832-1.4004 3.8262 0 7.4961 0.45117 11.015 1.3486 3.5146 0.90039 6.6396 2.3545 9.373 4.3623 2.7295 2.0117 4.8984 4.5801 6.5019 7.707 1.6065 3.1221 2.4073 6.9141 2.4073 11.368h-15.569c-0.1377-2.2978-0.59961-4.206-1.3818-5.7129-0.78809-1.5068-1.8291-2.6943-3.126-3.5557-1.2959-0.8623-2.7842-1.4717-4.457-1.8301-1.6709-0.36035-3.501-0.53906-5.4805-0.53906-1.2949 0-2.5938 0.14453-3.8896 0.42969-1.2998 0.28906-2.4775 0.79199-3.5361 1.5098-1.0586 0.71875-1.9297 1.6162-2.6104 2.6914-0.68457 1.0781-1.0264 2.4434-1.0264 4.0947 0 1.5098 0.27344 2.7305 0.82031 3.6641 0.5459 0.93359 1.6201 1.7969 3.2266 2.5879 1.6045 0.78906 3.8232 1.5801 6.6582 2.3672 2.834 0.79297 6.541 1.7988 11.114 3.0195 1.3662 0.28613 3.2627 0.80762 5.6856 1.5635 2.4248 0.75195 4.831 1.958 7.2246 3.6104 2.3896 1.6514 4.456 3.8584 6.1963 6.625 1.7412 2.7656 2.6094 6.3037 2.6094 10.612 0 3.5215-0.6465 6.7881-1.9415 9.8066-1.2998 3.0166-3.2304 5.6221-5.79 7.8106-2.5615 2.1943-5.7383 3.8975-9.5264 5.1191-3.791 1.2207-8.1797 1.8311-13.164 1.8311-4.0303 0-7.9404-0.52246-11.729-1.5635-3.791-1.04-7.1377-2.6738-10.041-4.9014-2.9043-2.2275-5.206-5.0625-6.9141-8.5117-1.708-3.4502-2.5273-7.5449-2.458-12.285h15.57c2e-5 2.585 0.44435 4.7783 1.333 6.5732z"/>
<polygon transform="translate(61,61)" points="977.56 237.56 977.56 254.05 1013 254.05 1013 267.2 977.56 267.2 977.56 286.05 1017 286.05 1017 300.28 961.48 300.28 961.48 223.34 1016.2 223.34 1016.2 237.56"/>
<polygon transform="translate(61,61)" points="579.73 113.43 585.31 113.43 585.31 121.81 579.73 121.81"/>
<polygon transform="translate(61,61)" points="652.37 113.43 657.95 113.43 657.95 121.81 652.37 121.81"/>
</g>
<polygon transform="translate(61,61)" points="58.789 302 0.5332 131.48 0 78.798 58.951 241.01" fill="url(#Pentagon)"/>
<polygon transform="translate(61,61)" points="423.61 302 480.2 131.48 480.97 79.385 423.61 240.2" fill="url(#Pentagon)"/>
<path d="m384.02 218.64h-156.13l-15.923-41.704-9.8154-25.707 102.57-33.488 104.47 33.488zm-79.158-157.64-239.52 76.438 58.749 153.87h356.37l57.459-153.87z" fill="url(#Pentagon)"/>
<polygon transform="translate(61,61)" points="65.799 240.22 416.14 240.22 416.14 301.44 65.796 301.44" fill="url(#Pentagon)"/>
<polygon transform="translate(61,61)" points="240.27 93.986 240.27 64.979 150.08 94.493 158.9 117.27" fill="#355e93"/>
<polygon transform="translate(61,61)" points="330.53 117.58 339.3 94.94 247.26 65.199 247.26 94.217" fill="#355e93"/>
</svg>
