<?xml version="1.0" encoding="UTF-8" standalone="no"?>
<!-- Created with Inkscape (http://www.inkscape.org/) -->

<svg
   xmlns:dc="http://purl.org/dc/elements/1.1/"
   xmlns:cc="http://creativecommons.org/ns#"
   xmlns:rdf="http://www.w3.org/1999/02/22-rdf-syntax-ns#"
   xmlns:svg="http://www.w3.org/2000/svg"
   xmlns="http://www.w3.org/2000/svg"
   xmlns:sodipodi="http://sodipodi.sourceforge.net/DTD/sodipodi-0.dtd"
   xmlns:inkscape="http://www.inkscape.org/namespaces/inkscape"
   width="100"
   height="100"
   id="svg2"
   version="1.1"
   inkscape:version="0.48.5 r10040"
   sodipodi:docname="default-paper.svg"
   inkscape:export-filename="F:\research\drummondlab.github.io\assets\images\papers\default-paper.png"
   inkscape:export-xdpi="90"
   inkscape:export-ydpi="90">
  <defs
     id="defs4" />
  <sodipodi:namedview
     id="base"
     pagecolor="#ffffff"
     bordercolor="#666666"
     borderopacity="1.0"
     inkscape:pageopacity="0.0"
     inkscape:pageshadow="2"
     inkscape:zoom="3.959798"
     inkscape:cx="52.400994"
     inkscape:cy="43.592405"
     inkscape:document-units="px"
     inkscape:current-layer="layer1"
     showgrid="false"
     fit-margin-top="0"
     fit-margin-left="0"
     fit-margin-right="0"
     fit-margin-bottom="0"
     inkscape:window-width="2560"
     inkscape:window-height="1388"
     inkscape:window-x="-8"
     inkscape:window-y="-8"
     inkscape:window-maximized="1" />
  <metadata
     id="metadata7">
    <rdf:RDF>
      <cc:Work
         rdf:about="">
        <dc:format>image/svg+xml</dc:format>
        <dc:type
           rdf:resource="http://purl.org/dc/dcmitype/StillImage" />
        <dc:title></dc:title>
      </cc:Work>
    </rdf:RDF>
  </metadata>
  <g
     inkscape:label="Layer 1"
     inkscape:groupmode="layer"
     id="layer1"
     transform="translate(-14.142136,-15.945672)">
    <rect
       style="fill:none;stroke:none"
       id="rect2985"
       width="100"
       height="100"
       x="14.142136"
       y="15.945672" />
    <path
       sodipodi:type="arc"
       style="fill:#999999;stroke:#000000;stroke-width:0.79639822000000005;stroke-linecap:round;stroke-linejoin:round;stroke-miterlimit:4;stroke-opacity:1;stroke-dasharray:none;stroke-dashoffset:0"
       id="path3755"
       sodipodi:cx="65.281105"
       sodipodi:cy="55.972965"
       sodipodi:rx="20.581858"
       sodipodi:ry="20.581858"
       d="m 85.862963,55.972965 a 20.581858,20.581858 0 1 1 -41.163716,0 20.581858,20.581858 0 1 1 41.163716,0 z"
       transform="matrix(1.255137,0,0,1.2561696,-30.702181,-8.8135892)" />
    <path
       style="fill:#ffffff;fill-opacity:1;stroke:none"
       d="m 47.992615,40.259439 c 1.417442,1.790583 -1.01991,6.217615 -5.443981,9.88804 -4.424075,3.670426 -9.159566,5.194331 -10.577009,3.403749 -1.417441,-1.790583 1.01992,-6.217599 5.443995,-9.888025 4.424072,-3.670425 9.159553,-5.194346 10.576995,-3.403764 z"
       id="path63865"
       inkscape:connector-curvature="0" />
    <path
       style="fill:#333333;fill-opacity:1;stroke:none"
       d="m 73.062691,66.009287 c 2.631208,-1.550728 -1.364403,8.317736 -7.282793,13.227918 -5.918393,4.910184 -16.519882,6.480063 -14.149598,4.553431 4.252309,-3.456285 5.816809,-2.694595 11.735201,-7.60478 5.918389,-4.910182 6.740946,-8.434173 9.69719,-10.176569 z"
       id="path63867"
       inkscape:connector-curvature="0"
       sodipodi:nodetypes="sssss" />
    <path
       sodipodi:type="arc"
       style="fill:#000000;fill-opacity:1;stroke:none"
       id="path63871"
       sodipodi:cx="79.464287"
       sodipodi:cy="99.371109"
       sodipodi:rx="22.5"
       sodipodi:ry="2.6339285"
       d="m 101.96429,99.371109 a 22.5,2.6339285 0 1 1 -45.000003,0 22.5,2.6339285 0 1 1 45.000003,0 z"
       transform="matrix(1.255137,0,0,1.2561696,-16.438532,-24.992357)" />
  </g>
</svg>
