<?xml version="1.0" encoding="UTF-8" standalone="no"?>
<!-- Created with Inkscape (http://www.inkscape.org/) -->

<svg
   xmlns:dc="http://purl.org/dc/elements/1.1/"
   xmlns:cc="http://creativecommons.org/ns#"
   xmlns:rdf="http://www.w3.org/1999/02/22-rdf-syntax-ns#"
   xmlns:svg="http://www.w3.org/2000/svg"
   xmlns="http://www.w3.org/2000/svg"
   xmlns:xlink="http://www.w3.org/1999/xlink"
   xmlns:sodipodi="http://sodipodi.sourceforge.net/DTD/sodipodi-0.dtd"
   xmlns:inkscape="http://www.inkscape.org/namespaces/inkscape"
   width="100"
   height="100"
   id="svg63199"
   version="1.1"
   inkscape:version="0.48.5 r10040"
   sodipodi:docname="mrna-prot.svg"
   inkscape:export-filename="F:\research\drummondlab.github.io\assets\images\papers\mrna-prot.png"
   inkscape:export-xdpi="90"
   inkscape:export-ydpi="90">
  <defs
     id="defs63201" />
  <sodipodi:namedview
     id="base"
     pagecolor="#ffffff"
     bordercolor="#666666"
     borderopacity="1.0"
     inkscape:pageopacity="0.0"
     inkscape:pageshadow="2"
     inkscape:zoom="7.9195959"
     inkscape:cx="77.665431"
     inkscape:cy="37.720553"
     inkscape:document-units="px"
     inkscape:current-layer="layer1"
     showgrid="false"
     inkscape:window-width="2560"
     inkscape:window-height="1388"
     inkscape:window-x="-8"
     inkscape:window-y="-8"
     inkscape:window-maximized="1" />
  <metadata
     id="metadata63204">
    <rdf:RDF>
      <cc:Work
         rdf:about="">
        <dc:format>image/svg+xml</dc:format>
        <dc:type
           rdf:resource="http://purl.org/dc/dcmitype/StillImage" />
        <dc:title></dc:title>
      </cc:Work>
    </rdf:RDF>
  </metadata>
  <g
     inkscape:label="Layer 1"
     inkscape:groupmode="layer"
     id="layer1"
     transform="translate(0,-952.3622)">
    <rect
       style="opacity:0.8;fill:none;stroke:#000000;stroke-width:0;stroke-linecap:round;stroke-linejoin:round;stroke-miterlimit:10;stroke-opacity:1;stroke-dasharray:none;stroke-dashoffset:0"
       id="rect63858"
       width="100"
       height="100"
       x="-2.0646896"
       y="951.42316" />
    <g
       style="fill:#000000;fill-opacity:1"
       id="g103497"
       transform="matrix(1.0097081,0,0,1.0096988,21.81981,425.53019)">
      <use
         height="1"
         width="1"
         xlink:href="#glyph0-12-8"
         x="104.57031"
         y="184.17188"
         id="use103499" />
      <use
         height="1"
         width="1"
         xlink:href="#glyph0-13-9"
         x="111.24414"
         y="184.17188"
         id="use103501" />
    </g>
    <g
       style="fill:#000000;fill-opacity:1"
       id="g103503"
       transform="matrix(1.0097081,0,0,1.0096988,21.81981,425.53019)">
      <use
         height="1"
         width="1"
         xlink:href="#glyph1-0-3"
         x="117.91797"
         y="178.26172"
         id="use103505" />
      <use
         height="1"
         width="1"
         xlink:href="#glyph1-1-4"
         x="120.71523"
         y="178.26172"
         id="use103507" />
    </g>
    <g
       style="fill:#000000;fill-opacity:1"
       id="g103509"
       transform="matrix(1.0097081,0,0,1.0096988,21.81981,425.53019)">
      <use
         height="1"
         width="1"
         xlink:href="#glyph0-12-8"
         x="165.87891"
         y="184.17188"
         id="use103511" />
      <use
         height="1"
         width="1"
         xlink:href="#glyph0-13-9"
         x="172.55273"
         y="184.17188"
         id="use103513" />
    </g>
    <g
       style="fill:#000000;fill-opacity:1"
       id="g103515"
       transform="matrix(1.0097081,0,0,1.0096988,21.81981,425.53019)">
      <use
         height="1"
         width="1"
         xlink:href="#glyph1-0-3"
         x="179.22656"
         y="178.26172"
         id="use103517" />
      <use
         height="1"
         width="1"
         xlink:href="#glyph1-2-4"
         x="182.02383"
         y="178.26172"
         id="use103519" />
    </g>
    <g
       style="fill:#000000;fill-opacity:1"
       id="g103521"
       transform="matrix(1.0097081,0,0,1.0096988,21.81981,425.53019)">
      <use
         height="1"
         width="1"
         xlink:href="#glyph0-12-8"
         x="228.58984"
         y="184.17188"
         id="use103523" />
      <use
         height="1"
         width="1"
         xlink:href="#glyph0-13-9"
         x="235.26367"
         y="184.17188"
         id="use103525" />
    </g>
    <g
       style="fill:#000000;fill-opacity:1"
       id="g103527"
       transform="matrix(1.0097081,0,0,1.0096988,21.81981,425.53019)">
      <use
         height="1"
         width="1"
         xlink:href="#glyph1-3-6"
         x="241.9375"
         y="178.26172"
         id="use103529" />
    </g>
    <g
       style="fill:#000000;fill-opacity:1"
       id="g103531"
       transform="matrix(1.0097081,0,0,1.0096988,21.81981,425.53019)">
      <use
         height="1"
         width="1"
         xlink:href="#glyph0-12-8"
         x="289.90234"
         y="184.17188"
         id="use103533" />
      <use
         height="1"
         width="1"
         xlink:href="#glyph0-13-9"
         x="296.57617"
         y="184.17188"
         id="use103535" />
    </g>
    <g
       style="fill:#000000;fill-opacity:1"
       id="g103537"
       transform="matrix(1.0097081,0,0,1.0096988,21.81981,425.53019)">
      <use
         height="1"
         width="1"
         xlink:href="#glyph1-2-4"
         x="303.25"
         y="178.26172"
         id="use103539" />
    </g>
    <g
       style="fill:#000000;fill-opacity:1"
       id="g103541"
       transform="matrix(1.0097081,0,0,1.0096988,21.81981,425.53019)">
      <use
         height="1"
         width="1"
         xlink:href="#glyph0-12-8"
         x="351.21484"
         y="184.17188"
         id="use103543" />
      <use
         height="1"
         width="1"
         xlink:href="#glyph0-13-9"
         x="357.88867"
         y="184.17188"
         id="use103545" />
    </g>
    <g
       style="fill:#000000;fill-opacity:1"
       id="g103547"
       transform="matrix(1.0097081,0,0,1.0096988,21.81981,425.53019)">
      <use
         height="1"
         width="1"
         xlink:href="#glyph1-1-4"
         x="364.5625"
         y="178.26172"
         id="use103549" />
    </g>
    <g
       style="fill:#000000;fill-opacity:1"
       id="g103551"
       transform="matrix(1.0097081,0,0,1.0096988,21.81981,425.53019)">
      <use
         height="1"
         width="1"
         xlink:href="#glyph0-12-8"
         x="412.52344"
         y="184.17188"
         id="use103553" />
      <use
         height="1"
         width="1"
         xlink:href="#glyph0-13-9"
         x="419.19727"
         y="184.17188"
         id="use103555" />
    </g>
    <g
       style="fill:#000000;fill-opacity:1"
       id="g103557"
       transform="matrix(1.0097081,0,0,1.0096988,21.81981,425.53019)">
      <use
         height="1"
         width="1"
         xlink:href="#glyph1-4-0"
         x="425.87109"
         y="178.26172"
         id="use103559" />
    </g>
    <g
       style="fill:#000000;fill-opacity:1"
       id="g103561"
       transform="matrix(1.0097081,0,0,1.0096988,21.81981,425.53019)">
      <use
         height="1"
         width="1"
         xlink:href="#glyph0-12-8"
         x="473.83594"
         y="184.17188"
         id="use103563" />
      <use
         height="1"
         width="1"
         xlink:href="#glyph0-13-9"
         x="480.50977"
         y="184.17188"
         id="use103565" />
    </g>
    <g
       style="fill:#000000;fill-opacity:1"
       id="g103567"
       transform="matrix(1.0097081,0,0,1.0096988,21.81981,425.53019)">
      <use
         height="1"
         width="1"
         xlink:href="#glyph1-5-6"
         x="487.18359"
         y="178.26172"
         id="use103569" />
    </g>
    <g
       style="fill:#000000;fill-opacity:1"
       id="g103571"
       transform="matrix(1.0097081,0,0,1.0096988,21.81981,425.53019)">
      <use
         height="1"
         width="1"
         xlink:href="#glyph0-12-8"
         x="535.14844"
         y="184.17188"
         id="use103573" />
      <use
         height="1"
         width="1"
         xlink:href="#glyph0-13-9"
         x="541.82227"
         y="184.17188"
         id="use103575" />
    </g>
    <g
       style="fill:#000000;fill-opacity:1"
       id="g103577"
       transform="matrix(1.0097081,0,0,1.0096988,21.81981,425.53019)">
      <use
         height="1"
         width="1"
         xlink:href="#glyph1-6-61"
         x="548.49609"
         y="178.26172"
         id="use103579" />
    </g>
    <g
       style="fill:#000000;fill-opacity:1"
       id="g103581"
       transform="matrix(1.0097081,0,0,1.0096988,21.81981,425.53019)">
      <use
         height="1"
         width="1"
         xlink:href="#glyph0-12-8"
         x="596.46094"
         y="184.17188"
         id="use103583" />
      <use
         height="1"
         width="1"
         xlink:href="#glyph0-13-9"
         x="603.13477"
         y="184.17188"
         id="use103585" />
    </g>
    <g
       style="fill:#000000;fill-opacity:1"
       id="g103587"
       transform="matrix(1.0097081,0,0,1.0096988,21.81981,425.53019)">
      <use
         height="1"
         width="1"
         xlink:href="#glyph1-7-8"
         x="609.80859"
         y="178.26172"
         id="use103589" />
    </g>
    <g
       id="g63860"
       transform="matrix(0.59833206,0,0,0.59833206,-72.115629,694.0931)">
      <path
         inkscape:connector-curvature="0"
         style="opacity:0.8;fill:#00008a;fill-opacity:1;stroke:#00008a;stroke-width:0;stroke-linecap:round;stroke-linejoin:round;stroke-miterlimit:10;stroke-opacity:1;stroke-dasharray:none"
         d="m 112.52401,590.48433 1.67788,0 0.20973,-0.037 0.20974,-0.0691 0.83894,0 0.20974,-0.073 0.20973,-0.0321 0.20974,0 0.20973,-0.01 0.20974,-0.0652 0.20973,-0.13003 0.20974,-0.0127 0.41947,0 0.20973,-0.0769 0.20974,-0.0321 0.20973,-0.0652 0.20974,-0.0526 0.20973,-0.0409 0.20974,-0.0565 0.83894,0 0.20973,0.01 0.20974,0.0653 0.20973,-0.01 0.20974,-0.0487 0.20973,-0.0165 0.20974,-0.0243 0.20973,-0.0653 0.20974,0.0896 0.20973,0 0.20974,-0.20734 0.20973,-0.0809 0.20974,0.0976 0.20973,0 0.20974,-0.0935 0.20973,-0.0614 0.20974,-0.037 0.20973,0.0526 0.20974,0.0127 0.20973,0.0934 0.20974,-0.0165 0.20973,-0.0857 0.20974,-0.16254 0.20973,-0.12193 0.20974,-0.0321 0.20973,0 0.20974,-0.0204 0.20974,-0.0809 0.20973,-0.01 0.20974,0.0449 0.20973,-0.187 0.20974,-0.25194 0.20973,-0.23179 0.20974,-0.15845 0.20973,-0.10166 0.20974,-0.037 0.20973,0.10966 0.20974,-0.0857 0.20974,-0.0975 0.20973,-0.0127 0.20974,0.0282 0.20973,0.0565 0.20974,0 0.41947,-0.0652 0.20973,-0.0935 0.20973,-0.20325 0.20974,0.0614 0.20974,0.0769 0.20973,-0.16263 0.20974,-0.52435 0.20973,-0.32926 0.20974,-0.2276 0.20973,-0.21952 0.20974,-0.16673 0.20973,-0.11376 0.20973,-0.0449 0.20974,0.0975 0.20974,-0.0205 0.20973,-0.0526 0.20974,0.01 0.20973,-0.16673 0.20974,-0.32518 0.20973,-0.21543 0.20974,-0.0204 0.20973,-0.073 0.20974,-0.26421 0.20974,-0.2765 0.20973,-0.14627 0.20974,-0.40242 0.20973,-0.37806 0.20974,-0.22361 0.20973,-0.14627 0.20973,-0.21143 0.20974,-0.21951 0.20973,0.0487 0.20974,0.25204 0.20973,-0.24795 0.20974,0.0896 0.20973,-0.20734 0.20974,-0.37797 0.20973,-0.15047 0.20974,-0.10975 0.20973,-0.1382 0.20974,0.0574 0.20973,-0.12194 0.20974,-0.39841 0.20973,0.20325 0.20974,0.10166 0.20974,-0.18698 0.20973,-0.16255 0.20974,0.0691 0.20973,0.17072 0.20974,-0.0526 0.20973,-0.24795 0.20974,0.30493 0.20973,-0.0204 0.20974,0.18698 0.20973,0 0.20974,0.12194 0.20974,-0.25604 0.20973,-0.34144 0.20974,-0.19917 0.20973,-0.23578 0.20974,-0.32926 0.20973,-0.10166 0.20974,-0.0975 0.20973,0.01 0.20974,0.0691 0.20973,-0.15855 0.20974,-0.41459 0.20973,-0.35781 0.20974,-0.32518 0.20973,-0.43892 0.20974,-0.25204 0.20973,-0.34144 0.20974,-0.43904 0.20973,-0.5447 0.20974,-0.61383 0.20973,-0.33328 0.20974,-0.4553 0.20973,-0.33734 0.20974,-0.0691 0.20974,-0.19106 0.20973,-0.28049 0.20973,-0.48374 0.20974,0.0526 0.20973,0.1301 0.20975,-0.13819 0.20973,-0.52035 0.20973,-0.39024 0.20973,-0.12602 0.20974,-0.19098 0.20973,-0.4959 0.20974,-0.69926 0.20973,-0.87795 0.20974,-0.0614 0.20973,-0.63011 0.20974,-0.39832 0.20973,-0.20734 0.20974,-0.30084 0.20973,-0.32109 0.20974,-0.17072 0.20974,-0.23987 0.20973,-0.46337 0.20974,-0.44302 0.20973,-0.77649 0.20973,-1.10565 0.20974,-1.08122 0.20974,-0.60565 0.20974,-0.30494 0.20973,-0.43893 0.20973,-0.87397 0.20974,-1.2154 0.20973,-0.55698 0.20974,0.17891 0.20973,-0.64228 0.20974,-0.70325 0.20973,-0.82109 0.20974,-0.33325 0.20974,-0.0809 0.20972,-0.51215 0.20974,-0.81302 0.20974,-0.32517 0.20974,-0.65855 0.20973,-1.13819 0.20974,-0.1829 0.20973,-0.60156 0.20974,-0.9065 0.20973,-1.07721 0.20974,-1.39422 0.20973,-1.2683 0.20974,-0.39832 0.20973,-0.65446 0.20974,-1.49998 0.20973,-1.57312 0.20974,-1.52435 0.20973,-1.2154 0.20974,-0.64628 0.20973,-0.6748 0.20974,-1.18288 0.20973,-1.80073 0.20974,-2.32924 0.20974,-1.63411 0.20973,-1.24384 0.20974,-2.05686 0.20973,-1.70323 0.20974,-1.8536 0.20973,-1.80881 0.20973,-1.72359 0.20974,-1.76411 0.20973,-2.29262 0.20974,-3.49178 0.20973,-3.34541 0.20974,-3.74383 0.20973,-2.78445 0.20974,-2.8048 0.20973,-2.99579 0.20974,-2.9389 0.20973,-2.32516 0.20974,-1.88204 0.20973,-2.15034 0.20974,-2.21541 0.20974,-3.19504 0.20973,-3.60144 0.20974,-3.31697 0.20973,-3.28444 0.20974,-1.26831 0.20973,-1.41047 0.20974,-2.40648 0.20973,-2.29663 0.20974,-1.8983 0.20974,-1.42686 0.20973,-1.53649 0.20973,-1.64626 0.20974,-3.15034 0.20973,-2.45927 0.20974,-0.89832 0.20973,-0.32926 0.20974,-0.30084 0.20973,-0.37807 0.20973,-0.95928 0.20974,0.15855 0.20974,-0.45937 0.20974,0.18299 0.20973,-1.73986 0.20974,-1.52024 0.20973,-1.49181 0.20974,-1.00817 0.20973,-0.2723 0.20974,0.18699 0.20973,1.24384 0.20974,1.35771 0.20973,-1.06096 0.20974,0.24796 0.20973,-0.80482 0.20974,-0.13819 0.20973,-0.17482 0.20974,-0.21543 0.20973,0.36579 0.20974,1.24795 0.20973,2.76818 0.20974,1.0406 0.20973,0.70733 0.20975,0.75204 0.20973,0.80892 0.20973,1.57312 0.20973,1.37796 0.20974,1.32926 0.20973,1.70723 0.20974,1.40648 0.20973,2.28037 0.20974,2.16262 0.20973,2.33324 0.20974,2.60963 0.20973,2.26012 0.20974,1.31698 0.20973,1.10567 0.20974,1.71948 0.20973,2.0853 0.20974,1.73976 0.20973,2.47153 0.20974,1.51616 0.20973,2.32924 0.20975,2.71121 0.20973,1.9959 0.20974,1.22758 0.20973,1.60975 0.20973,2.04467 0.20974,1.69914 0.20973,2.34543 0.20974,2.35768 0.20973,1.42267 0.20974,1.97154 0.20974,1.00807 0.20973,0.83326 0.20974,1.74793 0.20973,1.97553 0.20973,1.55687 0.20974,1.78047 0.20973,1.61782 0.20974,2.04867 0.20973,1.93083 0.20974,1.30492 0.20974,1.00807 0.20973,1.30073 0.20974,2.10973 0.20973,2.33735 0.20974,1.86985 0.20973,1.5446 0.20974,0.60166 0.20973,1.07723 0.20974,1.63807 0.20973,1.48373 0.20974,1.35769 0.20973,1.15845 0.20974,1.17889 0.20973,1.33734 0.20974,1.29674 0.20973,1.06494 0.20974,1.3171 0.20973,1.24784 0.20974,1.10167 0.20973,1.05685 0.20974,1.06495 0.20973,0.73578 0.20974,0.46337 0.20973,0.50409 0.20974,0.70324 0.20973,0.89424 0.20974,0.95528 0.20973,1.30891 0.20974,0.54878 0.20973,0.57723 0.20974,0.73168 0.20973,0.95119 0.20974,0.80483 0.20973,0.39433 0.20974,0.19916 0.20973,0.15036 0.20974,0.45939 0.20973,0.43493 0.20974,0.38615 0.20973,0.70734 0.20974,0.95928 0.20974,1.06096 0.20974,1.06904 0.20973,0.87806 0.20974,0.46337 0.20973,0.43494 0.20974,0.34963 0.20973,0.67471 0.20973,0.62193 0.20974,0.46336 0.20973,0.42277 0.20974,0.48374 0.20973,0.4106 0.20974,0.15854 0.20973,-0.01 0.20974,-0.18289 0.20973,-0.66254 0.20974,0.32519 0.20973,0.88613 0.20974,0.53252 0.20974,0.46747 0.20973,0.35771 0.20974,0.14219 0.20973,0.19109 0.20974,0.26011 0.20973,0.47565 0.20974,0.28049 0.20973,-0.0487 0.20974,-0.0691 0.20973,-0.0975 0.20974,0.1382 0.20973,0.27639 0.20974,0.20735 0.20974,0.22359 0.20814,0.19109 0.20974,-0.0165 0.20973,0 0.20974,0.0934 0.20973,0.10166 0.20974,0.19916 0.20973,0.5 0.20974,0.66263 0.20973,0.37397 0.20974,-0.13011 0.20973,-0.4959 0.20973,0.2723 0.20974,-0.1341 0.20974,0.43901 0.20973,0.49592 0.20974,0.40241 0.20973,0.16254 0.20974,-0.0321 0.20973,0 0.20974,-0.0449 0.20973,-0.077 0.20973,0.38215 0.20974,0.32918 0.20974,0.31301 0.20974,0.20734 0.20973,0.30083 0.20973,0.43085 0.20974,0.49182 0.20973,0.49601 0.20974,0.34143 0.20973,0.26013 0.20974,0.17072 0.20974,0 0.20973,0.0896 0.20973,0.17481 0.20974,0.39424 0.20973,0.46347 0.20974,0.41049 0.20973,0.48782 0.20974,0.19918 0.20973,0.0896 0.20974,-0.0857 0.20973,0.15855 0.20974,0.28049 0.20974,0.41867 0.20973,0.52844 0.20974,0.45529 0.20973,0.25603 0.20974,0.15037 0.20973,0.16264 0.20974,0.23986 0.20973,0.0653 0.20974,0.15445 0.20973,0.077 0.20974,0.0487 0.20974,0.10579 0.20973,0.17881 0.20974,0.20326 0.20973,0.1748 0.20974,0.17073 0.20973,-0.0165 0.20974,-0.0244 0.20972,-0.01 0.20974,0 0.20974,0.0243 0.20974,0.073 0.41947,0.2683 0.20973,0 0.20974,-0.037 0.41947,0 0.20973,-0.0244 0.20974,-0.0526 0.20973,-0.0321 1.46815,0 0.20973,0.0487 0.20974,0.0449 0.20973,0.0409 0.20974,0.0449 0.20974,0.0526 0.20973,0.0935 0.83894,0 0.20973,0.0204 0.20974,0.0565 0.20973,0.0809 0.20974,0.0565 0.20973,0 0.20974,0 0.20973,0.0282 0.20974,0.0653 0.20973,0.01 2.09736,0 0.20973,0.0691 0.20974,0.037 1.67788,0"
         id="path14275" />
      <path
         sodipodi:nodetypes="cccccccccccccccccccccccccccccccccccccccccccccccccccccccccccccccccccccccccccccccccccccccccccccccccccccccccccccccccccccccccccccccccccccccccccccccccccccccccccccccccccccccccccccccccccccccccccccccccccccccccccccccccccccccccccccccccccccccccccccccccccccccccccccccccccccccccccccccccccccccccccccccccccccccccccccccccccccccccccccccccccccccccccccccccccccccccccccccccccccccccccccccccccccccccccccccccccccccccccccccccccccccccccccccccccccccccccccccccccccccccccccccccccccc"
         inkscape:connector-curvature="0"
         style="opacity:0.8;fill:#aa8800;fill-opacity:1;stroke:#aa8800;stroke-width:0;stroke-linecap:round;stroke-linejoin:round;stroke-miterlimit:10;stroke-opacity:1;stroke-dasharray:none"
         d="m 90.606895,590.48288 0.370003,-1.03113 0.338437,-0.0653 0.338436,-0.10166 0.336847,0 0.338436,0.0409 0.338437,-0.0127 0.336848,-0.0487 0.338435,-0.0652 0.338437,-0.0204 0.338436,0 0.336846,-0.0127 0.338439,-0.0243 0.338435,-0.0204 0.336848,0.0243 0.338435,-0.0409 0.338435,-0.0449 0.338439,-0.0652 0.336848,0.0204 0.338435,0.0165 0.338435,0.0449 0.336849,0.0652 0.338438,0.037 0.338435,0 0.338435,0 0.336845,-0.0857 0.338442,-0.0565 0.338435,0.0243 0.336849,0.0165 0.33843,0.0165 0.33844,-0.0449 0.33844,-0.10165 0.33684,-0.10976 0.33844,-0.11385 0.33844,-0.10568 0.33685,-0.10976 0.33843,-0.0565 0.33843,-0.0204 0.33844,-0.01 0.33685,0 0.33844,-0.0243 0.33843,0.01 0.33685,0.0857 0.33844,0.0526 0.33843,-0.18289 0.33844,-0.2235 0.33684,-0.0574 0.33844,0 0.33844,0 0.33685,0.0449 0.33843,0.0614 0.33844,0.0243 0.33843,-0.0487 0.33685,-0.12193 0.33844,-0.0809 0.33843,-0.18299 0.33685,-0.0614 0.33844,-0.0975 0.33843,-0.077 0.33844,0 0.33684,0.0126 0.33845,-0.0409 0.33843,-0.0691 0.33685,-0.0809 0.33843,-0.21543 0.33844,0 0.33844,-0.0691 0.33684,-0.0896 0.33844,-0.14638 0.33843,-0.0165 0.33686,0.0244 0.33843,-0.0127 0.33844,-0.0204 0.33843,-0.0282 0.33685,-0.073 0.33844,-0.0614 0.33843,-0.0975 0.33685,-0.23987 0.33844,-0.17881 0.33843,-0.28047 0.33844,-0.2724 0.33684,-0.14629 0.33844,-0.0857 0.33844,-0.0614 0.33684,0.12603 0.33844,0.0243 0.33844,0.01 0.33843,0.0204 0.33685,-0.0691 0.33844,-0.01 0.33843,-0.0614 0.33685,-0.19109 0.33844,-0.21134 0.33843,-0.10165 0.33844,-0.0769 0.33685,-0.0819 0.33843,-0.10166 0.33844,-0.20725 0.33684,-0.26022 0.33844,-0.28447 0.33844,-0.32926 0.33844,-0.30892 0.33684,-0.19108 0.33844,-0.0809 0.33843,-0.0204 0.33686,0.28048 0.33843,-0.0652 0.33844,-0.10568 0.33844,0.0652 0.33684,-0.0127 0.33843,-0.01 0.33844,-0.11375 0.33685,-0.21542 0.33843,-0.13829 0.33844,-0.23569 0.33844,-0.30493 0.33684,-0.01 0.33844,0.2276 0.33844,-0.10569 0.33685,-0.0975 0.33843,0.0691 0.33844,0.19518 0.33844,0.17071 0.33684,-0.01 0.33844,-0.0896 0.33843,0.0321 0.33685,0.30893 0.33843,0.24795 0.33844,-0.0166 0.33844,0.0409 0.33685,0.0565 0.67687,0.34145 0.33685,-0.0896 0.33844,-0.0409 0.33843,0 0.33844,-0.28048 0.33685,-0.0127 0.33843,-0.2317 0.33844,-0.0614 0.33684,0.11375 0.33844,0.0691 0.33844,-0.0896 0.33843,-0.16663 0.33685,-0.0934 0.33844,-0.11784 0.33843,-0.36589 0.33685,-0.45928 0.33844,-0.073 0.33843,0.0565 0.33844,0.13821 0.33685,0.0857 0.33843,-0.0449 0.33844,-0.10975 0.33684,-0.1829 0.33844,-0.41469 0.33844,-0.34144 0.33844,-0.25603 0.33684,0.0166 0.33844,-0.12194 0.33843,-0.19506 0.33685,-0.10977 0.33844,-0.0526 0.33843,-0.0653 0.33844,-0.0449 0.33685,-0.19927 0.33844,-0.23167 0.33843,-0.17472 0.33685,-0.0487 0.33843,0.10976 0.33844,0.0809 0.33844,0 0.33684,-0.037 0.33844,-0.15855 0.33844,-0.35772 0.33684,-0.25613 0.33844,-0.16664 0.33843,-0.42276 0.33845,-0.25603 0.33684,-0.0321 0.33844,0.0117 0.33843,-0.26422 0.33685,-0.47964 0.33844,-0.47964 0.33844,-0.70733 0.33843,-0.54062 0.33685,-0.54879 0.33844,-0.42675 0.33843,-0.32519 0.33685,-0.68698 0.33844,-0.45529 0.33843,-0.0935 0.33844,-0.23567 0.33684,-0.70734 0.33844,-0.89432 0.33844,-1.15435 0.33684,-0.52853 0.33844,-1.00398 0.33843,-0.82518 0.33844,-0.7236 0.33685,-0.84543 0.33844,-1.26012 0.33843,-1.34962 0.33685,-0.96746 0.33844,-0.9959 0.33843,-0.89831 0.33844,-1.95519 0.33685,-1.30081 0.33844,-1.43494 0.33843,-1.58938 0.33685,-1.67879 0.33843,-1.50398 0.33844,-1.52842 0.33844,-1.73567 0.33684,-1.29264 0.33844,-1.47564 0.33843,-1.97963 0.33685,-2.27626 0.33844,-2.01216 0.33843,-1.30482 0.33844,-1.26829 0.33685,-1.73567 0.33844,-1.8983 0.33843,-1.75612 0.33685,-1.99588 0.33844,-1.84133 0.33843,-1.9512 0.33844,-1.05686 0.33684,-1.99998 0.33844,-2.13808 0.33844,-1.76011 0.33684,-0.97155 0.33844,-0.55278 0.33843,-1.00408 0.33844,-1.50397 0.33685,-1.12193 0.33844,-0.37396 0.33843,-1.2683 0.33685,-1.09749 0.33844,-2.11382 0.33843,-1.44301 0.33844,-0.91458 0.33685,-0.93085 0.33843,-0.82926 0.33844,-1.18698 0.33685,-1.8536 0.33843,-0.44303 0.33844,-1.26829 0.33843,-1.29264 0.33685,-0.99181 0.33844,-0.65445 0.33844,-0.0244 0.33685,-0.0691 0.33843,-0.6748 0.33843,-0.28048 0.33844,-0.44303 0.33685,-0.077 0.33844,-0.46348 0.33844,-0.30892 0.33843,0.21543 0.33684,0.58539 0.33844,0.0769 0.33843,-0.34963 0.33686,0.037 0.33844,0.60974 0.33843,1.6747 0.33844,0.39842 0.33684,0.96337 0.33844,0.7276 0.33844,1.06904 0.33684,1.26419 0.33844,1.15037 0.33844,1.32927 0.33844,1.84951 0.33684,1.99179 0.33843,2.15035 0.33844,1.41458 0.33685,0.40649 0.33844,1.08132 0.33843,1.41048 0.33844,1.67479 0.33685,1.19916 0.33843,0.9959 0.33844,1.52432 0.33684,1.53243 0.33845,1.3536 0.33843,1.07723 0.33844,1.63817 0.33684,1.73567 0.33844,1.70733 0.33844,1.28854 0.33684,0.99999 0.67687,1.64217 0.33844,1.25203 0.33685,0.96747 0.33843,1.48372 0.33844,0.60965 0.33685,0.62194 0.33844,0.84143 0.33844,0.61794 0.33843,0.4959 0.33685,0.82927 0.33844,1.1747 0.33843,0.97156 0.33684,0.71541 0.33844,0.96746 0.33844,1.05688 0.33844,1.25192 0.33684,0.84144 0.33844,0.93904 0.33843,0.97554 0.33685,0.9878 0.33844,1.12602 0.33844,1.04868 0.33843,0.85362 0.33685,0.96746 0.33844,1.19916 0.33843,1.19105 0.33685,0.91049 0.33844,1.0935 0.33843,0.67889 0.33844,0.41867 0.33685,0.86579 0.33843,1.01626 0.33844,0.75194 0.33684,0.86178 0.33844,1.34952 0.33843,1.00408 0.33845,0.98783 0.33684,0.97553 0.33844,0.76831 0.33843,0.65435 0.33685,0.57323 0.33844,0.26422 0.33843,0.51626 0.33844,0.44303 0.33685,0.73985 0.33843,0.69507 0.33844,0.41059 0.33684,0.21951 0.33845,0.19917 0.33843,0.2723 0.33844,0.4512 0.33684,0.68289 0.33844,0.57322 0.33844,0.25195 0.33684,0.73578 0.33844,0.60567 0.33844,0.39841 0.33843,0.34544 0.33685,0.28457 0.33844,0.17891 0.33843,0.0809 0.33685,0.13012 0.33844,0.38205 0.33843,0.62601 0.33844,0.54061 0.33685,0.41877 0.33843,0.32918 0.33844,0.47155 0.33684,0.41059 0.33844,0.28049 0.33844,0.10975 0.33844,-0.11385 0.33685,0.31301 0.67686,0.91867 0.33685,0.55279 0.33844,0.23986 0.33843,0.13012 0.33844,0.21132 0.33685,0.3618 0.33844,0.36181 0.33843,0.18698 0.33685,0.28448 0.33843,0.33745 0.33844,0.317 0.33844,0.11794 0.33685,0.1829 0.33843,0.16263 0.33844,0.17881 0.33684,0.12194 0.33844,0.0409 0.33843,0.10569 0.33845,0.0975 0.33684,-0.0204 0.33844,0.20326 0.33843,0.18698 0.33685,0.21951 0.33844,0.10976 0.33843,0.10166 0.33844,0.12602 0.33685,0.0652 0.33844,0 0.33843,0.0127 0.33685,-0.0244 0.33843,0.12602 0.33844,0.0653 0.33844,0.21543 0.33684,0.18289 0.33844,0.1341 0.33844,0.1789 0.33684,0.22361 0.33844,0.17472 0.33844,0.16263 0.33843,0.0487 0.33685,0.0204 0.33844,0.16674 0.33843,0.0934 0.33685,0.0896 0.33843,0.0691 0.33844,0.0449 0.33844,0.0204 0.33685,0 0.33843,0.0769 0.33844,0.0282 0.33685,0.10166 0.33843,0.037 0.33844,0.11385 0.33844,0.14229 0.33684,0.0975 0.33844,0.0565 0.33844,0.0487 0.33684,0.037 1.35216,0 0.33843,0.0166 0.33844,0 0.33685,0 0.33843,-0.0166 0.33844,-0.0653 0.33844,-0.0526 0.33684,0.037 0.33845,0.0283 0.33843,0.0409 0.33685,0 0.33843,0.0565 0.67687,0.12194 0.33685,0.0321 0.33843,0.01 1.01373,0 0.33843,0.0204 0.33844,-0.0166 0.33685,0 1.35216,0 0.33843,0 0.33844,0.037 0.33684,0.0321 0.33843,0.0321 0.33844,0.0565 0.33685,0.0896 0.33844,0.037 3.71803,0 0.33843,0.0204 0.33685,0.0321 0.33844,0.0204 2.33431,0.0111"
         id="path14279" />
      <path
         inkscape:connector-curvature="0"
         style="opacity:0.8;fill:#a84299;fill-opacity:0.96862745;stroke:#a84299;stroke-width:0;stroke-linecap:round;stroke-linejoin:round;stroke-miterlimit:10;stroke-opacity:0.96862745;stroke-dasharray:none"
         d="m 139.35581,590.48433 3.40978,0 0.34161,-0.037 0.34162,-0.0487 0.34002,-0.0243 0.68324,0 0.34002,-0.0204 0.34161,-0.0282 0.34162,-0.0449 0.34002,-0.0117 0.34162,0 0.34003,-0.0127 0.34161,-0.0282 0.34161,-0.0127 0.34003,0 0.34161,-0.0449 0.34162,0 0.34002,0 0.34161,-0.0409 0.34162,-0.0449 0.34002,-0.0243 2.04651,0 0.34161,-0.0204 0.34003,-0.0283 0.34161,-0.0204 0.34162,-0.0409 0.34002,0 0.34161,0 0.34003,0 0.34162,0 0.34162,0 0.34002,0 0.34161,-0.0449 0.34162,-0.0857 0.34002,0.0204 0.34161,0 0.34162,0 0.34002,-0.0166 0.34161,-0.0244 0.34002,-0.037 0.34163,-0.0204 0.34161,0 0.34003,-0.0691 0.34161,-0.0652 0.34161,-0.0526 0.34003,-0.0449 0.34161,-0.073 0.34161,-0.0809 0.34003,-0.0691 0.34161,-0.0526 0.34162,-0.0409 0.34003,-0.0769 0.34161,-0.037 0.34003,0.0243 0.34161,-0.0127 0.34161,-0.0526 0.34003,-0.12602 0.34161,-0.15855 0.34162,-0.0487 0.34002,0.037 0.34161,-0.0652 0.34162,-0.12601 0.34002,-0.13411 0.34162,-0.12602 0.34002,-0.11784 0.34162,-0.0857 0.34161,-0.0243 0.34003,-0.10154 0.34161,-0.0574 0.34161,-0.1789 0.34003,-0.10569 0.34162,-0.0934 0.34161,-0.0653 0.34002,-0.037 0.34162,-0.0204 0.34003,0.0526 0.34161,-0.0243 0.34161,-0.0204 0.34003,-0.0652 0.34161,-0.13012 0.34161,-0.14627 0.34004,-0.0935 0.34161,-0.0283 0.34161,-0.12602 0.34002,-0.2277 0.34162,-0.16663 0.34003,-0.12193 0.34161,-0.0809 0.34161,-0.11784 0.34002,-0.16265 0.34162,-0.14228 0.34161,-0.0565 0.34003,0 0.34161,-0.17481 0.34161,0.0449 0.34003,-0.0243 0.34161,-0.0565 0.34003,-0.0614 0.34162,-0.10166 0.34161,-0.15446 0.34003,-0.0652 0.34161,0.01 0.34161,0 0.34003,-0.0652 0.34161,-0.15446 0.34162,-0.19915 0.34002,-0.15456 0.34162,-0.0975 0.34003,-0.18698 0.34161,-0.25604 0.34161,-0.0652 0.34002,-0.1342 0.34162,-0.27639 0.34161,-0.17471 0.34003,-0.0283 0.34161,-0.0652 0.34161,-0.14229 0.34003,-0.19107 0.34162,-0.18289 0.34002,-0.10977 0.34161,-0.25204 0.34162,-0.32917 0.34003,-0.22361 0.34161,-0.0487 0.34162,0.0165 0.34002,0 0.34162,-0.41468 0.34161,-0.26421 0.34002,-0.10569 0.34162,-0.0691 0.34002,-0.0819 0.34161,-0.10569 0.34162,-0.16674 0.34002,-0.44711 0.34162,-0.40649 0.34161,-0.29267 0.34003,-0.29265 0.34161,-0.33336 0.34162,-0.2276 0.34002,-0.0975 0.34161,-0.15855 0.34003,-0.24794 0.34161,-0.43085 0.34161,-0.183 0.34003,-0.3577 0.34162,-0.26423 0.34161,-0.12193 0.34003,-0.10569 0.68323,-0.37396 0.34002,-0.43095 0.34161,-0.0565 0.34003,-0.10976 0.34162,-0.39832 0.34161,-0.56096 0.34003,-0.56505 0.34161,-0.44312 0.34161,-0.28048 0.34003,-0.5853 0.34161,-0.57724 0.34161,-0.46746 0.34003,-0.43085 0.34161,-0.56505 0.34003,-0.35362 0.34161,0.0204 0.34162,-0.0487 0.34002,-0.16663 0.34162,0.0449 0.34161,-0.29264 0.34003,-0.687 0.34161,-0.61383 0.34162,-0.46746 0.34002,-0.38615 0.34161,-0.28857 0.34003,-0.2764 0.34161,-0.27239 0.34162,-0.46337 0.34002,-0.54878 0.34162,-0.60977 0.34162,-0.60566 0.34002,-0.53251 0.34161,-0.60157 0.34161,-1.04471 0.34003,-0.91057 0.34161,-0.87387 0.34003,-0.74396 0.34161,-0.75603 0.34161,-0.67072 0.34003,-0.57313 0.34162,-0.6748 0.34161,-1.03243 0.34003,-1.21541 0.34161,-0.89433 0.34161,-0.77639 0.34003,-1.11783 0.34162,-1.24793 0.34002,-1.15855 0.34161,-1.04468 0.34161,-1.03243 0.34003,-1.13009 0.34162,-1.08531 0.34161,-0.95529 0.34003,-0.93893 0.34161,-0.8577 0.34161,-0.99191 0.34003,-1.1747 0.34162,-1.18288 0.34002,-1.33336 0.34161,-1.28037 0.34161,-1.49589 0.34003,-1.43493 0.34161,-1.30891 0.34162,-1.01216 0.34002,-1.00807 0.34162,-1.20734 0.34161,-0.69097 0.34003,-0.60575 0.34161,-1.03652 0.34002,-0.91049 0.34162,-0.83335 0.34162,-0.79674 0.34002,-0.62193 0.34162,-0.41868 0.34161,-0.46746 0.34002,-0.2683 0.34162,-0.0409 0.34161,0 0.34002,-0.50808 0.34162,-0.82118 0.34002,-0.76422 0.34163,-0.52843 0.34161,-0.44302 0.34002,-0.67072 0.34161,-0.4959 0.34162,-0.19516 0.34002,-0.3699 0.34162,-0.57722 0.34161,-0.62601 0.34002,-0.42676 0.34161,-0.11795 0.34003,0.0321 0.34162,0.48782 0.34162,0.47555 0.34002,0.30891 0.34161,0.39024 0.34162,0 0.34002,-0.44312 0.34162,-0.40649 0.34161,-0.2276 0.34003,0.0896 0.34161,-0.13412 0.34003,-0.0976 0.34161,-0.077 0.34162,0.10976 0.34002,0.1341 0.34161,-0.1382 0.34161,-0.47155 0.34003,-0.817 0.34161,0.43494 0.34162,1.03252 0.34002,1.12591 0.34162,0.78048 0.34002,0.43494 0.34162,0.28865 0.34162,0.21135 0.34002,-0.0935 0.34161,0.77239 0.34162,0.92267 0.34002,1.28046 0.34161,0.88216 0.34162,0.71132 0.34003,0.56096 0.34161,0.0321 0.34003,0.33327 0.34161,0.69107 0.34161,0.92276 0.34003,1.4511 0.34161,1.49999 0.34161,1.37396 0.34003,1.18698 0.34161,0.97144 0.34161,0.88615 0.34004,1.14227 0.34161,1.08939 0.34003,0.63012 0.34161,0.45929 0.34161,0.73986 0.34003,1.11373 0.34161,1.20325 0.34162,0.84143 0.34002,0.24796 0.34161,0.57313 0.34162,1.02434 0.34002,1.46336 0.34162,1.32926 0.34161,1.17472 0.34003,1.12191 0.34161,0.8577 0.34003,0.53661 0.34161,0.49182 0.34162,0.76013 0.34002,0.70733 0.34162,1.07721 0.34161,1.14628 0.34002,0.9024 0.34162,0.82517 0.34161,0.91059 0.34003,0.33735 0.34161,0.48783 0.34002,0.6788 0.34162,0.59349 0.34161,0.76422 0.34003,0.95528 0.34162,0.87795 0.34161,0.76422 0.34002,0.8618 0.34162,0.63819 0.34161,0.62192 0.34003,0.70724 0.34161,0.64637 0.34002,0.5894 0.34161,0.56505 0.34162,0.41458 0.34003,0.55288 0.34162,0.22759 0.34161,0.44312 0.34002,0.33736 0.34161,0.33735 0.34162,0.50808 0.34003,0.68699 0.34161,0.63419 0.34002,0.30893 0.34161,0.88613 0.34162,0.43085 0.34002,0.30084 0.34162,0.30482 0.34162,0.20734 0.34002,0.25205 0.34162,0.5406 0.34161,0.41868 0.34003,0.59349 0.34161,0.32109 0.34002,0.2724 0.34162,0.11784 0.34161,0.16673 0.34003,0.317 0.34161,0.39841 0.34162,0.47157 0.34002,0.1829 0.34162,0.313 0.34161,0.23577 0.34003,0.13002 0.34161,0.20734 0.34003,0.26831 0.34161,0.21133 0.34161,0.14228 0.34002,-0.0165 0.34162,0.25614 0.34161,0.0165 0.34003,0.0976 0.34161,0.1341 0.34162,0.32518 0.34002,0.42276 0.34162,0.10569 0.34003,0.26022 0.34161,0.19507 0.34161,0.0526 0.34003,0.21134 0.34161,0.12193 0.34162,0.0809 0.34002,0.0691 0.34161,0.0244 0.34161,0.31301 0.34003,0.15046 0.34161,0.40241 0.34003,0.15447 0.34162,0.0449 0.34161,0.15855 0.34003,0.2683 0.34161,0.20325 0.34162,0.0857 0.34002,0.19516 0.34161,0.1829 0.34161,0.13002 0.34003,0.17072 0.34162,0.24397 0.34003,0.32108 0.34161,0.36988 0.34161,0.37808 0.34003,0.43493 0.34161,0.27639 0.34161,0.11793 0.34003,0.10569 0.34161,0.19516 0.34162,0.19099 0.34002,0.13819 0.34162,0.21142 0.34002,0.1829 0.34162,0.13012 0.34161,0.21132 0.34003,0.19109 0.34161,0.21133 0.34161,0.1342 0.34002,0.0691 0.34162,0.13819 0.34162,0.17072 0.34002,0.26422 0.34161,0.14228 0.34003,0.077 0.34162,0.17072 0.34161,0.22361 0.34003,0.21133 0.34161,0.15047 0.34161,0.0769 0.34002,0.037 0.34162,-0.01 0.34162,0.0243 0.34002,0.0935 0.34161,0.073 0.34003,0.0204 0.34162,0.0204 0.34161,0.073 0.34002,0.0127 0.34162,0.0449 0.34161,0.0117 0.34003,0.0526 0.34161,0.0565 0.34161,0.0691 0.34003,0.077 0.34161,0.0204 0.68164,0 0.34162,0.0166 0.34002,0.0243 0.34162,0.0127 0.34161,-0.0127 0.34003,-0.0449 0.34162,-0.037 0.34161,0.0526 0.34002,0.0409 0.68164,0 0.34161,0 0.34162,0.0243 0.34002,0.0487 0.34161,0.0487 0.34162,0.0526 0.34003,0.0409 1.36487,0 0.34002,0.0166 0.34161,0.0321 0.34162,-0.01 0.34002,-0.0409 0.34162,0 0.34161,0.0321 0.34003,0.0204 0.34161,0 2.04651,0 0.34002,0.0243 0.34162,0.0487 0.34161,0.037 5.11468,0 0.34161,0 0.34003,0.0243 0.34161,0.0243 3.40979,0"
         id="path14281" />
    </g>
  </g>
</svg>
