<?xml version="1.0" encoding="UTF-8" standalone="no"?>
<!DOCTYPE svg PUBLIC "-//W3C//DTD SVG 1.1//EN" "http://www.w3.org/Graphics/SVG/1.1/DTD/svg11.dtd">
<svg xmlns="http://www.w3.org/2000/svg" xmlns:xl="http://www.w3.org/1999/xlink" version="1.1" viewBox="88 88 184 184" width="184pt" height="184pt" xmlns:dc="http://purl.org/dc/elements/1.1/"><metadata> Produced by OmniGraffle 6.6.2 <dc:date>2017-03-29 00:09:37 +0000</dc:date></metadata><defs/><g stroke="none" stroke-opacity="1" stroke-dasharray="none" fill="none" fill-opacity="1"><title>Canvas 1</title><g><title>Layer 1</title><rect x="99" y="99" width="18" height="18" fill="black"/><rect x="99" y="99" width="18" height="18" stroke="black" stroke-linecap="round" stroke-linejoin="round" stroke-width="1"/><rect x="117" y="99" width="18" height="18" fill="black"/><rect x="117" y="99" width="18" height="18" stroke="black" stroke-linecap="round" stroke-linejoin="round" stroke-width="1"/><rect x="135" y="99" width="18" height="18" fill="black"/><rect x="135" y="99" width="18" height="18" stroke="black" stroke-linecap="round" stroke-linejoin="round" stroke-width="1"/><rect x="153" y="99" width="18" height="18" fill="black"/><rect x="153" y="99" width="18" height="18" stroke="black" stroke-linecap="round" stroke-linejoin="round" stroke-width="1"/><rect x="171" y="99" width="18" height="18" fill="black"/><rect x="171" y="99" width="18" height="18" stroke="black" stroke-linecap="round" stroke-linejoin="round" stroke-width="1"/><rect x="189" y="99" width="18" height="18" fill="black"/><rect x="189" y="99" width="18" height="18" stroke="black" stroke-linecap="round" stroke-linejoin="round" stroke-width="1"/><rect x="207" y="99" width="18" height="18" fill="black"/><rect x="207" y="99" width="18" height="18" stroke="black" stroke-linecap="round" stroke-linejoin="round" stroke-width="1"/><rect x="225" y="99" width="18" height="18" fill="black"/><rect x="225" y="99" width="18" height="18" stroke="black" stroke-linecap="round" stroke-linejoin="round" stroke-width="1"/><rect x="243" y="99" width="18" height="18" fill="black"/><rect x="243" y="99" width="18" height="18" stroke="black" stroke-linecap="round" stroke-linejoin="round" stroke-width="1"/><rect x="99" y="117" width="18" height="18" fill="black"/><rect x="99" y="117" width="18" height="18" stroke="black" stroke-linecap="round" stroke-linejoin="round" stroke-width="1"/><rect x="117" y="117" width="18" height="18" fill="white"/><rect x="117" y="117" width="18" height="18" stroke="black" stroke-linecap="round" stroke-linejoin="round" stroke-width="1"/><rect x="135" y="117" width="18" height="18" fill="black"/><rect x="135" y="117" width="18" height="18" stroke="black" stroke-linecap="round" stroke-linejoin="round" stroke-width="1"/><rect x="153" y="117" width="18" height="18" fill="black"/><rect x="153" y="117" width="18" height="18" stroke="black" stroke-linecap="round" stroke-linejoin="round" stroke-width="1"/><rect x="171" y="117" width="18" height="18" fill="white"/><rect x="171" y="117" width="18" height="18" stroke="black" stroke-linecap="round" stroke-linejoin="round" stroke-width="1"/><rect x="189" y="117" width="18" height="18" fill="white"/><rect x="189" y="117" width="18" height="18" stroke="black" stroke-linecap="round" stroke-linejoin="round" stroke-width="1"/><rect x="207" y="117" width="18" height="18" fill="black"/><rect x="207" y="117" width="18" height="18" stroke="black" stroke-linecap="round" stroke-linejoin="round" stroke-width="1"/><rect x="225" y="117" width="18" height="18" fill="white"/><rect x="225" y="117" width="18" height="18" stroke="black" stroke-linecap="round" stroke-linejoin="round" stroke-width="1"/><rect x="243" y="117" width="18" height="18" fill="white"/><rect x="243" y="117" width="18" height="18" stroke="black" stroke-linecap="round" stroke-linejoin="round" stroke-width="1"/><rect x="99" y="135" width="18" height="18" fill="black"/><rect x="99" y="135" width="18" height="18" stroke="black" stroke-linecap="round" stroke-linejoin="round" stroke-width="1"/><rect x="117" y="135" width="18" height="18" fill="white"/><rect x="117" y="135" width="18" height="18" stroke="black" stroke-linecap="round" stroke-linejoin="round" stroke-width="1"/><rect x="135" y="135" width="18" height="18" fill="black"/><rect x="135" y="135" width="18" height="18" stroke="black" stroke-linecap="round" stroke-linejoin="round" stroke-width="1"/><rect x="153" y="135" width="18" height="18" fill="white"/><rect x="153" y="135" width="18" height="18" stroke="black" stroke-linecap="round" stroke-linejoin="round" stroke-width="1"/><rect x="171" y="135" width="18" height="18" fill="black"/><rect x="171" y="135" width="18" height="18" stroke="black" stroke-linecap="round" stroke-linejoin="round" stroke-width="1"/><rect x="189" y="135" width="18" height="18" fill="white"/><rect x="189" y="135" width="18" height="18" stroke="black" stroke-linecap="round" stroke-linejoin="round" stroke-width="1"/><rect x="207" y="135" width="18" height="18" fill="white"/><rect x="207" y="135" width="18" height="18" stroke="black" stroke-linecap="round" stroke-linejoin="round" stroke-width="1"/><rect x="225" y="135" width="18" height="18" fill="white"/><rect x="225" y="135" width="18" height="18" stroke="black" stroke-linecap="round" stroke-linejoin="round" stroke-width="1"/><rect x="243" y="135" width="18" height="18" fill="white"/><rect x="243" y="135" width="18" height="18" stroke="black" stroke-linecap="round" stroke-linejoin="round" stroke-width="1"/><rect x="99" y="153" width="18" height="18" fill="black"/><rect x="99" y="153" width="18" height="18" stroke="black" stroke-linecap="round" stroke-linejoin="round" stroke-width="1"/><rect x="117" y="153" width="18" height="18" fill="black"/><rect x="117" y="153" width="18" height="18" stroke="black" stroke-linecap="round" stroke-linejoin="round" stroke-width="1"/><rect x="135" y="153" width="18" height="18" fill="white"/><rect x="135" y="153" width="18" height="18" stroke="black" stroke-linecap="round" stroke-linejoin="round" stroke-width="1"/><rect x="153" y="153" width="18" height="18" fill="black"/><rect x="153" y="153" width="18" height="18" stroke="black" stroke-linecap="round" stroke-linejoin="round" stroke-width="1"/><rect x="171" y="153" width="18" height="18" fill="white"/><rect x="171" y="153" width="18" height="18" stroke="black" stroke-linecap="round" stroke-linejoin="round" stroke-width="1"/><rect x="189" y="153" width="18" height="18" fill="white"/><rect x="189" y="153" width="18" height="18" stroke="black" stroke-linecap="round" stroke-linejoin="round" stroke-width="1"/><rect x="207" y="153" width="18" height="18" fill="black"/><rect x="207" y="153" width="18" height="18" stroke="black" stroke-linecap="round" stroke-linejoin="round" stroke-width="1"/><rect x="225" y="153" width="18" height="18" fill="white"/><rect x="225" y="153" width="18" height="18" stroke="black" stroke-linecap="round" stroke-linejoin="round" stroke-width="1"/><rect x="243" y="153" width="18" height="18" fill="white"/><rect x="243" y="153" width="18" height="18" stroke="black" stroke-linecap="round" stroke-linejoin="round" stroke-width="1"/><rect x="99" y="171" width="18" height="18" fill="black"/><rect x="99" y="171" width="18" height="18" stroke="black" stroke-linecap="round" stroke-linejoin="round" stroke-width="1"/><rect x="117" y="171" width="18" height="18" fill="white"/><rect x="117" y="171" width="18" height="18" stroke="black" stroke-linecap="round" stroke-linejoin="round" stroke-width="1"/><rect x="135" y="171" width="18" height="18" fill="white"/><rect x="135" y="171" width="18" height="18" stroke="black" stroke-linecap="round" stroke-linejoin="round" stroke-width="1"/><rect x="153" y="171" width="18" height="18" fill="black"/><rect x="153" y="171" width="18" height="18" stroke="black" stroke-linecap="round" stroke-linejoin="round" stroke-width="1"/><rect x="171" y="171" width="18" height="18" fill="black"/><rect x="171" y="171" width="18" height="18" stroke="black" stroke-linecap="round" stroke-linejoin="round" stroke-width="1"/><rect x="189" y="171" width="18" height="18" fill="white"/><rect x="189" y="171" width="18" height="18" stroke="black" stroke-linecap="round" stroke-linejoin="round" stroke-width="1"/><rect x="207" y="171" width="18" height="18" fill="white"/><rect x="207" y="171" width="18" height="18" stroke="black" stroke-linecap="round" stroke-linejoin="round" stroke-width="1"/><rect x="225" y="171" width="18" height="18" fill="white"/><rect x="225" y="171" width="18" height="18" stroke="black" stroke-linecap="round" stroke-linejoin="round" stroke-width="1"/><rect x="243" y="171" width="18" height="18" fill="white"/><rect x="243" y="171" width="18" height="18" stroke="black" stroke-linecap="round" stroke-linejoin="round" stroke-width="1"/><rect x="99" y="189" width="18" height="18" fill="black"/><rect x="99" y="189" width="18" height="18" stroke="black" stroke-linecap="round" stroke-linejoin="round" stroke-width="1"/><rect x="117" y="189" width="18" height="18" fill="white"/><rect x="117" y="189" width="18" height="18" stroke="black" stroke-linecap="round" stroke-linejoin="round" stroke-width="1"/><rect x="135" y="189" width="18" height="18" fill="white"/><rect x="135" y="189" width="18" height="18" stroke="black" stroke-linecap="round" stroke-linejoin="round" stroke-width="1"/><rect x="153" y="189" width="18" height="18" fill="white"/><rect x="153" y="189" width="18" height="18" stroke="black" stroke-linecap="round" stroke-linejoin="round" stroke-width="1"/><rect x="171" y="189" width="18" height="18" fill="white"/><rect x="171" y="189" width="18" height="18" stroke="black" stroke-linecap="round" stroke-linejoin="round" stroke-width="1"/><rect x="189" y="189" width="18" height="18" fill="black"/><rect x="189" y="189" width="18" height="18" stroke="black" stroke-linecap="round" stroke-linejoin="round" stroke-width="1"/><rect x="207" y="189" width="18" height="18" fill="white"/><rect x="207" y="189" width="18" height="18" stroke="black" stroke-linecap="round" stroke-linejoin="round" stroke-width="1"/><rect x="225" y="189" width="18" height="18" fill="black"/><rect x="225" y="189" width="18" height="18" stroke="black" stroke-linecap="round" stroke-linejoin="round" stroke-width="1"/><rect x="243" y="189" width="18" height="18" fill="white"/><rect x="243" y="189" width="18" height="18" stroke="black" stroke-linecap="round" stroke-linejoin="round" stroke-width="1"/><rect x="99" y="207" width="18" height="18" fill="black"/><rect x="99" y="207" width="18" height="18" stroke="black" stroke-linecap="round" stroke-linejoin="round" stroke-width="1"/><rect x="117" y="207" width="18" height="18" fill="white"/><rect x="117" y="207" width="18" height="18" stroke="black" stroke-linecap="round" stroke-linejoin="round" stroke-width="1"/><rect x="135" y="207" width="18" height="18" fill="black"/><rect x="135" y="207" width="18" height="18" stroke="black" stroke-linecap="round" stroke-linejoin="round" stroke-width="1"/><rect x="153" y="207" width="18" height="18" fill="white"/><rect x="153" y="207" width="18" height="18" stroke="black" stroke-linecap="round" stroke-linejoin="round" stroke-width="1"/><rect x="171" y="207" width="18" height="18" fill="black"/><rect x="171" y="207" width="18" height="18" stroke="black" stroke-linecap="round" stroke-linejoin="round" stroke-width="1"/><rect x="189" y="207" width="18" height="18" fill="white"/><rect x="189" y="207" width="18" height="18" stroke="black" stroke-linecap="round" stroke-linejoin="round" stroke-width="1"/><rect x="207" y="207" width="18" height="18" fill="black"/><rect x="207" y="207" width="18" height="18" stroke="black" stroke-linecap="round" stroke-linejoin="round" stroke-width="1"/><rect x="225" y="207" width="18" height="18" fill="white"/><rect x="225" y="207" width="18" height="18" stroke="black" stroke-linecap="round" stroke-linejoin="round" stroke-width="1"/><rect x="243" y="207" width="18" height="18" fill="white"/><rect x="243" y="207" width="18" height="18" stroke="black" stroke-linecap="round" stroke-linejoin="round" stroke-width="1"/><rect x="99" y="225" width="18" height="18" fill="black"/><rect x="99" y="225" width="18" height="18" stroke="black" stroke-linecap="round" stroke-linejoin="round" stroke-width="1"/><rect x="117" y="225" width="18" height="18" fill="white"/><rect x="117" y="225" width="18" height="18" stroke="black" stroke-linecap="round" stroke-linejoin="round" stroke-width="1"/><rect x="135" y="225" width="18" height="18" fill="black"/><rect x="135" y="225" width="18" height="18" stroke="black" stroke-linecap="round" stroke-linejoin="round" stroke-width="1"/><rect x="153" y="225" width="18" height="18" fill="white"/><rect x="153" y="225" width="18" height="18" stroke="black" stroke-linecap="round" stroke-linejoin="round" stroke-width="1"/><rect x="171" y="225" width="18" height="18" fill="white"/><rect x="171" y="225" width="18" height="18" stroke="black" stroke-linecap="round" stroke-linejoin="round" stroke-width="1"/><rect x="189" y="225" width="18" height="18" fill="white"/><rect x="189" y="225" width="18" height="18" stroke="black" stroke-linecap="round" stroke-linejoin="round" stroke-width="1"/><rect x="207" y="225" width="18" height="18" fill="white"/><rect x="207" y="225" width="18" height="18" stroke="black" stroke-linecap="round" stroke-linejoin="round" stroke-width="1"/><rect x="225" y="225" width="18" height="18" fill="black"/><rect x="225" y="225" width="18" height="18" stroke="black" stroke-linecap="round" stroke-linejoin="round" stroke-width="1"/><rect x="243" y="225" width="18" height="18" fill="black"/><rect x="243" y="225" width="18" height="18" stroke="black" stroke-linecap="round" stroke-linejoin="round" stroke-width="1"/><rect x="99" y="243" width="18" height="18" fill="black"/><rect x="99" y="243" width="18" height="18" stroke="black" stroke-linecap="round" stroke-linejoin="round" stroke-width="1"/><rect x="117" y="243" width="18" height="18" fill="white"/><rect x="117" y="243" width="18" height="18" stroke="black" stroke-linecap="round" stroke-linejoin="round" stroke-width="1"/><rect x="135" y="243" width="18" height="18" fill="white"/><rect x="135" y="243" width="18" height="18" stroke="black" stroke-linecap="round" stroke-linejoin="round" stroke-width="1"/><rect x="153" y="243" width="18" height="18" fill="white"/><rect x="153" y="243" width="18" height="18" stroke="black" stroke-linecap="round" stroke-linejoin="round" stroke-width="1"/><rect x="171" y="243" width="18" height="18" fill="black"/><rect x="171" y="243" width="18" height="18" stroke="black" stroke-linecap="round" stroke-linejoin="round" stroke-width="1"/><rect x="189" y="243" width="18" height="18" fill="white"/><rect x="189" y="243" width="18" height="18" stroke="black" stroke-linecap="round" stroke-linejoin="round" stroke-width="1"/><rect x="207" y="243" width="18" height="18" fill="white"/><rect x="207" y="243" width="18" height="18" stroke="black" stroke-linecap="round" stroke-linejoin="round" stroke-width="1"/><rect x="225" y="243" width="18" height="18" fill="black"/><rect x="225" y="243" width="18" height="18" stroke="black" stroke-linecap="round" stroke-linejoin="round" stroke-width="1"/><rect x="243" y="243" width="18" height="18" fill="black"/><rect x="243" y="243" width="18" height="18" stroke="black" stroke-linecap="round" stroke-linejoin="round" stroke-width="1"/></g></g></svg>
