<?xml version="1.0" encoding="UTF-8" standalone="no"?>
<!-- Created with Inkscape (http://www.inkscape.org/) -->

<svg
   xmlns:dc="http://purl.org/dc/elements/1.1/"
   xmlns:cc="http://creativecommons.org/ns#"
   xmlns:rdf="http://www.w3.org/1999/02/22-rdf-syntax-ns#"
   xmlns:svg="http://www.w3.org/2000/svg"
   xmlns="http://www.w3.org/2000/svg"
   xmlns:sodipodi="http://sodipodi.sourceforge.net/DTD/sodipodi-0.dtd"
   xmlns:inkscape="http://www.inkscape.org/namespaces/inkscape"
   width="100"
   height="100"
   id="svg5084"
   version="1.1"
   inkscape:version="0.48.5 r10040"
   sodipodi:docname="New document 6">
  <defs
     id="defs5086" />
  <sodipodi:namedview
     id="base"
     pagecolor="#ffffff"
     bordercolor="#666666"
     borderopacity="1.0"
     inkscape:pageopacity="0.0"
     inkscape:pageshadow="2"
     inkscape:zoom="1.979899"
     inkscape:cx="95.209091"
     inkscape:cy="-7.8719548"
     inkscape:document-units="px"
     inkscape:current-layer="layer1"
     showgrid="false"
     fit-margin-top="0"
     fit-margin-left="0"
     fit-margin-right="0"
     fit-margin-bottom="0"
     inkscape:window-width="2560"
     inkscape:window-height="1388"
     inkscape:window-x="-8"
     inkscape:window-y="-8"
     inkscape:window-maximized="1" />
  <metadata
     id="metadata5089">
    <rdf:RDF>
      <cc:Work
         rdf:about="">
        <dc:format>image/svg+xml</dc:format>
        <dc:type
           rdf:resource="http://purl.org/dc/dcmitype/StillImage" />
        <dc:title></dc:title>
      </cc:Work>
    </rdf:RDF>
  </metadata>
  <g
     inkscape:label="Layer 1"
     inkscape:groupmode="layer"
     id="layer1"
     transform="translate(-338.11271,-485.08989)">
    <path
       sodipodi:type="arc"
       style="opacity:0.75;fill:#b3b3b3;fill-opacity:1;stroke:none"
       id="path3305"
       sodipodi:cx="196.66406"
       sodipodi:cy="135.81311"
       sodipodi:rx="13.417621"
       sodipodi:ry="22.649513"
       d="m 210.08168,135.81311 a 13.417621,22.649513 0 1 1 -26.83524,0 13.417621,22.649513 0 1 1 26.83524,0 z"
       transform="matrix(0.73735222,-0.5291494,0.59673987,0.65383512,158.93981,521.69409)" />
    <path
       id="path10944"
       style="fill:none;stroke:#000000;stroke-width:0.72499996;stroke-linecap:round;stroke-linejoin:round;stroke-miterlimit:10;stroke-opacity:1;stroke-dasharray:none"
       d="m 400.76113,565.33592 -2.45407,4.22264"
       inkscape:connector-curvature="0" />
    <path
       id="path10946"
       style="fill:none;stroke:#000000;stroke-width:0.90625006;stroke-linecap:round;stroke-linejoin:round;stroke-miterlimit:10;stroke-opacity:1;stroke-dasharray:none"
       d="m 398.30706,569.55856 -6.26568,0 m 5.31278,-1.62438 -5.31278,0"
       inkscape:connector-curvature="0" />
    <path
       id="path10948"
       style="fill:none;stroke:#000000;stroke-width:0.72499996;stroke-linecap:round;stroke-linejoin:round;stroke-miterlimit:10;stroke-opacity:1;stroke-dasharray:none"
       d="m 386.72861,566.0259 -2.73759,-4.62967 4.76544,-8.18301 m -2.71788,8.18301 3.67078,-6.55863"
       inkscape:connector-curvature="0" />
    <path
       id="path10950"
       style="fill:none;stroke:#000000;stroke-width:0.90625006;stroke-linecap:round;stroke-linejoin:round;stroke-miterlimit:10;stroke-opacity:1;stroke-dasharray:none"
       d="m 388.75646,553.21322 9.5506,0"
       inkscape:connector-curvature="0" />
    <path
       id="path10952"
       style="fill:none;stroke:#000000;stroke-width:0.72499996;stroke-linecap:round;stroke-linejoin:round;stroke-miterlimit:10;stroke-opacity:1;stroke-dasharray:none"
       d="m 400.88318,557.84195 -2.57612,-4.62873 m -14.31604,8.18301 -5.71835,-1.09608"
       inkscape:connector-curvature="0" />
    <path
       id="path10954"
       style="fill:none;stroke:#000000;stroke-width:0.90625006;stroke-linecap:round;stroke-linejoin:round;stroke-miterlimit:10;stroke-opacity:1;stroke-dasharray:none"
       d="m 374.31837,555.79174 -0.66938,-5.72482"
       inkscape:connector-curvature="0" />
    <path
       id="path10956"
       style="fill:none;stroke:#000000;stroke-width:0.72499996;stroke-linecap:round;stroke-linejoin:round;stroke-miterlimit:10;stroke-opacity:1;stroke-dasharray:none"
       d="m 373.64899,550.06692 5.02925,-2.31531 m 10.07822,5.46161 -3.26521,-3.6746 m 12.81581,3.6746 2.71788,-4.77068 m -0.66938,4.77068 2.16961,-3.81749 m -4.21811,20.16283 2.31231,4.10138"
       inkscape:connector-curvature="0" />
    <path
       id="path10958"
       style="fill:none;stroke:#000000;stroke-width:0.90625006;stroke-linecap:round;stroke-linejoin:round;stroke-miterlimit:10;stroke-opacity:1;stroke-dasharray:none"
       d="m 406.21566,561.39623 4.35988,0"
       inkscape:connector-curvature="0" />
    <path
       id="path10960"
       style="fill:none;stroke:#000000;stroke-width:0.72499996;stroke-linecap:round;stroke-linejoin:round;stroke-miterlimit:10;stroke-opacity:1;stroke-dasharray:none"
       d="m 383.17988,542.30974 1.09466,-5.46161 -3.81254,-3.41139"
       inkscape:connector-curvature="0" />
    <path
       id="path10962"
       style="fill:none;stroke:#000000;stroke-width:0.90625006;stroke-linecap:round;stroke-linejoin:round;stroke-miterlimit:10;stroke-opacity:1;stroke-dasharray:none"
       d="m 365.88215,509.86347 0,9.40036"
       inkscape:connector-curvature="0" />
    <path
       id="path10964"
       style="fill:none;stroke:#000000;stroke-width:0.72499996;stroke-linecap:round;stroke-linejoin:round;stroke-miterlimit:10;stroke-opacity:1;stroke-dasharray:none"
       d="m 365.88215,519.26383 8.84179,3.00529 5.73806,-7.77692 -5.73806,-7.63497 m -8.84179,3.00624 8.84179,-3.00624 m 1.23642,19.77742 -1.23642,-4.36553"
       inkscape:connector-curvature="0"
       sodipodi:nodetypes="cccccccc" />
    <path
       id="path10970"
       style="fill:#000000;fill-opacity:1;fill-rule:evenodd;stroke:none"
       d="m 360.42761,572.4219 3.95431,-5.84796 0.54733,1.76633 1.62227,0.81219 -6.12391,3.26944"
       inkscape:connector-curvature="0" />
    <path
       id="path10972"
       style="fill:none;stroke:#000000;stroke-width:0.0275;stroke-linecap:round;stroke-linejoin:round;stroke-miterlimit:10;stroke-opacity:1;stroke-dasharray:none"
       d="m 365.05035,568.19833 6.26662,-5.58381"
       inkscape:connector-curvature="0" />
    <path
       id="path10974"
       style="fill:#000000;fill-opacity:1;fill-rule:evenodd;stroke:none"
       d="m 365.05035,568.60442 -0.54733,-0.5283 6.55014,-6.00965 0.54733,0.54804"
       inkscape:connector-curvature="0" />
    <path
       d="m 401.28724,559.14874 0.90401,0 2.20022,4.15654 0,-4.15654 0.65142,0 0,4.96856 -0.90401,0 -2.20022,-4.15655 0,4.15655 -0.65142,0 0,-4.96856"
       style="font-size:7.25029993px;font-variant:normal;font-weight:normal;writing-mode:lr-tb;fill:#000000;fill-opacity:1;fill-rule:nonzero;stroke:none;font-family:Helvetica;-inkscape-font-specification:Helvetica"
       id="path10976"
       inkscape:connector-curvature="0" />
    <path
       d="m 386.97067,567.33216 0.90401,0 2.20023,4.15656 0,-4.15656 0.65142,0 0,4.96856 -0.90402,0 -2.20021,-4.15654 0,4.15654 -0.65143,0 0,-4.96856"
       style="font-size:7.25029993px;font-variant:normal;font-weight:normal;writing-mode:lr-tb;fill:#000000;fill-opacity:1;fill-rule:nonzero;stroke:none;font-family:Helvetica;-inkscape-font-specification:Helvetica"
       id="path10978"
       inkscape:connector-curvature="0" />
    <path
       d="m 372.93795,557.09794 0.90401,0 2.20022,4.15656 0,-4.15656 0.65142,0 0,4.96857 -0.90401,0 -2.20022,-4.15655 0,4.15655 -0.65142,0 0,-4.96857"
       style="font-size:7.25029993px;font-variant:normal;font-weight:normal;writing-mode:lr-tb;fill:#000000;fill-opacity:1;fill-rule:nonzero;stroke:none;font-family:Helvetica;-inkscape-font-specification:Helvetica"
       id="path10980"
       inkscape:connector-curvature="0" />
    <path
       d="m 403.03656,543.11719 c -0.48745,0 -0.87522,0.18192 -1.16325,0.54578 -0.28584,0.36384 -0.42874,0.8597 -0.42874,1.48756 0,0.62565 0.1429,1.1204 0.42874,1.48424 0.28803,0.36386 0.6758,0.54578 1.16325,0.54578 0.48746,0 0.87299,-0.18192 1.15661,-0.54578 0.28582,-0.36384 0.42874,-0.85859 0.42874,-1.48424 0,-0.62786 -0.14292,-1.12372 -0.42874,-1.48756 -0.28362,-0.36386 -0.66915,-0.54578 -1.15661,-0.54578 m 0,-0.54578 c 0.69574,0 1.25188,0.23406 1.66845,0.70219 0.41655,0.46591 0.62482,1.09155 0.62482,1.87693 0,0.78317 -0.20827,1.40881 -0.62482,1.87694 -0.41657,0.4659 -0.97271,0.69886 -1.66845,0.69886 -0.69796,0 -1.25632,-0.23296 -1.67509,-0.69886 -0.41656,-0.46591 -0.62483,-1.09156 -0.62483,-1.87694 0,-0.78538 0.20827,-1.41102 0.62483,-1.87693 0.41877,-0.46813 0.97713,-0.70219 1.67509,-0.70219"
       style="font-size:7.25029993px;font-variant:normal;font-weight:normal;writing-mode:lr-tb;fill:#000000;fill-opacity:1;fill-rule:nonzero;stroke:none;font-family:Helvetica;-inkscape-font-specification:Helvetica"
       id="path10984"
       inkscape:connector-curvature="0" />
    <path
       d="m 412.05412,559.14874 0.67135,0 0,2.03667 2.43952,0 0,-2.03667 0.67137,0 0,4.96856 -0.67137,0 0,-2.36614 -2.43952,0 0,2.36614 -0.67135,0 0,-4.96856"
       style="font-size:7.25029993px;font-variant:normal;font-weight:normal;writing-mode:lr-tb;fill:#000000;fill-opacity:1;fill-rule:nonzero;stroke:none;font-family:Helvetica;-inkscape-font-specification:Helvetica"
       id="path10990"
       inkscape:connector-curvature="0" />
    <path
       d="m 370.48414,528.20414 0.67137,0 0,2.03667 2.4395,0 0,-2.03667 0.67137,0 0,4.96855 -0.67137,0 0,-2.36613 -2.4395,0 0,2.36613 -0.67137,0 0,-4.96855"
       style="font-size:7.25029993px;font-variant:normal;font-weight:normal;writing-mode:lr-tb;fill:#000000;fill-opacity:1;fill-rule:nonzero;stroke:none;font-family:Helvetica;-inkscape-font-specification:Helvetica"
       id="path10992"
       inkscape:connector-curvature="0" />
    <path
       d="m 375.4122,528.20414 0.90401,0 2.20022,4.15655 0,-4.15655 0.65143,0 0,4.96855 -0.90402,0 -2.20021,-4.15655 0,4.15655 -0.65143,0 0,-4.96855"
       style="font-size:7.25029993px;font-variant:normal;font-weight:normal;writing-mode:lr-tb;fill:#000000;fill-opacity:1;fill-rule:nonzero;stroke:none;font-family:Helvetica;-inkscape-font-specification:Helvetica"
       id="path10994"
       inkscape:connector-curvature="0" />
    <path
       d="m 378.27405,495.8031 c -0.48747,0 -0.87521,0.18193 -1.16327,0.54578 -0.28582,0.36385 -0.42874,0.85971 -0.42874,1.48757 0,0.62565 0.14292,1.12039 0.42874,1.48425 0.28806,0.36384 0.6758,0.54577 1.16327,0.54577 0.48745,0 0.87299,-0.18193 1.1566,-0.54577 0.28583,-0.36386 0.42874,-0.8586 0.42875,-1.48425 -10e-6,-0.62786 -0.14292,-1.12372 -0.42875,-1.48757 -0.28361,-0.36385 -0.66915,-0.54578 -1.1566,-0.54578 m 0,-0.54577 c 0.69573,0 1.25187,0.23407 1.66844,0.70218 0.41655,0.46591 0.62483,1.09156 0.62483,1.87694 0,0.78317 -0.20828,1.40881 -0.62483,1.87693 -0.41657,0.46591 -0.97271,0.69886 -1.66844,0.69886 -0.69796,0 -1.25633,-0.23295 -1.6751,-0.69886 -0.41655,-0.4659 -0.62483,-1.09154 -0.62483,-1.87693 0,-0.78538 0.20828,-1.41103 0.62483,-1.87694 0.41877,-0.46811 0.97714,-0.70218 1.6751,-0.70218"
       style="font-size:7.25029993px;font-variant:normal;font-weight:normal;writing-mode:lr-tb;fill:#000000;fill-opacity:1;fill-rule:nonzero;stroke:none;font-family:Helvetica;-inkscape-font-specification:Helvetica"
       id="path10996"
       inkscape:connector-curvature="0" />
    <path
       d="m 381.55557,495.34717 0.67136,0 0,2.03669 2.43953,0 0,-2.03669 0.67136,0 0,4.96857 -0.67136,0 0,-2.36614 -2.43953,0 0,2.36614 -0.67136,0 0,-4.96857"
       style="font-size:7.25029993px;font-variant:normal;font-weight:normal;writing-mode:lr-tb;fill:#000000;fill-opacity:1;fill-rule:nonzero;stroke:none;font-family:Helvetica;-inkscape-font-specification:Helvetica"
       id="path10998"
       inkscape:connector-curvature="0" />
    <path
       d="m 389.95814,512.69943 c -0.48747,10e-6 -0.87521,0.18193 -1.16325,0.54577 -0.28584,0.36386 -0.42875,0.85971 -0.42875,1.48757 0,0.62565 0.14291,1.1204 0.42875,1.48425 0.28804,0.36385 0.67578,0.54578 1.16325,0.54578 0.48745,0 0.873,-0.18193 1.1566,-0.54578 0.28584,-0.36385 0.42875,-0.8586 0.42876,-1.48425 -10e-6,-0.62786 -0.14292,-1.12371 -0.42876,-1.48757 -0.2836,-0.36384 -0.66915,-0.54576 -1.1566,-0.54577 m 0,-0.54578 c 0.69574,10e-6 1.25189,0.23407 1.66844,0.70219 0.41655,0.46591 0.62483,1.09155 0.62484,1.87693 -10e-6,0.78317 -0.20829,1.40881 -0.62484,1.87694 -0.41655,0.4659 -0.9727,0.69887 -1.66844,0.69887 -0.69796,0 -1.25632,-0.23297 -1.67509,-0.69887 -0.41656,-0.46591 -0.62484,-1.09155 -0.62484,-1.87694 0,-0.78538 0.20828,-1.41102 0.62484,-1.87693 0.41877,-0.46812 0.97713,-0.70218 1.67509,-0.70219"
       style="font-size:7.25029993px;font-variant:normal;font-weight:normal;writing-mode:lr-tb;fill:#000000;fill-opacity:1;fill-rule:nonzero;stroke:none;font-family:Helvetica;-inkscape-font-specification:Helvetica"
       id="path11000"
       inkscape:connector-curvature="0" />
    <path
       d="m 393.23967,512.24351 0.67137,0 0,2.03667 2.43951,0 0,-2.03667 0.67136,0 0,4.96855 -0.67136,0 0,-2.36614 -2.43951,0 0,2.36614 -0.67137,0 0,-4.96855"
       style="font-size:7.25029993px;font-variant:normal;font-weight:normal;writing-mode:lr-tb;fill:#000000;fill-opacity:1;fill-rule:nonzero;stroke:none;font-family:Helvetica;-inkscape-font-specification:Helvetica"
       id="path11002"
       inkscape:connector-curvature="0" />
    <path
       d="m 401.24618,574.48612 0.90402,0 2.20022,4.15655 0,-4.15655 0.65142,0 0,4.96856 -0.90401,0 -2.20022,-4.15655 0,4.15655 -0.65143,0 0,-4.96856"
       style="font-size:7.25029993px;font-variant:normal;font-weight:normal;writing-mode:lr-tb;fill:#000000;fill-opacity:1;fill-rule:nonzero;stroke:none;font-family:Helvetica;-inkscape-font-specification:Helvetica"
       id="path11202"
       inkscape:connector-curvature="0" />
    <path
       d="m 406.17424,574.48612 0.67137,0 0,2.03668 2.4395,0 0,-2.03668 0.67137,0 0,4.96856 -0.67137,0 0,-2.36614 -2.4395,0 0,2.36614 -0.67137,0 0,-4.96856"
       style="font-size:7.25029993px;font-variant:normal;font-weight:normal;writing-mode:lr-tb;fill:#000000;fill-opacity:1;fill-rule:nonzero;stroke:none;font-family:Helvetica;-inkscape-font-specification:Helvetica"
       id="path11204"
       inkscape:connector-curvature="0" />
    <g
       id="g11206"
       transform="matrix(0.93881847,0,0,0.94003577,410.39487,580.9581)">
      <path
         inkscape:connector-curvature="0"
         id="path11208"
         style="font-size:5.51020002px;font-variant:normal;font-weight:normal;writing-mode:lr-tb;fill:#000000;fill-opacity:1;fill-rule:nonzero;stroke:none;font-family:Helvetica;-inkscape-font-specification:Helvetica"
         d="m 1.0573773,-0.45738965 1.8968217,0 0,0.45738965 -2.5506199,0 0,-0.45738965 c 0.20627316,-0.21344783 0.48698456,-0.49954029 0.8421351,-0.85827825 0.3569417,-0.360529 0.581152,-0.5928109 0.6726318,-0.6968466 0.1739853,-0.1955094 0.295059,-0.3605283 0.3632212,-0.495057 0.069951,-0.1363174 0.1049282,-0.2699468 0.1049306,-0.4008886 -2.4e-6,-0.2134454 -0.075337,-0.3874326 -0.2260043,-0.5219623 C 2.0116156,-3.5649452 1.817001,-3.6322083 1.576649,-3.6322119 c -0.1704014,3.6e-6 -0.3506666,0.029599 -0.540796,0.088787 -0.18833773,0.059195 -0.39012708,0.1488792 -0.60536862,0.2690527 l 0,-0.5488676 c 0.21882891,-0.087887 0.42330878,-0.1542529 0.61344022,-0.199099 0.1901294,-0.044838 0.3641166,-0.067259 0.5219623,-0.067263 0.4161329,4.1e-6 0.7479643,0.1040377 0.9954951,0.3121012 0.2475258,0.208071 0.3712899,0.4860919 0.3712928,0.8340635 -2.9e-6,0.1650218 -0.031392,0.321969 -0.094168,0.4708423 -0.060988,0.1470844 -0.1730933,0.3210717 -0.336316,0.5219623 -0.044844,0.052019 -0.1874423,0.2026881 -0.4277938,0.4520086 -0.2403556,0.2475297 -0.5793617,0.59460741 -1.0170193,1.04123405" />
    </g>
    <path
       inkscape:connector-curvature="0"
       style="fill:none;stroke:#000000;stroke-width:0.72499996;stroke-linecap:round;stroke-linejoin:round;stroke-miterlimit:10;stroke-opacity:1;stroke-dasharray:none"
       d="m 375.30221,551.1445 3.98285,-1.84076"
       id="path33859" />
    <path
       style="fill:none;stroke:#000000;stroke-width:0.72500002;stroke-linecap:round;stroke-linejoin:round;stroke-miterlimit:4;stroke-opacity:1;stroke-dasharray:none"
       d="m 383.37213,541.40191 -0.98068,4.73791"
       id="path3312"
       inkscape:connector-curvature="0" />
    <path
       inkscape:connector-curvature="0"
       id="path4106"
       d="m 382.46412,546.07651 3.17065,3.65142"
       style="fill:none;stroke:#000000;stroke-width:0.72500002;stroke-linecap:round;stroke-linejoin:round;stroke-miterlimit:4;stroke-opacity:1;stroke-dasharray:none" />
    <path
       inkscape:connector-curvature="0"
       d="m 373.64899,550.06692 5.02925,-2.31531 m 10.07822,5.46161 -3.26521,-3.6746 m 12.81581,3.6746 2.71788,-4.77068 m -0.66938,4.77068 2.16961,-3.81749 m -4.21811,20.16283 2.31231,4.10138"
       style="fill:none;stroke:#000000;stroke-width:0.72499996;stroke-linecap:round;stroke-linejoin:round;stroke-miterlimit:10;stroke-opacity:1;stroke-dasharray:none"
       id="path4110" />
    <path
       id="path4112"
       d="m 378.18001,547.98523 3.98285,-1.84077"
       style="fill:none;stroke:#000000;stroke-width:0.72499996;stroke-linecap:round;stroke-linejoin:round;stroke-miterlimit:10;stroke-opacity:1;stroke-dasharray:none"
       inkscape:connector-curvature="0" />
    <path
       inkscape:connector-curvature="0"
       style="fill:none;stroke:#000000;stroke-width:0.72499996;stroke-linecap:round;stroke-linejoin:round;stroke-miterlimit:10;stroke-opacity:1;stroke-dasharray:none"
       d="m 377.76395,549.99883 3.98284,-1.84076"
       id="path4114" />
    <path
       style="fill:none;stroke:#000000;stroke-width:0.72499996;stroke-linecap:round;stroke-linejoin:round;stroke-miterlimit:10;stroke-opacity:1;stroke-dasharray:none"
       d="m 367.54791,518.28331 0.004,-7.51833"
       id="path3314"
       inkscape:connector-curvature="0" />
    <g
       id="g3348"
       transform="matrix(0.3542758,-0.87046252,-0.43569539,-0.16730077,453.45689,721.06322)">
      <path
         inkscape:connector-curvature="0"
         id="path3336"
         d="m 188.18321,328.05387 0.004,2.43333"
         style="fill:none;stroke:#000000;stroke-width:1.09481251;stroke-linecap:round;stroke-linejoin:round;stroke-miterlimit:10;stroke-opacity:1;stroke-dasharray:none" />
      <path
         style="fill:none;stroke:#000000;stroke-width:1.09481251;stroke-linecap:round;stroke-linejoin:round;stroke-miterlimit:10;stroke-opacity:1;stroke-dasharray:none"
         d="m 189.27894,327.64832 0.004,3.24443"
         id="path3338"
         inkscape:connector-curvature="0" />
      <path
         inkscape:connector-curvature="0"
         id="path3340"
         d="m 187.0875,328.45942 0.004,1.62222"
         style="fill:none;stroke:#000000;stroke-width:1.09481251;stroke-linecap:round;stroke-linejoin:round;stroke-miterlimit:10;stroke-opacity:1;stroke-dasharray:none" />
      <path
         style="fill:none;stroke:#000000;stroke-width:1.09481251;stroke-linecap:round;stroke-linejoin:round;stroke-miterlimit:10;stroke-opacity:1;stroke-dasharray:none"
         d="m 185.99177,328.78387 0.004,0.97333"
         id="path3342"
         inkscape:connector-curvature="0" />
      <path
         inkscape:connector-curvature="0"
         id="path3344"
         d="m 184.89606,329.0272 0.004,0.48666"
         style="fill:none;stroke:#000000;stroke-width:1.09481251;stroke-linecap:round;stroke-linejoin:round;stroke-miterlimit:10;stroke-opacity:1;stroke-dasharray:none" />
      <path
         style="fill:none;stroke:#000000;stroke-width:1.09481251;stroke-linecap:round;stroke-linejoin:round;stroke-miterlimit:10;stroke-opacity:1;stroke-dasharray:none"
         d="m 183.80033,329.18942 0.004,0.16223"
         id="path3346"
         inkscape:connector-curvature="0" />
    </g>
    <g
       transform="matrix(0.93872451,0.0071834,-0.00613259,-0.467199,210.91574,666.95612)"
       id="g3392">
      <path
         style="fill:none;stroke:#000000;stroke-width:1.09481251;stroke-linecap:round;stroke-linejoin:round;stroke-miterlimit:10;stroke-opacity:1;stroke-dasharray:none"
         d="m 188.18321,328.05387 0.004,2.43333"
         id="path3394"
         inkscape:connector-curvature="0" />
      <path
         inkscape:connector-curvature="0"
         id="path3396"
         d="m 189.27894,327.64832 0.004,3.24443"
         style="fill:none;stroke:#000000;stroke-width:1.09481251;stroke-linecap:round;stroke-linejoin:round;stroke-miterlimit:10;stroke-opacity:1;stroke-dasharray:none" />
      <path
         style="fill:none;stroke:#000000;stroke-width:1.09481251;stroke-linecap:round;stroke-linejoin:round;stroke-miterlimit:10;stroke-opacity:1;stroke-dasharray:none"
         d="m 187.0875,328.45942 0.004,1.62222"
         id="path3398"
         inkscape:connector-curvature="0" />
      <path
         inkscape:connector-curvature="0"
         id="path3400"
         d="m 185.99177,328.78387 0.004,0.97333"
         style="fill:none;stroke:#000000;stroke-width:1.09481251;stroke-linecap:round;stroke-linejoin:round;stroke-miterlimit:10;stroke-opacity:1;stroke-dasharray:none" />
      <path
         style="fill:none;stroke:#000000;stroke-width:1.09481251;stroke-linecap:round;stroke-linejoin:round;stroke-miterlimit:10;stroke-opacity:1;stroke-dasharray:none"
         d="m 184.89606,329.0272 0.004,0.48666"
         id="path3402"
         inkscape:connector-curvature="0" />
      <path
         inkscape:connector-curvature="0"
         id="path3404"
         d="m 183.80033,329.18942 0.004,0.16223"
         style="fill:none;stroke:#000000;stroke-width:1.09481251;stroke-linecap:round;stroke-linejoin:round;stroke-miterlimit:10;stroke-opacity:1;stroke-dasharray:none" />
    </g>
    <path
       style="fill:#000000;stroke:#000000;stroke-width:0.72500002;stroke-linecap:round;stroke-linejoin:round;stroke-miterlimit:4;stroke-opacity:1;stroke-dasharray:none"
       d="m 374.7374,522.35813 0.28364,4.48738 0.94548,-0.1704"
       id="path3718"
       inkscape:connector-curvature="0"
       sodipodi:nodetypes="ccc" />
  </g>
</svg>
