<?xml version="1.0" encoding="UTF-8" standalone="no"?>
<!-- Created with Inkscape (http://www.inkscape.org/) -->

<svg
   xmlns:dc="http://purl.org/dc/elements/1.1/"
   xmlns:cc="http://creativecommons.org/ns#"
   xmlns:rdf="http://www.w3.org/1999/02/22-rdf-syntax-ns#"
   xmlns:svg="http://www.w3.org/2000/svg"
   xmlns="http://www.w3.org/2000/svg"
   xmlns:sodipodi="http://sodipodi.sourceforge.net/DTD/sodipodi-0.dtd"
   xmlns:inkscape="http://www.inkscape.org/namespaces/inkscape"
   id="svg3371"
   version="1.1"
   inkscape:version="0.91 r13725"
   xml:space="preserve"
   width="2793.9595"
   height="2074.3459"
   viewBox="0 0 2793.9595 2074.3459"
   sodipodi:docname="software-citation-principles-abstract.svg"><metadata
     id="metadata3377"><rdf:RDF><cc:Work
         rdf:about=""><dc:format>image/svg+xml</dc:format><dc:type
           rdf:resource="http://purl.org/dc/dcmitype/StillImage" /><dc:title></dc:title></cc:Work></rdf:RDF></metadata><defs
     id="defs3375"><clipPath
       clipPathUnits="userSpaceOnUse"
       id="clipPath3441"><path
         d="m 0,2612.127 3371.39,0 L 3371.39,0 0,0 0,2612.127 Z"
         id="path3443"
         inkscape:connector-curvature="0" /></clipPath><clipPath
       clipPathUnits="userSpaceOnUse"
       id="clipPath3529"><path
         d="m 1582.38,2083.79 99.04,0 0,-288.5 -99.04,0 0,288.5 z"
         id="path3531"
         inkscape:connector-curvature="0" /></clipPath><clipPath
       clipPathUnits="userSpaceOnUse"
       id="clipPath3629"><path
         d="m 0,2612.127 3371.39,0 L 3371.39,0 0,0 0,2612.127 Z"
         id="path3631"
         inkscape:connector-curvature="0" /></clipPath><clipPath
       clipPathUnits="userSpaceOnUse"
       id="clipPath3709"><path
         d="m 0,2612.127 3371.39,0 L 3371.39,0 0,0 0,2612.127 Z"
         id="path3711"
         inkscape:connector-curvature="0" /></clipPath><clipPath
       clipPathUnits="userSpaceOnUse"
       id="clipPath3751"><path
         d="m 0,2612.127 3371.39,0 L 3371.39,0 0,0 0,2612.127 Z"
         id="path3753"
         inkscape:connector-curvature="0" /></clipPath><clipPath
       clipPathUnits="userSpaceOnUse"
       id="clipPath3785"><path
         d="m 0,2612.127 3371.39,0 L 3371.39,0 0,0 0,2612.127 Z"
         id="path3787"
         inkscape:connector-curvature="0" /></clipPath><clipPath
       clipPathUnits="userSpaceOnUse"
       id="clipPath3843"><path
         d="m 0,2612.127 3371.39,0 L 3371.39,0 0,0 0,2612.127 Z"
         id="path3845"
         inkscape:connector-curvature="0" /></clipPath><clipPath
       clipPathUnits="userSpaceOnUse"
       id="clipPath3887"><path
         d="m 0,2612.127 3371.39,0 L 3371.39,0 0,0 0,2612.127 Z"
         id="path3889"
         inkscape:connector-curvature="0" /></clipPath><clipPath
       clipPathUnits="userSpaceOnUse"
       id="clipPath3927"><path
         d="m 0,2612.127 3371.39,0 L 3371.39,0 0,0 0,2612.127 Z"
         id="path3929"
         inkscape:connector-curvature="0" /></clipPath><clipPath
       clipPathUnits="userSpaceOnUse"
       id="clipPath4005"><path
         d="m 0,2612.127 3371.39,0 L 3371.39,0 0,0 0,2612.127 Z"
         id="path4007"
         inkscape:connector-curvature="0" /></clipPath></defs><sodipodi:namedview
     pagecolor="#ffffff"
     bordercolor="#666666"
     borderopacity="1"
     objecttolerance="10"
     gridtolerance="10"
     guidetolerance="10"
     inkscape:pageopacity="0"
     inkscape:pageshadow="2"
     inkscape:window-width="1089"
     inkscape:window-height="756"
     id="namedview3373"
     showgrid="false"
     inkscape:zoom="0.16813864"
     inkscape:cx="1176.4296"
     inkscape:cy="1017.2606"
     inkscape:window-x="0"
     inkscape:window-y="0"
     inkscape:window-maximized="0"
     inkscape:current-layer="g3379"
     fit-margin-top="0"
     fit-margin-left="0"
     fit-margin-right="0"
     fit-margin-bottom="0" /><g
     id="g3379"
     inkscape:groupmode="layer"
     inkscape:label="full-white"
     transform="matrix(1.25,0,0,-1.25,-930.68912,2658.3071)"><g
       id="g3923" /><g
       id="g3448"><g
         id="g3437"><g
           clip-path="url(#clipPath3441)"
           id="g3439"><g
             transform="translate(933.5513,1117.7074)"
             id="g3445"><path
               inkscape:connector-curvature="0"
               id="path3447"
               style="fill:#d2d3d0;fill-opacity:1;fill-rule:nonzero;stroke:none"
               d="M 0,0 C 104.1,0 189,84.9 189,189 189,293.1 104.1,378 0,378 -104.1,378 -189,293.1 -189,189 -189,84.9 -104.1,0 0,0" /></g><g
             transform="translate(933.5513,1150.7074)"
             id="g3449"><path
               inkscape:connector-curvature="0"
               id="path3451"
               style="fill:#7b67b8;fill-opacity:1;fill-rule:nonzero;stroke:none"
               d="M 0,0 C 86,0 156.1,70.1 156.1,156.1 156.1,242.1 86,312.2 0,312.2 -86,312.2 -156.1,242.1 -156.1,156.1 -156,70.1 -85.9,0 0,0" /></g><g
             transform="translate(1620.2513,1435.4073)"
             id="g3453"><path
               inkscape:connector-curvature="0"
               id="path3455"
               style="fill:#ffffff;fill-opacity:1;fill-rule:nonzero;stroke:none"
               d="M 0,0 C 2.9,0 5.2,2.4 5.2,5.2 5.2,8.1 2.8,10.4 0,10.4 -2.9,10.4 -5.2,8 -5.2,5.2 -5.2,2.4 -2.9,0 0,0" /></g><g
             transform="translate(1282.4513,707.9073)"
             id="g3457"><path
               inkscape:connector-curvature="0"
               id="path3459"
               style="fill:#d2d3d0;fill-opacity:1;fill-rule:nonzero;stroke:none"
               d="M 0,0 C 95.8,0 173.8,78.1 173.8,173.8 173.8,269.6 95.7,347.6 0,347.6 -95.8,347.6 -173.8,269.5 -173.8,173.8 -173.8,78.1 -95.8,0 0,0" /></g><g
             transform="translate(1282.4513,738.2072)"
             id="g3461"><path
               inkscape:connector-curvature="0"
               id="path3463"
               style="fill:#f68e14;fill-opacity:1;fill-rule:nonzero;stroke:none"
               d="M 0,0 C 79.1,0 143.5,64.5 143.5,143.5 143.5,222.6 79,287 0,287 -79.1,287 -143.5,222.5 -143.5,143.5 -143.5,64.5 -79.1,0 0,0" /></g><g
             transform="translate(1284.1512,960.4073)"
             id="g3465"><path
               inkscape:connector-curvature="0"
               id="path3467"
               style="fill:#ffffff;fill-opacity:1;fill-rule:nonzero;stroke:none"
               d="m 0,0 c 18.3,0 33.3,-15 33.3,-33.3 0,-18.3 -15,-33.3 -33.3,-33.3 -18.3,0 -33.3,15 -33.3,33.3 C -33.3,-15 -18.3,0 0,0 m 0,-78.4 c 25,0 45.2,20.2 45.2,45.2 0,25 -20.2,45.1 -45.2,45.1 -25,0 -45.2,-20.2 -45.2,-45.1 0,-24.9 20.3,-45.2 45.2,-45.2" /></g><g
             transform="translate(1256.7513,862.1072)"
             id="g3469"><path
               inkscape:connector-curvature="0"
               id="path3471"
               style="fill:#ffffff;fill-opacity:1;fill-rule:nonzero;stroke:none"
               d="M 0,0 55.5,0 C 78.2,0 97,-16.9 99.9,-38.8 l -144.2,0 C -41.5,-17 -22.8,0 0,0 m -50.8,-50.7 157,0 c 3.3,0 6,2.6 6,6 0,31.2 -25.4,56.7 -56.7,56.7 L 0,12 c -31.2,0 -56.7,-25.4 -56.7,-56.7 0,-3.4 2.6,-6 5.9,-6" /></g><g
             transform="translate(883.2513,1392.4073)"
             id="g3473"><path
               inkscape:connector-curvature="0"
               id="path3475"
               style="fill:none;stroke:#ffffff;stroke-width:10;stroke-linecap:round;stroke-linejoin:miter;stroke-miterlimit:10;stroke-dasharray:none;stroke-opacity:1"
               d="M 0,0 0,-169.8" /></g><g
             transform="translate(883.2513,1392.4073)"
             id="g3477"><path
               inkscape:connector-curvature="0"
               id="path3479"
               style="fill:none;stroke:#ffffff;stroke-width:10;stroke-linecap:round;stroke-linejoin:miter;stroke-miterlimit:10;stroke-dasharray:none;stroke-opacity:1"
               d="M 0,0 34.5,0" /></g><g
             transform="translate(917.7513,1407.7074)"
             id="g3481"><path
               inkscape:connector-curvature="0"
               id="path3483"
               style="fill:none;stroke:#ffffff;stroke-width:10;stroke-linecap:round;stroke-linejoin:miter;stroke-miterlimit:10;stroke-dasharray:none;stroke-opacity:1"
               d="M 0,0 0,-200.3" /></g><g
             transform="translate(917.7513,1207.4073)"
             id="g3485"><path
               inkscape:connector-curvature="0"
               id="path3487"
               style="fill:none;stroke:#ffffff;stroke-width:10;stroke-linecap:round;stroke-linejoin:miter;stroke-miterlimit:10;stroke-dasharray:none;stroke-opacity:1"
               d="M 0,0 84.7,15.2" /></g><g
             transform="translate(1002.4513,1222.6073)"
             id="g3489"><path
               inkscape:connector-curvature="0"
               id="path3491"
               style="fill:none;stroke:#ffffff;stroke-width:10;stroke-linecap:round;stroke-linejoin:miter;stroke-miterlimit:10;stroke-dasharray:none;stroke-opacity:1"
               d="M 0,0 0,169.8" /></g><g
             transform="translate(1002.4513,1392.4073)"
             id="g3493"><path
               inkscape:connector-curvature="0"
               id="path3495"
               style="fill:none;stroke:#ffffff;stroke-width:10;stroke-linecap:round;stroke-linejoin:miter;stroke-miterlimit:10;stroke-dasharray:none;stroke-opacity:1"
               d="M 0,0 -84.7,15.3" /></g><g
             transform="translate(940.8513,1293.5073)"
             id="g3497"><path
               inkscape:connector-curvature="0"
               id="path3499"
               style="fill:#ffffff;fill-opacity:1;fill-rule:nonzero;stroke:none"
               d="M 0,0 C 2.9,0 5.2,2.4 5.2,5.2 5.2,8.1 2.8,10.4 0,10.4 -2.9,10.4 -5.2,8 -5.2,5.2 -5.3,2.3 -2.9,0 0,0" /></g><g
             transform="translate(1753.6045,1143.0433)"
             id="g3501"><path
               inkscape:connector-curvature="0"
               id="path3503"
               style="fill:#d2d3d0;fill-opacity:1;fill-rule:nonzero;stroke:none"
               d="m 0,0 c 117.186,0 212.598,95.535 212.598,212.598 0,117.186 -95.534,212.599 -212.598,212.599 -117.186,0 -212.598,-95.535 -212.598,-212.599 C -212.598,95.535 -117.186,0 0,0" /></g><g
             transform="translate(1753.6045,1180.1073)"
             id="g3505"><path
               inkscape:connector-curvature="0"
               id="path3507"
               style="fill:#a3d11d;fill-opacity:1;fill-rule:nonzero;stroke:none"
               d="m 0,0 c 96.758,0 175.534,78.899 175.534,175.534 0,96.758 -78.898,175.535 -175.534,175.535 -96.758,0 -175.534,-78.899 -175.534,-175.535 C -175.534,78.899 -96.758,0 0,0" /></g><g
             transform="translate(1864.1262,1347.6029)"
             id="g3509"><path
               inkscape:connector-curvature="0"
               id="path3511"
               style="fill:#ffffff;fill-opacity:1;fill-rule:nonzero;stroke:none"
               d="m 0,0 c 0,-0.695 -0.497,-1.192 -1.093,-1.291 l -21.651,-3.576 c -2.681,-0.496 -4.866,-2.482 -5.561,-5.065 -1.987,-7.548 -4.966,-14.798 -8.939,-21.552 -1.39,-2.383 -1.291,-5.263 0.298,-7.547 l 12.713,-17.977 c 0.397,-0.497 0.298,-1.291 -0.199,-1.788 L -39.826,-74.19 c -0.397,-0.397 -0.695,-0.397 -0.993,-0.397 -0.298,0 -0.596,0.099 -0.795,0.298 l -17.877,12.712 c -2.185,1.59 -5.164,1.689 -7.548,0.298 -6.753,-3.972 -14.004,-7.051 -21.552,-8.938 -2.681,-0.695 -4.667,-2.88 -5.065,-5.562 L -97.33,-97.43 c -0.1,-0.695 -0.696,-1.092 -1.292,-1.092 l -21.651,0 c -0.695,0 -1.191,0.496 -1.291,1.092 l -3.575,21.651 c -0.497,2.682 -2.483,4.867 -5.065,5.562 -7.35,1.887 -14.501,4.866 -21.155,8.64 -1.093,0.596 -2.284,0.894 -3.476,0.894 -1.391,0 -2.88,-0.397 -3.973,-1.291 l -18.075,-12.812 c -0.299,-0.198 -0.497,-0.298 -0.795,-0.298 -0.199,0 -0.596,0.1 -0.993,0.398 l -15.394,15.394 c -0.497,0.496 -0.497,1.192 -0.199,1.787 l 12.713,17.778 c 1.589,2.285 1.688,5.264 0.298,7.648 -3.973,6.654 -7.151,14.003 -9.038,21.552 -0.695,2.582 -2.88,4.667 -5.562,5.065 l -21.75,3.674 c -0.695,0.1 -1.093,0.696 -1.093,1.292 l 0,21.651 c 0,0.695 0.497,1.191 1.093,1.291 l 21.452,3.575 c 2.682,0.497 4.966,2.483 5.661,5.165 1.887,7.548 4.867,14.897 8.839,21.651 1.391,2.383 1.192,5.263 -0.397,7.548 L -194.86,78.46 c -0.397,0.497 -0.298,1.292 0.199,1.788 l 15.394,15.394 c 0.397,0.398 0.695,0.398 0.993,0.398 0.298,0 0.596,-0.1 0.795,-0.298 l 17.777,-12.713 c 2.285,-1.589 5.264,-1.688 7.648,-0.298 6.654,3.973 14.003,7.151 21.552,9.038 2.582,0.695 4.667,2.88 5.065,5.562 l 3.674,21.75 c 0.1,0.695 0.695,1.093 1.292,1.093 l 21.651,0 c 0.695,0 1.191,-0.497 1.291,-1.093 l 3.575,-21.452 c 0.497,-2.682 2.483,-4.966 5.165,-5.661 7.746,-1.987 15.195,-4.966 22.147,-9.038 2.384,-1.391 5.264,-1.291 7.548,0.298 l 17.778,12.812 c 0.298,0.198 0.497,0.298 0.795,0.298 0.198,0 0.596,-0.1 0.993,-0.398 l 15.394,-15.394 c 0.497,-0.496 0.497,-1.192 0.199,-1.788 L -36.648,60.881 c -1.589,-2.185 -1.688,-5.164 -0.298,-7.548 3.973,-6.753 7.052,-14.003 8.939,-21.552 0.695,-2.681 2.88,-4.667 5.561,-5.065 l 21.652,-3.674 c 0.695,-0.1 1.092,-0.696 1.092,-1.292 L 0,0 Z m 1.192,36.747 -17.281,2.98 c -1.788,5.86 -4.172,11.421 -6.953,16.784 l 10.23,14.302 c 4.37,6.058 3.675,14.401 -1.688,19.665 l -15.394,15.394 c -2.881,2.88 -6.655,4.469 -10.727,4.469 -3.178,0 -6.257,-0.993 -8.839,-2.88 l -14.302,-10.23 c -5.561,2.98 -11.421,5.363 -17.38,7.151 l -2.88,17.083 c -1.192,7.349 -7.548,12.712 -14.997,12.712 l -21.651,0 c -7.449,0 -13.805,-5.363 -14.997,-12.712 l -2.98,-17.48 c -5.76,-1.788 -11.421,-4.171 -16.784,-7.052 l -14.203,10.23 c -2.582,1.887 -5.661,2.88 -8.839,2.88 -4.072,0 -7.945,-1.589 -10.726,-4.469 L -204.593,90.18 c -5.264,-5.264 -5.959,-13.507 -1.689,-19.665 l 10.329,-14.5 c -2.88,-5.363 -5.065,-11.024 -6.853,-16.884 l -17.082,-2.88 c -7.35,-1.192 -12.713,-7.548 -12.713,-14.997 l 0,-21.651 c 0,-7.449 5.363,-13.805 12.713,-14.997 l 17.48,-2.98 c 1.788,-5.76 4.171,-11.421 7.051,-16.784 l -10.13,-14.103 c -4.37,-6.058 -3.675,-14.401 1.688,-19.665 l 15.394,-15.394 c 2.881,-2.88 6.655,-4.469 10.727,-4.469 3.178,0 6.257,0.993 8.839,2.88 l 14.5,10.329 c 5.165,-2.682 10.627,-4.966 16.288,-6.654 l 2.88,-17.282 c 1.192,-7.349 7.549,-12.712 14.997,-12.712 l 21.751,0 c 7.449,0 13.805,5.363 14.997,12.712 l 2.979,17.282 c 5.86,1.787 11.421,4.171 16.785,6.952 l 14.301,-10.23 c 2.583,-1.887 5.661,-2.88 8.84,-2.88 4.072,0 7.846,1.589 10.726,4.469 l 15.394,15.394 c 5.264,5.264 5.959,13.508 1.688,19.665 l -10.229,14.302 c 2.88,5.363 5.164,11.024 6.952,16.784 l 17.281,2.881 c 7.35,1.191 12.713,7.548 12.713,14.996 l 0,21.652 c -0.1,7.448 -5.463,13.804 -12.812,14.996" /></g><g
             transform="translate(1754.5795,1319.1982)"
             id="g3513"><path
               inkscape:connector-curvature="0"
               id="path3515"
               style="fill:#ffffff;fill-opacity:1;fill-rule:nonzero;stroke:none"
               d="m 0,0 c -21.651,0 -39.329,17.579 -39.329,39.329 0,21.652 17.579,39.33 39.329,39.33 21.651,0 39.33,-17.579 39.33,-39.33 C 39.33,17.579 21.75,0 0,0 m 0,92.563 c -29.398,0 -53.234,-23.836 -53.234,-53.233 0,-29.398 23.836,-53.234 53.234,-53.234 29.398,0 53.234,23.836 53.234,53.234 0,29.298 -23.836,53.233 -53.234,53.233" /></g><g
             transform="translate(1631.5255,1779.0457)"
             id="g3517"><path
               inkscape:connector-curvature="0"
               id="path3519"
               style="fill:#d2d3d0;fill-opacity:1;fill-rule:nonzero;stroke:none"
               d="M 0,0 C 95.8,0 173.8,78.1 173.8,173.8 173.8,269.6 95.7,347.6 0,347.6 -95.8,347.6 -173.8,269.5 -173.8,173.8 -173.8,78.1 -95.8,0 0,0" /></g><g
             transform="translate(1631.5255,1809.3456)"
             id="g3521"><path
               inkscape:connector-curvature="0"
               id="path3523"
               style="fill:#e31b38;fill-opacity:1;fill-rule:nonzero;stroke:none"
               d="M 0,0 C 79.1,0 143.5,64.5 143.5,143.5 143.5,222.6 79,287 0,287 -79.1,287 -143.5,222.5 -143.5,143.5 -143.5,64.5 -79.1,0 0,0" /></g><g
             id="g3525"><g
               id="g3527" /><g
               id="g3533"><g
                 id="g3535"
                 clip-path="url(#clipPath3529)"><g
                   id="g3537"
                   transform="translate(1621.9229,1918.0645)"><path
                     inkscape:connector-curvature="0"
                     id="path3539"
                     style="fill:none;stroke:#ffffff;stroke-width:14;stroke-linecap:butt;stroke-linejoin:miter;stroke-miterlimit:10;stroke-dasharray:none;stroke-opacity:1"
                     d="m 0,0 c 1.746,-3.784 4.863,-5.673 9.353,-5.673 4.405,0 7.563,1.952 9.476,5.86 1.911,3.906 3.158,9.518 3.74,16.833 l 5.363,61.473 c 0.58,5.652 0.872,11.222 0.872,16.709 0,9.309 -1.206,16.437 -3.616,21.384 -2.412,4.945 -7.191,7.419 -14.339,7.419 -5.904,0 -10.662,-1.933 -14.278,-5.798 -3.616,-3.865 -5.424,-9.249 -5.424,-16.147 0,-5.072 0.374,-13.426 1.123,-25.063 L -3.74,17.27 C -2.992,9.539 -1.745,3.782 0,0 Z m 23.193,-59.79 c 3.741,3.324 5.611,7.897 5.611,13.717 0,5.153 -1.851,9.538 -5.549,13.155 -3.699,3.616 -8.167,5.423 -13.404,5.423 -5.237,0 -9.664,-1.807 -13.28,-5.423 -3.616,-3.617 -5.424,-8.002 -5.424,-13.155 0,-5.904 1.89,-10.496 5.673,-13.779 3.783,-3.283 8.209,-4.925 13.281,-4.925 4.987,0 9.351,1.664 13.092,4.987 z" /></g></g></g></g><g
             transform="translate(2805.9189,961.2073)"
             id="g3541"><path
               inkscape:connector-curvature="0"
               id="path3543"
               style="fill:#d2d3d0;fill-opacity:1;fill-rule:nonzero;stroke:none"
               d="M 0,0 C 95.8,0 173.8,78.1 173.8,173.8 173.8,269.6 95.7,347.6 0,347.6 -95.8,347.6 -173.8,269.5 -173.8,173.8 -173.8,78.1 -95.8,0 0,0" /></g><g
             transform="translate(2805.9189,991.5073)"
             id="g3545"><path
               inkscape:connector-curvature="0"
               id="path3547"
               style="fill:#f6db0c;fill-opacity:1;fill-rule:nonzero;stroke:none"
               d="M 0,0 C 79.1,0 143.5,64.5 143.5,143.5 143.5,222.6 79,287 0,287 -79.1,287 -143.5,222.5 -143.5,143.5 -143.5,64.5 -79.1,0 0,0" /></g><g
             transform="translate(2805.9189,1131.0073)"
             id="g3549"><path
               inkscape:connector-curvature="0"
               id="path3551"
               style="fill:none;stroke:#ffffff;stroke-width:17;stroke-linecap:round;stroke-linejoin:miter;stroke-miterlimit:10;stroke-dasharray:none;stroke-opacity:1"
               d="M 0,0 53.132,41.828" /></g><g
             transform="translate(2805.9189,1131.0073)"
             id="g3553"><path
               inkscape:connector-curvature="0"
               id="path3555"
               style="fill:none;stroke:#ffffff;stroke-width:17;stroke-linecap:round;stroke-linejoin:miter;stroke-miterlimit:10;stroke-dasharray:none;stroke-opacity:1"
               d="M 0,0 -31.465,26.189" /></g><g
             transform="translate(2805.9189,1235.8074)"
             id="g3557"><path
               inkscape:connector-curvature="0"
               id="path3559"
               style="fill:none;stroke:#ffffff;stroke-width:18;stroke-linecap:butt;stroke-linejoin:miter;stroke-miterlimit:10;stroke-dasharray:none;stroke-opacity:1"
               d="m 0,0 c 55.67,0 100.8,-45.13 100.8,-100.8 0,-55.67 -45.13,-100.8 -100.8,-100.8 -55.67,0 -100.8,45.13 -100.8,100.8 C -100.8,-45.13 -55.67,0 0,0 Z" /></g><g
             transform="translate(2400.5415,1511.7781)"
             id="g3561"><path
               inkscape:connector-curvature="0"
               id="path3563"
               style="fill:#d2d3d0;fill-opacity:1;fill-rule:nonzero;stroke:none"
               d="M 0,0 C 99.106,0 180,80.894 180,180 180,279.106 99.106,360 0,360 -99.106,360 -180,279.106 -180,180 -180,80.782 -99.218,0 0,0" /></g><g
             transform="translate(2400.5415,1543.1747)"
             id="g3565"><path
               inkscape:connector-curvature="0"
               id="path3567"
               style="fill:#288a45;fill-opacity:1;fill-rule:nonzero;stroke:none"
               d="m 0,0 c 81.788,0 148.603,66.704 148.603,148.603 0,81.9 -66.703,148.603 -148.603,148.603 -81.788,0 -148.603,-66.703 -148.603,-148.603 C -148.603,66.704 -81.899,0 0,0" /></g><g
             transform="translate(1822.2223,1172.8348)"
             id="g3569"><path
               inkscape:connector-curvature="0"
               id="path3571"
               style="fill:none;stroke:#d2d3d0;stroke-width:30;stroke-linecap:butt;stroke-linejoin:miter;stroke-miterlimit:10;stroke-dasharray:none;stroke-opacity:1"
               d="M 0,0 42.202,-406.521" /></g><g
             transform="translate(1626.3241,1215.0073)"
             id="g3573"><path
               inkscape:connector-curvature="0"
               id="path3575"
               style="fill:none;stroke:#d2d3d0;stroke-width:30;stroke-linecap:butt;stroke-linejoin:miter;stroke-miterlimit:10;stroke-dasharray:none;stroke-opacity:1"
               d="M 0,0 -231.355,-220.4" /></g><g
             transform="translate(1108.6512,1303.9072)"
             id="g3577"><path
               inkscape:connector-curvature="0"
               id="path3579"
               style="fill:none;stroke:#d2d3d0;stroke-width:30;stroke-linecap:butt;stroke-linejoin:miter;stroke-miterlimit:10;stroke-dasharray:none;stroke-opacity:1"
               d="M 0,0 451.394,51.734" /></g><g
             transform="translate(1672.8491,1791.2363)"
             id="g3581"><path
               inkscape:connector-curvature="0"
               id="path3583"
               style="fill:none;stroke:#d2d3d0;stroke-width:30;stroke-linecap:butt;stroke-linejoin:miter;stroke-miterlimit:10;stroke-dasharray:none;stroke-opacity:1"
               d="M 0,0 47.695,-239.259" /></g><g
             transform="translate(1897.8506,1487.3481)"
             id="g3585"><path
               inkscape:connector-curvature="0"
               id="path3587"
               style="fill:none;stroke:#d2d3d0;stroke-width:30;stroke-linecap:butt;stroke-linejoin:miter;stroke-miterlimit:10;stroke-dasharray:none;stroke-opacity:1"
               d="M 0,0 354.088,129.259" /></g><g
             transform="translate(1939.2513,1319.1982)"
             id="g3589"><path
               inkscape:connector-curvature="0"
               id="path3591"
               style="fill:none;stroke:#d2d3d0;stroke-width:30;stroke-linecap:butt;stroke-linejoin:miter;stroke-miterlimit:10;stroke-dasharray:none;stroke-opacity:1"
               d="M 0,0 708.6,-126.033" /></g></g></g><g
         id="g3979"
         transform="translate(1878.1299,467.16888)"><path
           d="M 0,0 C 85.233,0 154.8,69.567 154.8,154.8 154.8,240.033 85.233,309.6 0,309.6 -85.233,309.6 -154.8,240.033 -154.8,154.8 -154.8,69.567 -85.317,0 0,0"
           style="fill:#d2d3d0;fill-opacity:1;fill-rule:nonzero;stroke:none"
           id="path3981"
           inkscape:connector-curvature="0" /></g><g
         id="g3983"
         transform="translate(1878.1299,494.20424)"><path
           d="m 0,0 c 70.41,0 127.765,57.439 127.765,127.765 0,70.409 -57.44,127.764 -127.765,127.764 -70.325,0 -127.765,-57.439 -127.765,-127.764 C -127.849,57.355 -70.409,0 0,0"
           style="fill:#428cd2;fill-opacity:1;fill-rule:nonzero;stroke:none"
           id="path3985"
           inkscape:connector-curvature="0" /></g><g
         id="g3987"
         transform="translate(1877.9285,714.87616)"><path
           d="m 0,0 c 50.88,0 92.126,-41.246 92.126,-92.126 0,-50.88 -41.246,-92.126 -92.126,-92.126 -50.88,0 -92.126,41.246 -92.126,92.126 C -92.126,-41.246 -50.88,0 0,0 Z"
           style="fill:none;stroke:#ffffff;stroke-width:18;stroke-linecap:butt;stroke-linejoin:miter;stroke-miterlimit:10;stroke-dasharray:none;stroke-opacity:1"
           id="path3989"
           inkscape:connector-curvature="0" /></g><g
         id="g3991"
         transform="translate(1878.1299,665.26992)"><path
           d="m 0,0 c 23.483,0 42.52,-19.037 42.52,-42.52 0,-23.483 -19.037,-42.519 -42.52,-42.519 -23.483,0 -42.52,19.036 -42.52,42.519 C -42.52,-19.037 -23.483,0 0,0 Z"
           style="fill:none;stroke:#ffffff;stroke-width:18;stroke-linecap:butt;stroke-linejoin:miter;stroke-miterlimit:10;stroke-dasharray:none;stroke-opacity:1"
           id="path3993"
           inkscape:connector-curvature="0" /></g><g
         id="g4001"><g
           clip-path="url(#clipPath4005)"
           id="g4003"><g
             transform="translate(2422.8174,1688.1981)"
             id="g4009"><path
               inkscape:connector-curvature="0"
               id="path4011"
               style="fill:#ffffff;fill-opacity:1;fill-rule:nonzero;stroke:none"
               d="m 0,0 c -1.933,-0.537 -3.544,-2.04 -4.296,-3.866 -0.751,-1.933 -0.537,-4.082 0.537,-5.8 L 26.312,-57.135 5.585,-69.163 -25.883,-19.546 c -0.966,1.504 -2.47,2.577 -4.295,2.9 -0.43,0.107 -0.752,0.107 -1.182,0.107 -1.396,0 -2.684,-0.43 -3.866,-1.289 l -29.427,-22.016 0,112.981 L 33.938,9.451 0,0 Z m 55.739,6.229 c 0.322,2.47 -0.752,5.048 -2.9,6.336 L -67.553,90.428 c -1.933,1.289 -4.51,1.396 -6.551,0.215 -2.04,-1.181 -3.329,-3.329 -3.329,-5.692 l 0,-137.683 c 0,-2.47 1.396,-4.618 3.544,-5.799 2.148,-1.074 4.833,-0.859 6.766,0.644 l 34.152,25.561 31.253,-48.973 c 1.181,-1.934 3.329,-3.007 5.477,-3.007 1.074,0 2.255,0.322 3.222,0.859 l 31.897,18.472 c 1.504,0.859 2.577,2.363 3.007,4.081 0.429,1.718 0.107,3.544 -0.859,4.94 L 11.921,-10.095 51.228,0.967 c 2.363,0.751 4.189,2.792 4.511,5.262" /></g></g></g></g></g></svg>