<svg height="607pt" viewBox="0 0 576 607" width="576pt" xmlns="http://www.w3.org/2000/svg" xmlns:xlink="http://www.w3.org/1999/xlink"><clipPath id="a"><path d="m36 36h503.71875v535.5h-503.71875zm0 0"/></clipPath><g clip-path="url(#a)"><path d="m360 355h5037.1875v5355h-5037.1875zm0 0" fill="#fff" stroke="#fff" stroke-linejoin="round" stroke-miterlimit="10" stroke-width="10" transform="matrix(.1 0 0 -.1 0 607)"/></g><g stroke-linejoin="round" stroke-miterlimit="10" transform="matrix(.1 0 0 -.1 0 607)"><path d="m3077.695312 2772.265625c0-46.640625-70-46.640625-70 0 0 46.679687 70 46.679687 70 0" fill="#353535" stroke="#000" stroke-width="10"/><path d="m3795.78125 2824.84375c0-46.679688-70-46.679688-70 0 0 46.640625 70 46.640625 70 0" fill="#353535" stroke="#000" stroke-width="10"/><path d="m3081.289062 2775.117188c83.59375 6.09375 286.796876 20.976562 449.375 32.890624" fill="none" stroke="#6f6f6f" stroke-width="38.6"/><path d="m3528.007812 2875.507812 197.382813-53.28125-187.539063-81.445312zm0 0" fill="#6f6f6f" stroke="#6f6f6f" stroke-width="10"/><path d="m3780.46875 2928.828125c0-46.679687-70-46.679687-70 0s70 46.679687 70 0" fill="#353535" stroke="#000" stroke-width="10"/><path d="m3080.46875 2780.703125c78.4375 17.460937 264.53125 58.90625 419.960938 93.554687" fill="none" stroke="#6e6e6e" stroke-width="42.9"/><path d="m3483.4375 2953.125 227.421875-31.992188-192.304687-125.546874zm0 0" fill="#6e6e6e" stroke="#6e6e6e" stroke-width="10"/><path d="m3750.195312 3029.492188c0-46.679688-70-46.679688-70 0 0 46.640624 70 46.640624 70 0" fill="#353535" stroke="#000" stroke-width="10"/><path d="m3078.828125 2786.09375c72.304687 27.65625 240.15625 91.875 385.351563 147.382812" fill="none" stroke="#6c6c6c" stroke-width="46.2"/><path d="m3432.929688 3021.523438 249.140624-4.726563-182.421874-169.726563zm0 0" fill="#6c6c6c" stroke="#6c6c6c" stroke-width="10"/><path d="m1732.695312 3286.679688c0-46.640626-70-46.640626-70 0 0 46.679687 70 46.679687 70 0" fill="#353535" stroke="#000" stroke-width="10"/><path d="m4961.328125 3829.414062c0-46.679687-70-46.679687-70 0 0 46.679688 70 46.679688 70 0" fill="#353535" stroke="#000" stroke-width="10"/><path d="m1733.984375 3292.773438c285.859375 48.085937 2184.570313 367.226562 2910.664063 489.296874" fill="none" stroke="#686868" stroke-width="49"/><path d="m4631.328125 3886.328125 259.023437-62.96875-224.21875-144.179687zm0 0" fill="#686868" stroke="#686868" stroke-width="10"/><path d="m4576.875 4327.265625c0-46.679687-70-46.679687-70 0s70 46.679687 70 0" fill="#353535" stroke="#000" stroke-width="10"/><path d="m1733.671875 3299.84375c257.65625 94.257812 1831.992187 670.273438 2504.296875 916.25" fill="none" stroke="#3b3b3b" stroke-width="56.4"/><path d="m4194.101562 4348.203125 312.617188-33.789063-216.992188-227.578124zm0 0" fill="#3b3b3b" stroke="#3b3b3b" stroke-width="10"/><path d="m4065.351562 4693.242188c0-46.640626-70-46.640626-70 0 0 46.679687 70 46.679687 70 0" fill="#353535" stroke="#000" stroke-width="10"/><path d="m1730.664062 3306.5625c217.890626 131.40625 1458.945313 879.765625 2021.953126 1219.257812" fill="none" stroke="#3a3a3a" stroke-width="56.6"/><path d="m3683.828125 4647.96875 314.726563 26.132812-169.960938-266.171874zm0 0" fill="#3a3a3a" stroke="#3a3a3a" stroke-width="10"/><path d="m3775.117188 4816.601562c0-46.679687-70-46.679687-70 0 0 46.640626 70 46.640626 70 0" fill="#353535" stroke="#000" stroke-width="10"/><path d="m1726.5625 3308.320312c189.960938 142.304688 1268.28125 950 1764.140625 1321.445313" fill="none" stroke="#505050" stroke-width="54.2"/><path d="m3415.390625 4733.945312 293.945313 59.609376-139.84375-265.351563zm0 0" fill="#505050" stroke="#505050" stroke-width="10"/><path d="m3470.039062 4896.328125c0-46.640625-70-46.640625-70 0 0 46.679687 70 46.679687 70 0" fill="#353535" stroke="#000" stroke-width="10"/><path d="m1725 3311.992188c170.3125 157.8125 1093.671875 1013.28125 1508.28125 1397.421874" fill="none" stroke="#6a6a6a" stroke-width="47.9"/><path d="m3165.664062 4783.359375 243.398438 88.945313-107.226562-235.898438zm0 0" fill="#6a6a6a" stroke="#6a6a6a" stroke-width="10"/><path d="m3156.5625 4930.820312c0-46.640624-70-46.640624-70 0 0 46.679688 70 46.679688 70 0" fill="#353535" stroke="#000" stroke-width="10"/><path d="m1722.421875 3315.234375c141.445313 163.320313 854.179687 986.328125 1204.375 1390.664063" fill="none" stroke="#606060" stroke-width="51.5"/><path d="m2839.414062 4782.578125 256.757813 118.945313-81.015625-271.132813zm0 0" fill="#606060" stroke="#606060" stroke-width="10"/><path d="m2685.351562 4896.328125c0-46.640625-70-46.640625-70 0 0 46.679687 70 46.679687 70 0" fill="#353535" stroke="#000" stroke-width="10"/><path d="m1715.898438 3317.421875c96.015624 162.265625 548.945312 927.539063 787.148437 1330.039063" fill="none" stroke="#666" stroke-width="49.8"/><path d="m2410.195312 4703.59375 220.195313 159.023438-33.4375-269.53125zm0 0" fill="#666" stroke="#666" stroke-width="10"/><path d="m2232.890625 4760.234375c0-46.679687-70-46.679687-70 0 0 46.640625 70 46.640625 70 0" fill="#353535" stroke="#000" stroke-width="10"/><path d="m1709.101562 3320.234375c54.492188 160.507813 290.9375 857.148437 413.90625 1219.335937" fill="none" stroke="#6f6f6f" stroke-width="38.7"/><path d="m2059.882812 4563.75 125.976563 161.015625 1.953125-204.453125zm0 0" fill="#6f6f6f" stroke="#6f6f6f" stroke-width="10"/><path d="m1952.460938 4616.054688c0-46.679688-70-46.679688-70 0 0 46.640624 70 46.640624 70 0" fill="#353535" stroke="#000" stroke-width="10"/><path d="m1703.59375 3322.265625c23.632812 143.046875 113.203125 684.882813 168.671875 1020.3125" fill="none" stroke="#6a6a6a" stroke-width="47.8"/><path d="m1773.867188 4360.234375 137.578124 219.53125 59.648438-252.109375zm0 0" fill="#6a6a6a" stroke="#6a6a6a" stroke-width="10"/><path d="m1696.015625 4432.539062c0-46.640624-70-46.640624-70 0 0 46.679688 70 46.679688 70 0" fill="#353535" stroke="#000" stroke-width="10"/><path d="m1696.5625 3322.226562c-4.179688 130.742188-18.945312 591.992188-28.085938 877.226563" fill="none" stroke="#6f6f6f" stroke-width="39.3"/><path d="m1599.84375 4199.335938 62.265625 198.085937 74.84375-193.710937zm0 0" fill="#6f6f6f" stroke="#6f6f6f" stroke-width="10"/><path d="m1468.984375 4213.671875c0-46.640625-70-46.640625-70 0 0 46.679687 70 46.679687 70 0" fill="#353535" stroke="#000" stroke-width="10"/><path d="m1687.695312 3321.914062c-31.835937 111.835938-132.304687 465.039063-196.875 691.914063" fill="none" stroke="#707070" stroke-width="33.8"/><path d="m1433.359375 3999.726562 10.664063 178.710938 103.125-146.367188zm0 0" fill="#707070" stroke="#707070" stroke-width="10"/><path d="m1276.25 3964.101562c0-46.679687-70-46.679687-70 0 0 46.679688 70 46.679688 70 0" fill="#353535" stroke="#000" stroke-width="10"/><path d="m1678.085938 3315.78125c-55.78125 82.8125-218.515626 324.296875-328.789063 488.007812" fill="none" stroke="#707070" stroke-width="30.6"/><path d="m1303.4375 3775.976562-41.09375 156.796876 129.921875-96.953126zm0 0" fill="#707070" stroke="#707070" stroke-width="10"/><path d="m1121.914062 3689.101562c0-46.679687-70-46.679687-70 0 0 46.679688 70 46.679688 70 0" fill="#353535" stroke="#000" stroke-width="10"/><path d="m1668.242188 3306.09375c-79.609376 52.460938-302.890626 199.570312-448.398438 295.429688" fill="none" stroke="#707070" stroke-width="23.6"/><path d="m1193.320312 3569.53125-75.78125 99.414062 121.25-30.429687zm0 0" fill="#707070" stroke="#707070" stroke-width="10"/><path d="m1009.257812 3394.570312c0-46.679687-70-46.679687-70 0 0 46.679688 70 46.679688 70 0" fill="#353535" stroke="#000" stroke-width="10"/><path d="m1662.8125 3291.875c-92.890625 13.867188-350.78125 52.34375-523.203125 78.046875" fill="none" stroke="#707070" stroke-width="26.1"/><path d="m1132.382812 3325-121.875 64.179688 135.3125 25.820312zm0 0" fill="#707070" stroke="#707070" stroke-width="10"/><path d="m940.703125 3086.757812c0-46.640624-70-46.640624-70 0 0 46.679688 70 46.679688 70 0" fill="#353535" stroke="#000" stroke-width="10"/><path d="m1663.671875 3278.085938c-103.359375-26.09375-418.203125-105.546876-608.046875-153.476563" fill="none" stroke="#707070" stroke-width="23.1"/><path d="m1064.726562 3085.039062-122.421874 10.976563 102.539062 67.773437zm0 0" fill="#707070" stroke="#707070" stroke-width="10"/><path d="m917.695312 2772.265625c0-46.640625-70-46.640625-70 0 0 46.679687 70 46.679687 70 0" fill="#353535" stroke="#000" stroke-width="10"/><path d="m1666.757812 3267.148438c-90.78125-57.304688-362.34375-228.710938-560.507812-353.75" fill="none" stroke="#6d6d6d" stroke-width="45.4"/><path d="m1153.75 2836.71875-240.078125-44.882812 143.828125 197.421874zm0 0" fill="#6d6d6d" stroke="#6d6d6d" stroke-width="10"/><path d="m940.703125 2457.773438c0-46.679688-70-46.679688-70 0 0 46.679687 70 46.679687 70 0" fill="#353535" stroke="#000" stroke-width="10"/><path d="m1671.367188 3259.101562c-101.484376-106.171874-470.429688-492.34375-656.640626-687.226562" fill="none" stroke="#707070" stroke-width="23.6"/><path d="m1044.335938 2543.085938-111.367188-56.757813 51.640625 113.828125zm0 0" fill="#707070" stroke="#707070" stroke-width="10"/><path d="m1009.257812 2150c0-46.679688-70-46.679688-70 0 0 46.640625 70 46.640625 70 0" fill="#353535" stroke="#000" stroke-width="10"/><path d="m1678.359375 3256.289062c-86.054687-135.234374-437.304687-687.109374-608.867187-956.679687" fill="none" stroke="#707070" stroke-width="27.7"/><path d="m1109.6875 2272.148438-115.664062-91.132813 33.59375 143.398437zm0 0" fill="#707070" stroke="#707070" stroke-width="10"/><path d="m1121.914062 1855.46875c0-46.679688-70-46.679688-70 0 0 46.640625 70 46.640625 70 0" fill="#353535" stroke="#000" stroke-width="10"/><path d="m1683.789062 3254.101562c-66.523437-155.898437-355.273437-832.539062-505.429687-1184.335937" fill="none" stroke="#6f6f6f" stroke-width="38.8"/><path d="m1240.195312 2041.640625-138.59375-151.757813 13.710938 205.078126zm0 0" fill="#6f6f6f" stroke="#6f6f6f" stroke-width="10"/><path d="m1276.25 1580.46875c0-46.679688-70-46.679688-70 0 0 46.640625 70 46.640625 70 0" fill="#353535" stroke="#000" stroke-width="10"/><path d="m1688.164062 3251.054688c-50.234374-187.773438-285.976562-1069.023438-393.359374-1470.46875" fill="none" stroke="#707070" stroke-width="33.6"/><path d="m1350.9375 1763.007812-100.195312-147.109374-13.398438 177.5zm0 0" fill="#707070" stroke="#707070" stroke-width="10"/><path d="m1468.984375 1330.859375c0-46.640625-70-46.640625-70 0 0 46.679687 70 46.679687 70 0" fill="#353535" stroke="#000" stroke-width="10"/><path d="m1692.65625 3249.375c-28.359375-210.546875-169.375-1256.289062-230.429688-1708.984375" fill="none" stroke="#707070" stroke-width="34.3"/><path d="m1521.25 1530.039062-82.1875-161.445312-36.445312 177.460938zm0 0" fill="#707070" stroke="#707070" stroke-width="10"/><path d="m1696.015625 1111.992188c0-46.640626-70-46.640626-70 0 0 46.679687 70 46.679687 70 0" fill="#353535" stroke="#000" stroke-width="10"/><path d="m1697.070312 3248.945312c-3.75-223.164062-23.242187-1377.460937-31.914062-1890.585937" fill="none" stroke="#6f6f6f" stroke-width="41.9"/><path d="m1741.71875 1355.117188-80.117188-207.695313-73.085937 210.273437zm0 0" fill="#6f6f6f" stroke="#6f6f6f" stroke-width="10"/><path d="m1952.460938 928.515625c0-46.679687-70-46.679687-70 0s70 46.679687 70 0" fill="#353535" stroke="#000" stroke-width="10"/><path d="m1701.171875 3249.648438c23.046875-247.382813 155.15625-1665.234376 200.78125-2154.882813" fill="none" stroke="#707070" stroke-width="25.9"/><path d="m1947.421875 1097.382812-33.242187-133.632812-57.382813 125.195312zm0 0" fill="#707070" stroke="#707070" stroke-width="10"/><path d="m2232.890625 784.335938c0-46.679688-70-46.679688-70 0 0 46.679687 70 46.679687 70 0" fill="#353535" stroke="#000" stroke-width="10"/><path d="m1704.765625 3251.328125c50.898437-254.648437 362.265625-1812.226563 462.265625-2312.460937" fill="none" stroke="#707070" stroke-width="23.5"/><path d="m2207.734375 945.820312-17.34375-123.789062-63.632813 107.617188zm0 0" fill="#707070" stroke="#707070" stroke-width="10"/><path d="m2531.367188 682.5c0-46.640625-70-46.640625-70 0 0 46.679688 70 46.679688 70 0" fill="#353535" stroke="#000" stroke-width="10"/><path d="m1708.984375 3249.882812c80.234375-261.5625 565.507813-1843.90625 731.640625-2385.625" fill="none" stroke="#707070" stroke-width="30"/><path d="m2491.679688 876.796875-6.210938-158.789063-94.179688 128.007813zm0 0" fill="#707070" stroke="#707070" stroke-width="10"/><path d="m2841.445312 625.234375c0-46.679687-70-46.679687-70 0s70 46.679687 70 0" fill="#353535" stroke="#000" stroke-width="10"/><path d="m1711.71875 3253.046875c109.0625-261.835937 823.320312-1976.328125 1035.429688-2485.46875" fill="none" stroke="#707070" stroke-width="23.1"/><path d="m2785.625 780.820312 7.109375-122.695312-82.070313 91.484375zm0 0" fill="#707070" stroke="#707070" stroke-width="10"/><path d="m3156.5625 613.710938c0-46.640626-70-46.640626-70 0 0 46.679687 70 46.679687 70 0" fill="#353535" stroke="#000" stroke-width="10"/><path d="m1715.703125 3252.890625c138.28125-259.570313 1033.945313-1940.9375 1318.945313-2475.976563" fill="none" stroke="#707070" stroke-width="29.1"/><path d="m3080.429688 799.648438 23.554687-152.890626-113.75 104.84375zm0 0" fill="#707070" stroke="#707070" stroke-width="10"/><path d="m3470.039062 648.203125c0-46.679687-70-46.679687-70 0s70 46.679687 70 0" fill="#353535" stroke="#000" stroke-width="10"/><path d="m1717.226562 3257.070312c160.78125-244.21875 1269.765626-1928.398437 1615.273438-2453.125" fill="none" stroke="#707070" stroke-width="29.7"/><path d="m3377.539062 829.726562 38.125-152.109374-124.648437 95.117187zm0 0" fill="#707070" stroke="#707070" stroke-width="10"/><path d="m3775.117188 727.96875c0-46.679688-70-46.679688-70 0s70 46.679688 70 0" fill="#353535" stroke="#000" stroke-width="10"/><path d="m1720.664062 3257.96875c191.445313-239.921875 1526.757813-1912.773438 1914.257813-2398.242188" fill="none" stroke="#707070" stroke-width="25.7"/><path d="m3672.148438 885.46875 45.195312-128.984375-115.742188 72.65625zm0 0" fill="#707070" stroke="#707070" stroke-width="10"/><path d="m5357.1875 4532.460938c0-46.679688-70-46.679688-70 0 0 46.679687 70 46.679687 70 0" fill="#353535" stroke="#000" stroke-width="10"/><path d="m4579.53125 4337.148438c88.671875 23.320312 316.757812 83.320312 496.953125 130.703124" fill="none" stroke="#6e6e6e" stroke-width="43"/><path d="m5058.242188 4546.679688 228.515624-23.554688-187.382812-132.890625zm0 0" fill="#6e6e6e" stroke="#6e6e6e" stroke-width="10"/><path d="m5076.640625 4845.585938c0-46.640626-70-46.640626-70 0 0 46.679687 70 46.679687 70 0" fill="#353535" stroke="#000" stroke-width="10"/><path d="m4568.75 4355.117188c60.898438 63.164062 213.085938 221.054687 328.515625 340.742187" fill="none" stroke="#707070" stroke-width="33.4"/><path d="m4859.023438 4740.429688 158.007812 79.648437-73.867188-160.78125zm0 0" fill="#707070" stroke="#707070" stroke-width="10"/><path d="m4753.4375 5114.570312c0-46.679687-70-46.679687-70 0 0 46.640626 70 46.640626 70 0" fill="#353535" stroke="#000" stroke-width="10"/><path d="m4550.390625 4365.234375c22.539063 100.429687 84.84375 378.242187 126.914063 565.859375" fill="none" stroke="#707070" stroke-width="30.1"/><path d="m4625.820312 4943.007812 84.609376 135.78125 18.515624-158.90625zm0 0" fill="#707070" stroke="#707070" stroke-width="10"/><path d="m4007.578125 5498.007812c0-46.640624-70-46.640624-70 0 0 46.679688 70 46.679688 70 0" fill="#353535" stroke="#000" stroke-width="10"/><path d="m3752.617188 4853.242188c21.328124 62.5 66.71875 195.546874 110.742187 324.648437" fill="none" stroke="#323232" stroke-width="59.9"/><path d="m3715.46875 5231.289062 245.664062 233.164063 51.953126-334.6875zm0 0" fill="#323232" stroke="#323232" stroke-width="10"/><path d="m2762.695312 5635c0-46.679688-70-46.679688-70 0s70 46.679688 70 0" fill="#353535" stroke="#000" stroke-width="10"/><path d="m2654.101562 4931.992188c7.148438 68.554687 23.554688 225.234374 39.0625 373.28125" fill="none" stroke="#323232" stroke-width="58.3"/><path d="m2545.273438 5323.085938 178.554687 274.921874 117.734375-305.9375zm0 0" fill="#323232" stroke="#323232" stroke-width="10"/><path d="m2349.257812 5558.632812c0-46.679687-70-46.679687-70 0 0 46.679688 70 46.679688 70 0" fill="#353535" stroke="#000" stroke-width="10"/><path d="m2634.140625 4928.28125c-30.742187 60.625-100.46875 198.007812-166.992187 329.0625" fill="none" stroke="#323232" stroke-width="60"/><path d="m2326.40625 5186.640625 4.6875 338.789063 276.210938-196.210938zm0 0" fill="#323232" stroke="#323232" stroke-width="10"/><path d="m1577.382812 5230.625c0-46.679688-70-46.679688-70 0s70 46.679688 70 0" fill="#353535" stroke="#000" stroke-width="10"/><path d="m1897.304688 4649.0625c-34.414063 56.40625-107.65625 176.40625-178.710938 292.851562" fill="none" stroke="#323232" stroke-width="60"/><path d="m1582.695312 4862.226562-21.835937 338.125 290.703125-174.023437zm0 0" fill="#323232" stroke="#323232" stroke-width="10"/><path d="m470 1549.84375c0-46.679688-70-46.679688-70 0s70 46.679688 70 0" fill="#353535" stroke="#000" stroke-width="10"/><path d="m1051.875 1839.023438c-60.703125-28.476563-190.9375-89.492188-316.171875-148.203126" fill="none" stroke="#323232" stroke-width="59.1"/><path d="m798.984375 1551.992188-331.875 12.890624 202.34375 263.359376zm0 0" fill="#323232" stroke="#323232" stroke-width="10"/><path d="m3915.585938 1601.132812c0-46.640624-70-46.640624-70 0 0 46.679688 70 46.679688 70 0" fill="#353535" stroke="#000" stroke-width="10"/><path d="m4065.351562 851.289062c0-46.640624-70-46.640624-70 0 0 46.679688 70 46.679688 70 0" fill="#353535" stroke="#000" stroke-width="10"/><path d="m3887.773438 1564.960938c16.09375-80.46875 56.015624-280.429688 89.570312-448.320313" fill="none" stroke="#6c6c6c" stroke-width="46.4"/><path d="m4069.765625 1134.804688-46.953125-245.9375-137.773438 209.0625zm0 0" fill="#6c6c6c" stroke="#6c6c6c" stroke-width="10"/><path d="m4334.492188 1015.585938c0-46.679688-70-46.679688-70 0 0 46.640624 70 46.640624 70 0" fill="#353535" stroke="#000" stroke-width="10"/><path d="m3903.085938 1569.648438c47.617187-66.523438 161.796874-226.132813 255.429687-357.03125" fill="none" stroke="#6f6f6f" stroke-width="41"/><path d="m4219.414062 1253.945312 59.453126-209.53125-179.101563 123.945313zm0 0" fill="#6f6f6f" stroke="#6f6f6f" stroke-width="10"/><path d="m4576.875 1217.304688c0-46.679688-70-46.679688-70 0 0 46.640624 70 46.640624 70 0" fill="#353535" stroke="#000" stroke-width="10"/><path d="m3912.460938 1582.617188c85.351562-49.53125 323.085937-187.539063 480.742187-279.023438" fill="none" stroke="#707070" stroke-width="26.2"/><path d="m4418.476562 1341.953125 90.273438-105.429687-136.289062 26.09375zm0 0" fill="#707070" stroke="#707070" stroke-width="10"/><path d="m4753.4375 430c0-46.679688-70-46.679688-70 0s70 46.679688 70 0" fill="#353535" stroke="#000" stroke-width="10"/><path d="m4322.03125 984.101562c39.570312-55.351562 125.15625-174.960937 206.71875-288.945312" fill="none" stroke="#323232" stroke-width="58"/><path d="m4648.75 780.3125 49.0625-321.484375-288.4375 150.234375zm0 0" fill="#323232" stroke="#323232" stroke-width="10"/><path d="m2449.921875 2615.742188c0-60.78125-49.257813-110-110-110s-110 49.21875-110 110c0 60.742187 49.257813 110 110 110s110-49.257813 110-110" stroke="#000" stroke-width="10"/><path d="m2449.726562 2640.195312c78.515626 17.5 188.28125 41.953126 292.03125 65.039063" fill="none" stroke="#4e4e4e" stroke-width="54.4"/><path d="m2714.179688 2831.757812 293.671874-67.226562-237.34375-185.546875zm0 0" fill="#4e4e4e" stroke="#4e4e4e" stroke-width="10"/><path d="m2263.710938 2695.3125c-82.421876 86.132812-217.8125 227.617188-335.546876 350.585938" fill="none" stroke="#323232" stroke-width="58.3"/><path d="m1818.632812 2944.921875-94.296874 313.945313 309.53125-107.929688zm0 0" fill="#323232" stroke="#323232" stroke-width="10"/><path d="m2436.289062 2552.265625c229.648438-151.25 816.09375-537.421875 1167.03125-768.554687" fill="none" stroke="#323232" stroke-width="58.2"/><path d="m3686.757812 1906.210938 161.523438-283.789063-324.53125 36.25zm0 0" fill="#323232" stroke="#323232" stroke-width="10"/><path d="m4217.460938 1892.1875c0-46.679688-70-46.679688-70 0s70 46.679688 70 0" fill="#353535" stroke="#000" stroke-width="10"/><path d="m2444.257812 2574.765625c310.46875-121.914063 1229.101563-482.65625 1590.117188-624.453125" fill="none" stroke="#707070" stroke-width="24.3"/><path d="m4051.640625 1989.0625 97.148437-83.671875-128.085937 4.804687zm0 0" fill="#707070" stroke="#707070" stroke-width="10"/><path d="m4333.4375 2067.5c0-46.640625-70-46.640625-70 0 0 46.679688 70 46.679688 70 0" fill="#353535" stroke="#000" stroke-width="10"/><path d="m2448.007812 2585.46875c292.890626-81.992188 1109.453126-310.546875 1553.59375-434.882812" fill="none" stroke="#545454" stroke-width="53.7"/><path d="m4037.539062 2271.796875 224.960938-194.21875-293.085938-49.21875zm0 0" fill="#545454" stroke="#545454" stroke-width="10"/><path d="m4422.65625 2257.851562c0-46.640624-70-46.640624-70 0 0 46.679688 70 46.679688 70 0" fill="#353535" stroke="#000" stroke-width="10"/><path d="m2450 2596.484375c303.203125-52.96875 1158.75-202.5 1625.078125-283.984375" fill="none" stroke="#3e3e3e" stroke-width="56.2"/><path d="m4099.921875 2448.4375 253.007813-184.492188-300.585938-87.773437zm0 0" fill="#3e3e3e" stroke="#3e3e3e" stroke-width="10"/><path d="m4483.242188 2459.179688c0-46.679688-70-46.679688-70 0 0 46.679687 70 46.679687 70 0" fill="#353535" stroke="#000" stroke-width="10"/><path d="m2450.3125 2607.539062c310-23.007812 1197.226562-88.90625 1678.398438-124.648437" fill="none" stroke="#3e3e3e" stroke-width="56.2"/><path d="m4142.304688 2620.46875 270-158.632812-290.429688-116.992188zm0 0" fill="#3e3e3e" stroke="#3e3e3e" stroke-width="10"/><path d="m4513.867188 2667.148438c0-46.640626-70-46.640626-70 0 0 46.679687 70 46.679687 70 0" fill="#353535" stroke="#000" stroke-width="10"/><path d="m2451.914062 2618.4375c318.398438 7.65625 1237.070313 29.726562 1720.78125 41.367188" fill="none" stroke="#535353" stroke-width="53.8"/><path d="m4170.429688 2786.40625 271.992187-120.117188-265.898437-133.046874zm0 0" fill="#535353" stroke="#535353" stroke-width="10"/><path d="m5186.015625 2302.617188c0-46.640626-70-46.640626-70 0 0 46.679687 70 46.679687 70 0" fill="#353535" stroke="#000" stroke-width="10"/><path d="m4486.015625 2450.742188c68.789063-15.3125 220.46875-49.101563 361.601563-80.546876" fill="none" stroke="#4c4c4c" stroke-width="54.6"/><path d="m4878.28125 2496.992188 238.125-186.640626-294.84375-67.96875zm0 0" fill="#4c4c4c" stroke="#4c4c4c" stroke-width="10"/><path d="m5231.914062 2614.609375c0-46.679687-70-46.679687-70 0s70 46.679687 70 0" fill="#353535" stroke="#000" stroke-width="10"/><path d="m4517.460938 2664.335938c68.828124-5.039063 218.789062-16.015626 360.390624-26.367188" fill="none" stroke="#393939" stroke-width="56.7"/><path d="m4888.59375 2778.4375 272.96875-161.25-293.515625-119.765625zm0 0" fill="#393939" stroke="#393939" stroke-width="10"/></g></svg>