<?xml version="1.0" encoding="UTF-8"?>
<svg xmlns="http://www.w3.org/2000/svg" xmlns:xlink="http://www.w3.org/1999/xlink" width="576pt" height="607pt" viewBox="0 0 576 607" version="1.1">
<defs>
<clipPath id="clip1">
  <path d="M 36 36 L 539.71875 36 L 539.71875 571.5 L 36 571.5 Z M 36 36 "/>
</clipPath>
</defs>
<g id="surface1">
<g clip-path="url(#clip1)" clip-rule="nonzero">
<path style="fill-rule:nonzero;fill:rgb(100%,100%,100%);fill-opacity:1;stroke-width:10;stroke-linecap:butt;stroke-linejoin:round;stroke:rgb(100%,100%,100%);stroke-opacity:1;stroke-miterlimit:10;" d="M 360 355 L 5397.1875 355 L 5397.1875 5710 L 360 5710 Z M 360 355 " transform="matrix(0.1,0,0,-0.1,0,607)"/>
</g>
<path style="fill-rule:nonzero;fill:rgb(20.799255%,20.799255%,20.799255%);fill-opacity:1;stroke-width:10;stroke-linecap:butt;stroke-linejoin:round;stroke:rgb(0%,0%,0%);stroke-opacity:1;stroke-miterlimit:10;" d="M 3077.695312 2772.265625 C 3077.695312 2725.625 3007.695312 2725.625 3007.695312 2772.265625 C 3007.695312 2818.945312 3077.695312 2818.945312 3077.695312 2772.265625 " transform="matrix(0.1,0,0,-0.1,0,607)"/>
<path style="fill-rule:nonzero;fill:rgb(20.799255%,20.799255%,20.799255%);fill-opacity:1;stroke-width:10;stroke-linecap:butt;stroke-linejoin:round;stroke:rgb(0%,0%,0%);stroke-opacity:1;stroke-miterlimit:10;" d="M 3795.78125 2824.84375 C 3795.78125 2778.164062 3725.78125 2778.164062 3725.78125 2824.84375 C 3725.78125 2871.484375 3795.78125 2871.484375 3795.78125 2824.84375 " transform="matrix(0.1,0,0,-0.1,0,607)"/>
<path style="fill:none;stroke-width:38.6;stroke-linecap:butt;stroke-linejoin:round;stroke:rgb(43.499756%,43.499756%,43.499756%);stroke-opacity:1;stroke-miterlimit:10;" d="M 3081.289062 2775.117188 C 3164.882812 2781.210938 3368.085938 2796.09375 3530.664062 2808.007812 " transform="matrix(0.1,0,0,-0.1,0,607)"/>
<path style="fill-rule:nonzero;fill:rgb(43.499756%,43.499756%,43.499756%);fill-opacity:1;stroke-width:10;stroke-linecap:butt;stroke-linejoin:round;stroke:rgb(43.499756%,43.499756%,43.499756%);stroke-opacity:1;stroke-miterlimit:10;" d="M 3528.007812 2875.507812 L 3725.390625 2822.226562 L 3537.851562 2740.78125 Z M 3528.007812 2875.507812 " transform="matrix(0.1,0,0,-0.1,0,607)"/>
<path style="fill-rule:nonzero;fill:rgb(20.799255%,20.799255%,20.799255%);fill-opacity:1;stroke-width:10;stroke-linecap:butt;stroke-linejoin:round;stroke:rgb(0%,0%,0%);stroke-opacity:1;stroke-miterlimit:10;" d="M 3780.46875 2928.828125 C 3780.46875 2882.148438 3710.46875 2882.148438 3710.46875 2928.828125 C 3710.46875 2975.507812 3780.46875 2975.507812 3780.46875 2928.828125 " transform="matrix(0.1,0,0,-0.1,0,607)"/>
<path style="fill:none;stroke-width:42.9;stroke-linecap:butt;stroke-linejoin:round;stroke:rgb(43.099976%,43.099976%,43.099976%);stroke-opacity:1;stroke-miterlimit:10;" d="M 3080.46875 2780.703125 C 3158.90625 2798.164062 3345 2839.609375 3500.429688 2874.257812 " transform="matrix(0.1,0,0,-0.1,0,607)"/>
<path style="fill-rule:nonzero;fill:rgb(43.099976%,43.099976%,43.099976%);fill-opacity:1;stroke-width:10;stroke-linecap:butt;stroke-linejoin:round;stroke:rgb(43.099976%,43.099976%,43.099976%);stroke-opacity:1;stroke-miterlimit:10;" d="M 3483.4375 2953.125 L 3710.859375 2921.132812 L 3518.554688 2795.585938 Z M 3483.4375 2953.125 " transform="matrix(0.1,0,0,-0.1,0,607)"/>
<path style="fill-rule:nonzero;fill:rgb(20.799255%,20.799255%,20.799255%);fill-opacity:1;stroke-width:10;stroke-linecap:butt;stroke-linejoin:round;stroke:rgb(0%,0%,0%);stroke-opacity:1;stroke-miterlimit:10;" d="M 3750.195312 3029.492188 C 3750.195312 2982.8125 3680.195312 2982.8125 3680.195312 3029.492188 C 3680.195312 3076.132812 3750.195312 3076.132812 3750.195312 3029.492188 " transform="matrix(0.1,0,0,-0.1,0,607)"/>
<path style="fill:none;stroke-width:46.2;stroke-linecap:butt;stroke-linejoin:round;stroke:rgb(42.399597%,42.399597%,42.399597%);stroke-opacity:1;stroke-miterlimit:10;" d="M 3078.828125 2786.09375 C 3151.132812 2813.75 3318.984375 2877.96875 3464.179688 2933.476562 " transform="matrix(0.1,0,0,-0.1,0,607)"/>
<path style="fill-rule:nonzero;fill:rgb(42.399597%,42.399597%,42.399597%);fill-opacity:1;stroke-width:10;stroke-linecap:butt;stroke-linejoin:round;stroke:rgb(42.399597%,42.399597%,42.399597%);stroke-opacity:1;stroke-miterlimit:10;" d="M 3432.929688 3021.523438 L 3682.070312 3016.796875 L 3499.648438 2847.070312 Z M 3432.929688 3021.523438 " transform="matrix(0.1,0,0,-0.1,0,607)"/>
<path style="fill-rule:nonzero;fill:rgb(20.799255%,20.799255%,20.799255%);fill-opacity:1;stroke-width:10;stroke-linecap:butt;stroke-linejoin:round;stroke:rgb(0%,0%,0%);stroke-opacity:1;stroke-miterlimit:10;" d="M 1732.695312 3286.679688 C 1732.695312 3240.039062 1662.695312 3240.039062 1662.695312 3286.679688 C 1662.695312 3333.359375 1732.695312 3333.359375 1732.695312 3286.679688 " transform="matrix(0.1,0,0,-0.1,0,607)"/>
<path style="fill-rule:nonzero;fill:rgb(20.799255%,20.799255%,20.799255%);fill-opacity:1;stroke-width:10;stroke-linecap:butt;stroke-linejoin:round;stroke:rgb(0%,0%,0%);stroke-opacity:1;stroke-miterlimit:10;" d="M 4961.328125 3829.414062 C 4961.328125 3782.734375 4891.328125 3782.734375 4891.328125 3829.414062 C 4891.328125 3876.09375 4961.328125 3876.09375 4961.328125 3829.414062 " transform="matrix(0.1,0,0,-0.1,0,607)"/>
<path style="fill:none;stroke-width:49;stroke-linecap:butt;stroke-linejoin:round;stroke:rgb(40.79895%,40.79895%,40.79895%);stroke-opacity:1;stroke-miterlimit:10;" d="M 1733.984375 3292.773438 C 2019.84375 3340.859375 3918.554688 3660 4644.648438 3782.070312 " transform="matrix(0.1,0,0,-0.1,0,607)"/>
<path style="fill-rule:nonzero;fill:rgb(40.79895%,40.79895%,40.79895%);fill-opacity:1;stroke-width:10;stroke-linecap:butt;stroke-linejoin:round;stroke:rgb(40.79895%,40.79895%,40.79895%);stroke-opacity:1;stroke-miterlimit:10;" d="M 4631.328125 3886.328125 L 4890.351562 3823.359375 L 4666.132812 3679.179688 Z M 4631.328125 3886.328125 " transform="matrix(0.1,0,0,-0.1,0,607)"/>
<path style="fill-rule:nonzero;fill:rgb(20.799255%,20.799255%,20.799255%);fill-opacity:1;stroke-width:10;stroke-linecap:butt;stroke-linejoin:round;stroke:rgb(0%,0%,0%);stroke-opacity:1;stroke-miterlimit:10;" d="M 4576.875 4327.265625 C 4576.875 4280.585938 4506.875 4280.585938 4506.875 4327.265625 C 4506.875 4373.945312 4576.875 4373.945312 4576.875 4327.265625 " transform="matrix(0.1,0,0,-0.1,0,607)"/>
<path style="fill:none;stroke-width:56.4;stroke-linecap:butt;stroke-linejoin:round;stroke:rgb(23.098755%,23.098755%,23.098755%);stroke-opacity:1;stroke-miterlimit:10;" d="M 1733.671875 3299.84375 C 1991.328125 3394.101562 3565.664062 3970.117188 4237.96875 4216.09375 " transform="matrix(0.1,0,0,-0.1,0,607)"/>
<path style="fill-rule:nonzero;fill:rgb(23.098755%,23.098755%,23.098755%);fill-opacity:1;stroke-width:10;stroke-linecap:butt;stroke-linejoin:round;stroke:rgb(23.098755%,23.098755%,23.098755%);stroke-opacity:1;stroke-miterlimit:10;" d="M 4194.101562 4348.203125 L 4506.71875 4314.414062 L 4289.726562 4086.835938 Z M 4194.101562 4348.203125 " transform="matrix(0.1,0,0,-0.1,0,607)"/>
<path style="fill-rule:nonzero;fill:rgb(20.799255%,20.799255%,20.799255%);fill-opacity:1;stroke-width:10;stroke-linecap:butt;stroke-linejoin:round;stroke:rgb(0%,0%,0%);stroke-opacity:1;stroke-miterlimit:10;" d="M 4065.351562 4693.242188 C 4065.351562 4646.601562 3995.351562 4646.601562 3995.351562 4693.242188 C 3995.351562 4739.921875 4065.351562 4739.921875 4065.351562 4693.242188 " transform="matrix(0.1,0,0,-0.1,0,607)"/>
<path style="fill:none;stroke-width:56.6;stroke-linecap:butt;stroke-linejoin:round;stroke:rgb(22.698975%,22.698975%,22.698975%);stroke-opacity:1;stroke-miterlimit:10;" d="M 1730.664062 3306.5625 C 1948.554688 3437.96875 3189.609375 4186.328125 3752.617188 4525.820312 " transform="matrix(0.1,0,0,-0.1,0,607)"/>
<path style="fill-rule:nonzero;fill:rgb(22.698975%,22.698975%,22.698975%);fill-opacity:1;stroke-width:10;stroke-linecap:butt;stroke-linejoin:round;stroke:rgb(22.698975%,22.698975%,22.698975%);stroke-opacity:1;stroke-miterlimit:10;" d="M 3683.828125 4647.96875 L 3998.554688 4674.101562 L 3828.59375 4407.929688 Z M 3683.828125 4647.96875 " transform="matrix(0.1,0,0,-0.1,0,607)"/>
<path style="fill-rule:nonzero;fill:rgb(20.799255%,20.799255%,20.799255%);fill-opacity:1;stroke-width:10;stroke-linecap:butt;stroke-linejoin:round;stroke:rgb(0%,0%,0%);stroke-opacity:1;stroke-miterlimit:10;" d="M 3775.117188 4816.601562 C 3775.117188 4769.921875 3705.117188 4769.921875 3705.117188 4816.601562 C 3705.117188 4863.242188 3775.117188 4863.242188 3775.117188 4816.601562 " transform="matrix(0.1,0,0,-0.1,0,607)"/>
<path style="fill:none;stroke-width:54.2;stroke-linecap:butt;stroke-linejoin:round;stroke:rgb(31.399536%,31.399536%,31.399536%);stroke-opacity:1;stroke-miterlimit:10;" d="M 1726.5625 3308.320312 C 1916.523438 3450.625 2994.84375 4258.320312 3490.703125 4629.765625 " transform="matrix(0.1,0,0,-0.1,0,607)"/>
<path style="fill-rule:nonzero;fill:rgb(31.399536%,31.399536%,31.399536%);fill-opacity:1;stroke-width:10;stroke-linecap:butt;stroke-linejoin:round;stroke:rgb(31.399536%,31.399536%,31.399536%);stroke-opacity:1;stroke-miterlimit:10;" d="M 3415.390625 4733.945312 L 3709.335938 4793.554688 L 3569.492188 4528.203125 Z M 3415.390625 4733.945312 " transform="matrix(0.1,0,0,-0.1,0,607)"/>
<path style="fill-rule:nonzero;fill:rgb(20.799255%,20.799255%,20.799255%);fill-opacity:1;stroke-width:10;stroke-linecap:butt;stroke-linejoin:round;stroke:rgb(0%,0%,0%);stroke-opacity:1;stroke-miterlimit:10;" d="M 3470.039062 4896.328125 C 3470.039062 4849.6875 3400.039062 4849.6875 3400.039062 4896.328125 C 3400.039062 4943.007812 3470.039062 4943.007812 3470.039062 4896.328125 " transform="matrix(0.1,0,0,-0.1,0,607)"/>
<path style="fill:none;stroke-width:47.9;stroke-linecap:butt;stroke-linejoin:round;stroke:rgb(41.598511%,41.598511%,41.598511%);stroke-opacity:1;stroke-miterlimit:10;" d="M 1725 3311.992188 C 1895.3125 3469.804688 2818.671875 4325.273438 3233.28125 4709.414062 " transform="matrix(0.1,0,0,-0.1,0,607)"/>
<path style="fill-rule:nonzero;fill:rgb(41.598511%,41.598511%,41.598511%);fill-opacity:1;stroke-width:10;stroke-linecap:butt;stroke-linejoin:round;stroke:rgb(41.598511%,41.598511%,41.598511%);stroke-opacity:1;stroke-miterlimit:10;" d="M 3165.664062 4783.359375 L 3409.0625 4872.304688 L 3301.835938 4636.40625 Z M 3165.664062 4783.359375 " transform="matrix(0.1,0,0,-0.1,0,607)"/>
<path style="fill-rule:nonzero;fill:rgb(20.799255%,20.799255%,20.799255%);fill-opacity:1;stroke-width:10;stroke-linecap:butt;stroke-linejoin:round;stroke:rgb(0%,0%,0%);stroke-opacity:1;stroke-miterlimit:10;" d="M 3156.5625 4930.820312 C 3156.5625 4884.179688 3086.5625 4884.179688 3086.5625 4930.820312 C 3086.5625 4977.5 3156.5625 4977.5 3156.5625 4930.820312 " transform="matrix(0.1,0,0,-0.1,0,607)"/>
<path style="fill:none;stroke-width:51.5;stroke-linecap:butt;stroke-linejoin:round;stroke:rgb(37.599182%,37.599182%,37.599182%);stroke-opacity:1;stroke-miterlimit:10;" d="M 1722.421875 3315.234375 C 1863.867188 3478.554688 2576.601562 4301.5625 2926.796875 4705.898438 " transform="matrix(0.1,0,0,-0.1,0,607)"/>
<path style="fill-rule:nonzero;fill:rgb(37.599182%,37.599182%,37.599182%);fill-opacity:1;stroke-width:10;stroke-linecap:butt;stroke-linejoin:round;stroke:rgb(37.599182%,37.599182%,37.599182%);stroke-opacity:1;stroke-miterlimit:10;" d="M 2839.414062 4782.578125 L 3096.171875 4901.523438 L 3015.15625 4630.390625 Z M 2839.414062 4782.578125 " transform="matrix(0.1,0,0,-0.1,0,607)"/>
<path style="fill-rule:nonzero;fill:rgb(20.799255%,20.799255%,20.799255%);fill-opacity:1;stroke-width:10;stroke-linecap:butt;stroke-linejoin:round;stroke:rgb(0%,0%,0%);stroke-opacity:1;stroke-miterlimit:10;" d="M 2685.351562 4896.328125 C 2685.351562 4849.6875 2615.351562 4849.6875 2615.351562 4896.328125 C 2615.351562 4943.007812 2685.351562 4943.007812 2685.351562 4896.328125 " transform="matrix(0.1,0,0,-0.1,0,607)"/>
<path style="fill:none;stroke-width:49.8;stroke-linecap:butt;stroke-linejoin:round;stroke:rgb(39.99939%,39.99939%,39.99939%);stroke-opacity:1;stroke-miterlimit:10;" d="M 1715.898438 3317.421875 C 1811.914062 3479.6875 2264.84375 4244.960938 2503.046875 4647.460938 " transform="matrix(0.1,0,0,-0.1,0,607)"/>
<path style="fill-rule:nonzero;fill:rgb(39.99939%,39.99939%,39.99939%);fill-opacity:1;stroke-width:10;stroke-linecap:butt;stroke-linejoin:round;stroke:rgb(39.99939%,39.99939%,39.99939%);stroke-opacity:1;stroke-miterlimit:10;" d="M 2410.195312 4703.59375 L 2630.390625 4862.617188 L 2596.953125 4593.085938 Z M 2410.195312 4703.59375 " transform="matrix(0.1,0,0,-0.1,0,607)"/>
<path style="fill-rule:nonzero;fill:rgb(20.799255%,20.799255%,20.799255%);fill-opacity:1;stroke-width:10;stroke-linecap:butt;stroke-linejoin:round;stroke:rgb(0%,0%,0%);stroke-opacity:1;stroke-miterlimit:10;" d="M 2232.890625 4760.234375 C 2232.890625 4713.554688 2162.890625 4713.554688 2162.890625 4760.234375 C 2162.890625 4806.875 2232.890625 4806.875 2232.890625 4760.234375 " transform="matrix(0.1,0,0,-0.1,0,607)"/>
<path style="fill:none;stroke-width:38.7;stroke-linecap:butt;stroke-linejoin:round;stroke:rgb(43.499756%,43.499756%,43.499756%);stroke-opacity:1;stroke-miterlimit:10;" d="M 1709.101562 3320.234375 C 1763.59375 3480.742188 2000.039062 4177.382812 2123.007812 4539.570312 " transform="matrix(0.1,0,0,-0.1,0,607)"/>
<path style="fill-rule:nonzero;fill:rgb(43.499756%,43.499756%,43.499756%);fill-opacity:1;stroke-width:10;stroke-linecap:butt;stroke-linejoin:round;stroke:rgb(43.499756%,43.499756%,43.499756%);stroke-opacity:1;stroke-miterlimit:10;" d="M 2059.882812 4563.75 L 2185.859375 4724.765625 L 2187.8125 4520.3125 Z M 2059.882812 4563.75 " transform="matrix(0.1,0,0,-0.1,0,607)"/>
<path style="fill-rule:nonzero;fill:rgb(20.799255%,20.799255%,20.799255%);fill-opacity:1;stroke-width:10;stroke-linecap:butt;stroke-linejoin:round;stroke:rgb(0%,0%,0%);stroke-opacity:1;stroke-miterlimit:10;" d="M 1952.460938 4616.054688 C 1952.460938 4569.375 1882.460938 4569.375 1882.460938 4616.054688 C 1882.460938 4662.695312 1952.460938 4662.695312 1952.460938 4616.054688 " transform="matrix(0.1,0,0,-0.1,0,607)"/>
<path style="fill:none;stroke-width:47.8;stroke-linecap:butt;stroke-linejoin:round;stroke:rgb(41.598511%,41.598511%,41.598511%);stroke-opacity:1;stroke-miterlimit:10;" d="M 1703.59375 3322.265625 C 1727.226562 3465.3125 1816.796875 4007.148438 1872.265625 4342.578125 " transform="matrix(0.1,0,0,-0.1,0,607)"/>
<path style="fill-rule:nonzero;fill:rgb(41.598511%,41.598511%,41.598511%);fill-opacity:1;stroke-width:10;stroke-linecap:butt;stroke-linejoin:round;stroke:rgb(41.598511%,41.598511%,41.598511%);stroke-opacity:1;stroke-miterlimit:10;" d="M 1773.867188 4360.234375 L 1911.445312 4579.765625 L 1971.09375 4327.65625 Z M 1773.867188 4360.234375 " transform="matrix(0.1,0,0,-0.1,0,607)"/>
<path style="fill-rule:nonzero;fill:rgb(20.799255%,20.799255%,20.799255%);fill-opacity:1;stroke-width:10;stroke-linecap:butt;stroke-linejoin:round;stroke:rgb(0%,0%,0%);stroke-opacity:1;stroke-miterlimit:10;" d="M 1696.015625 4432.539062 C 1696.015625 4385.898438 1626.015625 4385.898438 1626.015625 4432.539062 C 1626.015625 4479.21875 1696.015625 4479.21875 1696.015625 4432.539062 " transform="matrix(0.1,0,0,-0.1,0,607)"/>
<path style="fill:none;stroke-width:39.3;stroke-linecap:butt;stroke-linejoin:round;stroke:rgb(43.499756%,43.499756%,43.499756%);stroke-opacity:1;stroke-miterlimit:10;" d="M 1696.5625 3322.226562 C 1692.382812 3452.96875 1677.617188 3914.21875 1668.476562 4199.453125 " transform="matrix(0.1,0,0,-0.1,0,607)"/>
<path style="fill-rule:nonzero;fill:rgb(43.499756%,43.499756%,43.499756%);fill-opacity:1;stroke-width:10;stroke-linecap:butt;stroke-linejoin:round;stroke:rgb(43.499756%,43.499756%,43.499756%);stroke-opacity:1;stroke-miterlimit:10;" d="M 1599.84375 4199.335938 L 1662.109375 4397.421875 L 1736.953125 4203.710938 Z M 1599.84375 4199.335938 " transform="matrix(0.1,0,0,-0.1,0,607)"/>
<path style="fill-rule:nonzero;fill:rgb(20.799255%,20.799255%,20.799255%);fill-opacity:1;stroke-width:10;stroke-linecap:butt;stroke-linejoin:round;stroke:rgb(0%,0%,0%);stroke-opacity:1;stroke-miterlimit:10;" d="M 1468.984375 4213.671875 C 1468.984375 4167.03125 1398.984375 4167.03125 1398.984375 4213.671875 C 1398.984375 4260.351562 1468.984375 4260.351562 1468.984375 4213.671875 " transform="matrix(0.1,0,0,-0.1,0,607)"/>
<path style="fill:none;stroke-width:33.8;stroke-linecap:butt;stroke-linejoin:round;stroke:rgb(43.899536%,43.899536%,43.899536%);stroke-opacity:1;stroke-miterlimit:10;" d="M 1687.695312 3321.914062 C 1655.859375 3433.75 1555.390625 3786.953125 1490.820312 4013.828125 " transform="matrix(0.1,0,0,-0.1,0,607)"/>
<path style="fill-rule:nonzero;fill:rgb(43.899536%,43.899536%,43.899536%);fill-opacity:1;stroke-width:10;stroke-linecap:butt;stroke-linejoin:round;stroke:rgb(43.899536%,43.899536%,43.899536%);stroke-opacity:1;stroke-miterlimit:10;" d="M 1433.359375 3999.726562 L 1444.023438 4178.4375 L 1547.148438 4032.070312 Z M 1433.359375 3999.726562 " transform="matrix(0.1,0,0,-0.1,0,607)"/>
<path style="fill-rule:nonzero;fill:rgb(20.799255%,20.799255%,20.799255%);fill-opacity:1;stroke-width:10;stroke-linecap:butt;stroke-linejoin:round;stroke:rgb(0%,0%,0%);stroke-opacity:1;stroke-miterlimit:10;" d="M 1276.25 3964.101562 C 1276.25 3917.421875 1206.25 3917.421875 1206.25 3964.101562 C 1206.25 4010.78125 1276.25 4010.78125 1276.25 3964.101562 " transform="matrix(0.1,0,0,-0.1,0,607)"/>
<path style="fill:none;stroke-width:30.6;stroke-linecap:butt;stroke-linejoin:round;stroke:rgb(43.899536%,43.899536%,43.899536%);stroke-opacity:1;stroke-miterlimit:10;" d="M 1678.085938 3315.78125 C 1622.304688 3398.59375 1459.570312 3640.078125 1349.296875 3803.789062 " transform="matrix(0.1,0,0,-0.1,0,607)"/>
<path style="fill-rule:nonzero;fill:rgb(43.899536%,43.899536%,43.899536%);fill-opacity:1;stroke-width:10;stroke-linecap:butt;stroke-linejoin:round;stroke:rgb(43.899536%,43.899536%,43.899536%);stroke-opacity:1;stroke-miterlimit:10;" d="M 1303.4375 3775.976562 L 1262.34375 3932.773438 L 1392.265625 3835.820312 Z M 1303.4375 3775.976562 " transform="matrix(0.1,0,0,-0.1,0,607)"/>
<path style="fill-rule:nonzero;fill:rgb(20.799255%,20.799255%,20.799255%);fill-opacity:1;stroke-width:10;stroke-linecap:butt;stroke-linejoin:round;stroke:rgb(0%,0%,0%);stroke-opacity:1;stroke-miterlimit:10;" d="M 1121.914062 3689.101562 C 1121.914062 3642.421875 1051.914062 3642.421875 1051.914062 3689.101562 C 1051.914062 3735.78125 1121.914062 3735.78125 1121.914062 3689.101562 " transform="matrix(0.1,0,0,-0.1,0,607)"/>
<path style="fill:none;stroke-width:23.6;stroke-linecap:butt;stroke-linejoin:round;stroke:rgb(43.899536%,43.899536%,43.899536%);stroke-opacity:1;stroke-miterlimit:10;" d="M 1668.242188 3306.09375 C 1588.632812 3358.554688 1365.351562 3505.664062 1219.84375 3601.523438 " transform="matrix(0.1,0,0,-0.1,0,607)"/>
<path style="fill-rule:nonzero;fill:rgb(43.899536%,43.899536%,43.899536%);fill-opacity:1;stroke-width:10;stroke-linecap:butt;stroke-linejoin:round;stroke:rgb(43.899536%,43.899536%,43.899536%);stroke-opacity:1;stroke-miterlimit:10;" d="M 1193.320312 3569.53125 L 1117.539062 3668.945312 L 1238.789062 3638.515625 Z M 1193.320312 3569.53125 " transform="matrix(0.1,0,0,-0.1,0,607)"/>
<path style="fill-rule:nonzero;fill:rgb(20.799255%,20.799255%,20.799255%);fill-opacity:1;stroke-width:10;stroke-linecap:butt;stroke-linejoin:round;stroke:rgb(0%,0%,0%);stroke-opacity:1;stroke-miterlimit:10;" d="M 1009.257812 3394.570312 C 1009.257812 3347.890625 939.257812 3347.890625 939.257812 3394.570312 C 939.257812 3441.25 1009.257812 3441.25 1009.257812 3394.570312 " transform="matrix(0.1,0,0,-0.1,0,607)"/>
<path style="fill:none;stroke-width:26.1;stroke-linecap:butt;stroke-linejoin:round;stroke:rgb(43.899536%,43.899536%,43.899536%);stroke-opacity:1;stroke-miterlimit:10;" d="M 1662.8125 3291.875 C 1569.921875 3305.742188 1312.03125 3344.21875 1139.609375 3369.921875 " transform="matrix(0.1,0,0,-0.1,0,607)"/>
<path style="fill-rule:nonzero;fill:rgb(43.899536%,43.899536%,43.899536%);fill-opacity:1;stroke-width:10;stroke-linecap:butt;stroke-linejoin:round;stroke:rgb(43.899536%,43.899536%,43.899536%);stroke-opacity:1;stroke-miterlimit:10;" d="M 1132.382812 3325 L 1010.507812 3389.179688 L 1145.820312 3415 Z M 1132.382812 3325 " transform="matrix(0.1,0,0,-0.1,0,607)"/>
<path style="fill-rule:nonzero;fill:rgb(20.799255%,20.799255%,20.799255%);fill-opacity:1;stroke-width:10;stroke-linecap:butt;stroke-linejoin:round;stroke:rgb(0%,0%,0%);stroke-opacity:1;stroke-miterlimit:10;" d="M 940.703125 3086.757812 C 940.703125 3040.117188 870.703125 3040.117188 870.703125 3086.757812 C 870.703125 3133.4375 940.703125 3133.4375 940.703125 3086.757812 " transform="matrix(0.1,0,0,-0.1,0,607)"/>
<path style="fill:none;stroke-width:23.1;stroke-linecap:butt;stroke-linejoin:round;stroke:rgb(43.899536%,43.899536%,43.899536%);stroke-opacity:1;stroke-miterlimit:10;" d="M 1663.671875 3278.085938 C 1560.3125 3251.992188 1245.46875 3172.539062 1055.625 3124.609375 " transform="matrix(0.1,0,0,-0.1,0,607)"/>
<path style="fill-rule:nonzero;fill:rgb(43.899536%,43.899536%,43.899536%);fill-opacity:1;stroke-width:10;stroke-linecap:butt;stroke-linejoin:round;stroke:rgb(43.899536%,43.899536%,43.899536%);stroke-opacity:1;stroke-miterlimit:10;" d="M 1064.726562 3085.039062 L 942.304688 3096.015625 L 1044.84375 3163.789062 Z M 1064.726562 3085.039062 " transform="matrix(0.1,0,0,-0.1,0,607)"/>
<path style="fill-rule:nonzero;fill:rgb(20.799255%,20.799255%,20.799255%);fill-opacity:1;stroke-width:10;stroke-linecap:butt;stroke-linejoin:round;stroke:rgb(0%,0%,0%);stroke-opacity:1;stroke-miterlimit:10;" d="M 917.695312 2772.265625 C 917.695312 2725.625 847.695312 2725.625 847.695312 2772.265625 C 847.695312 2818.945312 917.695312 2818.945312 917.695312 2772.265625 " transform="matrix(0.1,0,0,-0.1,0,607)"/>
<path style="fill:none;stroke-width:45.4;stroke-linecap:butt;stroke-linejoin:round;stroke:rgb(42.698669%,42.698669%,42.698669%);stroke-opacity:1;stroke-miterlimit:10;" d="M 1666.757812 3267.148438 C 1575.976562 3209.84375 1304.414062 3038.4375 1106.25 2913.398438 " transform="matrix(0.1,0,0,-0.1,0,607)"/>
<path style="fill-rule:nonzero;fill:rgb(42.698669%,42.698669%,42.698669%);fill-opacity:1;stroke-width:10;stroke-linecap:butt;stroke-linejoin:round;stroke:rgb(42.698669%,42.698669%,42.698669%);stroke-opacity:1;stroke-miterlimit:10;" d="M 1153.75 2836.71875 L 913.671875 2791.835938 L 1057.5 2989.257812 Z M 1153.75 2836.71875 " transform="matrix(0.1,0,0,-0.1,0,607)"/>
<path style="fill-rule:nonzero;fill:rgb(20.799255%,20.799255%,20.799255%);fill-opacity:1;stroke-width:10;stroke-linecap:butt;stroke-linejoin:round;stroke:rgb(0%,0%,0%);stroke-opacity:1;stroke-miterlimit:10;" d="M 940.703125 2457.773438 C 940.703125 2411.09375 870.703125 2411.09375 870.703125 2457.773438 C 870.703125 2504.453125 940.703125 2504.453125 940.703125 2457.773438 " transform="matrix(0.1,0,0,-0.1,0,607)"/>
<path style="fill:none;stroke-width:23.6;stroke-linecap:butt;stroke-linejoin:round;stroke:rgb(43.899536%,43.899536%,43.899536%);stroke-opacity:1;stroke-miterlimit:10;" d="M 1671.367188 3259.101562 C 1569.882812 3152.929688 1200.9375 2766.757812 1014.726562 2571.875 " transform="matrix(0.1,0,0,-0.1,0,607)"/>
<path style="fill-rule:nonzero;fill:rgb(43.899536%,43.899536%,43.899536%);fill-opacity:1;stroke-width:10;stroke-linecap:butt;stroke-linejoin:round;stroke:rgb(43.899536%,43.899536%,43.899536%);stroke-opacity:1;stroke-miterlimit:10;" d="M 1044.335938 2543.085938 L 932.96875 2486.328125 L 984.609375 2600.15625 Z M 1044.335938 2543.085938 " transform="matrix(0.1,0,0,-0.1,0,607)"/>
<path style="fill-rule:nonzero;fill:rgb(20.799255%,20.799255%,20.799255%);fill-opacity:1;stroke-width:10;stroke-linecap:butt;stroke-linejoin:round;stroke:rgb(0%,0%,0%);stroke-opacity:1;stroke-miterlimit:10;" d="M 1009.257812 2150 C 1009.257812 2103.320312 939.257812 2103.320312 939.257812 2150 C 939.257812 2196.640625 1009.257812 2196.640625 1009.257812 2150 " transform="matrix(0.1,0,0,-0.1,0,607)"/>
<path style="fill:none;stroke-width:27.7;stroke-linecap:butt;stroke-linejoin:round;stroke:rgb(43.899536%,43.899536%,43.899536%);stroke-opacity:1;stroke-miterlimit:10;" d="M 1678.359375 3256.289062 C 1592.304688 3121.054688 1241.054688 2569.179688 1069.492188 2299.609375 " transform="matrix(0.1,0,0,-0.1,0,607)"/>
<path style="fill-rule:nonzero;fill:rgb(43.899536%,43.899536%,43.899536%);fill-opacity:1;stroke-width:10;stroke-linecap:butt;stroke-linejoin:round;stroke:rgb(43.899536%,43.899536%,43.899536%);stroke-opacity:1;stroke-miterlimit:10;" d="M 1109.6875 2272.148438 L 994.023438 2181.015625 L 1027.617188 2324.414062 Z M 1109.6875 2272.148438 " transform="matrix(0.1,0,0,-0.1,0,607)"/>
<path style="fill-rule:nonzero;fill:rgb(20.799255%,20.799255%,20.799255%);fill-opacity:1;stroke-width:10;stroke-linecap:butt;stroke-linejoin:round;stroke:rgb(0%,0%,0%);stroke-opacity:1;stroke-miterlimit:10;" d="M 1121.914062 1855.46875 C 1121.914062 1808.789062 1051.914062 1808.789062 1051.914062 1855.46875 C 1051.914062 1902.109375 1121.914062 1902.109375 1121.914062 1855.46875 " transform="matrix(0.1,0,0,-0.1,0,607)"/>
<path style="fill:none;stroke-width:38.8;stroke-linecap:butt;stroke-linejoin:round;stroke:rgb(43.499756%,43.499756%,43.499756%);stroke-opacity:1;stroke-miterlimit:10;" d="M 1683.789062 3254.101562 C 1617.265625 3098.203125 1328.515625 2421.5625 1178.359375 2069.765625 " transform="matrix(0.1,0,0,-0.1,0,607)"/>
<path style="fill-rule:nonzero;fill:rgb(43.499756%,43.499756%,43.499756%);fill-opacity:1;stroke-width:10;stroke-linecap:butt;stroke-linejoin:round;stroke:rgb(43.499756%,43.499756%,43.499756%);stroke-opacity:1;stroke-miterlimit:10;" d="M 1240.195312 2041.640625 L 1101.601562 1889.882812 L 1115.3125 2094.960938 Z M 1240.195312 2041.640625 " transform="matrix(0.1,0,0,-0.1,0,607)"/>
<path style="fill-rule:nonzero;fill:rgb(20.799255%,20.799255%,20.799255%);fill-opacity:1;stroke-width:10;stroke-linecap:butt;stroke-linejoin:round;stroke:rgb(0%,0%,0%);stroke-opacity:1;stroke-miterlimit:10;" d="M 1276.25 1580.46875 C 1276.25 1533.789062 1206.25 1533.789062 1206.25 1580.46875 C 1206.25 1627.109375 1276.25 1627.109375 1276.25 1580.46875 " transform="matrix(0.1,0,0,-0.1,0,607)"/>
<path style="fill:none;stroke-width:33.6;stroke-linecap:butt;stroke-linejoin:round;stroke:rgb(43.899536%,43.899536%,43.899536%);stroke-opacity:1;stroke-miterlimit:10;" d="M 1688.164062 3251.054688 C 1637.929688 3063.28125 1402.1875 2182.03125 1294.804688 1780.585938 " transform="matrix(0.1,0,0,-0.1,0,607)"/>
<path style="fill-rule:nonzero;fill:rgb(43.899536%,43.899536%,43.899536%);fill-opacity:1;stroke-width:10;stroke-linecap:butt;stroke-linejoin:round;stroke:rgb(43.899536%,43.899536%,43.899536%);stroke-opacity:1;stroke-miterlimit:10;" d="M 1350.9375 1763.007812 L 1250.742188 1615.898438 L 1237.34375 1793.398438 Z M 1350.9375 1763.007812 " transform="matrix(0.1,0,0,-0.1,0,607)"/>
<path style="fill-rule:nonzero;fill:rgb(20.799255%,20.799255%,20.799255%);fill-opacity:1;stroke-width:10;stroke-linecap:butt;stroke-linejoin:round;stroke:rgb(0%,0%,0%);stroke-opacity:1;stroke-miterlimit:10;" d="M 1468.984375 1330.859375 C 1468.984375 1284.21875 1398.984375 1284.21875 1398.984375 1330.859375 C 1398.984375 1377.539062 1468.984375 1377.539062 1468.984375 1330.859375 " transform="matrix(0.1,0,0,-0.1,0,607)"/>
<path style="fill:none;stroke-width:34.3;stroke-linecap:butt;stroke-linejoin:round;stroke:rgb(43.899536%,43.899536%,43.899536%);stroke-opacity:1;stroke-miterlimit:10;" d="M 1692.65625 3249.375 C 1664.296875 3038.828125 1523.28125 1993.085938 1462.226562 1540.390625 " transform="matrix(0.1,0,0,-0.1,0,607)"/>
<path style="fill-rule:nonzero;fill:rgb(43.899536%,43.899536%,43.899536%);fill-opacity:1;stroke-width:10;stroke-linecap:butt;stroke-linejoin:round;stroke:rgb(43.899536%,43.899536%,43.899536%);stroke-opacity:1;stroke-miterlimit:10;" d="M 1521.25 1530.039062 L 1439.0625 1368.59375 L 1402.617188 1546.054688 Z M 1521.25 1530.039062 " transform="matrix(0.1,0,0,-0.1,0,607)"/>
<path style="fill-rule:nonzero;fill:rgb(20.799255%,20.799255%,20.799255%);fill-opacity:1;stroke-width:10;stroke-linecap:butt;stroke-linejoin:round;stroke:rgb(0%,0%,0%);stroke-opacity:1;stroke-miterlimit:10;" d="M 1696.015625 1111.992188 C 1696.015625 1065.351562 1626.015625 1065.351562 1626.015625 1111.992188 C 1626.015625 1158.671875 1696.015625 1158.671875 1696.015625 1111.992188 " transform="matrix(0.1,0,0,-0.1,0,607)"/>
<path style="fill:none;stroke-width:41.9;stroke-linecap:butt;stroke-linejoin:round;stroke:rgb(43.499756%,43.499756%,43.499756%);stroke-opacity:1;stroke-miterlimit:10;" d="M 1697.070312 3248.945312 C 1693.320312 3025.78125 1673.828125 1871.484375 1665.15625 1358.359375 " transform="matrix(0.1,0,0,-0.1,0,607)"/>
<path style="fill-rule:nonzero;fill:rgb(43.499756%,43.499756%,43.499756%);fill-opacity:1;stroke-width:10;stroke-linecap:butt;stroke-linejoin:round;stroke:rgb(43.499756%,43.499756%,43.499756%);stroke-opacity:1;stroke-miterlimit:10;" d="M 1741.71875 1355.117188 L 1661.601562 1147.421875 L 1588.515625 1357.695312 Z M 1741.71875 1355.117188 " transform="matrix(0.1,0,0,-0.1,0,607)"/>
<path style="fill-rule:nonzero;fill:rgb(20.799255%,20.799255%,20.799255%);fill-opacity:1;stroke-width:10;stroke-linecap:butt;stroke-linejoin:round;stroke:rgb(0%,0%,0%);stroke-opacity:1;stroke-miterlimit:10;" d="M 1952.460938 928.515625 C 1952.460938 881.835938 1882.460938 881.835938 1882.460938 928.515625 C 1882.460938 975.195312 1952.460938 975.195312 1952.460938 928.515625 " transform="matrix(0.1,0,0,-0.1,0,607)"/>
<path style="fill:none;stroke-width:25.9;stroke-linecap:butt;stroke-linejoin:round;stroke:rgb(43.899536%,43.899536%,43.899536%);stroke-opacity:1;stroke-miterlimit:10;" d="M 1701.171875 3249.648438 C 1724.21875 3002.265625 1856.328125 1584.414062 1901.953125 1094.765625 " transform="matrix(0.1,0,0,-0.1,0,607)"/>
<path style="fill-rule:nonzero;fill:rgb(43.899536%,43.899536%,43.899536%);fill-opacity:1;stroke-width:10;stroke-linecap:butt;stroke-linejoin:round;stroke:rgb(43.899536%,43.899536%,43.899536%);stroke-opacity:1;stroke-miterlimit:10;" d="M 1947.421875 1097.382812 L 1914.179688 963.75 L 1856.796875 1088.945312 Z M 1947.421875 1097.382812 " transform="matrix(0.1,0,0,-0.1,0,607)"/>
<path style="fill-rule:nonzero;fill:rgb(20.799255%,20.799255%,20.799255%);fill-opacity:1;stroke-width:10;stroke-linecap:butt;stroke-linejoin:round;stroke:rgb(0%,0%,0%);stroke-opacity:1;stroke-miterlimit:10;" d="M 2232.890625 784.335938 C 2232.890625 737.65625 2162.890625 737.65625 2162.890625 784.335938 C 2162.890625 831.015625 2232.890625 831.015625 2232.890625 784.335938 " transform="matrix(0.1,0,0,-0.1,0,607)"/>
<path style="fill:none;stroke-width:23.5;stroke-linecap:butt;stroke-linejoin:round;stroke:rgb(43.899536%,43.899536%,43.899536%);stroke-opacity:1;stroke-miterlimit:10;" d="M 1704.765625 3251.328125 C 1755.664062 2996.679688 2067.03125 1439.101562 2167.03125 938.867188 " transform="matrix(0.1,0,0,-0.1,0,607)"/>
<path style="fill-rule:nonzero;fill:rgb(43.899536%,43.899536%,43.899536%);fill-opacity:1;stroke-width:10;stroke-linecap:butt;stroke-linejoin:round;stroke:rgb(43.899536%,43.899536%,43.899536%);stroke-opacity:1;stroke-miterlimit:10;" d="M 2207.734375 945.820312 L 2190.390625 822.03125 L 2126.757812 929.648438 Z M 2207.734375 945.820312 " transform="matrix(0.1,0,0,-0.1,0,607)"/>
<path style="fill-rule:nonzero;fill:rgb(20.799255%,20.799255%,20.799255%);fill-opacity:1;stroke-width:10;stroke-linecap:butt;stroke-linejoin:round;stroke:rgb(0%,0%,0%);stroke-opacity:1;stroke-miterlimit:10;" d="M 2531.367188 682.5 C 2531.367188 635.859375 2461.367188 635.859375 2461.367188 682.5 C 2461.367188 729.179688 2531.367188 729.179688 2531.367188 682.5 " transform="matrix(0.1,0,0,-0.1,0,607)"/>
<path style="fill:none;stroke-width:30;stroke-linecap:butt;stroke-linejoin:round;stroke:rgb(43.899536%,43.899536%,43.899536%);stroke-opacity:1;stroke-miterlimit:10;" d="M 1708.984375 3249.882812 C 1789.21875 2988.320312 2274.492188 1405.976562 2440.625 864.257812 " transform="matrix(0.1,0,0,-0.1,0,607)"/>
<path style="fill-rule:nonzero;fill:rgb(43.899536%,43.899536%,43.899536%);fill-opacity:1;stroke-width:10;stroke-linecap:butt;stroke-linejoin:round;stroke:rgb(43.899536%,43.899536%,43.899536%);stroke-opacity:1;stroke-miterlimit:10;" d="M 2491.679688 876.796875 L 2485.46875 718.007812 L 2391.289062 846.015625 Z M 2491.679688 876.796875 " transform="matrix(0.1,0,0,-0.1,0,607)"/>
<path style="fill-rule:nonzero;fill:rgb(20.799255%,20.799255%,20.799255%);fill-opacity:1;stroke-width:10;stroke-linecap:butt;stroke-linejoin:round;stroke:rgb(0%,0%,0%);stroke-opacity:1;stroke-miterlimit:10;" d="M 2841.445312 625.234375 C 2841.445312 578.554688 2771.445312 578.554688 2771.445312 625.234375 C 2771.445312 671.914062 2841.445312 671.914062 2841.445312 625.234375 " transform="matrix(0.1,0,0,-0.1,0,607)"/>
<path style="fill:none;stroke-width:23.1;stroke-linecap:butt;stroke-linejoin:round;stroke:rgb(43.899536%,43.899536%,43.899536%);stroke-opacity:1;stroke-miterlimit:10;" d="M 1711.71875 3253.046875 C 1820.78125 2991.210938 2535.039062 1276.71875 2747.148438 767.578125 " transform="matrix(0.1,0,0,-0.1,0,607)"/>
<path style="fill-rule:nonzero;fill:rgb(43.899536%,43.899536%,43.899536%);fill-opacity:1;stroke-width:10;stroke-linecap:butt;stroke-linejoin:round;stroke:rgb(43.899536%,43.899536%,43.899536%);stroke-opacity:1;stroke-miterlimit:10;" d="M 2785.625 780.820312 L 2792.734375 658.125 L 2710.664062 749.609375 Z M 2785.625 780.820312 " transform="matrix(0.1,0,0,-0.1,0,607)"/>
<path style="fill-rule:nonzero;fill:rgb(20.799255%,20.799255%,20.799255%);fill-opacity:1;stroke-width:10;stroke-linecap:butt;stroke-linejoin:round;stroke:rgb(0%,0%,0%);stroke-opacity:1;stroke-miterlimit:10;" d="M 3156.5625 613.710938 C 3156.5625 567.070312 3086.5625 567.070312 3086.5625 613.710938 C 3086.5625 660.390625 3156.5625 660.390625 3156.5625 613.710938 " transform="matrix(0.1,0,0,-0.1,0,607)"/>
<path style="fill:none;stroke-width:29.1;stroke-linecap:butt;stroke-linejoin:round;stroke:rgb(43.899536%,43.899536%,43.899536%);stroke-opacity:1;stroke-miterlimit:10;" d="M 1715.703125 3252.890625 C 1853.984375 2993.320312 2749.648438 1311.953125 3034.648438 776.914062 " transform="matrix(0.1,0,0,-0.1,0,607)"/>
<path style="fill-rule:nonzero;fill:rgb(43.899536%,43.899536%,43.899536%);fill-opacity:1;stroke-width:10;stroke-linecap:butt;stroke-linejoin:round;stroke:rgb(43.899536%,43.899536%,43.899536%);stroke-opacity:1;stroke-miterlimit:10;" d="M 3080.429688 799.648438 L 3103.984375 646.757812 L 2990.234375 751.601562 Z M 3080.429688 799.648438 " transform="matrix(0.1,0,0,-0.1,0,607)"/>
<path style="fill-rule:nonzero;fill:rgb(20.799255%,20.799255%,20.799255%);fill-opacity:1;stroke-width:10;stroke-linecap:butt;stroke-linejoin:round;stroke:rgb(0%,0%,0%);stroke-opacity:1;stroke-miterlimit:10;" d="M 3470.039062 648.203125 C 3470.039062 601.523438 3400.039062 601.523438 3400.039062 648.203125 C 3400.039062 694.882812 3470.039062 694.882812 3470.039062 648.203125 " transform="matrix(0.1,0,0,-0.1,0,607)"/>
<path style="fill:none;stroke-width:29.7;stroke-linecap:butt;stroke-linejoin:round;stroke:rgb(43.899536%,43.899536%,43.899536%);stroke-opacity:1;stroke-miterlimit:10;" d="M 1717.226562 3257.070312 C 1878.007812 3012.851562 2986.992188 1328.671875 3332.5 803.945312 " transform="matrix(0.1,0,0,-0.1,0,607)"/>
<path style="fill-rule:nonzero;fill:rgb(43.899536%,43.899536%,43.899536%);fill-opacity:1;stroke-width:10;stroke-linecap:butt;stroke-linejoin:round;stroke:rgb(43.899536%,43.899536%,43.899536%);stroke-opacity:1;stroke-miterlimit:10;" d="M 3377.539062 829.726562 L 3415.664062 677.617188 L 3291.015625 772.734375 Z M 3377.539062 829.726562 " transform="matrix(0.1,0,0,-0.1,0,607)"/>
<path style="fill-rule:nonzero;fill:rgb(20.799255%,20.799255%,20.799255%);fill-opacity:1;stroke-width:10;stroke-linecap:butt;stroke-linejoin:round;stroke:rgb(0%,0%,0%);stroke-opacity:1;stroke-miterlimit:10;" d="M 3775.117188 727.96875 C 3775.117188 681.289062 3705.117188 681.289062 3705.117188 727.96875 C 3705.117188 774.648438 3775.117188 774.648438 3775.117188 727.96875 " transform="matrix(0.1,0,0,-0.1,0,607)"/>
<path style="fill:none;stroke-width:25.7;stroke-linecap:butt;stroke-linejoin:round;stroke:rgb(43.899536%,43.899536%,43.899536%);stroke-opacity:1;stroke-miterlimit:10;" d="M 1720.664062 3257.96875 C 1912.109375 3018.046875 3247.421875 1345.195312 3634.921875 859.726562 " transform="matrix(0.1,0,0,-0.1,0,607)"/>
<path style="fill-rule:nonzero;fill:rgb(43.899536%,43.899536%,43.899536%);fill-opacity:1;stroke-width:10;stroke-linecap:butt;stroke-linejoin:round;stroke:rgb(43.899536%,43.899536%,43.899536%);stroke-opacity:1;stroke-miterlimit:10;" d="M 3672.148438 885.46875 L 3717.34375 756.484375 L 3601.601562 829.140625 Z M 3672.148438 885.46875 " transform="matrix(0.1,0,0,-0.1,0,607)"/>
<path style="fill-rule:nonzero;fill:rgb(20.799255%,20.799255%,20.799255%);fill-opacity:1;stroke-width:10;stroke-linecap:butt;stroke-linejoin:round;stroke:rgb(0%,0%,0%);stroke-opacity:1;stroke-miterlimit:10;" d="M 5357.1875 4532.460938 C 5357.1875 4485.78125 5287.1875 4485.78125 5287.1875 4532.460938 C 5287.1875 4579.140625 5357.1875 4579.140625 5357.1875 4532.460938 " transform="matrix(0.1,0,0,-0.1,0,607)"/>
<path style="fill:none;stroke-width:43;stroke-linecap:butt;stroke-linejoin:round;stroke:rgb(43.099976%,43.099976%,43.099976%);stroke-opacity:1;stroke-miterlimit:10;" d="M 4579.53125 4337.148438 C 4668.203125 4360.46875 4896.289062 4420.46875 5076.484375 4467.851562 " transform="matrix(0.1,0,0,-0.1,0,607)"/>
<path style="fill-rule:nonzero;fill:rgb(43.099976%,43.099976%,43.099976%);fill-opacity:1;stroke-width:10;stroke-linecap:butt;stroke-linejoin:round;stroke:rgb(43.099976%,43.099976%,43.099976%);stroke-opacity:1;stroke-miterlimit:10;" d="M 5058.242188 4546.679688 L 5286.757812 4523.125 L 5099.375 4390.234375 Z M 5058.242188 4546.679688 " transform="matrix(0.1,0,0,-0.1,0,607)"/>
<path style="fill-rule:nonzero;fill:rgb(20.799255%,20.799255%,20.799255%);fill-opacity:1;stroke-width:10;stroke-linecap:butt;stroke-linejoin:round;stroke:rgb(0%,0%,0%);stroke-opacity:1;stroke-miterlimit:10;" d="M 5076.640625 4845.585938 C 5076.640625 4798.945312 5006.640625 4798.945312 5006.640625 4845.585938 C 5006.640625 4892.265625 5076.640625 4892.265625 5076.640625 4845.585938 " transform="matrix(0.1,0,0,-0.1,0,607)"/>
<path style="fill:none;stroke-width:33.4;stroke-linecap:butt;stroke-linejoin:round;stroke:rgb(43.899536%,43.899536%,43.899536%);stroke-opacity:1;stroke-miterlimit:10;" d="M 4568.75 4355.117188 C 4629.648438 4418.28125 4781.835938 4576.171875 4897.265625 4695.859375 " transform="matrix(0.1,0,0,-0.1,0,607)"/>
<path style="fill-rule:nonzero;fill:rgb(43.899536%,43.899536%,43.899536%);fill-opacity:1;stroke-width:10;stroke-linecap:butt;stroke-linejoin:round;stroke:rgb(43.899536%,43.899536%,43.899536%);stroke-opacity:1;stroke-miterlimit:10;" d="M 4859.023438 4740.429688 L 5017.03125 4820.078125 L 4943.164062 4659.296875 Z M 4859.023438 4740.429688 " transform="matrix(0.1,0,0,-0.1,0,607)"/>
<path style="fill-rule:nonzero;fill:rgb(20.799255%,20.799255%,20.799255%);fill-opacity:1;stroke-width:10;stroke-linecap:butt;stroke-linejoin:round;stroke:rgb(0%,0%,0%);stroke-opacity:1;stroke-miterlimit:10;" d="M 4753.4375 5114.570312 C 4753.4375 5067.890625 4683.4375 5067.890625 4683.4375 5114.570312 C 4683.4375 5161.210938 4753.4375 5161.210938 4753.4375 5114.570312 " transform="matrix(0.1,0,0,-0.1,0,607)"/>
<path style="fill:none;stroke-width:30.1;stroke-linecap:butt;stroke-linejoin:round;stroke:rgb(43.899536%,43.899536%,43.899536%);stroke-opacity:1;stroke-miterlimit:10;" d="M 4550.390625 4365.234375 C 4572.929688 4465.664062 4635.234375 4743.476562 4677.304688 4931.09375 " transform="matrix(0.1,0,0,-0.1,0,607)"/>
<path style="fill-rule:nonzero;fill:rgb(43.899536%,43.899536%,43.899536%);fill-opacity:1;stroke-width:10;stroke-linecap:butt;stroke-linejoin:round;stroke:rgb(43.899536%,43.899536%,43.899536%);stroke-opacity:1;stroke-miterlimit:10;" d="M 4625.820312 4943.007812 L 4710.429688 5078.789062 L 4728.945312 4919.882812 Z M 4625.820312 4943.007812 " transform="matrix(0.1,0,0,-0.1,0,607)"/>
<path style="fill-rule:nonzero;fill:rgb(20.799255%,20.799255%,20.799255%);fill-opacity:1;stroke-width:10;stroke-linecap:butt;stroke-linejoin:round;stroke:rgb(0%,0%,0%);stroke-opacity:1;stroke-miterlimit:10;" d="M 4007.578125 5498.007812 C 4007.578125 5451.367188 3937.578125 5451.367188 3937.578125 5498.007812 C 3937.578125 5544.6875 4007.578125 5544.6875 4007.578125 5498.007812 " transform="matrix(0.1,0,0,-0.1,0,607)"/>
<path style="fill:none;stroke-width:59.9;stroke-linecap:butt;stroke-linejoin:round;stroke:rgb(19.599915%,19.599915%,19.599915%);stroke-opacity:1;stroke-miterlimit:10;" d="M 3752.617188 4853.242188 C 3773.945312 4915.742188 3819.335938 5048.789062 3863.359375 5177.890625 " transform="matrix(0.1,0,0,-0.1,0,607)"/>
<path style="fill-rule:nonzero;fill:rgb(19.599915%,19.599915%,19.599915%);fill-opacity:1;stroke-width:10;stroke-linecap:butt;stroke-linejoin:round;stroke:rgb(19.599915%,19.599915%,19.599915%);stroke-opacity:1;stroke-miterlimit:10;" d="M 3715.46875 5231.289062 L 3961.132812 5464.453125 L 4013.085938 5129.765625 Z M 3715.46875 5231.289062 " transform="matrix(0.1,0,0,-0.1,0,607)"/>
<path style="fill-rule:nonzero;fill:rgb(20.799255%,20.799255%,20.799255%);fill-opacity:1;stroke-width:10;stroke-linecap:butt;stroke-linejoin:round;stroke:rgb(0%,0%,0%);stroke-opacity:1;stroke-miterlimit:10;" d="M 2762.695312 5635 C 2762.695312 5588.320312 2692.695312 5588.320312 2692.695312 5635 C 2692.695312 5681.679688 2762.695312 5681.679688 2762.695312 5635 " transform="matrix(0.1,0,0,-0.1,0,607)"/>
<path style="fill:none;stroke-width:58.3;stroke-linecap:butt;stroke-linejoin:round;stroke:rgb(19.599915%,19.599915%,19.599915%);stroke-opacity:1;stroke-miterlimit:10;" d="M 2654.101562 4931.992188 C 2661.25 5000.546875 2677.65625 5157.226562 2693.164062 5305.273438 " transform="matrix(0.1,0,0,-0.1,0,607)"/>
<path style="fill-rule:nonzero;fill:rgb(19.599915%,19.599915%,19.599915%);fill-opacity:1;stroke-width:10;stroke-linecap:butt;stroke-linejoin:round;stroke:rgb(19.599915%,19.599915%,19.599915%);stroke-opacity:1;stroke-miterlimit:10;" d="M 2545.273438 5323.085938 L 2723.828125 5598.007812 L 2841.5625 5292.070312 Z M 2545.273438 5323.085938 " transform="matrix(0.1,0,0,-0.1,0,607)"/>
<path style="fill-rule:nonzero;fill:rgb(20.799255%,20.799255%,20.799255%);fill-opacity:1;stroke-width:10;stroke-linecap:butt;stroke-linejoin:round;stroke:rgb(0%,0%,0%);stroke-opacity:1;stroke-miterlimit:10;" d="M 2349.257812 5558.632812 C 2349.257812 5511.953125 2279.257812 5511.953125 2279.257812 5558.632812 C 2279.257812 5605.3125 2349.257812 5605.3125 2349.257812 5558.632812 " transform="matrix(0.1,0,0,-0.1,0,607)"/>
<path style="fill:none;stroke-width:60;stroke-linecap:butt;stroke-linejoin:round;stroke:rgb(19.599915%,19.599915%,19.599915%);stroke-opacity:1;stroke-miterlimit:10;" d="M 2634.140625 4928.28125 C 2603.398438 4988.90625 2533.671875 5126.289062 2467.148438 5257.34375 " transform="matrix(0.1,0,0,-0.1,0,607)"/>
<path style="fill-rule:nonzero;fill:rgb(19.599915%,19.599915%,19.599915%);fill-opacity:1;stroke-width:10;stroke-linecap:butt;stroke-linejoin:round;stroke:rgb(19.599915%,19.599915%,19.599915%);stroke-opacity:1;stroke-miterlimit:10;" d="M 2326.40625 5186.640625 L 2331.09375 5525.429688 L 2607.304688 5329.21875 Z M 2326.40625 5186.640625 " transform="matrix(0.1,0,0,-0.1,0,607)"/>
<path style="fill-rule:nonzero;fill:rgb(20.799255%,20.799255%,20.799255%);fill-opacity:1;stroke-width:10;stroke-linecap:butt;stroke-linejoin:round;stroke:rgb(0%,0%,0%);stroke-opacity:1;stroke-miterlimit:10;" d="M 1577.382812 5230.625 C 1577.382812 5183.945312 1507.382812 5183.945312 1507.382812 5230.625 C 1507.382812 5277.304688 1577.382812 5277.304688 1577.382812 5230.625 " transform="matrix(0.1,0,0,-0.1,0,607)"/>
<path style="fill:none;stroke-width:60;stroke-linecap:butt;stroke-linejoin:round;stroke:rgb(19.599915%,19.599915%,19.599915%);stroke-opacity:1;stroke-miterlimit:10;" d="M 1897.304688 4649.0625 C 1862.890625 4705.46875 1789.648438 4825.46875 1718.59375 4941.914062 " transform="matrix(0.1,0,0,-0.1,0,607)"/>
<path style="fill-rule:nonzero;fill:rgb(19.599915%,19.599915%,19.599915%);fill-opacity:1;stroke-width:10;stroke-linecap:butt;stroke-linejoin:round;stroke:rgb(19.599915%,19.599915%,19.599915%);stroke-opacity:1;stroke-miterlimit:10;" d="M 1582.695312 4862.226562 L 1560.859375 5200.351562 L 1851.5625 5026.328125 Z M 1582.695312 4862.226562 " transform="matrix(0.1,0,0,-0.1,0,607)"/>
<path style="fill-rule:nonzero;fill:rgb(20.799255%,20.799255%,20.799255%);fill-opacity:1;stroke-width:10;stroke-linecap:butt;stroke-linejoin:round;stroke:rgb(0%,0%,0%);stroke-opacity:1;stroke-miterlimit:10;" d="M 470 1549.84375 C 470 1503.164062 400 1503.164062 400 1549.84375 C 400 1596.523438 470 1596.523438 470 1549.84375 " transform="matrix(0.1,0,0,-0.1,0,607)"/>
<path style="fill:none;stroke-width:59.1;stroke-linecap:butt;stroke-linejoin:round;stroke:rgb(19.599915%,19.599915%,19.599915%);stroke-opacity:1;stroke-miterlimit:10;" d="M 1051.875 1839.023438 C 991.171875 1810.546875 860.9375 1749.53125 735.703125 1690.820312 " transform="matrix(0.1,0,0,-0.1,0,607)"/>
<path style="fill-rule:nonzero;fill:rgb(19.599915%,19.599915%,19.599915%);fill-opacity:1;stroke-width:10;stroke-linecap:butt;stroke-linejoin:round;stroke:rgb(19.599915%,19.599915%,19.599915%);stroke-opacity:1;stroke-miterlimit:10;" d="M 798.984375 1551.992188 L 467.109375 1564.882812 L 669.453125 1828.242188 Z M 798.984375 1551.992188 " transform="matrix(0.1,0,0,-0.1,0,607)"/>
<path style="fill-rule:nonzero;fill:rgb(20.799255%,20.799255%,20.799255%);fill-opacity:1;stroke-width:10;stroke-linecap:butt;stroke-linejoin:round;stroke:rgb(0%,0%,0%);stroke-opacity:1;stroke-miterlimit:10;" d="M 3915.585938 1601.132812 C 3915.585938 1554.492188 3845.585938 1554.492188 3845.585938 1601.132812 C 3845.585938 1647.8125 3915.585938 1647.8125 3915.585938 1601.132812 " transform="matrix(0.1,0,0,-0.1,0,607)"/>
<path style="fill-rule:nonzero;fill:rgb(20.799255%,20.799255%,20.799255%);fill-opacity:1;stroke-width:10;stroke-linecap:butt;stroke-linejoin:round;stroke:rgb(0%,0%,0%);stroke-opacity:1;stroke-miterlimit:10;" d="M 4065.351562 851.289062 C 4065.351562 804.648438 3995.351562 804.648438 3995.351562 851.289062 C 3995.351562 897.96875 4065.351562 897.96875 4065.351562 851.289062 " transform="matrix(0.1,0,0,-0.1,0,607)"/>
<path style="fill:none;stroke-width:46.4;stroke-linecap:butt;stroke-linejoin:round;stroke:rgb(42.399597%,42.399597%,42.399597%);stroke-opacity:1;stroke-miterlimit:10;" d="M 3887.773438 1564.960938 C 3903.867188 1484.492188 3943.789062 1284.53125 3977.34375 1116.640625 " transform="matrix(0.1,0,0,-0.1,0,607)"/>
<path style="fill-rule:nonzero;fill:rgb(42.399597%,42.399597%,42.399597%);fill-opacity:1;stroke-width:10;stroke-linecap:butt;stroke-linejoin:round;stroke:rgb(42.399597%,42.399597%,42.399597%);stroke-opacity:1;stroke-miterlimit:10;" d="M 4069.765625 1134.804688 L 4022.8125 888.867188 L 3885.039062 1097.929688 Z M 4069.765625 1134.804688 " transform="matrix(0.1,0,0,-0.1,0,607)"/>
<path style="fill-rule:nonzero;fill:rgb(20.799255%,20.799255%,20.799255%);fill-opacity:1;stroke-width:10;stroke-linecap:butt;stroke-linejoin:round;stroke:rgb(0%,0%,0%);stroke-opacity:1;stroke-miterlimit:10;" d="M 4334.492188 1015.585938 C 4334.492188 968.90625 4264.492188 968.90625 4264.492188 1015.585938 C 4264.492188 1062.226562 4334.492188 1062.226562 4334.492188 1015.585938 " transform="matrix(0.1,0,0,-0.1,0,607)"/>
<path style="fill:none;stroke-width:41;stroke-linecap:butt;stroke-linejoin:round;stroke:rgb(43.499756%,43.499756%,43.499756%);stroke-opacity:1;stroke-miterlimit:10;" d="M 3903.085938 1569.648438 C 3950.703125 1503.125 4064.882812 1343.515625 4158.515625 1212.617188 " transform="matrix(0.1,0,0,-0.1,0,607)"/>
<path style="fill-rule:nonzero;fill:rgb(43.499756%,43.499756%,43.499756%);fill-opacity:1;stroke-width:10;stroke-linecap:butt;stroke-linejoin:round;stroke:rgb(43.499756%,43.499756%,43.499756%);stroke-opacity:1;stroke-miterlimit:10;" d="M 4219.414062 1253.945312 L 4278.867188 1044.414062 L 4099.765625 1168.359375 Z M 4219.414062 1253.945312 " transform="matrix(0.1,0,0,-0.1,0,607)"/>
<path style="fill-rule:nonzero;fill:rgb(20.799255%,20.799255%,20.799255%);fill-opacity:1;stroke-width:10;stroke-linecap:butt;stroke-linejoin:round;stroke:rgb(0%,0%,0%);stroke-opacity:1;stroke-miterlimit:10;" d="M 4576.875 1217.304688 C 4576.875 1170.625 4506.875 1170.625 4506.875 1217.304688 C 4506.875 1263.945312 4576.875 1263.945312 4576.875 1217.304688 " transform="matrix(0.1,0,0,-0.1,0,607)"/>
<path style="fill:none;stroke-width:26.2;stroke-linecap:butt;stroke-linejoin:round;stroke:rgb(43.899536%,43.899536%,43.899536%);stroke-opacity:1;stroke-miterlimit:10;" d="M 3912.460938 1582.617188 C 3997.8125 1533.085938 4235.546875 1395.078125 4393.203125 1303.59375 " transform="matrix(0.1,0,0,-0.1,0,607)"/>
<path style="fill-rule:nonzero;fill:rgb(43.899536%,43.899536%,43.899536%);fill-opacity:1;stroke-width:10;stroke-linecap:butt;stroke-linejoin:round;stroke:rgb(43.899536%,43.899536%,43.899536%);stroke-opacity:1;stroke-miterlimit:10;" d="M 4418.476562 1341.953125 L 4508.75 1236.523438 L 4372.460938 1262.617188 Z M 4418.476562 1341.953125 " transform="matrix(0.1,0,0,-0.1,0,607)"/>
<path style="fill-rule:nonzero;fill:rgb(20.799255%,20.799255%,20.799255%);fill-opacity:1;stroke-width:10;stroke-linecap:butt;stroke-linejoin:round;stroke:rgb(0%,0%,0%);stroke-opacity:1;stroke-miterlimit:10;" d="M 4753.4375 430 C 4753.4375 383.320312 4683.4375 383.320312 4683.4375 430 C 4683.4375 476.679688 4753.4375 476.679688 4753.4375 430 " transform="matrix(0.1,0,0,-0.1,0,607)"/>
<path style="fill:none;stroke-width:58;stroke-linecap:butt;stroke-linejoin:round;stroke:rgb(19.599915%,19.599915%,19.599915%);stroke-opacity:1;stroke-miterlimit:10;" d="M 4322.03125 984.101562 C 4361.601562 928.75 4447.1875 809.140625 4528.75 695.15625 " transform="matrix(0.1,0,0,-0.1,0,607)"/>
<path style="fill-rule:nonzero;fill:rgb(19.599915%,19.599915%,19.599915%);fill-opacity:1;stroke-width:10;stroke-linecap:butt;stroke-linejoin:round;stroke:rgb(19.599915%,19.599915%,19.599915%);stroke-opacity:1;stroke-miterlimit:10;" d="M 4648.75 780.3125 L 4697.8125 458.828125 L 4409.375 609.0625 Z M 4648.75 780.3125 " transform="matrix(0.1,0,0,-0.1,0,607)"/>
<path style="fill-rule:nonzero;fill:rgb(0%,0%,0%);fill-opacity:1;stroke-width:10;stroke-linecap:butt;stroke-linejoin:round;stroke:rgb(0%,0%,0%);stroke-opacity:1;stroke-miterlimit:10;" d="M 2449.921875 2615.742188 C 2449.921875 2554.960938 2400.664062 2505.742188 2339.921875 2505.742188 C 2279.179688 2505.742188 2229.921875 2554.960938 2229.921875 2615.742188 C 2229.921875 2676.484375 2279.179688 2725.742188 2339.921875 2725.742188 C 2400.664062 2725.742188 2449.921875 2676.484375 2449.921875 2615.742188 " transform="matrix(0.1,0,0,-0.1,0,607)"/>
<path style="fill:none;stroke-width:54.4;stroke-linecap:butt;stroke-linejoin:round;stroke:rgb(30.599976%,30.599976%,30.599976%);stroke-opacity:1;stroke-miterlimit:10;" d="M 2449.726562 2640.195312 C 2528.242188 2657.695312 2638.007812 2682.148438 2741.757812 2705.234375 " transform="matrix(0.1,0,0,-0.1,0,607)"/>
<path style="fill-rule:nonzero;fill:rgb(30.599976%,30.599976%,30.599976%);fill-opacity:1;stroke-width:10;stroke-linecap:butt;stroke-linejoin:round;stroke:rgb(30.599976%,30.599976%,30.599976%);stroke-opacity:1;stroke-miterlimit:10;" d="M 2714.179688 2831.757812 L 3007.851562 2764.53125 L 2770.507812 2578.984375 Z M 2714.179688 2831.757812 " transform="matrix(0.1,0,0,-0.1,0,607)"/>
<path style="fill:none;stroke-width:58.3;stroke-linecap:butt;stroke-linejoin:round;stroke:rgb(19.599915%,19.599915%,19.599915%);stroke-opacity:1;stroke-miterlimit:10;" d="M 2263.710938 2695.3125 C 2181.289062 2781.445312 2045.898438 2922.929688 1928.164062 3045.898438 " transform="matrix(0.1,0,0,-0.1,0,607)"/>
<path style="fill-rule:nonzero;fill:rgb(19.599915%,19.599915%,19.599915%);fill-opacity:1;stroke-width:10;stroke-linecap:butt;stroke-linejoin:round;stroke:rgb(19.599915%,19.599915%,19.599915%);stroke-opacity:1;stroke-miterlimit:10;" d="M 1818.632812 2944.921875 L 1724.335938 3258.867188 L 2033.867188 3150.9375 Z M 1818.632812 2944.921875 " transform="matrix(0.1,0,0,-0.1,0,607)"/>
<path style="fill:none;stroke-width:58.2;stroke-linecap:butt;stroke-linejoin:round;stroke:rgb(19.599915%,19.599915%,19.599915%);stroke-opacity:1;stroke-miterlimit:10;" d="M 2436.289062 2552.265625 C 2665.9375 2401.015625 3252.382812 2014.84375 3603.320312 1783.710938 " transform="matrix(0.1,0,0,-0.1,0,607)"/>
<path style="fill-rule:nonzero;fill:rgb(19.599915%,19.599915%,19.599915%);fill-opacity:1;stroke-width:10;stroke-linecap:butt;stroke-linejoin:round;stroke:rgb(19.599915%,19.599915%,19.599915%);stroke-opacity:1;stroke-miterlimit:10;" d="M 3686.757812 1906.210938 L 3848.28125 1622.421875 L 3523.75 1658.671875 Z M 3686.757812 1906.210938 " transform="matrix(0.1,0,0,-0.1,0,607)"/>
<path style="fill-rule:nonzero;fill:rgb(20.799255%,20.799255%,20.799255%);fill-opacity:1;stroke-width:10;stroke-linecap:butt;stroke-linejoin:round;stroke:rgb(0%,0%,0%);stroke-opacity:1;stroke-miterlimit:10;" d="M 4217.460938 1892.1875 C 4217.460938 1845.507812 4147.460938 1845.507812 4147.460938 1892.1875 C 4147.460938 1938.867188 4217.460938 1938.867188 4217.460938 1892.1875 " transform="matrix(0.1,0,0,-0.1,0,607)"/>
<path style="fill:none;stroke-width:24.3;stroke-linecap:butt;stroke-linejoin:round;stroke:rgb(43.899536%,43.899536%,43.899536%);stroke-opacity:1;stroke-miterlimit:10;" d="M 2444.257812 2574.765625 C 2754.726562 2452.851562 3673.359375 2092.109375 4034.375 1950.3125 " transform="matrix(0.1,0,0,-0.1,0,607)"/>
<path style="fill-rule:nonzero;fill:rgb(43.899536%,43.899536%,43.899536%);fill-opacity:1;stroke-width:10;stroke-linecap:butt;stroke-linejoin:round;stroke:rgb(43.899536%,43.899536%,43.899536%);stroke-opacity:1;stroke-miterlimit:10;" d="M 4051.640625 1989.0625 L 4148.789062 1905.390625 L 4020.703125 1910.195312 Z M 4051.640625 1989.0625 " transform="matrix(0.1,0,0,-0.1,0,607)"/>
<path style="fill-rule:nonzero;fill:rgb(20.799255%,20.799255%,20.799255%);fill-opacity:1;stroke-width:10;stroke-linecap:butt;stroke-linejoin:round;stroke:rgb(0%,0%,0%);stroke-opacity:1;stroke-miterlimit:10;" d="M 4333.4375 2067.5 C 4333.4375 2020.859375 4263.4375 2020.859375 4263.4375 2067.5 C 4263.4375 2114.179688 4333.4375 2114.179688 4333.4375 2067.5 " transform="matrix(0.1,0,0,-0.1,0,607)"/>
<path style="fill:none;stroke-width:53.7;stroke-linecap:butt;stroke-linejoin:round;stroke:rgb(32.899475%,32.899475%,32.899475%);stroke-opacity:1;stroke-miterlimit:10;" d="M 2448.007812 2585.46875 C 2740.898438 2503.476562 3557.460938 2274.921875 4001.601562 2150.585938 " transform="matrix(0.1,0,0,-0.1,0,607)"/>
<path style="fill-rule:nonzero;fill:rgb(32.899475%,32.899475%,32.899475%);fill-opacity:1;stroke-width:10;stroke-linecap:butt;stroke-linejoin:round;stroke:rgb(32.899475%,32.899475%,32.899475%);stroke-opacity:1;stroke-miterlimit:10;" d="M 4037.539062 2271.796875 L 4262.5 2077.578125 L 3969.414062 2028.359375 Z M 4037.539062 2271.796875 " transform="matrix(0.1,0,0,-0.1,0,607)"/>
<path style="fill-rule:nonzero;fill:rgb(20.799255%,20.799255%,20.799255%);fill-opacity:1;stroke-width:10;stroke-linecap:butt;stroke-linejoin:round;stroke:rgb(0%,0%,0%);stroke-opacity:1;stroke-miterlimit:10;" d="M 4422.65625 2257.851562 C 4422.65625 2211.210938 4352.65625 2211.210938 4352.65625 2257.851562 C 4352.65625 2304.53125 4422.65625 2304.53125 4422.65625 2257.851562 " transform="matrix(0.1,0,0,-0.1,0,607)"/>
<path style="fill:none;stroke-width:56.2;stroke-linecap:butt;stroke-linejoin:round;stroke:rgb(24.299622%,24.299622%,24.299622%);stroke-opacity:1;stroke-miterlimit:10;" d="M 2450 2596.484375 C 2753.203125 2543.515625 3608.75 2393.984375 4075.078125 2312.5 " transform="matrix(0.1,0,0,-0.1,0,607)"/>
<path style="fill-rule:nonzero;fill:rgb(24.299622%,24.299622%,24.299622%);fill-opacity:1;stroke-width:10;stroke-linecap:butt;stroke-linejoin:round;stroke:rgb(24.299622%,24.299622%,24.299622%);stroke-opacity:1;stroke-miterlimit:10;" d="M 4099.921875 2448.4375 L 4352.929688 2263.945312 L 4052.34375 2176.171875 Z M 4099.921875 2448.4375 " transform="matrix(0.1,0,0,-0.1,0,607)"/>
<path style="fill-rule:nonzero;fill:rgb(20.799255%,20.799255%,20.799255%);fill-opacity:1;stroke-width:10;stroke-linecap:butt;stroke-linejoin:round;stroke:rgb(0%,0%,0%);stroke-opacity:1;stroke-miterlimit:10;" d="M 4483.242188 2459.179688 C 4483.242188 2412.5 4413.242188 2412.5 4413.242188 2459.179688 C 4413.242188 2505.859375 4483.242188 2505.859375 4483.242188 2459.179688 " transform="matrix(0.1,0,0,-0.1,0,607)"/>
<path style="fill:none;stroke-width:56.2;stroke-linecap:butt;stroke-linejoin:round;stroke:rgb(24.299622%,24.299622%,24.299622%);stroke-opacity:1;stroke-miterlimit:10;" d="M 2450.3125 2607.539062 C 2760.3125 2584.53125 3647.539062 2518.632812 4128.710938 2482.890625 " transform="matrix(0.1,0,0,-0.1,0,607)"/>
<path style="fill-rule:nonzero;fill:rgb(24.299622%,24.299622%,24.299622%);fill-opacity:1;stroke-width:10;stroke-linecap:butt;stroke-linejoin:round;stroke:rgb(24.299622%,24.299622%,24.299622%);stroke-opacity:1;stroke-miterlimit:10;" d="M 4142.304688 2620.46875 L 4412.304688 2461.835938 L 4121.875 2344.84375 Z M 4142.304688 2620.46875 " transform="matrix(0.1,0,0,-0.1,0,607)"/>
<path style="fill-rule:nonzero;fill:rgb(20.799255%,20.799255%,20.799255%);fill-opacity:1;stroke-width:10;stroke-linecap:butt;stroke-linejoin:round;stroke:rgb(0%,0%,0%);stroke-opacity:1;stroke-miterlimit:10;" d="M 4513.867188 2667.148438 C 4513.867188 2620.507812 4443.867188 2620.507812 4443.867188 2667.148438 C 4443.867188 2713.828125 4513.867188 2713.828125 4513.867188 2667.148438 " transform="matrix(0.1,0,0,-0.1,0,607)"/>
<path style="fill:none;stroke-width:53.8;stroke-linecap:butt;stroke-linejoin:round;stroke:rgb(32.499695%,32.499695%,32.499695%);stroke-opacity:1;stroke-miterlimit:10;" d="M 2451.914062 2618.4375 C 2770.3125 2626.09375 3688.984375 2648.164062 4172.695312 2659.804688 " transform="matrix(0.1,0,0,-0.1,0,607)"/>
<path style="fill-rule:nonzero;fill:rgb(32.499695%,32.499695%,32.499695%);fill-opacity:1;stroke-width:10;stroke-linecap:butt;stroke-linejoin:round;stroke:rgb(32.499695%,32.499695%,32.499695%);stroke-opacity:1;stroke-miterlimit:10;" d="M 4170.429688 2786.40625 L 4442.421875 2666.289062 L 4176.523438 2533.242188 Z M 4170.429688 2786.40625 " transform="matrix(0.1,0,0,-0.1,0,607)"/>
<path style="fill-rule:nonzero;fill:rgb(20.799255%,20.799255%,20.799255%);fill-opacity:1;stroke-width:10;stroke-linecap:butt;stroke-linejoin:round;stroke:rgb(0%,0%,0%);stroke-opacity:1;stroke-miterlimit:10;" d="M 5186.015625 2302.617188 C 5186.015625 2255.976562 5116.015625 2255.976562 5116.015625 2302.617188 C 5116.015625 2349.296875 5186.015625 2349.296875 5186.015625 2302.617188 " transform="matrix(0.1,0,0,-0.1,0,607)"/>
<path style="fill:none;stroke-width:54.6;stroke-linecap:butt;stroke-linejoin:round;stroke:rgb(29.798889%,29.798889%,29.798889%);stroke-opacity:1;stroke-miterlimit:10;" d="M 4486.015625 2450.742188 C 4554.804688 2435.429688 4706.484375 2401.640625 4847.617188 2370.195312 " transform="matrix(0.1,0,0,-0.1,0,607)"/>
<path style="fill-rule:nonzero;fill:rgb(29.798889%,29.798889%,29.798889%);fill-opacity:1;stroke-width:10;stroke-linecap:butt;stroke-linejoin:round;stroke:rgb(29.798889%,29.798889%,29.798889%);stroke-opacity:1;stroke-miterlimit:10;" d="M 4878.28125 2496.992188 L 5116.40625 2310.351562 L 4821.5625 2242.382812 Z M 4878.28125 2496.992188 " transform="matrix(0.1,0,0,-0.1,0,607)"/>
<path style="fill-rule:nonzero;fill:rgb(20.799255%,20.799255%,20.799255%);fill-opacity:1;stroke-width:10;stroke-linecap:butt;stroke-linejoin:round;stroke:rgb(0%,0%,0%);stroke-opacity:1;stroke-miterlimit:10;" d="M 5231.914062 2614.609375 C 5231.914062 2567.929688 5161.914062 2567.929688 5161.914062 2614.609375 C 5161.914062 2661.289062 5231.914062 2661.289062 5231.914062 2614.609375 " transform="matrix(0.1,0,0,-0.1,0,607)"/>
<path style="fill:none;stroke-width:56.7;stroke-linecap:butt;stroke-linejoin:round;stroke:rgb(22.399902%,22.399902%,22.399902%);stroke-opacity:1;stroke-miterlimit:10;" d="M 4517.460938 2664.335938 C 4586.289062 2659.296875 4736.25 2648.320312 4877.851562 2637.96875 " transform="matrix(0.1,0,0,-0.1,0,607)"/>
<path style="fill-rule:nonzero;fill:rgb(22.399902%,22.399902%,22.399902%);fill-opacity:1;stroke-width:10;stroke-linecap:butt;stroke-linejoin:round;stroke:rgb(22.399902%,22.399902%,22.399902%);stroke-opacity:1;stroke-miterlimit:10;" d="M 4888.59375 2778.4375 L 5161.5625 2617.1875 L 4868.046875 2497.421875 Z M 4888.59375 2778.4375 " transform="matrix(0.1,0,0,-0.1,0,607)"/>
</g>
</svg>
