<svg height="470.03021" viewBox="0 0 265.90619 470.03021" width="265.90619" xmlns="http://www.w3.org/2000/svg"><g transform="translate(-287.99219 -62.625)"><g><path d="m376.80569 76.052696-35.4522-5.369095 14.8623 94.008799-12.7168-.3633-14.85739-95.6192-40.64941-6.0849 20.59182 139.4873 130.71479-3.5801-56.9502 1.60269 7.8454-43.19486zm42.4365 6.266602-31.33301-4.658196 14.6806 87.921888-1.35299-25.69662 21.96676-34.50629z" fill="#75c0eb"/><path d="m532.9481812 323.6924133-99.7362977 26.1445008 22.3808899 134.8368835 98.3056031-47.8085937-43.8968811 21.3482055 5.9577942-39.1536865-36.192688 15.2937622-1.9687195-11.6386719 68.4012756-27.5732116-26.9899902 10.8504638 8.0866089-37.2173156-55.5887757 18.8453369-1.9687194-11.4579773 68.7597045-22.0263977-7.1621093 2.2971496 3.6153564-22.0077209z" fill="#75c0eb"/><path d="m473.09528 167.33841-29.67929-.85991 5.55279 31.6963 60.52441-1.61331-47.36624 1.29622zm17.0541-74.273011-61.0596-9.131798 12.53421 72.336889 36.17288 1.43651 1.79102 9.84959-1.79102-9.84959-5.10217-.21941 15.5763-27.84272-24.61872-2.01887-1.79291-9.8497 33.30472 3.4024-4.9765-.5084 2.1134-15.0326z" fill="#644c7c"/><path d="m406.5303 256.5488 13.78897 83.62301-85.08917 20.53296 32.92801-48.23187-42.20691 7.82199 6.09079 41.1807 88.0976-21.30079zm-23.8125-9.66989 16.0625-36.65821 5.60059 34.6894zm16.11329-36.88771-88.63581 3.76071 13.78812 93.11039 53.18069-8.76959 1.97071 12.5293-1.97071-12.5293-10.12149 1.64002 20.86658-40.91379-29.18848 3.45935-1.9707-12.5322 47.81348-4.4776z" fill="#f6a022"/><path d="m495.16409 289.0831-29.00589 5.24701 5.72748 33.3056 59.4502-14.3262-44.43985 10.69894-1.93903-33.08075m26.50488-85.7725-60.3428 2.50689 13.2471 75.74221 35.63382-5.90241 1.79001 10.38382-1.79001-10.38382-4.83591.7988 13.45304-32.92732-22.58396 2.39903-1.78909-10.3828 32.76862-3.0449-7.52051.69857 4.26782-17.94624z" fill="#644c7c"/><path d="m422.2880859 352.7041016-88.1005859 22.9198913 23.0995789 157.0312195 40.2861023-19.5126343-33.2593995 16.1165161 31.0738831-87.6423339-8.3759766 3.1195373-6.2666015-40.1083984 12.5342102-3.9393921 6.2685852 39.3993835-1.2784424-8.0354004 25.0368042-72.4423523 17.24646 105.0040589-47.273407 20.9532165 47.273407-20.9532165z" fill="#f6a022"/><g fill="#5a64ac"><path d="m511.7782898 206.5888062-9.2744141 29.1035919 14.5088196-1.3477021z"/><path d="m518.6826172 244.3300934-19.3994446 2.0107117-10.6200867 33.0370941 11.3369141-1.8778992 1.7900085 10.3857117-16.8330078 3.0419922-11.672821 36.3691101 58.2313843-13.9873047z"/></g></g><g fill="#5a64ac"><path d="m490.5116882 95.9276962-9.133789 23.8174057 13.7861938 1.4296952z"/><path d="m497.1376953 130.305603-19.1592102-1.4277038-11.0498047 28.3945007 10.8692017.4317017 1.7929077 9.8495941-16.2958984-.5401001-12.0107117 31.0997009 58.2080078-1.3721008z"/></g><g fill="#67abde"><path d="m533.664978 327.2773132-8.2655639 31.0596009 13.0985717-4.2012024z"/><path d="m540.468811 364.3427124-18.0859985 6.0849915-10.0498047 38.3632812 33.8661499-13.6493835z"/><path d="m548.1669922 405.5215149-39.2119141 16.4823914-10.9892883 42.0614929 55.9325867-27.2001953z"/></g><path d="m419.4237976 83.2157974-22.6855163 47.330101 5.8515014 35.2167969-11.1015014-.3603973-2.6835938-17.5458985-25.4501953 52.7559052 75.7645874-1.9043121z" fill="#67abde"/><g enable-background="new" fill="#f08222"><g><path d="m398.8310852 209.9911957-16.4824829 37.3515014 22.2148743-2.0742034z"/><path d="m406.530304 256.5487976-29.366211 3.5801087-17.9776001 40.9266967 17.9776001-2.9628906 1.9707031 12.3497009-26.1426086 4.8358765-20.0380859 45.9756165 87.3661804-21.0791016z"/></g><path d="m422.5361023 354.2460938-25.3153992 71.1552124 2.327179 14.6865844-8.7745056 3.2246094-31.3641968 88.3231812 38.1640015-18.4931031-4.2938843-27.5751648 47.273407-20.9532165z"/></g></g></svg>