<?xml version="1.0" encoding="UTF-8" standalone="no"?>
<svg
   xmlns:dc="http://purl.org/dc/elements/1.1/"
   xmlns:cc="http://creativecommons.org/ns#"
   xmlns:rdf="http://www.w3.org/1999/02/22-rdf-syntax-ns#"
   xmlns:svg="http://www.w3.org/2000/svg"
   xmlns="http://www.w3.org/2000/svg"
   height="470.03021"
   width="265.90619"
   xml:space="preserve"
   viewBox="0 0 265.90619 470.03021"
   y="0px"
   x="0px"
   id="Layer_1"
   version="1.1"><metadata
     id="metadata406"><rdf:RDF><cc:Work
         rdf:about=""><dc:format>image/svg+xml</dc:format><dc:type
           rdf:resource="http://purl.org/dc/dcmitype/StillImage" /><dc:title></dc:title></cc:Work></rdf:RDF></metadata><defs
     id="defs404" /><style
     id="style3"
     type="text/css">
	.st0{fill:#75C0EB;}
	.st1{fill:#644C7C;}
	.st2{fill:#F6A022;}
	.st3{fill:#76C0EB;}
	.st4{fill:#5A64AC;}
	.st5{fill:#67ABDE;}
	.st6{enable-background:new    ;}
	.st7{fill:#F08222;}
	.st8{fill:#F59E23;}
	.st9{fill:#654C7C;}
	.st10{fill:#75BFEA;}
	.st11{fill:#5965AC;}
	.st12{fill:#F08123;}
	.st13{fill:#68AADD;}
</style><g
     transform="translate(-287.99219,-62.625)"
     id="g216"><g
       id="g3734"><g
         id="g218"><g
           id="g220"><g
             id="g222"><g
               id="g224"><g
                 id="g226"><path
                   style="fill:#75c0eb"
                   id="XMLID_27_"
                   class="st0"
                   d="m 376.80569,76.052696 -35.4522,-5.369095 14.8623,94.008799 -12.7168,-0.3633 -14.85739,-95.6192 -40.64941,-6.0849 20.59182,139.4873 130.71479,-3.5801 -56.9502,1.60269 7.8454,-43.19486 -13.38831,-80.887334 m 42.4365,6.266602 -31.33301,-4.658196 14.6806,87.921888 -1.35299,-25.69662 21.96676,-34.50629 -3.96136,-23.060782" /><polyline
                   style="fill:#75c0eb"
                   id="XMLID_26_"
                   class="st0"
                   points="532.9481812,323.6924133 433.2118835,349.8369141 455.5927734,484.6737976         553.8983765,436.8652039 510.0014954,458.2134094 515.9592896,419.0597229 479.7666016,434.3534851 477.7978821,422.7148132         546.1991577,395.1416016 519.2091675,405.9920654 527.2957764,368.7747498 471.7070007,387.6200867 469.7382813,376.1621094         538.4979858,354.1357117 531.3358765,356.4328613 534.9512329,334.4251404 532.9481812,323.6924133       " /><path
                   style="fill:#644c7c"
                   id="XMLID_25_"
                   class="st1"
                   d="m 473.09528,167.33841 -29.67929,-0.85991 5.55279,31.6963 60.52441,-1.61331 -47.36624,1.29622 10.96833,-30.5193 m 17.0541,-74.273011 -61.0596,-9.131798 12.53421,72.336889 36.17288,1.43651 1.79102,9.84959 -1.79102,-9.84959 -5.10217,-0.21941 15.5763,-27.84272 -24.61872,-2.01887 -1.79291,-9.8497 33.30472,3.4024 -4.9765,-0.5084 2.1134,-15.0326 -2.15161,-12.572301" /><path
                   style="fill:#f6a022"
                   id="XMLID_24_"
                   class="st2"
                   d="m 406.5303,256.5488 0,0 13.78897,83.62301 -85.08917,20.53296 32.92801,-48.23187 -42.20691,7.82199 6.09079,41.1807 88.0976,-21.30079 -13.60929,-83.626 m -23.8125,-9.66989 16.0625,-36.65821 5.60059,34.6894 -21.66309,1.96881 m 16.11329,-36.88771 -88.63581,3.76071 13.78812,93.11039 53.18069,-8.76959 1.97071,12.5293 -1.97071,-12.5293 -10.12149,1.64002 20.86658,-40.91379 -29.18848,3.45935 -1.9707,-12.5322 47.81348,-4.4776 -5.73239,-35.27729" /><path
                   style="fill:#644c7c"
                   id="XMLID_23_"
                   class="st1"
                   d="m 495.16409,289.0831 -29.00589,5.24701 5.72748,33.3056 59.4502,-14.3262 -44.43985,10.69894 -1.93903,-33.08075 m 26.50488,-85.7725 -60.3428,2.50689 13.2471,75.74221 L 500,277.50189 501.79001,287.88571 500,277.50189 l -4.83591,0.7988 13.45304,-32.92732 -22.58396,2.39903 -1.78909,-10.3828 32.76862,-3.0449 -7.52051,0.69857 4.26782,-17.94624 -2.29813,-11.94183" /><polyline
                   style="fill:#f6a022"
                   id="XMLID_22_"
                   class="st2"
                   points="422.2880859,352.7041016 334.1875,375.6239929 357.2870789,532.6552124         397.5731812,513.1425781 364.3137817,529.2590942 395.3876648,441.6167603 387.0116882,444.7362976 380.7450867,404.6278992         393.2792969,400.6885071 399.5478821,440.0878906 398.2694397,432.0524902 423.3062439,359.6101379 440.5527039,464.6141968         393.2792969,485.5674133 440.5527039,464.6141968 422.2880859,352.7041016       " /><g
                   id="g234"><g
                     id="XMLID_19_"><polyline
                       style="fill:#5a64ac"
                       id="XMLID_21_"
                       class="st4"
                       points="511.7782898,206.5888062 502.5038757,235.6923981 517.0126953,234.344696           511.7782898,206.5888062         " /><polyline
                       style="fill:#5a64ac"
                       id="XMLID_20_"
                       class="st4"
                       points="518.6826172,244.3300934 499.2831726,246.3408051 488.6630859,279.3778992           500,277.5 501.7900085,287.8857117 484.9570007,290.9277039 473.2841797,327.296814 531.515564,313.3095093           518.6826172,244.3300934         " /></g></g></g></g></g></g></g><g
         id="g239"><g
           id="XMLID_16_"><polyline
             style="fill:#5a64ac"
             id="XMLID_18_"
             class="st4"
             points="490.5116882,95.9276962 481.3778992,119.7451019 495.164093,121.1747971      490.5116882,95.9276962    " /><polyline
             style="fill:#5a64ac"
             id="XMLID_17_"
             class="st4"
             points="497.1376953,130.305603 477.9784851,128.8778992 466.9286804,157.2723999      477.7978821,157.7041016 479.5907898,167.5536957 463.2948914,167.0135956 451.2841797,198.1132965 509.4921875,196.7411957      497.1376953,130.305603    " /></g><g
           id="XMLID_8_"><g
             id="XMLID_12_"><polyline
               style="fill:#67abde"
               id="XMLID_15_"
               class="st5"
               points="533.664978,327.2773132 525.3994141,358.3369141 538.4979858,354.1357117       533.664978,327.2773132     " /><polyline
               style="fill:#67abde"
               id="XMLID_14_"
               class="st5"
               points="540.468811,364.3427124 522.3828125,370.4277039 512.3330078,408.7909851       546.1991577,395.1416016 540.468811,364.3427124     " /><polyline
               style="fill:#67abde"
               id="XMLID_13_"
               class="st5"
               points="548.1669922,405.5215149 508.9550781,422.0039063 497.9657898,464.0653992       553.8983765,436.8652039 548.1669922,405.5215149     " /></g><g
             id="XMLID_9_"><g
               id="XMLID_10_"><polyline
                 style="fill:#67abde"
                 id="XMLID_11_"
                 class="st5"
                 points="419.4237976,83.2157974 396.7382813,130.5458984 402.5897827,165.7626953        391.4882813,165.402298 388.8046875,147.8563995 363.3544922,200.6123047 439.1190796,198.7079926 419.4237976,83.2157974             " /></g></g></g></g><g
         style="enable-background:new"
         id="XMLID_1_"
         class="st6"><g
           id="XMLID_5_"><polyline
             style="fill:#f08222"
             id="XMLID_7_"
             class="st7"
             points="398.8310852,209.9911957 382.3486023,247.3426971 404.5634766,245.2684937      398.8310852,209.9911957    " /><polyline
             style="fill:#f08222"
             id="XMLID_6_"
             class="st7"
             points="406.530304,256.5487976 377.164093,260.1289063 359.1864929,301.055603      377.164093,298.0927124 379.1347961,310.4424133 352.9921875,315.2782898 332.9541016,361.2539063 420.320282,340.1748047      406.530304,256.5487976    " /></g><g
           id="XMLID_2_"><g
             id="XMLID_3_"><polyline
               style="fill:#f08222"
               id="XMLID_4_"
               class="st7"
               points="422.5361023,354.2460938 397.2207031,425.4013062 399.5478821,440.0878906       390.7733765,443.3125 359.4091797,531.6356812 397.5731812,513.1425781 393.2792969,485.5674133 440.5527039,464.6141968       422.5361023,354.2460938     " /></g></g></g></g></g></svg>