<?xml version="1.0" encoding="UTF-8"?>
<svg xmlns="http://www.w3.org/2000/svg" xmlns:xlink="http://www.w3.org/1999/xlink" width="205pt" height="44pt" viewBox="0 0 205 44" version="1.1">
<defs>
<clipPath id="clip1">
  <path d="M 13 11 L 46 11 L 46 44 L 13 44 Z M 13 11 "/>
</clipPath>
<clipPath id="clip2">
  <path d="M 37.136719 11.476562 L 45.269531 17.367188 L 36.621094 43.972656 L 13.289062 43.980469 C 13.128906 42.734375 13.058594 41.472656 13.058594 40.1875 C 13.058594 25.824219 23.457031 13.875 37.136719 11.476562 "/>
</clipPath>
<linearGradient id="linear0" gradientUnits="userSpaceOnUse" x1="-0.402657" y1="0" x2="1.29005" y2="0" gradientTransform="matrix(20.9694,16.7756,-16.7756,20.9694,18.4678,22.0254)">
<stop offset="0" style="stop-color:rgb(7.922363%,46.484375%,77.706909%);stop-opacity:1;"/>
<stop offset="0.125" style="stop-color:rgb(7.922363%,46.484375%,77.706909%);stop-opacity:1;"/>
<stop offset="0.1875" style="stop-color:rgb(7.922363%,46.484375%,77.706909%);stop-opacity:1;"/>
<stop offset="0.21875" style="stop-color:rgb(7.922363%,46.484375%,77.706909%);stop-opacity:1;"/>
<stop offset="0.234375" style="stop-color:rgb(7.922363%,46.484375%,77.706909%);stop-opacity:1;"/>
<stop offset="0.238281" style="stop-color:rgb(8.227539%,46.414185%,77.484131%);stop-opacity:1;"/>
<stop offset="0.242188" style="stop-color:rgb(8.528137%,46.343994%,77.261353%);stop-opacity:1;"/>
<stop offset="0.246094" style="stop-color:rgb(9.143066%,46.290588%,76.957703%);stop-opacity:1;"/>
<stop offset="0.25" style="stop-color:rgb(9.74884%,46.244812%,76.655579%);stop-opacity:1;"/>
<stop offset="0.253906" style="stop-color:rgb(10.179138%,46.185303%,76.348877%);stop-opacity:1;"/>
<stop offset="0.257812" style="stop-color:rgb(10.606384%,46.127319%,76.040649%);stop-opacity:1;"/>
<stop offset="0.261719" style="stop-color:rgb(11.14502%,46.052551%,75.646973%);stop-opacity:1;"/>
<stop offset="0.265625" style="stop-color:rgb(11.613464%,45.932007%,75.233459%);stop-opacity:1;"/>
<stop offset="0.269531" style="stop-color:rgb(11.956787%,45.858765%,74.963379%);stop-opacity:1;"/>
<stop offset="0.273438" style="stop-color:rgb(12.295532%,45.783997%,74.690247%);stop-opacity:1;"/>
<stop offset="0.277344" style="stop-color:rgb(12.677002%,45.713806%,74.40033%);stop-opacity:1;"/>
<stop offset="0.28125" style="stop-color:rgb(13.110352%,45.671082%,74.099731%);stop-opacity:1;"/>
<stop offset="0.285156" style="stop-color:rgb(13.587952%,45.597839%,73.721313%);stop-opacity:1;"/>
<stop offset="0.289062" style="stop-color:rgb(14.059448%,45.521545%,73.338318%);stop-opacity:1;"/>
<stop offset="0.292969" style="stop-color:rgb(14.43634%,45.46051%,73.03009%);stop-opacity:1;"/>
<stop offset="0.296875" style="stop-color:rgb(14.807129%,45.397949%,72.720337%);stop-opacity:1;"/>
<stop offset="0.300781" style="stop-color:rgb(15.234375%,45.326233%,72.358704%);stop-opacity:1;"/>
<stop offset="0.304688" style="stop-color:rgb(15.661621%,45.23468%,71.983337%);stop-opacity:1;"/>
<stop offset="0.308594" style="stop-color:rgb(16.096497%,45.101929%,71.575928%);stop-opacity:1;"/>
<stop offset="0.3125" style="stop-color:rgb(16.522217%,44.967651%,71.168518%);stop-opacity:1;"/>
<stop offset="0.316406" style="stop-color:rgb(16.882324%,44.851685%,70.819092%);stop-opacity:1;"/>
<stop offset="0.320312" style="stop-color:rgb(17.227173%,44.776917%,70.497131%);stop-opacity:1;"/>
<stop offset="0.324219" style="stop-color:rgb(17.643738%,44.692993%,70.10498%);stop-opacity:1;"/>
<stop offset="0.328125" style="stop-color:rgb(18.054199%,44.60907%,69.71283%);stop-opacity:1;"/>
<stop offset="0.332031" style="stop-color:rgb(18.379211%,44.500732%,69.345093%);stop-opacity:1;"/>
<stop offset="0.335938" style="stop-color:rgb(18.676758%,44.40155%,69.021606%);stop-opacity:1;"/>
<stop offset="0.339844" style="stop-color:rgb(18.94989%,44.317627%,68.737793%);stop-opacity:1;"/>
<stop offset="0.34375" style="stop-color:rgb(19.216919%,44.232178%,68.452454%);stop-opacity:1;"/>
<stop offset="0.347656" style="stop-color:rgb(19.624329%,44.168091%,68.09082%);stop-opacity:1;"/>
<stop offset="0.351563" style="stop-color:rgb(20.021057%,44.070435%,67.668152%);stop-opacity:1;"/>
<stop offset="0.355469" style="stop-color:rgb(20.330811%,43.992615%,67.333984%);stop-opacity:1;"/>
<stop offset="0.359375" style="stop-color:rgb(20.639038%,43.885803%,66.97998%);stop-opacity:1;"/>
<stop offset="0.363281" style="stop-color:rgb(20.941162%,43.759155%,66.618347%);stop-opacity:1;"/>
<stop offset="0.367188" style="stop-color:rgb(21.235657%,43.630981%,66.25824%);stop-opacity:1;"/>
<stop offset="0.371094" style="stop-color:rgb(21.539307%,43.49823%,65.881348%);stop-opacity:1;"/>
<stop offset="0.375" style="stop-color:rgb(21.827698%,43.399048%,65.52887%);stop-opacity:1;"/>
<stop offset="0.378906" style="stop-color:rgb(22.177124%,43.293762%,65.101624%);stop-opacity:1;"/>
<stop offset="0.382812" style="stop-color:rgb(22.518921%,43.185425%,64.672852%);stop-opacity:1;"/>
<stop offset="0.386719" style="stop-color:rgb(22.782898%,43.075562%,64.323425%);stop-opacity:1;"/>
<stop offset="0.390625" style="stop-color:rgb(23.045349%,42.939758%,63.955688%);stop-opacity:1;"/>
<stop offset="0.394531" style="stop-color:rgb(23.332214%,42.78717%,63.546753%);stop-opacity:1;"/>
<stop offset="0.398438" style="stop-color:rgb(23.61145%,42.634583%,63.136292%);stop-opacity:1;"/>
<stop offset="0.402344" style="stop-color:rgb(23.838806%,42.523193%,62.748718%);stop-opacity:1;"/>
<stop offset="0.40625" style="stop-color:rgb(24.07074%,42.457581%,62.42218%);stop-opacity:1;"/>
<stop offset="0.410156" style="stop-color:rgb(24.258423%,42.404175%,62.156677%);stop-opacity:1;"/>
<stop offset="0.414062" style="stop-color:rgb(24.476624%,42.332458%,61.87439%);stop-opacity:1;"/>
<stop offset="0.417969" style="stop-color:rgb(24.754333%,42.173767%,61.450195%);stop-opacity:1;"/>
<stop offset="0.421875" style="stop-color:rgb(25.015259%,41.999817%,61.006165%);stop-opacity:1;"/>
<stop offset="0.425781" style="stop-color:rgb(25.263977%,41.833496%,60.577393%);stop-opacity:1;"/>
<stop offset="0.429688" style="stop-color:rgb(25.497437%,41.716003%,60.179138%);stop-opacity:1;"/>
<stop offset="0.433594" style="stop-color:rgb(25.695801%,41.612244%,59.832764%);stop-opacity:1;"/>
<stop offset="0.4375" style="stop-color:rgb(25.889587%,41.506958%,59.486389%);stop-opacity:1;"/>
<stop offset="0.441406" style="stop-color:rgb(26.185608%,41.334534%,58.930969%);stop-opacity:1;"/>
<stop offset="0.445312" style="stop-color:rgb(26.469421%,41.157532%,58.374023%);stop-opacity:1;"/>
<stop offset="0.449219" style="stop-color:rgb(26.655579%,41.035461%,57.99408%);stop-opacity:1;"/>
<stop offset="0.453125" style="stop-color:rgb(26.841736%,40.870667%,57.585144%);stop-opacity:1;"/>
<stop offset="0.457031" style="stop-color:rgb(27.009583%,40.707397%,57.199097%);stop-opacity:1;"/>
<stop offset="0.460938" style="stop-color:rgb(27.1698%,40.541077%,56.813049%);stop-opacity:1;"/>
<stop offset="0.464844" style="stop-color:rgb(27.328491%,40.376282%,56.427002%);stop-opacity:1;"/>
<stop offset="0.46875" style="stop-color:rgb(27.423096%,40.257263%,56.089783%);stop-opacity:1;"/>
<stop offset="0.472656" style="stop-color:rgb(27.577209%,40.1474%,55.709839%);stop-opacity:1;"/>
<stop offset="0.476562" style="stop-color:rgb(27.726746%,40.037537%,55.328369%);stop-opacity:1;"/>
<stop offset="0.480469" style="stop-color:rgb(27.882385%,39.920044%,55.010986%);stop-opacity:1;"/>
<stop offset="0.484375" style="stop-color:rgb(28.012085%,39.743042%,54.61731%);stop-opacity:1;"/>
<stop offset="0.488281" style="stop-color:rgb(28.144836%,39.555359%,54.202271%);stop-opacity:1;"/>
<stop offset="0.492188" style="stop-color:rgb(28.271484%,39.36615%,53.78418%);stop-opacity:1;"/>
<stop offset="0.496094" style="stop-color:rgb(28.410339%,39.190674%,53.317261%);stop-opacity:1;"/>
<stop offset="0.5" style="stop-color:rgb(28.541565%,39.012146%,52.84729%);stop-opacity:1;"/>
<stop offset="0.503906" style="stop-color:rgb(28.639221%,38.868713%,52.478027%);stop-opacity:1;"/>
<stop offset="0.507812" style="stop-color:rgb(28.7323%,38.690186%,52.084351%);stop-opacity:1;"/>
<stop offset="0.511719" style="stop-color:rgb(28.833008%,38.475037%,51.63269%);stop-opacity:1;"/>
<stop offset="0.515625" style="stop-color:rgb(28.927612%,38.25531%,51.179504%);stop-opacity:1;"/>
<stop offset="0.519531" style="stop-color:rgb(29.000854%,38.031006%,50.70343%);stop-opacity:1;"/>
<stop offset="0.523438" style="stop-color:rgb(29.014587%,37.826538%,50.247192%);stop-opacity:1;"/>
<stop offset="0.527344" style="stop-color:rgb(29.020691%,37.65564%,49.868774%);stop-opacity:1;"/>
<stop offset="0.53125" style="stop-color:rgb(29.023743%,37.481689%,49.487305%);stop-opacity:1;"/>
<stop offset="0.535156" style="stop-color:rgb(29.078674%,37.257385%,49.021912%);stop-opacity:1;"/>
<stop offset="0.539062" style="stop-color:rgb(29.191589%,37.080383%,48.625183%);stop-opacity:1;"/>
<stop offset="0.542969" style="stop-color:rgb(29.292297%,36.912537%,48.249817%);stop-opacity:1;"/>
<stop offset="0.546875" style="stop-color:rgb(29.385376%,36.761475%,47.886658%);stop-opacity:1;"/>
<stop offset="0.550781" style="stop-color:rgb(29.425049%,36.602783%,47.517395%);stop-opacity:1;"/>
<stop offset="0.554688" style="stop-color:rgb(29.447937%,36.425781%,47.129822%);stop-opacity:1;"/>
<stop offset="0.558594" style="stop-color:rgb(29.466248%,36.247253%,46.740723%);stop-opacity:1;"/>
<stop offset="0.5625" style="stop-color:rgb(29.478455%,36.065674%,46.351624%);stop-opacity:1;"/>
<stop offset="0.566406" style="stop-color:rgb(29.48761%,35.820007%,45.829773%);stop-opacity:1;"/>
<stop offset="0.570312" style="stop-color:rgb(29.486084%,35.568237%,45.304871%);stop-opacity:1;"/>
<stop offset="0.574219" style="stop-color:rgb(29.47998%,35.360718%,44.900513%);stop-opacity:1;"/>
<stop offset="0.578125" style="stop-color:rgb(29.467773%,35.125732%,44.477844%);stop-opacity:1;"/>
<stop offset="0.582031" style="stop-color:rgb(29.452515%,34.889221%,44.05365%);stop-opacity:1;"/>
<stop offset="0.585938" style="stop-color:rgb(29.428101%,34.648132%,43.62793%);stop-opacity:1;"/>
<stop offset="0.589844" style="stop-color:rgb(29.35791%,34.365845%,43.101501%);stop-opacity:1;"/>
<stop offset="0.59375" style="stop-color:rgb(29.315186%,34.161377%,42.674255%);stop-opacity:1;"/>
<stop offset="0.597656" style="stop-color:rgb(29.28009%,34.007263%,42.350769%);stop-opacity:1;"/>
<stop offset="0.601562" style="stop-color:rgb(29.257202%,33.839417%,42.016602%);stop-opacity:1;"/>
<stop offset="0.605469" style="stop-color:rgb(29.219055%,33.589172%,41.5802%);stop-opacity:1;"/>
<stop offset="0.609375" style="stop-color:rgb(29.156494%,33.314514%,41.116333%);stop-opacity:1;"/>
<stop offset="0.613281" style="stop-color:rgb(29.077148%,32.991028%,40.57312%);stop-opacity:1;"/>
<stop offset="0.617187" style="stop-color:rgb(28.985596%,32.702637%,40.054321%);stop-opacity:1;"/>
<stop offset="0.621094" style="stop-color:rgb(28.90625%,32.475281%,39.642334%);stop-opacity:1;"/>
<stop offset="0.625" style="stop-color:rgb(28.820801%,32.241821%,39.228821%);stop-opacity:1;"/>
<stop offset="0.628906" style="stop-color:rgb(28.700256%,31.906128%,38.66272%);stop-opacity:1;"/>
<stop offset="0.632813" style="stop-color:rgb(28.569031%,31.539917%,38.075256%);stop-opacity:1;"/>
<stop offset="0.636719" style="stop-color:rgb(28.427124%,31.167603%,37.486267%);stop-opacity:1;"/>
<stop offset="0.640625" style="stop-color:rgb(28.274536%,30.818176%,36.912537%);stop-opacity:1;"/>
<stop offset="0.644531" style="stop-color:rgb(28.153992%,30.566406%,36.49292%);stop-opacity:1;"/>
<stop offset="0.648438" style="stop-color:rgb(28.024292%,30.310059%,36.0672%);stop-opacity:1;"/>
<stop offset="0.652344" style="stop-color:rgb(27.857971%,29.989624%,35.546875%);stop-opacity:1;"/>
<stop offset="0.65625" style="stop-color:rgb(27.680969%,29.663086%,35.055542%);stop-opacity:1;"/>
<stop offset="0.660156" style="stop-color:rgb(27.545166%,29.397583%,34.646606%);stop-opacity:1;"/>
<stop offset="0.664063" style="stop-color:rgb(27.403259%,29.129028%,34.233093%);stop-opacity:1;"/>
<stop offset="0.667969" style="stop-color:rgb(27.296448%,28.913879%,33.877563%);stop-opacity:1;"/>
<stop offset="0.671875" style="stop-color:rgb(27.133179%,28.636169%,33.442688%);stop-opacity:1;"/>
<stop offset="0.675781" style="stop-color:rgb(26.965332%,28.358459%,33.010864%);stop-opacity:1;"/>
<stop offset="0.679688" style="stop-color:rgb(26.789856%,28.07312%,32.574463%);stop-opacity:1;"/>
<stop offset="0.683594" style="stop-color:rgb(26.545715%,27.655029%,31.967163%);stop-opacity:1;"/>
<stop offset="0.6875" style="stop-color:rgb(26.292419%,27.224731%,31.35376%);stop-opacity:1;"/>
<stop offset="0.691406" style="stop-color:rgb(26.095581%,26.899719%,30.892944%);stop-opacity:1;"/>
<stop offset="0.695312" style="stop-color:rgb(25.892639%,26.589966%,30.444336%);stop-opacity:1;"/>
<stop offset="0.699219" style="stop-color:rgb(25.679016%,26.280212%,29.99115%);stop-opacity:1;"/>
<stop offset="0.703125" style="stop-color:rgb(25.457764%,25.964355%,29.533386%);stop-opacity:1;"/>
<stop offset="0.707031" style="stop-color:rgb(25.164795%,25.553894%,28.947449%);stop-opacity:1;"/>
<stop offset="0.710938" style="stop-color:rgb(24.862671%,25.138855%,28.358459%);stop-opacity:1;"/>
<stop offset="0.714844" style="stop-color:rgb(24.62616%,24.81842%,27.908325%);stop-opacity:1;"/>
<stop offset="0.71875" style="stop-color:rgb(24.380493%,24.491882%,27.455139%);stop-opacity:1;"/>
<stop offset="0.722656" style="stop-color:rgb(24.087524%,24.107361%,26.945496%);stop-opacity:1;"/>
<stop offset="0.726562" style="stop-color:rgb(23.854065%,23.788452%,26.519775%);stop-opacity:1;"/>
<stop offset="0.730469" style="stop-color:rgb(23.582458%,23.423767%,26.036072%);stop-opacity:1;"/>
<stop offset="0.734375" style="stop-color:rgb(23.313904%,23.068237%,25.556946%);stop-opacity:1;"/>
<stop offset="0.738281" style="stop-color:rgb(23.060608%,22.746277%,25.12207%);stop-opacity:1;"/>
<stop offset="0.742188" style="stop-color:rgb(22.77832%,22.393799%,24.658203%);stop-opacity:1;"/>
<stop offset="0.746094" style="stop-color:rgb(22.442627%,21.981812%,24.118042%);stop-opacity:1;"/>
<stop offset="0.75" style="stop-color:rgb(22.099304%,21.54541%,23.561096%);stop-opacity:1;"/>
<stop offset="0.753906" style="stop-color:rgb(21.743774%,21.092224%,22.993469%);stop-opacity:1;"/>
<stop offset="0.757812" style="stop-color:rgb(21.379089%,20.635986%,22.424316%);stop-opacity:1;"/>
<stop offset="0.761719" style="stop-color:rgb(21.063232%,20.248413%,21.942139%);stop-opacity:1;"/>
<stop offset="0.765625" style="stop-color:rgb(20.73822%,19.871521%,21.469116%);stop-opacity:1;"/>
<stop offset="0.769531" style="stop-color:rgb(20.40863%,19.490051%,20.994568%);stop-opacity:1;"/>
<stop offset="0.773438" style="stop-color:rgb(20.069885%,19.102478%,20.516968%);stop-opacity:1;"/>
<stop offset="0.777344" style="stop-color:rgb(19.612122%,18.565369%,19.866943%);stop-opacity:1;"/>
<stop offset="0.78125" style="stop-color:rgb(19.140625%,18.011475%,19.206238%);stop-opacity:1;"/>
<stop offset="0.785156" style="stop-color:rgb(18.780518%,17.591858%,18.708801%);stop-opacity:1;"/>
<stop offset="0.789062" style="stop-color:rgb(18.408203%,17.170715%,18.212891%);stop-opacity:1;"/>
<stop offset="0.792969" style="stop-color:rgb(18.06488%,16.802979%,17.781067%);stop-opacity:1;"/>
<stop offset="0.796875" style="stop-color:rgb(17.747498%,16.465759%,17.381287%);stop-opacity:1;"/>
<stop offset="0.800781" style="stop-color:rgb(17.321777%,16.011047%,16.848755%);stop-opacity:1;"/>
<stop offset="0.804688" style="stop-color:rgb(16.871643%,15.507507%,16.261292%);stop-opacity:1;"/>
<stop offset="0.808594" style="stop-color:rgb(16.473389%,15.063477%,15.756226%);stop-opacity:1;"/>
<stop offset="0.8125" style="stop-color:rgb(16.065979%,14.613342%,15.246582%);stop-opacity:1;"/>
<stop offset="0.816406" style="stop-color:rgb(15.486145%,13.99231%,14.564514%);stop-opacity:1;"/>
<stop offset="0.820312" style="stop-color:rgb(14.897156%,13.37738%,13.891602%);stop-opacity:1;"/>
<stop offset="0.824219" style="stop-color:rgb(14.320374%,12.773132%,13.223267%);stop-opacity:1;"/>
<stop offset="0.828125" style="stop-color:rgb(13.729858%,12.159729%,12.548828%);stop-opacity:1;"/>
<stop offset="0.84375" style="stop-color:rgb(13.729858%,12.159729%,12.548828%);stop-opacity:1;"/>
<stop offset="0.875" style="stop-color:rgb(13.729858%,12.159729%,12.548828%);stop-opacity:1;"/>
<stop offset="1" style="stop-color:rgb(13.729858%,12.159729%,12.548828%);stop-opacity:1;"/>
</linearGradient>
</defs>
<g id="surface1">
<path style=" stroke:none;fill-rule:nonzero;fill:rgb(13.729858%,12.159729%,12.548828%);fill-opacity:1;" d="M 139.082031 43.121094 C 140.90625 43.121094 141.152344 42.390625 141.179688 41.28125 L 141.179688 39.644531 C 141.179688 39.296875 140.992188 38.144531 139.253906 38.144531 L 135.671875 38.144531 L 135.671875 43.121094 Z M 134.636719 37.519531 L 139.082031 37.519531 C 140.191406 37.519531 142.214844 37.621094 142.214844 39.921875 L 142.214844 41.402344 C 142.214844 42.019531 142.0625 43.746094 139.324219 43.746094 L 134.636719 43.746094 L 134.636719 37.519531 "/>
<path style="fill:none;stroke-width:0.412;stroke-linecap:butt;stroke-linejoin:miter;stroke:rgb(13.729858%,12.159729%,12.548828%);stroke-opacity:1;stroke-miterlimit:4;" d="M 139.082031 0.878906 C 140.90625 0.878906 141.152344 1.609375 141.179688 2.71875 L 141.179688 4.355469 C 141.179688 4.703125 140.992188 5.855469 139.253906 5.855469 L 135.671875 5.855469 L 135.671875 0.878906 Z M 134.636719 6.480469 L 139.082031 6.480469 C 140.191406 6.480469 142.214844 6.378906 142.214844 4.078125 L 142.214844 2.597656 C 142.214844 1.980469 142.0625 0.253906 139.324219 0.253906 L 134.636719 0.253906 Z M 134.636719 6.480469 " transform="matrix(1,0,0,-1,0,44)"/>
<path style=" stroke:none;fill-rule:nonzero;fill:rgb(13.729858%,12.159729%,12.548828%);fill-opacity:1;" d="M 147.484375 38.09375 C 145.949219 38.09375 145.550781 38.351562 145.550781 39.5625 L 145.550781 41.777344 C 145.550781 43.015625 146.144531 43.160156 147.484375 43.171875 L 148.714844 43.171875 C 150.054688 43.160156 150.652344 43.015625 150.652344 41.777344 L 150.652344 39.5625 C 150.652344 38.351562 150.25 38.09375 148.714844 38.09375 Z M 148.714844 37.472656 C 150.992188 37.488281 151.6875 38.003906 151.6875 39.5625 L 151.6875 41.777344 C 151.6875 43.25 150.910156 43.792969 148.714844 43.792969 L 147.484375 43.792969 C 145.289062 43.792969 144.511719 43.25 144.511719 41.777344 L 144.511719 39.5625 C 144.511719 38.003906 145.207031 37.488281 147.484375 37.472656 L 148.714844 37.472656 "/>
<path style="fill:none;stroke-width:0.412;stroke-linecap:butt;stroke-linejoin:miter;stroke:rgb(13.729858%,12.159729%,12.548828%);stroke-opacity:1;stroke-miterlimit:4;" d="M 147.484375 5.90625 C 145.949219 5.90625 145.550781 5.648438 145.550781 4.4375 L 145.550781 2.222656 C 145.550781 0.984375 146.144531 0.839844 147.484375 0.828125 L 148.714844 0.828125 C 150.054688 0.839844 150.652344 0.984375 150.652344 2.222656 L 150.652344 4.4375 C 150.652344 5.648438 150.25 5.90625 148.714844 5.90625 Z M 148.714844 6.527344 C 150.992188 6.511719 151.6875 5.996094 151.6875 4.4375 L 151.6875 2.222656 C 151.6875 0.75 150.910156 0.207031 148.714844 0.207031 L 147.484375 0.207031 C 145.289062 0.207031 144.511719 0.75 144.511719 2.222656 L 144.511719 4.4375 C 144.511719 5.996094 145.207031 6.511719 147.484375 6.527344 Z M 148.714844 6.527344 " transform="matrix(1,0,0,-1,0,44)"/>
<path style=" stroke:none;fill-rule:nonzero;fill:rgb(13.729858%,12.159729%,12.548828%);fill-opacity:1;" d="M 154.9375 40.257812 L 159.566406 40.257812 L 159.566406 40.84375 L 154.9375 40.84375 L 154.9375 43.121094 L 159.773438 43.121094 L 159.773438 43.746094 L 153.902344 43.746094 L 153.902344 37.519531 L 159.773438 37.519531 L 159.773438 38.144531 L 154.9375 38.144531 L 154.9375 40.257812 "/>
<path style="fill:none;stroke-width:0.412;stroke-linecap:butt;stroke-linejoin:miter;stroke:rgb(13.729858%,12.159729%,12.548828%);stroke-opacity:1;stroke-miterlimit:4;" d="M 154.9375 3.742188 L 159.566406 3.742188 L 159.566406 3.15625 L 154.9375 3.15625 L 154.9375 0.878906 L 159.773438 0.878906 L 159.773438 0.253906 L 153.902344 0.253906 L 153.902344 6.480469 L 159.773438 6.480469 L 159.773438 5.855469 L 154.9375 5.855469 Z M 154.9375 3.742188 " transform="matrix(1,0,0,-1,0,44)"/>
<path style=" stroke:none;fill-rule:nonzero;fill:rgb(13.729858%,12.159729%,12.548828%);fill-opacity:1;" d="M 94.335938 40.257812 L 98.964844 40.257812 L 98.964844 40.84375 L 94.335938 40.84375 L 94.335938 43.121094 L 99.167969 43.121094 L 99.167969 43.746094 L 93.296875 43.746094 L 93.296875 37.519531 L 99.167969 37.519531 L 99.167969 38.144531 L 94.335938 38.144531 L 94.335938 40.257812 "/>
<path style="fill:none;stroke-width:0.412;stroke-linecap:butt;stroke-linejoin:miter;stroke:rgb(13.729858%,12.159729%,12.548828%);stroke-opacity:1;stroke-miterlimit:4;" d="M 94.335938 3.742188 L 98.964844 3.742188 L 98.964844 3.15625 L 94.335938 3.15625 L 94.335938 0.878906 L 99.167969 0.878906 L 99.167969 0.253906 L 93.296875 0.253906 L 93.296875 6.480469 L 99.167969 6.480469 L 99.167969 5.855469 L 94.335938 5.855469 Z M 94.335938 3.742188 " transform="matrix(1,0,0,-1,0,44)"/>
<path style=" stroke:none;fill-rule:nonzero;fill:rgb(13.729858%,12.159729%,12.548828%);fill-opacity:1;" d="M 103.035156 38.144531 L 103.035156 40.699219 L 105.714844 40.699219 C 107.089844 40.699219 107.796875 40.707031 107.796875 39.5 C 107.796875 38.300781 107.480469 38.144531 106.199219 38.144531 Z M 102 37.519531 L 106.652344 37.519531 C 108.417969 37.519531 108.832031 38.335938 108.832031 39.40625 C 108.832031 39.960938 108.820312 41.320312 106.605469 41.320312 L 103.035156 41.320312 L 103.035156 43.746094 L 102 43.746094 L 102 37.519531 "/>
<path style="fill:none;stroke-width:0.412;stroke-linecap:butt;stroke-linejoin:miter;stroke:rgb(13.729858%,12.159729%,12.548828%);stroke-opacity:1;stroke-miterlimit:4;" d="M 103.035156 5.855469 L 103.035156 3.300781 L 105.714844 3.300781 C 107.089844 3.300781 107.796875 3.292969 107.796875 4.5 C 107.796875 5.699219 107.480469 5.855469 106.199219 5.855469 Z M 102 6.480469 L 106.652344 6.480469 C 108.417969 6.480469 108.832031 5.664062 108.832031 4.59375 C 108.832031 4.039062 108.820312 2.679688 106.605469 2.679688 L 103.035156 2.679688 L 103.035156 0.253906 L 102 0.253906 Z M 102 6.480469 " transform="matrix(1,0,0,-1,0,44)"/>
<path style=" stroke:none;fill-rule:nonzero;fill:rgb(13.729858%,12.159729%,12.548828%);fill-opacity:1;" d="M 113.589844 38.101562 L 111.578125 41.84375 L 115.621094 41.84375 Z M 111.300781 42.425781 L 110.59375 43.746094 L 109.507812 43.746094 L 112.832031 37.519531 L 114.296875 37.519531 L 117.703125 43.746094 L 116.632812 43.746094 L 115.914062 42.425781 L 111.300781 42.425781 "/>
<path style="fill:none;stroke-width:0.412;stroke-linecap:butt;stroke-linejoin:miter;stroke:rgb(13.729858%,12.159729%,12.548828%);stroke-opacity:1;stroke-miterlimit:4;" d="M 113.589844 5.898438 L 111.578125 2.15625 L 115.621094 2.15625 Z M 111.300781 1.574219 L 110.59375 0.253906 L 109.507812 0.253906 L 112.832031 6.480469 L 114.296875 6.480469 L 117.703125 0.253906 L 116.632812 0.253906 L 115.914062 1.574219 Z M 111.300781 1.574219 " transform="matrix(1,0,0,-1,0,44)"/>
<path style=" stroke:none;fill-rule:nonzero;fill:rgb(13.729858%,12.159729%,12.548828%);fill-opacity:1;" d="M 53.863281 43.121094 C 55.691406 43.121094 55.933594 42.390625 55.960938 41.28125 L 55.960938 39.644531 C 55.960938 39.296875 55.773438 38.144531 54.035156 38.144531 L 50.453125 38.144531 L 50.453125 43.121094 Z M 49.417969 37.519531 L 53.863281 37.519531 C 54.972656 37.519531 56.992188 37.621094 56.992188 39.921875 L 56.992188 41.402344 C 56.992188 42.019531 56.847656 43.746094 54.105469 43.746094 L 49.417969 43.746094 L 49.417969 37.519531 "/>
<path style="fill:none;stroke-width:0.412;stroke-linecap:butt;stroke-linejoin:miter;stroke:rgb(13.729858%,12.159729%,12.548828%);stroke-opacity:1;stroke-miterlimit:4;" d="M 53.863281 0.878906 C 55.691406 0.878906 55.933594 1.609375 55.960938 2.71875 L 55.960938 4.355469 C 55.960938 4.703125 55.773438 5.855469 54.035156 5.855469 L 50.453125 5.855469 L 50.453125 0.878906 Z M 49.417969 6.480469 L 53.863281 6.480469 C 54.972656 6.480469 56.992188 6.378906 56.992188 4.078125 L 56.992188 2.597656 C 56.992188 1.980469 56.847656 0.253906 54.105469 0.253906 L 49.417969 0.253906 Z M 49.417969 6.480469 " transform="matrix(1,0,0,-1,0,44)"/>
<path style=" stroke:none;fill-rule:nonzero;fill:rgb(13.729858%,12.159729%,12.548828%);fill-opacity:1;" d="M 62.269531 38.09375 C 60.730469 38.09375 60.332031 38.351562 60.332031 39.5625 L 60.332031 41.777344 C 60.332031 43.015625 60.929688 43.160156 62.269531 43.171875 L 63.5 43.171875 C 64.835938 43.160156 65.433594 43.015625 65.433594 41.777344 L 65.433594 39.5625 C 65.433594 38.351562 65.03125 38.09375 63.5 38.09375 Z M 63.5 37.472656 C 65.773438 37.488281 66.46875 38.003906 66.46875 39.5625 L 66.46875 41.777344 C 66.46875 43.25 65.691406 43.792969 63.5 43.792969 L 62.269531 43.792969 C 60.074219 43.792969 59.296875 43.25 59.296875 41.777344 L 59.296875 39.5625 C 59.296875 38.003906 59.988281 37.488281 62.269531 37.472656 L 63.5 37.472656 "/>
<path style="fill:none;stroke-width:0.412;stroke-linecap:butt;stroke-linejoin:miter;stroke:rgb(13.729858%,12.159729%,12.548828%);stroke-opacity:1;stroke-miterlimit:4;" d="M 62.269531 5.90625 C 60.730469 5.90625 60.332031 5.648438 60.332031 4.4375 L 60.332031 2.222656 C 60.332031 0.984375 60.929688 0.839844 62.269531 0.828125 L 63.5 0.828125 C 64.835938 0.839844 65.433594 0.984375 65.433594 2.222656 L 65.433594 4.4375 C 65.433594 5.648438 65.03125 5.90625 63.5 5.90625 Z M 63.5 6.527344 C 65.773438 6.511719 66.46875 5.996094 66.46875 4.4375 L 66.46875 2.222656 C 66.46875 0.75 65.691406 0.207031 63.5 0.207031 L 62.269531 0.207031 C 60.074219 0.207031 59.296875 0.75 59.296875 2.222656 L 59.296875 4.4375 C 59.296875 5.996094 59.988281 6.511719 62.269531 6.527344 Z M 63.5 6.527344 " transform="matrix(1,0,0,-1,0,44)"/>
<path style=" stroke:none;fill-rule:nonzero;fill:rgb(13.729858%,12.159729%,12.548828%);fill-opacity:1;" d="M 73.414062 43.121094 C 75.238281 43.121094 75.480469 42.390625 75.507812 41.28125 L 75.507812 39.644531 C 75.507812 39.296875 75.320312 38.144531 73.582031 38.144531 L 70 38.144531 L 70 43.121094 Z M 68.96875 37.519531 L 73.414062 37.519531 C 74.519531 37.519531 76.539062 37.621094 76.539062 39.921875 L 76.539062 41.402344 C 76.539062 42.019531 76.394531 43.746094 73.65625 43.746094 L 68.96875 43.746094 L 68.96875 37.519531 "/>
<path style="fill:none;stroke-width:0.412;stroke-linecap:butt;stroke-linejoin:miter;stroke:rgb(13.729858%,12.159729%,12.548828%);stroke-opacity:1;stroke-miterlimit:4;" d="M 73.414062 0.878906 C 75.238281 0.878906 75.480469 1.609375 75.507812 2.71875 L 75.507812 4.355469 C 75.507812 4.703125 75.320312 5.855469 73.582031 5.855469 L 70 5.855469 L 70 0.878906 Z M 68.96875 6.480469 L 73.414062 6.480469 C 74.519531 6.480469 76.539062 6.378906 76.539062 4.078125 L 76.539062 2.597656 C 76.539062 1.980469 76.394531 0.253906 73.65625 0.253906 L 68.96875 0.253906 Z M 68.96875 6.480469 " transform="matrix(1,0,0,-1,0,44)"/>
<path style=" stroke:none;fill-rule:nonzero;fill:rgb(6.666565%,38.212585%,64.7995%);fill-opacity:1;" d="M 82.878906 42.089844 L 86.285156 42.089844 L 86.285156 38.871094 L 82.878906 38.871094 Z M 82.878906 42.089844 "/>
<path style=" stroke:none;fill-rule:nonzero;fill:rgb(6.666565%,38.212585%,64.7995%);fill-opacity:1;" d="M 124.644531 42.089844 L 128.046875 42.089844 L 128.046875 38.871094 L 124.644531 38.871094 Z M 124.644531 42.089844 "/>
<path style=" stroke:none;fill-rule:nonzero;fill:rgb(6.666565%,38.212585%,64.7995%);fill-opacity:1;" d="M 104.996094 31.5625 L 80.496094 31.5625 L 80.496094 5.921875 L 105.019531 5.921875 L 105.019531 9.777344 L 84.050781 9.777344 L 84.050781 16.332031 L 98.425781 16.332031 L 98.425781 20.1875 L 84.050781 20.1875 L 84.050781 27.710938 L 104.996094 27.710938 L 104.996094 31.5625 "/>
<path style="fill:none;stroke-width:0.775;stroke-linecap:butt;stroke-linejoin:miter;stroke:rgb(6.666565%,38.212585%,64.7995%);stroke-opacity:1;stroke-miterlimit:4;" d="M 104.996094 12.4375 L 80.496094 12.4375 L 80.496094 38.078125 L 105.019531 38.078125 L 105.019531 34.222656 L 84.050781 34.222656 L 84.050781 27.667969 L 98.425781 27.667969 L 98.425781 23.8125 L 84.050781 23.8125 L 84.050781 16.289062 L 104.996094 16.289062 Z M 104.996094 12.4375 " transform="matrix(1,0,0,-1,0,44)"/>
<path style=" stroke:none;fill-rule:nonzero;fill:rgb(6.666565%,38.212585%,64.7995%);fill-opacity:1;" d="M 73.328125 11.933594 C 69.523438 9.988281 65.648438 9.019531 61.707031 9.019531 C 59.085938 9.019531 57.078125 9.324219 55.6875 9.941406 C 54.292969 10.554688 53.597656 11.40625 53.597656 12.492188 C 53.597656 13.628906 54.339844 14.457031 55.828125 14.976562 C 56.890625 15.351562 58.628906 15.613281 61.035156 15.753906 C 64.574219 15.992188 66.914062 16.183594 68.050781 16.324219 C 71.261719 16.75 73.632812 17.542969 75.167969 18.699219 C 76.703125 19.859375 77.472656 21.503906 77.472656 23.628906 C 77.472656 26.347656 76.265625 28.453125 73.859375 29.941406 C 71.445312 31.433594 67.988281 32.175781 63.472656 32.175781 C 56.933594 32.175781 51.839844 30.734375 48.199219 27.851562 L 50.539062 24.761719 C 54.554688 27.21875 58.878906 28.445312 63.503906 28.445312 C 66.503906 28.445312 68.832031 28.035156 70.484375 27.207031 C 72.066406 26.402344 72.855469 25.304688 72.855469 23.910156 C 72.855469 22.28125 71.820312 21.195312 69.738281 20.648438 C 68.652344 20.367188 65.722656 20.070312 60.953125 19.765625 C 56.726562 19.480469 53.761719 18.914062 52.0625 18.0625 C 50.078125 17.070312 49.085938 15.402344 49.085938 13.0625 C 49.085938 10.652344 50.214844 8.753906 52.472656 7.359375 C 54.726562 5.964844 57.910156 5.269531 62.019531 5.269531 C 67.546875 5.269531 72.179688 6.53125 75.910156 9.0625 L 73.328125 11.933594 "/>
<path style="fill:none;stroke-width:0.775;stroke-linecap:butt;stroke-linejoin:miter;stroke:rgb(6.666565%,38.212585%,64.7995%);stroke-opacity:1;stroke-miterlimit:4;" d="M 73.328125 32.066406 C 69.523438 34.011719 65.648438 34.980469 61.707031 34.980469 C 59.085938 34.980469 57.078125 34.675781 55.6875 34.058594 C 54.292969 33.445312 53.597656 32.59375 53.597656 31.507812 C 53.597656 30.371094 54.339844 29.542969 55.828125 29.023438 C 56.890625 28.648438 58.628906 28.386719 61.035156 28.246094 C 64.574219 28.007812 66.914062 27.816406 68.050781 27.675781 C 71.261719 27.25 73.632812 26.457031 75.167969 25.300781 C 76.703125 24.140625 77.472656 22.496094 77.472656 20.371094 C 77.472656 17.652344 76.265625 15.546875 73.859375 14.058594 C 71.445312 12.566406 67.988281 11.824219 63.472656 11.824219 C 56.933594 11.824219 51.839844 13.265625 48.199219 16.148438 L 50.539062 19.238281 C 54.554688 16.78125 58.878906 15.554688 63.503906 15.554688 C 66.503906 15.554688 68.832031 15.964844 70.484375 16.792969 C 72.066406 17.597656 72.855469 18.695312 72.855469 20.089844 C 72.855469 21.71875 71.820312 22.804688 69.738281 23.351562 C 68.652344 23.632812 65.722656 23.929688 60.953125 24.234375 C 56.726562 24.519531 53.761719 25.085938 52.0625 25.9375 C 50.078125 26.929688 49.085938 28.597656 49.085938 30.9375 C 49.085938 33.347656 50.214844 35.246094 52.472656 36.640625 C 54.726562 38.035156 57.910156 38.730469 62.019531 38.730469 C 67.546875 38.730469 72.179688 37.46875 75.910156 34.9375 Z M 73.328125 32.066406 " transform="matrix(1,0,0,-1,0,44)"/>
<path style=" stroke:none;fill-rule:nonzero;fill:rgb(6.666565%,38.212585%,64.7995%);fill-opacity:1;" d="M 127.460938 17.933594 C 130.738281 17.933594 132.378906 16.617188 132.378906 13.996094 C 132.378906 11.183594 130.605469 9.777344 127.066406 9.777344 L 112.128906 9.777344 L 112.128906 17.933594 Z M 136.964844 31.5625 L 132.027344 31.5625 L 125.097656 21.789062 L 112.128906 21.789062 L 112.128906 31.5625 L 107.871094 31.5625 L 107.871094 5.921875 L 128.097656 5.921875 C 130.789062 5.921875 132.902344 6.648438 134.4375 8.097656 C 135.976562 9.550781 136.738281 11.519531 136.738281 13.996094 C 136.738281 16.171875 136.117188 17.917969 134.867188 19.238281 C 133.710938 20.46875 132.117188 21.246094 130.089844 21.578125 L 136.964844 31.5625 "/>
<path style="fill:none;stroke-width:0.775;stroke-linecap:butt;stroke-linejoin:miter;stroke:rgb(6.666565%,38.212585%,64.7995%);stroke-opacity:1;stroke-miterlimit:4;" d="M 127.460938 26.066406 C 130.738281 26.066406 132.378906 27.382812 132.378906 30.003906 C 132.378906 32.816406 130.605469 34.222656 127.066406 34.222656 L 112.128906 34.222656 L 112.128906 26.066406 Z M 136.964844 12.4375 L 132.027344 12.4375 L 125.097656 22.210938 L 112.128906 22.210938 L 112.128906 12.4375 L 107.871094 12.4375 L 107.871094 38.078125 L 128.097656 38.078125 C 130.789062 38.078125 132.902344 37.351562 134.4375 35.902344 C 135.976562 34.449219 136.738281 32.480469 136.738281 30.003906 C 136.738281 27.828125 136.117188 26.082031 134.867188 24.761719 C 133.710938 23.53125 132.117188 22.753906 130.089844 22.421875 Z M 136.964844 12.4375 " transform="matrix(1,0,0,-1,0,44)"/>
<path style=" stroke:none;fill-rule:nonzero;fill:rgb(6.666565%,38.212585%,64.7995%);fill-opacity:1;" d="M 157.449219 27.710938 C 160.003906 27.710938 162.101562 26.890625 163.738281 25.25 C 165.382812 23.605469 166.203125 21.496094 166.203125 18.921875 C 166.203125 16.179688 165.320312 13.96875 163.5625 12.292969 C 161.804688 10.613281 159.492188 9.777344 156.636719 9.777344 L 144.308594 9.777344 L 144.308594 27.710938 Z M 156.285156 5.921875 C 160.75 5.921875 164.289062 7.105469 166.898438 9.480469 C 169.511719 11.855469 170.816406 15.035156 170.816406 19.027344 C 170.816406 22.6875 169.433594 25.734375 166.671875 28.164062 C 164.09375 30.433594 160.90625 31.5625 157.097656 31.5625 L 140.050781 31.5625 L 140.050781 5.921875 L 156.285156 5.921875 "/>
<path style="fill:none;stroke-width:0.775;stroke-linecap:butt;stroke-linejoin:miter;stroke:rgb(6.666565%,38.212585%,64.7995%);stroke-opacity:1;stroke-miterlimit:4;" d="M 157.449219 16.289062 C 160.003906 16.289062 162.101562 17.109375 163.738281 18.75 C 165.382812 20.394531 166.203125 22.503906 166.203125 25.078125 C 166.203125 27.820312 165.320312 30.03125 163.5625 31.707031 C 161.804688 33.386719 159.492188 34.222656 156.636719 34.222656 L 144.308594 34.222656 L 144.308594 16.289062 Z M 156.285156 38.078125 C 160.75 38.078125 164.289062 36.894531 166.898438 34.519531 C 169.511719 32.144531 170.816406 28.964844 170.816406 24.972656 C 170.816406 21.3125 169.433594 18.265625 166.671875 15.835938 C 164.09375 13.566406 160.90625 12.4375 157.097656 12.4375 L 140.050781 12.4375 L 140.050781 38.078125 Z M 156.285156 38.078125 " transform="matrix(1,0,0,-1,0,44)"/>
<path style=" stroke:none;fill-rule:nonzero;fill:rgb(6.666565%,38.212585%,64.7995%);fill-opacity:1;" d="M 193.160156 17.933594 C 196.441406 17.933594 198.082031 16.617188 198.082031 13.996094 C 198.082031 11.183594 196.347656 9.777344 192.878906 9.777344 L 177.832031 9.777344 L 177.832031 17.933594 Z M 193.90625 5.921875 C 196.527344 5.921875 198.609375 6.648438 200.144531 8.097656 C 201.679688 9.550781 202.445312 11.492188 202.445312 13.925781 C 202.445312 16.476562 201.648438 18.425781 200.054688 19.769531 C 198.460938 21.117188 196.140625 21.789062 193.097656 21.789062 L 177.832031 21.789062 L 177.832031 31.5625 L 173.574219 31.5625 L 173.574219 5.921875 L 193.90625 5.921875 "/>
<path style="fill:none;stroke-width:0.775;stroke-linecap:butt;stroke-linejoin:miter;stroke:rgb(6.666565%,38.212585%,64.7995%);stroke-opacity:1;stroke-miterlimit:4;" d="M 193.160156 26.066406 C 196.441406 26.066406 198.082031 27.382812 198.082031 30.003906 C 198.082031 32.816406 196.347656 34.222656 192.878906 34.222656 L 177.832031 34.222656 L 177.832031 26.066406 Z M 193.90625 38.078125 C 196.527344 38.078125 198.609375 37.351562 200.144531 35.902344 C 201.679688 34.449219 202.445312 32.507812 202.445312 30.074219 C 202.445312 27.523438 201.648438 25.574219 200.054688 24.230469 C 198.460938 22.882812 196.140625 22.210938 193.097656 22.210938 L 177.832031 22.210938 L 177.832031 12.4375 L 173.574219 12.4375 L 173.574219 38.078125 Z M 193.90625 38.078125 " transform="matrix(1,0,0,-1,0,44)"/>
<path style=" stroke:none;fill-rule:nonzero;fill:rgb(13.729858%,12.159729%,12.548828%);fill-opacity:1;" d="M 8.640625 43.980469 L 0 17.367188 L 22.636719 0.921875 L 35.320312 10.164062 C 20.0625 13.488281 8.628906 27.097656 8.628906 43.355469 C 8.628906 43.5625 8.636719 43.769531 8.640625 43.980469 "/>
<g clip-path="url(#clip1)" clip-rule="nonzero">
<g clip-path="url(#clip2)" clip-rule="nonzero">
<path style=" stroke:none;fill-rule:nonzero;fill:url(#linear0);" d="M 25.628906 -4.234375 L -2.796875 31.296875 L 32.699219 59.691406 L 61.125 24.160156 Z M 25.628906 -4.234375 "/>
</g>
</g>
<path style=" stroke:none;fill-rule:nonzero;fill:rgb(100%,100%,100%);fill-opacity:1;" d="M 40.992188 27.75 C 40.160156 27.078125 39.050781 26.324219 36.703125 26.640625 C 36.703125 26.640625 35.484375 34.761719 19.777344 30.210938 C 19.777344 30.210938 30.660156 16.339844 36.355469 24.355469 C 36.355469 24.355469 30.65625 24.535156 26.128906 27.710938 C 26.128906 27.710938 36.921875 23.808594 41.007812 26.851562 C 41.007812 26.851562 41.535156 27.300781 41.910156 27.707031 L 41.601562 28.660156 C 41.601562 28.660156 41.351562 28.039062 40.992188 27.75 "/>
<path style=" stroke:none;fill-rule:nonzero;fill:rgb(100%,100%,100%);fill-opacity:1;" d="M 41.289062 29.613281 C 41.082031 29.507812 40.949219 29.492188 40.949219 29.492188 C 37.40625 28.601562 31.324219 34.144531 31.324219 34.144531 C 33.453125 30.796875 37.179688 29.113281 37.179688 29.113281 C 31.207031 25.363281 27.800781 37.542969 27.800781 37.542969 C 39.457031 36.25 38.039062 30.535156 38.039062 30.535156 C 39.507812 29.679688 40.449219 29.742188 41.125 30.109375 L 41.289062 29.613281 "/>
<path style=" stroke:none;fill-rule:nonzero;fill:rgb(100%,100%,100%);fill-opacity:1;" d="M 8.460938 17.019531 L 9.679688 14.210938 L 9.65625 17.273438 L 11.914062 15.203125 L 10.644531 17.992188 L 13.550781 17.019531 L 11.253906 19.050781 L 14.304688 19.34375 L 11.382812 20.265625 L 14.050781 21.773438 L 11.003906 21.425781 L 12.828125 23.890625 L 10.1875 22.335938 L 10.851562 25.328125 L 9.070312 22.832031 L 8.460938 25.839844 L 7.847656 22.832031 L 6.070312 25.328125 L 6.730469 22.335938 L 4.089844 23.890625 L 5.914062 21.425781 L 2.871094 21.773438 L 5.535156 20.265625 L 2.613281 19.34375 L 5.664062 19.050781 L 3.367188 17.019531 L 6.273438 17.992188 L 5.003906 15.203125 L 7.265625 17.273438 L 7.238281 14.210938 L 8.460938 17.019531 "/>
</g>
</svg>
