<?xml version="1.0" encoding="UTF-8" standalone="no"?>
<!-- Created with Inkscape (http://www.inkscape.org/) -->

<svg
   xmlns:dc="http://purl.org/dc/elements/1.1/"
   xmlns:cc="http://creativecommons.org/ns#"
   xmlns:rdf="http://www.w3.org/1999/02/22-rdf-syntax-ns#"
   xmlns:svg="http://www.w3.org/2000/svg"
   xmlns="http://www.w3.org/2000/svg"
   xmlns:sodipodi="http://sodipodi.sourceforge.net/DTD/sodipodi-0.dtd"
   xmlns:inkscape="http://www.inkscape.org/namespaces/inkscape"
   width="64"
   height="64"
   viewBox="0 0 64.000001 64.000001"
   id="svg5133"
   version="1.1"
   inkscape:version="0.91 r13725"
   sodipodi:docname="favicon.svg"
   inkscape:export-filename="f:\research\drummondlab.github.io\assets\images\favicon.png"
   inkscape:export-xdpi="90"
   inkscape:export-ydpi="90">
  <defs
     id="defs5135" />
  <sodipodi:namedview
     id="base"
     pagecolor="#ffffff"
     bordercolor="#666666"
     borderopacity="1.0"
     inkscape:pageopacity="0.0"
     inkscape:pageshadow="2"
     inkscape:zoom="3.959798"
     inkscape:cx="-83.553014"
     inkscape:cy="71.47803"
     inkscape:document-units="px"
     inkscape:current-layer="layer1"
     showgrid="false"
     units="px"
     inkscape:window-width="2560"
     inkscape:window-height="1387"
     inkscape:window-x="-8"
     inkscape:window-y="-8"
     inkscape:window-maximized="1" />
  <metadata
     id="metadata5138">
    <rdf:RDF>
      <cc:Work
         rdf:about="">
        <dc:format>image/svg+xml</dc:format>
        <dc:type
           rdf:resource="http://purl.org/dc/dcmitype/StillImage" />
        <dc:title></dc:title>
      </cc:Work>
    </rdf:RDF>
  </metadata>
  <g
     inkscape:label="Layer 1"
     inkscape:groupmode="layer"
     id="layer1"
     transform="translate(0,-988.36216)">
    <path
       style="opacity:1;fill:#dde9af;fill-opacity:1;stroke:#000000;stroke-width:2;stroke-linecap:round;stroke-linejoin:round;stroke-miterlimit:4;stroke-dasharray:none;stroke-dashoffset:0;stroke-opacity:1"
       d="M 52.923828 1.6542969 A 11.076988 12.923153 45 0 0 42.800781 5.8496094 A 11.076988 12.923153 45 0 0 38.640625 14.621094 A 22.349625 26.074562 45 0 0 10.839844 21.490234 A 22.349625 26.074562 45 0 0 8.2050781 55.732422 A 22.349625 26.074562 45 0 0 42.447266 53.097656 A 22.349625 26.074562 45 0 0 49.46875 25.693359 A 11.076988 12.923153 45 0 0 58.466797 21.513672 A 11.076988 12.923153 45 0 0 59.771484 4.5429688 A 11.076988 12.923153 45 0 0 52.923828 1.6542969 z "
       id="path5681"
       transform="translate(0,988.36216)" />
    <circle
       r="10.796005"
       cy="1031.2122"
       cx="30.80965"
       id="circle5688"
       style="opacity:1;fill:#cdaeff;fill-opacity:1;stroke:#000000;stroke-width:2;stroke-linecap:round;stroke-linejoin:round;stroke-miterlimit:4;stroke-dasharray:none;stroke-dashoffset:0;stroke-opacity:1" />
    <g
       id="g5745"
       transform="matrix(0.9964794,0.08383793,-0.08383793,0.9964794,84.855681,-0.33782928)">
      <path
         sodipodi:nodetypes="zzzzz"
         inkscape:connector-curvature="0"
         id="path5692"
         d="m 21.702503,1013.212 c -0.234722,1.8399 0.550779,5.1836 1.260351,5.7541 0.709667,0.5706 0.02855,-3.864 0.123193,-5.6303 0.09465,-1.7664 1.763756,-5.5471 0.866411,-5.4372 -0.897251,0.1099 -2.015035,3.4736 -2.249955,5.3134 z"
         style="fill:#4d4d4d;fill-rule:evenodd;stroke:#000000;stroke-width:1px;stroke-linecap:butt;stroke-linejoin:miter;stroke-opacity:1" />
      <path
         style="fill:#4d4d4d;fill-rule:evenodd;stroke:#000000;stroke-width:1px;stroke-linecap:butt;stroke-linejoin:miter;stroke-opacity:1"
         d="m 25.621912,1012.9676 c -0.260942,2.1223 0.689514,5.9894 1.528132,6.654 0.838617,0.6645 0.0019,-4.4613 0.09866,-6.4999 0.09687,-2.0387 2.027515,-6.3903 0.973883,-6.2707 -1.053538,0.1196 -2.339727,3.9942 -2.600678,6.1166 z"
         id="path5694"
         inkscape:connector-curvature="0"
         sodipodi:nodetypes="zzzzz" />
      <path
         sodipodi:nodetypes="zzzzz"
         inkscape:connector-curvature="0"
         id="path5696"
         d="m 29.824252,1012.2556 c -0.234818,1.8398 0.550778,5.1836 1.26035,5.7541 0.709573,0.5706 0.02856,-3.864 0.123193,-5.6303 0.09465,-1.7664 1.763662,-5.5471 0.866411,-5.4372 -0.89725,0.1099 -2.015035,3.4737 -2.249954,5.3134 z"
         style="fill:#4d4d4d;fill-rule:evenodd;stroke:#000000;stroke-width:1px;stroke-linecap:butt;stroke-linejoin:miter;stroke-opacity:1" />
    </g>
    <g
       id="g5722"
       transform="translate(31.693536,-1.3889598)">
      <rect
         ry="3.8392856"
         y="1022.1836"
         x="-24.464285"
         height="16.071428"
         width="7.6785712"
         id="rect5708"
         style="opacity:1;fill:#d40000;fill-opacity:1;stroke:#000000;stroke-width:2;stroke-linecap:round;stroke-linejoin:round;stroke-miterlimit:4;stroke-dasharray:none;stroke-dashoffset:0;stroke-opacity:1" />
      <path
         inkscape:connector-curvature="0"
         id="path5710"
         d="m -23.896421,1027.203 c 0.126269,-0.063 2.872621,0 2.872621,0"
         style="fill:none;fill-rule:evenodd;stroke:#000000;stroke-width:1.5;stroke-linecap:round;stroke-linejoin:round;stroke-miterlimit:4;stroke-dasharray:none;stroke-opacity:1" />
      <path
         style="fill:none;fill-rule:evenodd;stroke:#000000;stroke-width:1.5;stroke-linecap:round;stroke-linejoin:round;stroke-miterlimit:4;stroke-dasharray:none;stroke-opacity:1"
         d="m -20.108349,1029.2233 c 0.126269,-0.063 2.872621,0 2.872621,0"
         id="path5712"
         inkscape:connector-curvature="0" />
      <path
         inkscape:connector-curvature="0"
         id="path5714"
         d="m -24.02269,1031.5277 c 0.126269,-0.063 2.872621,0 2.872621,0"
         style="fill:none;fill-rule:evenodd;stroke:#000000;stroke-width:1.5;stroke-linecap:round;stroke-linejoin:round;stroke-miterlimit:4;stroke-dasharray:none;stroke-opacity:1" />
      <path
         style="fill:none;fill-rule:evenodd;stroke:#000000;stroke-width:1.5;stroke-linecap:round;stroke-linejoin:round;stroke-miterlimit:4;stroke-dasharray:none;stroke-opacity:1"
         d="m -20.203051,1033.7374 c 0.126269,-0.063 2.872621,0 2.872621,0"
         id="path5716"
         inkscape:connector-curvature="0" />
      <path
         inkscape:connector-curvature="0"
         id="path5718"
         d="m -24.054258,1035.5683 c 0.126269,-0.063 2.872621,0 2.872621,0"
         style="fill:none;fill-rule:evenodd;stroke:#000000;stroke-width:1.5;stroke-linecap:round;stroke-linejoin:round;stroke-miterlimit:4;stroke-dasharray:none;stroke-opacity:1" />
      <path
         style="fill:none;fill-rule:evenodd;stroke:#000000;stroke-width:1.5;stroke-linecap:round;stroke-linejoin:round;stroke-miterlimit:4;stroke-dasharray:none;stroke-opacity:1"
         d="m -20.360888,1025.0248 c 0.126269,-0.063 2.872621,0 2.872621,0"
         id="path5720"
         inkscape:connector-curvature="0" />
    </g>
    <path
       style="opacity:1;fill:#008080;fill-opacity:1;stroke:#000000;stroke-width:2;stroke-linecap:round;stroke-linejoin:round;stroke-miterlimit:4;stroke-dasharray:none;stroke-dashoffset:0;stroke-opacity:1"
       d="m 48.546875,998.68805 c -3.173009,0 -5.74609,2.57305 -5.746094,5.74605 -10e-7,1.2639 0.01077,2.2153 0.07617,2.9844 -0.791582,-0.1126 -1.813833,-0.1445 -3.169922,-0.1445 -3.173001,0 -5.744128,2.5731 -5.74414,5.7461 -3.2e-5,3.173 2.571108,5.7441 5.74414,5.7441 3.173032,0 5.746094,-2.5711 5.746094,-5.7441 0,-1.2301 -0.01313,-2.1772 -0.0918,-2.9395 0.79392,0.086 1.818339,0.098 3.185547,0.098 3.173013,0 5.744145,-2.5711 5.744141,-5.7442 -10e-7,-3.173 -2.571132,-5.74605 -5.744141,-5.74605 z"
       id="circle5737"
       inkscape:connector-curvature="0" />
  </g>
</svg>
