<?xml version="1.0" encoding="UTF-8" standalone="no"?>
<!-- Created with Inkscape (http://www.inkscape.org/) -->

<svg
   width="64"
   height="64"
   viewBox="0 0 64.000001 64.000001"
   id="svg5133"
   version="1.1"
   inkscape:version="1.3 (0e150ed6c4, 2023-07-21)"
   sodipodi:docname="lab-logo.svg"
   inkscape:export-filename="f:\research\drummondlab.github.io\assets\images\lab-github-logo.png"
   inkscape:export-xdpi="89.440002"
   inkscape:export-ydpi="89.440002"
   xmlns:inkscape="http://www.inkscape.org/namespaces/inkscape"
   xmlns:sodipodi="http://sodipodi.sourceforge.net/DTD/sodipodi-0.dtd"
   xmlns="http://www.w3.org/2000/svg"
   xmlns:svg="http://www.w3.org/2000/svg"
   xmlns:rdf="http://www.w3.org/1999/02/22-rdf-syntax-ns#"
   xmlns:cc="http://creativecommons.org/ns#"
   xmlns:dc="http://purl.org/dc/elements/1.1/">
  <defs
     id="defs5135" />
  <sodipodi:namedview
     id="base"
     pagecolor="#ffffff"
     bordercolor="#666666"
     borderopacity="1.0"
     inkscape:pageopacity="0.0"
     inkscape:pageshadow="2"
     inkscape:zoom="3.959798"
     inkscape:cx="-76.266517"
     inkscape:cy="-58.967654"
     inkscape:document-units="px"
     inkscape:current-layer="layer1"
     showgrid="false"
     units="px"
     inkscape:window-width="3840"
     inkscape:window-height="2054"
     inkscape:window-x="-11"
     inkscape:window-y="-11"
     inkscape:window-maximized="1"
     inkscape:showpageshadow="2"
     inkscape:pagecheckerboard="0"
     inkscape:deskcolor="#d1d1d1" />
  <metadata
     id="metadata5138">
    <rdf:RDF>
      <cc:Work
         rdf:about="">
        <dc:format>image/svg+xml</dc:format>
        <dc:type
           rdf:resource="http://purl.org/dc/dcmitype/StillImage" />
      </cc:Work>
    </rdf:RDF>
  </metadata>
  <g
     inkscape:label="Layer 1"
     inkscape:groupmode="layer"
     id="layer1"
     transform="translate(0,-988.36216)">
    <path
       style="opacity:1;fill:#dde9af;fill-opacity:1;stroke:#000000;stroke-width:2;stroke-linecap:round;stroke-linejoin:round;stroke-miterlimit:4;stroke-dasharray:none;stroke-dashoffset:0;stroke-opacity:1"
       d="m -39.956454,958.96985 a 10.423613,12.160882 45.002365 0 0 -9.526,3.94783 10.423613,12.160882 45.002365 0 0 -3.914794,8.25399 21.031335,24.536557 45.002365 0 0 -26.161121,6.4639 21.031335,24.536557 45.002365 0 0 -2.47937,32.22223 21.031335,24.536557 45.002365 0 0 32.22262,-2.4793 21.031335,24.536557 45.002365 0 0 6.607364,-25.78773 10.423613,12.160882 45.002365 0 0 8.467352,-3.9331 10.423613,12.160882 45.002365 0 0 1.227738,-15.96955 10.423613,12.160882 45.002365 0 0 -6.443789,-2.71827 z"
       id="path5681"
       inkscape:connector-curvature="0" />
    <g
       id="g5745"
       transform="matrix(0.9377081,0.07889226,-0.07889326,0.93769627,24.556378,50.519517)">
      <path
         sodipodi:nodetypes="zzzzz"
         inkscape:connector-curvature="0"
         id="path5692"
         d="m 21.702503,1013.212 c -0.234722,1.8399 0.550779,5.1836 1.260351,5.7541 0.709667,0.5706 0.02855,-3.864 0.123193,-5.6303 0.09465,-1.7664 1.763756,-5.5471 0.866411,-5.4372 -0.897251,0.1099 -2.015035,3.4736 -2.249955,5.3134 z"
         style="fill:#4d4d4d;fill-rule:evenodd;stroke:#000000;stroke-width:1.06268px;stroke-linecap:butt;stroke-linejoin:miter;stroke-opacity:1" />
      <path
         style="fill:#4d4d4d;fill-rule:evenodd;stroke:#000000;stroke-width:1.06268px;stroke-linecap:butt;stroke-linejoin:miter;stroke-opacity:1"
         d="m 25.621912,1012.9676 c -0.260942,2.1223 0.689514,5.9894 1.528132,6.654 0.838617,0.6645 0.0019,-4.4613 0.09866,-6.4999 0.09687,-2.0387 2.027515,-6.3903 0.973883,-6.2707 -1.053538,0.1196 -2.339727,3.9942 -2.600678,6.1166 z"
         id="path5694"
         inkscape:connector-curvature="0"
         sodipodi:nodetypes="zzzzz" />
      <path
         sodipodi:nodetypes="zzzzz"
         inkscape:connector-curvature="0"
         id="path5696"
         d="m 29.824252,1012.2556 c -0.234818,1.8398 0.550778,5.1836 1.26035,5.7541 0.709573,0.5706 0.02856,-3.864 0.123193,-5.6303 0.09465,-1.7664 1.763662,-5.5471 0.866411,-5.4372 -0.89725,0.1099 -2.015035,3.4737 -2.249954,5.3134 z"
         style="fill:#4d4d4d;fill-rule:evenodd;stroke:#000000;stroke-width:1.06268px;stroke-linecap:butt;stroke-linejoin:miter;stroke-opacity:1" />
    </g>
    <g
       id="g5722"
       transform="matrix(0.94102106,0,0,0.94100918,1.9403939,59.083965)">
      <rect
         ry="3.8392856"
         y="1022.1836"
         x="-24.464285"
         height="16.071428"
         width="7.6785712"
         id="rect5708"
         style="opacity:1;fill:#d40000;fill-opacity:1;stroke:#000000;stroke-width:2.12536;stroke-linecap:round;stroke-linejoin:round;stroke-miterlimit:4;stroke-dasharray:none;stroke-dashoffset:0;stroke-opacity:1" />
      <path
         inkscape:connector-curvature="0"
         id="path5710"
         d="m -23.896421,1027.203 c 0.126269,-0.063 2.872621,0 2.872621,0"
         style="fill:none;fill-rule:evenodd;stroke:#000000;stroke-width:1.59402;stroke-linecap:round;stroke-linejoin:round;stroke-miterlimit:4;stroke-dasharray:none;stroke-opacity:1" />
      <path
         style="fill:none;fill-rule:evenodd;stroke:#000000;stroke-width:1.59402;stroke-linecap:round;stroke-linejoin:round;stroke-miterlimit:4;stroke-dasharray:none;stroke-opacity:1"
         d="m -20.108349,1029.2233 c 0.126269,-0.063 2.872621,0 2.872621,0"
         id="path5712"
         inkscape:connector-curvature="0" />
      <path
         inkscape:connector-curvature="0"
         id="path5714"
         d="m -24.02269,1031.5277 c 0.126269,-0.063 2.872621,0 2.872621,0"
         style="fill:none;fill-rule:evenodd;stroke:#000000;stroke-width:1.59402;stroke-linecap:round;stroke-linejoin:round;stroke-miterlimit:4;stroke-dasharray:none;stroke-opacity:1" />
      <path
         style="fill:none;fill-rule:evenodd;stroke:#000000;stroke-width:1.59402;stroke-linecap:round;stroke-linejoin:round;stroke-miterlimit:4;stroke-dasharray:none;stroke-opacity:1"
         d="m -20.203051,1033.7374 c 0.126269,-0.063 2.872621,0 2.872621,0"
         id="path5716"
         inkscape:connector-curvature="0" />
      <path
         inkscape:connector-curvature="0"
         id="path5718"
         d="m -24.054258,1035.5683 c 0.126269,-0.063 2.872621,0 2.872621,0"
         style="fill:none;fill-rule:evenodd;stroke:#000000;stroke-width:1.59402;stroke-linecap:round;stroke-linejoin:round;stroke-miterlimit:4;stroke-dasharray:none;stroke-opacity:1" />
      <path
         style="fill:none;fill-rule:evenodd;stroke:#000000;stroke-width:1.59402;stroke-linecap:round;stroke-linejoin:round;stroke-miterlimit:4;stroke-dasharray:none;stroke-opacity:1"
         d="m -20.360888,1025.0248 c 0.126269,-0.063 2.872621,0 2.872621,0"
         id="path5720"
         inkscape:connector-curvature="0" />
    </g>
    <path
       style="opacity:1;fill:#008080;fill-opacity:1;stroke:#000000;stroke-width:2;stroke-linecap:round;stroke-linejoin:round;stroke-miterlimit:4;stroke-dasharray:none;stroke-dashoffset:0;stroke-opacity:1"
       d="m -44.075259,967.12987 c -2.985868,0 -5.407191,2.4212 -5.407195,5.4071 -1e-6,1.1893 0.01014,2.0846 0.07168,2.8083 -0.744896,-0.1059 -1.706856,-0.136 -2.982964,-0.136 -2.985861,0 -5.405345,2.4213 -5.405357,5.4072 -3e-5,2.9858 2.419467,5.4052 5.405357,5.4052 2.98589,0 5.407196,-2.4194 5.407196,-5.4052 0,-1.1576 -0.01236,-2.0488 -0.08639,-2.7661 0.747095,0.081 1.711095,0.092 2.997667,0.092 2.985872,0 5.405361,-2.4194 5.405357,-5.4054 -10e-7,-2.9858 -2.419489,-5.407 -5.405357,-5.407 z"
       id="circle5737"
       inkscape:connector-curvature="0" />
    <path
       id="path1"
       style="fill:#dde9af;fill-opacity:1;stroke:#000000;stroke-width:1.88976;stroke-linecap:round;stroke-linejoin:round"
       d="m 10.810507,1042.4185 c 5.474812,5.4741 13.989994,5.8337 19.823865,0 5.833871,-5.8337 3.724949,-13.5076 7.230855,-17.0144 3.505906,-3.5068 11.5758,-1.7921 16.949869,-7.1663 5.374069,-5.3742 5.474034,-14.3491 -1.6e-5,-19.82386 -5.47405,-5.47479 -14.265054,-5.56067 -19.825208,0 -5.560154,5.56066 -3.667028,13.42506 -7.176046,16.92076 -3.509018,3.4957 -11.130059,1.3872 -16.804663,7.0603 -5.6746044,5.6731 -5.6734683,14.5494 -0.198656,20.0235 z"
       sodipodi:nodetypes="zzzzzzzzz" />
    <ellipse
       cy="744.66724"
       cx="-686.11157"
       id="circle5688"
       style="opacity:1;fill:#cdaeff;fill-opacity:1;stroke:#000000;stroke-width:1.5;stroke-linecap:round;stroke-linejoin:round;stroke-miterlimit:4;stroke-dasharray:none;stroke-dashoffset:0;stroke-opacity:1"
       rx="10.159268"
       ry="6.907711"
       transform="rotate(-45)" />
    <circle
       style="fill:#cdaeff;fill-opacity:1;stroke:#000000;stroke-width:1.5;stroke-linecap:round;stroke-linejoin:round;stroke-dasharray:none"
       id="path2"
       cx="28.189569"
       cy="1024.8223"
       r="4.2615814" />
    <circle
       style="fill:#cdaeff;fill-opacity:1;stroke:#000000;stroke-width:1.5;stroke-linecap:round;stroke-linejoin:round;stroke-dasharray:none"
       id="circle2"
       cx="26.737474"
       cy="1035.8707"
       r="2.935756" />
    <circle
       style="fill:#cdaeff;fill-opacity:1;stroke:#000000;stroke-width:1.5;stroke-linecap:round;stroke-linejoin:round;stroke-dasharray:none"
       id="circle3"
       cx="15.531095"
       cy="1029.7783"
       r="2.6516507" />
    <circle
       style="fill:#cdaeff;fill-opacity:1;stroke:#000000;stroke-width:1.5;stroke-linecap:round;stroke-linejoin:round;stroke-dasharray:none"
       id="circle4"
       cx="17.488266"
       cy="1039.2487"
       r="1.9571708" />
  </g>
</svg>
