<svg height="675pt" viewBox="0 0 723 675" width="723pt" xmlns="http://www.w3.org/2000/svg"><g fill-rule="evenodd"><path d="m722.03125 674.300781h-721.335938v-673.628906h721.335938z" fill="#fff"/><path d="m620.003906 421.460938-10.34375 29.140624 12.035156-7.519531z" fill="#b8552b"/><path d="m609.660156 450.601562-16.167968 33.28125 28.203124-40.800781z" fill="#c46838"/><path d="m627.148438 448.910156-11.84375 20.121094 20.679687-15.417969z" fill="#da925f"/><path d="m627.148438 448.910156-5.453126-5.828125-28.203124 40.800781z" fill="#c66635"/><path d="m615.304688 469.03125-21.8125 14.851562 33.65625-34.972656z" fill="#d5844e"/><path d="m620.003906 421.460938 14.476563-5.453126-12.785157 27.074219z" fill="#d46c3a"/><path d="m659.675781 415.816406-.1875 13.164063 10.339844-3.574219z" fill="#fcd8b7"/><path d="m659.488281 428.980469-12.972656-15.605469 13.160156 2.441406z" fill="#fbba8c"/><path d="m635.984375 453.613281 3.761719-15.984375 3.574218 9.214844z" fill="#e49d6e"/><path d="m643.320312 446.84375 7.519532-3.761719 3.382812-12.410156z" fill="#dc7f64"/><path d="m654.222656 430.671875-14.476562 6.957031 3.574218 9.214844z" fill="#e48262"/><path d="m650.839844 443.082031 18.988281-17.675781-10.339844 3.574219z" fill="#efa47d"/><path d="m659.488281 428.980469-5.265625 1.691406-3.382812 12.410156z" fill="#e38455"/><path d="m663.816406 435.371094 6.011719-9.964844-18.988281 17.675781z" fill="#f2b287"/><path d="m654.222656 430.671875-7.707031-17.296875 12.972656 15.605469z" fill="#ed9565"/><path d="m646.515625 413.375-6.769531 24.253906 14.476562-6.957031z" fill="#e57b47"/><path d="m639.746094 437.628906-5.265625-21.621094 12.035156-2.632812z" fill="#e8804f"/><path d="m627.148438 448.910156 12.597656-11.28125-3.761719 15.984375z" fill="#d26f41"/><path d="m639.746094 437.628906-18.050782 5.453125 5.453126 5.828125z" fill="#ca613f"/><path d="m639.746094 437.628906-5.265625-21.621094-12.785157 27.074219z" fill="#d7663c"/><path d="m626.585938 399.460938 11.65625-33.28125-11.65625 8.648437z" fill="#fccfb0"/><path d="m626.585938 374.828125 2.066406-15.792969 9.589844 7.144532z" fill="#fcdbb7"/><path d="m626.585938 374.828125-7.898438-15.605469 9.964844-.1875z" fill="#fab180"/><path d="m626.585938 374.828125-7.898438 11.472656 7.898438 13.160157z" fill="#fcceac"/><path d="m618.6875 359.222656v27.078125l7.898438-11.472656z" fill="#f99d6b"/><path d="m600.070312 428.226562 9.589844 22.375 10.34375-29.140624z" fill="#f4a868"/><path d="m600.070312 428.226562 12.976563-25.945312 6.957031 19.179688z" fill="#eb9861"/><path d="m620.003906 421.460938 6.582032-22-13.539063 2.820312z" fill="#f9ba89"/><path d="m613.046875 402.28125 5.640625-15.980469 7.898438 13.160157z" fill="#f7ab81"/><path d="m594.242188 380.28125 24.445312 6.019531-5.640625 15.980469z" fill="#dd6b3d"/><path d="m594.242188 380.28125 7.710937-12.785156 16.734375 18.804687z" fill="#dd6c3b"/><path d="m601.953125 367.496094 16.734375-8.273438v27.078125z" fill="#ea7947"/><path d="m600.070312 428.226562-11.277343 32.71875 20.867187-10.34375z" fill="#f1a76c"/><path d="m588.792969 460.945312 4.699219 22.9375 16.167968-33.28125z" fill="#f9c08a"/><path d="m576.570312 485.765625 1.316407 22.75 15.605469-24.632813z" fill="#f9ca9d"/><path d="m576.570312 485.765625-9.402343 19.175781 10.71875 3.574219z" fill="#eca875"/><path d="m567.167969 504.941406 4.324219 8.648438 6.394531-5.074219z" fill="#dd945e"/><path d="m567.167969 504.941406-3.761719-24.066406 13.164062 4.890625z" fill="#da8249"/><path d="m567.167969 504.941406-19.929688 15.609375 24.253907-6.960937z" fill="#b96a38"/><path d="m546.109375 486.703125-22.9375 15.980469 15.980469 3.386718z" fill="#a6532b"/><path d="m539.152344 506.070312 24.253906-25.195312-17.296875 5.828125z" fill="#ba5e31"/><path d="m539.152344 506.070312 28.015625-1.128906-3.761719-24.066406z" fill="#c9703b"/><path d="m539.152344 506.070312 8.085937 14.480469 19.929688-15.609375z" fill="#bc6d3b"/><path d="m539.152344 506.070312-31.964844 19.179688 15.984375-22.566406z" fill="#9e5028"/><path d="m547.238281 520.550781-40.050781 4.699219 31.964844-19.179688z" fill="#ac5a2c"/><path d="m507.1875 525.25-22.5625 5.828125 21.4375-12.785156z" fill="#834625"/><path d="m507.1875 525.25 15.984375-22.566406-17.109375 15.609375z" fill="#924b26"/><path d="m547.238281 520.550781-33.28125 12.410157-6.769531-7.710938z" fill="#a65a2d"/><path d="m513.957031 532.960938-29.332031-1.882813 22.5625-5.828125z" fill="#8a4c27"/><path d="m513.957031 532.960938-26.136719 5.074218-3.195312-6.957031z" fill="#7e4927"/><path d="m484.625 531.078125-23.125 16.167969 26.320312-9.210938z" fill="#89522f"/><path d="m438.933594 539.726562-11.65625 19.179688 35.726562-22.5625z" fill="#d79865"/><path d="m427.277344 558.90625 18.238281-4.136719 17.488281-18.425781z" fill="#a86336"/><path d="m445.515625 554.769531 15.984375-7.523437 1.503906-10.902344z" fill="#a8663b"/><path d="m438.933594 539.726562-20.304688 13.347657 8.648438 5.832031z" fill="#d5905b"/><path d="m438.933594 539.726562 24.070312-9.964843v6.582031z" fill="#d89966"/><path d="m438.933594 539.726562 20.121094-30.457031 3.949218 20.492188z" fill="#bb6d3a"/><path d="m418.628906 553.074219-17.109375 11.097656 25.757813-5.265625z" fill="#a65f33"/><path d="m420.132812 528.070312-1.503906 25.003907 20.304688-13.347657z" fill="#c07846"/><path d="m420.132812 528.070312 38.921876-18.800781-20.121094 30.457031z" fill="#c3733e"/><path d="m401.519531 564.171875-43.621093 9.773437 13.535156-28.765624z" fill="#924b23"/><path d="m418.628906 553.074219-47.195312-7.894531 30.085937 18.992187z" fill="#9c5228"/><path d="m420.132812 528.070312-48.699218 17.109376 47.195312 7.894531z" fill="#b86837"/><path d="m463.003906 529.761719 25.570313-36.289063-29.519531 15.796875z" fill="#ca7941"/><path d="m463.003906 536.34375 21.621094-5.265625-23.125 16.167969z" fill="#ac6b3c"/><path d="m477.292969 521.679688-14.289063 8.082031 25.570313-36.289063z" fill="#cb8f5d"/><path d="m477.292969 521.679688 15.980469-9.40625-4.699219-18.800782z" fill="#db9b69"/><path d="m521.476562 481.4375-18.238281-.375 9.214844 18.992188z" fill="#facb9e"/><path d="m512.453125 500.054688 10.71875 2.628906-1.695313-21.246094z" fill="#de9a66"/><path d="m512.453125 500.054688-6.390625 18.238281 17.109375-15.609375z" fill="#dd9e69"/><path d="m512.453125 500.054688-19.179687 12.21875 9.964843-31.210938z" fill="#e09c65"/><path d="m506.0625 518.292969-12.789062-6.019531 19.179687-12.21875z" fill="#cf8751"/><path d="m484.625 531.078125 8.648438-18.804687 12.789062 6.019531z" fill="#b87141"/><path d="m484.625 531.078125-21.621094-1.316406 30.269532-17.488281z" fill="#bb7545"/><path d="m484.625 531.078125-21.621094-1.316406v6.582031z" fill="#b57444"/><path d="m488.574219 493.472656 14.664062-12.410156-9.964843 31.210938z" fill="#da8f5d"/><path d="m488.574219 493.472656-2.445313-13.160156 17.109375.75z" fill="#dc874e"/><path d="m486.128906 480.3125-3.476562-17.015625-8.371094 8.554687z" fill="#da8a52"/><path d="m486.128906 480.3125-27.074218 28.957031 29.519531-15.796875z" fill="#d5814a"/><path d="m474.28125 471.851562-15.226562 37.417969 27.074218-28.957031z" fill="#d7864e"/><path d="m474.28125 471.851562-27.449219 11.089844 12.222657 26.328125z" fill="#dd9053"/><path d="m446.832031 482.941406-26.699219 45.128906 38.921876-18.800781z" fill="#d8884e"/><path d="m474.28125 471.851562-17.484375-10.90625 25.855469 2.351563z" fill="#f5c492"/><path d="m456.796875 460.945312-9.964844 21.996094 27.449219-11.089844z" fill="#f3b073"/><path d="m456.796875 460.945312-26.320313-.5625 16.355469 22.558594z" fill="#f2ab6e"/><path d="m430.476562 460.382812-25.574218 14.289063 41.929687 8.269531z" fill="#eba463"/><path d="m430.476562 460.382812-34.597656-2.445312 9.023438 16.734375z" fill="#f3be88"/><path d="m404.902344 474.671875 15.230468 53.398437 26.699219-45.128906z" fill="#e4975a"/><path d="m404.902344 474.671875-27.074219 16.167969 18.050781-32.902344z" fill="#f3bb85"/><path d="m377.828125 490.839844 42.304687 37.230468-15.230468-53.398437z" fill="#e6995d"/><path d="m377.828125 490.839844-30.648437-22.5625 48.699218-10.339844z" fill="#f4c089"/><path d="m347.179688 468.277344-25.761719 20.871094 56.410156 1.691406z" fill="#f6c28a"/><path d="m347.179688 468.277344 15.230468-16.921875 33.46875 6.582031z" fill="#fac58f"/><path d="m395.878906 457.9375-44-29.710938 10.53125 23.128907z" fill="#fabd74"/><path d="m395.878906 457.9375-30.648437-33.28125 43.054687 29.332031z" fill="#ee9353"/><path d="m365.230469 424.65625-13.351563 3.570312 44 29.710938z" fill="#f8aa62"/><path d="m365.230469 424.65625 12.972656-11.09375 30.082031 40.425781z" fill="#f7ac72"/><path d="m365.230469 424.65625-13.351563-6.582031 26.324219-4.511719z" fill="#f0ad74"/><path d="m351.878906 418.074219v10.152343l13.351563-3.570312z" fill="#fbc792"/><path d="m351.878906 418.074219-17.859375-.5625 17.859375 10.714843z" fill="#fbce9d"/><path d="m357.898438 573.945312-46.457032 10.007813-22.195312-39.503906z" fill="#9b5429"/><path d="m371.433594 545.179688-82.1875-.730469 68.652344 29.496093z" fill="#a65d2e"/><path d="m420.132812 528.070312-76.710937-12.964843 28.011719 30.074219z" fill="#c47341"/><path d="m377.828125 490.839844-34.40625 24.265625 76.710937 12.964843z" fill="#dd8d56"/><path d="m321.417969 489.148438 22.003906 25.957031 34.40625-24.265625z" fill="#eca869"/><path d="m343.421875 515.105469-54.175781 29.34375 82.1875.730469z" fill="#c77a45"/><path d="m321.417969 489.148438-32.171875 55.300781 54.175781-29.34375z" fill="#dd9259"/><path d="m321.417969 489.148438-93.871094 21.820312 61.699219 33.480469z" fill="#dc8c53"/><path d="m408.285156 453.988281-2.816406-29.707031-27.265625-10.71875z" fill="#f1a26c"/><path d="m405.46875 424.28125 16.355469 24.628906-13.539063 5.078125z" fill="#de8455"/><path d="m405.46875 424.28125 7.707031-8.648438 8.648438 33.277344z" fill="#d56333"/><path d="m405.46875 424.28125-9.777344-19.929688 17.484375 11.28125z" fill="#d46b37"/><path d="m395.691406 404.351562-17.488281 9.210938 27.265625 10.71875z" fill="#e19459"/><path d="m395.691406 404.351562 34.40625-15.984374-16.921875 27.265624z" fill="#de7f47"/><path d="m421.824219 448.910156 24.632812-13.726562-33.28125-19.550782z" fill="#e07b4c"/><path d="m430.097656 388.367188 16.359375 46.816406-33.28125-19.550782z" fill="#e37e4b"/><path d="m430.097656 388.367188 23.691406-7.519532-7.332031 54.335938z" fill="#e78350"/><path d="m453.789062 380.847656 14.480469 24.441406-21.8125 29.894532z" fill="#f29b6b"/><path d="m453.789062 380.847656 16.921876-1.695312-2.441407 26.136718z" fill="#fab27f"/><path d="m468.269531 405.289062 14.476563-14.289062-12.035156-11.847656z" fill="#fcd2ac"/><path d="m468.269531 405.289062 12.21875 4.890626 2.257813-19.179688z" fill="#fcd5b3"/><path d="m446.457031 435.183594 34.03125-25.003906-12.21875-4.890626z" fill="#fab58b"/><path d="m347.179688 468.277344 4.699218-40.050782 10.53125 23.128907z" fill="#fcce9d"/><path d="m334.019531 417.511719-19.371093 26.699219-30.269532-7.707032z" fill="#f2b881"/><path d="m314.648438 444.210938 37.230468-15.984376-17.859375-10.714843z" fill="#fbcd9d"/><path d="m314.648438 444.210938 32.53125 24.066406 4.699218-40.050782z" fill="#fcd7ae"/><path d="m314.648438 444.210938 6.769531 44.9375 25.761719-20.871094z" fill="#fbd1a2"/><path d="m321.417969 489.148438-60.386719-15.421876 53.617188-29.515624z" fill="#facb98"/><path d="m261.03125 473.726562-33.484375 37.242188 93.871094-21.820312z" fill="#f0ac70"/><path d="m261.03125 473.726562 23.347656-37.222656 30.269532 7.707032z" fill="#f5c28c"/><path d="m261.03125 473.726562-15.050781-22.953124 38.398437-14.269532z" fill="#edb57b"/><path d="m261.03125 473.726562-44.769531 2.628907 29.71875-25.582031z" fill="#e4a564"/><path d="m216.261719 476.355469 11.285156 34.613281 33.484375-37.242188z" fill="#e8a062"/><path d="m216.261719 476.355469-33.484375 36.496093 44.769531-1.882812z" fill="#db9254"/><path d="m227.546875 510.96875-47.777344 27.839844 30.097657 36.867187z" fill="#c76d37"/><path d="m179.769531 538.808594 3.007813-25.957032 44.769531-1.882812z" fill="#d58649"/><path d="m179.769531 538.808594-58.3125 34.234375 61.320313-60.191407z" fill="#cf8d4e"/><path d="m209.867188 575.675781 79.378906-31.226562-61.699219-33.480469z" fill="#bf6c39"/><path d="m209.867188 575.675781 101.574218 8.277344-22.195312-39.503906z" fill="#a2572a"/><path d="m209.867188 575.675781 54.550781 24.078125 47.023437-15.800781z" fill="#a05a2f"/><path d="m264.417969 599.753906-46.652344 3.386719 1.128906 28.964844z" fill="#c38656"/><path d="m209.867188 575.675781 7.898437 27.464844 46.652344-3.386719z" fill="#b56e3e"/><path d="m188.296875 674.300781-12.972656-37.742187-28.957031 37.742187z" fill="#e3ac80"/><path d="m188.296875 674.300781 17.863281-29.28125-30.835937-8.460937z" fill="#e6b285"/><path d="m206.160156 645.019531 12.734375-12.914062-43.570312 4.453125z" fill="#d69b6b"/><path d="m217.765625 603.140625-42.441406 33.417969 43.570312-4.453125z" fill="#ce8d5d"/><path d="m209.867188 575.675781-52.78125 22.527344 60.679687 4.9375z" fill="#ba6b38"/><path d="m157.085938 598.203125 18.238281 38.355469 42.441406-33.417969z" fill="#c07442"/><path d="m157.085938 598.203125-10.71875 76.097656 28.957031-37.742187z" fill="#bd6e3e"/><path d="m157.085938 598.203125-75.128907 76.097656h64.410157z" fill="#b76a37"/><path d="m157.085938 598.203125 22.683593-59.394531 30.097657 36.867187z" fill="#c4753c"/><path d="m157.085938 598.203125-35.628907-25.160156 58.3125-34.234375z" fill="#c88044"/><path d="m121.457031 573.042969-39.5 101.257812 75.128907-76.097656z" fill="#bb7840"/><path d="m121.457031 573.042969-120.761719 101.257812h81.261719z" fill="#c47c43"/><path d="m479.128906 460.132812-4.367187-72.949218-32.765625 75.128906z" fill="#fd8f14"/><path d="m479.128906 460.132812 30.140625-37.570312-34.507812-35.378906z" fill="#fd5f07"/><path d="m509.269531 422.5625-22.277343-88.671875-12.230469 53.292969z" fill="#f94102"/><path d="m474.761719 387.183594-19.660157-80.375 31.890626 27.082031z" fill="#f22f04"/><path d="m474.761719 387.183594-27.523438-17.472656 7.863281-62.902344z" fill="#f42702"/><path d="m447.238281 369.710938-5.242187 92.601562 32.765625-75.128906z" fill="#f63903"/><path d="m441.996094 462.3125-12.664063-59.839844 17.90625-32.761718z" fill="#f62b02"/><path d="m441.996094 462.3125-34.070313-49.359375-5.679687 43.683594z" fill="#f3462d"/><path d="m407.925781 412.953125 21.40625-10.480469 12.664063 59.839844z" fill="#fa790f"/><path d="m407.925781 412.953125-28.828125-38.4375 23.148438 82.121094z" fill="#f59911"/><path d="m429.332031 402.472656-50.234375-27.957031 28.828125 38.4375z" fill="#fdae0b"/><path d="m429.332031 402.472656-27.957031-67.707031 45.863281 34.945313z" fill="#fe7504"/><path d="m509.269531 422.5625 4.800781 23.152344-34.941406 14.417968z" fill="#fcb45c"/><path d="m509.269531 422.5625 28.828125-39.746094-24.027344 62.898438z" fill="#fd9d1a"/><path d="m538.097656 382.816406-51.105468-48.925781 22.277343 88.671875z" fill="#fe9e0e"/><path d="m538.097656 382.816406 17.039063 29.703125-41.066407 33.195313z" fill="#fb4f21"/><path d="m555.136719 412.519531 27.828125-38.003906-6.425782-20.96875z" fill="#fd9c2e"/><path d="m538.097656 382.816406 38.441406-29.269531-21.402343 58.972656z" fill="#fc3406"/><path d="m576.539062 353.546875 18.78125-43.679687-12.355468 64.648437z" fill="#fbd378"/><path d="m576.539062 353.546875-10.484374-26.207031 29.265624-17.472656z" fill="#fdc246"/><path d="m486.992188 333.890625 26.207031-11.355469 24.898437 60.28125z" fill="#fe8f09"/><path d="m576.539062 353.546875-63.339843-31.011719 24.898437 60.28125z" fill="#fe5505"/><path d="m566.054688 327.339844-52.855469-4.804688 63.339843 31.011719z" fill="#fe6c14"/><path d="m566.054688 327.339844-47.175782-37.566406-5.679687 32.761718z" fill="#fe600d"/><path d="m486.992188 333.890625 2.183593-40.621094-34.074219 13.539063z" fill="#febe0e"/><path d="m513.199219 322.535156-24.023438-29.265625-2.183593 40.621094z" fill="#fea009"/><path d="m489.175781 293.269531 29.703125-3.496093-5.679687 32.761718z" fill="#fe7f02"/><path d="m489.175781 293.269531-43.683593-46.742187 9.609374 60.28125z" fill="#fed10b"/><path d="m489.175781 293.269531 10.480469-42.808593-54.164062-3.933594z" fill="#fed00a"/><path d="m499.65625 250.460938 19.222656 39.3125-29.703125 3.496093z" fill="#feab07"/><path d="m499.65625 250.460938 22.28125 10.046874-10.046875-31.890624z" fill="#feb80a"/><path d="m521.9375 260.507812-3.058594 29.265626-19.222656-39.3125z" fill="#feac07"/><path d="m521.9375 260.507812 44.117188 66.832032-47.175782-37.566406z" fill="#fe841a"/><path d="m521.9375 260.507812 35.816406-14.417968 8.300782 81.25z" fill="#fea33b"/><path d="m511.890625 228.617188 45.863281 17.472656-35.816406 14.417968z" fill="#fe9a0a"/><path d="m511.890625 228.617188 20.964844-26.644532 24.898437 44.117188z" fill="#fdad33"/><path d="m532.855469 201.972656-28.828125-43.246094-9.171875 37.128907z" fill="#fef15a"/><path d="m511.890625 228.617188-17.035156-32.761719 38 6.117187z" fill="#fdbc16"/><path d="m499.65625 250.460938-4.800781-54.605469 17.035156 32.761719z" fill="#ff9400"/><path d="m499.65625 250.460938-45.863281-35.382813 41.0625-19.222656z" fill="#fd6404"/><path d="m453.792969 215.078125-8.300781 31.449219 54.164062 3.933594z" fill="#fdb309"/><path d="m453.792969 215.078125-22.714844-42.371094 14.414063 73.820313z" fill="#fea105"/><path d="m447.238281 369.710938-21.402343-77.753907 29.265624 14.851563z" fill="#fe9a06"/><path d="m401.375 334.765625 11.355469-26.648437-33.632813-24.460938z" fill="#f63b0d"/><path d="m412.730469 308.117188 34.507812 61.59375-45.863281-34.945313z" fill="#fd6102"/><path d="m412.730469 308.117188 13.105469-16.160157 21.402343 77.753907z" fill="#fd7903"/><path d="m412.730469 308.117188-32.757813-86.488282-.875 62.027344z" fill="#f14232"/><path d="m425.835938 291.957031 19.65625-45.429687 9.609374 60.28125z" fill="#feae07"/><path d="m379.097656 374.515625.875 65.085937 22.273438 17.035157z" fill="#fa982f"/><path d="m379.097656 374.515625-31.886718 33.195313 32.761718 31.890624z" fill="#f4430d"/><path d="m379.097656 374.515625 4.804688-38.003906-37.128906-9.171875z" fill="#ff8f12"/><path d="m379.097656 374.515625-38.441406-7.863281 6.554688 41.058594z" fill="#f95312"/><path d="m340.65625 366.652344 6.117188-39.3125 32.324218 47.175781z" fill="#ff860b"/><path d="m340.65625 366.652344-14.414062-19.65625 20.53125-19.65625z" fill="#fcb356"/><path d="m326.242188 346.996094 20.96875 60.714844-6.554688-41.058594z" fill="#fa9e5d"/><path d="m383.902344 336.511719 45.429687 65.960937-50.234375-27.957031z" fill="#fd8b06"/><path d="m383.902344 336.511719 17.472656-1.746094 27.957031 67.707031z" fill="#ff6b06"/><path d="m383.902344 336.511719-4.804688-52.855469 22.277344 51.109375z" fill="#fd860f"/><path d="m383.902344 336.511719-31.886719-37.566407-5.242187 28.394532z" fill="#feaf66"/><path d="m352.015625 298.945312 27.082031-15.289062 4.804688 52.855469z" fill="#fdc14c"/><path d="m352.015625 298.945312 3.699219-54.382812 23.382812 39.09375z" fill="#fef0b4"/><path d="m425.835938 291.957031-45.863282-70.328125 32.757813 86.488282z" fill="#fc6517"/><path d="m425.835938 291.957031 5.242187-119.25 14.414063 73.820313z" fill="#fe9806"/><path d="m453.792969 215.078125-4.804688-127.113281-17.910156 84.742187z" fill="#fe9832"/><path d="m494.855469 195.855469-25.773438-37.128907-15.289062 56.351563z" fill="#fd954b"/><path d="m469.082031 158.726562-20.09375-70.761718 4.804688 127.113281z" fill="#feaa7b"/><path d="m431.078125 172.707031-12.570313-33.398437 30.480469-51.34375z" fill="#ffb868"/><path d="m431.078125 172.707031-21.84375 51.105469 16.601563 68.144531z" fill="#fe8715"/><path d="m409.234375 223.8125-29.261719-2.183594 45.863282 70.328125z" fill="#fc8d42"/><path d="m409.234375 223.8125-20.089844-44.550781-9.171875 42.367187z" fill="#faa98e"/><path d="m409.234375 223.8125 9.273437-84.503906 12.570313 33.398437z" fill="#fda64e"/><path d="m409.234375 223.8125-20.089844-44.550781 29.363281-39.953125" fill="#fdd1a8"/><path d="m326.242188 346.996094v-55.039063l20.53125 35.382813z" fill="#fdc246"/><path d="m352.015625 298.945312-25.773437-6.988281 20.53125 35.382813z" fill="#fbd378"/><path d="m578.449219 422.023438 21.621093 6.203124-17.105468-16.167968z" fill="#ca6434"/><path d="m613.046875 402.28125-30.082031 9.777344 17.105468 16.167968z" fill="#d16939"/><path d="m613.046875 402.28125-18.804687-22-11.277344 31.777344z" fill="#d36837"/><path d="m558.144531 449.285156-12.035156 37.417969 17.296875-5.828125z" fill="#ba5d2e"/><path d="m558.144531 449.285156 11.09375-16.542968-5.832031 48.132812z" fill="#be632e"/><path d="m569.238281 432.742188 9.210938-10.71875 21.621093 6.203124z" fill="#d06f37"/><path d="m569.238281 432.742188 8.460938 7.707031-14.292969 40.425781z" fill="#c76832"/><path d="m569.238281 432.742188 8.460938 7.707031 22.371093-12.222657z" fill="#d06e37"/><path d="m588.792969 460.945312-11.09375-20.496093 22.371093-12.222657z" fill="#da7a42"/><path d="m588.792969 460.945312-25.386719 19.929688 14.292969-40.425781z" fill="#d67640"/><path d="m588.792969 460.945312-12.222657 24.820313 16.921876-1.882813z" fill="#f6b985"/><path d="m576.570312 485.765625-13.164062-4.890625 25.386719-19.929688z" fill="#de864d"/><path d="m536.519531 403.972656 11.660157-8.648437-8.839844-20.117188z" fill="#d36334"/><path d="m536.519531 403.972656-3.757812-27.261718 6.578125-1.503907z" fill="#fee9c9"/><path d="m539.339844 375.207031-.785156-4.632812-5.792969 6.136719z" fill="#fff9dd"/><path d="m527.242188 392.773438 5.519531-16.0625 3.757812 27.261718z" fill="#fde8cb"/><path d="m525.082031 368.820312 2.160157 23.953126 5.519531-16.0625z" fill="#fac69b"/><path d="m536.519531 403.972656.375 27.828125-10.902343-14.289062z" fill="#fcd49e"/><path d="m527.242188 392.773438-1.25 24.738281 10.527343-13.539063z" fill="#fcddb9"/><path d="m527.242188 392.773438-6.515626-10.234376 4.355469-13.71875z" fill="#f89c67"/><path d="m527.242188 392.773438-7.644532 16.277343 6.394532 8.460938z" fill="#f7a575"/><path d="m569.613281 369.5625 2.257813-34.03125-6.769532 5.453125z" fill="#fdead3"/><path d="m569.613281 369.5625-9.589843-11.464844 5.078124-17.113281z" fill="#ffe5ce"/><path d="m569.613281 369.5625-4.136719 33.09375-5.453124-44.558594z" fill="#fcdfbb"/><path d="m554.195312 394.570312 5.828126-36.472656 5.453124 44.558594z" fill="#fbc799"/><path d="m565.101562 340.984375-7.148437-12.03125 13.917969 6.578125z" fill="#fcdab4"/><path d="m557.953125 328.953125 2.070313 29.144531 5.078124-17.113281z" fill="#fbc69b"/><path d="m557.953125 328.953125-14.476563 6.953125 16.546876 22.191406z" fill="#f18c56"/><path d="m560.023438 358.097656-26.886719-6.019531 10.339843-16.171875z" fill="#e07643"/><path d="m538.554688 370.574219-6.613282-1.097657.820313 7.234376z" fill="#feca94"/><path d="m531.941406 369.476562-6.859375-.65625 7.679688 7.890626z" fill="#efc49f"/><path d="m531.941406 369.476562 1.195313-17.398437 5.417969 18.496094z" fill="#ca7242"/><path d="m538.554688 370.574219 21.46875-12.476563-26.886719-6.019531z" fill="#da6e3c"/><path d="m551.007812 374.832031 3.1875 19.738281 5.828126-36.472656z" fill="#f49663"/><path d="m551.007812 374.832031-12.453124-4.257812 21.46875-12.476563z" fill="#e67745"/><path d="m551.007812 374.832031-11.667968.375-.785156-4.632812z" fill="#dc7342"/><path d="m551.007812 374.832031-2.828124 20.492188-8.839844-20.117188z" fill="#de6837"/><path d="m551.007812 374.832031 3.1875 19.738281-6.015624.753907z" fill="#eb834d"/><path d="m563.21875 431.234375 2.257812-28.578125-11.28125-8.085938z" fill="#fcdaad"/><path d="m563.21875 431.234375-5.074219 18.050781-6.957031-18.050781z" fill="#fcd4a1"/><path d="m551.1875 431.234375 3.007812-36.664063 9.023438 36.664063z" fill="#fccd91"/><path d="m548.179688 395.324219 3.007812 35.910156 3.007812-36.664063z" fill="#f18e4d"/><path d="m548.179688 395.324219-11.285157 36.476562-.375-27.828125z" fill="#d86d33"/><path d="m548.179688 395.324219 3.007812 35.910156-14.292969.566406z" fill="#e37938"/><path d="m546.109375 486.703125-6.390625-25.757813 18.425781-11.660156z" fill="#fbcd9a"/><path d="m539.71875 460.945312 11.46875-29.710937 6.957031 18.050781z" fill="#fbc58c"/><path d="m539.71875 460.945312-2.824219-29.144531 14.292969-.566406z" fill="#ed8e48"/><path d="m539.71875 460.945312-10.90625 3.574219 8.082031-32.71875z" fill="#e78a46"/><path d="m539.71875 460.945312-18.242188 20.492188 7.335938-16.917969z" fill="#e4864a"/><path d="m539.71875 460.945312-16.546875 41.738282 22.9375-15.980469z" fill="#ebaa77"/><path d="m521.476562 481.4375 1.695313 21.246094 16.546875-41.738282z" fill="#e19057"/><path d="m517.34375 437.253906-14.480469-11.09375-.753906 12.222656z" fill="#d2793b"/><path d="m517.34375 437.253906 2.253906-28.203125-16.734375 17.109375z" fill="#dd7c44"/><path d="m517.34375 437.253906 8.648438-19.742187-6.394532-8.460938z" fill="#ef955e"/><path d="m517.34375 437.253906 19.550781-5.453125-10.902343-14.289062z" fill="#fabe88"/><path d="m517.34375 437.253906 11.46875 27.265625 8.082031-32.71875z" fill="#facb91"/><path d="m503.238281 481.0625 25.574219-16.542969-7.335938 16.917969z" fill="#fbcd9b"/><path d="m503.238281 481.0625 14.105469-43.808594 11.46875 27.265625z" fill="#f7ba84"/><path d="m486.128906 480.3125 31.214844-43.058594-14.105469 43.808594z" fill="#e38c51"/><path d="m502.109375 438.382812-15.980469 41.929688 31.214844-43.058594z" fill="#dd8449"/><path d="m502.109375 438.382812-19.457031 24.914063 3.476562 17.015625z" fill="#d68347"/><path d="m502.863281 426.160156 1.691407-36.476562 15.042968 19.367187z" fill="#db7742"/><path d="m520.726562 382.539062-1.128906 26.511719 7.644532-16.277343z" fill="#f38e5d"/><path d="m520.726562 382.539062-16.171874 7.144532 15.042968 19.367187z" fill="#e27643"/><path d="m520.726562 382.539062-6.769531-7.332031-9.402343 14.476563z" fill="#df7e43"/><path d="m513.957031 375.207031 11.125-6.386719-4.355469 13.71875z" fill="#ed894f"/></g></svg>