<svg height="184pt" viewBox="88 88 184 184" width="184pt" xmlns="http://www.w3.org/2000/svg"><g fill="none"><path d="m99 99h18v18h-18z" fill="#000"/><path d="m99 99h18v18h-18z" stroke="#000" stroke-linecap="round" stroke-linejoin="round"/><path d="m117 99h18v18h-18z" fill="#000"/><path d="m117 99h18v18h-18z" stroke="#000" stroke-linecap="round" stroke-linejoin="round"/><path d="m135 99h18v18h-18z" fill="#000"/><path d="m135 99h18v18h-18z" stroke="#000" stroke-linecap="round" stroke-linejoin="round"/><path d="m153 99h18v18h-18z" fill="#000"/><path d="m153 99h18v18h-18z" stroke="#000" stroke-linecap="round" stroke-linejoin="round"/><path d="m171 99h18v18h-18z" fill="#000"/><path d="m171 99h18v18h-18z" stroke="#000" stroke-linecap="round" stroke-linejoin="round"/><path d="m189 99h18v18h-18z" fill="#000"/><path d="m189 99h18v18h-18z" stroke="#000" stroke-linecap="round" stroke-linejoin="round"/><path d="m207 99h18v18h-18z" fill="#000"/><path d="m207 99h18v18h-18z" stroke="#000" stroke-linecap="round" stroke-linejoin="round"/><path d="m225 99h18v18h-18z" fill="#000"/><path d="m225 99h18v18h-18z" stroke="#000" stroke-linecap="round" stroke-linejoin="round"/><path d="m243 99h18v18h-18z" fill="#000"/><path d="m243 99h18v18h-18z" stroke="#000" stroke-linecap="round" stroke-linejoin="round"/><path d="m99 117h18v18h-18z" fill="#000"/><path d="m99 117h18v18h-18z" stroke="#000" stroke-linecap="round" stroke-linejoin="round"/><path d="m117 117h18v18h-18z" fill="#fff"/><path d="m117 117h18v18h-18z" stroke="#000" stroke-linecap="round" stroke-linejoin="round"/><path d="m135 117h18v18h-18z" fill="#000"/><path d="m135 117h18v18h-18z" stroke="#000" stroke-linecap="round" stroke-linejoin="round"/><path d="m153 117h18v18h-18z" fill="#000"/><path d="m153 117h18v18h-18z" stroke="#000" stroke-linecap="round" stroke-linejoin="round"/><path d="m171 117h18v18h-18z" fill="#fff"/><path d="m171 117h18v18h-18z" stroke="#000" stroke-linecap="round" stroke-linejoin="round"/><path d="m189 117h18v18h-18z" fill="#fff"/><path d="m189 117h18v18h-18z" stroke="#000" stroke-linecap="round" stroke-linejoin="round"/><path d="m207 117h18v18h-18z" fill="#000"/><path d="m207 117h18v18h-18z" stroke="#000" stroke-linecap="round" stroke-linejoin="round"/><path d="m225 117h18v18h-18z" fill="#fff"/><path d="m225 117h18v18h-18z" stroke="#000" stroke-linecap="round" stroke-linejoin="round"/><path d="m243 117h18v18h-18z" fill="#fff"/><path d="m243 117h18v18h-18z" stroke="#000" stroke-linecap="round" stroke-linejoin="round"/><path d="m99 135h18v18h-18z" fill="#000"/><path d="m99 135h18v18h-18z" stroke="#000" stroke-linecap="round" stroke-linejoin="round"/><path d="m117 135h18v18h-18z" fill="#fff"/><path d="m117 135h18v18h-18z" stroke="#000" stroke-linecap="round" stroke-linejoin="round"/><path d="m135 135h18v18h-18z" fill="#000"/><path d="m135 135h18v18h-18z" stroke="#000" stroke-linecap="round" stroke-linejoin="round"/><path d="m153 135h18v18h-18z" fill="#fff"/><path d="m153 135h18v18h-18z" stroke="#000" stroke-linecap="round" stroke-linejoin="round"/><path d="m171 135h18v18h-18z" fill="#000"/><path d="m171 135h18v18h-18z" stroke="#000" stroke-linecap="round" stroke-linejoin="round"/><path d="m189 135h18v18h-18z" fill="#fff"/><path d="m189 135h18v18h-18z" stroke="#000" stroke-linecap="round" stroke-linejoin="round"/><path d="m207 135h18v18h-18z" fill="#fff"/><path d="m207 135h18v18h-18z" stroke="#000" stroke-linecap="round" stroke-linejoin="round"/><path d="m225 135h18v18h-18z" fill="#fff"/><path d="m225 135h18v18h-18z" stroke="#000" stroke-linecap="round" stroke-linejoin="round"/><path d="m243 135h18v18h-18z" fill="#fff"/><path d="m243 135h18v18h-18z" stroke="#000" stroke-linecap="round" stroke-linejoin="round"/><path d="m99 153h18v18h-18z" fill="#000"/><path d="m99 153h18v18h-18z" stroke="#000" stroke-linecap="round" stroke-linejoin="round"/><path d="m117 153h18v18h-18z" fill="#000"/><path d="m117 153h18v18h-18z" stroke="#000" stroke-linecap="round" stroke-linejoin="round"/><path d="m135 153h18v18h-18z" fill="#fff"/><path d="m135 153h18v18h-18z" stroke="#000" stroke-linecap="round" stroke-linejoin="round"/><path d="m153 153h18v18h-18z" fill="#000"/><path d="m153 153h18v18h-18z" stroke="#000" stroke-linecap="round" stroke-linejoin="round"/><path d="m171 153h18v18h-18z" fill="#fff"/><path d="m171 153h18v18h-18z" stroke="#000" stroke-linecap="round" stroke-linejoin="round"/><path d="m189 153h18v18h-18z" fill="#fff"/><path d="m189 153h18v18h-18z" stroke="#000" stroke-linecap="round" stroke-linejoin="round"/><path d="m207 153h18v18h-18z" fill="#000"/><path d="m207 153h18v18h-18z" stroke="#000" stroke-linecap="round" stroke-linejoin="round"/><path d="m225 153h18v18h-18z" fill="#fff"/><path d="m225 153h18v18h-18z" stroke="#000" stroke-linecap="round" stroke-linejoin="round"/><path d="m243 153h18v18h-18z" fill="#fff"/><path d="m243 153h18v18h-18z" stroke="#000" stroke-linecap="round" stroke-linejoin="round"/><path d="m99 171h18v18h-18z" fill="#000"/><path d="m99 171h18v18h-18z" stroke="#000" stroke-linecap="round" stroke-linejoin="round"/><path d="m117 171h18v18h-18z" fill="#fff"/><path d="m117 171h18v18h-18z" stroke="#000" stroke-linecap="round" stroke-linejoin="round"/><path d="m135 171h18v18h-18z" fill="#fff"/><path d="m135 171h18v18h-18z" stroke="#000" stroke-linecap="round" stroke-linejoin="round"/><path d="m153 171h18v18h-18z" fill="#000"/><path d="m153 171h18v18h-18z" stroke="#000" stroke-linecap="round" stroke-linejoin="round"/><path d="m171 171h18v18h-18z" fill="#000"/><path d="m171 171h18v18h-18z" stroke="#000" stroke-linecap="round" stroke-linejoin="round"/><path d="m189 171h18v18h-18z" fill="#fff"/><path d="m189 171h18v18h-18z" stroke="#000" stroke-linecap="round" stroke-linejoin="round"/><path d="m207 171h18v18h-18z" fill="#fff"/><path d="m207 171h18v18h-18z" stroke="#000" stroke-linecap="round" stroke-linejoin="round"/><path d="m225 171h18v18h-18z" fill="#fff"/><path d="m225 171h18v18h-18z" stroke="#000" stroke-linecap="round" stroke-linejoin="round"/><path d="m243 171h18v18h-18z" fill="#fff"/><path d="m243 171h18v18h-18z" stroke="#000" stroke-linecap="round" stroke-linejoin="round"/><path d="m99 189h18v18h-18z" fill="#000"/><path d="m99 189h18v18h-18z" stroke="#000" stroke-linecap="round" stroke-linejoin="round"/><path d="m117 189h18v18h-18z" fill="#fff"/><path d="m117 189h18v18h-18z" stroke="#000" stroke-linecap="round" stroke-linejoin="round"/><path d="m135 189h18v18h-18z" fill="#fff"/><path d="m135 189h18v18h-18z" stroke="#000" stroke-linecap="round" stroke-linejoin="round"/><path d="m153 189h18v18h-18z" fill="#fff"/><path d="m153 189h18v18h-18z" stroke="#000" stroke-linecap="round" stroke-linejoin="round"/><path d="m171 189h18v18h-18z" fill="#fff"/><path d="m171 189h18v18h-18z" stroke="#000" stroke-linecap="round" stroke-linejoin="round"/><path d="m189 189h18v18h-18z" fill="#000"/><path d="m189 189h18v18h-18z" stroke="#000" stroke-linecap="round" stroke-linejoin="round"/><path d="m207 189h18v18h-18z" fill="#fff"/><path d="m207 189h18v18h-18z" stroke="#000" stroke-linecap="round" stroke-linejoin="round"/><path d="m225 189h18v18h-18z" fill="#000"/><path d="m225 189h18v18h-18z" stroke="#000" stroke-linecap="round" stroke-linejoin="round"/><path d="m243 189h18v18h-18z" fill="#fff"/><path d="m243 189h18v18h-18z" stroke="#000" stroke-linecap="round" stroke-linejoin="round"/><path d="m99 207h18v18h-18z" fill="#000"/><path d="m99 207h18v18h-18z" stroke="#000" stroke-linecap="round" stroke-linejoin="round"/><path d="m117 207h18v18h-18z" fill="#fff"/><path d="m117 207h18v18h-18z" stroke="#000" stroke-linecap="round" stroke-linejoin="round"/><path d="m135 207h18v18h-18z" fill="#000"/><path d="m135 207h18v18h-18z" stroke="#000" stroke-linecap="round" stroke-linejoin="round"/><path d="m153 207h18v18h-18z" fill="#fff"/><path d="m153 207h18v18h-18z" stroke="#000" stroke-linecap="round" stroke-linejoin="round"/><path d="m171 207h18v18h-18z" fill="#000"/><path d="m171 207h18v18h-18z" stroke="#000" stroke-linecap="round" stroke-linejoin="round"/><path d="m189 207h18v18h-18z" fill="#fff"/><path d="m189 207h18v18h-18z" stroke="#000" stroke-linecap="round" stroke-linejoin="round"/><path d="m207 207h18v18h-18z" fill="#000"/><path d="m207 207h18v18h-18z" stroke="#000" stroke-linecap="round" stroke-linejoin="round"/><path d="m225 207h18v18h-18z" fill="#fff"/><path d="m225 207h18v18h-18z" stroke="#000" stroke-linecap="round" stroke-linejoin="round"/><path d="m243 207h18v18h-18z" fill="#fff"/><path d="m243 207h18v18h-18z" stroke="#000" stroke-linecap="round" stroke-linejoin="round"/><path d="m99 225h18v18h-18z" fill="#000"/><path d="m99 225h18v18h-18z" stroke="#000" stroke-linecap="round" stroke-linejoin="round"/><path d="m117 225h18v18h-18z" fill="#fff"/><path d="m117 225h18v18h-18z" stroke="#000" stroke-linecap="round" stroke-linejoin="round"/><path d="m135 225h18v18h-18z" fill="#000"/><path d="m135 225h18v18h-18z" stroke="#000" stroke-linecap="round" stroke-linejoin="round"/><path d="m153 225h18v18h-18z" fill="#fff"/><path d="m153 225h18v18h-18z" stroke="#000" stroke-linecap="round" stroke-linejoin="round"/><path d="m171 225h18v18h-18z" fill="#fff"/><path d="m171 225h18v18h-18z" stroke="#000" stroke-linecap="round" stroke-linejoin="round"/><path d="m189 225h18v18h-18z" fill="#fff"/><path d="m189 225h18v18h-18z" stroke="#000" stroke-linecap="round" stroke-linejoin="round"/><path d="m207 225h18v18h-18z" fill="#fff"/><path d="m207 225h18v18h-18z" stroke="#000" stroke-linecap="round" stroke-linejoin="round"/><path d="m225 225h18v18h-18z" fill="#000"/><path d="m225 225h18v18h-18z" stroke="#000" stroke-linecap="round" stroke-linejoin="round"/><path d="m243 225h18v18h-18z" fill="#000"/><path d="m243 225h18v18h-18z" stroke="#000" stroke-linecap="round" stroke-linejoin="round"/><path d="m99 243h18v18h-18z" fill="#000"/><path d="m99 243h18v18h-18z" stroke="#000" stroke-linecap="round" stroke-linejoin="round"/><path d="m117 243h18v18h-18z" fill="#fff"/><path d="m117 243h18v18h-18z" stroke="#000" stroke-linecap="round" stroke-linejoin="round"/><path d="m135 243h18v18h-18z" fill="#fff"/><path d="m135 243h18v18h-18z" stroke="#000" stroke-linecap="round" stroke-linejoin="round"/><path d="m153 243h18v18h-18z" fill="#fff"/><path d="m153 243h18v18h-18z" stroke="#000" stroke-linecap="round" stroke-linejoin="round"/><path d="m171 243h18v18h-18z" fill="#000"/><path d="m171 243h18v18h-18z" stroke="#000" stroke-linecap="round" stroke-linejoin="round"/><path d="m189 243h18v18h-18z" fill="#fff"/><path d="m189 243h18v18h-18z" stroke="#000" stroke-linecap="round" stroke-linejoin="round"/><path d="m207 243h18v18h-18z" fill="#fff"/><path d="m207 243h18v18h-18z" stroke="#000" stroke-linecap="round" stroke-linejoin="round"/><path d="m225 243h18v18h-18z" fill="#000"/><path d="m225 243h18v18h-18z" stroke="#000" stroke-linecap="round" stroke-linejoin="round"/><path d="m243 243h18v18h-18z" fill="#000"/><path d="m243 243h18v18h-18z" stroke="#000" stroke-linecap="round" stroke-linejoin="round"/></g></svg>