<svg height="315.41907" viewBox="0 0 409.52243 315.41907" width="409.52243" xmlns="http://www.w3.org/2000/svg"><g transform="matrix(1.25 0 0 -1.25 -54.300757 365)"><path d="m44.5 40.75h325.5v250.5h-325.5z" fill="#fff"/><g fill="none" stroke-linecap="square" stroke-linejoin="round" stroke-miterlimit="10" stroke-width="1.5"><path d="m44.5 40.75h325.5" stroke="#262626"/><path d="m44.5 51.0738 1.0852-4.0164 1.0847-3.4844 1.0852-2.4628 1.0851 1.3046 1.0844 1.7981.775-3.4875" stroke="#0072bd"/><path d="m58.9066 40.7254.7832 3.1371 1.0852 4.8594 1.0852-2.2297 1.0847-3.3453.4688-2.4215" stroke="#0072bd"/><path d="m67.3398 40.7254 1.0305 2.3332 1.0844-.2508 1.0851-.9269.5559-1.1555" stroke="#0072bd"/><path d="m74.7535 40.7254.1266.5324 1.0847.857.5446-1.3894" stroke="#0072bd"/><path d="m77.9492 40.7254.186.2848 1.0847.7457 1.0852.1492 1.0851 1.2808 1.0844-1.1722.768-1.2883" stroke="#0072bd"/><path d="m84.073 40.7254.5723.5922 1.0844.7 1.0851-.7492 1.0856.0367.8773-.5797" stroke="#0072bd"/><path d="m90.418 40.7254.7371.9809 1.0847 2.7847 1.0852-1.6305 1.0852-1.7183 1.0847.9992 1.0852-.6926.3629-.7234" stroke="#0072bd"/><path d="m106.89 40.7254.54 1.7496 1.085.8445 1.085-2.1179.19-.4762" stroke="#0072bd"/><path d="m112.193 40.7254.662 2.4059 1.085 1.5156 1.085-1.0528 1.085-.8437 1.085.9359 1.085-.1883 1.085-.7117 1.085 1.3926 1.085.4613 1.085-.3629 1.085 1.4641 1.085 2.6137 1.085 3.0457 1.085 1.1219 1.085 2.0793 1.085 1.3054 1.085-2.766 1.085-3.6605 1.085-1.759 1.085-1.0422 1.085-.7899 1.085-.4921 1.085-.5743 1.085.4879 1.085 1.45 1.085-1.8429 1.085-1.0926 1.085-.3621 1.085-.9188 1.085-.0765 1.085 1.0804 1.085.109 1.085-.2789 1.085-.4262 1.085.2414 1.085.3571 1.085-1.068 1.085.3039 1.085 1.3875 1.085-1.1086 1.085-1.5097 1.085.6621 1.085-.4821.712-1.0109" stroke="#0072bd"/><path d="m161.021 40.7254.659.8797 1.085.8324 1.085 1.4602 1.085.507 1.085-.6391 1.085 1.386 1.085.8672 1.085-1.0418 1.085-2.4758 1.085-.1516 1.085 1.4004 1.085-.1168 1.085-.2883 1.085 1.1133 1.085 1.5289 1.085 1.8848 1.085-1.8778 1.085-2.9882 1.085.8265 1.085-.7469 1.085-.2257 1.085-.1532 1.085-.2668 1.085 1.2614 1.085.2965 1.085-.6715 1.085.3984 1.085 2.2469 1.085 1.0582 1.085-1.2051 1.085.2633 1.085-1.1043 1.085-3.1387 1.058-1.1195" stroke="#0072bd"/><path d="m204.255 40.7254.825 2.2672 1.085 2.4801 1.085.1949 1.085-1.4242 1.085-1.6313 1.085-.8992 1.085-.7981 1.085.2079 1.085.9195 1.085.1 1.085.4723 1.085-.9008 1.085-.6758 1.085 1.5758 1.085 1.5922 1.085-.636 1.085-1.7511 1.085 1.7257 1.085 1.8024 1.085-.5133 1.085-1.7473 1.085-.8304 1.085.1449 1.085.698 1.085-1.13 1.085-.4543 1.085-.5477.907-.2414" stroke="#0072bd"/><path d="m234.434 40.7254 1.026.818 1.085.4171 1.085.2571 1.085-.3492 1.085.1484 1.085-.0262 1.085-.582 1.085.3547 1.085-.7621.616-.2758" stroke="#0072bd"/><path d="m245.371 40.7254.939 1.3559 1.085.357 1.085-.8387.535-.8742" stroke="#0072bd"/><path d="m252.33 40.7254.49.7176 1.085-.6719.184-.0457" stroke="#0072bd"/><path d="m255.169 40.7254.906 1.1383 1.085 1.0179 1.085-1.614.446-.5422" stroke="#0072bd"/><path d="m266.052 40.7254.873.8062 1.085.9043 1.085-1.3027.983-.4078" stroke="#0072bd"/><path d="m270.321 40.7254.944.2848 1.085.8972 1.085.8235 1.085.4492 1.085.2797 1.085.4066 1.085-.4172 1.085-.4371 1.085-.2191 1.085-1.527.311-.5406" stroke="#0072bd"/><path d="m283.245 40.7254 1.04 2.2785 1.085-.523 1.085-.9621 1.085 1.1519 1.085.4082 1.085-.7562 1.085-.3293 1.08-1.268" stroke="#0072bd"/><path d="m295.871 40.7254.349.2535 1.085.5563 1.085-.7305 1.085.1664 1.085.3301 1.085.8484 1.085.9442 1.085.0218 1.085-.6129 1.085-.4718 1.085.9953 1.085.8633 1.085.657 1.085-1.0824 1.085-1.1047 1.085.3347 1.085-.8257 1.085-.3457 1.085.0269 1.085 1.0559 1.085.498 1.085.5903 1.085.2542 1.085-.1882 1.085.2297 1.085.0492 1.085-.5938 1.085.3313 1.085.1195 1.085-.0137 1.085.8266 1.085.7949 1.085.2895 1.085.414 1.085.8348 1.085-.4777 1.085.6593 1.085.8481 1.085-.3621 1.085-.7106 1.085-.5121 1.085-.0359 1.085-.3617 1.085.741 1.085 1.5219 1.085.1425 1.085-1.4769 1.085-1.6785 1.085-.9036 1.085.8618 1.085-.9008 1.085-2.1774 1.085-.3578 1.085.2934 1.085.1867 1.085.807 1.085 1.0297 1.085.4035 1.085-.1828 1.085.2739 1.085-.0879 1.085.0015 1.085-.3332 1.085-1.2523 1.085-.8332 1.085-.111 1.085.0672 1.085-.3711 1.085.4817" stroke="#0072bd"/><path d="m44.5 50.8465 1.0852 2.6504 1.0847.0886 1.0852-3.1449 1.0851-2.6511 1.0844 2.2882 1.0856.8266 1.0851-1.2652 1.0844-.786 1.0851 4.2973 1.0856 4.8348 1.0844-1.65 1.0851-2.4829 1.0852-.3433 1.0847 4.9523 1.0852 1.1063 1.0852-2.9176 1.0847-1.7574 1.0852-.6598 1.0851 1.2293 1.0844-1.282 1.0856.6347 1.0851-1.0109 1.0844-2.298 1.0851 1.2867 1.0856.2883 1.0844 1.3519 1.0851 2.6461 1.0852-.5555 1.0847-3.7824 1.0852-2.5726 1.0852 1.1355 1.0847 1.243 1.0852-2.3469 1.0851-2.2117 1.0844 3.6996 1.0856 2.5277 1.0851.1492 1.0844.9473 1.0851.0734 1.0856 1.5336 1.0844.7778 1.0851-1.1211 1.0852 1.2351 1.0847.925 1.0852-.0558 1.0852-3.3434 1.0847-2.2168 1.0852 2.1645 1.0851.9676 1.0844-1.7778 1.0856-1.2488 1.0848-.377 1.085.57 1.085.4222 1.085-.8312 1.085-.8871 1.085.8371 1.085.6769 1.085-.2668 1.085-.1484 1.085.0105 1.085-.6015 1.085 1.5988 1.085.2793 1.085-.5379 1.085.2789 1.085-.3074 1.085.5453 1.085.2738 1.085.35 1.085.9075 1.085 1.8429 1.085 1.4332 1.085.9008 1.085 1.3035 1.085 1.8809 1.085 4.866 1.085 3.3301 1.085-3.3766 1.085-6.1941 1.085-3.277 1.085-.5535 1.085 1.0742 1.085-.8152 1.085-1.5422 1.085.2086 1.085-1.1527 1.085.198 1.085 1.9875 1.085-.6547 1.085.0059 1.085-.3219 1.085-2.4449 1.085-1.6192 1.085 1.7094 1.085 1.0805 1.085-.7371 1.085-1.7617 1.085-.8739 1.085-.1207 1.085.4192 1.085.7582 1.085 1.7992 1.085-.6336 1.085-2.1539 1.085.3965 1.085.4254 1.085-2.3227 1.085-.8199 1.085 1.9547 1.085.5324 1.085-.4531 1.085-1.4797 1.085.6348 1.085 3.0101 1.085.3356 1.085-.8079 1.085-.3234 1.085-.0328 1.085-1.3387 1.085-.4215 1.085 1.4293 1.085.9774 1.085-.7379 1.085-.7777 1.085-1.7614 1.085-.5789 1.085 1.6754 1.085.4863 1.085.8368 1.085-1.1301 1.085-1.7363 1.085-.0106 1.085-.2031 1.085-.1754 1.085.2984 1.085-.0922 1.085.0621 1.085-.3195 1.085-1.5797 1.085-1.5644 1.085.6535 1.085 1.1644 1.085.7313 1.085 2.1176 1.085-.1098 1.085-.4328 1.085-.2203 1.085-1.0645 1.085-.2097 1.085.3703 1.085.3504 1.085.8144 1.085.4891 1.085-2.0004 1.085-1.9258 1.085.441 1.085-.7554 1.085-.7965 1.085 2.3601 1.085 1.5805 1.085-.7328 1.085-.0668 1.085.3797 1.085-.4028 1.085-.975 1.085-1.3097 1.085-.1348 1.085.4356 1.085-.5856 1.085-1.3254 1.085-.1535 1.085.3891 1.085 1.1257 1.085-.3968 1.085-.3121 1.085.1882 1.085.1973 1.085.1652 1.085.7567 1.085.8723 1.085-1.2067 1.085-1.5832 1.085-1.041 1.085-.2566 1.085-.82 1.085-.9125 1.085 1.7317 1.085 2.55 1.085-.0239 1.085-.4668 1.085-.6171 1.085-1.47 1.085.1379 1.085.3946 1.085-.0793 1.085-.0954 1.085-.8648 1.085-.3398 1.085 1.4777 1.085-.4238 1.085-.2774 1.085 1.1946 1.085-.9032 1.085-.1406 1.085 2.6961 1.085.2105 1.085-.9964 1.085.425 1.085.6039 1.085.498 1.085.1477 1.085-.6301 1.085-1.1063 1.085.009 1.085 1.2481 1.085.366 1.085-.177 1.085.6993 1.085.5976 1.085.8828 1.085.0957 1.085.3367 1.085 1.1754 1.085 2.4848 1.085 3.3121 1.085 3.1051 1.085 2.5535 1.085 2.7742 1.085 3.0414 1.085 1.8309 1.085-1.8617 1.085-2.8184 1.085-.2508 1.085-.2691 1.085-2.2852 1.085-3.4476 1.085-2.559 1.085-.9047 1.085-1.6078 1.085-2.6094 1.085-2.0078 1.085-.4996 1.085 1.173 1.085-.3703 1.085-1.9289 1.085.0156 1.085.4125 1.085-.207 1.085-.5152 1.085-1.6231 1.085-.7476 1.085.1875 1.085.4035 1.085-.6645 1.085.6817 1.085.4558 1.085-.6523 1.085.6562 1.085.5016 1.085.5469 1.085.8601 1.085.2911 1.085.0578 1.085.2027 1.085.402 1.085.3164 1.085.8355 1.085.1613 1.085-.1953 1.085-.2355 1.085.4015 1.085-.189 1.085-1.1071 1.085-1.1011 1.085-.2145 1.085.1711 1.085-.5781 1.085-.4758 1.085 1.2625 1.085.5496 1.085-1.1844 1.085-1.1847 1.085-.075 1.085.566 1.085-.384 1.085-1.3859 1.085-.5512 1.085.8332 1.085-.0531 1.085-.1875 1.085.5316 1.085-1.1543 1.085-.7386 1.085.8175 1.085-.1277 1.085-.6695 1.085.6472 1.085.7582 1.085-.273" stroke="#d95319"/><path d="m44.5 58.9766 1.0852 3.4738 1.0847 2.2996 1.0852-3.7703 1.0851-4.1527 1.0844-.4657 1.0856 4.7731 1.0851-.3074 1.0844-4.2032 1.0851-1.3914 1.0856 2.0117 1.0844.2735 1.0851 2.016 1.0852 2.3648 1.0847 2.5852 1.0852-2.5707 1.0852-2.6859 1.0847 1.5546 1.0852-.5734 1.0851-.4891 1.0844-.2046 1.0856.4656 1.0851.0586 1.0844-.3918 1.0851-.3434 1.0856-.539 1.0844 1.8546 1.0851 1.4528 1.0852-2.2106 1.0847-4.8703 1.0852-1.3371 1.0852 4.4774 1.0847 2.6738 1.0852-1.068 1.0851-2.7121 1.0844-.2121 1.0856.4828 1.0851-.4191 1.0844 1.6777 1.0851 1.6434 1.0856 2.5437 1.0844 2.2758 1.0851-1.9043 1.0852-2.0117 1.0847-1.0387 1.0852-.2879 1.0852-.909 1.0847-1.4011 1.0852.5207 1.0851 1.1488 1.0844-.4043 1.0856.9285 1.0848-.9133 1.085-1.1484 1.085-.3352 1.085-1.4304 1.085-.593 1.085 2.1523 1.085 1.527 1.085 1.2734 1.085.1563 1.085-1.8723 1.085-2.1582 1.085-.4492 1.085 2.943 1.085 1.4097 1.085-2.6332 1.085-.273 1.085 2.2011 1.085 1.1168 1.085.0161 1.085.582 1.085.8863 1.085.1336 1.085.6305 1.085 2.3941 1.085 2.1684 1.085 2.7773 1.085 2.1949 1.085-2.7785 1.085-5.3625 1.085-3.0082 1.085-1.084 1.085.5551 1.085-.9211 1.085-1.4293 1.085 1.9117 1.085.2137 1.085-.3426 1.085.7063 1.085-1.2531 1.085-1.6817 1.085-1.8859 1.085-1.4215 1.085.5609 1.085 2.0153 1.085 1.3605 1.085-.6644 1.085-.9621 1.085-1.5121 1.085-.4524 1.085-1.0012 1.085-.0488 1.085 1.3297 1.085.8492 1.085-.0742 1.085-.6195 1.085-1.809 1.085-1.2789 1.085-.9719 1.085.9703 1.085 2.2668 1.085.1606 1.085-.3071 1.085.6535 1.085.0192 1.085-1.1242 1.085-.0743 1.085-.4312 1.085.1687 1.085.9633 1.085 2.0555 1.085.5793 1.085-1.2129 1.085-.6129 1.085-1.0152 1.085-2.0102 1.085.8574 1.085 1.4625 1.085-1.4507 1.085-2.4036 1.085.2715 1.085 2.4606 1.085 1.2863 1.085-.7727 1.085-.6882 1.085-.2762 1.085.0512 1.085-.4289 1.085-.3661 1.085-1.189 1.085-2.0039 1.085.4922 1.085 1.5906 1.085 1.3746 1.085 2.5059 1.085-.4079 1.085-1.9957 1.085-1.8722 1.085-.7492 1.085-.2571 1.085.3762 1.085 1.8473 1.085.4382 1.085-.2339 1.085-.5329 1.085-1.3835 1.085-.2461 1.085-.7567 1.085.5274 1.085 2.0953 1.085.4379 1.085-.4192 1.085-.9586 1.085.6707 1.085 1.2629 1.085-1.1609 1.085-2.3723 1.085-.6586 1.085.0918 1.085-1.8211 1.085-1.4984 1.085.9203 1.085.5797 1.085.1894 1.085 1.1899 1.085-.1106 1.085-1.1668 1.085-.1019 1.085.7777 1.085.8699 1.085.5016 1.085-1.6094 1.085-.6711 1.085.1575 1.085-1.011 1.085-1.0457 1.085-.239 1.085.6929 1.085 1.593 1.085.5113 1.085-.5465 1.085.2 1.085-.8265 1.085-.3102 1.085-.3578 1.085-.5894 1.085-.22 1.085-.3113 1.085.3168 1.085-.0977 1.085-.5371 1.085.0211 1.085.9532 1.085.1929 1.085 1.4235 1.085 1.2433 1.085-.116 1.085.2242 1.085.4852 1.085-.0016 1.085-.3922 1.085-.2398 1.085-.4938 1.085-.5375 1.085 1.1153 1.085 1.0258 1.085.0414 1.085.5504 1.085.7058 1.085 1.616 1.085 1.2145 1.085-.0219 1.085 1.3711 1.085 1.9051 1.085 3.0652 1.085 5.4531 1.085 4.0688 1.085 2.9969 1.085 4.0921 1.085 4.4477 1.085.8008 1.085-2.7539 1.085-2.4817 1.085-1.4281 1.085-2.4156 1.085-3.6668 1.085-3.5902 1.085-3.0356 1.085-1.6762 1.085-3.0351 1.085-3.2379 1.085-1.1543 1.085-.6375 1.085-.143 1.085-1.132 1.085-2.018 1.085-.3863 1.085-.168 1.085-.2984 1.085-.034 1.085-.9254 1.085.1059 1.085.2594 1.085-.3317 1.085-1.7699 1.085-.4926 1.085 1.7375 1.085 1.1379 1.085-.2977 1.085-.8414 1.085.9645 1.085.7078 1.085-.6023 1.085.1261 1.085 1.7821 1.085 1.0066 1.085.4266 1.085.6336 1.085.223 1.085-1.2105 1.085-.8215 1.085.3008 1.085-.5309 1.085-.7695 1.085-.1395 1.085.416 1.085.6317 1.085-1.0485 1.085-1.1722 1.085 1.4871 1.085-.1071 1.085-1.7851 1.085-1.0231 1.085.0047 1.085.0336 1.085-.6523 1.085-.4426 1.085-.2281 1.085.048 1.085-.014 1.085.0367 1.085.6531 1.085.2039 1.085.441 1.085.0391 1.085-.6313 1.085-.6632 1.085.9375 1.085.7668 1.085-.4149" stroke="#edb120"/><path d="m44.5 85.1719 1.0852 2.7808 1.0847 9.6774 1.0852-1.0102 1.0851-6.1113 1.0844-3.0996 1.0856 1.4754 1.0851 3.3187 1.0844.5129 1.0851-3.5496 1.0856-1.666 1.0844.8312 1.0851 3.7153 1.0852 3.4769 1.0847 3.7059 1.0852-.1738 1.0852-2.4555 1.0847-2.3777 1.0852-2.0586 1.0851 1.2711 1.0844 1.2601 1.0856-1.1887 1.0851-2.1187 1.0844.1859 1.0851.1606 1.0856-3.391 1.0844 1.3929 1.0851 2.7309 1.0852-1.6434 1.0847-4.0898 1.0852-1.4707 1.0852 1.6703 1.0847 2.0176 1.0852-.934 1.0851-2.8723 1.0844 1.8949 1.0856 2.62 1.0851-.0946 1.0844-1.73 1.0851.1769 1.0856 3.0785 1.0844 1.7102 1.0851-2.3961 1.0852-.9551 1.0847-.1492 1.0852-.3195 1.0852-.9868 1.0847-.7531 1.0852.6129 1.0851.7527 1.0844-2.8804 1.0856.1972 1.0848-.1988 1.085-2.0965 1.085.2192 1.085-.15 1.085.5949 1.085 2.8414 1.085-.5609 1.085-2.4164 1.085-.7344 1.085.6219 1.085-.2348 1.085-.0164 1.085.3051 1.085.4082 1.085 1.0304 1.085-.0804 1.085-.0957 1.085-.1051 1.085-2.6348 1.085-1.6508 1.085.7731 1.085.3008 1.085.9187 1.085 1.7461 1.085 1.5727 1.085 2.3109 1.085 1.3582 1.085-1.0711 1.085-3.2699 1.085-3.0465 1.085-1.3148 1.085.9375 1.085.2132 1.085-2.4757 1.085.1324 1.085 1.1719 1.085-.8516 1.085-1.3313 1.085-.1632 1.085-1.2555 1.085-1.807 1.085-.0336 1.085-.2805 1.085 1.3461 1.085 1.1617 1.085-1.4742 1.085-.7859 1.085-.4586 1.085-1.9762 1.085-1.6828 1.085 1.4406 1.085 1.4176 1.085.4273 1.085-2.0113 1.085-2.7211 1.085-.6719 1.085-1.3597 1.085-.295 1.085 1.5895 1.085 2.4598 1.085.2101 1.085-1.3254 1.085.0047 1.085.4043 1.085-.6187 1.085-1.1438 1.085.3492 1.085.5239 1.085-1.4942 1.085-.6242 1.085 1.5648 1.085-.3796 1.085-.8708 1.085-.6675 1.085-2.5719 1.085.9301 1.085 3.2312 1.085-1.3883 1.085-2.8539 1.085-.0586 1.085 1.3606 1.085.1769 1.085-2.0152 1.085-.6457 1.085.334 1.085 1.2312 1.085.8145 1.085-1.1375 1.085-1.3688 1.085-1.6148 1.085.8102 1.085.5187 1.085-.2578 1.085 2.7629 1.085.7551 1.085-.0743 1.085.2657 1.085.3652 1.085.2242 1.085.2504 1.085 1.8578 1.085-.357 1.085-.432 1.085-.561 1.085-2.234 1.085-2.3117 1.085-1.9125 1.085-.4957 1.085.8176 1.085-.3277 1.085-.8071 1.085.8317 1.085.4425 1.085-.6148 1.085-1.9539 1.085-2.2836 1.085-1.2469 1.085 1.1723 1.085.193 1.085-2.5387 1.085.648 1.085.7145 1.085-.8734 1.085.3664 1.085-.1918 1.085-1.0172 1.085-.7543 1.085.8519 1.085 1.3344 1.085 1.5758 1.085-1.7426 1.085-2.3945 1.085-.3016 1.085-.4933 1.085-.2028 1.085-.1109 1.085.2836 1.085 1.4562 1.085.4524 1.085.5347 1.085-.5519 1.085-1.3012 1.085.0621 1.085-1.3176 1.085-1.2179 1.085.6117 1.085.3211 1.085-.8121 1.085.909 1.085.689 1.085-.9687 1.085-.0391 1.085 1.3051 1.085 1.268 1.085.1195 1.085.7836 1.085 1.0508 1.085-.7477 1.085-.6332 1.085-.3043 1.085.7715 1.085.5527 1.085-.2554 1.085.6636 1.085 2.3903 1.085 1.9687 1.085 1.8457 1.085 2.1805 1.085 2.3805 1.085 2.9359 1.085 3.0332 1.085 4.9762 1.085 7.5871 1.085 9.4851 1.085 10.8903 1.085 12.328 1.085 12.188 1.085 10.921 1.085 7.599 1.085 1.359 1.085-5.745 1.085-8.485 1.085-6.93 1.085-6.767 1.085-9.654 1.085-10.263 1.085-9.1167 1.085-7.1386 1.085-5.7532 1.085-5.8914 1.085-4.9043 1.085-3.3269 1.085-2.2688 1.085-2.3976 1.085-3.3149 1.085-.7832 1.085.6911 1.085-.6641 1.085-1.3242 1.085-1.1199 1.085-1.0395 1.085-.5496 1.085.2789 1.085-.8941 1.085-1.0141 1.085-.4492 1.085-.1746 1.085-.0067 1.085-.1398 1.085.4695 1.085.6594 1.085-.0524 1.085.3082 1.085.2383 1.085 1.1332 1.085.5664 1.085-.7265 1.085-1.1207 1.085-.3848 1.085-.1441 1.085.3406 1.085.5969 1.085-.536 1.085-.7386 1.085-.6481 1.085-.1172 1.085-.4793 1.085-.6945 1.085 1.1019 1.085.1981 1.085-1.0832 1.085-.107 1.085.1046 1.085-.3937 1.085-.9215 1.085-.7383 1.085-.1386 1.085 1.6187 1.085.393 1.085-.9121 1.085-.411 1.085-.1914 1.085.6449 1.085.5633 1.085-.6859 1.085-.7695 1.085.7234 1.085.4773 1.085-.0535" stroke="#7e2f8e"/><path d="m46.8504 40.7254.9047 2.3309.6015-2.3309" stroke="#77ac30"/><path d="m53.4879 40.7254.7769.8 1.0856 3.3031 1.0844-.2594 1.0851-3.1269 1.0852.0348 1.0847-.0391 1.0852 1.4937 1.0852-.2691 1.0847-1.5043.1512-.4328" stroke="#77ac30"/><path d="m66.4457 40.7254.8395 2.673 1.0851-1.6742.3164-.9988" stroke="#77ac30"/><path d="m76.0449 40.7254 1.0051 1.4008 1.0852-.0449 1.0847-.586 1.0852 1.2543 1.0851 2.8117 1.0844.1223 1.0856-.5859 1.0851 1.1265 1.0844 2.6477 1.0851 3.1515 1.0856 7.6887 1.0844 6.0887 1.0851-6.0449 1.0852-7.6493 1.0847-1.9425 1.0852.6351 1.0852 1.6004 1.0847-1.5098 1.0852-3.857 1.0851-.6699 1.0844-.0598 1.0856-.7816 1.0848-2.2875 1.085-1.5336 1.085.9883 1.085-.8668.656-1.0965" stroke="#77ac30"/><path d="m105.591 40.7254.754 1.6379 1.085 3.9683 1.085-.4187 1.005-5.1875" stroke="#77ac30"/><path d="m111.95 40.7254.905 3.4902 1.085 1.5457 1.085-.0148 1.085-1.6246 1.085-.3856 1.085 1.0676 1.085-1.4043 1.085-1.3609 1.085.5316 1.085.1535 1.085.4032 1.085 1.3867 1.085.2121 1.085-2.2395 1.085.759 1.085 1.902 1.085-1.5692 1.085-2.534 1.085.4688 1.085 1.3027 1.085 2.1785 1.085 1.4559 1.085.4191 1.085.1532 1.085 3.2765 1.085 4.3106 1.085 5.2867 1.085 8.4402 1.085 6.3422 1.085-2.6828 1.085-7.2133 1.085-6.6504 1.085-4.8293 1.085-3.2675 1.085-1.7657 1.085-1.0019 1.085.7926 1.085 1.6914 1.085-.5739 1.085-2.5843 1.085-.5137 1.085.1125 1.085-.4711 1.085-1.5977 1.085-.8746 1.085.4262 1.085 1.0246 1.085 2.4578 1.085.6852 1.085 1.341 1.085 3.1988 1.085 3.0235 1.085 6.1988 1.085 8.6285 1.085 10.3606 1.085 3.3097 1.085-9.9996 1.085-11.3273 1.085-5.175 1.085-3.0871 1.085-3.0594 1.085-3.0801 1.085-1.5336 1.085-.6437 1.085-.584 1.085 1.814 1.085 1.1129 1.085-.8722 1.085-1.1727 1.085-1.7246 1.085-.1137 1.085 1.1473 1.085 1.1812 1.085-.5691 1.085-.6375 1.085 2.1523 1.085-.0605 1.085-.7883 1.085 3.1477 1.085 2.6871 1.085 1.9773 1.085 3.968 1.085.0309 1.085-5.3575 1.085-4.4773 1.085-.927 1.085.7844 1.085-1.0883 1.085-1.8051 1.085.0532 1.085-.6688 1.085-1.1078 1.085-.5574 1.085-.2758 1.085.2856 1.085 1.1062 1.085.0848 1.085-1.4567 1.085.0383 1.085 1.2063 1.085.9675 1.085.2235 1.085.9187 1.085-.5828 1.085-1.0254 1.085-.9621 1.085-.2265 1.085 1.1437 1.085.3031 1.085-.5574 1.085.009 1.085-1.8313 1.085-1.4273 1.085 1.1227 1.085 1.6753 1.085.175 1.085-.5312 1.085-.0883 1.085.5317 1.085.2152 1.085-.1649 1.085-1.7183 1.085-.8715 1.085 1.7031 1.085.2649 1.085-1.0149 1.085-1.6543.348-.4027" stroke="#77ac30"/><path d="m251.859 40.7254.961.8348 1.085-.4313 1.085.077 1.085 2.2132 1.085.8321 1.085-1.0223 1.085-.8394 1.085.7824 1.085-.0617 1.085-1.1489 1.085-.9398 1.085 1.1398 1.085 1.3141 1.085-.7387 1.085-.2371 1.085-.1394 1.085.7644 1.085-.2047 1.085-.5613 1.085.5711 1.085.6035 1.085-.7434 1.085-.4035 1.085.6692 1.085.8109 1.085.65 1.085-.6793 1.085-2.0223 1.085-.1828 1.085 2.5559 1.085.6617 1.085-.7621 1.085.8184 1.085 1.3363 1.085-.6188 1.085-1.6566 1.085-.6594 1.085-1.2496.818-1.3324" stroke="#77ac30"/><path d="m295.753 40.7254.467.6695 1.085.8242 1.085-.0507 1.085.9343 1.085-.0515 1.085-.1778 1.085 1.0903 1.085-.4582 1.085-.3219 1.085.4988 1.085-.4648 1.085-.3625 1.085.9273 1.085.1184 1.085-.7688 1.085.0293 1.085.3653 1.085.3 1.085-.1957 1.085 1.0004 1.085.3375 1.085.0898 1.085.4832 1.085-.159 1.085-.6324 1.085-.0785 1.085.0726 1.085-.4082 1.085.2703 1.085.9727 1.085.207 1.085.4364 1.085.6863 1.085 1.3133 1.085.9246 1.085-.375 1.085.0902 1.085.8129 1.085-.1824 1.085-.0192 1.085.2579 1.085-.6676 1.085-.7246 1.085-.4957 1.085.88 1.085.284 1.085-1.0336 1.085-.6222 1.085-.2032 1.085.7313 1.085.0582 1.085-1.641 1.085-.977 1.085-.7996 1.085-1.116 1.085-.4426 1.085 1.2113 1.085.5293 1.085-.641 1.085.0418 1.085.3063 1.085.4437 1.085.5094 1.085-.2664 1.085.2453 1.085-.6336 1.085-.4574 1.085.7508 1.085-.0078" stroke="#77ac30"/><path d="m44.5 43.1371 1.0852 9.3145 1.0847 7.8285 1.0852 2.291 1.0851-.5082 1.0844-6.075 1.0856-8.1742 1.0851 4.4429 1.0844 3.1153 1.0851-4.7992 1.0856-2.0543 1.0844-.7125 1.0851 4.239 1.0852 5.7031 1.0847-1.8066 1.0852-4.3051 1.0852-1.9289 1.0847-.3332 1.0852.5797 1.0851-.5633 1.0844-1.757 1.0856 3.4426 1.0851 3.0988 1.0844-1.3141 1.0851-3.0652 1.0856-2.5156 1.0844 2.7781 1.0851 1.2734 1.0852.9286 1.0847 1.2683 1.0852.6781 1.0852.7387 1.0847-1.4355 1.0852-2.3723 1.0851.1746 1.0844 1.5668 1.0856 1.0434 1.0851 2.4285 1.0844 4.298 1.0851 3.6805 1.0856 7.307 1.0844 5.0149 1.0851-5.6664 1.0852-8.0356 1.0847-2.484 1.0852.1395 1.0852.6277 1.0847.3414 1.0852-.2527 1.0851-2.4 1.0844-2.491 1.0856-1.584 1.0848-2.4629 1.085.375 1.085 2.8148 1.085-1.3296 1.085-2.8375 1.085.4312 1.085 1.2684 1.085-1.9934 1.085 2.4531 1.085 2.2793 1.085-1.4308 1.085-4.4989 1.085-1.4347 1.085 2.5051 1.085.3918 1.085-1.0399 1.085 1.0621 1.085.8453 1.085-.3179 1.085-.1696 1.085 1.7063 1.085 1.9531 1.085-1.141 1.085-2.1465 1.085-1.3476 1.085 3.2738 1.085 1.4242 1.085-2.3852 1.085 1.2465 1.085.7246 1.085-.7019 1.085.0906 1.085 1.3563 1.085.3066 1.085.7027 1.085 4.195 1.085 4.2539 1.085 1.8929 1.085 6.3766 1.085 8.243 1.085-1.1661 1.085-7.1894 1.085-7.0524 1.085-6.2582 1.085-4.2222 1.085-2.2949 1.085-.4766 1.085-.8039 1.085.6617 1.085.2555 1.085-.8203 1.085.0164 1.085 1.9418 1.085-.2762 1.085-.8414 1.085-.4551 1.085-2.1121 1.085.552 1.085 3.6007 1.085.3243 1.085-.2454 1.085 2.3731 1.085 4.3812 1.085 6.7254 1.085 9.5903 1.085 10.1691 1.085 1.8902 1.085-10.05 1.085-10.1363 1.085-4.0148 1.085-2.5141 1.085-5.3559 1.085-4.0132 1.085-.1332 1.085-.8133 1.085-.2422 1.085.8273 1.085-2.055 1.085-.5985 1.085-.8094 1.085-2.3097 1.085-1.1207 1.085 1.7769 1.085 1.8711 1.085.5387 1.085-1.2797 1.085.2035 1.085.9082 1.085 1.7797 1.085 1.9363 1.085 3.9047 1.085 3.566 1.085 2.7903 1.085.8429 1.085-4.1851 1.085-5.7059 1.085-2.775 1.085-.3285 1.085-1.9867 1.085-2.4391 1.085-.6847 1.085-.7582 1.085.5984 1.085 1.8359 1.085 1.036 1.085-.3067 1.085-.0617 1.085.3719 1.085-.0477 1.085.0368 1.085-.5657 1.085-1.4773 1.085.3387 1.085-.0981 1.085-.5558 1.085 1.4957 1.085.8796 1.085-1.8136 1.085-1.3688 1.085-1.2644 1.085-.1336 1.085.9609 1.085-.4859 1.085.057 1.085.7324 1.085.4864 1.085.3425 1.085-.8488 1.085.0824 1.085-.2699 1.085-.0504 1.085.4281 1.085-.2918 1.085-.341 1.085-.807 1.085-.084 1.085 1.1317 1.085-.0489 1.085-1.289 1.085-.9547 1.085-.2985 1.085.768 1.085.3477 1.085.0984 1.085-.1312 1.085-.0278 1.085-.0383 1.085-.0058 1.085 1.2066 1.085.8145 1.085.3406 1.085 1.082 1.085-.3668 1.085-2.0586 1.085-1.932 1.085 1.0191 1.085 1.7133 1.085-.3855 1.085-.4278 1.085 1.125 1.085.7196 1.085.2633 1.085-.3497 1.085-1.9261 1.085-1.1871 1.085 1.2382 1.085 1.1504 1.085.2649 1.085.8504 1.085.2992 1.085.0652 1.085 1.4731 1.085 2.7527 1.085 1.3875 1.085 1.5418 1.085 2.6977 1.085 3.025 1.085 2.7847 1.085.1949 1.085.3008 1.085 1.9426 1.085-.5883 1.085-2.7222 1.085-2.5286 1.085-2.3234 1.085-1.6891 1.085-1.0785 1.085-.8773 1.085-1.4676 1.085-1.6793 1.085-1.0539 1.085-1.3695 1.085-.5129 1.085.2773 1.085-.7422 1.085-.8589 1.085.2714 1.085.9067 1.085-.3352 1.085-.5902 1.085.7914 1.085.284 1.085-.7168 1.085-.891 1.085-.5207 1.085.5754 1.085.5843 1.085-.4156 1.085.1516 1.085-.2672 1.085.7179 1.085 1.9829 1.085-.1047 1.085-.8289 1.085.4859 1.085 1.5301 1.085 1.5781 1.085.6172 1.085-1.1609 1.085-1.0727 1.085.7262 1.085.2203 1.085-.8363 1.085-.3395 1.085-.4223 1.085-.7238 1.085-.3832 1.085-.2793 1.085-.566 1.085-.3383 1.085.1559 1.085-.8278 1.085-.6984 1.085-.3504 1.085-.2316 1.085-.2438 1.085-.8969 1.085-.9562 1.085.4437 1.085.3196 1.085-.2918 1.085-.0582 1.085.5633 1.085.5121 1.085-.093 1.085-.198 1.085.2062 1.085.2828 1.085.4891" stroke="#4dbeee"/><path d="m44.5 58.577 1.0852 1.9558 1.0847-.4726 1.0852 3.4066 1.0851 4.2398 1.0844 2.7571 1.0856-6.9032 1.0851-2.9308 1.0844-.9063 1.0851-1.575 1.0856.7539 1.0844-.2144 1.0851 2.5703 1.0852 4.766 1.0847-1.7558 1.0852-4.5133 1.0852.3097 1.0847-.5332 1.0852.2594 1.0851.1719 1.0844-1.2219 1.0856 2.7391 1.0851 3.8617 1.0844-.6766 1.0851-1.941 1.0856-1.4844 1.0844.7922 1.0851-.0613 1.0852.8137 1.0847.8886 1.0852 1.5165 1.0852.5378 1.0847-1.9089 1.0852-1.8973 1.0851 1.3551 1.0844 2.725 1.0856-.4403 1.0851 2.075 1.0844 3.4336 1.0851 2.5453 1.0856 6.0461 1.0844 3.161 1.0851-4.5938 1.0852-5.5609 1.0847-2.0574 1.0852-2.841 1.0852-.0692 1.0847 2.7145 1.0852.5023 1.0851-2.2051 1.0844-3.0597 1.0856-1.35 1.0848-.0137 1.085.4547 1.085-.0438 1.085-3.2254 1.085-3.3511 1.085 1.6207 1.085 2.2883 1.085-1.4934 1.085.0758 1.085.7207 1.085-.2856 1.085-1.9004 1.085-.9757 1.085-.3985 1.085-.2984 1.085-1.6149 1.085-.1011 1.085 3.0382 1.085 1.5833 1.085.1785 1.085 1.6949 1.085-.2535 1.085-1.2778 1.085-.1285 1.085-1.0551 1.085 1.2766 1.085 2.4965 1.085-.7508 1.085-.1453 1.085.2559 1.085-1.9719 1.085-3 1.085.2137 1.085 3.096 1.085 1.2415 1.085 1.8582 1.085 4.8421 1.085 3.5196 1.085 3.7562 1.085 4.8449 1.085-.6832 1.085-3.5273 1.085-4.8449 1.085-3.6617 1.085-2.0414 1.085-2.9286 1.085-2.2293 1.085-1.7855 1.085-.3617 1.085.0285 1.085-.2977 1.085-1.023 1.085.0812 1.085.2684 1.085-.4688 1.085-.5566 1.085-1.0535 1.085.1828 1.085 2.1254 1.085 1.3703 1.085.8797 1.085-.0004 1.085 2.4141 1.085 6.5004 1.085 8.0543 1.085 8.3757 1.085 2.7172 1.085-7.4285 1.085-9.5535 1.085-3.8895 1.085-1.5632 1.085-2.9465 1.085-2.0469 1.085-1.1363 1.085-2.9047 1.085-.6895 1.085.4606 1.085-2.3555 1.085-1.0156 1.085.6629 1.085-1.5914 1.085-2.1227 1.085-.0109 1.085.9875 1.085 2.4082 1.085 1.909 1.085.4168 1.085-.2829 1.085.4211 1.085.6125 1.085 2.5825 1.085 2.7179 1.085 4.0266 1.085 1.4844 1.085-2.9453 1.085-3.6899 1.085-3.4433 1.085-.9391 1.085-2.5688 1.085-2.1238 1.085 1.6063 1.085 1.1453 1.085-.0465 1.085.4531 1.085-1.1055 1.085.009 1.085 1.4438 1.085-1.0434 1.085-.366 1.085-.7348 1.085-1.7515 1.085-2.0645 1.085-.1472 1.085 1.3964 1.085 1.5938 1.085-.3149 1.085-.6218 1.085-.7957 1.085-.6352 1.085-1.2129 1.085-.1992 1.085.5758 1.085-.7711 1.085.868 1.085.6937 1.085-.6922 1.085-.1578 1.085-1.0918 1.085-.118 1.085.9243 1.085 1.2269 1.085-1.1414 1.085-.1848 1.085-.3964 1.085-2.6414 1.085.0179 1.085 1.1211 1.085.6512 1.085.2699 1.085-.5558 1.085-1.0836 1.085.1527 1.085 1.2332 1.085-.5934 1.085-.5757 1.085-.1696 1.085.4836 1.085 1.0754 1.085-.3973 1.085.0231 1.085 1.9801 1.085 1.2398 1.085-2.1742 1.085-2.2848 1.085-.9203 1.085 1.8559 1.085.9008 1.085.2382 1.085.4028 1.085 1.0679 1.085.5028 1.085-.5055 1.085.0672 1.085.4359 1.085-.7937 1.085.5199 1.085.2387 1.085-.0278 1.085 2.3504 1.085 1.275 1.085.7184 1.085 3.6535 1.085 4.2133 1.085 3.2699 1.085 4.0637 1.085 4.0625 1.085 4.339 1.085 4.502 1.085 3.1141 1.085 1.7492 1.085.3847 1.085-2.775 1.085-2.3761 1.085-3.9149 1.085-5.9062 1.085-3.6692 1.085-1.7289 1.085-1.8019 1.085-3.8949 1.085-4.4282 1.085-1.7644 1.085-.952 1.085-.8008 1.085-1.6687 1.085-1.0801 1.085.0375 1.085-.5027 1.085-.9492 1.085-1.2594 1.085-.4731 1.085 1.7039 1.085.359 1.085-1.9039 1.085.041 1.085.0016 1.085-.2152 1.085.1183 1.085-.2 1.085.6239 1.085.2699 1.085.2004 1.085.5445 1.085.1949 1.085.4278 1.085.9972 1.085 1.6883 1.085 1.0926 1.085-.191 1.085-1.2235 1.085-1.1945 1.085-.793 1.085-.0148 1.085-.5227 1.085.3766 1.085.5855 1.085-1.1519 1.085-.666 1.085.5054 1.085-.398 1.085-.7113 1.085.0968 1.085-.8191 1.085-1.1203 1.085-.6156 1.085-.1262 1.085.5226 1.085-.4738 1.085-.9609 1.085.5746 1.085.6691 1.085-.6586 1.085-1.4504 1.085-.1964 1.085 1.2867 1.085.7344 1.085-.0008 1.085-.1168 1.085-.1758 1.085.0715" stroke="#a2142f"/><path d="m44.5 86.8066 1.0852-.0914 1.0847 4.668 1.0852 7.3629 1.0851-.4352 1.0844-2.5566 1.0856-6.5207 1.0851 2.6258 1.0844 3.3265 1.0851-2.6875 1.0856.7973 1.0844-1.5578 1.0851.1449 1.0852 3.0824 1.0847 1.2203 1.0852 1.4293 1.0852-1.7742 1.0847-5.1457 1.0852-2.7945 1.0851-1.1184 1.0844 2.8551 1.0856 2.9125 1.0851 1.9297 1.0844-2.0543 1.0851-5.7016 1.0856-2.0847 1.0844 4.4652 1.0851 2.4774 1.0852.948 1.0847.1918 1.0852-.0867 1.0852-.3832 1.0847-1.4055 1.0852-2.0305 1.0851-.1035 1.0844.852 1.0856.484 1.0851 1.6214 1.0844 4.3356 1.0851 2.8433 1.0856 1.743 1.0844.805 1.0851-.866 1.0852-.6605 1.0847-1.8586 1.0852-3.555 1.0852-2.3684 1.0847 1.7031 1.0852.9977 1.0851-1.7715 1.0844-2.4262 1.0856-2.5164 1.0848-1.6215 1.085.8211 1.085 2.1707 1.085-1.4101 1.085-2.643 1.085.7801 1.085-.107 1.085-.5582 1.085 1.5074 1.085.9722 1.085-2.2293 1.085-2.4238 1.085-2.0707 1.085-1.3957 1.085-.1016 1.085-.3972 1.085.1828 1.085 1.0562 1.085 1.5239 1.085.0308 1.085-.1597 1.085-1.0817 1.085-1.6062 1.085 1.616 1.085.7922 1.085.5738 1.085-.523 1.085-2.9903 1.085-.6472 1.085.6488 1.085.5512 1.085-1.4864 1.085.9489 1.085 2.0937 1.085 1.9367 1.085.8145 1.085.098 1.085 1.4625 1.085 4.2332 1.085 2.3399 1.085-1.6125 1.085-2.6707 1.085-2.9016 1.085-2.6672 1.085-1.8074 1.085-1.2398 1.085-2.0723 1.085-1.9027 1.085.1386 1.085.2992 1.085-.7625 1.085-1.4925 1.085.7933 1.085.027 1.085-1.1715 1.085-.7574 1.085-.384 1.085 1.3531 1.085.8438 1.085.3757 1.085.1247 1.085.9043 1.085 1.5984 1.085 3.9082 1.085 5.1098 1.085 5.4433 1.085 1.6442 1.085-4.3411 1.085-6.3097 1.085-2.6453 1.085-1.143 1.085-3.5145 1.085-1.5285 1.085-.8258 1.085-2.3222 1.085.1074 1.085.5789 1.085-2.7875 1.085-1.7418 1.085-.5445 1.085-.6762 1.085-1.2047 1.085.6602 1.085 1.7734 1.085 1.7949 1.085-.4597 1.085-1.2719 1.085-.2949 1.085.3812 1.085 1.218 1.085 1.3664 1.085.8863 1.085 3.225 1.085 2.1543 1.085-1.2886 1.085-1.836 1.085-.6105 1.085 1.7226 1.085-1.3426 1.085-3.4535 1.085.6032 1.085 1.1503 1.085-1.5691 1.085-.2211 1.085.9961 1.085-.1172 1.085-1.1203 1.085-3.3137 1.085-2.6422 1.085.0028 1.085.6121 1.085-.0766 1.085-1.091 1.085-1.966 1.085.2891 1.085.7035 1.085.3679 1.085-1.4839 1.085-.9356 1.085-1.3648 1.085-1.8578 1.085-.1657 1.085.4973 1.085.3269 1.085-.8062 1.085-.2055 1.085.6766 1.085.7754 1.085.591 1.085-.6645 1.085-.0675 1.085-.2496 1.085.0156 1.085-1.2235 1.085-2.5519 1.085.759 1.085 1.2 1.085.3043 1.085-.8938 1.085-1.3457 1.085-.498 1.085.414 1.085 1.011 1.085.2722 1.085.0196 1.085-.4575 1.085.2497 1.085-.0305 1.085-.8973 1.085-.248 1.085 1.416 1.085 2.0902 1.085-.5543 1.085-1.3914 1.085-1.3804 1.085 1.4839 1.085 1.5383 1.085-.9711 1.085-.4058 1.085.3375 1.085.8297 1.085.7746 1.085.782 1.085 1.0922 1.085-.3969 1.085 1.2488 1.085 2.6297 1.085 2.141 1.085 2.818 1.085 2.8371 1.085 3.627 1.085 6.1785 1.085 8.5547 1.085 8.9562 1.085 10.0866 1.085 11.874 1.085 12.798 1.085 12.762 1.085 6.983 1.085.352 1.085-3.193 1.085-7.431 1.085-10.215 1.085-10.658 1.085-9.747 1.085-8.15 1.085-6.8295 1.085-5.5793 1.085-6.5856 1.085-7.4469 1.085-5.0429 1.085-3.4739 1.085-2.4089 1.085-2.0719 1.085-2.7492 1.085-1.3883 1.085-.6344 1.085-1.1066 1.085-.936 1.085-1.2074 1.085-.5691 1.085.3 1.085-.1004 1.085-.6063 1.085-1.275 1.085-.4898 1.085.6844 1.085-.2239 1.085.2875 1.085-.4066 1.085-.8203 1.085.9597 1.085-.089 1.085.1957 1.085 1.2961 1.085.6679 1.085.0497 1.085-.2137 1.085-.9 1.085-1.1403 1.085.9243 1.085.5406 1.085-1.5035 1.085-.2176 1.085.7297 1.085-.4289 1.085-.2934 1.085-.8738 1.085-1.7227 1.085-.6113 1.085 1.4902 1.085 1.0575 1.085-.9778 1.085-1.1597 1.085-.3008 1.085.1562 1.085-.7215 1.085-.6187 1.085.5707 1.085.1516 1.085-.4329 1.085-.6398 1.085.534 1.085 1.5719 1.085.1742 1.085-.9227 1.085-.0687 1.085.5781 1.085.1613" stroke="#0072bd"/><path d="m45.6781 40.7254.9918 4.2312 1.0852 2.5457 1.0851-.5695 1.0844-1.8867.9277-4.3207" stroke="#d95319"/><path d="m61.0441 40.7254.8161 1.0805 1.0847 1.8586 1.0852-1.475.564-1.4641" stroke="#d95319"/><path d="m67.6879 40.7254.6824.984.5781-.984" stroke="#d95319"/><path d="m77.9875 40.7254.1477.3883.7867-.3883" stroke="#d95319"/><path d="m79.3668 40.7254.9383.9394 1.0851 2.1274 1.0844.0098 1.0856-.4891 1.0851 1.925 1.0844 1.9215 1.0851-1.5793 1.0856-1.4707 1.0844-.8274 1.0851-2.1906.4524-.366" stroke="#d95319"/><path d="m91.2918 40.7254.948 3.5527 1.0852 3.1266 1.0852.1672 1.0847-.4453 1.0852.1632 1.0851.8821 1.0844-1.0867 1.0856-1.3321 1.0848-3.1183 1.085.2574 1.085.2812 1.085-2.2914.24-.1566" stroke="#d95319"/><path d="m105.462 40.7254.883 2.4098 1.085 4.0421 1.085 1.0122 1.085-2.5278 1.085-1.3859 1.085.5855 1.085 1.684 1.085 1.4195 1.085-2.039 1.085-2.1481 1.085 1.0157 1.085 2.4035 1.085-1.2336 1.085-2.0535 1.085.8789 1.085 3.7574 1.085 1.2316 1.085 1.4543 1.085 3.1825 1.085-.1997 1.085-.7687 1.085.3809 1.085-.6961 1.085-3.2489 1.085-1.6175 1.085.2929 1.085.6196 1.085.855 1.085-.5039 1.085.5571 1.085 2.766 1.085-1.3246 1.085-1.1832 1.085.8699 1.085.5281 1.085-.582 1.085-1.4985 1.085-1.1125 1.085-1.0867 1.085-1.5855 1.085-.4973 1.085.5699 1.085 2.0387 1.085.2371 1.085-.3473 1.085.9301 1.085.8211 1.085-.239 1.085-2.5301 1.085-2.552 1.085.4887 1.085 1.4523 1.085.6305 1.085.7899 1.085-.5625 1.085-.6555 1.085.882 1.085 2.2574 1.085 2.545 1.085-1.5641 1.085-2.0895 1.085-1.0957 1.085-.8765 1.085-.2274 1.085.3879 1.085-.114 1.085-.7196 1.085-1.3691 1.085.4648 1.085 2.5297 1.085.2492 1.085.309 1.085.9035 1.085.9332 1.085-.2437 1.085-2.7918 1.085-1.4625 1.085 1.6668 1.085 1.2906 1.085-1.5707 1.085-1.0086 1.085.7899 1.085.4027 1.085-1.5473 1.085-.3707 1.085.3188 1.085-1.1457 1.085-.2797 1.085.7656 1.085.459 1.085-1.693 1.085.9551 1.085 2.7719 1.085 1.0558 1.085-.8668 1.085.4149 1.085 3.0238 1.085 3.9164 1.085 3.6016 1.085-1.1445 1.085-3.8618 1.085-2.1179 1.085-1.3192 1.085-1.3972 1.085-1.4168 1.085-.4102 1.085.4207 1.085-.3277 1.085 1.0801 1.085.4886 1.085-1.2824 1.085-.8 1.085-.6715 1.085-.0855 1.085.2941 1.085-.8949 1.085.0504 1.085-.4262 1.085-.6851 1.085-.1782 1.085.5141 1.085.4141 1.085.3183 1.085 1.1641 1.085.775 1.085-.8828 1.085.5285 1.085 1.0125 1.085-.6231 1.085-.6675 1.085-.8707 1.085-.3188 1.085-1.1023 1.085-2.2856 1.085-.5234 1.085.9301 1.085-.2325 1.085-.1761 1.085 1.6785 1.085 1.559 1.085-.2145 1.085-2.732.82-1.1633" stroke="#d95319"/><path d="m261.278 40.7254.222.0957 1.085 1.7656 1.085.0856 1.085-.1157 1.085.9528 1.085.8922 1.085.1285 1.085-1.2805 1.085-.1535 1.085.282 1.085.6328 1.085.2145 1.085.2019 1.085-.0242 1.085-.5652 1.085.468 1.085.5273 1.085.2438 1.085-1.1043 1.085-2.1961 1.085.78 1.085 2.7258 1.085.6883 1.085-.4656 1.085.4004 1.085-.8055 1.085-2.0461 1.085-.0473 1.085.5161 1.085-.4231 1.085-.6012 1.085.1723 1.085 1.5203 1.085 1.2016 1.085-.3895 1.085-.1867 1.085-.7957 1.085-.5559 1.085.4524 1.085-.3793 1.085-.1824 1.085.6113 1.085.9148 1.085-.416 1.085.5692 1.085.6359 1.085-.1336 1.085-.2805 1.085-.6515 1.085-.259 1.085-.2535 1.085.9047 1.085-.2805 1.085.0816 1.085 1.0457 1.085.3957 1.085.1188 1.085-.2316 1.085-.8403 1.085-.5168 1.085 1.1821 1.085.1898 1.085-.3512 1.085 1.6035 1.085 1.5594 1.085.4352 1.085.0957 1.085-.3336 1.085 1.0058 1.085 1.1555 1.085-.0012 1.085-.8664 1.085-.864 1.085-.6188 1.085-.9066 1.085-.9262 1.085.2422 1.085 1.0875 1.085-.132 1.085-.8004 1.085-1.0258 1.085-.3106 1.085-.7472 1.085-1.0086 1.085.1305 1.085.0343 1.085-.8422 1.085-.3839 1.085 1.2429 1.085.8602 1.085-.5871 1.085-.1367 1.085-.4672 1.085-.3563 1.085.2047 1.085-.3293 1.085.1051 1.085.0789 1.085-.3332 1.085.2004 1.085-.1899" stroke="#d95319"/><path d="m44.5 47.5668 1.0852 3 1.0847-4.5301 1.0852.084 1.0851 4.2969 1.0844-3.0692 1.0856-.7347 1.0851 6.2633 1.0844.3597 1.0851-3.0539 1.0856 1.0356 1.0844-.5758 1.0851.3066 1.0852 1.6524 1.0847-3.4793 1.0852-.7246 1.0852 5.4457 1.0847-1.4211 1.0852-3.1868 1.0851-.6074 1.0844-2.2547 1.0856-1.5457 1.0851-2.5679 1.0844 5.223 1.0851 5.3379 1.0856-.3676 1.0844-.9152 1.0851.6242 1.0852-.6144 1.0847-.8766 1.0852.2273 1.0852.2457 1.0847.1743 1.0852-.5422 1.0851-1.6973 1.0844.8113 1.0856 2.0024 1.0851 1.5676 1.0844.2609 1.0851-.8527 1.0856-.2137 1.0844-.2707 1.0851-.4176 1.0852 2.0445 1.0847 2.3602 1.0852 2.1391 1.0852.1746 1.0847-1.6403 1.0852 1.8285 1.0851.2454 1.0844-3.4614 1.0856-3.0422 1.0848-2.2492 1.085.961 1.085 1.9019 1.085.5113 1.085.0063 1.085-3.0164 1.085-.7016 1.085 1.3196 1.085 1.5914 1.085-.5453 1.085-.5852 1.085.4996 1.085 1.3281 1.085.0453 1.085-1.4535 1.085 1.4504 1.085 1.561 1.085 1.4293 1.085 1.5832 1.085.1386 1.085.7106 1.085.9343 1.085.6309 1.085-1.8551 1.085-1.0062 1.085 1.0125 1.085-.8512 1.085.075 1.085-.7402 1.085-.6137 1.085-.4262 1.085-1.5187 1.085-.3574 1.085-1.1536 1.085 1.4903 1.085 2.5234 1.085-1.0305 1.085.3985 1.085 2.0469 1.085-.4688 1.085-1.2375 1.085.2578 1.085-2.4293 1.085-4.416 1.085.2844 1.085 1.8726 1.085-.3816 1.085-1.1348 1.085 1.1024 1.085 2.082 1.085-.6293 1.085-.7949 1.085-.6586 1.085-1.4406 1.085-1.541 1.085-.6032 1.085 1.236 1.085.7351 1.085.668 1.085.9504 1.085-1.2309 1.085.1223 1.085 1.7176 1.085 1.4289 1.085 1.2222 1.085-1.7339 1.085-2.1442 1.085-1.4836 1.085.4262 1.085 1.8867 1.085-.7687 1.085.0937 1.085.6445 1.085-1.0742 1.085-.066 1.085.909 1.085.2633 1.085-1.0461 1.085 1.5035 1.085.8426 1.085-2.7625 1.085.3601 1.085-.8047 1.085-1.2527 1.085.5508 1.085.1707 1.085 2.373 1.085-1.3058 1.085-3.0117 1.085.657 1.085.2527 1.085.9098 1.085-.3039 1.085-1.9531 1.085.0324 1.085-1.2426 1.085-1.2168 1.085 1.609 1.085 2.6 1.085 1.6215 1.085 2.0613 1.085 3.9426 1.085 2.4988 1.085.7328 1.085-.2129 1.085-2.6504 1.085-1.3457 1.085-1.9355 1.085-3.6871 1.085-.8672 1.085-.0938 1.085-.1535 1.085-1.2863 1.085.4492 1.085 3.0629 1.085.9383 1.085-.3254 1.085-2.5719 1.085-1.1961 1.085.5032 1.085-1.2629 1.085-.1364 1.085-.6375 1.085.975 1.085.8407 1.085-1.5782 1.085-.4703 1.085-.359 1.085.8684 1.085.6773 1.085 1.3348 1.085 1.009 1.085-.1703 1.085-.5813 1.085-1.1488 1.085-.2941 1.085.7453 1.085-.9106 1.085-.6929 1.085.4464 1.085-1.0832 1.085-1.973 1.085-1.516 1.085.598 1.085.936 1.085.0879 1.085-.5364 1.085.2504 1.085.2903 1.085.3523 1.085.0887 1.085.7531 1.085.5195 1.085-.1086 1.085-.2777 1.085-.257 1.085.0218 1.085.468 1.085.3973 1.085-.059 1.085.7601 1.085 1.6661 1.085-.7028 1.085-1.6668 1.085.1883 1.085 2.2734 1.085-.5566 1.085-1.4309 1.085 1.6516 1.085 1.7031 1.085-.5984 1.085 1.1398 1.085 2.1758 1.085.8551 1.085 1.9574 1.085 2.5817 1.085 2.7757 1.085 3 1.085 2.1204 1.085.5824 1.085-.9102 1.085-1.0402 1.085.0336 1.085-1.1184 1.085-2.7734 1.085-2.4481 1.085-3.0793 1.085-2.4453 1.085-.8203 1.085-.9097 1.085-.6497 1.085-.3582 1.085-1.0882 1.085-1.6629 1.085-1.4887 1.085.5098 1.085.8625 1.085-.0883 1.085-.559 1.085.1215 1.085-.2903 1.085.2004 1.085-.0793 1.085-1.0449 1.085.0426 1.085.5664 1.085 1.2988 1.085.5231 1.085-.3121 1.085-.8977 1.085-.4141 1.085.0614 1.085.2715 1.085.8011 1.085.7035 1.085.4711 1.085 1.7684 1.085 2.3145 1.085-.1633 1.085-1.5625 1.085-1.2336 1.085-1.125 1.085-1.0664 1.085-.1973 1.085-.8777 1.085-.191 1.085.575 1.085.1621 1.085-.7297 1.085-.0324 1.085-.3028 1.085-.8859 1.085-.6238 1.085-.4293 1.085.1675 1.085.336 1.085.3203 1.085.0418 1.085.6082 1.085.3578 1.085-1.6395 1.085-1.4191 1.085.1043 1.085.7313 1.085 1.2277 1.085.7898 1.085.1246 1.085-.4859 1.085-.2117" stroke="#edb120"/><path d="m44.5 60.943 1.0852 3.6976 1.0847-5.2492 1.0852.4738 1.0851 4.5051 1.0844 2.443 1.0856-.7094 1.0851-1.359 1.0844-2.3812 1.0851.9793 1.0856 1.7492 1.0844-4.4207 1.0851.7418 1.0852 3.2609 1.0847-2.8191 1.0852-.3082 1.0852 5.6301 1.0847.5281 1.0852-1.7754 1.0851-.107 1.0844.1625 1.0856-5.1661 1.0851-5.9277 1.0844 4.4504 1.0851 5.0543 1.0856-1.0688 1.0844-2.116 1.0851.3032 1.0852 2.5378 1.0847-.45 1.0852-.7003 1.0852 1.3777 1.0847.1777 1.0852-.9215 1.0851-.6511 1.0844 2.0992 1.0856 2.2082 1.0851.4297 1.0844-1.452 1.0851-2.5726 1.0856-1.3957 1.0844-.9375 1.0851.1629 1.0852 3.782 1.0847 1.3637 1.0852-.6692 1.0852.4133 1.0847 1.2129 1.0852 1.223 1.0851-.4086 1.0844-1.9304 1.0856-2.4699 1.0848-1.8879 1.085.7074 1.085 1.0387 1.085 1.248 1.085-.0602 1.085-1.6859 1.085-1.6289 1.085-.4852 1.085.6028 1.085-.9051 1.085-.2863 1.085 2.3285 1.085 2.3797 1.085-1.1473 1.085-2.2816 1.085.9367 1.085 2.298 1.085.22 1.085-.8508 1.085.6894 1.085-.2976 1.085.4582 1.085 2.1019 1.085-1.5531 1.085-2.3473 1.085.4582 1.085 1.0786 1.085.0394 1.085-1.8 1.085-1.5457 1.085.616 1.085.227 1.085-.5293 1.085-1.1387 1.085.1426 1.085.4164 1.085.716 1.085 2.3332 1.085.7766 1.085-.4668 1.085.3105 1.085.0692 1.085-3.2055 1.085-3.2926 1.085 1.107 1.085 1.0059 1.085-1.5773 1.085-.3809 1.085 1.8426 1.085-.1817 1.085-2.2875 1.085-1.457 1.085.8422 1.085-.2984 1.085.1101 1.085.4703 1.085 1.1176 1.085 1.557 1.085.6914 1.085-.4832 1.085-2.1269 1.085-1.0051 1.085-.1324 1.085.2195 1.085.4238 1.085.2348 1.085.1258 1.085-.918 1.085.3055 1.085.6238 1.085-.8226 1.085-.6578 1.085.2339 1.085-.1523 1.085.1066 1.085 1.5149 1.085-1.6102 1.085-1.6898 1.085.7906 1.085-.3301 1.085.1059 1.085.6652 1.085-.5219 1.085-.8886 1.085.3539 1.085.5855 1.085.3699 1.085-1.0207 1.085-.8046 1.085-.6723 1.085-.8406 1.085.8308 1.085 1.3028 1.085-.3938 1.085-1.193 1.085-1.2347 1.085 1.2722 1.085 3.059 1.085 1.0793 1.085-.1289 1.085 1.611 1.085 2.7367 1.085 2.4422 1.085 2.6945 1.085-.1926 1.085-3.6894 1.085-2.3032 1.085-2.357 1.085-3.4293 1.085-2.0715 1.085.2438 1.085.666 1.085-.9008 1.085.8371 1.085 1.5676 1.085-1.2367 1.085-.477 1.085.0563 1.085-.6578 1.085-.0219 1.085-.7852 1.085-1.4879 1.085-1.0968 1.085.9047 1.085.7687 1.085-1.6809 1.085-.7859 1.085 1.3125 1.085.6617 1.085-.8949 1.085-.6367 1.085 1.1887 1.085 1.1445 1.085-1.2871 1.085-1.5524 1.085.5032 1.085 1.0058 1.085-.873 1.085-1.5418 1.085.5715 1.085-.4172 1.085-.9321 1.085-.6039 1.085-.7164 1.085 1.1836 1.085.7004 1.085-.1273 1.085.1093 1.085-.2886 1.085.4109 1.085.259 1.085-.4481 1.085-.3859 1.085.2953 1.085 1.161 1.085-1.1047 1.085-.261 1.085 1.5457 1.085-.0308 1.085-.1469 1.085 1.5336 1.085 1.384 1.085-.6024 1.085-.4808 1.085.591 1.085.7785 1.085-.5293 1.085.3629 1.085 2.0852 1.085 1.5007 1.085 1.2832 1.085 2.6399 1.085 2.0715 1.085 2.3843 1.085 4.1204 1.085 5.6289 1.085 6.6336 1.085 4.9769 1.085 3.4035 1.085 1.2407 1.085-.4836 1.085-1.5563 1.085-3.4809 1.085-3.8039 1.085-3.4043 1.085-4.0589 1.085-4.0207 1.085-4.5563 1.085-3.5078 1.085-2.3445 1.085-1.5789 1.085-1.2149 1.085-1.9058 1.085-1.8032 1.085-1.2468 1.085-.2356 1.085-.718 1.085-1.3632 1.085-.3293 1.085.4875 1.085-.4672 1.085-.2844 1.085.4035 1.085-.3879 1.085-.0562 1.085.7285 1.085.5219 1.085.014 1.085-.3066 1.085-.1727 1.085-.2359 1.085-.5238 1.085.891 1.085 1.6254 1.085.0621 1.085.1058 1.085 1.1317 1.085 1.1445 1.085.2926 1.085-.8008 1.085-1.1305 1.085-1.8546 1.085-.4852 1.085.1949 1.085-.468 1.085-.4554 1.085-.4992 1.085-.6465 1.085-.0774 1.085.5086 1.085-.1386 1.085-.4856 1.085-.2512 1.085-.1066 1.085-.6141 1.085-.6554 1.085.2031 1.085.4949 1.085.2527 1.085-.5351 1.085-1.9988 1.085-.0864 1.085 1.5914 1.085.3914 1.085.2258 1.085.5715 1.085-.4973 1.085-.5914 1.085.3664" stroke="#7e2f8e"/><path d="m44.5 101.949 1.0852.635 1.0847-6.0488 1.0852-1.8743 1.0851 5.7111 1.0844-1.1064 1.0856-5.7011 1.0851-.0079 1.0844 2.5411 1.0851.8687 1.0856 1.0941 1.0844-1.5808 1.0851-.7637 1.0852 2.3461 1.0847-1.7687 1.0852-2.325 1.0852 1.5668 1.0847.5992 1.0852.6363 1.0851-.1898 1.0844-2.1055 1.0856-2.7344 1.0851-5.2605 1.0844 2.0965 1.0851 6.5406 1.0856.9523 1.0844-2.3195 1.0851.3711 1.0852.7547 1.0847-3.8664 1.0852-3.1184 1.0852 1.0981 1.0847.9746 1.0852 1.0351 1.0851.7223 1.0844-.9961 1.0856.132 1.0851 1.3449 1.0844 2.1516 1.0851-1.4406 1.0856-.4891 1.0844-.5168 1.0851-1.8644 1.0852 1.1093 1.0847 2.2012 1.0852 1.0043 1.0852.861 1.0847-2.2133 1.0852-3.0907 1.0851-1.0418 1.0844-.6054 1.0856-1.0086 1.0848-.1574 1.085.6058 1.085 1.8758 1.085 2.3402 1.085-.2328 1.085-2.6218 1.085-1.0786 1.085-1.7933 1.085-2.4149 1.085.3426 1.085-1.3371 1.085-.2406 1.085 4.5074 1.085.8871 1.085-3.6051 1.085-1.1543 1.085 2.9004 1.085 2.5508 1.085-.4352 1.085-2.6085 1.085-2.4313 1.085.0566 1.085 2.4739 1.085-.0285 1.085-.5411 1.085.5649 1.085.5664 1.085.1828 1.085-2.7223 1.085-.591 1.085-.3797 1.085-3.1703 1.085-.7094 1.085.1071 1.085.1871 1.085 1.559 1.085.2601 1.085.7848 1.085-.5414 1.085-1.0973 1.085.3645 1.085.7875 1.085-2.0785 1.085-3.3172 1.085.157 1.085 1.2598 1.085-.7934 1.085-1.4019 1.085 1.0851 1.085 1.0434 1.085-2.1571 1.085-.141 1.085 1.7332 1.085-1.5367 1.085-2.0234 1.085-1.6125 1.085.9332 1.085 2.382 1.085.4625 1.085.2918 1.085-1.3387 1.085-2.5914 1.085 1.2742 1.085 1.9051 1.085-.6398 1.085-2.0512 1.085-.857 1.085.4515 1.085-.5222 1.085-1.1414 1.085-.3996 1.085.3898 1.085.2754 1.085.4738 1.085.6727 1.085.4066 1.085-1.368 1.085-1.5898 1.085.7191 1.085-.1613 1.085-1.7863 1.085.5726 1.085-.0019 1.085-2.1375 1.085-.7277 1.085.5664 1.085.7273 1.085-.5398 1.085-.1524 1.085.9774 1.085-1.1977 1.085-1.2535 1.085.2723 1.085 1.7707 1.085 1.4859 1.085-.6344 1.085-.3488 1.085 1.6434 1.085 2.1882 1.085 2.3039 1.085 2.0125 1.085 1.0664 1.085-1.116 1.085-.5488 1.085.6516 1.085-1.2352 1.085-2.1832 1.085-.9586 1.085-.9187 1.085-3.3332 1.085-2.0871 1.085-.1793 1.085-1.4649 1.085.0926 1.085.416 1.085-.6457 1.085.2414 1.085-.4785 1.085-1.0551 1.085-.8691 1.085-1.2078 1.085-.195 1.085-.1898 1.085.798 1.085.3106 1.085-2.7051 1.085-.6855 1.085.7257 1.085-.2722 1.085-2.0399 1.085-.4582 1.085 3.1207 1.085 1.9965 1.085-2.4855 1.085-1.5278 1.085.7278 1.085-.643 1.085-.3523 1.085-.0727 1.085.0457 1.085-.4473 1.085-.0605 1.085-.0984 1.085-.7289 1.085-.4461 1.085.5351 1.085.0242 1.085-.7785 1.085.3586 1.085.1641 1.085-.7223 1.085.2109 1.085-.4582 1.085-.1605 1.085 1.8016 1.085.3449 1.085-.4883 1.085.9684 1.085.6253 1.085.3375 1.085 1.0918 1.085.6938 1.085-.5164 1.085-.232 1.085 1.5406 1.085 2.7531 1.085.75 1.085 1.1102 1.085 3.3406 1.085 3.9851 1.085 4.3457 1.085 5.1579 1.085 6.5097 1.085 9.5125 1.085 12.5004 1.085 13.002 1.085 12.528 1.085 11.172 1.085 6.882 1.085.289 1.085-4.378 1.085-6.379 1.085-7.55 1.085-10.49 1.085-10.121 1.085-8.485 1.085-8.9579 1.085-8.7058 1.085-6.6114 1.085-4.8488 1.085-4.4812 1.085-3.2161 1.085-2.9886 1.085-2.3332 1.085-2.6844 1.085-1.9102 1.085-.6113 1.085-.6238 1.085-1.6231 1.085-.548 1.085-.3758 1.085-.6742 1.085.1035 1.085-.5215 1.085-.7801 1.085-.0449 1.085.4703 1.085-.4449 1.085-.7305 1.085-.198 1.085-.0313 1.085.4614 1.085.9008 1.085.7851 1.085-.0578 1.085.0711 1.085-.1566 1.085 1.1062 1.085.0953 1.085-1.0941 1.085-.2426 1.085-.4813 1.085-.9855 1.085-.5273 1.085-.2372 1.085-.1867 1.085-.1304 1.085.241 1.085-.5153 1.085-.6953 1.085-.4312 1.085-.1891 1.085-.6914 1.085-.1207 1.085.2293 1.085-.3621 1.085-.4277 1.085.5226 1.085 1.0442 1.085.2843 1.085-1.3996 1.085-1.3355 1.085.2578 1.085.2738 1.085.3539 1.085.6699 1.085-.0617 1.085.268 1.085.9562" stroke="#77ac30"/><path d="m44.9336 40.7254.6516 3.1492 1.0847 2.2289 1.0852-.0465 1.0851-1.6843 1.0844-.3707 1.0856-2.8438 1.0851 1.1383 1.0844 1.5629 1.0851-1.3192 1.0856 1.0664 1.0844-1.8711.6293-1.0101" stroke="#4dbeee"/><path d="m60.5852 40.7254.1898.6207 1.0852 1.2707 1.0847-.7598 1.0731-1.1316" stroke="#4dbeee"/><path d="m64.2578 40.7254.8574.0473 1.0844 2.2304 1.0856 2.6235 1.0851-.234 1.0844-3.5453 1.0851.0539 1.0856 1.9922 1.0844-.7532h1.0851l1.0852 2.4711 1.0847-1.7254 1.0852.2914 1.0852 3.1262 1.0847 3.3383 1.0852 3.4539 1.0851 2.4207 1.0844 3.0309 1.0856 6.4433 1.0851 9.6 1.0844 3.4739 1.0851 2.9355 1.0856 10.1852 1.0844 13.3128 1.0851 14.775 1.0852 22.608 1.0847 21.305 1.0852-2.728 1.0852-22.397 1.0847-17.976 1.0852-8.649 1.0851-8.309 1.0844-11.0825 1.0856-9.8062 1.0848-7.3809 1.085-3.5738 1.085-5.3047 1.085-5.8898 1.085-1.7172 1.085-.8281 1.085-.0512 1.085-.1977 1.085-3.0594 1.085-.8835 1.085 1.2031 1.085 1.1461 1.085 1.2703 1.085 1.7324 1.085.4949 1.085 1.8821 1.085 4.4554 1.085 3.4336 1.085 4 1.085 7.4172 1.085 11.568 1.085 15.7619 1.085 24.731 1.085 35.952 1.085 44.178 1.085 43.298 1.085 15.086 1.085-26.328 1.085-45.91 1.085-43.875 1.085-31.84 1.085-18.221 1.085-10.4044 1.085-7.0039 1.085-4.5039 1.085.6773 1.085.3246 1.085 1.3246 1.085 5.3856 1.085 5.2695 1.085 1.9965 1.085-2.5894 1.085-7.9598 1.085-8.391 1.085-4.7395 1.085-3.2152 1.085-4.2961 1.085-2.1156 1.085.8992 1.085.0824 1.085-.4883 1.085-.3949 1.085-2.1195 1.085-1.6864 1.085-1.5898 1.085.0473 1.085-.5469 1.085-.8512 1.085.9113 1.085.0293 1.085.7622 1.085 3.0988 1.085 3.366 1.085 5.5434 1.085 3.8886 1.085 2.2664 1.085.4313 1.085-3.7313 1.085-5.6511 1.085-2.9926 1.085-2.1781 1.085-2.0114 1.085-2.484 1.085-2.121 1.085-.9368 1.085.5934 1.085 3.0598 1.085 2.2546 1.085.8161 1.085 1.5629 1.085-.0375 1.085-2.5215 1.085-1.8 1.085.1558 1.085-.7125 1.085-2.0683 1.085-.9825 1.085.7739 1.085-.3485 1.085-1.3293 1.085.8918 1.085 1.5196 1.085 2.5875 1.085.5707 1.085-2.268 1.085-2.0293 1.085-.243 1.085 1.3977 1.085 2.1016 1.085.3824 1.085 3.3668 1.085 7.8562 1.085 13.0106 1.085 11.9293 1.085 1.0066 1.085-7.6141 1.085-9.2625 1.085-8.4593 1.085-5.4614 1.085-2.007 1.085-1.8629 1.085-2.1953 1.085-1.4289 1.085 1.4348 1.085-.6293 1.085-2.2551 1.085-.7305 1.085-.9633 1.085-1.4203 1.085-1.9289 1.085-2.5008 1.085-2.1066 1.085-.1508 1.085.6625 1.085-.5152 1.085.332 1.085.8086 1.085-1.7754 1.085.2364 1.085 2.3437 1.085.9238 1.085 3.2063 1.085 4.9488 1.085 1.2059 1.085-1.8684 1.085-3.2887 1.085-3.0406 1.085-2.7629 1.085-2.3285 1.085-.5973 1.085.2887 1.085.0391 1.085.2215 1.085 1.7781 1.085.5984 1.085-.7387 1.085-1.7031 1.085-1.0523 1.085-.5875 1.085.5476 1.085-.0668 1.085.2633 1.085-.6613 1.085-1.3231 1.085 1.0446 1.085.9594 1.085.1027 1.085-1.0719 1.085-.4949 1.085.6254 1.085 1.1312 1.085.777 1.085.525 1.085.7094 1.085.1574 1.085.2394 1.085-.5738 1.085-1.5219 1.085.2934 1.085 2.8141 1.085 1.0898 1.085.4019 1.085 1.1266 1.085-.4426 1.085-.4328 1.085.1328 1.085-.0578 1.085-1.1094 1.085-1.5621 1.085-.6328 1.085.4039 1.085.5305 1.085-1.1461 1.085-.4996 1.085.0078 1.085.1086 1.085-.5453 1.085-1.6207 1.085.0832 1.085 1.6359 1.085-.3945 1.085.2078 1.085 2.4293 1.085-.5711 1.085-1.8246 1.085-.3773 1.085-1.1258 1.085-.2813 1.085.8379 1.085.886 1.085-.7809 1.085.2641 1.085.5324 1.085.0914 1.085.2664 1.085-1.3008 1.085-1.466 1.085.3758 1.085.464 1.085.3676 1.085.6906 1.085.1313 1.085-.4297 1.085.3113 1.085.4957 1.085-.8406 1.085-.1476 1.085 1.2386 1.085.9938 1.085.2183 1.085-.6636 1.085-1.4227 1.085-.7285 1.085.3586 1.085.7246 1.085.791 1.085-.407 1.085-.9528 1.085.2247 1.085.5945 1.085-.5235 1.085-2.1921 1.085-.7711 1.085.9007 1.085.1297 1.085-.0968 1.085.2972 1.085-.634 1.085-.5742 1.085.5309 1.085.0418 1.085-.0711 1.085.7574 1.085-.6742 1.085-.2969 1.085-.1012 1.085-.9144 1.085.3644 1.085.3829" stroke="#4dbeee"/><path d="m44.5 44.4227 1.0852-1.2688 1.0847 4.3266 1.0852-1.2785.9726-5.4766" stroke="#a2142f"/><path d="m49.0074 40.7254.9172 3.4664 1.0856 2.5059 1.0851-3.136 1.0844-2.0699.8305-.7664" stroke="#a2142f"/><path d="m57.5574 40.7254 1.0477 4.1894 1.0847 6.9434 1.0852-.9465 1.0852-4.8742 1.0847-.9352 1.0852.9204 1.0851 2.2093 1.0844-1.0582 1.0856-1.1129 1.0851.9981 1.0844 2.7156 1.0851 3.3258 1.0856.9719 1.0844 1.2863 1.0851-.8469 1.0852-3.6164 1.0847-2.1082 1.0852-.9945 1.0852-2.2547 1.0847-1.1008 1.0852-.166 1.0851-1.3895 1.0844 2.0528 1.0856 2.0129 1.0851 2.0453 1.0844 1.6437 1.0851 3.7547 1.0856 8.3731 1.0844 7.9843 1.0851 5.6582 1.0852 9.5743 1.0847 9.0836 1.0852-4.2364 1.0852-12.9058 1.0847-9.5176 1.0852-4.3477 1.0851-2.9781 1.0844-4.2676 1.0856-2.109 1.0848-2.1488 1.085-1.2097 1.085-1.5172 1.085-2.1399 1.085-.1722 1.085 1.6339 1.085.1891 1.085-1.6828 1.085-.6203 1.085.3 1.085.141 1.085.518 1.085 1.582 1.085 1.7269 1.085.511 1.085 1.3328 1.085 1.907 1.085 1.8496 1.085.3098 1.085 2.9316 1.085 5.7954 1.085 5.9949 1.085 9.8992 1.085 18.5374 1.085 25.04 1.085 24.031 1.085 6.135 1.085-19.473 1.085-28.434 1.085-21.1837 1.085-11.1492 1.085-5.1172 1.085-4.2285 1.085-3.2723 1.085-.4019 1.085 2.0074 1.085 2.9492 1.085-.7476 1.085-.4301 1.085.2625 1.085-1.6422 1.085-2.3508 1.085-3.0097 1.085-.9457 1.085-1.359 1.085-2.8852 1.085-1.1355 1.085-.1078 1.085-.4125 1.085-.9114 1.085.5535 1.085 1.0883 1.085-.3734 1.085-3.0438 1.085-1.9898 1.085-.2625 1.085-1.2742 1.085-1.2106 1.085.418 1.085 2.4016 1.085 4.1129 1.085 1.4957 1.085 1.9777 1.085 3.809 1.085 2.2726 1.085 3.0075 1.085 1.2082 1.085-2.9872 1.085-5.0714 1.085-.2348 1.085.2789 1.085-2.991 1.085-1.4633 1.085.1523 1.085-2.0894 1.085-.2957 1.085 2.2629 1.085 1.3176 1.085 1.0507 1.085 2.7938 1.085 2.3387 1.085-1.5539 1.085-3.6504 1.085-.6891 1.085-1.0383 1.085-2.2918 1.085-.4148 1.085.2941 1.085.0485 1.085-.5625 1.085.3886 1.085-.5519 1.085.5789 1.085 2.3363 1.085-1.3687 1.085-1.2727 1.085-.2648 1.085-1.4348 1.085-.6719 1.085.1867 1.085 1.4438 1.085 1.2777 1.085 2.6035 1.085 2.336 1.085-.6867 1.085-1.6868 1.085-2.2027 1.085-.0863 1.085 1.8863 1.085-.3137 1.085-.698 1.085-.8754 1.085-1.1813 1.085.2805 1.085.036 1.085-1.3809 1.085-1.0145 1.085.2473 1.085-.9898 1.085-1.5196 1.085-.4636 1.085-.5895 1.085.1293 1.085 1.925 1.085-1.3012 1.085-1.3754 1.085.3051 1.085-.0801 1.085.6711 1.085 2.386 1.085-.4996 1.085-1.0575 1.085.5903 1.085.3222 1.085-.0589 1.085-1.4305 1.085-1.1863 1.085 1.3425 1.085.3688 1.085-.2871 1.085-.2028 1.085-.296 1.085.1371 1.085-.1012 1.085.3625 1.085-.2371 1.085-1.0321 1.085.2415 1.085 1.2074 1.085-.2832 1.085-.8731 1.085.7477 1.085-.0668 1.085-.2406 1.085 2.757 1.085 2.4598 1.085.6625 1.085.2902 1.085 1.1293 1.085 1.7894 1.085.0645 1.085-1.6379 1.085-2.0301 1.085-.6812 1.085.009 1.085-.9188 1.085-.4078 1.085.0473 1.085-1.0614 1.085.1735 1.085.5992 1.085-.6078 1.085-.3238 1.085.741 1.085.9425 1.085 1.4141 1.085-.5672 1.085-.9344 1.085.795 1.085-.8102 1.085-1.9199 1.085.3422 1.085 2.1679 1.085 1.6598 1.085-.3297 1.085.0082 1.085.0114 1.085.848 1.085.8176 1.085-.5934 1.085-.7012 1.085 1.2817 1.085 1.6027 1.085-.8969 1.085-1.9546 1.085.8777 1.085 1.2066 1.085 1.7453 1.085 2.5633 1.085 2.2231 1.085 3.189 1.085 3.1223 1.085 1.8441 1.085.5426 1.085 1.059 1.085 2.1328 1.085 2.4332 1.085.5024 1.085-2.277 1.085-2.0414 1.085-2.3223 1.085-3.941 1.085-2.9484 1.085-1.709 1.085-1.6465 1.085-1.959 1.085-1.2113 1.085-.8562 1.085-.4965 1.085-.6219 1.085-.6316 1.085-.5422 1.085-.6344 1.085.048 1.085-.7035 1.085-.4652 1.085-.1566 1.085-.9059 1.085.2172 1.085.8027 1.085-.807 1.085-.9246 1.085-.3414 1.085-.6285 1.085-.5692 1.085-.8125 1.085-.4887 1.085.8348 1.085.2781 1.085-.105 1.085-.0489 1.085-.5113 1.085.4875 1.085.9043 1.085-.0277 1.085-.9676 1.085.3383 1.085.2093 1.085.1606" stroke="#a2142f"/><path d="m44.5 43.2234 1.0852-.7566 1.0847 1.9918 1.0852.0789 1.0851.4004 1.0844.7953 1.0856-.048 1.0851-4.918.0344-.0418" stroke="#0072bd"/><path d="m56.2344 40.7254.2004.1559 1.0851 3.4906 1.0852.6215 1.0847.741 1.0852-.5082 1.0852-3.1899.9968-1.3109" stroke="#0072bd"/><path d="m63.073 40.7254.9571.8609 1.0851 2.3063 1.0844-1.1852 1.0856-1.2465.5953-.7355" stroke="#0072bd"/><path d="m72.5074 40.7254.2024.2332 1.0851 2.273 1.0852 1.7625 1.0847-2.0464 1.0852-1.7231.5355-.4992" stroke="#0072bd"/><path d="m81.6316 40.7254.843 4.1168 1.0856 3.4551 1.0851.3351 1.0844 2.1465 1.0851 5.7938 1.0856 11.4015 1.0844 6.075 1.0851-7.7234 1.0852-7.3238 1.0847-2.2582 1.0852 1.7683 1.0852-1.0723 1.0847-3.3976 1.0852-.1059 1.0851-.8457 1.0844-3.4117 1.0856-1.9426 1.0848-1.9554 1.085-1.0707 1.085-1.309 1.085-.7004 1.085.9996 1.085 2.1832 1.085-.1047 1.085-.8168 1.085-.9226 1.085-.3817 1.085-.7687 1.085.3418 1.085 1.9449 1.085 1.1918 1.085-.2492 1.085-.5887 1.085.7851 1.085.0024 1.085-2.2981 1.085-.7265 1.085 2.8273 1.085 1.9719 1.085 1.1945 1.085.8524 1.085 1.4504 1.085 2.832 1.085 1.8734 1.085-1.0043 1.085-2.6691 1.085-.6383 1.085.3953 1.085 1.1293 1.085.9008 1.085.993 1.085 2.1398 1.085 1.1664 1.085 2.3735 1.085 7.7386 1.085 12.9301 1.085 9.5617 1.085-5.4285 1.085-13.4594 1.085-7.8007 1.085-2.9934 1.085-4.0379 1.085-5.0851 1.085-1.5997 1.085 1.1317 1.085-1.977 1.085-2.859 1.085-.0152 1.085 1.777 1.085.6089 1.085-1.7398 1.085-1.3973 1.085.6387 1.085.3203 1.085-.3015 1.085.5347 1.085 2.4805 1.085 3.0328 1.085 3.1891 1.085 5.0152 1.085 8.302 1.085 10.4496 1.085 12.1175 1.085 2.8684 1.085-11.8125 1.085-14.5398 1.085-6.3575 1.085-2.0363 1.085-2.7074 1.085-3.0203 1.085-2.5449 1.085-3.2184 1.085-.7813 1.085.954 1.085.8316 1.085-.0856 1.085.1778 1.085.016 1.085-.109 1.085-.8324 1.085-.243 1.085.5227 1.085.4472 1.085-.1808 1.085-1.1012 1.085.5348 1.085 1.2633 1.085 3.314 1.085 6.4524 1.085 5.1953 1.085 1.8562 1.085-4.759 1.085-7.1429 1.085-5.7864 1.085-3.6074 1.085-1.0664 1.085.777 1.085-1.5969 1.085-.6711 1.085 2.343 1.085.0465 1.085-1.3313 1.085.0992 1.085-.7285 1.085-1.1496 1.085 1.8684 1.085.6066 1.085-.4492 1.085 1.2105 1.085.4446 1.085.0179 1.085.6797 1.085-.1582 1.085-1.6711 1.085-.9945 1.085-.2668 1.085-.8688 1.085.6063 1.085-.0938 1.085.2153 1.085.459 1.085-.6317 1.085-1.3605 1.085-.6254 1.085.6562 1.085 1.6125 1.085 1.827 1.085-1.8047 1.085-1.9957 1.085.3742 1.085-.0758 1.085-.5 1.085-.1125 1.085.3051 1.085 1.4859 1.085 1.1887 1.085.1215 1.085-1.0664 1.085-1.3875 1.085.2625 1.085-.1734 1.085.2054 1.085.1555 1.085-.0129 1.085.343 1.085.6664 1.085-.5617 1.085-1.2965 1.085-.0137 1.085.6832 1.085 1.5512 1.085 1.7472 1.085-.0921 1.085-.0293 1.085-.8211 1.085-.9774 1.085.2797 1.085 1.1063 1.085.4972 1.085-.5804 1.085.1027 1.085.8516 1.085-.0774 1.085-.4457 1.085.8199 1.085.7875 1.085.2196 1.085-.8653 1.085-.523 1.085 1.0488 1.085.977 1.085.6714 1.085-.1425 1.085-1.5645 1.085-.1523 1.085.5039 1.085-1.1864 1.085-2.0414 1.085-.5671 1.085.9699 1.085 2.0472 1.085 1.2332 1.085-1.0296 1.085-.2231 1.085 1.7027 1.085 1.1625 1.085.7801 1.085.8938 1.085.5601 1.085.2059 1.085-.5731 1.085-.6519 1.085 1.4027 1.085 1.1676 1.085.6898 1.085 1.4625 1.085 1.2489 1.085 1.1004 1.085 2.8816 1.085 3.3305 1.085 2.6695 1.085 4.4824 1.085 4.3344 1.085 3.6316 1.085 2.5422 1.085-.5406 1.085-3.0203 1.085-4.3973 1.085-4.2402 1.085-3.9969 1.085-2.5289 1.085-1.2226 1.085-1.7356 1.085-1.4805 1.085-1.373 1.085-1.018 1.085-1.3445 1.085-.993 1.085-.0812 1.085-.2496 1.085-.7336 1.085-1.0223 1.085-.4477 1.085-.5437 1.085-.4605 1.085 1.1101 1.085-.5715 1.085-1.582 1.085-1.2785 1.085-.1035 1.085.114 1.085-.7605 1.085-.268 1.085-.2894 1.085.2226 1.085-.1234 1.085-.5992 1.085.6074 1.085-.2153 1.085-.6992 1.085.2785 1.085-.0277 1.085-.5418 1.085.7117 1.085-.1429 1.085-.7856" stroke="#0072bd"/><path d="m44.5 44.6449 1.0852 5.9114 1.0847 2.5261 1.0852-9.1222.6269-3.2348" stroke="#d95319"/><path d="m49.3148 40.7254.6098 3.0394 1.0856 5.2614 1.0851-3.3875.9578-4.9133" stroke="#d95319"/><path d="m56.6051 40.7254.9148 2.5769 1.0852 1.0965 1.0847 3.7184 1.0852-.1492 1.0852-3.816 1.0847-2.6856 1.0852 2.5086 1.0851 5.1406 1.0844-2.0004 1.0856-.2152 1.0851 3.9316 1.0844 4.4625 1.0851 4.8164 1.0856 2.6813 1.0844 3.0637 1.0851-1.2899 1.0852-6.8558 1.0847-5.4977 1.0852-1.0836 1.0852-.8219 1.0847.7875 1.0852 1.7375 1.0851.0235 1.0844 4.3648 1.0856 10.4883 1.0851 10.2531 1.0844-.7605 1.0851-5.8403 1.0856 1.5411 1.0844 3.4406 1.0851 1.5613 1.0852 5.5004 1.0847 6.7516 1.0852 5.4937 1.0852 5.4848 1.0847 5.244 1.0852 2.485 1.0851-5.981 1.0844-12.623 1.0856-8.1879 1.0848-5.2395 1.085-3.6328 1.085-4.1242 1.085-7.159 1.085-5.075 1.085.2332 1.085 1.8676 1.085-1.7152 1.085-3.0324 1.085.08 1.085-1.0289 1.085-.4078 1.085 1.4277 1.085.6024 1.085 1.0996 1.085-.3406 1.085.1957 1.085 1.7437 1.085 1.8653 1.085.6968 1.085 1.2352 1.085 1.7141 1.085 3.2066 1.085 4.9344 1.085 7.3777 1.085 14.0438 1.085 11.5145 1.085-2.687 1.085-11.4029 1.085-9.3864 1.085-5.7187 1.085-1.8508 1.085 1.284 1.085 2.1695 1.085 2.2559 1.085 3.0746 1.085 4.4625 1.085 6.3965 1.085 7.7898 1.085 6.842 1.085.455 1.085-6.946 1.085-10.3315 1.085-7.571 1.085-4.159 1.085-4.4977 1.085-3.0758 1.085 1.4387 1.085.7168 1.085.4621 1.085.575 1.085-.3703 1.085.1117 1.085-2.3984 1.085-3.6848 1.085-2.9844 1.085-2.3836 1.085-1.0273 1.085 2.7855 1.085 3.5235 1.085 1.2808 1.085 4.4696 1.085 6.159 1.085 4.9777 1.085 3.6516 1.085 2.5523 1.085-1.3371 1.085-5.8117 1.085-6.1188 1.085-2.4293 1.085-2.7922 1.085-3.323 1.085.3297 1.085 1.2422 1.085-.891 1.085 1.196 1.085 3.2633 1.085 1.5645 1.085 2.3176 1.085 3.7824 1.085 2.8238 1.085-.0473 1.085-4.407 1.085-5.9348 1.085-6.0285 1.085-3.2406 1.085-.4832 1.085-.9816 1.085-.3243 1.085.0985 1.085.1793 1.085.5699 1.085 2.1969 1.085 2.7711 1.085-1.0118 1.085-1.971 1.085-.6727 1.085.4117 1.085 2.3153 1.085 5.7621 1.085 8.8644 1.085 13.3281 1.085 18.7736 1.085 12.846 1.085-.64 1.085-11.28 1.085-15.131 1.085-11.7279 1.085-5.2387 1.085-3.5305 1.085-4.2418 1.085-2.6625 1.085-1.4043 1.085-1.5941 1.085-2.4129 1.085-3.5902 1.085-2.7039 1.085-1.0329 1.085-2.1882 1.085-3.2414 1.085-.0114 1.085-1.08 1.085-1.5719 1.085-.7133 1.085-.7719 1.085-.9375 1.085-.5004 1.085 1.2184 1.085 2.1375 1.085 2.9789 1.085 2.7449 1.085 4.6379 1.085 5.5848 1.085 2.6945 1.085-4.1504 1.085-7.4656 1.085-3.5871 1.085-.3164 1.085-1.7574 1.085-2.4969 1.085-1.0133 1.085.0977 1.085 1.0785 1.085.5601 1.085-.7883 1.085-.9793 1.085-.616 1.085-.7234 1.085-.0895 1.085-1.4691 1.085-.7133 1.085.6465 1.085-.8496 1.085-.4402 1.085.7972 1.085-.0871 1.085.1274 1.085.3152 1.085.1797 1.085-.2344 1.085-.0098 1.085.0102 1.085-.8992 1.085 1.2023 1.085 1.5285 1.085-.4988 1.085.4621 1.085 1.3957 1.085 1.7184 1.085 1.7601 1.085 1.1356 1.085 1.0117 1.085.9789 1.085-.0082 1.085.0484 1.085 1.1086 1.085.8145 1.085.5656 1.085-.6262 1.085-2.1527 1.085-1.6523 1.085.7988 1.085 1.8465 1.085.5754 1.085-.0285 1.085-.7434 1.085-.968 1.085.1438 1.085-.6856 1.085-1.0168 1.085.416 1.085.4938 1.085-.0805 1.085-1.6679 1.085-1.9536 1.085-.0886 1.085.1539 1.085-.3821 1.085-1.1902 1.085-.4738 1.085.1687 1.085-.6578 1.085.2574 1.085-.2046 1.085.6605 1.085.2414 1.085.9645 1.085.2394 1.085-1.0515 1.085.2917 1.085.1665 1.085.1281 1.085-.011 1.085-.4668 1.085-.3929 1.085-.1266 1.085.1418 1.085-.5672 1.085-.9867 1.085-.643 1.085.3106 1.085-.4867 1.085-.9422 1.085.6308 1.085.7395 1.085-.4777 1.085-1.2262 1.085-.7289 1.085 1.6965 1.085 1.2238 1.085-.8699 1.085-1.5164 1.085-.136 1.085.291 1.085-.4484 1.085-.5953 1.085.0004 1.085.8246 1.085.2375 1.085-.0434 1.085.4028 1.085-.9278 1.085-1.1379 1.085 1.1414 1.085 1.7739 1.085-.4754 1.085-.102 1.085.1844 1.085.0547" stroke="#d95319"/><path d="m44.5 41.0824 1.0852 1.8981 1.0847 3.6699 1.0852-.609 1.0851-1.3644 1.0844.9683 1.0856 1.9438 1.0851 3.0578 1.0844.7508 1.0851-2.4329 1.0856-4.4878 1.0844-.52 1.0851 1.4391 1.0852 2.7519 1.0847 4.9274 1.0852.7516 1.0852-1.5899 1.0847-1.6598 1.0852.4364 1.0851 5.4855 1.0844 1.7309 1.0856 3.2836 1.0851 5.9843 1.0844 9.8692 1.0851 14.8949 1.0856 13.3019 1.0844 5.357 1.0851-7.748 1.0852-12.8742 1.0847-11.6347 1.0852-6.9528 1.0852-3.4894 1.0847-4.0778 1.0852-2.8703 1.0851.2235 1.0844 4.857 1.0856 7.1586 1.0851 8.8562 1.0844 8.784 1.0851 14.6059 1.0856 26.057 1.0844 22.044 1.0851 8.646 1.0852 11.54 1.0847 14.193 1.0852-4.348 1.0852-22.309 1.0847-18.994 1.0852-12.022 1.0851-12.046 1.0844-13.516 1.0856-11.0833 1.0848-8.0168 1.085-4.0074 1.085-5.2844 1.085-6.0945 1.085-1.5504 1.085.7051 1.085-1.945 1.085-3.3199 1.085-.7187 1.085 1.2269 1.085-.4324 1.085.1797 1.085 2.1723 1.085 2.7035 1.085 4.7875 1.085 2.8859 1.085 2.0258 1.085 5.2617 1.085 7.0953 1.085 9.4901 1.085 11.167 1.085 13.772 1.085 23.658 1.085 32.25 1.085 39.343 1.085 38.336 1.085 16.119 1.085-21.084 1.085-44.411 1.085-40.703 1.085-29.039 1.085-20.245 1.085-13.331 1.085-6.992 1.085-1.2 1.085.7672 1.085 3.6598 1.085 5.814 1.085 8.311 1.085 10.177 1.085 2 1.085-8.279 1.085-12.425 1.085-9.9914 1.085-7.691 1.085-6.3563 1.085-3.225 1.085-2.9117 1.085-2.9074 1.085-1.7559 1.085-.8265 1.085.0863 1.085-1.3246 1.085-1.7031 1.085-1.8727 1.085-2.3418 1.085-.4894 1.085-.0235 1.085.4379 1.085 2.3918 1.085 3.6938 1.085 5.4105 1.085 10.4332 1.085 11.6438 1.085 11.502 1.085 12.209 1.085 4.812 1.085-7.181 1.085-13.305 1.085-9.2738 1.085-7.6117 1.085-8.0887 1.085-4.3246 1.085-2.9609 1.085-4.698 1.085-1.4762 1.085 2.3808 1.085 1.0813 1.085.9855 1.085 3.7825 1.085 3.216 1.085.8015 1.085-3.1918 1.085-4.5855 1.085-4.0418 1.085-2.1984 1.085-.8438 1.085-.7062 1.085-.2102 1.085.6285 1.085 4.0899 1.085 6.3105 1.085 6.3441 1.085 5.0579 1.085-3.311 1.085-9.3398 1.085-6.9074 1.085-3.4368 1.085-2.241 1.085.2688 1.085 1.448 1.085 2.8418 1.085 5.5649 1.085 3.9586 1.085.6226 1.085-1.7574 1.085-5.3356 1.085-4.1742 1.085.425 1.085-.3972 1.085-2.4196 1.085-1.4328 1.085-.0922 1.085-.5082 1.085-2.2312 1.085-1.8481 1.085-2.2199 1.085-1.4133 1.085.3227 1.085-1.0035 1.085-1.4868 1.085-1.0543 1.085.9317 1.085.2406 1.085-1.566 1.085-.552 1.085.4852 1.085.6512 1.085.5578 1.085.7117 1.085.7188 1.085 1.1457 1.085 2.1332 1.085 1.0785 1.085-1.0262 1.085-3.716 1.085-2.866 1.085 1.1086 1.085 1.1047 1.085-.2356 1.085.3645 1.085.2265 1.085-.1551 1.085-.7582 1.085.1715 1.085-.2375 1.085-.5828 1.085-.8129 1.085-.4586 1.085-.6785 1.085-1.0172 1.085-.173 1.085-.0555 1.085.3539 1.085.9602 1.085.984 1.085-.0586 1.085-1.3172 1.085.1629 1.085.6422 1.085-.3071 1.085-.6695 1.085-.5805 1.085 1.5141 1.085 1.9344 1.085-.4801 1.085-.0985 1.085 1.4071 1.085.7922 1.085.1445 1.085.2973 1.085.2879 1.085.8992 1.085 1.5996 1.085 1.375 1.085.9996 1.085.2094 1.085-.9375 1.085-.5754 1.085-.9016 1.085-1.5484 1.085-.1367 1.085 2.2277 1.085 1.5867 1.085-.2016 1.085-.4027 1.085-.0445 1.085 1.014 1.085-.8406 1.085-1.3351 1.085.0136 1.085.1934 1.085.5234 1.085-1.2402 1.085-1.8938 1.085.2454 1.085.423 1.085-.5516 1.085.1645 1.085-.1516 1.085-.9425 1.085-.6079 1.085.3446 1.085-.2446 1.085-.1562 1.085.2062 1.085.2957 1.085-.7425 1.085-1.2141 1.085.2953 1.085-.0203 1.085-1.0641 1.085-.264 1.085.6156 1.085.6106 1.085-.5016 1.085-.25 1.085-.5211 1.085-.8543 1.085-.7523 1.085.3105 1.085.3855 1.085.0743 1.085.4558 1.085-.3972 1.085-.5223 1.085-.0109 1.085-.2559 1.085 1.1602 1.085 1.0214 1.085-.1988 1.085-.7258 1.085-.2574 1.085.0082 1.085-.6402 1.085-.393 1.085.1707 1.085 1.0211 1.085-.066 1.085-.3391 1.085.3973 1.085-.5789 1.085-.6856 1.085.1567 1.085.6383 1.085-.2528 1.085-.1222 1.085.0918 1.085-.2102" stroke="#edb120"/><path d="m44.5 61.8031 1.0852-1.4601 1.0847.2789 1.0852 1.7695 1.0851-2.0695 1.0844-.4793 1.0856-1.2262 1.0851-3.1762 1.0844-.2152 1.0851 5.6859 1.0856 1.2793 1.0844-.4539 1.0851 4.4899 1.0852.2258 1.0847-1.5391 1.0852 1.3551 1.0852 2.3601 1.0847 1.5739 1.0852-1.5782 1.0851 1.5442 1.0844 7.1086 1.0856 4.3613 1.0851 2.1164 1.0844 5.6836 1.0851 11.7131 1.0856 8.996 1.0844 2.045 1.0851-4.471 1.0852-6.583 1.0847-6.445 1.0852-5.2328 1.0852-6.075 1.0847-4.3911 1.0852-1.1543 1.0851.018 1.0844 3.1149 1.0856 6.8203 1.0851 8.6859 1.0844 8.0371 1.0851 9.626 1.0856 20.952 1.0844 21.823 1.0851 10.251 1.0852 9.15 1.0847 11.314 1.0852.249 1.0852-16.013 1.0847-18.033 1.0852-14.185 1.0851-14.007 1.0844-13.168 1.0856-9.51 1.0848-7.2068 1.085-6.3406 1.085-5.2762 1.085-4.525 1.085-2.5746 1.085-.6953 1.085-1.5375 1.085-.0031 1.085-.3387 1.085.6215 1.085.4008 1.085-.4231 1.085 2.8117 1.085 2.159 1.085 3.7547 1.085 2.0211 1.085 2.418 1.085 7.6449 1.085 6.6222 1.085 4.66 1.085 8.284 1.085 15.085 1.085 18.093 1.085 23.622 1.085 33.166 1.085 34.156 1.085 19.293 1.085-8.647 1.085-28.78 1.085-35.418 1.085-30.683 1.085-22.835 1.085-14.615 1.085-7.14 1.085-3.766 1.085-1.271 1.085 1.587 1.085 4.373 1.085 6.687 1.085 8.83 1.085 2.375 1.085-6.019 1.085-10.278 1.085-10.69 1.085-5.7334 1.085-4.8676 1.085-4.0004 1.085-2.4633 1.085-2.625 1.085-1.2117 1.085-1.4933 1.085-1.3477 1.085-1.8547 1.085-2.398 1.085-1.4528 1.085-1.9168 1.085-1.0597 1.085-.1621 1.085 2.5832 1.085 2.4996 1.085 1.0461 1.085 3.514 1.085 6.8743 1.085 8.8261 1.085 10.9422 1.085 11.664 1.085 7.983 1.085-3.071 1.085-8.986 1.085-9.786 1.085-8.3352 1.085-8.0184 1.085-6.2976 1.085-1.9176 1.085-1.7274 1.085-1.4316 1.085.8902 1.085-.2492 1.085.1734 1.085 1.9715 1.085 1.7145 1.085.2246 1.085-.1922 1.085-4.3926 1.085-4.0996 1.085-2.7285 1.085-1.5758 1.085.834 1.085 2.9121 1.085.6871 1.085.3668 1.085 4.0906 1.085 6.1387 1.085 3.0668 1.085-1.9973 1.085-5.8394 1.085-4.5047 1.085-4.1559 1.085-3.9156 1.085-.2023 1.085 3.6769 1.085 4.0418 1.085 4.3555 1.085 2.091 1.085-.1851 1.085-2.4176 1.085-2.3684 1.085-1.9281 1.085-2.5578 1.085-2.175 1.085-.8211 1.085-.8324 1.085-.0563 1.085-1.9867 1.085-2.9656 1.085-1.6035 1.085-.2977 1.085.0898 1.085-2.5722 1.085-.4555 1.085.5137 1.085-1.4637 1.085-2.1258 1.085-.6386 1.085.9921 1.085-.1246 1.085-1.1476 1.085-.0703 1.085.7347 1.085.5469 1.085 1.102 1.085 3.2578 1.085 2.1758 1.085.255 1.085-1.0672 1.085-3.0128 1.085-2.2727 1.085-.6297 1.085.0949 1.085-.5992 1.085-1.116 1.085 1.6398 1.085 1.7707 1.085-1.2211 1.085.0227 1.085.9832 1.085-.6398 1.085-1.177 1.085-.1738 1.085-1.3328 1.085-1.1282 1.085-.0425 1.085-.2649 1.085.2453 1.085.5289 1.085.1153 1.085-.7176 1.085-.693 1.085-.2797 1.085 1.0606 1.085.7332 1.085.3848 1.085-.4239 1.085.709 1.085.7543 1.085 1.6344 1.085 1.2406 1.085-1.3027 1.085 1.8492 1.085 3.4043 1.085 1.9344 1.085 2.3136 1.085 2.6903 1.085 3.5199 1.085 2.6562 1.085 2.704 1.085 3.6863 1.085 2.6488 1.085 1.9449 1.085.725 1.085-.9875 1.085-2.2441 1.085-1.4106 1.085-1.9929 1.085-.9215 1.085-2.8906 1.085-3.4598 1.085-2.5051 1.085-2.0488 1.085-1.4926 1.085-1.2637 1.085-1.3488 1.085-2.8781 1.085-.9363 1.085.9382 1.085-1.4355 1.085-.966 1.085.016 1.085-.6016 1.085-.4191 1.085-.2234 1.085.5089 1.085.3262 1.085-.0195 1.085-.4512 1.085-1.218 1.085-.8125 1.085.4711 1.085-1.2308 1.085-1.5375 1.085-.7461 1.085-.6414 1.085.9277 1.085 1.0395 1.085.0367 1.085-.95 1.085.0687 1.085-.2187 1.085-1.1512 1.085-.3555 1.085-.4125 1.085-.0773 1.085-.6691 1.085.2386 1.085.8332 1.085.945 1.085.7425 1.085-.025 1.085-.1797 1.085-.5574 1.085-.1828 1.085 1.0887 1.085.2445 1.085-.6058 1.085-.6774 1.085-.7215 1.085.777 1.085 1.032 1.085-.0766 1.085-.6605 1.085-.1004 1.085-.1301 1.085-.2054 1.085-.0368 1.085.0375 1.085.2036 1.085.5457 1.085.6437 1.085.0141" stroke="#7e2f8e"/><path d="m44.5 72.691 1.0852 1.6828 1.0847-.3035 1.0852 2.9625 1.0851-1.1027 1.0844-.8531 1.0856-1.9051 1.0851-2.9438 1.0844-2.059 1.0851 3.3887 1.0856 5.0969 1.0844-1.4438 1.0851 1.4266 1.0852-1.6508 1.0847-4.6125 1.0852 1.4903 1.0852 3.2125 1.0847 4.2929 1.0852 3.4633 1.0851 1.7387 1.0844 3.3597 1.0856 3.0414 1.0851 3.1524 1.0844 4.6973 1.0851 6.4203 1.0856 7.101 1.0844 4.081 1.0851-2.684 1.0852-5.694 1.0847-6.01 1.0852-2.8948 1.0852-3.7457 1.0847-5.0235 1.0852.8618 1.0851-1.1836 1.0844-1.3696 1.0856 2.2344 1.0851 6.6742 1.0844 9.2278 1.0851 9.032 1.0856 18.109 1.0844 17.209 1.0851 7.841 1.0852 11.45 1.0847 11.173 1.0852-2.028 1.0852-12.85 1.0847-17.634 1.0852-11.839 1.0851-9.291 1.0844-11.738 1.0856-7.548 1.0848-3.919 1.085-6.8612 1.085-5.7261 1.085-4.8586 1.085-4.2891 1.085-2.4023 1.085-.9696 1.085-1.0019 1.085-1.4875 1.085-1.2727 1.085-.8039 1.085 2.8371 1.085 5.743 1.085 3.1691 1.085 3.5184 1.085 1.0109 1.085 1.3172 1.085 5.1238 1.085 7.9564 1.085 4.654 1.085 4.38 1.085 9.842 1.085 16.903 1.085 20.711 1.085 25.986 1.085 30.677 1.085 18.852 1.085-6.487 1.085-22.633 1.085-30.126 1.085-26.399 1.085-18.593 1.085-13.535 1.085-7.633 1.085-3.023 1.085-1.168 1.085 1.95 1.085 3.786 1.085 3.545 1.085 6.336 1.085 3.63 1.085-4.466 1.085-8.27 1.085-8.338 1.085-6.7311 1.085-7.6629 1.085-6.0156 1.085-1.5414 1.085-.945 1.085-1.8414 1.085-1.6617 1.085.4281 1.085.1067 1.085-2.8465 1.085-.5707 1.085-.7273 1.085-1.1731 1.085-.1922 1.085 2.2582 1.085 2.586 1.085 1.3375 1.085 2.666 1.085 5.3461 1.085 6.7125 1.085 9.5898 1.085 8.709 1.085 5.712 1.085-1.944 1.085-9.608 1.085-7.501 1.085-4.4719 1.085-6.2203 1.085-5.493 1.085-2.2867 1.085-2.4578 1.085-1.4633 1.085-.5926 1.085-1.3679 1.085.3343 1.085.2258 1.085 2.2489 1.085 2.4222 1.085-.1328 1.085-3.3426 1.085-3.189 1.085-1.2368 1.085.036 1.085-1.1481 1.085-.007 1.085 2.3551 1.085.0953 1.085 2.2867 1.085 5.8524 1.085 4.2238 1.085-.0125 1.085-5.1551 1.085-6.3734 1.085-3.666 1.085-2.4563 1.085-.0914 1.085 1.5613 1.085 2.536 1.085 4.8015 1.085 2.6836 1.085-1.3449 1.085-1.7234 1.085-1.3379 1.085-1.8946 1.085-3.5695 1.085-2.693 1.085-1.1656 1.085-1.3418 1.085-.7996 1.085-1.7316 1.085-.4344 1.085-.5008 1.085-1.5211 1.085.4172 1.085-.1312 1.085-1.4387 1.085-1.4879 1.085-1.3531 1.085-1.9957 1.085-1.0086 1.085.7168 1.085-.3336 1.085-.3242 1.085.0593 1.085-.3308 1.085.5027 1.085.8668 1.085 1.7699 1.085 3.0453 1.085 2.2414 1.085-.2324 1.085-3.1297 1.085-2.4586 1.085-1.2105 1.085-1.0598 1.085-.825 1.085-.9375 1.085 1.4641 1.085.4672 1.085-.8625 1.085.2785 1.085.1793 1.085.1875 1.085.4559 1.085-.6278 1.085-1.5719 1.085-1.1812 1.085.2617 1.085.9938 1.085.6957 1.085-.095 1.085-1.0718 1.085-.511 1.085.1653 1.085-.0164 1.085.0605 1.085.4441 1.085.5317 1.085.048 1.085.9614 1.085 1.1296 1.085 1.6899 1.085 1.5937 1.085.5075 1.085 1.4793 1.085 3.366 1.085 3.6726 1.085 3.7719 1.085 3.8707 1.085 4.7152 1.085 5.1489 1.085 6.5277 1.085 6.9031 1.085 3.9785 1.085 2.515 1.085.488 1.085-2.303 1.085-3.7703 1.085-3.2273 1.085-3.7379 1.085-3.5168 1.085-4.3078 1.085-3.7223 1.085-3.7547 1.085-4.4871 1.085-3.9351 1.085-1.7942 1.085.0614 1.085-1.4204 1.085-1.4925 1.085-1.875 1.085-2.6024 1.085-1.6777 1.085-.5215 1.085-.2144 1.085.9082 1.085-.1141 1.085-.5324 1.085-.1625 1.085.4152 1.085-.1875 1.085-1.8051 1.085-1.1609 1.085.059 1.085-1.1571 1.085-.9242 1.085-.6426 1.085-.9726 1.085.0141 1.085.3714 1.085 1.2067 1.085-.018 1.085-.9258 1.085-.5324 1.085-.3875 1.085-.7238 1.085-1.7039 1.085.3629 1.085.8941 1.085.543 1.085.8242 1.085.1004 1.085-.102 1.085 1.3223 1.085.1328 1.085-1.3016 1.085-1.4832 1.085 1.3329 1.085.2675 1.085-.9707 1.085.1203 1.085-.2093 1.085-.0067 1.085.0981 1.085 1.1062 1.085.4574 1.085-.6289 1.085-.9 1.085-.255 1.085-.034 1.085.2109 1.085.3594 1.085-.9371 1.085 1.0113 1.085 2.0016" stroke="#77ac30"/><path d="m44.5 98.2977 1.0852 1.1968 1.0847 3.1785 1.0852 6.892 1.0851 6.733 1.0844.484 1.0856-5.273 1.0851-4.175 1.0844-3.464 1.0851 4.229 1.0856 3.234 1.0844-.562 1.0851 2.325 1.0852-2.307 1.0847-4.647 1.0852-.442 1.0852.106 1.0847.192 1.0852 2.811 1.0851 2.757 1.0844 3.952 1.0856 6.502 1.0851.824 1.0844-2.058 1.0851 5.947 1.0856 6.583 1.0844-.652 1.0851-2.079 1.0852-.327 1.0847-.315 1.0852-.595 1.0852-4.45 1.0847-5.067 1.0852-2.554 1.0851 1.016 1.0844.813 1.0856.604 1.0851 6.651 1.0844 4.321 1.0851 1.752 1.0856 11.23 1.0844 13.365 1.0851 7.789 1.0852 6.768 1.0847 6.925 1.0852 2.818 1.0852-8.111 1.0847-13.888 1.0852-11.199 1.0851-7.937 1.0844-7.187 1.0856-5.936 1.0848-7.21 1.085-5.543 1.085-2.994 1.085-2.058 1.085-2.437 1.085-1.85 1.085-.713 1.085-1.127 1.085-.621 1.085 2.334 1.085-.586 1.085-1.79 1.085-.447 1.085 2.667 1.085 2.796 1.085-.521 1.085 2.238 1.085 4.914 1.085 3.783 1.085 1.825 1.085 4.417 1.085 9.118 1.085 9.581 1.085 12.928 1.085 19.314 1.085 20.445 1.085 13.447 1.085 1.719 1.085-10.072 1.085-17.653 1.085-18.257 1.085-15.223 1.085-13.104 1.085-8.764 1.085-3.395 1.085-3.601 1.085-1.955 1.085.849 1.085 1.057 1.085 4.041 1.085 3.74 1.085-1.76 1.085-5.577 1.085-3.97 1.085-3.963 1.085-6.805 1.085-5.198 1.085-.572 1.085-1.7473 1.085-3.0269 1.085-.6547 1.085-.3188 1.085-1.0344 1.085-.3718 1.085.4632 1.085-2.9796 1.085-5.2231 1.085.6277 1.085 4.279 1.085.6523 1.085-1.491 1.085 1.9578 1.085 4.6723 1.085 4.8483 1.085 6.371 1.085 7.223 1.085 2.958 1.085-1.759 1.085-2.645 1.085-3.753 1.085-4.812 1.085-7.3759 1.085-5.916 1.085-.7988 1.085-.4262 1.085-.1812 1.085-.2289 1.085-2.4293 1.085-.6403 1.085 1.5965 1.085.2266 1.085.4367 1.085.9476 1.085-.9191 1.085-1.998 1.085-2.9329 1.085-2.2796 1.085.0777 1.085 1.875 1.085 1.0652 1.085-.1769 1.085 1.275 1.085 3.1168 1.085 2.6086 1.085 1.4699 1.085-.861 1.085-4.0269 1.085-4.5914 1.085-1.1902 1.085.8949 1.085 3.3554 1.085 2.4196 1.085 1.5367 1.085 1.2785 1.085.2723 1.085-1.9348 1.085-3.6308 1.085-3.0481 1.085-2.6078 1.085-1.5457 1.085-1.7309 1.085-1.3027 1.085.2445 1.085-1.4468 1.085-2.9317 1.085-1.6117 1.085-1.2731 1.085-1.3257 1.085-.7696 1.085-.0699 1.085-.5465 1.085-1.5074 1.085-1.7738 1.085-.9797 1.085-.2414 1.085-.7973 1.085-.2933 1.085 1.0074 1.085.0586 1.085-.1114 1.085-.1976 1.085 1.2922 1.085 2.3586 1.085 2.0258 1.085-.5731 1.085-2.3977 1.085-1.314 1.085-.7996 1.085-.734 1.085-.2598 1.085-1.3992 1.085.1918 1.085 1.4125 1.085-1.0973 1.085-.7171 1.085.741 1.085.3129 1.085 1.1164 1.085.1906 1.085-1.9281 1.085-1.1118 1.085.0211 1.085-1.398 1.085-.584 1.085 1.9133 1.085 1.3617 1.085-.2812 1.085-1.2313 1.085.6574 1.085.8575 1.085-.5204 1.085 1.2289 1.085 1.9036 1.085.3464 1.085-.0261 1.085 2.9699 1.085 3.4008 1.085 2.0722 1.085 2.984 1.085 5.4367 1.085 6.595 1.085 6.8609 1.085 7.3593 1.085 11.1 1.085 12.652 1.085 14.25 1.085 14.326 1.085 10.854 1.085 4.715 1.085-1.786 1.085-6.496 1.085-8.309 1.085-8.301 1.085-9.948 1.085-9.834 1.085-9.794 1.085-8.319 1.085-8.0564 1.085-7.3949 1.085-4.8059 1.085-3.4914 1.085-3.7051 1.085-4.2808 1.085-2.6371 1.085-1.9102 1.085-1.9746 1.085-1.7672 1.085-1.5398 1.085-1.0184 1.085-.4859 1.085-.5129 1.085-1.0403 1.085-.7988 1.085-.4734 1.085-.2547 1.085-.5387 1.085-.6113 1.085-.0375 1.085-1.6973 1.085-1.5465 1.085-.5421 1.085.4746 1.085.6316 1.085-.7727 1.085-.4242 1.085.3578 1.085.2832 1.085-.348 1.085-.7695 1.085-.8227 1.085-1.4992 1.085-.1942 1.085.6391 1.085-.2648 1.085.0433 1.085.6895 1.085.0883 1.085.5777 1.085.1051 1.085-.0594 1.085.023 1.085-.0949 1.085-.0918 1.085-.291 1.085-.6734 1.085-.9719 1.085.023 1.085.8793 1.085.2993 1.085.2722 1.085.4934 1.085-.5008 1.085-.1223 1.085-.0257 1.085.3293 1.085.1277 1.085-.1981 1.085.0125 1.085.877" stroke="#4dbeee"/><path d="m45.8875 40.7254.7824 2.9332 1.0852-2.8254.1418-.1078" stroke="#a2142f"/><path d="m49.177 40.7254.7476 1.6012 1.0856-.3629 1.0851.2707.6113-1.509" stroke="#a2142f"/><path d="m57.3086 40.7254.2113.6711 1.0852 4.0898 1.0847 2.6641 1.0852-2.4285 1.0852-2.1438 1.0847-.8121 1.0852 2.1406 1.0851 1.3282 1.0844-1.9926 1.0856 1.1277 1.0851-2.9465 1.0844-.7261 1.0851 2.3101 1.0856.2727 1.0844 1.5472 1.0851.7684 1.0852-1.4102 1.0847-3.414 1.0852-1.007 1.0852 1.064 1.0847-.9031.0883-.2" stroke="#a2142f"/><path d="m82.2992 40.7254.1754.4762 1.0856 1.7668 1.0851-.593 1.0844-.477 1.0851.9891 1.0856 4.2832 1.0844 2.9004 1.0851-1.2781 1.0852.8691 1.0847-.4258 1.0852-1.5652 1.0852-2.1332 1.0847-1.9902 1.0852 1.3777 1.0851.8992 1.0844-2.0355 1.0856-.1157 1.0848.1157 1.085-1.2856 1.085-.7629 1.085-.6695 1.085 1.4105 1.085 2.4782 1.085.6156 1.085-.302 1.085-1.0269 1.085-.4567 1.085 1.368 1.085-.7965 1.085-.7761 1.085 1.7375 1.085.8972 1.085 1.8485 1.085 3.1359 1.085.3727 1.085.2402 1.085 2.5617 1.085 2.4031 1.085 1.4047 1.085 3.6824 1.085 5.4278 1.085 4.714 1.085 6.0575 1.085.9632 1.085-6.5679 1.085-8.7563 1.085-5.2004 1.085-1.2504 1.085.0512 1.085-1.5734 1.085-2.0071 1.085.6043 1.085 1.0172 1.085-.2445 1.085-.4656 1.085-.9258 1.085-1.2149 1.085-1.098 1.085-1.0199 1.085-.5567 1.085-.0847 1.085-.0532 1.085-.9863 1.085.6242 1.085.2625 1.085-.807 1.085-.4547 1.085-1.3281 1.085-.4344 1.085.7524 1.085-.1254 1.085-1.6239 1.085-.8714 1.085-1.2832 1.085-.5848 1.085 1.3328 1.085.6613 1.085 1.0727 1.085.6019 1.085.0653 1.085.0781 1.085.052 1.085.698 1.085.5941 1.085-.291 1.085-.9758 1.085 2.2575 1.085 2.0183 1.085.191 1.085.3692 1.085.6937 1.085-4.4011 1.085-2.336 1.085 2.0406 1.085.8946 1.085.3437 1.085.1094 1.085.4215 1.085-1.0754 1.085-1.9344 1.085-.0703 1.085.5176 1.085.3058 1.085-1.4062 1.085-1.7879 1.085-.5949 1.085.0765 1.085.7364 1.085.9301 1.085.6832 1.085 3.0511 1.085-.4949 1.085-3.166 1.085-1.6328 1.085-1.2156 1.085-.2657 1.085.7375 1.085 1.2586 1.085-.7 1.085-.6644 1.085.3351 1.085.4203 1.085-.0464 1.085-2.1372 1.085-.0222 1.085 3.0082 1.085.6449 1.085-.716 1.085.7558 1.085.2063 1.085.1305 1.085-.4075 1.085-.8007 1.085.0472 1.085.7989 1.085-.3348 1.085-2.0938 1.085.1207 1.085.5446 1.085 1.1082 1.085 1.009 1.085-1.1121 1.085-.3731 1.085.5004 1.085-.3211 1.085.2406 1.085.8614 1.085-.895 1.085-1.3394 1.085.3187 1.085-.5761 1.085-1.0137 1.033-.7418" stroke="#a2142f"/><path d="m247.45 40.7254 1.03.6922 1.085 2.7972 1.085 1.1469 1.085-.4738 1.085-.1195 1.085-.9082 1.085-.9016 1.085-.777 1.085-.3433 1.085.1972 1.085-.4785 1.085-.657 1.085 1.5602 1.085 1.0492 1.085-.5289 1.085.6179 1.085.6993 1.085 1.1652 1.085 1.05 1.085-.8039 1.085-.5926 1.085-.441 1.085-.0973 1.085-.7351 1.085-.0801 1.085.6945 1.085-.3226 1.085.2918 1.085.9824 1.085.0504 1.085.6945 1.085-.3367 1.085-.0317 1.085.0352 1.085-1.2898 1.085.1589 1.085.8375 1.085.4196 1.085-.2055 1.085-.1301 1.085-.4648 1.085-.1582 1.085.5933 1.085-.7164 1.085-1.5922 1.085.2551 1.085.9907 1.085 1.05 1.085.471 1.085-1.623 1.085-.9082 1.085 1.473 1.085.2258 1.085-.2703 1.085.5207 1.085.5567 1.085.7875 1.085-.0469 1.085-1.1367 1.085 2.2152 1.085 1.684 1.085-.2836 1.085.3414 1.085.2195 1.085.5215 1.085 1.6086 1.085 2.6039 1.085 1.9481 1.085 2.4058 1.085 3.5024 1.085 3.9886 1.085 2.1075 1.085-.7551 1.085-2.0918 1.085-2.6551 1.085-3.0383 1.085-3.0816 1.085-1.4875 1.085-.3848 1.085-.393 1.085-.4445 1.085-.8152 1.085-1.1582 1.085-1.0746 1.085-.4555 1.085.0414 1.085.4328 1.085.6121 1.085-1.3824 1.085-1.1152 1.085.273 1.085-.2312 1.085.5754 1.085-.093 1.085-.5926 1.085-1.2965 1.085-.2347 1.085.4003 1.085-.996 1.085-.6961 1.085-.8414 1.085.3644 1.085-.1035 1.085-.7883 1.085-.0703 1.085-.1832 1.085.5094 1.085.6433 1.085-.032 1.085-.2348 1.085.3227 1.085-.4082 1.085-.3238" stroke="#a2142f"/><path d="m46.5949 40.7254.075.3402 1.0852-.0199.098-.3203" stroke="#0072bd"/><path d="m51.1316 40.7254.9637 5.0211 1.0844 1.0273 1.0851-3.7777 1.0036-2.2707" stroke="#0072bd"/><path d="m57.0684 40.7254.4515 2.298 1.0852 5.1793 1.0847 2.0918 1.0852-3.8961 1.0852-5.1757 1.0847.4589 1.0852.2414 1.0851 1.3329 1.0844.173 1.0856-.9105 1.0851-1.2297 1.0328-.5633" stroke="#0072bd"/><path d="m69.4891 40.7254 1.0507.8797 1.0856.5023 1.0844 1.6403 1.0851 2.4527 1.0852.2496 1.0847-3.9613 1.0852-.9129 1.0852 2.9504 1.0847.2984 1.0852-.9195 1.0851 1.7582 1.0844 6.9015 1.0856 11.6461 1.0851 12.4161 1.0844 3.4671 1.0851 5.7969 1.0856 19.286 1.0844 11.36 1.0851-9.908 1.0852-10.0895 1.0847-1.1258 1.0852 3.498 1.0852 1.6723 1.0847 1.184 1.0852-1.7875 1.0851-8.2559 1.0844-10.9246 1.0856-6.1379 1.0848-4.8465 1.085-3.664 1.085-3.3868 1.085-5.8449 1.085-.8894 1.085 2.3086 1.085 1.3191 1.085-1.4578 1.085-3.3742 1.085-.366 1.085 1.5304 1.085 2.3942 1.085 1.0386 1.085.9571 1.085 2.8539 1.085 1.5285 1.085.4641 1.085 2.3125 1.085 4.1921 1.085 4.2879 1.085 2.5078 1.085.8348 1.085 2.0942 1.085 5.541 1.085 6.5765 1.085 8.6152 1.085 4.955 1.085-2.65 1.085-8.8186 1.085-9.0816 1.085-4.5149 1.085.3801 1.085 1.3555 1.085.4011 1.085 2.5606 1.085 4.6859 1.085 10.1149 1.085 14.502 1.085 15.946 1.085 14.845 1.085-.971 1.085-16.726 1.085-18.243 1.085-13.2886 1.085-9.9828 1.085-7.907 1.085-5.3184 1.085-1.2816 1.085-.7711 1.085-2.4133 1.085-.0195 1.085.5699 1.085-1.4731 1.085-2.3175 1.085-1.3434 1.085-1.5305 1.085-.6375 1.085 1.6403 1.085 1.4453 1.085 1.7039 1.085 4.7219 1.085 7.3664 1.085 11.7543 1.085 15.1593 1.085 14.787 1.085 14.765 1.085 3.639 1.085-12.446 1.085-18.304 1.085-13.5707 1.085-8.191 1.085-6.5554 1.085-5.2848 1.085-4.8109 1.085-3.8895 1.085-.3519 1.085.6089 1.085-.3507 1.085.4437 1.085.0047 1.085.3988 1.085-.4019 1.085-2.961 1.085-2.2508 1.085-1.3304 1.085.8176 1.085.6402 1.085-.0578 1.085 2.391 1.085 2.0785 1.085 4.0567 1.085 6.5917 1.085 7.4016 1.085 4.5805 1.085-5.9887 1.085-9.3832 1.085-5.4836 1.085-4.2433 1.085-1.1821 1.085 2.9746 1.085 4.9809 1.085 6.3305 1.085 12.441 1.085 8.9136 1.085-2.7972 1.085-8.5656 1.085-9.6309 1.085-7.6719 1.085-3.8836 1.085-2.675 1.085-1.716 1.085.2453 1.085.2106 1.085-1.7086 1.085-2.5754 1.085-2.157 1.085-1.7309 1.085-1.0465 1.085-.2016 1.085-2.0445 1.085-.8015 1.085-.5641 1.085-1.0262 1.085.7957 1.085-.5179 1.085-1.9774 1.085-.3816 1.085.282 1.085 2.5539 1.085 4.8988 1.085.8469 1.085 1.0125 1.085 4.8352 1.085 1.4707 1.085-3.6719 1.085-3.966 1.085-3.1567 1.085-2.0535 1.085-.2613 1.085-.0664 1.085-.7223 1.085-1.407 1.085.2137 1.085.2543 1.085.0679 1.085.2344 1.085-1.2648 1.085-1.0305 1.085.2133 1.085-.441 1.085-.5329 1.085-.1902 1.085.3402 1.085 1.5551 1.085 1.1047 1.085-.1652 1.085.2515 1.085-.1058 1.085-.1035 1.085-.2496 1.085.6312 1.085-.7828 1.085-2.3606 1.085.5641 1.085 1.9957 1.085.3984 1.085.1157 1.085 1.2269 1.085 1.1617 1.085 1.3844 1.085 1.3899 1.085 2.3625 1.085 2.2531 1.085.009 1.085-.0797 1.085.4215 1.085-1.1848 1.085-1.3328 1.085-.25 1.085-1.527 1.085-2.7148 1.085-.9609 1.085 1.3882 1.085.661 1.085-1.4418 1.085-1.9688 1.085-.2601 1.085.3422 1.085-1.0215 1.085-.4391 1.085.3985 1.085.2355 1.085.5145 1.085.3066 1.085-1.4113 1.085-.0008 1.085 1.0019 1.085.1629 1.085-.391 1.085-.1707 1.085.368 1.085.6445 1.085 1.3902 1.085-.5714 1.085-.693 1.085-.1281 1.085.3254 1.085-.525 1.085-1.3274 1.085 1.0484 1.085.2063 1.085-1.1957 1.085-.1609 1.085 1.4359 1.085 1.2293 1.085-.4461 1.085-1.1617 1.085-1.1215 1.085.4391 1.085.4707 1.085.3086 1.085-.2207 1.085-1.3454 1.085-.3937 1.085.359 1.085.3984 1.085-.4582 1.085-.1426 1.085 2.3399 1.085.1027 1.085-1.398 1.085-.5618 1.085-.273 1.085.484 1.085-.3067 1.085-1.6238 1.085-.357 1.085.6008 1.085.5179 1.085.3364 1.085-.3364 1.085-.4715 1.085-.4109 1.085-.5836 1.085.786 1.085.1191 1.085.5664 1.085.332 1.085-.2937" stroke="#0072bd"/></g></g></svg>