<svg height="2074.3459" viewBox="0 0 2793.9595 2074.3459" width="2793.9595" xmlns="http://www.w3.org/2000/svg" xmlns:xlink="http://www.w3.org/1999/xlink"><clipPath id="a"><path d="m0 2612.127h3371.39v-2612.127h-3371.39z"/></clipPath><clipPath id="b"><path d="m1582.38 2083.79h99.04v-288.5h-99.04z"/></clipPath><clipPath id="c"><path d="m0 2612.127h3371.39v-2612.127h-3371.39z"/></clipPath><g transform="matrix(1.25 0 0 -1.25 -930.68912 2658.3071)"><g clip-path="url(#a)"><path d="m0 0c104.1 0 189 84.9 189 189s-84.9 189-189 189-189-84.9-189-189 84.9-189 189-189" fill="#d2d3d0" transform="translate(933.5513 1117.7074)"/><path d="m0 0c86 0 156.1 70.1 156.1 156.1s-70.1 156.1-156.1 156.1-156.1-70.1-156.1-156.1c.1-86 70.2-156.1 156.1-156.1" fill="#7b67b8" transform="translate(933.5513 1150.7074)"/><path d="m0 0c2.9 0 5.2 2.4 5.2 5.2 0 2.9-2.4 5.2-5.2 5.2-2.9 0-5.2-2.4-5.2-5.2s2.3-5.2 5.2-5.2" fill="#fff" transform="translate(1620.2513 1435.4073)"/><path d="m0 0c95.8 0 173.8 78.1 173.8 173.8 0 95.8-78.1 173.8-173.8 173.8-95.8 0-173.8-78.1-173.8-173.8s78-173.8 173.8-173.8" fill="#d2d3d0" transform="translate(1282.4513 707.9073)"/><path d="m0 0c79.1 0 143.5 64.5 143.5 143.5 0 79.1-64.5 143.5-143.5 143.5-79.1 0-143.5-64.5-143.5-143.5s64.4-143.5 143.5-143.5" fill="#f68e14" transform="translate(1282.4513 738.2072)"/><path d="m0 0c18.3 0 33.3-15 33.3-33.3s-15-33.3-33.3-33.3-33.3 15-33.3 33.3 15 33.3 33.3 33.3m0-78.4c25 0 45.2 20.2 45.2 45.2s-20.2 45.1-45.2 45.1-45.2-20.2-45.2-45.1 20.3-45.2 45.2-45.2" fill="#fff" transform="translate(1284.1512 960.4073)"/><path d="m0 0h55.5c22.7 0 41.5-16.9 44.4-38.8h-144.2c2.8 21.8 21.5 38.8 44.3 38.8m-50.8-50.7h157c3.3 0 6 2.6 6 6 0 31.2-25.4 56.7-56.7 56.7h-55.5c-31.2 0-56.7-25.4-56.7-56.7 0-3.4 2.6-6 5.9-6" fill="#fff" transform="translate(1256.7513 862.1072)"/><g fill="none"><path d="m0 0v-169.8" stroke="#fff" stroke-linecap="round" stroke-miterlimit="10" stroke-width="10" transform="translate(883.2513 1392.4073)"/><path d="m0 0h34.5" stroke="#fff" stroke-linecap="round" stroke-miterlimit="10" stroke-width="10" transform="translate(883.2513 1392.4073)"/><path d="m0 0v-200.3" stroke="#fff" stroke-linecap="round" stroke-miterlimit="10" stroke-width="10" transform="translate(917.7513 1407.7074)"/><path d="m0 0 84.7 15.2" stroke="#fff" stroke-linecap="round" stroke-miterlimit="10" stroke-width="10" transform="translate(917.7513 1207.4073)"/><path d="m0 0v169.8" stroke="#fff" stroke-linecap="round" stroke-miterlimit="10" stroke-width="10" transform="translate(1002.4513 1222.6073)"/><path d="m0 0-84.7 15.3" stroke="#fff" stroke-linecap="round" stroke-miterlimit="10" stroke-width="10" transform="translate(1002.4513 1392.4073)"/></g><path d="m0 0c2.9 0 5.2 2.4 5.2 5.2 0 2.9-2.4 5.2-5.2 5.2-2.9 0-5.2-2.4-5.2-5.2-.1-2.9 2.3-5.2 5.2-5.2" fill="#fff" transform="translate(940.8513 1293.5073)"/><path d="m0 0c117.186 0 212.598 95.535 212.598 212.598 0 117.186-95.534 212.599-212.598 212.599-117.186 0-212.598-95.535-212.598-212.599 0-117.063 95.412-212.598 212.598-212.598" fill="#d2d3d0" transform="translate(1753.6045 1143.0433)"/><path d="m0 0c96.758 0 175.534 78.899 175.534 175.534 0 96.758-78.898 175.535-175.534 175.535-96.758 0-175.534-78.899-175.534-175.535 0-96.635 78.776-175.534 175.534-175.534" fill="#a3d11d" transform="translate(1753.6045 1180.1073)"/><path d="m0 0c0-.695-.497-1.192-1.093-1.291l-21.651-3.576c-2.681-.496-4.866-2.482-5.561-5.065-1.987-7.548-4.966-14.798-8.939-21.552-1.39-2.383-1.291-5.263.298-7.547l12.713-17.977c.397-.497.298-1.291-.199-1.788l-15.394-15.394c-.397-.397-.695-.397-.993-.397s-.596.099-.795.298l-17.877 12.712c-2.185 1.59-5.164 1.689-7.548.298-6.753-3.972-14.004-7.051-21.552-8.938-2.681-.695-4.667-2.88-5.065-5.562l-3.674-21.651c-.1-.695-.696-1.092-1.292-1.092h-21.651c-.695 0-1.191.496-1.291 1.092l-3.575 21.651c-.497 2.682-2.483 4.867-5.065 5.562-7.35 1.887-14.501 4.866-21.155 8.64-1.093.596-2.284.894-3.476.894-1.391 0-2.88-.397-3.973-1.291l-18.075-12.812c-.299-.198-.497-.298-.795-.298-.199 0-.596.1-.993.398l-15.394 15.394c-.497.496-.497 1.192-.199 1.787l12.713 17.778c1.589 2.285 1.688 5.264.298 7.648-3.973 6.654-7.151 14.003-9.038 21.552-.695 2.582-2.88 4.667-5.562 5.065l-21.75 3.674c-.695.1-1.093.696-1.093 1.292v21.651c0 .695.497 1.191 1.093 1.291l21.452 3.575c2.682.497 4.966 2.483 5.661 5.165 1.887 7.548 4.867 14.897 8.839 21.651 1.391 2.383 1.192 5.263-.397 7.548l-12.812 18.075c-.397.497-.298 1.292.199 1.788l15.394 15.394c.397.398.695.398.993.398s.596-.1.795-.298l17.777-12.713c2.285-1.589 5.264-1.688 7.648-.298 6.654 3.973 14.003 7.151 21.552 9.038 2.582.695 4.667 2.88 5.065 5.562l3.674 21.75c.1.695.695 1.093 1.292 1.093h21.651c.695 0 1.191-.497 1.291-1.093l3.575-21.452c.497-2.682 2.483-4.966 5.165-5.661 7.746-1.987 15.195-4.966 22.147-9.038 2.384-1.391 5.264-1.291 7.548.298l17.778 12.812c.298.198.497.298.795.298.198 0 .596-.1.993-.398l15.394-15.394c.497-.496.497-1.192.199-1.788l-12.713-17.877c-1.589-2.185-1.688-5.164-.298-7.548 3.973-6.753 7.052-14.003 8.939-21.552.695-2.681 2.88-4.667 5.561-5.065l21.652-3.674c.695-.1 1.092-.696 1.092-1.292zm1.192 36.747-17.281 2.98c-1.788 5.86-4.172 11.421-6.953 16.784l10.23 14.302c4.37 6.058 3.675 14.401-1.688 19.665l-15.394 15.394c-2.881 2.88-6.655 4.469-10.727 4.469-3.178 0-6.257-.993-8.839-2.88l-14.302-10.23c-5.561 2.98-11.421 5.363-17.38 7.151l-2.88 17.083c-1.192 7.349-7.548 12.712-14.997 12.712h-21.651c-7.449 0-13.805-5.363-14.997-12.712l-2.98-17.48c-5.76-1.788-11.421-4.171-16.784-7.052l-14.203 10.23c-2.582 1.887-5.661 2.88-8.839 2.88-4.072 0-7.945-1.589-10.726-4.469l-15.394-15.394c-5.264-5.264-5.959-13.507-1.689-19.665l10.329-14.5c-2.88-5.363-5.065-11.024-6.853-16.884l-17.082-2.88c-7.35-1.192-12.713-7.548-12.713-14.997v-21.651c0-7.449 5.363-13.805 12.713-14.997l17.48-2.98c1.788-5.76 4.171-11.421 7.051-16.784l-10.13-14.103c-4.37-6.058-3.675-14.401 1.688-19.665l15.394-15.394c2.881-2.88 6.655-4.469 10.727-4.469 3.178 0 6.257.993 8.839 2.88l14.5 10.329c5.165-2.682 10.627-4.966 16.288-6.654l2.88-17.282c1.192-7.349 7.549-12.712 14.997-12.712h21.751c7.449 0 13.805 5.363 14.997 12.712l2.979 17.282c5.86 1.787 11.421 4.171 16.785 6.952l14.301-10.23c2.583-1.887 5.661-2.88 8.84-2.88 4.072 0 7.846 1.589 10.726 4.469l15.394 15.394c5.264 5.264 5.959 13.508 1.688 19.665l-10.229 14.302c2.88 5.363 5.164 11.024 6.952 16.784l17.281 2.881c7.35 1.191 12.713 7.548 12.713 14.996v21.652c-.1 7.448-5.463 13.804-12.812 14.996" fill="#fff" transform="translate(1864.1262 1347.6029)"/><path d="m0 0c-21.651 0-39.329 17.579-39.329 39.329 0 21.652 17.579 39.33 39.329 39.33 21.651 0 39.33-17.579 39.33-39.33 0-21.75-17.58-39.329-39.33-39.329m0 92.563c-29.398 0-53.234-23.836-53.234-53.233 0-29.398 23.836-53.234 53.234-53.234s53.234 23.836 53.234 53.234c0 29.298-23.836 53.233-53.234 53.233" fill="#fff" transform="translate(1754.5795 1319.1982)"/><path d="m0 0c95.8 0 173.8 78.1 173.8 173.8 0 95.8-78.1 173.8-173.8 173.8-95.8 0-173.8-78.1-173.8-173.8s78-173.8 173.8-173.8" fill="#d2d3d0" transform="translate(1631.5255 1779.0457)"/><path d="m0 0c79.1 0 143.5 64.5 143.5 143.5 0 79.1-64.5 143.5-143.5 143.5-79.1 0-143.5-64.5-143.5-143.5s64.4-143.5 143.5-143.5" fill="#e31b38" transform="translate(1631.5255 1809.3456)"/><g clip-path="url(#b)"><path d="m0 0c1.746-3.784 4.863-5.673 9.353-5.673 4.405 0 7.563 1.952 9.476 5.86 1.911 3.906 3.158 9.518 3.74 16.833l5.363 61.473c.58 5.652.872 11.222.872 16.709 0 9.309-1.206 16.437-3.616 21.384-2.412 4.945-7.191 7.419-14.339 7.419-5.904 0-10.662-1.933-14.278-5.798s-5.424-9.249-5.424-16.147c0-5.072.374-13.426 1.123-25.063l3.99-59.727c.748-7.731 1.995-13.488 3.74-17.27zm23.193-59.79c3.741 3.324 5.611 7.897 5.611 13.717 0 5.153-1.851 9.538-5.549 13.155-3.699 3.616-8.167 5.423-13.404 5.423s-9.664-1.807-13.28-5.423c-3.616-3.617-5.424-8.002-5.424-13.155 0-5.904 1.89-10.496 5.673-13.779s8.209-4.925 13.281-4.925c4.987 0 9.351 1.664 13.092 4.987z" fill="none" stroke="#fff" stroke-miterlimit="10" stroke-width="14" transform="translate(1621.9229 1918.0645)"/></g><path d="m0 0c95.8 0 173.8 78.1 173.8 173.8 0 95.8-78.1 173.8-173.8 173.8-95.8 0-173.8-78.1-173.8-173.8s78-173.8 173.8-173.8" fill="#d2d3d0" transform="translate(2805.9189 961.2073)"/><path d="m0 0c79.1 0 143.5 64.5 143.5 143.5 0 79.1-64.5 143.5-143.5 143.5-79.1 0-143.5-64.5-143.5-143.5s64.4-143.5 143.5-143.5" fill="#f6db0c" transform="translate(2805.9189 991.5073)"/><path d="m0 0 53.132 41.828" fill="none" stroke="#fff" stroke-linecap="round" stroke-miterlimit="10" stroke-width="17" transform="translate(2805.9189 1131.0073)"/><path d="m0 0-31.465 26.189" fill="none" stroke="#fff" stroke-linecap="round" stroke-miterlimit="10" stroke-width="17" transform="translate(2805.9189 1131.0073)"/><path d="m0 0c55.67 0 100.8-45.13 100.8-100.8s-45.13-100.8-100.8-100.8-100.8 45.13-100.8 100.8 45.13 100.8 100.8 100.8z" fill="none" stroke="#fff" stroke-miterlimit="10" stroke-width="18" transform="translate(2805.9189 1235.8074)"/><path d="m0 0c99.106 0 180 80.894 180 180s-80.894 180-180 180-180-80.894-180-180c0-99.218 80.782-180 180-180" fill="#d2d3d0" transform="translate(2400.5415 1511.7781)"/><path d="m0 0c81.788 0 148.603 66.704 148.603 148.603 0 81.9-66.703 148.603-148.603 148.603-81.788 0-148.603-66.703-148.603-148.603 0-81.899 66.704-148.603 148.603-148.603" fill="#288a45" transform="translate(2400.5415 1543.1747)"/><path d="m0 0 42.202-406.521" fill="none" stroke="#d2d3d0" stroke-miterlimit="10" stroke-width="30" transform="translate(1822.2223 1172.8348)"/><path d="m0 0-231.355-220.4" fill="none" stroke="#d2d3d0" stroke-miterlimit="10" stroke-width="30" transform="translate(1626.3241 1215.0073)"/><path d="m0 0 451.394 51.734" fill="none" stroke="#d2d3d0" stroke-miterlimit="10" stroke-width="30" transform="translate(1108.6512 1303.9072)"/><path d="m0 0 47.695-239.259" fill="none" stroke="#d2d3d0" stroke-miterlimit="10" stroke-width="30" transform="translate(1672.8491 1791.2363)"/><path d="m0 0 354.088 129.259" fill="none" stroke="#d2d3d0" stroke-miterlimit="10" stroke-width="30" transform="translate(1897.8506 1487.3481)"/><path d="m0 0 708.6-126.033" fill="none" stroke="#d2d3d0" stroke-miterlimit="10" stroke-width="30" transform="translate(1939.2513 1319.1982)"/></g><path d="m0 0c85.233 0 154.8 69.567 154.8 154.8s-69.567 154.8-154.8 154.8-154.8-69.567-154.8-154.8 69.483-154.8 154.8-154.8" fill="#d2d3d0" transform="translate(1878.1299 467.16888)"/><path d="m0 0c70.41 0 127.765 57.439 127.765 127.765 0 70.409-57.44 127.764-127.765 127.764s-127.765-57.439-127.765-127.764c-.084-70.41 57.356-127.765 127.765-127.765" fill="#428cd2" transform="translate(1878.1299 494.20424)"/><path d="m0 0c50.88 0 92.126-41.246 92.126-92.126s-41.246-92.126-92.126-92.126-92.126 41.246-92.126 92.126 41.246 92.126 92.126 92.126z" fill="none" stroke="#fff" stroke-miterlimit="10" stroke-width="18" transform="translate(1877.9285 714.87616)"/><path d="m0 0c23.483 0 42.52-19.037 42.52-42.52s-19.037-42.519-42.52-42.519-42.52 19.036-42.52 42.519 19.037 42.52 42.52 42.52z" fill="none" stroke="#fff" stroke-miterlimit="10" stroke-width="18" transform="translate(1878.1299 665.26992)"/><g clip-path="url(#c)"><path d="m0 0c-1.933-.537-3.544-2.04-4.296-3.866-.751-1.933-.537-4.082.537-5.8l30.071-47.469-20.727-12.028-31.468 49.617c-.966 1.504-2.47 2.577-4.295 2.9-.43.107-.752.107-1.182.107-1.396 0-2.684-.43-3.866-1.289l-29.427-22.016v112.981l98.591-63.686zm55.739 6.229c.322 2.47-.752 5.048-2.9 6.336l-120.392 77.863c-1.933 1.289-4.51 1.396-6.551.215-2.04-1.181-3.329-3.329-3.329-5.692v-137.683c0-2.47 1.396-4.618 3.544-5.799 2.148-1.074 4.833-.859 6.766.644l34.152 25.561 31.253-48.973c1.181-1.934 3.329-3.007 5.477-3.007 1.074 0 2.255.322 3.222.859l31.897 18.472c1.504.859 2.577 2.363 3.007 4.081.429 1.718.107 3.544-.859 4.94l-29.105 45.859 39.307 11.062c2.363.751 4.189 2.792 4.511 5.262" fill="#fff" transform="translate(2422.8174 1688.1981)"/></g></g></svg>