<svg height="235pt" viewBox="0 0 235 235" width="235pt" xmlns="http://www.w3.org/2000/svg"><path d="m0 0h235v235h-235z" fill="#fff"/><path d="m105.28 13.26c26.17-2.68 53.57 3.68 74.69 19.7 21.72 15.76 37.1 40.2 41.1 66.81 3.56 22.2.66 45.62-9.48 65.81-17.93 35.28-57 58.42-96.56 57.38-32.09-.55-63.06-17.2-82-42.97-14.12-18.44-21.24-41.89-20.62-65.01.68-24.53 10.3-48.68 26.7-66.94 16.56-19.49 40.75-32.1 66.17-34.78z"/><path d="m112.38 31.51c20.24-1.25 40.98 4.64 57.09 17.07 17.78 13.16 30.16 33.44 33.3 55.37 3.19 20.76-.63 42.92-12.26 60.6-12.49 18.85-32.49 32.54-54.56 37.43-17.78 3.9-36.8 2.01-53.38-5.54-20.66-9.44-37.43-27.11-45.7-48.27-6.71-16.95-7.57-36.1-2.48-53.6 6.3-22.02 21.57-41.3 41.44-52.64 11.16-6.25 23.78-9.77 36.55-10.42z" fill="#fff"/><path d="m157.75 75.75h12.5v12.5c-4.17 0-8.33 0-12.5 0 0-4.17 0-8.33 0-12.5z"/><path d="m64.28 98.27c11.58-5.68 27.47-4.3 36.11 5.98-2.81 2.9-5.87 5.53-8.71 8.4-2.74-5.39-9.01-8.05-14.86-7.31-2.91.31-6.78 1.28-7.18 4.76.3 2.84 3.44 3.61 5.73 4.25 7.72 1.92 16.65 1.64 22.87 7.32 3.78 3.25 3.68 8.71 2.93 13.22-1.63 6.99-8.32 11.53-15.09 12.72-11.06 1.98-23.91.05-31.77-8.65 3.05-2.46 6.2-4.79 9.28-7.21 3.24 3.99 8.21 6.17 13.31 6.26 3.96.36 8.63-.83 10.68-4.53 1.07-1.66-.23-3.49-1.79-4.18-7.87-3.37-17.38-2.22-24.41-7.65-7.77-5.76-5.5-19.28 2.9-23.38z"/><path d="m117.85 97.62c8.01-3.57 18.03-3.79 25.58 1.03 4.05 2.53 6.52 6.81 8.46 11.05-3.65 1.65-7.28 3.33-10.93 4.99-1.13-2.54-2.54-5.11-5.04-6.53-5.45-3.59-13.33-1.12-16.4 4.46-3.37 6.09-3.06 14.22 1 19.92 3.88 5.33 12.56 5.76 17.08 1.04 1.99-1.76 3.07-4.24 4.16-6.6 3.57 1.88 7.15 3.72 10.66 5.69-2.93 6.98-8.61 13.17-16.21 14.91-7.39 1.58-15.73.82-21.95-3.82-7.13-5.1-10.38-14.24-10.04-22.79-.12-9.44 4.76-19.35 13.63-23.35z"/><path d="m157.75 96.25c4.17-.01 8.33 0 12.5 0v50.75c-4.17 0-8.33 0-12.5 0 0-16.92 0-33.83 0-50.75z"/></svg>