<?xml version="1.0" encoding="UTF-8" ?>
<!DOCTYPE svg PUBLIC "-//W3C//DTD SVG 1.1//EN" "http://www.w3.org/Graphics/SVG/1.1/DTD/svg11.dtd">
<svg width="235pt" height="235pt" viewBox="0 0 235 235" version="1.1" xmlns="http://www.w3.org/2000/svg">
<path fill="#ffffff" d=" M 0.00 0.00 L 235.00 0.00 L 235.00 235.00 L 0.00 235.00 L 0.00 0.00 Z" />
<path fill="#000000" d=" M 105.28 13.26 C 131.45 10.58 158.85 16.94 179.97 32.96 C 201.69 48.72 217.07 73.16 221.07 99.77 C 224.63 121.97 221.73 145.39 211.59 165.58 C 193.66 200.86 154.59 224.00 115.03 222.96 C 82.94 222.41 51.97 205.76 33.03 179.99 C 18.91 161.55 11.79 138.10 12.41 114.98 C 13.09 90.45 22.71 66.30 39.11 48.04 C 55.67 28.55 79.86 15.94 105.28 13.26 Z" />
<path fill="#ffffff" d=" M 112.38 31.51 C 132.62 30.26 153.36 36.15 169.47 48.58 C 187.25 61.74 199.63 82.02 202.77 103.95 C 205.96 124.71 202.14 146.87 190.51 164.55 C 178.02 183.40 158.02 197.09 135.95 201.98 C 118.17 205.88 99.15 203.99 82.57 196.44 C 61.91 187.00 45.14 169.33 36.87 148.17 C 30.16 131.22 29.30 112.07 34.39 94.57 C 40.69 72.55 55.96 53.27 75.83 41.93 C 86.99 35.68 99.61 32.16 112.38 31.51 Z" />
<path fill="#000000" d=" M 157.75 75.75 C 161.92 75.75 166.08 75.75 170.25 75.75 C 170.25 79.92 170.25 84.08 170.25 88.25 C 166.08 88.25 161.92 88.25 157.75 88.25 C 157.75 84.08 157.75 79.92 157.75 75.75 Z" />
<path fill="#000000" d=" M 64.28 98.27 C 75.86 92.59 91.75 93.97 100.39 104.25 C 97.58 107.15 94.52 109.78 91.68 112.65 C 88.94 107.26 82.67 104.60 76.82 105.34 C 73.91 105.65 70.04 106.62 69.64 110.10 C 69.94 112.94 73.08 113.71 75.37 114.35 C 83.09 116.27 92.02 115.99 98.24 121.67 C 102.02 124.92 101.92 130.38 101.17 134.89 C 99.54 141.88 92.85 146.42 86.08 147.61 C 75.02 149.59 62.17 147.66 54.31 138.96 C 57.36 136.50 60.51 134.17 63.59 131.75 C 66.83 135.74 71.80 137.92 76.90 138.01 C 80.86 138.37 85.53 137.18 87.58 133.48 C 88.65 131.82 87.35 129.99 85.79 129.30 C 77.92 125.93 68.41 127.08 61.38 121.65 C 53.61 115.89 55.88 102.37 64.28 98.27 Z" />
<path fill="#000000" d=" M 117.85 97.62 C 125.86 94.05 135.88 93.83 143.43 98.65 C 147.48 101.18 149.95 105.46 151.89 109.70 C 148.24 111.35 144.61 113.03 140.96 114.69 C 139.83 112.15 138.42 109.58 135.92 108.16 C 130.47 104.57 122.59 107.04 119.52 112.62 C 116.15 118.71 116.46 126.84 120.52 132.54 C 124.40 137.87 133.08 138.30 137.60 133.58 C 139.59 131.82 140.67 129.34 141.76 126.98 C 145.33 128.86 148.91 130.70 152.42 132.67 C 149.49 139.65 143.81 145.84 136.21 147.58 C 128.82 149.16 120.48 148.40 114.26 143.76 C 107.13 138.66 103.88 129.52 104.22 120.97 C 104.10 111.53 108.98 101.62 117.85 97.62 Z" />
<path fill="#000000" d=" M 157.75 96.25 C 161.92 96.24 166.08 96.25 170.25 96.25 C 170.25 113.16 170.25 130.08 170.25 147.00 C 166.08 147.00 161.92 147.00 157.75 147.00 C 157.75 130.08 157.75 113.17 157.75 96.25 Z" />
</svg>
