<?xml version="1.0" encoding="UTF-8"?>
<svg xmlns="http://www.w3.org/2000/svg" xmlns:xlink="http://www.w3.org/1999/xlink" width="723pt" height="675pt" viewBox="0 0 723 675" version="1.1">
<g id="surface1">
<path style=" stroke:none;fill-rule:evenodd;fill:rgb(100%,100%,100%);fill-opacity:1;" d="M 722.03125 674.300781 L 0.695312 674.300781 L 0.695312 0.671875 L 722.03125 0.671875 L 722.03125 674.300781 "/>
<path style=" stroke:none;fill-rule:evenodd;fill:rgb(72.198486%,33.299255%,16.899109%);fill-opacity:1;" d="M 620.003906 421.460938 L 609.660156 450.601562 L 621.695312 443.082031 L 620.003906 421.460938 "/>
<path style=" stroke:none;fill-rule:evenodd;fill:rgb(76.899719%,40.79895%,21.998596%);fill-opacity:1;" d="M 609.660156 450.601562 L 593.492188 483.882812 L 621.695312 443.082031 L 609.660156 450.601562 "/>
<path style=" stroke:none;fill-rule:evenodd;fill:rgb(85.499573%,57.299805%,37.298584%);fill-opacity:1;" d="M 627.148438 448.910156 L 615.304688 469.03125 L 635.984375 453.613281 L 627.148438 448.910156 "/>
<path style=" stroke:none;fill-rule:evenodd;fill:rgb(77.598572%,39.99939%,20.799255%);fill-opacity:1;" d="M 627.148438 448.910156 L 621.695312 443.082031 L 593.492188 483.882812 L 627.148438 448.910156 "/>
<path style=" stroke:none;fill-rule:evenodd;fill:rgb(83.499146%,51.799011%,30.599976%);fill-opacity:1;" d="M 615.304688 469.03125 L 593.492188 483.882812 L 627.148438 448.910156 L 615.304688 469.03125 "/>
<path style=" stroke:none;fill-rule:evenodd;fill:rgb(83.099365%,42.399597%,22.698975%);fill-opacity:1;" d="M 620.003906 421.460938 L 634.480469 416.007812 L 621.695312 443.082031 L 620.003906 421.460938 "/>
<path style=" stroke:none;fill-rule:evenodd;fill:rgb(98.799133%,84.698486%,71.798706%);fill-opacity:1;" d="M 659.675781 415.816406 L 659.488281 428.980469 L 669.828125 425.40625 L 659.675781 415.816406 "/>
<path style=" stroke:none;fill-rule:evenodd;fill:rgb(98.399353%,72.898865%,54.899597%);fill-opacity:1;" d="M 659.488281 428.980469 L 646.515625 413.375 L 659.675781 415.816406 L 659.488281 428.980469 "/>
<path style=" stroke:none;fill-rule:evenodd;fill:rgb(89.399719%,61.599731%,43.099976%);fill-opacity:1;" d="M 635.984375 453.613281 L 639.746094 437.628906 L 643.320312 446.84375 L 635.984375 453.613281 "/>
<path style=" stroke:none;fill-rule:evenodd;fill:rgb(86.299133%,49.798584%,39.199829%);fill-opacity:1;" d="M 643.320312 446.84375 L 650.839844 443.082031 L 654.222656 430.671875 L 643.320312 446.84375 "/>
<path style=" stroke:none;fill-rule:evenodd;fill:rgb(89.399719%,50.999451%,38.398743%);fill-opacity:1;" d="M 654.222656 430.671875 L 639.746094 437.628906 L 643.320312 446.84375 L 654.222656 430.671875 "/>
<path style=" stroke:none;fill-rule:evenodd;fill:rgb(93.699646%,64.299011%,48.999023%);fill-opacity:1;" d="M 650.839844 443.082031 L 669.828125 425.40625 L 659.488281 428.980469 L 650.839844 443.082031 "/>
<path style=" stroke:none;fill-rule:evenodd;fill:rgb(88.999939%,51.799011%,33.299255%);fill-opacity:1;" d="M 659.488281 428.980469 L 654.222656 430.671875 L 650.839844 443.082031 L 659.488281 428.980469 "/>
<path style=" stroke:none;fill-rule:evenodd;fill:rgb(94.898987%,69.799805%,52.89917%);fill-opacity:1;" d="M 663.816406 435.371094 L 669.828125 425.40625 L 650.839844 443.082031 L 663.816406 435.371094 "/>
<path style=" stroke:none;fill-rule:evenodd;fill:rgb(92.89856%,58.399963%,39.599609%);fill-opacity:1;" d="M 654.222656 430.671875 L 646.515625 413.375 L 659.488281 428.980469 L 654.222656 430.671875 "/>
<path style=" stroke:none;fill-rule:evenodd;fill:rgb(89.7995%,48.199463%,27.799988%);fill-opacity:1;" d="M 646.515625 413.375 L 639.746094 437.628906 L 654.222656 430.671875 L 646.515625 413.375 "/>
<path style=" stroke:none;fill-rule:evenodd;fill:rgb(90.99884%,50.19989%,30.999756%);fill-opacity:1;" d="M 639.746094 437.628906 L 634.480469 416.007812 L 646.515625 413.375 L 639.746094 437.628906 "/>
<path style=" stroke:none;fill-rule:evenodd;fill:rgb(82.398987%,43.499756%,25.498962%);fill-opacity:1;" d="M 627.148438 448.910156 L 639.746094 437.628906 L 635.984375 453.613281 L 627.148438 448.910156 "/>
<path style=" stroke:none;fill-rule:evenodd;fill:rgb(79.199219%,37.998962%,24.699402%);fill-opacity:1;" d="M 639.746094 437.628906 L 621.695312 443.082031 L 627.148438 448.910156 L 639.746094 437.628906 "/>
<path style=" stroke:none;fill-rule:evenodd;fill:rgb(84.298706%,39.99939%,23.498535%);fill-opacity:1;" d="M 639.746094 437.628906 L 634.480469 416.007812 L 621.695312 443.082031 L 639.746094 437.628906 "/>
<path style=" stroke:none;fill-rule:evenodd;fill:rgb(98.799133%,81.199646%,68.998718%);fill-opacity:1;" d="M 626.585938 399.460938 L 638.242188 366.179688 L 626.585938 374.828125 L 626.585938 399.460938 "/>
<path style=" stroke:none;fill-rule:evenodd;fill:rgb(98.799133%,85.899353%,71.798706%);fill-opacity:1;" d="M 626.585938 374.828125 L 628.652344 359.035156 L 638.242188 366.179688 L 626.585938 374.828125 "/>
<path style=" stroke:none;fill-rule:evenodd;fill:rgb(97.999573%,69.398499%,50.19989%);fill-opacity:1;" d="M 626.585938 374.828125 L 618.6875 359.222656 L 628.652344 359.035156 L 626.585938 374.828125 "/>
<path style=" stroke:none;fill-rule:evenodd;fill:rgb(98.799133%,80.799866%,67.498779%);fill-opacity:1;" d="M 626.585938 374.828125 L 618.6875 386.300781 L 626.585938 399.460938 L 626.585938 374.828125 "/>
<path style=" stroke:none;fill-rule:evenodd;fill:rgb(97.599792%,61.599731%,41.999817%);fill-opacity:1;" d="M 618.6875 359.222656 L 618.6875 386.300781 L 626.585938 374.828125 L 618.6875 359.222656 "/>
<path style=" stroke:none;fill-rule:evenodd;fill:rgb(95.698547%,65.899658%,40.79895%);fill-opacity:1;" d="M 600.070312 428.226562 L 609.660156 450.601562 L 620.003906 421.460938 L 600.070312 428.226562 "/>
<path style=" stroke:none;fill-rule:evenodd;fill:rgb(92.199707%,59.599304%,37.998962%);fill-opacity:1;" d="M 600.070312 428.226562 L 613.046875 402.28125 L 620.003906 421.460938 L 600.070312 428.226562 "/>
<path style=" stroke:none;fill-rule:evenodd;fill:rgb(97.599792%,72.898865%,53.69873%);fill-opacity:1;" d="M 620.003906 421.460938 L 626.585938 399.460938 L 613.046875 402.28125 L 620.003906 421.460938 "/>
<path style=" stroke:none;fill-rule:evenodd;fill:rgb(96.899414%,67.098999%,50.59967%);fill-opacity:1;" d="M 613.046875 402.28125 L 618.6875 386.300781 L 626.585938 399.460938 L 613.046875 402.28125 "/>
<path style=" stroke:none;fill-rule:evenodd;fill:rgb(86.698914%,41.999817%,23.899841%);fill-opacity:1;" d="M 594.242188 380.28125 L 618.6875 386.300781 L 613.046875 402.28125 L 594.242188 380.28125 "/>
<path style=" stroke:none;fill-rule:evenodd;fill:rgb(86.698914%,42.399597%,23.098755%);fill-opacity:1;" d="M 594.242188 380.28125 L 601.953125 367.496094 L 618.6875 386.300781 L 594.242188 380.28125 "/>
<path style=" stroke:none;fill-rule:evenodd;fill:rgb(91.799927%,47.499084%,27.799988%);fill-opacity:1;" d="M 601.953125 367.496094 L 618.6875 359.222656 L 618.6875 386.300781 L 601.953125 367.496094 "/>
<path style=" stroke:none;fill-rule:evenodd;fill:rgb(94.499207%,65.499878%,42.399597%);fill-opacity:1;" d="M 600.070312 428.226562 L 588.792969 460.945312 L 609.660156 450.601562 L 600.070312 428.226562 "/>
<path style=" stroke:none;fill-rule:evenodd;fill:rgb(97.599792%,75.299072%,54.098511%);fill-opacity:1;" d="M 588.792969 460.945312 L 593.492188 483.882812 L 609.660156 450.601562 L 588.792969 460.945312 "/>
<path style=" stroke:none;fill-rule:evenodd;fill:rgb(97.599792%,79.199219%,61.599731%);fill-opacity:1;" d="M 576.570312 485.765625 L 577.886719 508.515625 L 593.492188 483.882812 L 576.570312 485.765625 "/>
<path style=" stroke:none;fill-rule:evenodd;fill:rgb(92.498779%,65.899658%,45.899963%);fill-opacity:1;" d="M 576.570312 485.765625 L 567.167969 504.941406 L 577.886719 508.515625 L 576.570312 485.765625 "/>
<path style=" stroke:none;fill-rule:evenodd;fill:rgb(86.698914%,57.998657%,36.898804%);fill-opacity:1;" d="M 567.167969 504.941406 L 571.492188 513.589844 L 577.886719 508.515625 L 567.167969 504.941406 "/>
<path style=" stroke:none;fill-rule:evenodd;fill:rgb(85.499573%,50.999451%,28.599548%);fill-opacity:1;" d="M 567.167969 504.941406 L 563.40625 480.875 L 576.570312 485.765625 L 567.167969 504.941406 "/>
<path style=" stroke:none;fill-rule:evenodd;fill:rgb(72.499084%,41.598511%,21.998596%);fill-opacity:1;" d="M 567.167969 504.941406 L 547.238281 520.550781 L 571.492188 513.589844 L 567.167969 504.941406 "/>
<path style=" stroke:none;fill-rule:evenodd;fill:rgb(65.098572%,32.499695%,16.899109%);fill-opacity:1;" d="M 546.109375 486.703125 L 523.171875 502.683594 L 539.152344 506.070312 L 546.109375 486.703125 "/>
<path style=" stroke:none;fill-rule:evenodd;fill:rgb(72.898865%,36.898804%,19.198608%);fill-opacity:1;" d="M 539.152344 506.070312 L 563.40625 480.875 L 546.109375 486.703125 L 539.152344 506.070312 "/>
<path style=" stroke:none;fill-rule:evenodd;fill:rgb(78.799438%,43.899536%,23.098755%);fill-opacity:1;" d="M 539.152344 506.070312 L 567.167969 504.941406 L 563.40625 480.875 L 539.152344 506.070312 "/>
<path style=" stroke:none;fill-rule:evenodd;fill:rgb(73.699951%,42.698669%,23.098755%);fill-opacity:1;" d="M 539.152344 506.070312 L 547.238281 520.550781 L 567.167969 504.941406 L 539.152344 506.070312 "/>
<path style=" stroke:none;fill-rule:evenodd;fill:rgb(61.999512%,31.399536%,15.699768%);fill-opacity:1;" d="M 539.152344 506.070312 L 507.1875 525.25 L 523.171875 502.683594 L 539.152344 506.070312 "/>
<path style=" stroke:none;fill-rule:evenodd;fill:rgb(67.498779%,35.299683%,17.298889%);fill-opacity:1;" d="M 547.238281 520.550781 L 507.1875 525.25 L 539.152344 506.070312 L 547.238281 520.550781 "/>
<path style=" stroke:none;fill-rule:evenodd;fill:rgb(51.399231%,27.49939%,14.498901%);fill-opacity:1;" d="M 507.1875 525.25 L 484.625 531.078125 L 506.0625 518.292969 L 507.1875 525.25 "/>
<path style=" stroke:none;fill-rule:evenodd;fill:rgb(57.299805%,29.399109%,14.898682%);fill-opacity:1;" d="M 507.1875 525.25 L 523.171875 502.683594 L 506.0625 518.292969 L 507.1875 525.25 "/>
<path style=" stroke:none;fill-rule:evenodd;fill:rgb(65.098572%,35.299683%,17.599487%);fill-opacity:1;" d="M 547.238281 520.550781 L 513.957031 532.960938 L 507.1875 525.25 L 547.238281 520.550781 "/>
<path style=" stroke:none;fill-rule:evenodd;fill:rgb(54.098511%,29.798889%,15.299988%);fill-opacity:1;" d="M 513.957031 532.960938 L 484.625 531.078125 L 507.1875 525.25 L 513.957031 532.960938 "/>
<path style=" stroke:none;fill-rule:evenodd;fill:rgb(49.398804%,28.599548%,15.299988%);fill-opacity:1;" d="M 513.957031 532.960938 L 487.820312 538.035156 L 484.625 531.078125 L 513.957031 532.960938 "/>
<path style=" stroke:none;fill-rule:evenodd;fill:rgb(53.69873%,32.199097%,18.399048%);fill-opacity:1;" d="M 484.625 531.078125 L 461.5 547.246094 L 487.820312 538.035156 L 484.625 531.078125 "/>
<path style=" stroke:none;fill-rule:evenodd;fill:rgb(84.298706%,59.599304%,39.599609%);fill-opacity:1;" d="M 438.933594 539.726562 L 427.277344 558.90625 L 463.003906 536.34375 L 438.933594 539.726562 "/>
<path style=" stroke:none;fill-rule:evenodd;fill:rgb(65.899658%,38.798523%,21.199036%);fill-opacity:1;" d="M 427.277344 558.90625 L 445.515625 554.769531 L 463.003906 536.34375 L 427.277344 558.90625 "/>
<path style=" stroke:none;fill-rule:evenodd;fill:rgb(65.899658%,39.99939%,23.098755%);fill-opacity:1;" d="M 445.515625 554.769531 L 461.5 547.246094 L 463.003906 536.34375 L 445.515625 554.769531 "/>
<path style=" stroke:none;fill-rule:evenodd;fill:rgb(83.499146%,56.498718%,35.699463%);fill-opacity:1;" d="M 438.933594 539.726562 L 418.628906 553.074219 L 427.277344 558.90625 L 438.933594 539.726562 "/>
<path style=" stroke:none;fill-rule:evenodd;fill:rgb(84.698486%,59.999084%,39.99939%);fill-opacity:1;" d="M 438.933594 539.726562 L 463.003906 529.761719 L 463.003906 536.34375 L 438.933594 539.726562 "/>
<path style=" stroke:none;fill-rule:evenodd;fill:rgb(73.298645%,42.698669%,22.698975%);fill-opacity:1;" d="M 438.933594 539.726562 L 459.054688 509.269531 L 463.003906 529.761719 L 438.933594 539.726562 "/>
<path style=" stroke:none;fill-rule:evenodd;fill:rgb(65.098572%,37.298584%,19.999695%);fill-opacity:1;" d="M 418.628906 553.074219 L 401.519531 564.171875 L 427.277344 558.90625 L 418.628906 553.074219 "/>
<path style=" stroke:none;fill-rule:evenodd;fill:rgb(75.299072%,47.099304%,27.49939%);fill-opacity:1;" d="M 420.132812 528.070312 L 418.628906 553.074219 L 438.933594 539.726562 L 420.132812 528.070312 "/>
<path style=" stroke:none;fill-rule:evenodd;fill:rgb(76.499939%,45.098877%,24.299622%);fill-opacity:1;" d="M 420.132812 528.070312 L 459.054688 509.269531 L 438.933594 539.726562 L 420.132812 528.070312 "/>
<path style=" stroke:none;fill-rule:evenodd;fill:rgb(57.299805%,29.399109%,13.699341%);fill-opacity:1;" d="M 401.519531 564.171875 L 357.898438 573.945312 L 371.433594 545.179688 L 401.519531 564.171875 "/>
<path style=" stroke:none;fill-rule:evenodd;fill:rgb(61.199951%,32.199097%,15.699768%);fill-opacity:1;" d="M 418.628906 553.074219 L 371.433594 545.179688 L 401.519531 564.171875 L 418.628906 553.074219 "/>
<path style=" stroke:none;fill-rule:evenodd;fill:rgb(72.198486%,40.79895%,21.598816%);fill-opacity:1;" d="M 420.132812 528.070312 L 371.433594 545.179688 L 418.628906 553.074219 L 420.132812 528.070312 "/>
<path style=" stroke:none;fill-rule:evenodd;fill:rgb(79.199219%,47.499084%,25.498962%);fill-opacity:1;" d="M 463.003906 529.761719 L 488.574219 493.472656 L 459.054688 509.269531 L 463.003906 529.761719 "/>
<path style=" stroke:none;fill-rule:evenodd;fill:rgb(67.498779%,41.999817%,23.498535%);fill-opacity:1;" d="M 463.003906 536.34375 L 484.625 531.078125 L 461.5 547.246094 L 463.003906 536.34375 "/>
<path style=" stroke:none;fill-rule:evenodd;fill:rgb(79.598999%,56.098938%,36.499023%);fill-opacity:1;" d="M 477.292969 521.679688 L 463.003906 529.761719 L 488.574219 493.472656 L 477.292969 521.679688 "/>
<path style=" stroke:none;fill-rule:evenodd;fill:rgb(85.899353%,60.798645%,41.19873%);fill-opacity:1;" d="M 477.292969 521.679688 L 493.273438 512.273438 L 488.574219 493.472656 L 477.292969 521.679688 "/>
<path style=" stroke:none;fill-rule:evenodd;fill:rgb(97.999573%,79.598999%,61.999512%);fill-opacity:1;" d="M 521.476562 481.4375 L 503.238281 481.0625 L 512.453125 500.054688 L 521.476562 481.4375 "/>
<path style=" stroke:none;fill-rule:evenodd;fill:rgb(87.098694%,60.398865%,39.99939%);fill-opacity:1;" d="M 512.453125 500.054688 L 523.171875 502.683594 L 521.476562 481.4375 L 512.453125 500.054688 "/>
<path style=" stroke:none;fill-rule:evenodd;fill:rgb(86.698914%,61.999512%,41.19873%);fill-opacity:1;" d="M 512.453125 500.054688 L 506.0625 518.292969 L 523.171875 502.683594 L 512.453125 500.054688 "/>
<path style=" stroke:none;fill-rule:evenodd;fill:rgb(87.799072%,61.199951%,39.599609%);fill-opacity:1;" d="M 512.453125 500.054688 L 493.273438 512.273438 L 503.238281 481.0625 L 512.453125 500.054688 "/>
<path style=" stroke:none;fill-rule:evenodd;fill:rgb(81.199646%,52.89917%,31.799316%);fill-opacity:1;" d="M 506.0625 518.292969 L 493.273438 512.273438 L 512.453125 500.054688 L 506.0625 518.292969 "/>
<path style=" stroke:none;fill-rule:evenodd;fill:rgb(72.198486%,44.299316%,25.498962%);fill-opacity:1;" d="M 484.625 531.078125 L 493.273438 512.273438 L 506.0625 518.292969 L 484.625 531.078125 "/>
<path style=" stroke:none;fill-rule:evenodd;fill:rgb(73.298645%,45.899963%,27.099609%);fill-opacity:1;" d="M 484.625 531.078125 L 463.003906 529.761719 L 493.273438 512.273438 L 484.625 531.078125 "/>
<path style=" stroke:none;fill-rule:evenodd;fill:rgb(70.999146%,45.498657%,26.699829%);fill-opacity:1;" d="M 484.625 531.078125 L 463.003906 529.761719 L 463.003906 536.34375 L 484.625 531.078125 "/>
<path style=" stroke:none;fill-rule:evenodd;fill:rgb(85.499573%,56.098938%,36.499023%);fill-opacity:1;" d="M 488.574219 493.472656 L 503.238281 481.0625 L 493.273438 512.273438 L 488.574219 493.472656 "/>
<path style=" stroke:none;fill-rule:evenodd;fill:rgb(86.299133%,52.89917%,30.599976%);fill-opacity:1;" d="M 488.574219 493.472656 L 486.128906 480.3125 L 503.238281 481.0625 L 488.574219 493.472656 "/>
<path style=" stroke:none;fill-rule:evenodd;fill:rgb(85.499573%,54.098511%,32.199097%);fill-opacity:1;" d="M 486.128906 480.3125 L 482.652344 463.296875 L 474.28125 471.851562 L 486.128906 480.3125 "/>
<path style=" stroke:none;fill-rule:evenodd;fill:rgb(83.499146%,50.59967%,28.999329%);fill-opacity:1;" d="M 486.128906 480.3125 L 459.054688 509.269531 L 488.574219 493.472656 L 486.128906 480.3125 "/>
<path style=" stroke:none;fill-rule:evenodd;fill:rgb(84.298706%,52.49939%,30.599976%);fill-opacity:1;" d="M 474.28125 471.851562 L 459.054688 509.269531 L 486.128906 480.3125 L 474.28125 471.851562 "/>
<path style=" stroke:none;fill-rule:evenodd;fill:rgb(86.698914%,56.498718%,32.499695%);fill-opacity:1;" d="M 474.28125 471.851562 L 446.832031 482.941406 L 459.054688 509.269531 L 474.28125 471.851562 "/>
<path style=" stroke:none;fill-rule:evenodd;fill:rgb(84.698486%,53.29895%,30.599976%);fill-opacity:1;" d="M 446.832031 482.941406 L 420.132812 528.070312 L 459.054688 509.269531 L 446.832031 482.941406 "/>
<path style=" stroke:none;fill-rule:evenodd;fill:rgb(96.099854%,76.899719%,57.299805%);fill-opacity:1;" d="M 474.28125 471.851562 L 456.796875 460.945312 L 482.652344 463.296875 L 474.28125 471.851562 "/>
<path style=" stroke:none;fill-rule:evenodd;fill:rgb(95.298767%,68.998718%,45.098877%);fill-opacity:1;" d="M 456.796875 460.945312 L 446.832031 482.941406 L 474.28125 471.851562 L 456.796875 460.945312 "/>
<path style=" stroke:none;fill-rule:evenodd;fill:rgb(94.898987%,67.098999%,43.099976%);fill-opacity:1;" d="M 456.796875 460.945312 L 430.476562 460.382812 L 446.832031 482.941406 L 456.796875 460.945312 "/>
<path style=" stroke:none;fill-rule:evenodd;fill:rgb(92.199707%,64.299011%,38.798523%);fill-opacity:1;" d="M 430.476562 460.382812 L 404.902344 474.671875 L 446.832031 482.941406 L 430.476562 460.382812 "/>
<path style=" stroke:none;fill-rule:evenodd;fill:rgb(95.298767%,74.499512%,53.29895%);fill-opacity:1;" d="M 430.476562 460.382812 L 395.878906 457.9375 L 404.902344 474.671875 L 430.476562 460.382812 "/>
<path style=" stroke:none;fill-rule:evenodd;fill:rgb(89.399719%,59.199524%,35.299683%);fill-opacity:1;" d="M 404.902344 474.671875 L 420.132812 528.070312 L 446.832031 482.941406 L 404.902344 474.671875 "/>
<path style=" stroke:none;fill-rule:evenodd;fill:rgb(95.298767%,73.298645%,52.198792%);fill-opacity:1;" d="M 404.902344 474.671875 L 377.828125 490.839844 L 395.878906 457.9375 L 404.902344 474.671875 "/>
<path style=" stroke:none;fill-rule:evenodd;fill:rgb(90.19928%,59.999084%,36.499023%);fill-opacity:1;" d="M 377.828125 490.839844 L 420.132812 528.070312 L 404.902344 474.671875 L 377.828125 490.839844 "/>
<path style=" stroke:none;fill-rule:evenodd;fill:rgb(95.698547%,75.299072%,53.69873%);fill-opacity:1;" d="M 377.828125 490.839844 L 347.179688 468.277344 L 395.878906 457.9375 L 377.828125 490.839844 "/>
<path style=" stroke:none;fill-rule:evenodd;fill:rgb(96.499634%,76.098633%,54.098511%);fill-opacity:1;" d="M 347.179688 468.277344 L 321.417969 489.148438 L 377.828125 490.839844 L 347.179688 468.277344 "/>
<path style=" stroke:none;fill-rule:evenodd;fill:rgb(97.999573%,77.2995%,56.098938%);fill-opacity:1;" d="M 347.179688 468.277344 L 362.410156 451.355469 L 395.878906 457.9375 L 347.179688 468.277344 "/>
<path style=" stroke:none;fill-rule:evenodd;fill:rgb(97.999573%,74.099731%,45.498657%);fill-opacity:1;" d="M 395.878906 457.9375 L 351.878906 428.226562 L 362.410156 451.355469 L 395.878906 457.9375 "/>
<path style=" stroke:none;fill-rule:evenodd;fill:rgb(93.299866%,57.598877%,32.499695%);fill-opacity:1;" d="M 395.878906 457.9375 L 365.230469 424.65625 L 408.285156 453.988281 L 395.878906 457.9375 "/>
<path style=" stroke:none;fill-rule:evenodd;fill:rgb(97.299194%,66.699219%,38.398743%);fill-opacity:1;" d="M 365.230469 424.65625 L 351.878906 428.226562 L 395.878906 457.9375 L 365.230469 424.65625 "/>
<path style=" stroke:none;fill-rule:evenodd;fill:rgb(96.899414%,67.498779%,44.699097%);fill-opacity:1;" d="M 365.230469 424.65625 L 378.203125 413.5625 L 408.285156 453.988281 L 365.230469 424.65625 "/>
<path style=" stroke:none;fill-rule:evenodd;fill:rgb(94.099426%,67.799377%,45.498657%);fill-opacity:1;" d="M 365.230469 424.65625 L 351.878906 418.074219 L 378.203125 413.5625 L 365.230469 424.65625 "/>
<path style=" stroke:none;fill-rule:evenodd;fill:rgb(98.399353%,77.999878%,57.299805%);fill-opacity:1;" d="M 351.878906 418.074219 L 351.878906 428.226562 L 365.230469 424.65625 L 351.878906 418.074219 "/>
<path style=" stroke:none;fill-rule:evenodd;fill:rgb(98.399353%,80.799866%,61.599731%);fill-opacity:1;" d="M 351.878906 418.074219 L 334.019531 417.511719 L 351.878906 428.226562 L 351.878906 418.074219 "/>
<path style=" stroke:none;fill-rule:evenodd;fill:rgb(60.798645%,32.899475%,16.099548%);fill-opacity:1;" d="M 357.898438 573.945312 L 311.441406 583.953125 L 289.246094 544.449219 L 357.898438 573.945312 "/>
<path style=" stroke:none;fill-rule:evenodd;fill:rgb(65.098572%,36.499023%,17.999268%);fill-opacity:1;" d="M 371.433594 545.179688 L 289.246094 544.449219 L 357.898438 573.945312 L 371.433594 545.179688 "/>
<path style=" stroke:none;fill-rule:evenodd;fill:rgb(76.899719%,45.098877%,25.498962%);fill-opacity:1;" d="M 420.132812 528.070312 L 343.421875 515.105469 L 371.433594 545.179688 L 420.132812 528.070312 "/>
<path style=" stroke:none;fill-rule:evenodd;fill:rgb(86.698914%,55.299377%,33.699036%);fill-opacity:1;" d="M 377.828125 490.839844 L 343.421875 515.105469 L 420.132812 528.070312 L 377.828125 490.839844 "/>
<path style=" stroke:none;fill-rule:evenodd;fill:rgb(92.498779%,65.899658%,41.19873%);fill-opacity:1;" d="M 321.417969 489.148438 L 343.421875 515.105469 L 377.828125 490.839844 L 321.417969 489.148438 "/>
<path style=" stroke:none;fill-rule:evenodd;fill:rgb(77.999878%,47.799683%,27.099609%);fill-opacity:1;" d="M 343.421875 515.105469 L 289.246094 544.449219 L 371.433594 545.179688 L 343.421875 515.105469 "/>
<path style=" stroke:none;fill-rule:evenodd;fill:rgb(86.698914%,57.299805%,34.899902%);fill-opacity:1;" d="M 321.417969 489.148438 L 289.246094 544.449219 L 343.421875 515.105469 L 321.417969 489.148438 "/>
<path style=" stroke:none;fill-rule:evenodd;fill:rgb(86.299133%,54.899597%,32.499695%);fill-opacity:1;" d="M 321.417969 489.148438 L 227.546875 510.96875 L 289.246094 544.449219 L 321.417969 489.148438 "/>
<path style=" stroke:none;fill-rule:evenodd;fill:rgb(94.499207%,63.499451%,42.399597%);fill-opacity:1;" d="M 408.285156 453.988281 L 405.46875 424.28125 L 378.203125 413.5625 L 408.285156 453.988281 "/>
<path style=" stroke:none;fill-rule:evenodd;fill:rgb(87.098694%,51.799011%,33.299255%);fill-opacity:1;" d="M 405.46875 424.28125 L 421.824219 448.910156 L 408.285156 453.988281 L 405.46875 424.28125 "/>
<path style=" stroke:none;fill-rule:evenodd;fill:rgb(83.499146%,38.798523%,19.999695%);fill-opacity:1;" d="M 405.46875 424.28125 L 413.175781 415.632812 L 421.824219 448.910156 L 405.46875 424.28125 "/>
<path style=" stroke:none;fill-rule:evenodd;fill:rgb(83.099365%,41.999817%,21.598816%);fill-opacity:1;" d="M 405.46875 424.28125 L 395.691406 404.351562 L 413.175781 415.632812 L 405.46875 424.28125 "/>
<path style=" stroke:none;fill-rule:evenodd;fill:rgb(88.198853%,57.998657%,34.899902%);fill-opacity:1;" d="M 395.691406 404.351562 L 378.203125 413.5625 L 405.46875 424.28125 L 395.691406 404.351562 "/>
<path style=" stroke:none;fill-rule:evenodd;fill:rgb(87.098694%,49.798584%,27.799988%);fill-opacity:1;" d="M 395.691406 404.351562 L 430.097656 388.367188 L 413.175781 415.632812 L 395.691406 404.351562 "/>
<path style=" stroke:none;fill-rule:evenodd;fill:rgb(87.799072%,48.199463%,29.798889%);fill-opacity:1;" d="M 421.824219 448.910156 L 446.457031 435.183594 L 413.175781 415.632812 L 421.824219 448.910156 "/>
<path style=" stroke:none;fill-rule:evenodd;fill:rgb(88.999939%,49.398804%,29.399109%);fill-opacity:1;" d="M 430.097656 388.367188 L 446.457031 435.183594 L 413.175781 415.632812 L 430.097656 388.367188 "/>
<path style=" stroke:none;fill-rule:evenodd;fill:rgb(90.59906%,51.399231%,31.399536%);fill-opacity:1;" d="M 430.097656 388.367188 L 453.789062 380.847656 L 446.457031 435.183594 L 430.097656 388.367188 "/>
<path style=" stroke:none;fill-rule:evenodd;fill:rgb(94.898987%,60.798645%,41.999817%);fill-opacity:1;" d="M 453.789062 380.847656 L 468.269531 405.289062 L 446.457031 435.183594 L 453.789062 380.847656 "/>
<path style=" stroke:none;fill-rule:evenodd;fill:rgb(97.999573%,69.799805%,49.798584%);fill-opacity:1;" d="M 453.789062 380.847656 L 470.710938 379.152344 L 468.269531 405.289062 L 453.789062 380.847656 "/>
<path style=" stroke:none;fill-rule:evenodd;fill:rgb(98.799133%,82.398987%,67.498779%);fill-opacity:1;" d="M 468.269531 405.289062 L 482.746094 391 L 470.710938 379.152344 L 468.269531 405.289062 "/>
<path style=" stroke:none;fill-rule:evenodd;fill:rgb(98.799133%,83.499146%,70.199585%);fill-opacity:1;" d="M 468.269531 405.289062 L 480.488281 410.179688 L 482.746094 391 L 468.269531 405.289062 "/>
<path style=" stroke:none;fill-rule:evenodd;fill:rgb(97.999573%,70.999146%,54.499817%);fill-opacity:1;" d="M 446.457031 435.183594 L 480.488281 410.179688 L 468.269531 405.289062 L 446.457031 435.183594 "/>
<path style=" stroke:none;fill-rule:evenodd;fill:rgb(98.799133%,80.799866%,61.599731%);fill-opacity:1;" d="M 347.179688 468.277344 L 351.878906 428.226562 L 362.410156 451.355469 L 347.179688 468.277344 "/>
<path style=" stroke:none;fill-rule:evenodd;fill:rgb(94.898987%,72.198486%,50.59967%);fill-opacity:1;" d="M 334.019531 417.511719 L 314.648438 444.210938 L 284.378906 436.503906 L 334.019531 417.511719 "/>
<path style=" stroke:none;fill-rule:evenodd;fill:rgb(98.399353%,80.39856%,61.599731%);fill-opacity:1;" d="M 314.648438 444.210938 L 351.878906 428.226562 L 334.019531 417.511719 L 314.648438 444.210938 "/>
<path style=" stroke:none;fill-rule:evenodd;fill:rgb(98.799133%,84.298706%,68.199158%);fill-opacity:1;" d="M 314.648438 444.210938 L 347.179688 468.277344 L 351.878906 428.226562 L 314.648438 444.210938 "/>
<path style=" stroke:none;fill-rule:evenodd;fill:rgb(98.399353%,81.999207%,63.499451%);fill-opacity:1;" d="M 314.648438 444.210938 L 321.417969 489.148438 L 347.179688 468.277344 L 314.648438 444.210938 "/>
<path style=" stroke:none;fill-rule:evenodd;fill:rgb(97.999573%,79.598999%,59.599304%);fill-opacity:1;" d="M 321.417969 489.148438 L 261.03125 473.726562 L 314.648438 444.210938 L 321.417969 489.148438 "/>
<path style=" stroke:none;fill-rule:evenodd;fill:rgb(94.099426%,67.498779%,43.899536%);fill-opacity:1;" d="M 261.03125 473.726562 L 227.546875 510.96875 L 321.417969 489.148438 L 261.03125 473.726562 "/>
<path style=" stroke:none;fill-rule:evenodd;fill:rgb(96.099854%,76.098633%,54.899597%);fill-opacity:1;" d="M 261.03125 473.726562 L 284.378906 436.503906 L 314.648438 444.210938 L 261.03125 473.726562 "/>
<path style=" stroke:none;fill-rule:evenodd;fill:rgb(92.89856%,70.999146%,48.199463%);fill-opacity:1;" d="M 261.03125 473.726562 L 245.980469 450.773438 L 284.378906 436.503906 L 261.03125 473.726562 "/>
<path style=" stroke:none;fill-rule:evenodd;fill:rgb(89.399719%,64.698792%,39.199829%);fill-opacity:1;" d="M 261.03125 473.726562 L 216.261719 476.355469 L 245.980469 450.773438 L 261.03125 473.726562 "/>
<path style=" stroke:none;fill-rule:evenodd;fill:rgb(90.99884%,62.69989%,38.398743%);fill-opacity:1;" d="M 216.261719 476.355469 L 227.546875 510.96875 L 261.03125 473.726562 L 216.261719 476.355469 "/>
<path style=" stroke:none;fill-rule:evenodd;fill:rgb(85.899353%,57.299805%,32.899475%);fill-opacity:1;" d="M 216.261719 476.355469 L 182.777344 512.851562 L 227.546875 510.96875 L 216.261719 476.355469 "/>
<path style=" stroke:none;fill-rule:evenodd;fill:rgb(77.999878%,42.698669%,21.598816%);fill-opacity:1;" d="M 227.546875 510.96875 L 179.769531 538.808594 L 209.867188 575.675781 L 227.546875 510.96875 "/>
<path style=" stroke:none;fill-rule:evenodd;fill:rgb(83.499146%,52.49939%,28.599548%);fill-opacity:1;" d="M 179.769531 538.808594 L 182.777344 512.851562 L 227.546875 510.96875 L 179.769531 538.808594 "/>
<path style=" stroke:none;fill-rule:evenodd;fill:rgb(81.199646%,55.299377%,30.599976%);fill-opacity:1;" d="M 179.769531 538.808594 L 121.457031 573.042969 L 182.777344 512.851562 L 179.769531 538.808594 "/>
<path style=" stroke:none;fill-rule:evenodd;fill:rgb(74.899292%,42.399597%,22.399902%);fill-opacity:1;" d="M 209.867188 575.675781 L 289.246094 544.449219 L 227.546875 510.96875 L 209.867188 575.675781 "/>
<path style=" stroke:none;fill-rule:evenodd;fill:rgb(63.499451%,34.098816%,16.499329%);fill-opacity:1;" d="M 209.867188 575.675781 L 311.441406 583.953125 L 289.246094 544.449219 L 209.867188 575.675781 "/>
<path style=" stroke:none;fill-rule:evenodd;fill:rgb(62.69989%,35.299683%,18.399048%);fill-opacity:1;" d="M 209.867188 575.675781 L 264.417969 599.753906 L 311.441406 583.953125 L 209.867188 575.675781 "/>
<path style=" stroke:none;fill-rule:evenodd;fill:rgb(76.499939%,52.49939%,33.699036%);fill-opacity:1;" d="M 264.417969 599.753906 L 217.765625 603.140625 L 218.894531 632.105469 L 264.417969 599.753906 "/>
<path style=" stroke:none;fill-rule:evenodd;fill:rgb(70.999146%,43.099976%,24.299622%);fill-opacity:1;" d="M 209.867188 575.675781 L 217.765625 603.140625 L 264.417969 599.753906 L 209.867188 575.675781 "/>
<path style=" stroke:none;fill-rule:evenodd;fill:rgb(88.999939%,67.498779%,50.19989%);fill-opacity:1;" d="M 188.296875 674.300781 L 175.324219 636.558594 L 146.367188 674.300781 L 188.296875 674.300781 "/>
<path style=" stroke:none;fill-rule:evenodd;fill:rgb(90.19928%,69.799805%,52.198792%);fill-opacity:1;" d="M 188.296875 674.300781 L 206.160156 645.019531 L 175.324219 636.558594 L 188.296875 674.300781 "/>
<path style=" stroke:none;fill-rule:evenodd;fill:rgb(83.898926%,60.798645%,41.999817%);fill-opacity:1;" d="M 206.160156 645.019531 L 218.894531 632.105469 L 175.324219 636.558594 L 206.160156 645.019531 "/>
<path style=" stroke:none;fill-rule:evenodd;fill:rgb(80.799866%,55.299377%,36.499023%);fill-opacity:1;" d="M 217.765625 603.140625 L 175.324219 636.558594 L 218.894531 632.105469 L 217.765625 603.140625 "/>
<path style=" stroke:none;fill-rule:evenodd;fill:rgb(72.898865%,41.999817%,21.998596%);fill-opacity:1;" d="M 209.867188 575.675781 L 157.085938 598.203125 L 217.765625 603.140625 L 209.867188 575.675781 "/>
<path style=" stroke:none;fill-rule:evenodd;fill:rgb(75.299072%,45.498657%,25.898743%);fill-opacity:1;" d="M 157.085938 598.203125 L 175.324219 636.558594 L 217.765625 603.140625 L 157.085938 598.203125 "/>
<path style=" stroke:none;fill-rule:evenodd;fill:rgb(74.099731%,43.099976%,24.299622%);fill-opacity:1;" d="M 157.085938 598.203125 L 146.367188 674.300781 L 175.324219 636.558594 L 157.085938 598.203125 "/>
<path style=" stroke:none;fill-rule:evenodd;fill:rgb(71.798706%,41.598511%,21.598816%);fill-opacity:1;" d="M 157.085938 598.203125 L 81.957031 674.300781 L 146.367188 674.300781 L 157.085938 598.203125 "/>
<path style=" stroke:none;fill-rule:evenodd;fill:rgb(76.899719%,45.899963%,23.498535%);fill-opacity:1;" d="M 157.085938 598.203125 L 179.769531 538.808594 L 209.867188 575.675781 L 157.085938 598.203125 "/>
<path style=" stroke:none;fill-rule:evenodd;fill:rgb(78.399658%,50.19989%,26.699829%);fill-opacity:1;" d="M 157.085938 598.203125 L 121.457031 573.042969 L 179.769531 538.808594 L 157.085938 598.203125 "/>
<path style=" stroke:none;fill-rule:evenodd;fill:rgb(73.298645%,47.099304%,25.099182%);fill-opacity:1;" d="M 121.457031 573.042969 L 81.957031 674.300781 L 157.085938 598.203125 L 121.457031 573.042969 "/>
<path style=" stroke:none;fill-rule:evenodd;fill:rgb(76.899719%,48.599243%,26.298523%);fill-opacity:1;" d="M 121.457031 573.042969 L 0.695312 674.300781 L 81.957031 674.300781 L 121.457031 573.042969 "/>
<path style=" stroke:none;fill-rule:evenodd;fill:rgb(99.198914%,56.098938%,7.798767%);fill-opacity:1;" d="M 479.128906 460.132812 L 474.761719 387.183594 L 441.996094 462.3125 L 479.128906 460.132812 "/>
<path style=" stroke:none;fill-rule:evenodd;fill:rgb(99.198914%,37.298584%,2.799988%);fill-opacity:1;" d="M 479.128906 460.132812 L 509.269531 422.5625 L 474.761719 387.183594 L 479.128906 460.132812 "/>
<path style=" stroke:none;fill-rule:evenodd;fill:rgb(97.599792%,25.498962%,0.799561%);fill-opacity:1;" d="M 509.269531 422.5625 L 486.992188 333.890625 L 474.761719 387.183594 L 509.269531 422.5625 "/>
<path style=" stroke:none;fill-rule:evenodd;fill:rgb(94.898987%,18.399048%,1.599121%);fill-opacity:1;" d="M 474.761719 387.183594 L 455.101562 306.808594 L 486.992188 333.890625 L 474.761719 387.183594 "/>
<path style=" stroke:none;fill-rule:evenodd;fill:rgb(95.698547%,15.299988%,0.799561%);fill-opacity:1;" d="M 474.761719 387.183594 L 447.238281 369.710938 L 455.101562 306.808594 L 474.761719 387.183594 "/>
<path style=" stroke:none;fill-rule:evenodd;fill:rgb(96.499634%,22.399902%,1.199341%);fill-opacity:1;" d="M 447.238281 369.710938 L 441.996094 462.3125 L 474.761719 387.183594 L 447.238281 369.710938 "/>
<path style=" stroke:none;fill-rule:evenodd;fill:rgb(96.499634%,16.899109%,0.799561%);fill-opacity:1;" d="M 441.996094 462.3125 L 429.332031 402.472656 L 447.238281 369.710938 L 441.996094 462.3125 "/>
<path style=" stroke:none;fill-rule:evenodd;fill:rgb(95.298767%,27.49939%,17.599487%);fill-opacity:1;" d="M 441.996094 462.3125 L 407.925781 412.953125 L 402.246094 456.636719 L 441.996094 462.3125 "/>
<path style=" stroke:none;fill-rule:evenodd;fill:rgb(97.999573%,47.499084%,5.899048%);fill-opacity:1;" d="M 407.925781 412.953125 L 429.332031 402.472656 L 441.996094 462.3125 L 407.925781 412.953125 "/>
<path style=" stroke:none;fill-rule:evenodd;fill:rgb(96.099854%,59.999084%,6.698608%);fill-opacity:1;" d="M 407.925781 412.953125 L 379.097656 374.515625 L 402.246094 456.636719 L 407.925781 412.953125 "/>
<path style=" stroke:none;fill-rule:evenodd;fill:rgb(99.198914%,68.199158%,4.299927%);fill-opacity:1;" d="M 429.332031 402.472656 L 379.097656 374.515625 L 407.925781 412.953125 L 429.332031 402.472656 "/>
<path style=" stroke:none;fill-rule:evenodd;fill:rgb(99.598694%,45.899963%,1.599121%);fill-opacity:1;" d="M 429.332031 402.472656 L 401.375 334.765625 L 447.238281 369.710938 L 429.332031 402.472656 "/>
<path style=" stroke:none;fill-rule:evenodd;fill:rgb(98.799133%,70.599365%,36.099243%);fill-opacity:1;" d="M 509.269531 422.5625 L 514.070312 445.714844 L 479.128906 460.132812 L 509.269531 422.5625 "/>
<path style=" stroke:none;fill-rule:evenodd;fill:rgb(99.198914%,61.599731%,10.198975%);fill-opacity:1;" d="M 509.269531 422.5625 L 538.097656 382.816406 L 514.070312 445.714844 L 509.269531 422.5625 "/>
<path style=" stroke:none;fill-rule:evenodd;fill:rgb(99.598694%,61.999512%,5.499268%);fill-opacity:1;" d="M 538.097656 382.816406 L 486.992188 333.890625 L 509.269531 422.5625 L 538.097656 382.816406 "/>
<path style=" stroke:none;fill-rule:evenodd;fill:rgb(98.399353%,30.999756%,12.89978%);fill-opacity:1;" d="M 538.097656 382.816406 L 555.136719 412.519531 L 514.070312 445.714844 L 538.097656 382.816406 "/>
<path style=" stroke:none;fill-rule:evenodd;fill:rgb(99.198914%,61.199951%,17.999268%);fill-opacity:1;" d="M 555.136719 412.519531 L 582.964844 374.515625 L 576.539062 353.546875 L 555.136719 412.519531 "/>
<path style=" stroke:none;fill-rule:evenodd;fill:rgb(98.799133%,20.399475%,2.398682%);fill-opacity:1;" d="M 538.097656 382.816406 L 576.539062 353.546875 L 555.136719 412.519531 L 538.097656 382.816406 "/>
<path style=" stroke:none;fill-rule:evenodd;fill:rgb(98.399353%,82.699585%,47.099304%);fill-opacity:1;" d="M 576.539062 353.546875 L 595.320312 309.867188 L 582.964844 374.515625 L 576.539062 353.546875 "/>
<path style=" stroke:none;fill-rule:evenodd;fill:rgb(99.198914%,76.098633%,27.49939%);fill-opacity:1;" d="M 576.539062 353.546875 L 566.054688 327.339844 L 595.320312 309.867188 L 576.539062 353.546875 "/>
<path style=" stroke:none;fill-rule:evenodd;fill:rgb(99.598694%,56.098938%,3.49884%);fill-opacity:1;" d="M 486.992188 333.890625 L 513.199219 322.535156 L 538.097656 382.816406 L 486.992188 333.890625 "/>
<path style=" stroke:none;fill-rule:evenodd;fill:rgb(99.598694%,33.299255%,1.998901%);fill-opacity:1;" d="M 576.539062 353.546875 L 513.199219 322.535156 L 538.097656 382.816406 L 576.539062 353.546875 "/>
<path style=" stroke:none;fill-rule:evenodd;fill:rgb(99.598694%,42.399597%,7.798767%);fill-opacity:1;" d="M 566.054688 327.339844 L 513.199219 322.535156 L 576.539062 353.546875 L 566.054688 327.339844 "/>
<path style=" stroke:none;fill-rule:evenodd;fill:rgb(99.598694%,37.599182%,5.099487%);fill-opacity:1;" d="M 566.054688 327.339844 L 518.878906 289.773438 L 513.199219 322.535156 L 566.054688 327.339844 "/>
<path style=" stroke:none;fill-rule:evenodd;fill:rgb(99.598694%,74.499512%,5.499268%);fill-opacity:1;" d="M 486.992188 333.890625 L 489.175781 293.269531 L 455.101562 306.808594 L 486.992188 333.890625 "/>
<path style=" stroke:none;fill-rule:evenodd;fill:rgb(99.598694%,62.69989%,3.49884%);fill-opacity:1;" d="M 513.199219 322.535156 L 489.175781 293.269531 L 486.992188 333.890625 L 513.199219 322.535156 "/>
<path style=" stroke:none;fill-rule:evenodd;fill:rgb(99.598694%,49.798584%,0.799561%);fill-opacity:1;" d="M 489.175781 293.269531 L 518.878906 289.773438 L 513.199219 322.535156 L 489.175781 293.269531 "/>
<path style=" stroke:none;fill-rule:evenodd;fill:rgb(99.598694%,81.999207%,4.299927%);fill-opacity:1;" d="M 489.175781 293.269531 L 445.492188 246.527344 L 455.101562 306.808594 L 489.175781 293.269531 "/>
<path style=" stroke:none;fill-rule:evenodd;fill:rgb(99.598694%,81.599426%,3.898621%);fill-opacity:1;" d="M 489.175781 293.269531 L 499.65625 250.460938 L 445.492188 246.527344 L 489.175781 293.269531 "/>
<path style=" stroke:none;fill-rule:evenodd;fill:rgb(99.598694%,67.098999%,2.799988%);fill-opacity:1;" d="M 499.65625 250.460938 L 518.878906 289.773438 L 489.175781 293.269531 L 499.65625 250.460938 "/>
<path style=" stroke:none;fill-rule:evenodd;fill:rgb(99.598694%,72.198486%,3.898621%);fill-opacity:1;" d="M 499.65625 250.460938 L 521.9375 260.507812 L 511.890625 228.617188 L 499.65625 250.460938 "/>
<path style=" stroke:none;fill-rule:evenodd;fill:rgb(99.598694%,67.498779%,2.799988%);fill-opacity:1;" d="M 521.9375 260.507812 L 518.878906 289.773438 L 499.65625 250.460938 L 521.9375 260.507812 "/>
<path style=" stroke:none;fill-rule:evenodd;fill:rgb(99.598694%,51.799011%,10.198975%);fill-opacity:1;" d="M 521.9375 260.507812 L 566.054688 327.339844 L 518.878906 289.773438 L 521.9375 260.507812 "/>
<path style=" stroke:none;fill-rule:evenodd;fill:rgb(99.598694%,63.899231%,23.098755%);fill-opacity:1;" d="M 521.9375 260.507812 L 557.753906 246.089844 L 566.054688 327.339844 L 521.9375 260.507812 "/>
<path style=" stroke:none;fill-rule:evenodd;fill:rgb(99.598694%,60.398865%,3.898621%);fill-opacity:1;" d="M 511.890625 228.617188 L 557.753906 246.089844 L 521.9375 260.507812 L 511.890625 228.617188 "/>
<path style=" stroke:none;fill-rule:evenodd;fill:rgb(99.198914%,67.799377%,19.999695%);fill-opacity:1;" d="M 511.890625 228.617188 L 532.855469 201.972656 L 557.753906 246.089844 L 511.890625 228.617188 "/>
<path style=" stroke:none;fill-rule:evenodd;fill:rgb(99.598694%,94.499207%,35.299683%);fill-opacity:1;" d="M 532.855469 201.972656 L 504.027344 158.726562 L 494.855469 195.855469 L 532.855469 201.972656 "/>
<path style=" stroke:none;fill-rule:evenodd;fill:rgb(99.198914%,73.699951%,8.599854%);fill-opacity:1;" d="M 511.890625 228.617188 L 494.855469 195.855469 L 532.855469 201.972656 L 511.890625 228.617188 "/>
<path style=" stroke:none;fill-rule:evenodd;fill:rgb(100%,57.998657%,0%);fill-opacity:1;" d="M 499.65625 250.460938 L 494.855469 195.855469 L 511.890625 228.617188 L 499.65625 250.460938 "/>
<path style=" stroke:none;fill-rule:evenodd;fill:rgb(99.198914%,39.199829%,1.599121%);fill-opacity:1;" d="M 499.65625 250.460938 L 453.792969 215.078125 L 494.855469 195.855469 L 499.65625 250.460938 "/>
<path style=" stroke:none;fill-rule:evenodd;fill:rgb(99.198914%,70.199585%,3.49884%);fill-opacity:1;" d="M 453.792969 215.078125 L 445.492188 246.527344 L 499.65625 250.460938 L 453.792969 215.078125 "/>
<path style=" stroke:none;fill-rule:evenodd;fill:rgb(99.598694%,63.09967%,1.998901%);fill-opacity:1;" d="M 453.792969 215.078125 L 431.078125 172.707031 L 445.492188 246.527344 L 453.792969 215.078125 "/>
<path style=" stroke:none;fill-rule:evenodd;fill:rgb(99.598694%,60.398865%,2.398682%);fill-opacity:1;" d="M 447.238281 369.710938 L 425.835938 291.957031 L 455.101562 306.808594 L 447.238281 369.710938 "/>
<path style=" stroke:none;fill-rule:evenodd;fill:rgb(96.499634%,23.098755%,5.099487%);fill-opacity:1;" d="M 401.375 334.765625 L 412.730469 308.117188 L 379.097656 283.65625 L 401.375 334.765625 "/>
<path style=" stroke:none;fill-rule:evenodd;fill:rgb(99.198914%,37.998962%,0.799561%);fill-opacity:1;" d="M 412.730469 308.117188 L 447.238281 369.710938 L 401.375 334.765625 L 412.730469 308.117188 "/>
<path style=" stroke:none;fill-rule:evenodd;fill:rgb(99.198914%,47.499084%,1.199341%);fill-opacity:1;" d="M 412.730469 308.117188 L 425.835938 291.957031 L 447.238281 369.710938 L 412.730469 308.117188 "/>
<path style=" stroke:none;fill-rule:evenodd;fill:rgb(94.499207%,25.898743%,19.599915%);fill-opacity:1;" d="M 412.730469 308.117188 L 379.972656 221.628906 L 379.097656 283.65625 L 412.730469 308.117188 "/>
<path style=" stroke:none;fill-rule:evenodd;fill:rgb(99.598694%,68.199158%,2.799988%);fill-opacity:1;" d="M 425.835938 291.957031 L 445.492188 246.527344 L 455.101562 306.808594 L 425.835938 291.957031 "/>
<path style=" stroke:none;fill-rule:evenodd;fill:rgb(97.999573%,59.599304%,18.399048%);fill-opacity:1;" d="M 379.097656 374.515625 L 379.972656 439.601562 L 402.246094 456.636719 L 379.097656 374.515625 "/>
<path style=" stroke:none;fill-rule:evenodd;fill:rgb(95.698547%,26.298523%,5.099487%);fill-opacity:1;" d="M 379.097656 374.515625 L 347.210938 407.710938 L 379.972656 439.601562 L 379.097656 374.515625 "/>
<path style=" stroke:none;fill-rule:evenodd;fill:rgb(100%,56.098938%,7.099915%);fill-opacity:1;" d="M 379.097656 374.515625 L 383.902344 336.511719 L 346.773438 327.339844 L 379.097656 374.515625 "/>
<path style=" stroke:none;fill-rule:evenodd;fill:rgb(97.599792%,32.499695%,7.099915%);fill-opacity:1;" d="M 379.097656 374.515625 L 340.65625 366.652344 L 347.210938 407.710938 L 379.097656 374.515625 "/>
<path style=" stroke:none;fill-rule:evenodd;fill:rgb(100%,52.49939%,4.299927%);fill-opacity:1;" d="M 340.65625 366.652344 L 346.773438 327.339844 L 379.097656 374.515625 L 340.65625 366.652344 "/>
<path style=" stroke:none;fill-rule:evenodd;fill:rgb(98.799133%,70.199585%,33.699036%);fill-opacity:1;" d="M 340.65625 366.652344 L 326.242188 346.996094 L 346.773438 327.339844 L 340.65625 366.652344 "/>
<path style=" stroke:none;fill-rule:evenodd;fill:rgb(97.999573%,61.999512%,36.499023%);fill-opacity:1;" d="M 326.242188 346.996094 L 347.210938 407.710938 L 340.65625 366.652344 L 326.242188 346.996094 "/>
<path style=" stroke:none;fill-rule:evenodd;fill:rgb(99.198914%,54.499817%,2.398682%);fill-opacity:1;" d="M 383.902344 336.511719 L 429.332031 402.472656 L 379.097656 374.515625 L 383.902344 336.511719 "/>
<path style=" stroke:none;fill-rule:evenodd;fill:rgb(100%,41.999817%,2.398682%);fill-opacity:1;" d="M 383.902344 336.511719 L 401.375 334.765625 L 429.332031 402.472656 L 383.902344 336.511719 "/>
<path style=" stroke:none;fill-rule:evenodd;fill:rgb(99.198914%,52.49939%,5.899048%);fill-opacity:1;" d="M 383.902344 336.511719 L 379.097656 283.65625 L 401.375 334.765625 L 383.902344 336.511719 "/>
<path style=" stroke:none;fill-rule:evenodd;fill:rgb(99.598694%,68.598938%,39.99939%);fill-opacity:1;" d="M 383.902344 336.511719 L 352.015625 298.945312 L 346.773438 327.339844 L 383.902344 336.511719 "/>
<path style=" stroke:none;fill-rule:evenodd;fill:rgb(99.198914%,75.698853%,29.798889%);fill-opacity:1;" d="M 352.015625 298.945312 L 379.097656 283.65625 L 383.902344 336.511719 L 352.015625 298.945312 "/>
<path style=" stroke:none;fill-rule:evenodd;fill:rgb(99.598694%,94.099426%,70.599365%);fill-opacity:1;" d="M 352.015625 298.945312 L 355.714844 244.5625 L 379.097656 283.65625 L 352.015625 298.945312 "/>
<path style=" stroke:none;fill-rule:evenodd;fill:rgb(98.799133%,39.599609%,8.999634%);fill-opacity:1;" d="M 425.835938 291.957031 L 379.972656 221.628906 L 412.730469 308.117188 L 425.835938 291.957031 "/>
<path style=" stroke:none;fill-rule:evenodd;fill:rgb(99.598694%,59.599304%,2.398682%);fill-opacity:1;" d="M 425.835938 291.957031 L 431.078125 172.707031 L 445.492188 246.527344 L 425.835938 291.957031 "/>
<path style=" stroke:none;fill-rule:evenodd;fill:rgb(99.598694%,59.599304%,19.599915%);fill-opacity:1;" d="M 453.792969 215.078125 L 448.988281 87.964844 L 431.078125 172.707031 L 453.792969 215.078125 "/>
<path style=" stroke:none;fill-rule:evenodd;fill:rgb(99.198914%,58.399963%,29.399109%);fill-opacity:1;" d="M 494.855469 195.855469 L 469.082031 158.726562 L 453.792969 215.078125 L 494.855469 195.855469 "/>
<path style=" stroke:none;fill-rule:evenodd;fill:rgb(99.598694%,66.699219%,48.199463%);fill-opacity:1;" d="M 469.082031 158.726562 L 448.988281 87.964844 L 453.792969 215.078125 L 469.082031 158.726562 "/>
<path style=" stroke:none;fill-rule:evenodd;fill:rgb(100%,72.198486%,40.79895%);fill-opacity:1;" d="M 431.078125 172.707031 L 418.507812 139.308594 L 448.988281 87.964844 L 431.078125 172.707031 "/>
<path style=" stroke:none;fill-rule:evenodd;fill:rgb(99.598694%,52.89917%,8.198547%);fill-opacity:1;" d="M 431.078125 172.707031 L 409.234375 223.8125 L 425.835938 291.957031 L 431.078125 172.707031 "/>
<path style=" stroke:none;fill-rule:evenodd;fill:rgb(98.799133%,55.299377%,25.898743%);fill-opacity:1;" d="M 409.234375 223.8125 L 379.972656 221.628906 L 425.835938 291.957031 L 409.234375 223.8125 "/>
<path style=" stroke:none;fill-rule:evenodd;fill:rgb(97.999573%,66.299438%,55.699158%);fill-opacity:1;" d="M 409.234375 223.8125 L 389.144531 179.261719 L 379.972656 221.628906 L 409.234375 223.8125 "/>
<path style=" stroke:none;fill-rule:evenodd;fill:rgb(99.198914%,65.098572%,30.599976%);fill-opacity:1;" d="M 409.234375 223.8125 L 418.507812 139.308594 L 431.078125 172.707031 L 409.234375 223.8125 "/>
<path style=" stroke:none;fill-rule:evenodd;fill:rgb(99.198914%,81.999207%,65.899658%);fill-opacity:1;" d="M 409.234375 223.8125 L 389.144531 179.261719 L 418.507812 139.308594 "/>
<path style=" stroke:none;fill-rule:evenodd;fill:rgb(99.198914%,76.098633%,27.49939%);fill-opacity:1;" d="M 326.242188 346.996094 L 326.242188 291.957031 L 346.773438 327.339844 L 326.242188 346.996094 "/>
<path style=" stroke:none;fill-rule:evenodd;fill:rgb(98.399353%,82.699585%,47.099304%);fill-opacity:1;" d="M 352.015625 298.945312 L 326.242188 291.957031 L 346.773438 327.339844 L 352.015625 298.945312 "/>
<path style=" stroke:none;fill-rule:evenodd;fill:rgb(79.199219%,39.199829%,20.399475%);fill-opacity:1;" d="M 578.449219 422.023438 L 600.070312 428.226562 L 582.964844 412.058594 L 578.449219 422.023438 "/>
<path style=" stroke:none;fill-rule:evenodd;fill:rgb(81.999207%,41.19873%,22.399902%);fill-opacity:1;" d="M 613.046875 402.28125 L 582.964844 412.058594 L 600.070312 428.226562 L 613.046875 402.28125 "/>
<path style=" stroke:none;fill-rule:evenodd;fill:rgb(82.699585%,40.79895%,21.598816%);fill-opacity:1;" d="M 613.046875 402.28125 L 594.242188 380.28125 L 582.964844 412.058594 L 613.046875 402.28125 "/>
<path style=" stroke:none;fill-rule:evenodd;fill:rgb(72.898865%,36.499023%,17.999268%);fill-opacity:1;" d="M 558.144531 449.285156 L 546.109375 486.703125 L 563.40625 480.875 L 558.144531 449.285156 "/>
<path style=" stroke:none;fill-rule:evenodd;fill:rgb(74.499512%,38.798523%,17.999268%);fill-opacity:1;" d="M 558.144531 449.285156 L 569.238281 432.742188 L 563.40625 480.875 L 558.144531 449.285156 "/>
<path style=" stroke:none;fill-rule:evenodd;fill:rgb(81.599426%,43.499756%,21.598816%);fill-opacity:1;" d="M 569.238281 432.742188 L 578.449219 422.023438 L 600.070312 428.226562 L 569.238281 432.742188 "/>
<path style=" stroke:none;fill-rule:evenodd;fill:rgb(77.999878%,40.79895%,19.599915%);fill-opacity:1;" d="M 569.238281 432.742188 L 577.699219 440.449219 L 563.40625 480.875 L 569.238281 432.742188 "/>
<path style=" stroke:none;fill-rule:evenodd;fill:rgb(81.599426%,43.099976%,21.598816%);fill-opacity:1;" d="M 569.238281 432.742188 L 577.699219 440.449219 L 600.070312 428.226562 L 569.238281 432.742188 "/>
<path style=" stroke:none;fill-rule:evenodd;fill:rgb(85.499573%,47.799683%,25.898743%);fill-opacity:1;" d="M 588.792969 460.945312 L 577.699219 440.449219 L 600.070312 428.226562 L 588.792969 460.945312 "/>
<path style=" stroke:none;fill-rule:evenodd;fill:rgb(83.898926%,46.299744%,25.099182%);fill-opacity:1;" d="M 588.792969 460.945312 L 563.40625 480.875 L 577.699219 440.449219 L 588.792969 460.945312 "/>
<path style=" stroke:none;fill-rule:evenodd;fill:rgb(96.499634%,72.499084%,52.198792%);fill-opacity:1;" d="M 588.792969 460.945312 L 576.570312 485.765625 L 593.492188 483.882812 L 588.792969 460.945312 "/>
<path style=" stroke:none;fill-rule:evenodd;fill:rgb(87.098694%,52.49939%,30.198669%);fill-opacity:1;" d="M 576.570312 485.765625 L 563.40625 480.875 L 588.792969 460.945312 L 576.570312 485.765625 "/>
<path style=" stroke:none;fill-rule:evenodd;fill:rgb(82.699585%,38.798523%,20.399475%);fill-opacity:1;" d="M 536.519531 403.972656 L 548.179688 395.324219 L 539.339844 375.207031 L 536.519531 403.972656 "/>
<path style=" stroke:none;fill-rule:evenodd;fill:rgb(99.598694%,91.398621%,78.799438%);fill-opacity:1;" d="M 536.519531 403.972656 L 532.761719 376.710938 L 539.339844 375.207031 L 536.519531 403.972656 "/>
<path style=" stroke:none;fill-rule:evenodd;fill:rgb(100%,97.599792%,86.698914%);fill-opacity:1;" d="M 539.339844 375.207031 L 538.554688 370.574219 L 532.761719 376.710938 L 539.339844 375.207031 "/>
<path style=" stroke:none;fill-rule:evenodd;fill:rgb(99.198914%,90.99884%,79.598999%);fill-opacity:1;" d="M 527.242188 392.773438 L 532.761719 376.710938 L 536.519531 403.972656 L 527.242188 392.773438 "/>
<path style=" stroke:none;fill-rule:evenodd;fill:rgb(97.999573%,77.598572%,60.798645%);fill-opacity:1;" d="M 525.082031 368.820312 L 527.242188 392.773438 L 532.761719 376.710938 L 525.082031 368.820312 "/>
<path style=" stroke:none;fill-rule:evenodd;fill:rgb(98.799133%,83.099365%,61.999512%);fill-opacity:1;" d="M 536.519531 403.972656 L 536.894531 431.800781 L 525.992188 417.511719 L 536.519531 403.972656 "/>
<path style=" stroke:none;fill-rule:evenodd;fill:rgb(98.799133%,86.698914%,72.499084%);fill-opacity:1;" d="M 527.242188 392.773438 L 525.992188 417.511719 L 536.519531 403.972656 L 527.242188 392.773438 "/>
<path style=" stroke:none;fill-rule:evenodd;fill:rgb(97.299194%,61.199951%,40.39917%);fill-opacity:1;" d="M 527.242188 392.773438 L 520.726562 382.539062 L 525.082031 368.820312 L 527.242188 392.773438 "/>
<path style=" stroke:none;fill-rule:evenodd;fill:rgb(96.899414%,64.698792%,45.899963%);fill-opacity:1;" d="M 527.242188 392.773438 L 519.597656 409.050781 L 525.992188 417.511719 L 527.242188 392.773438 "/>
<path style=" stroke:none;fill-rule:evenodd;fill:rgb(99.198914%,91.799927%,82.699585%);fill-opacity:1;" d="M 569.613281 369.5625 L 571.871094 335.53125 L 565.101562 340.984375 L 569.613281 369.5625 "/>
<path style=" stroke:none;fill-rule:evenodd;fill:rgb(100%,89.7995%,80.799866%);fill-opacity:1;" d="M 569.613281 369.5625 L 560.023438 358.097656 L 565.101562 340.984375 L 569.613281 369.5625 "/>
<path style=" stroke:none;fill-rule:evenodd;fill:rgb(98.799133%,87.5%,73.298645%);fill-opacity:1;" d="M 569.613281 369.5625 L 565.476562 402.65625 L 560.023438 358.097656 L 569.613281 369.5625 "/>
<path style=" stroke:none;fill-rule:evenodd;fill:rgb(98.399353%,77.999878%,59.999084%);fill-opacity:1;" d="M 554.195312 394.570312 L 560.023438 358.097656 L 565.476562 402.65625 L 554.195312 394.570312 "/>
<path style=" stroke:none;fill-rule:evenodd;fill:rgb(98.799133%,85.499573%,70.599365%);fill-opacity:1;" d="M 565.101562 340.984375 L 557.953125 328.953125 L 571.871094 335.53125 L 565.101562 340.984375 "/>
<path style=" stroke:none;fill-rule:evenodd;fill:rgb(98.399353%,77.598572%,60.798645%);fill-opacity:1;" d="M 557.953125 328.953125 L 560.023438 358.097656 L 565.101562 340.984375 L 557.953125 328.953125 "/>
<path style=" stroke:none;fill-rule:evenodd;fill:rgb(94.499207%,54.899597%,33.699036%);fill-opacity:1;" d="M 557.953125 328.953125 L 543.476562 335.90625 L 560.023438 358.097656 L 557.953125 328.953125 "/>
<path style=" stroke:none;fill-rule:evenodd;fill:rgb(87.799072%,46.299744%,26.298523%);fill-opacity:1;" d="M 560.023438 358.097656 L 533.136719 352.078125 L 543.476562 335.90625 L 560.023438 358.097656 "/>
<path style=" stroke:none;fill-rule:evenodd;fill:rgb(99.598694%,79.199219%,57.998657%);fill-opacity:1;" d="M 538.554688 370.574219 L 531.941406 369.476562 L 532.761719 376.710938 L 538.554688 370.574219 "/>
<path style=" stroke:none;fill-rule:evenodd;fill:rgb(93.699646%,76.899719%,62.399292%);fill-opacity:1;" d="M 531.941406 369.476562 L 525.082031 368.820312 L 532.761719 376.710938 L 531.941406 369.476562 "/>
<path style=" stroke:none;fill-rule:evenodd;fill:rgb(79.199219%,44.699097%,25.898743%);fill-opacity:1;" d="M 531.941406 369.476562 L 533.136719 352.078125 L 538.554688 370.574219 L 531.941406 369.476562 "/>
<path style=" stroke:none;fill-rule:evenodd;fill:rgb(85.499573%,43.099976%,23.498535%);fill-opacity:1;" d="M 538.554688 370.574219 L 560.023438 358.097656 L 533.136719 352.078125 L 538.554688 370.574219 "/>
<path style=" stroke:none;fill-rule:evenodd;fill:rgb(95.698547%,58.799744%,38.798523%);fill-opacity:1;" d="M 551.007812 374.832031 L 554.195312 394.570312 L 560.023438 358.097656 L 551.007812 374.832031 "/>
<path style=" stroke:none;fill-rule:evenodd;fill:rgb(90.19928%,46.699524%,27.099609%);fill-opacity:1;" d="M 551.007812 374.832031 L 538.554688 370.574219 L 560.023438 358.097656 L 551.007812 374.832031 "/>
<path style=" stroke:none;fill-rule:evenodd;fill:rgb(86.299133%,45.098877%,25.898743%);fill-opacity:1;" d="M 551.007812 374.832031 L 539.339844 375.207031 L 538.554688 370.574219 L 551.007812 374.832031 "/>
<path style=" stroke:none;fill-rule:evenodd;fill:rgb(87.098694%,40.79895%,21.598816%);fill-opacity:1;" d="M 551.007812 374.832031 L 548.179688 395.324219 L 539.339844 375.207031 L 551.007812 374.832031 "/>
<path style=" stroke:none;fill-rule:evenodd;fill:rgb(92.199707%,51.399231%,30.198669%);fill-opacity:1;" d="M 551.007812 374.832031 L 554.195312 394.570312 L 548.179688 395.324219 L 551.007812 374.832031 "/>
<path style=" stroke:none;fill-rule:evenodd;fill:rgb(98.799133%,85.499573%,67.799377%);fill-opacity:1;" d="M 563.21875 431.234375 L 565.476562 402.65625 L 554.195312 394.570312 L 563.21875 431.234375 "/>
<path style=" stroke:none;fill-rule:evenodd;fill:rgb(98.799133%,83.099365%,63.09967%);fill-opacity:1;" d="M 563.21875 431.234375 L 558.144531 449.285156 L 551.1875 431.234375 L 563.21875 431.234375 "/>
<path style=" stroke:none;fill-rule:evenodd;fill:rgb(98.799133%,80.39856%,56.898499%);fill-opacity:1;" d="M 551.1875 431.234375 L 554.195312 394.570312 L 563.21875 431.234375 L 551.1875 431.234375 "/>
<path style=" stroke:none;fill-rule:evenodd;fill:rgb(94.499207%,55.699158%,30.198669%);fill-opacity:1;" d="M 548.179688 395.324219 L 551.1875 431.234375 L 554.195312 394.570312 L 548.179688 395.324219 "/>
<path style=" stroke:none;fill-rule:evenodd;fill:rgb(84.698486%,42.698669%,19.999695%);fill-opacity:1;" d="M 548.179688 395.324219 L 536.894531 431.800781 L 536.519531 403.972656 L 548.179688 395.324219 "/>
<path style=" stroke:none;fill-rule:evenodd;fill:rgb(88.999939%,47.499084%,21.998596%);fill-opacity:1;" d="M 548.179688 395.324219 L 551.1875 431.234375 L 536.894531 431.800781 L 548.179688 395.324219 "/>
<path style=" stroke:none;fill-rule:evenodd;fill:rgb(98.399353%,80.39856%,60.398865%);fill-opacity:1;" d="M 546.109375 486.703125 L 539.71875 460.945312 L 558.144531 449.285156 L 546.109375 486.703125 "/>
<path style=" stroke:none;fill-rule:evenodd;fill:rgb(98.399353%,77.2995%,54.899597%);fill-opacity:1;" d="M 539.71875 460.945312 L 551.1875 431.234375 L 558.144531 449.285156 L 539.71875 460.945312 "/>
<path style=" stroke:none;fill-rule:evenodd;fill:rgb(92.89856%,55.699158%,28.199768%);fill-opacity:1;" d="M 539.71875 460.945312 L 536.894531 431.800781 L 551.1875 431.234375 L 539.71875 460.945312 "/>
<path style=" stroke:none;fill-rule:evenodd;fill:rgb(90.59906%,54.098511%,27.49939%);fill-opacity:1;" d="M 539.71875 460.945312 L 528.8125 464.519531 L 536.894531 431.800781 L 539.71875 460.945312 "/>
<path style=" stroke:none;fill-rule:evenodd;fill:rgb(89.399719%,52.49939%,28.999329%);fill-opacity:1;" d="M 539.71875 460.945312 L 521.476562 481.4375 L 528.8125 464.519531 L 539.71875 460.945312 "/>
<path style=" stroke:none;fill-rule:evenodd;fill:rgb(92.199707%,66.699219%,46.699524%);fill-opacity:1;" d="M 539.71875 460.945312 L 523.171875 502.683594 L 546.109375 486.703125 L 539.71875 460.945312 "/>
<path style=" stroke:none;fill-rule:evenodd;fill:rgb(88.198853%,56.498718%,34.098816%);fill-opacity:1;" d="M 521.476562 481.4375 L 523.171875 502.683594 L 539.71875 460.945312 L 521.476562 481.4375 "/>
<path style=" stroke:none;fill-rule:evenodd;fill:rgb(82.398987%,47.499084%,23.098755%);fill-opacity:1;" d="M 517.34375 437.253906 L 502.863281 426.160156 L 502.109375 438.382812 L 517.34375 437.253906 "/>
<path style=" stroke:none;fill-rule:evenodd;fill:rgb(86.698914%,48.599243%,26.699829%);fill-opacity:1;" d="M 517.34375 437.253906 L 519.597656 409.050781 L 502.863281 426.160156 L 517.34375 437.253906 "/>
<path style=" stroke:none;fill-rule:evenodd;fill:rgb(93.699646%,58.399963%,36.898804%);fill-opacity:1;" d="M 517.34375 437.253906 L 525.992188 417.511719 L 519.597656 409.050781 L 517.34375 437.253906 "/>
<path style=" stroke:none;fill-rule:evenodd;fill:rgb(97.999573%,74.499512%,53.29895%);fill-opacity:1;" d="M 517.34375 437.253906 L 536.894531 431.800781 L 525.992188 417.511719 L 517.34375 437.253906 "/>
<path style=" stroke:none;fill-rule:evenodd;fill:rgb(97.999573%,79.598999%,56.898499%);fill-opacity:1;" d="M 517.34375 437.253906 L 528.8125 464.519531 L 536.894531 431.800781 L 517.34375 437.253906 "/>
<path style=" stroke:none;fill-rule:evenodd;fill:rgb(98.399353%,80.39856%,60.798645%);fill-opacity:1;" d="M 503.238281 481.0625 L 528.8125 464.519531 L 521.476562 481.4375 L 503.238281 481.0625 "/>
<path style=" stroke:none;fill-rule:evenodd;fill:rgb(96.899414%,72.898865%,51.799011%);fill-opacity:1;" d="M 503.238281 481.0625 L 517.34375 437.253906 L 528.8125 464.519531 L 503.238281 481.0625 "/>
<path style=" stroke:none;fill-rule:evenodd;fill:rgb(88.999939%,54.899597%,31.799316%);fill-opacity:1;" d="M 486.128906 480.3125 L 517.34375 437.253906 L 503.238281 481.0625 L 486.128906 480.3125 "/>
<path style=" stroke:none;fill-rule:evenodd;fill:rgb(86.698914%,51.799011%,28.599548%);fill-opacity:1;" d="M 502.109375 438.382812 L 486.128906 480.3125 L 517.34375 437.253906 L 502.109375 438.382812 "/>
<path style=" stroke:none;fill-rule:evenodd;fill:rgb(83.898926%,51.399231%,27.799988%);fill-opacity:1;" d="M 502.109375 438.382812 L 482.652344 463.296875 L 486.128906 480.3125 L 502.109375 438.382812 "/>
<path style=" stroke:none;fill-rule:evenodd;fill:rgb(85.899353%,46.699524%,25.898743%);fill-opacity:1;" d="M 502.863281 426.160156 L 504.554688 389.683594 L 519.597656 409.050781 L 502.863281 426.160156 "/>
<path style=" stroke:none;fill-rule:evenodd;fill:rgb(95.298767%,55.699158%,36.499023%);fill-opacity:1;" d="M 520.726562 382.539062 L 519.597656 409.050781 L 527.242188 392.773438 L 520.726562 382.539062 "/>
<path style=" stroke:none;fill-rule:evenodd;fill:rgb(88.598633%,46.299744%,26.298523%);fill-opacity:1;" d="M 520.726562 382.539062 L 504.554688 389.683594 L 519.597656 409.050781 L 520.726562 382.539062 "/>
<path style=" stroke:none;fill-rule:evenodd;fill:rgb(87.5%,49.398804%,26.298523%);fill-opacity:1;" d="M 520.726562 382.539062 L 513.957031 375.207031 L 504.554688 389.683594 L 520.726562 382.539062 "/>
<path style=" stroke:none;fill-rule:evenodd;fill:rgb(92.89856%,53.69873%,30.999756%);fill-opacity:1;" d="M 513.957031 375.207031 L 525.082031 368.820312 L 520.726562 382.539062 L 513.957031 375.207031 "/>
</g>
</svg>
